<svg xmlns="http://www.w3.org/2000/svg" xmlns:xlink="http://www.w3.org/1999/xlink" width="416" height="416" viewBox="0 0 416 416">
    <defs>
        <path id="a" d="M0 0h416v416H0z"/>
    </defs>
    <g fill="none" fill-rule="evenodd">
        <mask id="b" fill="#fff">
            <use xlink:href="#a"/>
        </mask>
        <use fill="#000" xlink:href="#a"/>
        <g mask="url(#b)">
            <path fill="#FFFFFE" d="M101.423 219.155l3.6-4.962c2.702 2.318 6.753 3.808 10.411 3.808 2.813 0 4.783-.94 4.783-2.87 0-2.041-1.576-2.812-5.684-3.53-5.682-.991-11.76-2.316-11.76-9.212 0-5.902 4.952-9.322 11.647-9.322 6.133 0 9.848 1.546 13.168 4.138l-3.545 5.019c-3.04-2.042-6.022-3.2-8.835-3.2-2.589 0-4.051.992-4.051 2.595 0 1.764 1.631 2.483 5.345 3.144 5.908.993 12.155 2.316 12.155 8.99 0 7.116-6.302 9.928-13.223 9.928-6.583 0-10.974-1.984-14.011-4.526zm49.16-26.088c6.808 0 11.533 5.132 11.533 15.279 0 10.153-4.783 15.169-11.647 15.169-4.051 0-6.865-1.432-9.116-3.914v14.505h-9.095V201.62c0-3.532-.225-5.682-.844-7.174l8.87-1.378c.45 1.05.844 3.752.844 5.408 1.971-2.649 5.008-5.408 9.454-5.408zm15.107 15.336c0-11.528 8.046-15.336 15.361-15.336 7.26 0 15.306 3.808 15.306 15.336 0 11.416-8.045 15.278-15.306 15.278-7.258 0-15.36-3.862-15.36-15.278zm44.066-9.6c1.635-2.483 4.616-5.736 9.735-5.736.395 0 1.137.11 1.137.11l-.674 7.779c-.068-.057-1.532-.164-2.094-.164-3.601 0-6.304 1.874-7.99 4.026v18.256h-9.06v-21.455c0-3.532-.225-5.682-.843-7.174l8.834-1.378c.45 1.05.843 4.082.843 5.736h.112zm28.01 18.459c1.52 0 3.32-.328 4.107-.549l1.744 6.397c-1.573.552-3.993 1.268-8.44 1.268-8.89 0-9.06-4.798-9.06-10.314v-12.379h-4.728l.55-7.654h4.178v-7.88l9.004-1.653v9.533h7.71v7.654h-7.71v11.552c0 2.59.62 4.025 2.645 4.025zm7.188 1.893l3.601-4.962c2.7 2.318 6.751 3.808 10.407 3.808 2.816 0 4.785-.94 4.785-2.87 0-2.041-1.575-2.812-5.683-3.53-5.684-.991-11.76-2.316-11.76-9.212 0-5.902 4.951-9.322 11.648-9.322 6.134 0 9.847 1.546 13.166 4.138l-3.544 5.019c-3.038-2.042-6.02-3.2-8.834-3.2-2.587 0-4.052.992-4.052 2.595 0 1.764 1.633 2.483 5.347 3.144 5.908.993 12.154 2.316 12.154 8.99 0 7.116-6.303 9.928-13.227 9.928-6.582 0-10.97-1.984-14.008-4.526zm48.353-20.352c1.631-2.483 4.613-5.736 9.734-5.736.396 0 1.136.11 1.136.11l-.675 7.779c-.065-.057-1.53-.164-2.093-.164-3.6 0-6.304 1.874-7.992 4.026v18.256h-9.057v-21.455c0-3.532-.226-5.682-.845-7.174l8.835-1.378c.45 1.05.843 4.082.843 5.736h.114zm32.498 19.618c-1.8 2.258-5.178 5.402-10.412 5.402-5.118 0-8.777-2.481-8.777-8.55v-22.018h9.06v19.428c0 2.645 1.012 4.077 3.544 4.077 2.42 0 4.504-1.264 6.528-2.974v-20.53h9.059v21.411c0 3.53.226 6.23.9 7.724l-9.059 1.432c-.45-1.155-.73-3.912-.73-5.402h-.113zm-48.253 5.793c-2.753 0-5.001-2.303-5.001-5.058 0-2.752 2.248-4.943 5-4.943 2.755 0 5.002 2.19 5.002 4.943 0 2.755-2.247 5.058-5.001 5.058zm-124.495-15.81c0-4.91-1.745-8.003-5.795-8.003-2.308 0-4.39 1.383-5.909 2.87v10.868c1.969 1.82 3.601 2.703 6.021 2.703 3.772 0 5.683-3.09 5.683-8.439zm34.241.052c0-4.908-1.745-8.88-6.247-8.88-4.331 0-6.301 3.585-6.301 8.88 0 4.91 1.688 8.992 6.301 8.992 4.279 0 6.247-3.64 6.247-8.992z"/>
            <path fill="#DB3252" d="M85 188.054c-2.753 0-5-2.303-5-5.057 0-2.753 2.247-4.944 5-4.944s5.002 2.191 5.002 4.944c0 2.754-2.25 5.057-5.002 5.057"/>
            <path fill="#F8C723" d="M85 200.554c-2.753 0-5-2.303-5-5.057 0-2.752 2.247-4.944 5-4.944s5.002 2.192 5.002 4.944c0 2.754-2.25 5.057-5.002 5.057"/>
            <path fill="#2C9B46" d="M85 213.054c-2.753 0-5-2.303-5-5.058 0-2.751 2.247-4.944 5-4.944s5.002 2.193 5.002 4.944c0 2.755-2.25 5.058-5.002 5.058"/>
            <path fill="#39A1CE" d="M85 225.553c-2.753 0-5-2.303-5-5.058 0-2.751 2.247-4.943 5-4.943s5.002 2.192 5.002 4.943c0 2.755-2.25 5.058-5.002 5.058"/>
            <path fill="#945E98" d="M85 238.054c-2.753 0-5-2.304-5-5.059 0-2.75 2.247-4.943 5-4.943s5.002 2.193 5.002 4.943c0 2.755-2.25 5.06-5.002 5.06"/>
        </g>
    </g>
</svg>
