<svg xmlns="http://www.w3.org/2000/svg" width="64" height="64" viewBox="0 0 64 64">
  <path fill="#00AEEF" d="M33 39h3v-2h-3v2zm0-3h3v-2h-3v2zm0-3h3v-2h-3v2zm0-3h3v-2h-3v2zm-9-.949V33h-3.949A4.476 4.476 0 0 1 24 29.051zm5 4.449c0 2.482-2.019 4.5-4.5 4.5-1.953 0-3.603-1.258-4.224-3H25a1 1 0 0 0 1-1v-4.724c1.742.622 3 2.271 3 4.224zM24.5 40c3.584 0 6.5-2.916 6.5-6.5 0-3.067-2.138-5.639-5-6.318V27h-2v.026A6.503 6.503 0 0 0 18.025 33H18v2h.182c.679 2.862 3.251 5 6.318 5zM20 18h2v5h-2v-5zm4 5h2v-3h-2v3zm4-5h2v5h-2v-5zm4-3h2v8h-2v-8zM19 25h16a1 1 0 0 0 1-1V14a1 1 0 0 0-1-1h-4a1 1 0 0 0-1 1v2h-3a1 1 0 0 0-1 1v1h-2v-1a1 1 0 0 0-1-1h-4a1 1 0 0 0-1 1v7a1 1 0 0 0 1 1zm32 29.238c0 .42-.342.762-.762.762H24.774a.774.774 0 0 1-.774-.771V52h21.238A2.765 2.765 0 0 0 48 49.238V20h2.226c.426 0 .774.346.774.772v33.466zM19.774 50a.774.774 0 0 1-.774-.771V47h20.798A3.206 3.206 0 0 0 43 43.798V15h2.226c.426 0 .774.346.774.772v33.466c0 .42-.342.762-.762.762H19.774zm-4.572-5A1.203 1.203 0 0 1 14 43.798V11.202c0-.663.539-1.202 1.202-1.202h24.596c.663 0 1.202.539 1.202 1.202v32.596c0 .663-.539 1.202-1.202 1.202H15.202zm35.024-27H48v-2.228A2.776 2.776 0 0 0 45.226 13H43v-1.798A3.206 3.206 0 0 0 39.798 8H15.202A3.206 3.206 0 0 0 12 11.202v32.596A3.206 3.206 0 0 0 15.202 47H17v2.229A2.775 2.775 0 0 0 19.774 52H22v2.229A2.775 2.775 0 0 0 24.774 57h25.464A2.765 2.765 0 0 0 53 54.238V20.772A2.776 2.776 0 0 0 50.226 18z"/>
</svg>
