<svg xmlns="http://www.w3.org/2000/svg" width="32" height="32" viewBox="0 0 32 32">
  <path fill="#00AEEF" d="M28 25.757v-3.181A4.947 4.947 0 0 1 26 23a4.947 4.947 0 0 1-2-.424v3.18l2-1 2 1zM22 23v-2.031c-.62-.833-1-1.853-1-2.97 0-2.756 2.243-5 5-5 .712 0 1.387.155 2 .425V6H4v17h18zm4-2c1.654 0 3-1.346 3-3s-1.346-3-3-3-3 1.346-3 3 1.346 3 3 3zm4-.031v8.024l-4-2-4 2V25H3a1 1 0 0 1-1-1V5a1 1 0 0 1 1-1h26a1 1 0 0 1 1 1v10.03c.62.834 1 1.854 1 2.97s-.38 2.136-1 2.969zm-23 .03h3v-2H7v2zm0-10h18V9H7v2zm5 4h8v-2h-8v2zm0 6h3v-2h-3v2z"/>
</svg>
