<svg xmlns="http://www.w3.org/2000/svg" width="32" height="32" viewBox="0 0 32 32">
  <path fill="#00AEEF" d="M17 20h7v-2h-7v2zm-2-4h11v-2H15v2zm15 11.586l-3.293-3.293A.996.996 0 0 0 26 24H12c-.552 0-1-.449-1-1V11c0-.551.448-1 1-1h17c.552 0 1 .449 1 1v16.586zM6 18a.996.996 0 0 0-.707.293L2 21.586V5c0-.551.448-1 1-1h17c.552 0 1 .449 1 1v3h-9c-1.654 0-3 1.346-3 3v7H6zM29 8h-6V5c0-1.654-1.346-3-3-3H3C1.346 2 0 3.346 0 5v19a1 1 0 0 0 1.707.707L6.414 20H9v3c0 1.654 1.346 3 3 3h13.586l4.707 4.707A1 1 0 0 0 32 30V11c0-1.654-1.346-3-3-3z"/>
</svg>
