<svg xmlns="http://www.w3.org/2000/svg" width="32" height="32" viewBox="0 0 32 32">
  <path fill="#00AEEF" d="M5.503 5.503l6.437 21.15 4.098-5.671a.998.998 0 0 1 .731-.411.966.966 0 0 1 .787.289l4.238 4.239 3.306-3.304-4.24-4.24a1.002 1.002 0 0 1 .122-1.517l5.671-4.098-21.15-6.437zm6.066 24.37a1.004 1.004 0 0 1-.957-.709L3.043 4.292a1.001 1.001 0 0 1 1.248-1.248l24.873 7.569a1 1 0 0 1 .295 1.767l-6.354 4.592 4.116 4.115a1.004 1.004 0 0 1 0 1.415l-4.72 4.718a.999.999 0 0 1-1.414 0l-4.115-4.115-4.592 6.354c-.19.262-.493.414-.811.414z"/>
</svg>
