<svg xmlns="http://www.w3.org/2000/svg" width="64" height="64" viewBox="0 0 64 64">
  <path fill="#00AEEF" fill-rule="evenodd" d="M28 47h8v-2h-8v2zm6.54-5h-5.08l-7.027-7.027L31 20.954v8.188c-1.721.447-3 2-3 3.858 0 2.206 1.794 4 4 4s4-1.794 4-4c0-1.858-1.279-3.411-3-3.858v-8.188l8.567 14.019L34.54 42zM32 31c1.103 0 2 .898 2 2 0 1.103-.897 2-2 2s-2-.897-2-2c0-1.102.897-2 2-2zm1-13.883V17h-.072l-.074-.122c-.364-.594-1.344-.594-1.708 0l-.074.122H31v.117L20.315 34.602a1 1 0 0 0 .147 1.228l7.877 7.877a.996.996 0 0 0 .707.293h5.908c.266 0 .52-.105.707-.293l7.877-7.877a1 1 0 0 0 .147-1.228L33 17.117zM53 34h4v-4h-4v4zM36 53.009V52a1 1 0 0 0-1-1h-6a1 1 0 0 0-1 1v1.009C19.426 51.379 12.619 44.57 10.992 36H12a1 1 0 0 0 1-1v-6a1 1 0 0 0-1-1h-1.008C12.62 19.429 19.427 12.62 28 10.991V13a1 1 0 0 0 1 1h6a1 1 0 0 0 1-1v-2.008C44.574 12.62 51.38 19.43 53.009 28H52a1 1 0 0 0-1 1v6a1 1 0 0 0 1 1h1.008C51.38 44.571 44.573 51.38 36 53.009zM30 57h4v-4h-4v4zM7 34h4v-4H7v4zm23-22h4V8h-4v4zm28 16h-2.959C53.368 18.329 45.676 10.631 36 8.959V7a1 1 0 0 0-1-1h-6a1 1 0 0 0-1 1v1.959C18.325 10.632 10.633 18.328 8.959 28H6a1 1 0 0 0-1 1v6a1 1 0 0 0 1 1h2.959C10.632 45.671 18.325 53.367 28 55.041V58a1 1 0 0 0 1 1h6a1 1 0 0 0 1-1v-2.959C45.675 53.369 53.367 45.672 55.041 36H58a1 1 0 0 0 1-1v-6a1 1 0 0 0-1-1z"/>
</svg>
