<svg xmlns="http://www.w3.org/2000/svg" width="24" height="24" viewBox="0 0 24 24">
  <path class="contour" d="M19.82 9.768l-.03.093-.023.096c-.489 2.197-4.528 5.69-7.763 7.9-3.242-2.212-7.287-5.708-7.773-7.897l-.02-.098-.033-.095A3.576 3.576 0 0 1 4 8.653a3.66 3.66 0 0 1 1.89-3.2 3.614 3.614 0 0 1 1.756-.454C10 5 12.01 8.183 12.01 8.183S14 4.998 16.35 4.998c.624 0 1.217.154 1.763.455A3.669 3.669 0 0 1 20 8.654c0 .377-.06.75-.18 1.114m-.742-6.066A5.623 5.623 0 0 0 16.35 3c-1.75 0-3.312.796-4.345 2.049A5.65 5.65 0 0 0 2 8.652c0 .61.1 1.194.28 1.74.968 4.36 9.724 9.854 9.724 9.854s8.744-5.493 9.715-9.854c.18-.546.281-1.13.281-1.74a5.655 5.655 0 0 0-2.922-4.95"/>
  <path class="fill" d="M19.078 3.703a5.623 5.623 0 0 0-2.729-.704c-1.75 0-3.312.796-4.345 2.049A5.65 5.65 0 0 0 2 8.652c0 .61.1 1.194.28 1.74.968 4.36 9.724 9.854 9.724 9.854s8.744-5.493 9.715-9.854c.18-.546.281-1.13.281-1.74a5.655 5.655 0 0 0-2.922-4.95"/>
</svg>
