<svg xmlns="http://www.w3.org/2000/svg" width="32" height="32" viewBox="0 0 32 32">
  <path fill="#00AEEF" d="M29 28H3c-.552 0-1-.449-1-1V15.078l3.06 2.675a1 1 0 0 0 .658.247H13v3a1 1 0 0 0 1 1h4a1 1 0 0 0 1-1v-3h7.282a1 1 0 0 0 .658-.247L30 15.078V27c0 .551-.448 1-1 1zm-14-8h2v-2h-2v2zM3 9h26c.552 0 1 .449 1 1v2.421L25.906 16H6.094L2 12.421V10c0-.551.448-1 1-1zm8-4c0-.551.448-1 1-1h8c.552 0 1 .449 1 1v2H11V5zm18 2h-6V5c0-1.654-1.346-3-3-3h-8c-1.654 0-3 1.346-3 3v2H3c-1.654 0-3 1.346-3 3v17c0 1.654 1.346 3 3 3h26c1.654 0 3-1.346 3-3V10c0-1.654-1.346-3-3-3z"/>
</svg>
