<svg xmlns="http://www.w3.org/2000/svg" width="32" height="32" viewBox="0 0 32 32">
  <g fill="none" fill-rule="evenodd">
    <path d="M0 0h32v32H0z"/>
    <path fill="currentColor" d="M10.965 5.202V26.78c-.84-.61-2.03-.998-3.362-.998-2.542 0-4.603 1.39-4.603 3.11C3 30.607 5.06 32 7.603 32c2.543 0 4.604-1.392 4.604-3.109V8.425l13.552-4.397v17.55c-.842-.61-2.03-.999-3.364-.999-2.54 0-4.602 1.391-4.602 3.11 0 1.717 2.061 3.109 4.602 3.109 2.544 0 4.605-1.392 4.605-3.109V0L10.965 5.202z"/>
  </g>
</svg>
