<svg xmlns="http://www.w3.org/2000/svg" xmlns:xlink="http://www.w3.org/1999/xlink" width="24" height="24" viewBox="0 0 24 24">
  <path fill="#00AEEF" fill-rule="nonzero" d="M16.97 19.364c.485 0 .812-.106.974-.268.084-.084.102-.1.323-.312.844-.801 1.113-1.18 1.095-1.615-.015-.367-.284-.787-.904-1.286-1.599-1.285-1.917-1.234-3.02-.116l-.175.178c-.418.417-.942.42-1.505.22a4.377 4.377 0 0 1-.904-.466c-.68-.442-1.5-1.147-2.453-2.1-2.514-2.514-3.2-4.006-2.341-4.864l.174-.172.225-.224c.848-.86.874-1.286-.34-2.796-.499-.621-.92-.89-1.28-.906-.44-.015-.821.254-1.62 1.094-.164.174-.226.238-.314.326-.388.388-.387 1.557.191 3.091.704 1.866 2.116 3.928 3.972 5.785 1.857 1.857 3.918 3.268 5.783 3.972.809.305 1.538.459 2.119.459zm2.513-4.756c.954.767 1.476 1.582 1.514 2.493.045 1.095-.411 1.738-1.602 2.869-.208.198-.225.215-.295.284-.506.507-1.246.746-2.13.746-.796 0-1.715-.194-2.696-.564-2.099-.792-4.35-2.334-6.362-4.346-2.012-2.012-3.555-4.265-4.347-6.364-.78-2.072-.783-3.861.184-4.826.073-.074.13-.133.284-.296 1.126-1.184 1.772-1.64 2.869-1.602.91.038 1.725.56 2.492 1.515 1.74 2.164 1.657 3.524.23 4.971a20.78 20.78 0 0 1-.234.232c.012.032.028.07.049.115.254.552.927 1.415 2.12 2.607.878.88 1.619 1.515 2.187 1.885.194.126.383.229.533.286 1.645-1.668 2.892-1.864 5.204-.005zM9.356 9.623V9.61l.002.01-.002.004z"/>
</svg>
