<svg xmlns="http://www.w3.org/2000/svg" width="64" height="64" viewBox="0 0 64 64">
  <path fill="#00AEEF" d="M57 43v12c0 .551-.448 1-1 1h-8c-.552 0-1-.449-1-1v-1h9v-2h-9V40a1 1 0 0 1 1-1h8a1 1 0 0 1 1 1v1h-8v2h8zm-20-3v1h-8v2h8v12c0 .551-.448 1-1 1h-8c-.552 0-1-.449-1-1v-1h9v-2h-9V40a1 1 0 0 1 1-1h8a1 1 0 0 1 1 1zm-20 0v1H9v2h8v12c0 .551-.448 1-1 1H8c-.552 0-1-.449-1-1v-1h9v-2H7V40a1 1 0 0 1 1-1h8a1 1 0 0 1 1 1zm10-16v-1h9v-2h-9V9a1 1 0 0 1 1-1h8a1 1 0 0 1 1 1v1h-8v2h8v12c0 .551-.448 1-1 1h-8c-.552 0-1-.449-1-1zm29 13h-3.799a.995.995 0 0 0 .706-.293l3.107-3.107-1.414-1.414-1.6 1.6V32.4A3.403 3.403 0 0 0 49.6 29H33v-2h3a3 3 0 0 0 3-3V9a3 3 0 0 0-3-3h-8a3 3 0 0 0-3 3v15a3 3 0 0 0 3 3h3v2H14.4a3.403 3.403 0 0 0-3.4 3.4v1.386l-1.6-1.6L7.986 33.6l3.107 3.107a.995.995 0 0 0 .706.293H8a3 3 0 0 0-3 3v15a3 3 0 0 0 3 3h8a3 3 0 0 0 3-3V40a3 3 0 0 0-3-3h-4.199a.999.999 0 0 0 .706-.293l3.107-3.107-1.414-1.414-1.2 1.2V32.4c0-.77.628-1.399 1.4-1.399H31v2.586l-1.4-1.4-1.414 1.414L31 36.414V37h-3a3 3 0 0 0-3 3v15a3 3 0 0 0 3 3h8a3 3 0 0 0 3-3V40a3 3 0 0 0-3-3h-3v-.586l2.814-2.814-1.414-1.414-1.4 1.4V31h16.6c.772 0 1.4.628 1.4 1.4v.986l-1.2-1.2-1.414 1.414 3.107 3.107a.999.999 0 0 0 .706.293H48a3 3 0 0 0-3 3v15a3 3 0 0 0 3 3h8a3 3 0 0 0 3-3V40a3 3 0 0 0-3-3z"/>
</svg>
