<svg xmlns="http://www.w3.org/2000/svg" width="32" height="32" viewBox="0 0 32 32">
  <path fill="#00AEEF" d="M19.8 16.372a1 1 0 1 1-1.6 1.2l-1.2-1.6v5.417a1 1 0 1 1-2 0v-5.417l-1.2 1.6a.997.997 0 0 1-1.4.2.998.998 0 0 1-.2-1.4l3-4c.377-.504 1.223-.504 1.6 0l3 4zm3.418 2.917a.997.997 0 0 0-.235.721l.555 7.638-7.164-2.889a.988.988 0 0 0-.748 0l-7.164 2.89.556-7.639a1.002 1.002 0 0 0-.236-.72L3.81 13.44l7.495-1.835a.994.994 0 0 0 .61-.44L16 4.651l4.084 6.515a.999.999 0 0 0 .61.44l7.496 1.835-4.972 5.848zm7.733-6.742a.998.998 0 0 0-.713-.663L21.564 9.76l-4.716-7.523c-.367-.583-1.328-.583-1.695 0L10.437 9.76l-8.674 2.124a.997.997 0 0 0-.525 1.618l5.755 6.771-.642 8.83a1 1 0 0 0 1.37 1L16 26.764l8.279 3.34a.996.996 0 0 0 .962-.12 1 1 0 0 0 .409-.88l-.643-8.83 5.755-6.772a.994.994 0 0 0 .189-.955z"/>
</svg>
