<svg xmlns="http://www.w3.org/2000/svg" width="16" height="16" viewBox="0 0 16 16">
  <path fill="#FFF" d="M14 2.5v1.581A13.59 13.59 0 0 0 12.33 2.5 6.93 6.93 0 0 0 8 1C4.656 1 1.855 3.359 1.166 6.5h2.089C3.896 4.479 5.77 3 8 3c1.134 0 2.203.37 3.092 1.071A12.04 12.04 0 0 1 12.585 5.5H11v2h5v-5h-2zm.834 7C14.145 12.641 11.344 15 8 15a6.93 6.93 0 0 1-4.33-1.5A13.59 13.59 0 0 1 2 11.919V13.5H0v-5h5v2H3.416c.438.49.935.99 1.492 1.429A4.946 4.946 0 0 0 8 13c2.23 0 4.104-1.479 4.745-3.5h2.089z"/>
</svg>
