<svg xmlns="http://www.w3.org/2000/svg" width="64" height="64" viewBox="0 0 64 64">
  <path fill="#00AEEF" d="M38 25h7v-2h-7v2zm-7-4h14v-2H31v2zM16.8 32c0-1.654 1.346-3 3-3s3 1.346 3 3-1.346 3-3 3-3-1.346-3-3zm8 0c0-2.757-2.243-5-5-5s-5 2.243-5 5 2.243 5 5 5 5-2.243 5-5zM30 53h8v-2h-8v2zm-9-38v-2.2c0-2.095 1.705-3.8 3.8-3.8h18.4c2.095 0 3.8 1.705 3.8 3.8V15H21zm26 32H21v-1.305a2.93 2.93 0 0 0 2.2-2.83v-.186c0-.38.25-.729.665-.899.391-.163.815-.092 1.079.172l.134.135a2.939 2.939 0 0 0 4.152 0l.657-.657a2.92 2.92 0 0 0 .859-2.076c0-.784-.305-1.521-.862-2.078l-.128-.127c-.269-.269-.337-.694-.164-1.111.16-.387.508-.638.887-.638h.186a2.939 2.939 0 0 0 2.935-2.935v-.93a2.938 2.938 0 0 0-2.935-2.935h-.186c-.379 0-.728-.25-.899-.665-.161-.39-.093-.815.172-1.079l.135-.134a2.94 2.94 0 0 0 0-4.152l-.658-.657a2.94 2.94 0 0 0-4.154.003l-.127.128c-.27.269-.694.336-1.11.164-.388-.159-.638-.507-.638-.887v-.186a2.932 2.932 0 0 0-2.2-2.83V17h26v30zm0 4.2c0 2.095-1.705 3.8-3.8 3.8H24.8a3.805 3.805 0 0 1-3.8-3.8V49h26v2.2zm-28.6-8.335v-.186c0-1.193-.736-2.267-1.899-2.746a3.117 3.117 0 0 0-1.192-.24c-.771 0-1.516.293-2.07.848l-.132.132a.958.958 0 0 1-1.322 0l-.658-.658a.937.937 0 0 1-.003-1.32l.135-.133c.843-.842 1.081-2.123.599-3.286-.47-1.14-1.545-1.876-2.737-1.876h-.986a.935.935 0 0 1-.935-.935v-.93c0-.515.419-.935.935-.935h.986c1.193 0 2.268-.737 2.746-1.9.473-1.138.235-2.42-.611-3.264l-.128-.128a.937.937 0 0 1-.001-1.323l.659-.658a.956.956 0 0 1 1.321 0l.132.132c.843.843 2.122 1.08 3.283.599 1.141-.469 1.878-1.543 1.878-2.737v-.186c0-.516.419-.935.935-.935h.93c.515 0 .935.419.935.935v.186c0 1.195.737 2.269 1.9 2.747 1.136.471 2.418.235 3.264-.612l.128-.129a.959.959 0 0 1 1.323 0l.658.657a.935.935 0 0 1 .003 1.321l-.136.135c-.841.842-1.08 2.123-.598 3.284.47 1.139 1.544 1.876 2.737 1.876h.186c.516 0 .935.42.935.935v.93a.935.935 0 0 1-.935.935h-.186c-1.193 0-2.266.736-2.747 1.9-.472 1.138-.233 2.418.612 3.265l.129.128a.93.93 0 0 1 .273.661c0 .25-.097.484-.274.661l-.657.658c-.354.353-.973.351-1.32.003l-.134-.135c-.842-.843-2.124-1.08-3.285-.599-1.139.469-1.876 1.543-1.876 2.737v.186c0 .516-.42.935-.935.935h-.93a.935.935 0 0 1-.935-.935zM43.2 7H24.8a5.807 5.807 0 0 0-5.8 5.8v5.434a2.928 2.928 0 0 0-2.6 2.901v.186c0 .379-.25.728-.665.899-.392.163-.814.093-1.082-.175l-.132-.132c-1.11-1.109-3.042-1.106-4.15-.001l-.659.658a2.942 2.942 0 0 0 .004 4.155l.129.128c.267.267.337.692.164 1.109-.159.388-.508.638-.888.638h-.986A2.938 2.938 0 0 0 5.2 31.535v.93A2.939 2.939 0 0 0 8.135 35.4h.986c.38 0 .728.251.899.666.162.389.092.814-.172 1.079l-.136.133a2.94 2.94 0 0 0 .001 4.151l.657.658c1.109 1.108 3.04 1.109 4.151 0l.133-.133c.268-.266.694-.333 1.108-.163.387.16.638.509.638.888v.186a2.928 2.928 0 0 0 2.6 2.901V51.2c0 3.199 2.602 5.8 5.8 5.8h18.4c3.198 0 5.8-2.601 5.8-5.8V12.8C49 9.602 46.398 7 43.2 7z"/>
</svg>
