<svg xmlns="http://www.w3.org/2000/svg" width="32" height="32" viewBox="0 0 32 32">
  <path fill="#00AEEF" d="M29.017 20.135c-1.105 2.19-3.503 2.461-3.6 2.471l-.883 1.215.645 2.874-5.86-4.114a20.534 20.534 0 0 0 1.438-1.48c1-1.114 1.658-1.8 2.52-1.844.477-.008 1.102.421 1.349.636l1.328-1.495c-.138-.124-1.411-1.216-2.78-1.138-1.734.088-2.838 1.317-3.905 2.505-1.23 1.369-2.5 2.785-4.925 2.909-2.125.102-3.214-1.072-3.54-2.212-.346-1.205.037-2.827 1.67-3.735l-.97-1.748a5.616 5.616 0 0 0-1.976 1.81c-.801-.828-1.976-1.406-3.445-1.617l-.285 1.979c.655.094 2.797.544 2.88 2.366.034.733-.242 1.675-1.75 1.996-1.74.373-3.815-.568-4.538-2.046-.696-1.424.226-2.623 1.122-3.377l-.196-1.659c-.074-.037-1.792-.921-1.172-2.661.476-1.332 2.495-1.49 2.51-1.491l.933-1.103c-.001-.017-.152-1.665.89-2.482 1.259-.988 2.573-.766 3.247-.545l1.173-.442c.009-.016.995-1.582 3.252-1.698 1.182-.057 2.112.172 3.009.77-.078.061-.148.126-.222.189-.485.389-.961.813-1.41 1.312-1.162 1.294-3.274.791-3.296.786l-.493 1.938c.077.02 1.177.287 2.473.08-.494 1.5-.51 2.691-.51 2.783l2 .005c0-.035.059-3.443 2.715-5.54 1.406-1.05 3.408-1.883 5.81-1.017 2.546.92 2.887 3.669 2.899 3.78l.593.812c.02.009 1.875.848 2.229 2.349.153.653-.011 1.381-.47 2.17a6.833 6.833 0 0 0-1.872-1.267c-.88-1.007-.977-2.621-.978-2.638l-1.998.088c.002.058.052.863.362 1.827-.87-.11-1.856-.132-2.987-.017l.202 1.99c3.007-.306 5.294.439 6.434 2.097.88 1.28.824 2.745.378 3.629m2.87-8.353c-.441-1.851-2.043-2.979-2.87-3.451-.261-1.168-1.166-3.833-4.111-4.897-1.977-.713-4.006-.604-5.9.245-1.467-1.243-3.01-1.767-4.96-1.667-2.313.118-3.724 1.298-4.397 2.053A5.383 5.383 0 0 0 5.243 5.12c-1.224.959-1.561 2.379-1.641 3.315C2.542 8.69.88 9.361.26 11.098c-.696 1.954.125 3.448 1.076 4.349C.084 16.953-.202 18.72.593 20.346c.96 1.964 3.24 3.25 5.53 3.25a5.9 5.9 0 0 0 1.22-.127c.95-.202 1.662-.592 2.18-1.081.947 1.435 2.598 2.292 4.567 2.292.117 0 .237-.003.356-.009 1.264-.065 2.289-.393 3.154-.854l8.547 6.001 1.55-1.037-.992-4.417c1.186-.354 3.037-1.227 4.097-3.328.743-1.471.697-3.308-.068-4.884 1.096-1.501 1.49-2.969 1.154-4.37"/>
</svg>
