<svg xmlns="http://www.w3.org/2000/svg" width="139" height="50" viewBox="0 0 139 50">
    <path d="M16.369 1c3.243 0 4.262 2.3 5.117 4.597l9.04 24.48c.068.192.022.505-.275.619-.299.112-4.678 1.795-4.92 1.886-.243.091-.514-.042-.602-.282-.09-.236-1.908-5.211-2.113-5.766H10.125c-.197.555-2.036 5.541-2.118 5.766-.084.23-.345.384-.604.282-.259-.101-4.654-1.785-4.916-1.886-.252-.097-.367-.38-.28-.618.31-.855 8.61-23.31 9.034-24.481C12.065 3.334 13.118 1 16.369 1M1.54 41.834c-.262 0-.472.217-.472.48v5.334c0 .263.21.476.472.476h29.645c.268 0 .477-.213.477-.476v-5.334c0-.263-.21-.48-.477-.48H1.54m14.8-33.382l-4.222 12.537h8.513L16.394 8.452h-.054zm63.356 20.557c-.622.207-1.032.258-1.52.258-1.01 0-1.57-.395-1.57-1.42 0-1.066.71-1.423 2.107-1.423.34 0 .676.049.833.103v.764c0 .824.046 1.364.15 1.718m3.59 1.222c-.746-1.12-.941-1.78-.941-3.19v-2.867c0-1.543-.183-2.1-.595-2.662-.574-.797-1.531-1.143-3.29-1.143-1.246 0-2.454.133-3.625.429l.423 2.037c.792-.11 1.621-.204 2.206-.204 1.869 0 2.082.267 2.082 1.653v.518c-.415-.11-.882-.19-1.424-.19-2.813 0-4.298 1.361-4.298 3.614 0 2.113 1.588 3.265 3.522 3.265.722 0 1.476-.132 2.074-.373.361-.155.518-.247.985-.546.28.403.844.816 1.074.894l1.806-1.235zm27.824-1.222c-.625.207-1.028.258-1.52.258-1.014 0-1.58-.395-1.58-1.42 0-1.066.72-1.423 2.12-1.423.34 0 .678.049.83.103v.764c0 .824.044 1.364.15 1.718m3.593 1.222c-.75-1.12-.942-1.78-.942-3.19v-2.867c0-1.543-.186-2.1-.602-2.662-.567-.797-1.526-1.143-3.29-1.143-1.244 0-2.46.133-3.63.429l.417 2.037c.794-.11 1.625-.204 2.226-.204 1.858 0 2.079.267 2.079 1.653v.518c-.416-.11-.879-.19-1.431-.19-2.817 0-4.308 1.361-4.308 3.614 0 2.113 1.591 3.265 3.535 3.265.73 0 1.478-.132 2.07-.373.367-.155.518-.247.985-.546.284.403.848.816 1.08.894l1.811-1.235zm21.902 1.02s-1.542-3.25-1.92-3.989c-.424-.833-.818-1.408-1.686-1.615V25.6c.582-.11 1.045-.458 1.552-1.521.48-1.037.621-1.26.904-1.507.277-.245.656-.157.656-.157l.142-1.916c-.402-.054-.85-.056-1.31-.03-.766.044-1.162.262-1.539.637-.295.287-.496.716-.744 1.208-.262.537-.47.97-.744 1.516-.271.56-.399.813-1.13.813h-.476v-8.489h-2.816v15.097h2.816v-4.34l.385-.008c.808 0 .95.2 1.376 1.042.5 1.004 1.457 3.306 1.457 3.306h3.077zm-79.345 0h3.25l-4.917-14.844c-.517-.171-1.157-.278-1.841-.278-.746 0-1.012.098-1.595.278L46.954 31.25h3.12s.42-1.301.916-2.915h5.389c.481 1.612.88 2.915.88 2.915m-5.478-5.404l1.041-3.443c.358-1.2.9-3.108.9-3.108h.09s.503 1.976.832 3.086c.123.442.984 3.465.984 3.465h-3.847zm36.302-1.698c-.993 0-1.8.802-1.8 1.785 0 .99.807 1.786 1.8 1.786.996 0 1.8-.797 1.8-1.786 0-.983-.804-1.785-1.8-1.785M64.37 16.154h-2.823V31.25h2.823V16.154zm56.104 6.614c1.56.033 1.754.352 1.754 1.646v6.837h2.798v-7.077c0-1.543-.182-2.1-.598-2.662-.574-.797-1.702-1.143-3.611-1.143-1.889 0-3.092.198-4.64.654v10.228h2.828v-8.353c.742-.106.873-.13 1.47-.13m-49.12-6.882c-1.765 0-2.726.346-3.291 1.14-.416.565-.6 1.135-.6 2.681v1.316h-1.402v2.257h1.402v7.971h2.8l-.007-7.97h2.791v-2.258h-2.791l.007-1.21c0-1.384.214-1.652 2.084-1.652.202 0 .43.01.673.029l.44-2.169c-.69-.09-1.397-.135-2.107-.135m22.468.14c.96-.055 3.108-.135 4.455-.135.246 0 .501.002.757.015 2.648 0 4.167 1.907 4.167 4.146 0 1.523-.705 2.534-2.359 3.136 1.945.426 2.964 1.927 2.964 3.764 0 1.348-.384 2.42-1.09 3.15-.915.89-2.3 1.389-4.145 1.389-1.641 0-3.701-.05-4.75-.112V16.026zm4.455 2.474c-.467 0-1.045.009-1.617.028v3.626h1.619c.642 0 1.157-.177 1.51-.518.335-.32.51-.775.51-1.314 0-1.159-.635-1.815-1.814-1.822h-.208zm.058 10.388h.122c1.472 0 2.372-.773 2.383-2.33-.014-.56-.231-1.075-.62-1.448-.424-.422-1.026-.642-1.732-.642H96.66v4.404c.516.01 1.085.012 1.675.016"/>
</svg>
