<svg xmlns="http://www.w3.org/2000/svg" width="142" height="40" viewBox="0 0 142 40">
    <g fill="none">
        <path fill="#CC2229" d="M32.3 9.554c.51-.187 1.16-.613 1.372-.78-.348-.175-.605-.36-.948-.698-.326-.322-1.072-1.797-3.965-1.797-3.118 0-4.437 2.154-4.437 3.86 0 .2-.01.46.038.708-4.032 1.907-7.657 4.069-11.68 8.982h10.273c-.586.228-1.486.582-2.187 1.182l.845 2.956c1.534-.083 2.992-.518 3.952-.952.889-.402 4.774-2.184 6.262-7.088.133-.496.746-3.047.821-3.428.077-.381.315-1.276 1.06-1.8-.202-.177-.779-.636-1.405-.918-.214-.08-.214-.148-.001-.227z"/>
        <path fill="#2F9C5C" d="M27.51 9.554c0-.864.7-1.564 1.564-1.564.864 0 1.564.7 1.564 1.564 0 .863-.7 1.563-1.564 1.563-.863 0-1.563-.7-1.563-1.563z"/>
        <path fill="#CC2229" d="M25.682.736H11.034l-4.832 14.12h7.601c.248-.195.602-.486 1.06-.787l3.339-10.783 2.281 7.449c.293-.157 1.052-.548 1.402-.713.188-2.946 2.384-4.597 5.278-4.933L25.682.736zM4.293 20.47L.625 31.142h8.88l2.631-8.402H6.151c.213-.71.663-1.691 1.11-2.267l-2.968-.003z"/>
        <path fill="#33A457" d="M23.223 23.755l2.238 7.387h2.307l-2.446-8.03c-.54.236-1.348.49-2.1.643z"/>
        <path fill="#CC2229" d="M31.677 18.057c-.812 1.57-2.342 3.844-5.553 5.425l2.275 7.66h7.747s-4.466-13.088-4.469-13.085z"/>
        <path fill="#33A457" d="M37.36 9.475c-.548-.22-1.55-.57-2.782-.57-.36 0-.706-.035-.906-.131-.212.167-.862.592-1.372.779-.213.08-.214.147 0 .225.627.283 1.204.743 1.405.919.91-.666 1.676-.088 3.656-.996.214-.077.213-.147 0-.226zM3.449 17.54c.043 0 .078.036.078.08 0 .021-.009.041-.023.056-.015.015-.035.023-.056.023-1.378 0-2.293.967-2.417 2.091h7.625c-.553.524-1.2 1.402-1.58 2.302H18.75l2.681 9.051h2.34l-2.162-7.176-.845-2.956c.7-.6 1.602-.954 2.188-1.182H12.68c4.022-4.913 7.648-7.075 11.68-8.982-.048-.248-.038-.507-.038-.708 0-1.706 1.32-3.86 4.437-3.86 1.03 0 2.178.205 3.022.827-.494-.472-2.117-1.409-3.865-1.397-3.47.022-5.568 2.255-5.386 4.743-2.214 1.003-6.06 3.06-8.494 5.051H1.039c.172 1.187 1.078 2.037 2.409 2.037z"/>
        <path fill="#FFF" d="M29.008 9.735l1.521-.753c-.172-.437-.53-.774-.978-.917l-.705 1.513c-.072.163 0 .234.162.157z"/>
        <path fill="#CC2229" d="M140.552 24.888c0 3.424.167 6.256.167 6.256h-7.378l-.023-9.472c0-3.22-.966-4.375-2.731-4.375-2.31 0-3.497 1.746-3.497 5.428l-.015 8.419h-7.244c.226-5.636.006-14.098-.173-19.315h6.545s.147.78.147 2.039l-.006.733c.896-1.238 3.583-3.349 6.82-3.187 3.238.162 5.577 1.719 6.602 3.85.58 1.207.753 3.037.794 4.395l-.008 5.229zm-91.08 3.81c-1.123 1.243-3.66 3.008-6.562 2.794-4.088-.3-7.308-2.131-7.308-8.174l.016-11.485h7.292l.004 9.471c0 3.22.878 4.376 2.644 4.376 2.31 0 3.426-2.111 3.426-5.428l.007-8.42h7.182c-.226 5.637-.006 14.098.172 19.315H49.8c-.364-.597-.328-2.449-.328-2.449zm39.882-7.013c0-3.224-1.132-4.345-2.664-4.345-2.312 0-3.5 1.713-3.5 5.397l.012 8.406h-7.176L76.012 6.19h7.225l.023 7.597c1.207-1.07 3.382-2.485 6.024-2.353 3.234.162 7.37 1.656 7.37 8.625v11.085h-7.3v-9.458zm-15.497-3.58c-2.607-2.097-8.919-1.881-8.919 3.14 0 5.592 6.839 5.437 9.425 3.531l.188 5.48c-3.672 1.904-16.934 2.553-16.934-8.908 0-11.468 13.077-10.88 16.728-8.69l-.488 5.446zm12.49 19.364h-.012c-.262.362-.685.573-1.132.564-1.258 0-1.996-.72-1.996-1.985 0-1.455.939-2.718 2.455-2.718 1.05 0 1.908.49 1.908 1.59h-.989c-.025-.541-.366-.761-.913-.761-1.013 0-1.471 1.026-1.471 1.889 0 .616.3 1.158 1.018 1.158.748 0 1.076-.397 1.244-.975h-1.037l.157-.735h1.906l-.516 2.43h-.621v-.457zm2.005-2.792h.848l-.133.585.013.013c.201-.446.642-.684 1.12-.684.094 0 .182.007.277.02l-.183.864c-.126-.024-.252-.056-.378-.056-.685 0-.93.516-1.05 1.068l-.302 1.439h-.893l.68-3.25zm4.85 3.247h-.855l.101-.454h-.013c-.272.35-.695.55-1.138.54-.616 0-.95-.307-.95-.872 0-.133.07-.447.095-.56l.402-1.902h.892l-.395 1.903c-.025.094-.056.307-.056.395 0 .195.22.332.426.332.542 0 .817-.451.913-.903l.364-1.727h.894l-.68 3.248zm19.147-3.248h.899l-.692 3.25h-.9l.693-3.25zm1.001-.503h-.896l.163-.735h.895l-.162.735zm.617.504h.854l-.101.454h.013c.272-.35.694-.55 1.138-.54.616 0 .95.308.95.873 0 .132-.07.447-.096.56l-.401 1.901h-.892l.395-1.902c.025-.094.056-.308.056-.395 0-.195-.22-.333-.427-.333-.542 0-.817.452-.912.903l-.365 1.727h-.893l.68-3.248zm9.058.95c-.006-.277-.163-.44-.503-.44-.316 0-.55.088-.55.32 0 .145.109.232.41.326l.449.14c.476.158.853.384.853.932 0 .804-.796 1.105-1.545 1.105-.634 0-1.38-.25-1.38-1.011v-.132h.827v.107c0 .295.333.44.642.44.27 0 .565-.094.565-.389 0-.226-.126-.296-.32-.359l-.687-.216c-.445-.145-.702-.32-.702-.83 0-.765.808-1.03 1.439-1.03.71 0 1.344.202 1.331 1.037h-.829zm3.519.176c0-.382-.21-.539-.6-.539-.683 0-.916.814-.916 1.372 0 .388.165.702.619.702.398 0 .626-.283.727-.601h.89c-.27.809-.834 1.273-1.68 1.273-.907 0-1.445-.446-1.445-1.392 0-1.103.663-2.027 1.837-2.027.794 0 1.439.353 1.459 1.213h-.891zm5.242-1.126h.854l-.101.454h.013c.272-.35.694-.55 1.138-.54.616 0 .95.308.95.873 0 .132-.07.447-.096.56l-.401 1.901h-.892l.395-1.902c.025-.094.056-.308.056-.395 0-.195-.22-.333-.427-.333-.542 0-.817.452-.912.903l-.365 1.727h-.893l.68-3.248zm4.988-.001h.642l-.139.596h-.635l-.334 1.614c-.012.069-.024.125-.024.15 0 .232.17.24.302.24.106 0 .214-.008.32-.02l-.15.691c-.183.019-.371.032-.56.032-.414 0-.86-.132-.847-.66 0-.082.018-.194.044-.308l.364-1.74h-.584l.14-.596h.57l.201-.987h.892l-.202.988zm-43.107 4.395h.893l.34-1.582c.157.358.552.521.93.521 1.2 0 1.763-1.073 1.763-2.138 0-.778-.45-1.28-1.228-1.28-.397 0-.774.15-.975.503l.075-.417h-.86l-.938 4.393zm2.402-3.807c.42 0 .635.332.635.72 0 .57-.302 1.353-.975 1.353-.434 0-.642-.288-.642-.702.001-.556.315-1.37.982-1.37zm1.44 3.807h.892l.34-1.582c.157.358.554.521.93.521 1.2 0 1.763-1.073 1.763-2.138 0-.778-.45-1.28-1.228-1.28-.396 0-.774.15-.975.503l.075-.417h-.861l-.936 4.393zm2.4-3.807c.423 0 .636.332.636.72 0 .57-.302 1.353-.975 1.353-.434 0-.641-.288-.641-.702 0-.556.315-1.37.98-1.37zm1.87 1.347c0 .928.582 1.4 1.488 1.4 1.185 0 1.892-.905 1.892-2.044 0-.936-.62-1.376-1.513-1.376-1.158 0-1.867.924-1.867 2.02zm.891 0c0-.545.29-1.346.946-1.346.467 0 .655.282.655.714 0 .546-.29 1.36-.957 1.36-.424-.001-.644-.347-.644-.728zm4.504 1.314h.987l.37-1.756h.932c.39 0 .647.108.647.542 0 .302-.05.61-.05.913 0 .1.019.195.044.302h.96c-.05-.132-.064-.32-.064-.522 0-.278.032-.58.032-.78 0-.352-.095-.68-.464-.793.596-.097 1.033-.614 1.028-1.217 0-.866-.53-1.186-1.343-1.174h-2.143l-.936 4.485zm1.766-3.72h.937c.39 0 .73.068.73.55 0 .503-.498.704-1.02.71h-.91l.263-1.26zm9.48 1.459c.057-.326.34-.478.66-.478.228 0 .568.076.568.396 0 .415-.397.37-1.241.47-.773.095-1.243.485-1.243 1.105 0 .452.346.853 1.054.853.36 0 .744-.132.988-.408v.321h.89c-.019-.06-.03-.124-.03-.188 0-.126.012-.326.043-.44l.298-1.305c.037-.2.068-.408.068-.547.013-.728-.772-.853-1.35-.853-.736 0-1.427.257-1.54 1.074h.834zm.963 1.018c-.1.35-.283.733-.838.733-.258 0-.49-.119-.49-.364 0-.407.32-.487.66-.526.258-.018.53-.024.757-.157l-.089.314zm11.504-.164c.031-.157.05-.333.05-.51 0-.939-.61-1.417-1.512-1.417-1.104 0-1.79.967-1.79 2.002 0 .92.58 1.417 1.446 1.417.934 0 1.398-.39 1.68-1.116h-.89c-.132.206-.308.444-.664.444-.484 0-.716-.256-.716-.632 0-.05 0-.107.006-.187h2.39zm-2.295-.565c.131-.363.383-.688.884-.688.52 0 .601.356.601.688h-1.485zm12.071.565c.034-.168.051-.338.051-.51 0-.939-.609-1.417-1.511-1.417-1.104 0-1.79.967-1.79 2.002 0 .92.579 1.417 1.446 1.417.934 0 1.398-.39 1.68-1.116h-.891c-.131.206-.307.444-.665.444-.482 0-.714-.256-.714-.632 0-.05 0-.107.006-.187h2.388zm-2.293-.565c.13-.363.382-.688.884-.688.52 0 .6.356.6.688h-1.484zM104.91 24.95c-.15-2.707 5.096-2.351 5.761-2.11.031 4.585-5.596 5.114-5.76 2.11zm6.173 3.765c0 1.723.142 2.438.142 2.438h6.262s-.175-3.308-.178-9.736c0-.089.033-4.044-.484-5.17-.517-1.123-1.593-3.763-6.206-4.68-4.611-.917-9.506.836-10.232 1.377V17.7s3.172-1.723 5.626-1.723c1.857 0 4.472.123 4.611 2.843 0 0-.967-.033-2.367-.033-4.502 0-10.149.861-10.25 6.346-.078 4.292 3.701 6.289 7.019 6.194 0 0 3.81.202 6.057-2.613zM29.435 7.601l-.172 1.639 1.522-.23-1.35-1.409z"/>
    </g>
</svg>
