<svg xmlns="http://www.w3.org/2000/svg" width="60" height="60" viewBox="0 0 60 60">
    <g fill="none">
        <path fill="#6F6F6F" d="M30 0C13.432 0 0 13.432 0 30c0 16.568 13.432 30 30 30 16.568 0 30-13.432 30-30C60 13.432 46.568 0 30 0zm28.05 30c0 15.49-12.558 28.05-28.05 28.05S1.95 45.49 1.95 30 14.51 1.95 30 1.95 58.05 14.51 58.05 30z"/>
        <path fill="#6F6F6F" d="M30 12.222v.975c9.264 0 16.803 7.537 16.803 16.803h.975c0-9.818-7.96-17.778-17.778-17.778m0 34.581c-9.264 0-16.803-7.537-16.803-16.803h-.975c0 9.818 7.96 17.778 17.778 17.778"/>
        <g fill="#6F6F6F">
            <path d="M36.216 13.637c.407.434.994 1.134 1.323 1.56l6.07-3.827c-.304-.393-.786-.992-1.148-1.414l-3.843 2.524-.263.224.196-.284 1.697-3.363-1.2-1.192-3.389 1.685-.285.195.227-.261 2.543-3.815c-.448-.378-.878-.725-1.426-1.145l-3.852 6.022c.488.373 1.131.92 1.542 1.293l3.627-1.869.232-.17-.17.232-1.881 3.605zM22.444 6.005l1.658-3.69.106-.327-.03.341.174 4.93c.582.055 1.183.135 1.775.233l-.27-7.301C25.03.1 24.204.035 23.38 0l-1.634 4.027-.058.3-.058-.3L19.998 0c-.825.035-1.65.1-2.478.19l-.27 7.302c.593-.098 1.194-.177 1.775-.233l.175-4.93-.03-.34.105.326 1.659 3.69h1.51zM9.032 11.824c.958-1.003 1.5-2.162.542-3.268-.521-.6-1.397-.731-2.123-.436l-.072.028.022-.063c.108-.285.177-1.195-.604-1.823-.38-.306-.858-.42-1.341-.371-.9.09-1.593.702-3.479 2.79-.569.63-1.397 1.624-1.894 2.268l5.18 4.879c1.715-1.887 2.415-2.588 3.769-4.004zM2.273 10.63c1.044-1.267 2.152-2.417 2.654-2.872.159-.143.332-.287.541-.343.34-.093.691.147.77.494.08.348-.14.679-.386.952-.551.618-2.574 2.72-2.574 2.72l-1.005-.95zm2.029 1.911s1.97-2.068 2.613-2.73c.256-.262.42-.422.596-.507.227-.11.475-.133.698.014.218.145.319.395.264.644-.065.295-.309.577-.51.792-.27.29-2.608 2.773-2.611 2.776l-1.05-.989z" transform="translate(8.148 3.704)"/>
        </g>
        <path fill="#0066B1" d="M30 12.222V30H12.222c0-9.825 7.953-17.778 17.778-17.778zM47.778 30c0 9.825-7.953 17.778-17.778 17.778V30h17.778z"/>
    </g>
</svg>
