<svg xmlns="http://www.w3.org/2000/svg" width="60" height="60" viewBox="0 0 60 60">
    <g fill="none" fill-rule="evenodd">
        <path d="M0 0L58.144 0 58.144 59.766 0 59.766z"/>
        <path fill="#000" d="M42.886 10.439c.292-.037.462-.159.535-.329.085-.207.037-.414-.134-.62-1.362-2.312-4.44-3.735-9.259-4.247-2.008-.219-4.161-.121-6.473.292-2.445.426-4.562 1.107-6.351 2.069-4.453 2.397-7.008 5.572-7.678 9.539-.097.364-.073.62.049.778.134.158.353.183.657.085 5.95-1.995 10.561-3.43 13.822-4.307 5.147-1.35 10.087-2.445 14.832-3.26z"/>
        <path fill="#000" d="M38.372 3.674c-2.701-.876-5.439-1.302-8.189-1.302-4.003 0-7.775.767-11.29 2.311-3.322 1.448-6.23 3.492-8.749 6.12-2.421 2.544-4.307 5.452-5.633 8.725-1.339 3.272-1.996 6.63-1.996 10.086 0 3.724.693 7.277 2.093 10.683 1.362 3.321 3.273 6.254 5.767 8.81 2.495 2.578 5.39 4.574 8.663 5.986 3.419 1.484 7.02 2.214 10.817 2.214 6.607 0 12.374-1.996 17.302-6.011 1.934-1.57 3.638-3.395 5.122-5.45 1.254-1.74 2.24-3.505 2.957-5.269l-4.611-2.507c-1.947 4.38-4.648 7.848-8.103 10.391-3.663 2.69-7.812 4.065-12.423 4.138-3.42.048-6.644-.487-9.661-1.619-2.945-1.095-5.536-2.689-7.775-4.793L9.998 47.33v-4.125c-1.484-1.995-2.603-4.185-3.383-6.607-.803-2.494-1.204-5.134-1.204-7.908 0-3.565.657-6.936 1.971-10.123 1.278-3.103 3.103-5.828 5.475-8.176 2.397-2.385 5.184-4.21 8.371-5.5 3.31-1.326 6.863-1.996 10.647-1.996 2.032 0 4.21.268 6.497.779z"/>
        <path fill="#000" d="M52.097 22.533c-.182-.39-.475-.657-.888-.828-.645-.243-1.351-.401-2.154-.45-.791-.049-1.582 0-2.385.17-1.533.304-2.847.961-3.93 1.971-1.57 1.46-2.36 3.444-2.36 5.974 0 2.118.693 3.687 2.08 4.71 1.18.863 2.628 1.204 4.332 1.009 1.922-.219 3.42-.864 4.502-1.935.62-.608.925-1.447.937-2.518.025-.73.025-2.275 0-4.611l-5.755 1.253v1.338c.012.974.462 1.375 1.375 1.193l.73-.183.013 1.096c.011.097-.026.206-.135.328-.207.268-.621.45-1.23.572-.924.133-1.618-.049-2.092-.584-.45-.5-.681-1.29-.694-2.348.025-1.059.305-1.935.852-2.616.5-.621 1.144-1.035 1.96-1.217.717-.17 1.399-.219 2.044-.134l1.192.231c.462.074.839-.036 1.168-.292.28-.243.474-.572.56-.973.085-.414.036-.791-.122-1.156zM36.534 24.638c-.34.45-.51 1.058-.51 1.861l-.013 4.064c-1.532-1.922-2.81-3.395-3.808-4.405-.548-.535-1.254-.644-2.141-.328l-1.971.596v13.566l1.91-.657c.705-.243 1.204-.596 1.508-1.034.292-.438.426-1.022.426-1.764l-.024-4.685 4.1 4.733c.609.62 1.363.804 2.275.536.414-.122.754-.353 1.022-.705.292-.366.438-.791.45-1.278V23.385c-.706.145-1.35.304-1.947.474-.558.158-.984.414-1.277.779zM24.599 27.46c-.694.256-1.205.609-1.52 1.034-.366.512-.536 1.23-.536 2.179L22.53 41.94l2.214-.791c.767-.293 1.302-.645 1.618-1.095.316-.438.475-1.059.475-1.85l.012-11.474c-.84.244-1.582.487-2.251.73zM14.683 31.269l-4.1 1.703-.025 13.519 2.896-1.217c.389-.098.693-.34.912-.694.22-.34.317-.778.304-1.326V38.96l3.237 3.443c.402.402.876.645 1.423.706.633.085 1.217-.098 1.752-.524.487-.401.742-.912.767-1.533.012-.571-.134-1.034-.463-1.399l-2.956-2.956 3.03-4.782c.28-.462.352-.937.218-1.411-.146-.5-.474-.864-.973-1.083-.524-.243-1.046-.268-1.533-.085-.426.158-.754.413-.986.778l-3.492 5.938-.011-4.782zM48.142 36.172c-.146-.158-.401-.194-.754-.097-4.064.95-8.724 2.251-13.992 3.905-5.658 1.777-10.245 3.42-13.75 4.928l-.352.17c-.085.061-.158.134-.195.244-.11.231-.049.463.183.706.401.486 1.07.961 2.02 1.423 1.022.487 2.19.89 3.528 1.193 3.26.718 6.533.681 9.819-.11 4.66-1.119 8.273-3.236 10.841-6.35.852-1.048 1.546-2.155 2.08-3.31.33-.706.56-1.339.694-1.899.073-.377.037-.644-.122-.803zM13.965 21.328c-.645-.34-1.473-.34-2.483.037-.51.182-1.52.584-3.041 1.204l.012 9.856 3.626-1.546c.997-.414 1.74-.876 2.226-1.375.609-.633.9-1.375.888-2.25-.012-.488-.17-.901-.499-1.242-.304-.328-.681-.535-1.132-.608.864-.693 1.29-1.509 1.29-2.458 0-.754-.304-1.29-.887-1.618zm-2.556 3.894l-.462.194v-2.08c.402-.219.742-.268 1.01-.182.255.097.39.316.377.681 0 .62-.316 1.083-.925 1.387zm.719 1.57c.28.145.425.4.425.79.025.682-.328 1.18-1.022 1.497l-.56.255v-2.397c.475-.243.864-.292 1.157-.146zM22.092 18.931c0-.4-.121-.669-.377-.815-.219-.133-.523-.146-.876-.036-.377.11-.779.243-1.217.414v6.12c-.024.912-.304 1.424-.863 1.57-.28.06-.499.012-.645-.146-.134-.147-.206-.39-.206-.706l-.013-5.013c0-.402-.122-.682-.366-.828-.23-.145-.523-.145-.888-.036l-1.24.45v6.071c-.013 1.022.303 1.764.948 2.203.658.462 1.52.535 2.58.219 1.034-.305 1.788-.767 2.275-1.351.584-.706.876-1.691.888-2.97v-5.146zM40.234 16.34v-1.375l2.104-.438c.5-.097.755-.45.755-1.034v-1.047c-1.74.292-3.517.657-5.317 1.07l-.037 8.993c1.97-.474 3.48-.815 4.563-1.047.584-.134.888-.523.888-1.168v-1.047l-2.957.645.012-1.74 1.85-.388c.51-.122.766-.439.766-.974l-.011-.998-2.616.548zM22.774 26.73l1.472-.498c.67-.268.998-.706 1.01-1.338l.012-2.41 2.117 2.203c.317.304.67.438 1.083.414.329-.037.596-.147.815-.354.268-.243.402-.56.402-.937-.012-.365-.134-.669-.377-.912l-1.606-1.534c1.034-.85 1.545-1.837 1.557-2.932 0-.766-.292-1.338-.888-1.703-.608-.377-1.387-.463-2.324-.244-.803.183-1.898.524-3.273.998v9.248zm2.482-5.633V18.53c.949-.353 1.435-.146 1.448.62.012.803-.475 1.448-1.448 1.947zM49.237 12.276c-.583-.45-1.338-.62-2.238-.499l-3.261.548v8.858l1.35-.256c.694-.158 1.047-.572 1.059-1.265v-2.166l2.08 2.445c.208.232.463.365.743.414.329.06.645 0 .948-.194.33-.207.512-.499.548-.864.037-.365-.06-.682-.304-.937l-1.606-1.8c.998-.67 1.51-1.51 1.51-2.52.01-.754-.269-1.326-.829-1.764zm-3.09 3.845l-.012-2.397c.937-.194 1.424.037 1.435.706 0 .766-.474 1.326-1.423 1.69zM37.119 15.44c.012-.427-.17-.755-.548-.986-.414-.232-.997-.329-1.776-.316-1.655.06-2.957.632-3.906 1.727-.876 1.01-1.314 2.288-1.314 3.845 0 1.472.438 2.567 1.301 3.285.804.67 1.85.889 3.103.657 1.07-.207 1.91-.584 2.519-1.131.45-.39.67-.913.67-1.558v-3.492l-3.688.827v1.022c0 .244.085.426.243.56.159.134.353.183.584.134l.536-.122.012 1.01c0 .207-.122.366-.378.487-.243.122-.535.183-.852.17-.912-.012-1.362-.681-1.387-2.007.012-.827.207-1.497.56-2.032.353-.499.803-.815 1.375-.973.365-.086.84-.097 1.436-.025.463.085.828.012 1.095-.182.269-.195.402-.5.415-.9zM16.532 15.853c.121-.086.182-.231.206-.414.414-1.57 1.205-3.115 2.373-4.611 1.095-1.4 2.288-2.495 3.59-3.286-1.862.815-3.505 2.118-4.94 3.906-.584.743-1.059 1.472-1.424 2.202-.34.694-.536 1.266-.584 1.74 0 .17.036.304.121.414.085.098.195.146.329.158.122.013.231-.024.329-.109zM39.528 9.003c.012-.402-.256-.815-.779-1.241-.499-.401-1.192-.767-2.056-1.107-.9-.329-1.85-.56-2.871-.718-1.095-.158-2.166-.207-3.2-.121 2.044.145 3.747.547 5.11 1.24.596.292 1.058.609 1.387.95.316.328.487.644.487.936.012.365-.134.706-.426.998-.268.304-.633.523-1.059.657l1.436-.341c.487-.11.84-.207 1.07-.304.597-.207.89-.523.901-.95z"/>
        <path fill="#000" d="M45.648 39.274c.122-.255.134-.486.05-.68-.062-.183-.195-.305-.39-.365-.195-.061-.378-.037-.56.06-.22.122-.365.328-.463.62-.572 1.485-1.375 2.847-2.409 4.1-1.217 1.497-2.69 2.726-4.404 3.7 1.74-.682 3.297-1.618 4.66-2.81 1.52-1.327 2.689-2.86 3.516-4.625zM54.554 38.168L53.642 38.168 53.642 38.314 53.995 38.314 53.995 39.02 54.226 39.02 54.226 38.314 54.554 38.314zM54.907 38.326L55.114 39.02 55.346 39.02 55.552 38.326 55.552 39.02 55.784 39.02 55.784 38.168 55.443 38.168 55.236 38.825 55.017 38.168 54.676 38.168 54.676 39.02 54.907 39.02z"/>
    </g>
</svg>
