<svg xmlns="http://www.w3.org/2000/svg" xmlns:xlink="http://www.w3.org/1999/xlink" width="117" height="50" viewBox="0 0 117 50">
    <defs>
        <path id="prefix__a" d="M0.8 0.05L58.349 0.05 58.349 32.95 0.8 32.95z"/>
        <path id="prefix__c" d="M0 0.367L42.7 0.367 42.7 49.167 0 49.167z"/>
    </defs>
    <g fill="none" fill-rule="evenodd">
        <g transform="translate(57.5 14.633)">
            <mask id="prefix__b" fill="#fff">
                <use xlink:href="#prefix__a"/>
            </mask>
            <path fill="#000" d="M26.15 12.45c.8-.35 1.95-.45 2.9-.45 3 0 5.05 1.7 5.05 4.75 0 3.6-2.3 5.25-5.35 5.3v4.15H29c6.3 0 10.05-3.45 10.05-9.6 0-5.6-4-8.9-9.9-8.9-3 0-5.95.7-7.9 1.5v23.75h4.9v-20.5zm27.3 0c-.75-.35-1.75-.55-2.95-.55-3 0-4.95 1.8-4.95 4.95 0 3.35 2.15 5.25 5.6 5.25.6 0 1.5 0 2.3-.2v-9.45zm4.9 12.9c-2.15.6-4.95.85-7.4.85-6.2 0-10.35-3.25-10.35-9.2 0-5.65 3.85-9.3 9.45-9.3 1.3 0 2.6.15 3.4.55V.05h4.9v25.3zm-44.7-12.9c-.75-.35-1.8-.55-3-.55-2.95 0-4.9 1.8-4.9 4.95 0 3.35 2.1 5.25 5.55 5.25.6 0 1.55 0 2.35-.2v-9.45zm4.85 12.9c-2.15.6-4.95.85-7.35.85C4.9 26.2.8 22.95.8 17c0-5.65 3.85-9.3 9.45-9.3 1.25 0 2.6.15 3.4.55V.05h4.85v25.3z" mask="url(#prefix__b)"/>
        </g>
        <g transform="translate(0 .466)">
            <mask id="prefix__d" fill="#fff">
                <use xlink:href="#prefix__c"/>
            </mask>
            <path fill="#000" d="M42.507 14.827l-.007-.01-.431.273-.02-.023-.55.35.003.002-.452.248.002.003-.452.247.002.003-.452.247.002.002-.452.248.015.017-.465.233.018.022-.418.228.002.003-.452.247.002.003-.452.247.002.002-.452.248.002.003-.452.247.002.002-.452.248.018.022-.418.228.007.008-.337.215-.02-.023-.43.273-.02-.023-.43.273-.02-.023-.43.273-.02-.023-.398.252-.002-.002-.55.35.002.003-.452.247.002.003-.452.247.002.003-.452.247.002.003-.452.247.002.003-.452.247.018.022-.418.228.002.003-.452.247.002.003-.452.247.006.008-.306.192c-.014 0-.026.007-.04.012l-.01-.012c-.183.09-.442.088-.638.013L29 22.167h-.05l-.25-.2.085.1-.985-.6c-.1-.05-.15-.15-.25-.25-.1-.15-.1-.25-.15-.35V19.517c0-.122.069-.27.147-.403l.003.003c.05-.1.1-.15.2-.2l.181-.122.019.022.397-.253.003.003.43-.273.02.023.43-.274.02.024.43-.273.02.023.55-.35-.003-.003.453-.247-.003-.003.453-.247-.018-.022.418-.228-.003-.003.453-.247-.003-.003.453-.247-.003-.003.453-.247-.003-.003.453-.247-.003-.003.453-.247-.015-.018.465-.232-.02-.022.42-.228-.003-.003.453-.247-.003-.003.453-.247-.008-.01.338-.213.02.023.397-.253.003.003.442-.258.008.008.43-.274.02.024.55-.35-.003-.003.453-.247-.003-.003.453-.247-.003-.003.453-.247-.015-.018.465-.232-.018-.022.418-.228-.003-.003.453-.247-.003-.003.453-.247-.003-.003.453-.247-.003-.003.353-.197-.941-.49-.01-.01-1.184-.632-.015-.018-1.243-.642-.007-.008-1.184-.632-.016-.018-1.184-.632-.016-.018-1.243-.642-.007-.008-1.184-.632-.016-.018-1.184-.632-.016-.018-1.243-.64-.007-.01-1.184-.632-.016-.018-1.153-.595-.047-.055-1.243-.642-.007-.008-1.184-.632-.016-.018-1.55-.85.013.015-1.213-.665.063.073-.947-.505-.016-.018-.3-.15c-.201-.12-.409-.166-.635-.183L21.5.367h-.15c-.146 0-.293.03-.44.063L20.9.417l-.073.033c-.026.005-.051.01-.077.017l.01.012c-.068.029-.131.059-.16.088l-.17.085-.03-.035-.55.3.002.003-.452.247.002.003-.452.247.002.003-.452.247.002.002-.325.179-.027-.031-.43.273-.02-.023-.55.3.002.003-.452.247.002.003-.452.247.002.003-.452.247.002.003-.325.178-.027-.031-.6.3.015.017-.465.233.015.017-.465.233.015.018-.465.232.015.018-.465.232.015.018-.3.15-.015-.018-.6.3.015.018-.465.232.015.018-.465.232.002.003-.452.247.002.003-.452.247.002.003-.325.178L10 6.167l-.55.3.002.003L9 6.717l.002.003-.452.247.002.003-.452.247.002.003-.452.247.002.003-.325.178-.027-.031-.55.3.002.003-.452.247.002.003-.452.247.002.003-.452.247.003.003-.453.247.003.003-.327.178-.026-.031-.55.3.002.003-.452.247.002.002-.452.248.002.003-.452.247.002.003-.452.247.002.002-.325.179-.027-.031-.6.3.02.024-.22.126.587.322.063.078 1.6.872.997.575.003.003 1.6.95-.051-.06 1.02.573.03.037 1.27.714.03.036 1.485.835 1.063.612.003.003 1.297.747.003.003.049.027.3.173-.013-.017.898.49.066.077 1.269.714.03.036 1.6.9-.037-.045 1.338.795-.039-.045 1.339.795-.052-.06.924.52.078.09 1.234.673.066.077 1.375.75.375.25c.168.084.329.275.378.483l-.028-.033c0 .05.05.1.05.15V42.217c0 .058-.018.11-.042.16l-.008-.01c-.004.018-.014.035-.02.053-.01.014-.02.036-.03.046l.009.011c-.057.13-.148.244-.247.303l-.012-.013c0 .012-.003.016-.003.022-.016.01-.031.023-.047.027l-.344.207-.006-.006-.443.258-.007-.009-.35.201c-.1.05-.2.05-.3.05l.027.03c-.029.01-.058.02-.077.02h-.05c-.15 0-.25-.05-.35-.1l-.093-.04-.007-.01-1.1-.6c-.2-.1-.35-.35-.35-.6V26.017c0-.1-.1-.25-.2-.3l-.738-.437-.012-.013-1.298-.747-.002-.003-.05-.027-.3-.173.015.017-.9-.49-.065-.077-1.6-.9.038.044L13 22.117l.038.044-1.338-.794.052.06-.925-.52-.077-.09-1.601-.873-.997-.575-.002-.002-1.6-.95.051.06-1.02-.574-.031-.036-1.6-.9.038.045-1.338-.795.038.044-.975-.578-.013-.016-.162-.088-.188-.112.015.017-.9-.49-.065-.077-.4-.2v21.5c0 .322.153.68.365.965L.3 37.117c.042.04.072.08.104.118.106.134.22.254.346.332l1.157.627.99.57.003.003 1.215.7.085.1 1.235.673.065.076 1.65.951-.038-.045 1.338.794-.046-.053 1.043.6.003.004 1.297.747.003.003 1.297.746.003.003 1.297.748.003.003 1.312.755.038.045 1.6.95-.038-.044 1.338.794-.046-.054 1.043.6.003.004 1.297.747.003.002.347.2.003.001.35.2c.11.073.274.11.433.13l.017.02h.3c.109 0 .218-.007.327-.027l.023.027.45-.15.15-.1-.003-.003.453-.247-.003-.003.453-.248-.018-.02.418-.23-.003-.003.453-.246-.008-.01.338-.214.02.023.43-.273.02.023.43-.273.02.024.55-.35-.019-.023.419-.227-.003-.003.453-.248-.003-.002.453-.248-.003-.003.453-.246-.003-.003.453-.247-.018-.023.418-.227-.003-.003.453-.248-.008-.008.338-.214.02.023.43-.273.02.022.397-.252.003.002.55-.35-.003-.003.453-.246-.003-.003.453-.247-.003-.003.453-.247-.003-.003.453-.248-.019-.02.419-.23-.003-.003.453-.246-.008-.01.338-.214.02.023.43-.273.02.024.397-.253.003.003.55-.35-.003-.003.453-.247-.003-.003.453-.248-.003-.002.453-.248-.003-.002.453-.247-.02-.023.42-.227-.004-.003.454-.247-.003-.003.453-.248-.008-.008.337-.214.02.023.398-.253.003.002.429-.273.02.023.55-.35-.002-.002.453-.247-.003-.003.453-.247-.003-.003.453-.247-.019-.022.419-.229.3-.149.05-.05c.15-.1.3-.3.45-.45l-.022-.025c.102-.16.182-.317.222-.476l-.014-.016c.034-.111.064-.222.064-.334V14.717l-.194.11z" mask="url(#prefix__d)"/>
        </g>
    </g>
</svg>
