<svg xmlns="http://www.w3.org/2000/svg" width="82" height="55" viewBox="0 0 82 55">
    <g>
        <path d="M22.89 12.175c-.45-.615-1.11-.933-1.9-.9-.736.032-1.46.076-2.196.12-.153.011-.274.121-.307.275-1.625 9.046-2.81 17.191-3.634 24.909-.099.867.121 1.701.615 2.338.483.637 1.175 1.01 1.921 1.054l2.196.132h.022c.164 0 .307-.132.33-.308.768-7.717 1.898-15.973 3.413-25.26.165-.911 0-1.746-.46-2.36m-.176 2.25C21.21 23.592 20.1 31.76 19.332 39.4c-.636-.044-1.262-.077-1.888-.11-.57-.033-1.076-.318-1.449-.801-.384-.494-.549-1.142-.483-1.833.812-7.63 1.987-15.677 3.579-24.602.637-.033 2.03-.11 2.03-.11.517 0 .945.22 1.241.637.352.472.472 1.12.352 1.844m57.69 3.996c-.407-.549-1.263-1.087-2.043-1.196-1.339-.187-5.039-.418-7.53-.462-1.494 0-2.767 1.219-2.965 2.833-.044.417-.999 6.466-1.23 8.607-.197 1.877 1.142 2.821 2.57 2.821 0 0 3.37-.011 4.676-.033-.153.878-.384 2.163-.505 2.843l-2.404.132s.044-.274.044-.417c0-.977-.703-1.746-1.603-1.746l-3.227.1c-.165.01-.297.13-.33.296-.241 1.47-.494 2.942-.746 4.424-.154.878.01 1.69.46 2.283.418.56 1.055.878 1.79.878.044 0 4.26-.22 7.806-.614 1.394-.154 2.821-1.526 3.238-3.13.538-2.041.922-3.93 1.361-7.618.11-.955-.032-1.57-.537-2.184-.473-.571-1.153-.89-1.922-.89H72.5c.066-.362.428-2.536.494-2.964.615.011 2.35.055 2.35.055s-.045.165-.034.417c.044.955.813 1.735 1.702 1.746l3.063.033c.186 0 .318-.132.34-.297.198-1.24.384-2.536.571-3.853.11-.9-.198-1.559-.582-2.064m-.099 1.976c-.164 1.197-.34 2.382-.516 3.535-.933-.01-1.844-.022-2.777-.033-.538-.01-.999-.483-1.021-1.065-.011-.208.132-.636.132-.636.022-.11.01-.22-.055-.308-.066-.088-.165-.142-.275-.142 0 0-2.37-.055-3.095-.077-.187 0-.319.131-.34.307-.056.351-.539 3.272-.605 3.678-.01.098.011.208.077.285.066.077.165.12.264.12h5.203c.56 0 1.065.231 1.395.649.329.395.483.779.384 1.635-.428 3.645-.824 5.511-1.35 7.52-.34 1.296-1.548 2.481-2.646 2.602-3.524.406-7.619.615-7.619.615-.57.022-1.043-.176-1.361-.604-.33-.44-.44-1.043-.33-1.713.242-1.383.473-2.766.703-4.138l2.92-.1c.516 0 .911.462.922 1.033 0 .23-.098.735-.098.735-.011.11.01.209.087.297.066.077.165.12.275.11l3.085-.165c.153-.011.285-.132.318-.286.12-.625.472-2.623.637-3.556.01-.11-.011-.22-.077-.297-.066-.077-.176-.12-.275-.12-.922.032-5.082.043-5.082.043-1.164 0-2.01-.834-1.889-2.074.22-2.108 1.186-8.146 1.23-8.574.154-1.263 1.142-2.207 2.283-2.207 3.37.066 6.071.275 7.443.461.56.066 1.252.483 1.57.9.385.472.56.955.483 1.57m-13.656-3.71c-.055-.066-.143-.11-.242-.121l-2.503-.099c-1.46 0-2.711 1.24-2.92 2.898-.593 4.787-1.295 9.705-2.152 15.051l-2.338.066c.823-5.28 1.515-10.144 2.108-14.864.11-.89-.088-1.746-.571-2.382-.483-.637-1.164-1-1.932-1.032-.747-.011-1.482-.033-2.218-.055-.175 0-.318.131-.34.296-.747 6.148-1.647 12.724-2.865 20.694-.132.889.044 1.712.494 2.349.45.626 1.108.966 1.855.966h.088c2.525-.088 5.072-.198 7.586-.33 1.449-.087 2.81-1.437 3.095-3.073 1.263-7.18 2.218-13.756 2.943-20.112 0-.077-.033-.176-.088-.252M63.135 36.94c-.23 1.317-1.34 2.448-2.481 2.514-2.503.132-5.05.242-7.564.33l-.066.01c-.538 0-.988-.241-1.317-.691-.34-.483-.472-1.142-.363-1.834 1.186-7.849 2.086-14.348 2.822-20.408.636.011 1.273.033 1.92.044.56.011 1.066.286 1.417.758.373.494.527 1.163.44 1.877-.605 4.83-1.318 9.814-2.164 15.248-.022.1.011.209.077.275.066.077.165.12.253.12 1.01-.032 2.02-.054 3.019-.087.153 0 .285-.132.318-.286.878-5.456 1.592-10.473 2.196-15.347.164-1.306 1.13-2.294 2.261-2.294l2.13.087c-.725 6.214-1.669 12.67-2.898 19.684m-51.487-12.34l3.161-.021c.165 0 .308-.132.33-.297.22-1.46.46-2.93.702-4.402.143-.9-.033-1.745-.505-2.36-.439-.593-1.108-.9-1.92-.9-1.933 0-5.215.131-7.773.395-1.438.143-3.26 1.504-3.546 3.096C1.054 25.886.055 33.812.055 35.745c0 .472.066 1.635.68 2.382.516.625 1.34.834 2.064.966 2.141.373 5.994.68 7.652.68h.132c1.636-.022 2.547-.889 2.854-2.722.406-2.426 1.186-9.035 1.252-9.562.087-.637-.022-1.13-.308-1.482-.296-.362-.78-.538-1.427-.538l-4.995.011c-.165 0-.307.12-.34.296 0 0-.319 2.086-.461 3.063-.066.527.077 1.076.417 1.493.296.363.713.582 1.142.604l.241.011c-.055.33-.417 2.327-.56 3.129-.56-.022-2.47-.143-2.81-.165.197-1.987 1.328-9.803 1.625-11.45.516 0 2.404-.022 2.777-.033-.033.23-.044.428-.044.428.022.955.78 1.746 1.702 1.746m-4.71-2.865c-.154 0-.285.11-.318.274-.198.812-1.658 10.956-1.713 12.197-.01.197.132.362.319.373.428.022 2.82.175 3.469.208.175 0 .318-.12.35-.285.177-.988.605-3.381.67-3.853.023-.1-.01-.198-.076-.275-.066-.077-.154-.12-.253-.12l-.636-.022c-.231-.011-.473-.132-.648-.352-.209-.263-.308-.604-.264-.933.132-.944.275-1.811.417-2.755l4.71-.011c.428 0 .736.098.9.296.154.187.209.505.154.933-.066.538-.845 7.136-1.252 9.54-.252 1.504-.889 2.13-2.195 2.14h-.12c-1.626 0-5.424-.307-7.532-.669-.648-.11-1.295-.274-1.669-.735-.384-.461-.515-1.296-.515-1.922 0-1.723.91-9.353 2.03-15.5.231-1.274 1.779-2.394 2.943-2.515 2.536-.252 5.796-.395 7.706-.395.417 0 1 .11 1.394.626.352.461.472 1.098.363 1.811-.23 1.373-.45 2.745-.659 4.106h-2.876c-.538 0-.988-.483-1-1.087.012-.098.176-1.108.176-1.108s-3.282.01-3.875.033m24.8-.473c-1.065.011-2.13.011-3.206.022-.154 0-.296.121-.318.275-.165.9-1.658 11.999-1.779 13.35-.01.087.022.186.077.263.066.076.154.11.241.11 1.065.032 2.12.043 3.184.065.176 0 .318-.131.33-.307.076-.89 1.558-12.01 1.789-13.371.022-.1-.011-.198-.077-.275-.055-.088-.143-.143-.241-.132m-2.075 13.394c-.846-.022-1.68-.033-2.525-.055.252-2.152 1.416-10.836 1.69-12.636.846-.01 1.691-.022 2.536-.022-.34 2.25-1.482 10.824-1.701 12.713m6.872-17.642c-.461-.637-1.142-.988-1.921-.988-2.525.022-5.105.066-7.63.132-1.482.033-2.843 1.394-3.107 3.095-.966 6.368-1.734 12.142-2.36 17.664-.099.856.12 1.69.593 2.338.494.66 1.185 1.032 1.954 1.065 2.569.121 5.116.198 7.575.253h.055c1.427 0 2.722-1.318 2.93-3.008.78-6.203 1.626-12.372 2.416-18.125.154-.911-.033-1.767-.505-2.426m-.132 2.338c-.801 5.742-1.647 11.922-2.415 18.125-.176 1.35-1.175 2.415-2.283 2.415h-.044c-2.46-.055-4.995-.143-7.564-.252-.571-.022-1.087-.308-1.46-.813-.374-.505-.538-1.152-.461-1.822.614-5.522 1.383-11.296 2.349-17.642.22-1.383 1.295-2.492 2.47-2.514 2.525-.055 5.094-.099 7.64-.131.55 0 1.033.252 1.373.713.351.505.505 1.186.395 1.921m14.733-2.272c-.472-.648-1.153-1.01-1.921-1.021-1.625-.022-3.25-.044-4.875-.055.066-.483.242-1.8.242-1.8.11-.912-.077-1.79-.55-2.438-.471-.647-1.14-1.01-1.91-1.02h-2.195c-.165 0-.296.131-.33.296-.383 2.854-2.766 20.298-3.523 26.194-.11.878.077 1.723.538 2.382.483.658 1.174 1.032 1.943 1.032.626 0 5.697-.011 7.564-.033 1.449-.022 2.788-1.383 3.04-3.096 1.033-6.96 1.834-12.69 2.526-18.037.131-.878-.066-1.745-.55-2.404m-.098 2.338c-.68 5.346-1.482 11.066-2.514 18.026-.209 1.394-1.263 2.492-2.404 2.514-2.46.044-5.028.055-7.553.044-.571-.011-1.076-.274-1.416-.757-.363-.505-.516-1.164-.417-1.91.746-5.863 3.106-23.11 3.48-25.865h1.899c.549 0 1.043.264 1.383.747.362.505.516 1.196.417 1.932 0 0-.208 1.57-.285 2.184-.011.1.022.198.077.275.065.077.153.12.241.12 1.746.012 3.502.022 5.248.055.56.011 1.054.275 1.405.747.384.483.538 1.164.439 1.888m-4.567 1.833s-2.283-.01-3.206-.01c-.164 0-.307.131-.329.296-.077.604-1.844 13.514-1.844 13.514-.011.088.022.197.077.274.066.077.153.121.252.121 1.065 0 2.119-.01 3.184-.01.164 0 .296-.133.33-.297.12-.79 1.69-12.164 1.854-13.503.011-.1-.01-.198-.076-.275-.055-.066-.143-.11-.242-.11m-2.14 13.493c-.835 0-1.68.01-2.515.01 0 0 1.57-11.515 1.746-12.833.823 0 2.536.011 2.536.011-.297 2.218-1.515 10.99-1.768 12.812"/>
        <g>
            <path d="M22.055 14.425c-1.493 9.167-2.613 17.334-3.381 24.975-.637-.044-1.263-.077-1.889-.11-.56-.033-1.075-.318-1.449-.801-.384-.494-.56-1.142-.483-1.833.813-7.63 1.987-15.677 3.58-24.602.636-.033 2.03-.11 2.03-.11.516 0 .944.22 1.24.637.34.472.462 1.12.352 1.844m57.59 5.972c-.164 1.197-.34 2.382-.515 3.535-.933-.01-1.845-.022-2.778-.033-.538-.01-.999-.483-1.02-1.065-.012-.208.131-.636.131-.636.022-.11.011-.22-.055-.308s-.164-.142-.274-.142c0 0-2.372-.055-3.096-.077-.187 0-.318.131-.34.307-.044.351-.538 3.272-.604 3.678-.022.098.01.208.077.285.066.077.164.12.263.12h5.204c.56 0 1.065.231 1.394.649.33.395.494.779.384 1.635-.428 3.645-.823 5.511-1.35 7.52-.33 1.296-1.548 2.481-2.646 2.602-3.524.406-7.619.615-7.619.615-.57.022-1.043-.176-1.36-.604-.33-.44-.44-1.043-.33-1.713.241-1.383.472-2.766.702-4.138l2.92-.1c.517 0 .912.451.923 1.033 0 .23-.1.735-.1.735-.01.11.023.209.089.297.066.077.164.12.274.11l3.085-.165c.154-.011.285-.132.318-.286.121-.625.472-2.623.637-3.556.011-.11-.01-.22-.077-.297-.066-.077-.175-.12-.274-.12-.922.032-5.083.043-5.083.043-1.164 0-2.009-.834-1.888-2.074.22-2.108 1.185-8.146 1.23-8.574.153-1.263 1.13-2.207 2.283-2.207 3.359.066 6.07.275 7.443.45.56.066 1.251.483 1.57.9.373.494.56.966.483 1.581m-17.17 16.544c-.23 1.317-1.35 2.448-2.481 2.514-2.503.132-5.05.242-7.564.33l-.066.01c-.538 0-.999-.241-1.317-.691-.34-.483-.472-1.142-.362-1.834 1.185-7.838 2.085-14.348 2.821-20.408.637.011 1.273.033 1.921.044.56.011 1.076.286 1.427.758.374.494.527 1.163.44 1.877-.604 4.83-1.318 9.814-2.163 15.248-.022.1.01.209.077.275.065.077.153.12.252.12 1.01-.032 2.02-.054 3.019-.087.154-.011.285-.132.318-.286.879-5.456 1.603-10.473 2.196-15.347.165-1.306 1.142-2.294 2.261-2.294l2.13.087c-.735 6.214-1.68 12.67-2.909 19.684M6.279 21.737c-.153 0-.285.11-.318.263-.198.812-1.658 10.956-1.723 12.197-.011.197.131.362.318.373.428.022 2.821.176 3.469.197.176 0 .318-.12.351-.285.176-.988.604-3.381.67-3.853.022-.1-.011-.198-.077-.275-.055-.077-.154-.12-.252-.12l-.637-.022c-.23-.011-.472-.132-.648-.352-.22-.263-.307-.604-.263-.933.131-.944.274-1.811.417-2.755l4.71-.011c.428 0 .735.098.9.296.153.187.208.505.153.933-.066.538-.845 7.136-1.251 9.54-.253 1.504-.89 2.13-2.196 2.14h-.12c-1.625 0-5.424-.307-7.532-.669-.647-.12-1.295-.285-1.668-.735-.384-.461-.516-1.296-.516-1.921 0-1.724.911-9.354 2.03-15.501.231-1.274 1.78-2.394 2.943-2.514 2.536-.253 5.796-.396 7.707-.396.417 0 .999.11 1.394.626.351.461.472 1.098.362 1.811-.22 1.373-.45 2.745-.659 4.106l-2.865.022c-.538 0-.988-.483-.999-1.087.011-.098.176-1.108.176-1.108s-3.294.01-3.876.033m24.8-.473c-1.065.011-2.13.011-3.206.022-.153 0-.296.121-.318.275-.165.9-1.658 11.999-1.779 13.35-.01.087.022.186.077.252.066.077.154.11.242.11 1.054.032 2.119.043 3.183.065.176 0 .319-.131.33-.307.077-.89 1.559-12.01 1.79-13.382.01-.1-.012-.198-.078-.275-.055-.066-.142-.12-.241-.11m4.666-1.91c-.802 5.742-1.647 11.922-2.416 18.125-.175 1.35-1.174 2.415-2.272 2.415h-.044c-2.46-.055-4.995-.143-7.564-.252-.57-.022-1.087-.308-1.449-.802-.384-.505-.538-1.152-.461-1.822.615-5.522 1.383-11.296 2.35-17.642.219-1.383 1.295-2.492 2.47-2.514 2.524-.055 5.093-.099 7.64-.131.549 0 1.032.252 1.372.713.33.494.472 1.175.374 1.91m14.633.066c-.68 5.346-1.482 11.066-2.514 18.026-.208 1.394-1.262 2.492-2.404 2.503-2.459.044-5.028.055-7.553.044-.56-.011-1.076-.274-1.416-.757-.362-.505-.516-1.164-.417-1.91.757-5.863 3.107-23.11 3.48-25.865h1.9c.548 0 1.042.264 1.382.747.363.505.516 1.196.417 1.932 0 0-.208 1.57-.285 2.184-.01.1.011.198.077.275.066.077.154.12.252.12 1.746.012 3.491.023 5.248.055.56.011 1.054.275 1.405.747.373.494.527 1.175.428 1.9m-4.567 1.832s-2.283-.01-3.205-.01c-.165 0-.308.131-.33.296-.076.604-1.844 13.514-1.844 13.514-.01.099.022.197.077.274.055.077.154.121.252.121 1.054 0 2.12-.01 3.184-.01.165 0 .297-.133.33-.297.12-.79 1.69-12.164 1.855-13.503.01-.1-.011-.198-.077-.275-.055-.066-.143-.11-.242-.11M31.123 4.93c-1.636.416-3.217.932-4.72 1.547.834.406 1.767.78 2.777 1.098.735-1.076 1.405-1.976 1.943-2.646m24.173 1.647c-1.624-.68-3.326-1.24-5.115-1.69.538.669 1.262 1.635 2.085 2.832 1.11-.33 2.12-.714 3.03-1.142m-3.853 1.383c-1.196-1.723-2.174-2.91-2.58-3.37-2.448-.516-5.017-.802-7.662-.835v4.051c1.383.033 2.645.483 3.622 1.296 2.372-.209 4.622-.604 6.62-1.142m-21.44-.132c2.064.593 4.402 1.032 6.894 1.252.988-1.285 2.712-1.285 3.392-1.285h.11v-4.04c-2.766.022-5.434.33-7.97.879-.516.604-1.394 1.701-2.426 3.194m5.917 5.182c.088-.604.209-1.438.286-2.097.044-.373.12-.691.22-.977-2.515-.252-4.875-.702-6.95-1.34-.878 1.307-1.822 2.844-2.723 4.568 2.701-.044 7.29-.132 9.167-.154m17.807 30.442c-1.318.044-2.602.088-3.81.11-2.613.044-5.61.099-8.716.11v1.449c3.875.033 7.552.538 10.615 1.405.615-.911 1.263-1.943 1.91-3.074M45.615 9.913c.636.835 1.043 1.855 1.185 3.03.692.022 1.724.055 2.844.077 1.427.044 3.15.088 4.962.143-.867-1.669-1.79-3.162-2.624-4.435-1.943.56-4.095.955-6.367 1.185m9.913 3.283c3.689.11 7.597.241 10.11.384-2.48-2.635-5.631-4.863-9.276-6.532-1.043.549-2.25 1.032-3.568 1.449.879 1.34 1.845 2.931 2.734 4.699M50.17 50.192c1.69-.429 3.326-.955 4.874-1.592-.867-.417-1.844-.78-2.898-1.098-.758 1.109-1.45 2.02-1.976 2.69M25.623 13.174h.22c.932-1.812 1.91-3.447 2.832-4.83-1.23-.407-2.339-.89-3.316-1.417-1.109.494-2.184 1.043-3.194 1.647.724.23 1.372.615 1.899 1.153.834.856 1.383 2.074 1.559 3.447M52.64 46.766c1.273.407 2.415.879 3.414 1.395 3.096-1.384 5.862-3.162 8.157-5.259-3.052.187-6.379.373-9.53.505-.68 1.24-1.383 2.36-2.041 3.36m-23.625-3.261c-.483-.022-.966-.033-1.427-.055.659 1.153 1.317 2.207 1.943 3.129 3.118-.911 6.905-1.438 10.868-1.46v-1.45h-1.34c-3.688 0-6.97-.043-10.044-.164m12.197 2.47v5.357c2.645-.033 5.214-.318 7.651-.834.472-.56 1.373-1.68 2.46-3.228-2.932-.812-6.434-1.262-10.111-1.295m-14.59-2.558c-4.446-.175-7.96-.34-9.277-.406 2.284 2.064 5.017 3.81 8.08 5.17.955-.504 2.064-.965 3.272-1.36-.66-1-1.373-2.141-2.075-3.404m-.165 5.204c1.482.604 3.041 1.109 4.655 1.526-.516-.648-1.175-1.515-1.91-2.591-1 .318-1.922.67-2.745 1.065m5.972 1.833c2.536.549 5.215.856 7.97.878v-5.357c-3.776.033-7.377.505-10.363 1.35 1.054 1.493 1.932 2.58 2.393 3.13" transform="translate(.659)"/>
            <path d="M40.805 1.361c11.78 0 22.132 4.951 27.94 12.384.56.032 1.097.054 1.624.076C64.463 5.621 53.42.088 40.805.088c-12.526 0-23.504 5.456-29.443 13.558.582-.022 1.131-.044 1.614-.066C18.816 6.247 29.103 1.36 40.806 1.36m0 52.344c-10.979 0-20.705-4.304-26.688-10.89-.604-.045-1.186-.077-1.757-.11 6.126 7.388 16.588 12.284 28.444 12.284 11.923 0 22.44-4.94 28.543-12.416-.56.044-1.141.077-1.745.12-5.972 6.664-15.754 11.012-26.798 11.012" transform="translate(.659)"/>
        </g>
    </g>
</svg>
