<svg xmlns="http://www.w3.org/2000/svg" width="125" height="40" viewBox="0 0 125 40">
    <g fill="none">
        <g fill="#333">
            <path d="M48.067.556H50.964V20.259H48.067zM55.866 16.7c-1.084 0-1.957.873-1.957 1.957s.873 1.957 1.957 1.957 1.957-.873 1.957-1.957-.873-1.957-1.957-1.957zM63.482 13.4c0-2.35 1.41-4.364 4.144-4.364h1.727V6.293h-1.727c-2.14 0-3.118.68-4.115 1.813l-.02.028V6.293h-2.867v13.956h2.858V13.4zM42.024 6.293H44.921V20.25H42.024zM43.472 3.98c1.084 0 1.957-.872 1.957-1.956S44.547.067 43.472.067c-1.084 0-1.956.873-1.956 1.957s.882 1.957 1.956 1.957zM36.038 7.703c-1.112-1.132-2.82-1.765-4.518-1.765-4.048 0-7.338 3.29-7.338 7.338s3.29 7.338 7.338 7.338c1.698 0 3.492-.73 4.518-1.88v1.525h2.85V6.293h-2.85v1.41zm-4.422 9.995c-2.494 0-4.393-1.919-4.393-4.422 0-2.504 1.9-4.403 4.393-4.403 2.494 0 4.46 1.784 4.46 4.403 0 2.618-1.966 4.422-4.46 4.422zM77.372 20.614c1.295 0 2.945-.7 3.98-1.89.01.528 0 1.007 0 1.525h2.85V6.293h-2.86v7.664c0 1.985-1.515 3.837-3.788 3.837-1.986 0-3.396-1.44-3.396-3.501v-7.99H71.3v8.23c.01 3.683 1.995 6.08 6.072 6.08zM15.818 5.938c-1.9 0-3.76.863-4.892 2.225C9.89 6.791 8.384 5.938 6.36 5.938c-1.65 0-2.83.738-3.463 1.333v-.978H.048v13.956h2.849v-8.163c0-1.822 1.487-3.3 3.3-3.3 1.813 0 3.3 1.487 3.3 3.3v8.163h2.848v-8.163c0-1.822 1.487-3.3 3.3-3.3 1.813 0 3.3 1.487 3.3 3.3v8.163h2.849v-8.163c.019-3.74-2.408-6.148-5.976-6.148zM53.439 26.705l-.02.02V25.64H51.598v8.192h1.823v-3.837c0-1.381.825-2.56 2.427-2.56h1.007V25.64h-1.007c-1.247 0-1.823.403-2.408 1.065zM73.036 30.13c0 1.314-1.055 2.1-2.082 2.1-1.083 0-1.85-.786-1.85-1.909V25.65H67.27v4.806c0 2.273 1.305 3.587 3.568 3.587.739 0 1.612-.374 2.187-.94v.739h1.823V25.65h-1.832l.019 4.48zM61.602 25.439c-2.37 0-4.297 1.928-4.297 4.297 0 2.37 1.928 4.298 4.297 4.298 2.37 0 4.297-1.928 4.297-4.298s-1.918-4.297-4.297-4.297zm0 6.772c-1.362 0-2.475-1.113-2.475-2.475s1.113-2.475 2.475-2.475 2.475 1.113 2.475 2.475-1.103 2.475-2.475 2.475zM80.998 25.439c-.94 0-1.852.326-2.494.882v-.68H76.68v11.011h1.823v-3.549c.614.576 1.563.94 2.494.94 2.369 0 4.297-1.928 4.297-4.297 0-2.38-1.928-4.307-4.297-4.307zm-.058 6.734c-1.43 0-2.465-1.027-2.465-2.437s1.036-2.427 2.465-2.427c1.381 0 2.427 1.046 2.427 2.427 0 1.391-1.046 2.437-2.427 2.437zM47.962 26.321c-.643-.556-1.554-.882-2.494-.882-2.37 0-4.298 1.928-4.298 4.297 0 2.37 1.928 4.298 4.298 4.298.93 0 1.88-.365 2.494-.94v.163c-.03 1.678-.844 2.532-2.437 2.532h-.019c-.902 0-1.698-.345-2.436-1.065l-.068-.067-1.323 1.266.057.067c.681.797 2.063 1.708 3.722 1.708h.086c1.554-.029 4.163-.633 4.24-4.374V25.63h-1.822v.69zm-2.437 5.852c-1.381 0-2.427-1.046-2.427-2.437 0-1.381 1.046-2.427 2.427-2.427 1.43 0 2.465 1.017 2.465 2.427-.01 1.41-1.036 2.437-2.465 2.437z" transform="translate(39.137 2.302)"/>
        </g>
        <path fill="#FC2C38" d="M20 15.329c0 2.542-2.062 4.604-4.604 4.604-2.542 0-4.605-2.062-4.605-4.604 0-2.542 2.063-4.605 4.605-4.605 2.542 0 4.604 2.072 4.604 4.605M15.396.029C6.954.029.086 6.897.086 15.339c0 8.44 6.868 15.299 15.31 15.299 3.088 0 6.072-.921 8.623-2.667l.048-.029-2.062-2.398-.039.02c-1.966 1.256-4.23 1.928-6.57 1.928-6.705 0-12.163-5.458-12.163-12.163S8.69 3.165 15.396 3.165 27.559 8.624 27.559 15.33c0 .872-.096 1.745-.288 2.618-.384 1.583-1.487 2.063-2.321 1.995-.835-.067-1.813-.661-1.823-2.12V15.33c0-4.269-3.472-7.741-7.74-7.741-4.27 0-7.742 3.472-7.742 7.74 0 4.27 3.473 7.742 7.741 7.742 2.072 0 4.02-.816 5.487-2.283.854 1.323 2.245 2.158 3.827 2.283.135.01.278.019.413.019 1.112 0 2.216-.374 3.108-1.046.92-.7 1.602-1.707 1.976-2.916.057-.192.172-.643.172-.643v-.019c.22-.969.326-1.937.326-3.136.01-8.432-6.858-15.3-15.3-15.3"/>
    </g>
</svg>
