<svg xmlns="http://www.w3.org/2000/svg" width="116" height="40" viewBox="0 0 116 40">
    <g fill="none" fill-rule="evenodd" transform="translate(-2 -2)">
        <path fill="#231F20" fill-rule="nonzero" d="M55.085 19v-7.41l3.192 5.225h1.786l3.192-5.225V19h2.565V5.7h-1.805l-4.845 7.961L54.325 5.7H52.52V19h2.565zm21.945 0v-2.28h-5.605v-3.705h4.085v-2.28h-4.085V7.98h5.415V5.7h-7.98V19h8.17zm10.45 0v-2.28h-5.605V5.7H79.31V19h8.17zM55.997 38.19c1.229 0 2.286-.377 3.173-1.13.887-.754 1.33-1.707 1.33-2.86 0-.836-.212-1.545-.636-2.128-.425-.583-.938-1.02-1.54-1.311-.601-.291-1.2-.548-1.795-.77-.595-.221-1.105-.474-1.53-.76-.424-.285-.636-.617-.636-.997 0-.481.206-.842.617-1.083.412-.24.89-.361 1.435-.361.9 0 1.666.291 2.299.874l1.33-1.9c-1.127-.836-2.413-1.254-3.857-1.254-1.178 0-2.204.342-3.078 1.026-.874.684-1.311 1.59-1.311 2.717 0 1.28.627 2.286 1.881 3.021.367.215.966.481 1.795.798.83.317 1.448.63 1.853.94.405.31.608.72.608 1.226 0 .481-.18.88-.541 1.197-.361.317-.827.475-1.397.475-1.203 0-2.248-.488-3.135-1.463l-1.672 1.748c1.457 1.33 3.059 1.995 4.807 1.995zm10.763 0c1.748 0 3.141-.69 4.18-2.071l-1.9-1.425c-.228.342-.535.63-.922.864-.386.235-.813.352-1.282.352-.747 0-1.358-.237-1.834-.712-.474-.476-.712-1.074-.712-1.796 0-.71.237-1.308.712-1.796.476-.487 1.068-.731 1.777-.731.861 0 1.57.367 2.128 1.102l1.748-1.539c-.443-.557-1.004-1.004-1.681-1.34-.678-.335-1.41-.503-2.195-.503-1.406 0-2.584.466-3.534 1.396-.95.931-1.425 2.068-1.425 3.411s.469 2.476 1.406 3.401c.937.925 2.115 1.387 3.534 1.387zm7.115-11.096c.443 0 .823-.152 1.14-.456.317-.304.475-.678.475-1.121 0-.443-.158-.817-.475-1.121-.317-.304-.697-.456-1.14-.456-.443 0-.823.152-1.14.456-.317.304-.475.678-.475 1.121 0 .443.158.817.475 1.121.317.304.697.456 1.14.456zM75.11 38v-9.215h-2.47V38h2.47zm6.716.19c.722 0 1.422-.146 2.1-.437.677-.291 1.238-.697 1.681-1.216l-1.406-1.406c-.659.71-1.431 1.064-2.318 1.064-.659 0-1.222-.203-1.691-.608-.469-.405-.735-.931-.798-1.577h6.384c.038-.203.057-.437.057-.703 0-1.305-.412-2.416-1.235-3.335-.823-.918-1.862-1.377-3.116-1.377-1.33 0-2.41.469-3.24 1.406-.83.937-1.244 2.071-1.244 3.401 0 1.431.456 2.587 1.368 3.468.912.88 2.065 1.32 3.458 1.32zm1.482-5.985h-3.8c.063-.43.285-.807.665-1.13.38-.323.817-.485 1.311-.485.481 0 .896.162 1.245.485.348.323.541.7.579 1.13zM90.195 38v-5.985c.203-.291.51-.554.922-.788.411-.235.851-.352 1.32-.352.583 0 1.045.171 1.387.513.367.367.551.944.551 1.729V38h2.47v-4.693c0-1.406-.317-2.483-.95-3.23-.823-.988-1.887-1.482-3.192-1.482-.975 0-1.843.31-2.603.931v-.741h-2.375V38h2.47zm13.29.19c1.748 0 3.141-.69 4.18-2.071l-1.9-1.425c-.228.342-.535.63-.921.864-.387.235-.814.352-1.283.352-.747 0-1.359-.237-1.834-.712-.475-.476-.712-1.074-.712-1.796 0-.71.237-1.308.713-1.796.475-.487 1.067-.731 1.776-.731.861 0 1.57.367 2.128 1.102l1.748-1.539c-.443-.557-1.004-1.004-1.681-1.34-.678-.335-1.41-.503-2.195-.503-1.406 0-2.584.466-3.534 1.396-.95.931-1.425 2.068-1.425 3.411s.469 2.476 1.406 3.401c.937.925 2.115 1.387 3.534 1.387zm9.946 0c.722 0 1.422-.146 2.1-.437.677-.291 1.238-.697 1.681-1.216l-1.406-1.406c-.659.71-1.431 1.064-2.318 1.064-.659 0-1.222-.203-1.691-.608-.469-.405-.735-.931-.798-1.577h6.384c.038-.203.057-.437.057-.703 0-1.305-.412-2.416-1.235-3.335-.823-.918-1.862-1.377-3.116-1.377-1.33 0-2.41.469-3.24 1.406-.83.937-1.244 2.071-1.244 3.401 0 1.431.456 2.587 1.368 3.468.912.88 2.065 1.32 3.458 1.32zm1.482-5.985h-3.8c.063-.43.285-.807.665-1.13.38-.323.817-.485 1.311-.485.481 0 .896.162 1.245.485.348.323.541.7.579 1.13z"/>
        <g transform="translate(32.5 2)">
            <path fill="#FBD4DD" d="M3.5 1.077L8.587 5.87 6.155 8.28C5.513 9.027 4.562 9.5 3.5 9.5 1.567 9.5 0 7.933 0 6c0-.917.353-1.752.93-2.376L3.5 1.077z"/>
            <circle cx="6" cy="3.5" r="3.5" fill="#EF4B6F"/>
        </g>
        <g transform="matrix(1 0 0 -1 32.5 41.78)">
            <path fill="#D2D6E9" d="M3.5 1.077L8.587 5.87 6.155 8.28C5.513 9.027 4.562 9.5 3.5 9.5 1.567 9.5 0 7.933 0 6c0-.917.353-1.752.93-2.376L3.5 1.077z"/>
            <circle cx="6" cy="3.5" r="3.5" fill="#4154A4"/>
        </g>
        <g transform="matrix(-1 0 0 1 12 2)">
            <path fill="#FCFAD1" d="M3.5 1.077L8.587 5.87 6.155 8.28C5.513 9.027 4.562 9.5 3.5 9.5 1.567 9.5 0 7.933 0 6c0-.917.353-1.752.93-2.376L3.5 1.077z"/>
            <circle cx="6" cy="3.5" r="3.5" fill="#F1EA3D"/>
        </g>
        <g transform="rotate(180 6 20.89)">
            <path fill="#D6EED3" d="M3.5 1.077L8.587 5.87 6.155 8.28C5.513 9.027 4.562 9.5 3.5 9.5 1.567 9.5 0 7.933 0 6c0-.917.353-1.752.93-2.376L3.5 1.077z"/>
            <circle cx="6" cy="3.5" r="3.5" fill="#53B848"/>
        </g>
        <g transform="rotate(45 .02 52.136)">
            <path fill="#EAD4E8" d="M3.5 1.077L8.587 5.87 6.155 8.28C5.513 9.027 4.562 9.5 3.5 9.5 1.567 9.5 0 7.933 0 6c0-.917.353-1.752.93-2.376L3.5 1.077z"/>
            <circle cx="6" cy="3.5" r="3.5" fill="#A74D9D"/>
        </g>
        <g transform="scale(-1 1) rotate(45 -22.2 -1.511)">
            <path fill="#FCDAD0" d="M3.5 1.077L8.587 5.87 6.155 8.28C5.513 9.027 4.562 9.5 3.5 9.5 1.567 9.5 0 7.933 0 6c0-.917.353-1.752.93-2.376L3.5 1.077z"/>
            <circle cx="6" cy="3.5" r="3.5" fill="#F2643A"/>
        </g>
        <g transform="rotate(-45 16.445 -14.807)">
            <path fill="#FBD2D2" d="M3.5 1.077L8.587 5.87 6.155 8.28C5.513 9.027 4.562 9.5 3.5 9.5 1.567 9.5 0 7.933 0 6c0-.917.353-1.752.93-2.376L3.5 1.077z"/>
            <circle cx="6" cy="3.5" r="3.5" fill="#EF4444"/>
        </g>
        <circle cx="4" cy="3.5" r="3.5" fill="#C0C2D7" transform="rotate(-45 35.096 -9.081)"/>
        <g transform="scale(1 -1) rotate(-45 -36.502 -36.738)">
            <path fill="#DAF2F5" d="M3.5 1.077L8.587 5.87 6.155 8.28C5.513 9.027 4.562 9.5 3.5 9.5 1.567 9.5 0 7.933 0 6c0-.917.353-1.752.93-2.376L3.5 1.077z"/>
            <circle cx="6" cy="3.5" r="3.5" fill="#66C9D4"/>
        </g>
    </g>
</svg>
