<svg xmlns="http://www.w3.org/2000/svg" width="169" height="36" viewBox="0 0 169 36">
    <g>
        <path d="M59.812 20.933l-1.006 2.897h-.083c-.168-.654-.475-1.648-.978-2.84l-5.39-13.776h-5.278V29.17h3.49V15.621c0-.852 0-1.817-.027-3.01-.028-.597-.084-1.051-.112-1.392h.084c.168.852.363 1.477.503 1.874l6.479 16.02h2.457l6.424-16.162c.14-.369.279-1.107.418-1.732h.084c-.084 1.619-.14 3.067-.167 3.948v13.917h3.714V7.157h-5.083l-5.53 13.776zm14.13-7.584h3.631v15.735h-3.63V13.349zm1.844-6.646c-.614 0-1.117.227-1.536.625-.419.397-.642.909-.642 1.534 0 .596.223 1.107.642 1.505.419.397.922.596 1.536.596s1.145-.227 1.536-.596c.419-.398.642-.909.642-1.505 0-.597-.223-1.108-.642-1.534-.363-.398-.894-.625-1.536-.625m14.662 6.504c-.67-.142-1.369-.227-2.039-.227-1.648 0-3.156.37-4.412 1.108-1.257.738-2.262 1.76-2.905 3.039-.67 1.306-1.005 2.811-1.005 4.544 0 1.505.335 2.84.977 4.062.643 1.192 1.536 2.158 2.737 2.811 1.145.654 2.486.994 3.994.994 1.731 0 3.211-.369 4.384-1.05l.028-.029v-3.408l-.14.113c-.53.398-1.144.739-1.759.938-.642.227-1.229.34-1.731.34-1.453 0-2.598-.425-3.407-1.363-.838-.909-1.257-2.158-1.257-3.72 0-1.62.419-2.897 1.284-3.835.866-.937 2.011-1.42 3.408-1.42 1.173 0 2.373.398 3.463 1.193l.14.114v-3.607l-.029-.029c-.474-.199-1.005-.426-1.731-.568m11.98-.114c-.893 0-1.73.285-2.457.881-.614.511-1.033 1.25-1.396 2.13h-.028V13.35h-3.63v15.735h3.63v-8.038c0-1.363.279-2.5.893-3.323.615-.852 1.397-1.278 2.346-1.278.335 0 .67.085 1.09.142.39.114.67.227.865.37l.14.113v-3.692l-.084-.029c-.251-.17-.754-.256-1.368-.256m9.886-.085c-2.542 0-4.58.767-6.005 2.272-1.452 1.506-2.15 3.58-2.15 6.192 0 2.443.726 4.431 2.122 5.88 1.397 1.42 3.296 2.158 5.67 2.158 2.485 0 4.468-.767 5.892-2.3 1.453-1.534 2.15-3.58 2.15-6.107 0-2.5-.67-4.488-2.038-5.936-1.313-1.449-3.24-2.159-5.641-2.159m2.904 12.1c-.67.88-1.731 1.306-3.044 1.306-1.312 0-2.374-.426-3.128-1.363-.754-.88-1.117-2.159-1.117-3.778 0-1.675.391-2.953 1.117-3.862.754-.91 1.788-1.364 3.1-1.364 1.285 0 2.29.426 3.016 1.307.726.88 1.117 2.158 1.117 3.834-.055 1.704-.363 3.04-1.06 3.92m12.874-5.226c-1.145-.483-1.872-.852-2.207-1.165-.279-.284-.419-.681-.419-1.193 0-.426.168-.852.587-1.136.419-.284.894-.426 1.592-.426.614 0 1.256.114 1.87.284.615.17 1.174.426 1.62.767l.14.114v-3.465l-.084-.029c-.418-.17-.977-.34-1.647-.483-.67-.113-1.285-.17-1.788-.17-1.731 0-3.155.426-4.272 1.363-1.117.88-1.648 2.074-1.648 3.465 0 .739.112 1.392.363 1.932s.614 1.05 1.117 1.477c.503.397 1.229.852 2.234 1.278.838.369 1.48.653 1.871.88.391.227.643.483.838.682.14.227.224.511.224.88 0 1.051-.782 1.562-2.374 1.562-.615 0-1.257-.113-2.011-.369-.754-.255-1.452-.625-2.039-1.05l-.14-.114v3.607l.084.028c.531.256 1.173.426 1.955.625.782.142 1.48.256 2.095.256 1.871 0 3.407-.426 4.496-1.364 1.117-.909 1.704-2.073 1.704-3.578 0-1.051-.28-1.989-.894-2.699-.81-.681-1.815-1.391-3.267-1.96m13.74-6.873c-2.542 0-4.58.767-6.005 2.272-1.424 1.506-2.15 3.58-2.15 6.192 0 2.443.726 4.431 2.122 5.88 1.397 1.42 3.296 2.158 5.67 2.158 2.485 0 4.468-.767 5.892-2.3 1.453-1.534 2.15-3.58 2.15-6.107 0-2.5-.67-4.488-2.038-5.936-1.313-1.449-3.24-2.159-5.641-2.159m2.876 12.1c-.67.88-1.731 1.306-3.044 1.306-1.34 0-2.374-.426-3.128-1.363-.754-.88-1.117-2.159-1.117-3.778 0-1.675.391-2.953 1.117-3.862.754-.91 1.788-1.364 3.1-1.364 1.257 0 2.29.426 3.016 1.307.726.88 1.117 2.158 1.117 3.834 0 1.704-.363 3.04-1.06 3.92m24.212-8.72V13.35h-3.658V8.691l-.112.029-3.463 1.05-.084.029v3.55h-5.474v-1.988c0-.909.224-1.619.615-2.073.39-.455.977-.682 1.703-.682.503 0 1.034.114 1.62.37l.14.084V5.85l-.084-.028c-.503-.17-1.173-.284-2.039-.284-1.089 0-2.038.256-2.904.682-.866.483-1.508 1.136-1.983 2.017-.475.852-.726 1.817-.726 2.925v2.187h-2.541v3.01h2.541v12.725h3.658V16.388h5.474v8.095c0 3.323 1.536 4.999 4.608 4.999.503 0 1.033-.086 1.536-.17.53-.114.922-.256 1.145-.37l.028-.028v-3.04l-.14.114c-.223.142-.418.256-.754.341-.279.085-.53.114-.726.114-.726 0-1.228-.17-1.592-.597-.335-.397-.502-1.05-.502-2.016v-7.442h3.714zM0 0L17.538 0 17.538 17.538 0 17.538zM18.462 0L36 0 36 17.538 18.462 17.538zM0 18.462L17.538 18.462 17.538 36 0 36zM18.462 18.462L36 18.462 36 36 18.462 36z"/>
    </g>
</svg>
