<svg xmlns="http://www.w3.org/2000/svg" width="150" height="40" viewBox="0 0 150 40">
    <g fill="none" fill-rule="evenodd">
        <path fill="#000" fill-rule="nonzero" d="M0 0.683L39.311 0.683 39.311 39.995 0 39.995z"/>
        <path fill="#FFF" d="M1.137 1.82L38.174 1.82 38.174 38.858 1.137 38.858z"/>
        <path fill="#000" fill-rule="nonzero" d="M3.102 31.374L7.934 36.3l11.32-11.486 11.698 11.722 4.902-4.854-11.58-11.58 2.226-2.155v-4.594l1.397-1.184v3.6l1.8 1.468 5.375-5.376 1.729 1.326C37.82 9.422 31.923.873 27.044 5.61l-5.684 5.636 1.16 1.398-2.889 2.817-2.794-2.747 1.469-1.327-6.229-6.014c-4.688-3.86-9.496 2.014-9.662 7.744l1.705-1.42 5.233 5.636 1.87-1.563v-3.458l1.16.876v4.524l2.274 2.273-11.555 11.39zM63.585 6.32c1.137 0 2.202.378 3.078.993v-.591h4.073l.024 10.727h-4.12l.023-.663c-.876.616-1.941.971-3.078.971-3.032 0-5.518-2.557-5.518-5.707s2.487-5.73 5.518-5.73zm-12.29-4.31c5.329.07 7.223 6.797 2.155 9.26l4.38 6.18h-4.925l-3.553-5.02v5.02h-4.167V2.01zm13.166 7.72c-1.35 0-2.463 1.041-2.463 2.32s1.113 2.321 2.463 2.321c1.373 0 2.486-1.042 2.486-2.32 0-1.28-1.112-2.322-2.486-2.322zm-13.64-4.334h-1.469v3.41h1.468c2.013-.379 1.469-3.268 0-3.41zm22.095 1.326h4.333v10.727h-4.333V6.722zM75.094.588c1.256 0 2.274 1.042 2.274 2.297 0 1.255-1.018 2.297-2.274 2.297-1.279 0-2.297-1.042-2.297-2.297 0-1.254 1.018-2.297 2.297-2.297zm32.894 6.134h4.334v10.727h-4.334V6.722zm2.155-6.134c1.28 0 2.297 1.042 2.297 2.297 0 1.255-1.018 2.297-2.297 2.297-1.255 0-2.273-1.042-2.273-2.297 0-1.254 1.018-2.297 2.273-2.297zM78.054 6.722v3.41h1.492v7.317h4.193v-7.317h3.93v7.317h4.334v-7.364h2.7V6.77h-2.819V4.378c-.07-.876 1.99-1.232 2.7-.521V.351c-3.978-1.255-7.198.995-7.175 4.476v1.895h-3.695V4.378c-.048-.876 1.753-1.232 2.794-.521V.351c-3.458-1.017-7.151.663-7.128 4.452v1.895l-1.326.024zm22.83 11.035c3.718-.023 5.09-1.562 5.896-3.812h-3.765c-1.705 2.178-4.192.592-4.073-1.184h7.958c0-4.358-2.322-6.418-6.016-6.418-3.693 0-6.014 2.605-6.014 5.779 0 3.173 2.699 5.66 6.013 5.635zM130.39 6.343c3.719 0 6.016 2.06 6.016 6.418h-7.958c-.119 1.776 2.368 3.362 4.073 1.184h3.789c-.805 2.25-2.18 3.789-5.92 3.812-3.316.024-6.014-2.462-6.014-5.635 0-3.174 2.32-5.779 6.014-5.779zm-27.827 3.884h-3.078c.048-1.303 2.89-1.303 3.078 0zm29.507 0c-.188-1.303-3.03-1.303-3.078 0zm-8.832-3.292L121.96 9.54c-1.61-.497-3.174-.402-3.126.047.048.284-.213.782 2.297 1.137 3.741.592 3.434 7.554-2.842 7.033-1.728-.118-3.126-.568-4.286-1.255l1.398-2.795c1.966.971 3.86 1.54 4.002.569.166-1.208-2.06-.782-3.41-1.8-2.416-1.492-1.043-6.11 2.913-6.158 1.396-.093 2.841.143 4.333.617zM70.523 24.104l3.718 15.89h-4.286l-.781-2.842h-5.257l-1.398 2.795h-4.642l8.265-15.843h4.381zm-16.22-.165c3.386.047 4.996 4.428 1.846 7.341 3.694 2.203 1.563 8.643-3.623 8.643h-7.65l2.7-15.914zm-1.777 9.567h-1.848l-.544 2.628h1.776c2.013.095 1.776-2.628.616-2.628zm14.872-3.885l-1.966 4.193h2.89l-.924-4.193zm-15.11-1.823h-.71l-.45 2.132.545.023c1.634.095 2.581-2.155.616-2.155zm89.66-20.271c3.575-2.392 7.53-.568 7.625 3.197v6.725h-4.096v-6.56c-.024-1.918-3.245-1.634-3.363 0v6.56h-4.05V6.722h3.883zM75.71 39.995h4.287l1.088-9.97 6.134 9.922h4.594L93.73 24.01h-4.286l-1.208 9.97-6.134-10.018h-4.428L75.71 39.995zm21.1-16.033l-3.007 15.985h4.523l1.208-5.968 4.049 5.968h5.944l-5.802-8.384 7.413-7.625h-5.755l-5.068 5.636.805-5.636-4.31.024z"/>
    </g>
</svg>
