<svg xmlns="http://www.w3.org/2000/svg" width="164" height="40" viewBox="0 0 164 40">
    <g>
        <path d="M31 14.36C31 22.911 24.061 30 15.434 30 6.912 30 0 22.912 0 14.36v-1.02l9.419 5.466L29.285 7.27C30.446 9.337 31 11.848 31 14.36zm-21.581.444L.686 9.782c-.237.575-.343 1.15-.449 1.7l9.208 5.257L28.52 5.78c-.343-.444-.686-.915-1.029-1.36L9.42 14.804zm16.806-11.64c-.449-.444-.897-.81-1.372-1.15L9.419 10.907 2.03 6.565c-.342.575-.58 1.02-.791 1.595l8.179 4.682 16.806-9.677zM9.419 8.894L23.375.915c-.686-.34-1.24-.68-1.82-.915L9.392 6.957 4.09 3.871c-.343.445-.791.915-1.134 1.36l6.464 3.662zM42.827 13.388C41.018 12.698 39 11.771 39 8.748 39 5.962 40.809 4 45.212 4c2.49 0 3.827.583 4.298.822v3.236h-.89l-.237-.929c-.445-1.166-1.127-2.095-2.935-2.095-2.36 0-3.172 1.167-3.172 2.546 0 1.512.682 2.096 2.254 2.652l2.15.823c2.359.928 3.617 2.2 3.617 4.853 0 2.44-1.573 5.092-6.422 5.092-2.49 0-4.167-.583-4.613-.69v-3.58h1.022l.236 1.167c.341 1.273 1.127 2.095 3.277 2.095 2.018 0 3.276-1.034 3.276-2.89 0-1.38-.682-2.308-2.018-2.891l-2.228-.823zm15.228-9.043c3.172 0 5.976.345 5.976 3.713 0 2.307-1.468 3.235-3.276 3.58 2.018.106 3.827 1.618 3.827 4.058 0 4.058-2.7 4.986-6.658 4.986h-6.08v-.451c.785-.239.89-.451.89-1.273V6.228c0-.928-.105-1.167-.89-1.273V4.37h6.211v-.026zm-1.808 6.842h1.467c1.809 0 2.831-.69 2.831-2.89 0-2.202-.891-2.997-2.7-2.997h-.576c-.787 0-1.022.238-1.022.928v4.96zm0 1.035v6.02c0 1.034.235 1.379 1.363 1.379h.576c1.809 0 2.936-1.167 2.936-3.713 0-2.44-.891-3.713-3.381-3.713h-1.494v.027zm15.569-6.949c-.682 0-.787.239-.787.69v5.092h2.15c.89 0 2.254-.106 2.83-.451v2.095c-.576-.345-1.913-.451-2.83-.451h-2.15v6.126c0 1.035.341 1.273 2.49 1.273h.446c2.018 0 2.595-.106 3.04-2.2l.105-.584h1.022v3.819H66.626v-.451c.786-.239.891-.451.891-1.273V6.228c0-.928-.105-1.167-.891-1.273V4.37h11.166v3.58H76.9l-.104-.822c-.446-1.723-1.127-1.856-3.172-1.856h-1.808zm22.017 15.409h-4.404c-.236-.928-1.468-4.164-1.913-5.331l-.891-2.201H84.71v5.675c0 .929.105 1.167.891 1.273v.451h-5.294v-.45c.786-.24.891-.452.891-1.274V6.095c0-.928-.105-1.167-.891-1.273v-.45h6.421c3.382 0 5.767.821 5.767 4.27 0 2.44-1.363 3.473-2.831 4.057.446.557 2.805 5.994 4.168 7.983zm-7.68-8.567c2.254 0 2.83-1.166 2.83-3.474 0-2.307-1.022-3.368-2.49-3.368h-.786c-.681 0-1.022.106-1.022.928v5.914h1.468zm15.333-7.77c3.171 0 5.976.345 5.976 3.713 0 2.307-1.468 3.235-3.276 3.58 2.018.106 3.826 1.618 3.826 4.058 0 4.058-2.7 4.986-6.657 4.986h-6.08v-.451c.785-.239.89-.451.89-1.273V6.228c0-.928-.105-1.167-.89-1.273V4.37h6.211v-.026zm-1.809 6.842h1.468c1.809 0 2.831-.69 2.831-2.89 0-2.202-.891-2.997-2.7-2.997h-.681c-.891 0-1.022.238-1.022.928v4.986h.104v-.027zm0 1.035v6.02c0 1.034.236 1.379 1.363 1.379h.577c1.809 0 2.936-1.167 2.936-3.713 0-2.44-.892-3.713-3.382-3.713h-1.494v.027zm20.104 8.46c-.105-.928-.681-2.546-1.127-3.82l-.682-2.094h-5.084c-.577 1.617-.892 2.996-1.127 3.925-.236.928-.341 1.617-.341 1.962h-2.936c.341-.583 1.127-2.095 2.254-4.853l2.936-7.4c.681-1.617.786-2.2.786-2.652 0-.344-.105-.822-.89-.928v-.45h4.612c.105.45.105 1.034.577 2.44l3.38 9.839c.682 1.962 1.364 3.58 1.705 4.163h-4.063v-.132zm-2.15-6.949l-2.149-6.604-2.254 6.604h4.404zm9.935-6.497V18.93c0 .929.235 1.167 1.127 1.273v.451h-3.827v-.45c.891-.24 1.127-.451 1.127-1.274V6.201c0-.928-.236-1.167-1.127-1.273v-.583h4.849c.34.583 1.022 1.618 2.359 3.713l4.849 6.816V6.069c0-.929-.236-1.167-1.127-1.273v-.451h3.826v.45c-.89.24-1.127.451-1.127 1.274V20.76h-1.467l-9.462-13.525zm15.228-1.14c0-.93-.105-1.168-.891-1.274v-.45h5.294v.45c-.786.239-.89.451-.89 1.273v12.73c0 .929.104 1.167.89 1.273v.451h-5.294v-.45c.786-.24.89-.452.89-1.274V6.095zm8.57 7.399c1.128 1.617 3.723 5.198 5.636 7.187h-5.426c-.34-.928-1.022-2.308-2.594-4.854l-2.36-3.713 2.15-2.784c1.232-1.618 2.935-3.925 3.276-4.986h3.722c-1.468.928-4.063 3.474-4.744 4.27l-1.704 1.856 2.045 3.024zM157 25L39 25 39 26 156.974 26 156.974 25z" transform="translate(3 5)"/>
    </g>
</svg>
