<svg xmlns="http://www.w3.org/2000/svg" width="94" height="40" viewBox="0 0 94 40">
    <g fill="#0D8BFF">
        <path d="M92.072 15.553c-.052-.508-.287-.905-.663-1.228-.479-.42-1.054-.64-1.658-.773-.383-.08-.766-.11-1.148-.17-.045.464-.081.89-.126 1.31h-.045c-1.2-.67-2.474-1.052-3.852-1.066-.317 0-.61.044-.898.183-.612.295-1.061.773-1.466 1.303-.759.992-1.304 2.103-1.797 3.235-.391.905-.693 1.847-1.208 2.7-.92 1.522-1.775 3.074-2.814 4.515-.277.374-.577.73-.899 1.067-.199.213-.537.14-.656-.125-.059-.14-.102-.309-.088-.456.044-.434.089-.875.184-1.294.222-.986.48-1.964.715-2.95.236-.985.479-1.97.692-2.963.118-.552.177-1.119.25-1.685.06-.441.104-.882.03-1.331-.14-.831-.574-1.456-1.326-1.846-.297-.149-.62-.241-.95-.272-.294-.03-.582-.045-.87.021-.58.133-1.053.464-1.48.854-.626.566-1.149 1.22-1.627 1.919-.855 1.25-1.57 2.582-2.218 3.95-.023.046-.045.092-.066.14.108-.578.236-1.153.383-1.722.235-.97.427-1.949.405-2.95-.009-.338-.103-.67-.273-.962-.331-.574-.84-.92-1.458-1.126-.48-.154-.972-.206-1.473-.213-.244 0-.487.037-.73.059-.008.044-.013.06-.013.066.05.51.038 1.023-.037 1.53-.11.713-.207 1.434-.36 2.14-.222 1.038-.48 2.067-.738 3.104-.08.323-.14.67-.287.963-.295.604-.633 1.184-.98 1.758-.684 1.133-1.428 2.229-2.35 3.185-.206.221-.438.416-.692.581-.317.205-.663.059-.707-.309-.04-.336-.027-.675.037-1.007.161-.8.346-1.595.552-2.384.494-1.867 1.017-3.729 1.51-5.596.162-.611.273-1.236.148-1.883-.088-.441-.258-.832-.56-1.17-.427-.485-.972-.757-1.59-.89-.414-.088-.833-.132-1.253-.176-.258-.021-.515-.008-.752-.008-.051.55-.088 1.08-.155 1.61-.073.611-.154 1.213-.28 1.817-.215 1.006-.446 2.009-.691 3.008-.206.853-.405 1.7-.84 2.486-.766 1.39-1.489 2.802-2.519 4.03-.251.294-.523.567-.892.714-.199.08-.398.066-.537-.11-.153-.182-.288-.376-.405-.581-.685-1.295-1.172-2.678-1.68-4.053-.03-.081 0-.096.074-.125.36-.155.729-.287 1.075-.47.884-.471 1.65-1.097 2.328-1.832.56-.61 1.053-1.265 1.414-2.015.398-.831.648-1.7.464-2.633-.088-.47-.272-.898-.663-1.192-.633-.485-1.37-.559-2.129-.448-.67.095-1.267.382-1.819.742-1.304.854-2.35 1.972-3.337 3.156l-.442.551c-.013-.03-.013-.051-.008-.066.405-1.508.825-3.008 1.223-4.516.61-2.294 1.289-4.582 1.767-6.913.103-.515.155-1.038.03-1.56-.258-1.08-.972-1.699-1.997-2.022-.463-.147-.95-.191-1.429-.236-.228-.02-.463 0-.714 0 .008.067.014.111.022.163.021.213.066.434.066.647-.008.492-.013.992-.059 1.485-.059.633-.125 1.265-.243 1.89-.197 1.076-.416 2.148-.656 3.214-.378 1.634-.771 3.265-1.179 4.891-.456 1.84-.927 3.678-1.384 5.516-.103.42-.236.817-.494 1.17-.132.176-.242.375-.36.558-.921 1.435-1.842 2.87-2.932 4.186-.243.294-.53.558-.825.808-.184.163-.494.074-.59-.146-.066-.17-.117-.36-.102-.537.02-.353.066-.714.155-1.06.286-1.132.581-2.264.898-3.39.398-1.442.825-2.868 1.216-4.31.183-.677.338-1.368.228-2.081-.081-.522-.28-.986-.649-1.361-.449-.456-1.016-.699-1.627-.817-.413-.08-.84-.117-1.26-.154-.206-.021-.42 0-.634 0-.008.066-.008.096-.013.126-.052.536-.082 1.08-.155 1.61-.103.729-.229 1.457-.354 2.184-.03.176-.051.375-.147.515-1.665 2.464-3.322 4.936-5.223 7.23-.132.162-.272.324-.42.492-.007-.028-.013-.028-.013-.036.014-.044.03-.08.044-.125.95-2.434 1.643-4.942 1.93-7.546.066-.618.088-1.243.03-1.86-.052-.545-.193-1.06-.465-1.53-.405-.714-1.03-1.089-1.834-1.177-.457-.051-.877.08-1.26.331-.677.441-1.2 1.044-1.686 1.676-.826 1.074-1.518 2.237-2.159 3.428-.013.03-.036.059-.066.103.067-.485.14-.949.2-1.412.08-.662.095-1.324-.082-1.971-.147-.559-.427-1.037-.913-1.368-.568-.383-1.215-.508-1.879-.574-.331-.037-.67-.021-1.002-.03-.176 0-.352.017-.493.022.008.456.037.889.02 1.324-.031.62-.078 1.241-.139 1.86-.08.765-.162 1.537-.273 2.295-.135.914-.285 1.826-.449 2.736-.162.934-.338 1.868-.523 2.794-.39 1.927-.84 3.832-1.392 5.715-.42 1.412-.87 2.817-1.524 4.141-.295.596-.612 1.184-1.106 1.64-.257.243-.552.42-.928.368-.213-.03-.434-.066-.656-.096.008.014.008.03.016.052.295.772.708 1.478 1.267 2.088.457.501.973.913 1.658 1.074.479.118.906.06 1.237-.33.194-.22.371-.454.53-.7.516-.83.884-1.735 1.238-2.64.707-1.816 1.275-3.685 1.856-5.545.066-.199.126-.397.184-.596.45.184.877.368 1.32.53.905.331 1.841.544 2.813.581.611.021 1.12-.206 1.569-.588.626-.54 1.24-1.095 1.841-1.663 1.135-1.059 2.203-2.177 3.153-3.398.832-1.066 1.606-2.184 2.402-3.28.102-.14.198-.287.294-.427-.044.28-.125.544-.184.81-.243 1.102-.487 2.206-.707 3.316-.103.523-.148 1.052-.214 1.582-.024.2-.042.401-.052.603-.021.44-.043.89.185 1.302.376.684.95 1.147 1.658 1.441.375.154.772.25 1.178.228.478-.021.913-.206 1.31-.47.737-.5 1.327-1.148 1.856-1.846.693-.913 1.341-1.862 2.004-2.795.155-.214.295-.442.435-.663.017.055.02.114.008.17-.147.868-.287 1.735-.301 2.618-.016.655.242 1.192.684 1.655.53.56 1.194.905 1.945 1.088.332.081.663.125 1.016.089-.021-.22-.058-.427-.058-.64-.008-.317.008-.626.03-.942.036-.492.08-.985.154-1.47.11-.743.22-1.479.368-2.214.265-1.287.567-2.575.854-3.854.052-.22.074-.471.192-.662.481-.778 1.031-1.512 1.643-2.192.552-.618 1.12-1.213 1.782-1.721.307-.232.635-.434.98-.603.272-.14.522.037.515.346-.008.257-.029.522-.08.78-.163.691-.508 1.301-.929 1.875-.538.74-1.16 1.413-1.856 2.008-.508.44-1.039.838-1.635 1.147-.236.125-.236.118-.192.375.214 1.133.471 2.251.818 3.347.361 1.132.788 2.235 1.473 3.22.353.509.766.957 1.34 1.221.583.273 1.135.258 1.673-.139.46-.353.88-.755 1.252-1.199.707-.823 1.34-1.706 1.93-2.618.176-.28.361-.56.537-.838 0 .22-.03.426-.051.632-.03.309-.081.61-.081.92 0 .353-.03.728.066 1.051.302.979.958 1.684 1.893 2.104.266.117.568.176.862.205.266.03.523-.08.767-.205.684-.353 1.251-.86 1.782-1.413.957-.977 1.76-2.08 2.49-3.235.183-.294.368-.589.544-.883-.02.25-.073.493-.11.735-.08.5-.155 1-.228 1.508-.045.301-.06.61-.088.92-.045.463.043.89.383 1.235.81.831 1.797 1.22 2.968 1.11.302-.029.309-.029.368-.323l.73-3.604c.065-.338.11-.691.235-1.007.59-1.428 1.275-2.818 1.996-4.178.7-1.316 1.422-2.626 2.284-3.847.22-.309.493-.588.758-.867.14-.155.487-.089.516.183.027.215.024.433-.008.648-.096.6-.207 1.199-.332 1.794-.25 1.207-.53 2.413-.773 3.627-.272 1.345-.523 2.698-.773 4.052-.09.493-.156.985-.126 1.486.051.78.413 1.368 1.075 1.772.398.25.84.36 1.304.412.391.044.752-.03 1.083-.258.553-.382 1.01-.868 1.437-1.376.884-1.058 1.657-2.198 2.4-3.36.207-.332.42-.662.627-.986-.052.412-.125.81-.184 1.22-.066.486-.14.972-.17 1.457-.02.405-.007.81.03 1.214.036.434.184.83.427 1.2.553.837 1.739 1.065 2.607.823.67-.192 1.201-.604 1.695-1.06.53-.485.987-1.037 1.414-1.61.87-1.17 1.613-2.427 2.298-3.714.021-.037.037-.067.081-.133.008.052.008.073.008.081-.14.567-.272 1.133-.42 1.7-.5 1.978-1.024 3.956-1.678 5.89-.501 1.47-1.017 2.935-1.74 4.317-.397.75-.817 1.494-1.465 2.067-.42.367-.884.5-1.429.346-.656-.184-1.031-.655-1.275-1.243-.302-.73-.42-1.523-.345-2.31.043-.507.169-.985.398-1.434.013-.038.03-.075.051-.11-.362-.091-.74-.099-1.105-.021-.649.132-1.2.441-1.613.964-.457.58-.56 1.243-.45 1.956.109.735.435 1.422.936 1.97.766.832 1.746 1.221 2.85 1.354.162.021.332.044.494.06h.612c.176-.022.36-.045.537-.06.752-.073 1.451-.308 2.107-.669 1.112-.618 1.922-1.53 2.615-2.574.589-.89 1.038-1.853 1.443-2.832 1.304-3.118 2.343-6.325 3.227-9.583.456-1.699.854-3.42 1.252-5.133.169-.714.273-1.45.398-2.178.036-.22.044-.44.066-.661 0-.03.021-.067.03-.096v-.427c.03 0 .013-.016.013-.044zm-65.948 3.221c-.442 2.604-1.282 5.075-2.468 7.436-.368.728-.78 1.427-1.318 2.037-.31.353-.649.684-1.09.883-.331.154-.678.124-1.024.073-.192-.03-.383-.08-.597-.125.11-.36.214-.713.317-1.059.464-1.486.921-2.971 1.4-4.45.095-.293.28-.566.434-.845.803-1.428 1.628-2.846 2.541-4.2.346-.508.693-1.008 1.142-1.427.084-.079.178-.146.28-.198.17-.081.332-.016.398.154.037.095.073.206.066.31-.008.462 0 .94-.08 1.411h-.001zM88.3 15.862c-.214 1.155-.413 2.302-.627 3.457-.017.083-.044.165-.081.242-1.097 2.221-2.305 4.383-3.727 6.42-.376.538-.766 1.06-1.252 1.501-.11.103-.25.184-.39.258-.096.051-.214.03-.266-.074-.075-.161-.137-.329-.184-.5-.021-.073-.008-.161-.016-.243.021-.963.22-1.898.464-2.817.515-1.912 1.193-3.773 2.129-5.53.383-.714.795-1.405 1.334-2.008.316-.353.654-.677 1.097-.875.302-.133.61-.104.92-.081.163.008.317.051.472.08.103.008.14.052.125.17h.002z"/>
        <path d="M15.224 25.969c.643-1.613.857-3.364.621-5.083-.089-.628-.207-1.249-.392-1.863-.347-1.122-.85-2.18-1.375-3.228-.844-1.692-1.723-3.37-2.537-5.076-.672-1.404-1.109-2.889-1.13-4.463-.009-.466 0-.923.08-1.381.126-.68.355-1.316.814-1.84.762-.872 1.752-1.13 2.847-.932 1.109.2 1.693 1.094 1.811 2.106.067.6 0 1.205-.148 1.796-.17.665-.436 1.278-.924 1.773-.162.17-.355.317-.532.48.443 1.426 1.656 2.07 3.017 1.833.813-.14 1.397-.658 1.848-1.315.48-.702.725-1.493.821-2.336.06-.546.052-1.093-.074-1.632-.23-.99-.717-1.84-1.427-2.564-1.117-1.108-2.47-1.655-4-1.832-.18-.023-.36-.043-.54-.06h-.799c-.185.022-.37.045-.555.06-1.531.133-2.942.598-4.149 1.573-1.256 1.013-2.003 2.343-2.328 3.916-.134.658-.215 1.315-.178 1.988.06 1.3.318 2.564.836 3.76.572 1.305 1.163 2.6 1.774 3.887.747 1.588 1.546 3.155 2.152 4.803.244.658.422 1.337.526 2.032.103.65.117 1.307.08 1.958-.08 1.16-.34 2.268-.968 3.273-.37.59-.843 1.071-1.501 1.337-.97.385-2.004.104-2.67-.71-.525-.642-.806-1.403-1.013-2.193-.211-.795-.291-1.618-.237-2.439.119-1.736.533-3.377 1.538-4.832.282-.406.607-.776 1.066-1.027-.23-.31-.533-.532-.858-.724-.51-.303-1.073-.458-1.664-.517-.969-.103-1.782.221-2.515.812-1.02.813-1.581 1.914-1.907 3.148-.149.547-.237 1.108-.252 1.67 0 .044-.021.089-.03.132v.798c.009.053.022.111.03.163.03.333.045.665.096.997.111.702.304 1.39.577 2.047.562 1.375 1.42 2.528 2.625 3.407 1.28.931 2.714 1.404 4.297 1.425.502.008.998-.021 1.486-.125 1.45-.296 2.706-.968 3.771-1.995.864-.854 1.541-1.878 1.99-3.007zM56.651 9.333c.17.516.513.827 1.085.834.23.008.46.045.676.104.81.206 1.62.428 2.423.642.342.089.683.214 1.048.2-.045-.142-.097-.267-.12-.392-.096-.45-.044-.908.014-1.358.052-.414.12-.82.201-1.227.156-.797.32-1.587.476-2.384.059-.31.148-.62.156-.938.021-.612-.55-1.16-1.226-1.129-.54.012-1.002.39-1.122.915-.016.074-.082.148-.149.192-.431.258-.78.59-1.018 1.027-.163.302-.32.62-.424.945-.111.361-.334.583-.669.716-.048.016-.095.036-.14.059-.38.184-.766.369-1.138.56-.155.082-.282.23-.26.422.045.273.097.553.186.811v.001zM32.703 7.096c.291.359.598.695.868 1.06.49.658.803 1.42 1.03 2.204.022.074.036.15.132.179.803.262 1.598.538 2.401.8.152.05.317.039.46-.033.142-.071.25-.197.3-.349.058-.164.095-.343.11-.522.029-.284.013-.56-.153-.822-.293-.448-.549-.918-.812-1.39-.028-.051-.013-.126-.008-.193.008-.15.067-.314.021-.448-.124-.374-.285-.732-.43-1.12.328-.203.547-.509.65-.897.043-.156.072-.32.094-.477.058-.434.008-.86-.102-1.277-.016-.053-.088-.09-.132-.127-.036.052-.102.096-.117.148-.051.314-.16.591-.409.785-.474.358-1.022.463-1.591.344-.365-.075-.716-.172-1.096-.165-.452 0-.89.075-1.277.336-.548.359-.68.882-.322 1.464.11.18.248.336.38.5h.003z"/>
    </g>
</svg>
