<svg xmlns="http://www.w3.org/2000/svg" width="106" height="40" viewBox="0 0 106 40">
    <path fill="#141414" d="M0 14.151v5.733l15.464-1.701v-6.205L0 14.151m4.935 6.082v19.643h5.662V19.654l-5.662.579m12.618-8.548v28.191h5.966v-29.03l-5.966.839m7.077-.995v6.485l8.615-.948V9.48l-8.615 1.21m0 11.313v6.603l5.655-.308v-6.782l-5.655.487m0 11.363v6.511h8.615v-6.771l-8.615.26M55.523 6.338v33.538h7.821V5.24l-7.82 1.1m9.28-1.305v7.714l11.398-1.253V3.431L64.805 5.034m0 13.516v7.857l7.47-.408V17.91l-7.47.64m0 13.6v7.726h11.397v-8.07l-11.397.345M35.525 9.158v30.718h6.795V8.203l-6.796.955m8.064 23.635v7.083h9.865v-7.38l-9.865.297m58.166-29.74C99.282.716 95.658-.242 91.694.328v8.556c1.605-.09 2.906.506 3.486 1.706.915 1.89-.03 4.728-2.257 7.357-3.437 4.056-12.578 12.36-12.578 12.36l13.122-.432c8.018-7.834 10.898-12.588 11.414-18.523.272-3.14-.868-6.164-3.127-8.3m3.59 36.823v-8.953l-26.617.802m0 0l.003 8.151h26.614M90.164.521c-7.732 1.646-11.53 7.335-11.091 16.617l8.244-.732c-.375-5.244 1.229-6.488 2.85-7.171L90.165.52"/>
</svg>
