<svg xmlns="http://www.w3.org/2000/svg" width="131" height="40" viewBox="0 0 131 40">
    <g fill="none">
        <path fill="#FFDD2D" d="M0 0H129.745V39.386H0z"/>
        <path fill="#000" d="M18.807 16.6L13.103 16.6 13.103 13.103 28.628 13.103 28.628 16.6 22.945 16.6 22.945 26.207 18.807 26.207zM30.09 26.207L30.09 13.103 34.228 13.103 34.228 26.207zM47.683 20.297L47.683 13.103 51.49 13.103 51.49 26.207 47.959 26.207 40.869 18.972 40.869 26.207 37.062 26.207 37.062 13.103 40.759 13.103zM58.379 26.207L54.379 26.207 54.379 13.103 58.379 13.103 58.379 18.034 59.483 18.034 64.31 13.103 69.331 13.103 62.931 19.386 69.579 26.207 64.255 26.207 59.483 21.241 58.379 21.241z"/>
        <path fill="#000" d="M86.483 19.69c0 3.917-3.228 6.951-8.573 6.951-5.344 0-8.607-3.034-8.607-6.951 0-3.918 3.228-6.945 8.628-6.945s8.552 3.034 8.552 6.945zm-4.193 0c0-2.152-1.731-3.718-4.38-3.718-2.648 0-4.386 1.566-4.386 3.718 0 2.151 1.71 3.758 4.407 3.758s4.359-1.607 4.359-3.758zM92.414 16.434L92.414 18.807 101.241 18.807 101.241 21.566 92.414 21.566 92.414 26.207 88.414 26.207 88.414 13.103 101.572 13.103 101.572 16.434zM107.455 16.434L107.455 18.807 116.283 18.807 116.283 21.566 107.455 21.566 107.455 26.207 103.448 26.207 103.448 13.103 116.6 13.103 116.6 16.434z"/>
    </g>
</svg>
