<svg xmlns="http://www.w3.org/2000/svg" width="50" height="50" viewBox="0 0 50 50">
    <g fill="none" fill-rule="evenodd">
        <path fill="#000" d="M0 0H50V50H0z"/>
        <path fill="#FFF" fill-rule="nonzero" d="M25 24c1.657 0 3 1.343 3 3s-1.343 3-3 3-3-1.343-3-3 1.343-3 3-3zm6.292-19.414c.78 0 1.42.595 1.493 1.356l.007.144v1.25c0 3.764-2.685 6.9-6.244 7.599v4.601c3.449.709 6.061 3.71 6.174 7.34l.004.246v1.25c0 .828-.671 1.5-1.5 1.5-.78 0-1.42-.596-1.493-1.356l-.007-.145v-1.25c0-2.62-2.124-4.743-4.744-4.743-2.547 0-4.625 2.007-4.738 4.526l-.005.218v1.25c0 .828-.672 1.5-1.5 1.5-.78 0-1.42-.596-1.493-1.356l-.007-.145v-1.25c0-3.786 2.718-6.938 6.31-7.61l-.001-4.576c-3.481-.684-6.126-3.7-6.24-7.353l-.004-.246v-1.25c0-.828.672-1.5 1.5-1.5.78 0 1.42.595 1.493 1.356l.007.144v1.25c0 2.62 2.124 4.744 4.744 4.744 2.547 0 4.625-2.008 4.739-4.527l.005-.217v-1.25c0-.828.671-1.5 1.5-1.5zM21.739 36.336c2.099 0 3.75 1.927 3.75 4.25 0 2.324-1.651 4.25-3.75 4.25-2.1 0-3.75-1.926-3.75-4.25 0-2.323 1.65-4.25 3.75-4.25zm14.043.506l.05.102 2.84 6.855c.159.383-.023.822-.405.98-.351.146-.75.005-.935-.314l-.045-.092-.604-1.455h-3.182l-.574 1.332c-.15.349-.533.525-.89.426l-.095-.034c-.349-.15-.525-.534-.426-.89l.034-.096 2.901-6.722c.247-.573 1.028-.601 1.33-.092zm-18.885-.259c.327.192.456.594.314.935l-.046.091-2.343 4.004v2.34c0 .414-.335.75-.75.75-.379 0-.693-.282-.742-.648l-.007-.102v-2.407l-2.34-3.932c-.212-.356-.095-.816.26-1.028.327-.194.741-.112.971.177l.058.084 1.815 3.053 1.784-3.048c.209-.357.668-.478 1.026-.269zm14.842-.102c.414 0 .75.335.75.75 0 .38-.282.693-.648.743l-.102.007h-1.75v5.972c0 .414-.336.75-.75.75-.38 0-.694-.282-.743-.648l-.007-.102V37.98h-1.833c-.415 0-.75-.335-.75-.75 0-.379.282-.693.648-.742l.102-.007h5.083zm-10 1.355c-1.215 0-2.25 1.208-2.25 2.75 0 1.543 1.035 2.75 2.25 2.75s2.25-1.207 2.25-2.75c0-1.542-1.035-2.75-2.25-2.75zm13.386 1.32l-.976 2.262h1.913l-.937-2.262z"/>
    </g>
</svg>
