<svg xmlns="http://www.w3.org/2000/svg" xmlns:xlink="http://www.w3.org/1999/xlink" width="72" height="72" viewBox="0 0 72 72">
  <defs>
    <rect id="prefix__a" width="72" height="72" x="0" y="0" rx="36"/>
  </defs>
  <g fill="none" fill-rule="evenodd">
    <mask id="prefix__b" fill="#fff">
      <use xlink:href="#prefix__a"/>
    </mask>
    <use fill="#003F4F" xlink:href="#prefix__a"/>
    <g fill-rule="nonzero" mask="url(#prefix__b)">
      <g>
        <path fill="#FFF" d="M14.783 16.5V11.58l3.893 4.921h3.538l-4.229-5.349 4.23-5.335h-3.54l-3.892 5.029V.204h-3.166V16.5h3.166zm11.303 0V5.704H23.03V16.5h3.057zm4.892 0V0h-3.261v16.5h3.26zm4.28 0V0h-3.261v16.5h3.26zm5.873.204c1.237 0 2.218-.491 2.943-1.473v1.15h3.412V6.027h-3.412v1.03c-.787-.902-1.78-1.353-2.98-1.353-.713 0-1.362.144-1.95.434-.587.29-1.093.683-1.518 1.18-.425.498-.756 1.08-.993 1.746-.238.666-.356 1.37-.356 2.11 0 .794.121 1.527.365 2.2.244.672.584 1.258 1.022 1.756.437.498.95.884 1.537 1.16.587.276 1.23.414 1.93.414zm.648-3.26c-.29 0-.56-.054-.81-.165-.25-.11-.464-.263-.644-.459-.18-.195-.323-.425-.427-.688-.105-.263-.157-.548-.157-.854 0-.294.052-.566.157-.817.104-.25.247-.474.427-.67.18-.196.394-.349.644-.459.25-.11.52-.165.81-.165.279 0 .543.055.793.165.25.11.464.263.644.46.18.195.325.424.436.688.11.263.165.541.165.835 0 .294-.055.57-.165.826-.11.257-.256.484-.436.68-.18.195-.395.348-.644.458-.25.11-.514.166-.793.166zM6.06 0c1.638 0 2.957.494 3.957 1.482l-1.557 2c-.742-.572-1.693-.809-2.853-.711-1.74.146-2.33 2.07-.604 3.245 1.725 1.175 5.512 1.84 5.512 6.05-.286 3.374-3.177 4.63-5.412 4.63C3.3 16.79 1.598 16.02 0 14.39l2.117-2.619c.651 1.286 1.646 1.93 2.985 1.93 2.01 0 3.357-2.291.72-3.668C3.187 8.656.606 7.257.778 4.296.95 1.336 3.603 0 6.06 0zm55.285 5.704l-4.496 7.618h4.046V16.5h-9.74l4.533-7.618h-3.915V5.704h9.572z" transform="translate(5.472 26.496)"/>
        <path fill="#FF6D00" d="M24.624 4.608c.257 0 .499-.049.725-.147.226-.098.425-.232.596-.404.172-.17.306-.37.404-.596.098-.226.147-.468.147-.725 0-.257-.049-.499-.147-.725-.098-.226-.232-.425-.404-.596-.17-.172-.37-.306-.596-.404-.226-.098-.468-.147-.725-.147-.257 0-.499.049-.725.147-.226.098-.425.232-.596.404-.172.17-.306.37-.404.596-.098.226-.147.468-.147.725 0 .257.049.499.147.725.098.226.232.425.404.596.17.172.37.306.596.404.226.098.468.147.725.147zM49.968 13.536c.257 0 .499-.049.725-.147.226-.098.425-.232.596-.404.172-.17.306-.37.404-.596.098-.226.147-.468.147-.725 0-.257-.049-.499-.147-.725-.098-.226-.232-.425-.404-.596-.17-.172-.37-.306-.596-.404-.226-.098-.468-.147-.725-.147-.257 0-.499.049-.725.147-.226.098-.425.232-.596.404-.172.17-.306.37-.404.596-.098.226-.147.468-.147.725 0 .257.049.499.147.725.098.226.232.425.404.596.17.172.37.306.596.404.226.098.468.147.725.147z" transform="translate(5.472 26.496)"/>
      </g>
    </g>
  </g>
</svg>
