<svg xmlns="http://www.w3.org/2000/svg" xmlns:xlink="http://www.w3.org/1999/xlink" width="1440" height="460" viewBox="0 0 1440 460">
  <defs>
    <linearGradient id="prefix__b" x1="50%" x2="50%" y1="2.089%" y2="100%">
      <stop offset="0%" stop-color="#333540"/>
      <stop offset="100%" stop-color="#1D1D22"/>
    </linearGradient>
    <path id="prefix__a" d="M0 0H1440V460H0z"/>
  </defs>
  <g fill="none" fill-rule="evenodd">
    <mask id="prefix__c" fill="#fff">
      <use xlink:href="#prefix__a"/>
    </mask>
    <use fill="#FFB400" xlink:href="#prefix__a"/>
    <path fill="url(#prefix__b)" fill-rule="nonzero" d="M0 0H1440V460H0z" mask="url(#prefix__c)"/>
    <g mask="url(#prefix__c)">
      <g>
        <g>
          <path fill="#FFA400" d="M52.716 246L0 215.889 0 154.43 52.716 122.823 52.716 61.363 159.284 0 212 30.111 212 91.474 159.283 121.828 159.284 184.186 52.716 245.549z" transform="translate(189 -209) rotate(120 131.544 481.459)"/>
          <path fill="#FFCB00" d="M53 61.716L105.953 92 213 30.284 160.047 0z" transform="translate(189 -209) rotate(120 131.544 481.459)"/>
          <path fill="#FF7800" d="M213 30L213 91.523 160.046 121.957 160.047 184.477 53 246 53 184.477 105.953 153.143 105.985 153.027 105.953 153.046 105.953 91.523z" transform="translate(189 -209) rotate(120 131.544 481.459)"/>
          <path fill="#FFA400" d="M53 61L106 91.252 106 153 53 122.748z" transform="translate(189 -209) rotate(120 131.544 481.459)"/>
          <path fill="#FFCB00" d="M0 154.752L53 185 106 153.248 53 123z" transform="translate(189 -209) rotate(120 131.544 481.459)"/>
          <path fill="#FFA400" d="M0 154L53 184.252 53 246 0 215.748z" transform="translate(189 -209) rotate(120 131.544 481.459)"/>
        </g>
        <g>
          <path fill="#FFA400" d="M52.716 246L0 215.889 0 154.43 52.716 122.823 52.716 61.363 159.284 0 212 30.111 212 91.474 159.283 121.828 159.284 184.186 52.716 245.549z" transform="translate(189 -209) rotate(120 309.551 260.898)"/>
          <path fill="#FFCB00" d="M53 61.716L105.953 92 213 30.284 160.047 0z" transform="translate(189 -209) rotate(120 309.551 260.898)"/>
          <path fill="#FF7800" d="M213 30L213 91.523 160.046 121.957 160.047 184.477 53 246 53 184.477 105.953 153.143 105.985 153.027 105.953 153.046 105.953 91.523z" transform="translate(189 -209) rotate(120 309.551 260.898)"/>
        </g>
        <g>
          <path fill="#FFA400" d="M52.716 246L0 215.889 0 154.43 52.716 122.823 52.716 61.363 159.284 0 212 30.111 212 91.474 159.283 121.828 159.284 184.186 52.716 245.549z" transform="translate(189 -209) rotate(120 452.787 386.929)"/>
          <path fill="#FFCB00" d="M53 61.716L105.953 92 213 30.284 160.047 0z" transform="translate(189 -209) rotate(120 452.787 386.929)"/>
          <path fill="#FF7800" d="M213 30L213 91.523 160.046 121.957 160.047 184.477 53 246 53 184.477 105.953 153.143 105.985 153.027 105.953 153.046 105.953 91.523z" transform="translate(189 -209) rotate(120 452.787 386.929)"/>
          <path fill="#FFA400" d="M53 61L106 91.252 106 153 53 122.748z" transform="translate(189 -209) rotate(120 452.787 386.929)"/>
          <path fill="#FFCB00" d="M0 154.752L53 185 106 153.248 53 123z" transform="translate(189 -209) rotate(120 452.787 386.929)"/>
        </g>
        <g>
          <path fill="#FFA400" d="M52.716 246L0 215.889 0 154.43 52.716 122.823 52.716 61.363 159.284 0 212 30.111 212 91.474 159.283 121.828 159.284 184.186 52.716 245.549z" transform="translate(189 -209) translate(561 267)"/>
          <path fill="#FFA400" d="M53 61.716L105.953 92 213 30.284 160.047 0z" transform="translate(189 -209) translate(561 267)"/>
          <path fill="#FFCB00" d="M213 30L213 91.523 160.046 121.957 160.047 184.477 53 246 53 184.477 105.953 153.143 105.985 153.027 105.953 153.046 105.953 91.523z" transform="translate(189 -209) translate(561 267)"/>
          <path fill="#FF7800" d="M53 61L106 91.252 106 153 53 122.748z" transform="translate(189 -209) translate(561 267)"/>
          <path fill="#FFA300" d="M0 154.752L53 185 106 153.248 53 123z" transform="translate(189 -209) translate(561 267)"/>
          <path fill="#FF7800" d="M0 154L53 184.252 53 246 0 215.748z" transform="translate(189 -209) translate(561 267)"/>
        </g>
        <g>
          <path fill="#FFA400" d="M52.716 246L0 215.889 0 154.43 52.716 122.823 52.716 61.363 159.284 0 212 30.111 212 91.474 159.283 121.828 159.284 184.186 52.716 245.549z" transform="translate(189 -209) translate(0 574)"/>
          <path fill="#FFA400" d="M53 61.716L105.953 92 213 30.284 160.047 0z" transform="translate(189 -209) translate(0 574)"/>
          <path fill="#FFCB00" d="M213 30L213 91.523 160.046 121.957 160.047 184.477 53 246 53 184.477 105.953 153.143 105.985 153.027 105.953 153.046 105.953 91.523z" transform="translate(189 -209) translate(0 574)"/>
          <path fill="#FF7800" d="M53 61L106 91.252 106 153 53 122.748z" transform="translate(189 -209) translate(0 574)"/>
        </g>
        <g>
          <path fill="#FFA400" d="M52.716 246L0 215.889 0 154.43 52.716 122.823 52.716 61.363 159.284 0 212 30.111 212 91.474 159.283 121.828 159.284 184.186 52.716 245.549z" transform="translate(189 -209) translate(935 233)"/>
          <path fill="#FFA400" d="M53 61.716L105.953 92 213 30.284 160.047 0z" transform="translate(189 -209) translate(935 233)"/>
          <path fill="#FFCB00" d="M213 30L213 91.523 160.046 121.957 160.047 184.477 53 246 53 184.477 105.953 153.143 105.985 153.027 105.953 153.046 105.953 91.523z" transform="translate(189 -209) translate(935 233)"/>
          <path fill="#FF7800" d="M53 61L106 91.252 106 153 53 122.748z" transform="translate(189 -209) translate(935 233)"/>
          <path fill="#FFA300" d="M0 154.752L53 185 106 153.248 53 123z" transform="translate(189 -209) translate(935 233)"/>
          <path fill="#FF7800" d="M0 154L53 184.252 53 246 0 215.748z" transform="translate(189 -209) translate(935 233)"/>
        </g>
        <g>
          <path fill="#FFA400" d="M52.716 246L0 215.889 0 154.43 52.716 122.823 52.716 61.363 159.284 0 212 30.111 212 91.474 159.283 121.828 159.284 184.186 52.716 245.549z" transform="translate(189 -209) translate(561 574)"/>
          <path fill="#FFA400" d="M53 61.716L105.953 92 213 30.284 160.047 0z" transform="translate(189 -209) translate(561 574)"/>
          <path fill="#FFCB00" d="M213 30L213 91.523 160.046 121.957 160.047 184.477 53 246 53 184.477 105.953 153.143 105.985 153.027 105.953 153.046 105.953 91.523z" transform="translate(189 -209) translate(561 574)"/>
          <path fill="#FF7800" d="M53 61L106 91.252 106 153 53 122.748z" transform="translate(189 -209) translate(561 574)"/>
        </g>
        <g>
          <path fill="#FFA400" d="M52.716 246L0 215.889 0 154.43 52.716 122.823 52.716 61.363 159.284 0 212 30.111 212 91.474 159.283 121.828 159.284 184.186 52.716 245.549z" transform="translate(189 -209) translate(935 540)"/>
          <path fill="#FFA400" d="M53 61.716L105.953 92 213 30.284 160.047 0z" transform="translate(189 -209) translate(935 540)"/>
          <path fill="#FFCB00" d="M213 30L213 91.523 160.046 121.957 160.047 184.477 53 246 53 184.477 105.953 153.143 105.985 153.027 105.953 153.046 105.953 91.523z" transform="translate(189 -209) translate(935 540)"/>
          <path fill="#FF7800" d="M53 61L106 91.252 106 153 53 122.748z" transform="translate(189 -209) translate(935 540)"/>
          <path fill="#FFA300" d="M0 154.752L53 185 106 153.248 53 123z" transform="translate(189 -209) translate(935 540)"/>
        </g>
        <g>
          <path fill="#FFA400" d="M52.716 246L0 215.889 0 154.43 52.716 122.823 52.716 61.363 159.284 0 212 30.111 212 91.474 159.283 121.828 159.284 184.186 52.716 245.549z" transform="translate(189 -209) rotate(120 176.251 219.27)"/>
          <path fill="#FFCB00" d="M53 61.716L105.953 92 213 30.284 160.047 0z" transform="translate(189 -209) rotate(120 176.251 219.27)"/>
          <path fill="#FF7800" d="M213 30L213 91.523 160.046 121.957 160.047 184.477 53 246 53 184.477 105.953 153.143 105.985 153.027 105.953 153.046 105.953 91.523z" transform="translate(189 -209) rotate(120 176.251 219.27)"/>
          <path fill="#FFA400" d="M53 61L106 91.252 106 153 53 122.748z" transform="translate(189 -209) rotate(120 176.251 219.27)"/>
        </g>
        <g>
          <path fill="#FFA400" d="M52.716 246L0 215.889 0 154.43 52.716 122.823 52.716 61.363 159.284 0 212 30.111 212 91.474 159.283 121.828 159.284 184.186 52.716 245.549z" transform="translate(189 -209) rotate(120 364.375 541.218)"/>
          <path fill="#FFCB00" d="M53 61.716L105.953 92 213 30.284 160.047 0z" transform="translate(189 -209) rotate(120 364.375 541.218)"/>
          <path fill="#FF7800" d="M213 30L213 91.523 160.046 121.957 160.047 184.477 53 246 53 184.477 105.953 153.143 105.985 153.027 105.953 153.046 105.953 91.523z" transform="translate(189 -209) rotate(120 364.375 541.218)"/>
          <path fill="#FFA400" d="M53 61L106 91.252 106 153 53 122.748z" transform="translate(189 -209) rotate(120 364.375 541.218)"/>
          <path fill="#FFCB00" d="M0 154.752L53 185 106 153.248 53 123z" transform="translate(189 -209) rotate(120 364.375 541.218)"/>
          <path fill="#FFA400" d="M0 154L53 184.252 53 246 0 215.748z" transform="translate(189 -209) rotate(120 364.375 541.218)"/>
        </g>
        <g>
          <path fill="#FFA400" d="M52.716 246L0 215.889 0 154.43 52.716 122.823 52.716 61.363 159.284 0 212 30.111 212 91.474 159.283 121.828 159.284 184.186 52.716 245.549z" transform="translate(189 -209) rotate(120 561.19 632.182)"/>
          <path fill="#FFCB00" d="M53 61.716L105.953 92 213 30.284 160.047 0z" transform="translate(189 -209) rotate(120 561.19 632.182)"/>
          <path fill="#FF7800" d="M213 30L213 91.523 160.046 121.957 160.047 184.477 53 246 53 184.477 105.953 153.143 105.985 153.027 105.953 153.046 105.953 91.523z" transform="translate(189 -209) rotate(120 561.19 632.182)"/>
          <path fill="#FFA400" d="M53 61L106 91.252 106 153 53 122.748z" transform="translate(189 -209) rotate(120 561.19 632.182)"/>
          <path fill="#FFCB00" d="M0 154.752L53 185 106 153.248 53 123z" transform="translate(189 -209) rotate(120 561.19 632.182)"/>
          <path fill="#FFA400" d="M0 154L53 184.252 53 246 0 215.748z" transform="translate(189 -209) rotate(120 561.19 632.182)"/>
        </g>
        <g>
          <path fill="#FFA400" d="M52.716 246L0 215.889 0 154.43 52.716 122.823 52.716 61.363 159.284 0 212 30.111 212 91.474 159.283 121.828 159.284 184.186 52.716 245.549z" transform="translate(189 -209) rotate(120 650.102 478.182)"/>
          <path fill="#FFCB00" d="M53 61.716L105.953 92 213 30.284 160.047 0z" transform="translate(189 -209) rotate(120 650.102 478.182)"/>
          <path fill="#FF7800" d="M213 30L213 91.523 160.046 121.957 160.047 184.477 53 246 53 184.477 105.953 153.143 105.985 153.027 105.953 153.046 105.953 91.523z" transform="translate(189 -209) rotate(120 650.102 478.182)"/>
          <path fill="#FFA400" d="M53 61L106 91.252 106 153 53 122.748z" transform="translate(189 -209) rotate(120 650.102 478.182)"/>
        </g>
      </g>
    </g>
  </g>
</svg>
