<svg xmlns="http://www.w3.org/2000/svg" width="368" height="368" viewBox="0 0 368 368">
  <g fill="none" fill-rule="evenodd">
    <path fill="#003F4F" d="M0 0H368V368H0z"/>
    <g fill-rule="nonzero">
      <path fill="#FFF" d="M72.535 81V56.841L91.636 81H109L88.25 54.742 109 28.551H91.636L72.535 53.236V1H57v80h15.535zM128 81V28h-15v53h15zm24 0V0h-16v81h16zm21 0V0h-16v81h16zm28.821 1c6.07 0 10.884-2.411 14.44-7.233v5.648H233v-50.83h-16.74v5.054C212.399 30.213 207.524 28 201.638 28c-3.495 0-6.683.71-9.565 2.13-2.882 1.42-5.365 3.353-7.45 5.797-2.085 2.444-3.71 5.3-4.875 8.57-1.165 3.27-1.747 6.721-1.747 10.354 0 3.898.598 7.498 1.793 10.8 1.196 3.303 2.867 6.177 5.013 8.62 2.146 2.445 4.66 4.344 7.542 5.698 2.882 1.354 6.04 2.031 9.473 2.031zM205 66c-1.425 0-2.75-.27-3.974-.811-1.225-.54-2.28-1.292-3.163-2.253-.883-.962-1.58-2.088-2.094-3.38-.513-1.292-.769-2.689-.769-4.191 0-1.442.256-2.78.77-4.01.512-1.233 1.21-2.33 2.093-3.29.883-.962 1.938-1.713 3.163-2.254 1.225-.54 2.55-.811 3.974-.811 1.368 0 2.664.27 3.889.811 1.225.54 2.28 1.292 3.162 2.253.883.962 1.596 2.088 2.137 3.38.541 1.292.812 2.659.812 4.101 0 1.442-.27 2.794-.812 4.056-.541 1.262-1.254 2.373-2.137 3.335-.883.961-1.937 1.712-3.162 2.253-1.225.54-2.521.811-3.889.811zM29.73 0c8.035 0 14.507 2.425 19.417 7.274l-7.64 9.82c-3.64-2.807-8.307-3.97-14-3.491-8.539.719-11.434 10.158-2.966 15.927 8.468 5.77 27.047 9.039 27.047 29.701C50.185 75.796 36 81.964 25.036 81.964 16.186 82.416 7.84 78.642 0 70.64l10.389-12.854c3.193 6.313 8.075 9.47 14.647 9.47 9.858 0 16.472-11.246 3.534-18.004l-.776-.406C15.13 42.216 2.984 35.333 3.814 21.09 4.66 6.56 17.678 0 29.73 0zM301 28l-22.059 37.4h19.853V81H251l22.243-37.4h-19.21V28H301z" transform="translate(34 145)"/>
      <path fill="#FF6D00" d="M120.5 22c1.167 0 2.264-.222 3.292-.667 1.027-.444 1.93-1.055 2.708-1.833.778-.778 1.389-1.68 1.833-2.708.445-1.028.667-2.125.667-3.292 0-1.167-.222-2.264-.667-3.292-.444-1.027-1.055-1.93-1.833-2.708-.778-.778-1.68-1.389-2.708-1.833C122.764 5.222 121.667 5 120.5 5c-1.167 0-2.264.222-3.292.667-1.027.444-1.93 1.055-2.708 1.833-.778.778-1.389 1.68-1.833 2.708-.445 1.028-.667 2.125-.667 3.292 0 1.167.222 2.264.667 3.292.444 1.027 1.055 1.93 1.833 2.708.778.778 1.68 1.389 2.708 1.833 1.028.445 2.125.667 3.292.667zM244.5 64c1.167 0 2.264-.222 3.292-.667 1.027-.444 1.93-1.055 2.708-1.833.778-.778 1.389-1.68 1.833-2.708.445-1.028.667-2.125.667-3.292 0-1.167-.222-2.264-.667-3.292-.444-1.027-1.055-1.93-1.833-2.708-.778-.778-1.68-1.389-2.708-1.833-1.028-.445-2.125-.667-3.292-.667-1.167 0-2.264.222-3.292.667-1.027.444-1.93 1.055-2.708 1.833-.778.778-1.389 1.68-1.833 2.708-.445 1.028-.667 2.125-.667 3.292 0 1.167.222 2.264.667 3.292.444 1.027 1.055 1.93 1.833 2.708.778.778 1.68 1.389 2.708 1.833 1.028.445 2.125.667 3.292.667z" transform="translate(34 145)"/>
    </g>
  </g>
</svg>
