<svg version="1" xmlns="http://www.w3.org/2000/svg" width="346.667" height="346.667" viewBox="0 0 260.000000 260.000000"><path d="M115.6 1C85.2 4.8 59.7 17.2 38.5 38.5 19.9 57.1 8.4 78.3 2.9 104.3c-3.1 14.4-3.1 37 0 51.4 5.5 26 17 47.2 35.6 65.8 18.6 18.6 39.8 30.1 65.8 35.6 14.4 3.1 37 3.1 51.4 0 26-5.5 47.2-17 65.8-35.6 14.1-14 24.3-30 30.9-48.3 9.5-26.4 9.5-60 0-86.4-11.3-31.4-35.2-58.3-64.9-73.1-21-10.4-49.7-15.5-71.9-12.7zm30.8 65.5c29.8 6.3 49.4 32.7 48.4 65l-.3 9-46.2.3c-51.6.2-48.1-.3-44.3 7.2 2.9 5.7 8.5 10.9 14.9 13.8 4.4 2 7.6 2.7 14.9 3 11.9.6 20-1.5 27.9-7l5.8-4.1 9.2 9.9c5.1 5.5 9.3 10.4 9.3 11.1 0 2.1-9.4 9.3-17.5 13.4-11 5.4-21.4 7.3-37 6.6-14.3-.6-21.2-2.3-32.2-7.8-13.6-6.8-24.3-18.1-29.7-31.6-7.5-18.4-5.6-43.1 4.5-59.9 6.1-10.1 18.1-20.5 28.6-25 12.4-5.2 30-6.8 43.7-3.9z"/><path d="M120.2 94.8c-2.9 1.1-6.9 3.2-8.9 4.8-4 3.3-8.7 11.1-9.8 16.1l-.7 3.3h30.1c18.6 0 30.1-.4 30.1-1 0-.5-.9-3.4-2-6.4-2.5-6.6-8.5-13.1-14.8-15.9-6.6-2.9-17.2-3.3-24-.9z"/></svg>