<svg xmlns="http://www.w3.org/2000/svg" xmlns:xlink="http://www.w3.org/1999/xlink" width="1440" height="460" viewBox="0 0 1440 460">
    <defs>
        <linearGradient id="b" x1="0%" x2="99.076%" y1="50%" y2="50%">
            <stop offset="0%" stop-color="#42B45D"/>
            <stop offset="100%" stop-color="#42B45D"/>
        </linearGradient>
        <path id="a" d="M0 0h1440v460H0z"/>
        <path id="d" d="M0 0h1440v460H0z"/>
        <path id="f" d="M0 0h209v157H0z"/>
        <path id="h" d="M0 0h209v157H0z"/>
        <path id="i" d="M0 0h165.69v101.788H0z"/>
        <path id="k" d="M0 0h165.69v101.788H0z"/>
        <path id="m" d="M0 0h165.69v101.788H0z"/>
        <path id="o" d="M0 0h125v222H0z"/>
        <path id="q" d="M0 .66h28.288V39H0z"/>
        <path id="s" d="M0 .659h14.145V39H0z"/>
        <path id="u" d="M0 .37h58.527V80H0z"/>
        <path id="w" d="M0 .369h29.232V80H0z"/>
    </defs>
    <g fill="none" fill-rule="evenodd">
        <mask id="c" fill="#fff">
            <use xlink:href="#a"/>
        </mask>
        <use fill="url(#b)" xlink:href="#a"/>
        <g mask="url(#c)">
            <g transform="translate(0 1)">
                <mask id="e" fill="#fff">
                    <use xlink:href="#d"/>
                </mask>
                <g stroke-dasharray="18.909,21.894" stroke-linecap="round" mask="url(#e)" opacity=".3">
                    <path stroke="#D4D4CC" stroke-width="6" d="M1439 452C820.135 3.267 608.612 316.484 1 1"/>
                </g>
                <g mask="url(#e)" opacity=".5">
                    <g transform="translate(1220 196)">
                        <mask id="g" fill="#fff">
                            <use xlink:href="#f"/>
                        </mask>
                        <path fill="#E6E6E6" d="M55.577 0h97.846C184.118 0 209 24.805 209 55.403c0 26.905-19.245 49.313-44.76 54.334V157l-32.223-46.196h-76.44C24.882 110.804 0 85.998 0 55.403 0 24.805 24.882 0 55.577 0" mask="url(#g)"/>
                    </g>
                </g>
                <g mask="url(#e)">
                    <g transform="translate(1326 7)">
                        <mask id="j" fill="#fff">
                            <use xlink:href="#i"/>
                        </mask>
                        <path fill="#FFF" d="M0 70.404c.291-1.3.55-2.61.877-3.903C3.876 54.668 12.988 46.48 25.06 44.844c1.376-.187 2.077-.628 2.558-2.055 4.79-14.196 17.656-23.62 32.705-23.635 2.759-.002 4.074-.879 5.67-2.883C75.956 3.761 88.974-1.784 104.871.504c17.026 2.451 29.877 14.442 34.068 31.198.233.928.614 1.371 1.583 1.696 14.247 4.773 22.655 14.511 24.859 29.465.068.47.204.93.309 1.393v5.177c-.774 3.231-1.269 6.56-2.369 9.675-4.517 12.796-17.165 22.008-30.734 22.614-.646.028-1.293.051-1.94.051-34.022.002-68.045.042-102.068-.019-12.916-.023-24.138-8.648-27.437-20.844C.695 79.26.378 77.575 0 75.906v-5.502z" mask="url(#j)" opacity=".4"/>
                    </g>
                </g>
                <g mask="url(#e)">
                    <g transform="translate(-69 47)">
                        <mask id="l" fill="#fff">
                            <use xlink:href="#k"/>
                        </mask>
                        <path fill="#FFF" d="M0 70.404c.291-1.3.55-2.61.877-3.903C3.876 54.668 12.988 46.48 25.06 44.844c1.376-.187 2.077-.628 2.558-2.055 4.79-14.196 17.656-23.62 32.705-23.635 2.759-.002 4.074-.879 5.67-2.883C75.956 3.761 88.974-1.784 104.871.504c17.026 2.451 29.877 14.442 34.068 31.198.233.928.614 1.371 1.583 1.696 14.247 4.773 22.655 14.511 24.859 29.465.068.47.204.93.309 1.393v5.177c-.774 3.231-1.269 6.56-2.369 9.675-4.517 12.796-17.165 22.008-30.734 22.614-.646.028-1.293.051-1.94.051-34.022.002-68.045.042-102.068-.019-12.916-.023-24.138-8.648-27.437-20.844C.695 79.26.378 77.575 0 75.906v-5.502z" mask="url(#l)" opacity=".7"/>
                    </g>
                </g>
                <g mask="url(#e)" opacity=".3">
                    <g transform="translate(541 292)">
                        <mask id="n" fill="#fff">
                            <use xlink:href="#m"/>
                        </mask>
                        <path fill="#FFF" d="M0 70.404c.291-1.3.55-2.61.877-3.903C3.876 54.668 12.988 46.48 25.06 44.844c1.376-.187 2.077-.628 2.558-2.055 4.79-14.196 17.656-23.62 32.705-23.635 2.759-.002 4.074-.879 5.67-2.883C75.956 3.761 88.974-1.784 104.871.504c17.026 2.451 29.877 14.442 34.068 31.198.233.928.614 1.371 1.583 1.696 14.247 4.773 22.655 14.511 24.859 29.465.068.47.204.93.309 1.393v5.177c-.774 3.231-1.269 6.56-2.369 9.675-4.517 12.796-17.165 22.008-30.734 22.614-.646.028-1.293.051-1.94.051-34.022.002-68.045.042-102.068-.019-12.916-.023-24.138-8.648-27.437-20.844C.695 79.26.378 77.575 0 75.906v-5.502z" mask="url(#n)" opacity=".7"/>
                    </g>
                </g>
                <g mask="url(#e)" opacity=".8">
                    <path fill="#FEFEFE" d="M107.96 513.87l93.093-60.454-83.33-128.317-93.092 60.455z"/>
                    <g transform="rotate(-33 607.54 180.517)">
                        <mask id="p" fill="#fff">
                            <use xlink:href="#o"/>
                        </mask>
                        <path fill="#409A45" d="M6.944 187.313h111.112V34.688H6.944v152.625zm55.556 27.75c-5.742 0-10.417-4.67-10.417-10.407 0-5.736 4.675-10.406 10.417-10.406s10.417 4.67 10.417 10.406c0 5.737-4.675 10.406-10.417 10.406zM42.674 14.88c1.247-1.25 3.645-1.284 4.93 0a3.578 3.578 0 0 1 1.007 2.463c0 .935-.384 1.802-1.007 2.463-.661.623-1.53 1.006-2.465 1.006-.94 0-1.807-.383-2.465-1.006-.628-.661-1.007-1.528-1.007-2.463 0-.939.38-1.806 1.007-2.463zm12.882-1.006h13.888a3.468 3.468 0 1 1 0 6.938H55.556a3.468 3.468 0 1 1 0-6.938zM107.639 0H17.36C7.79 0 0 7.78 0 17.344v187.312C0 214.22 7.789 222 17.361 222h90.278c9.572 0 17.361-7.78 17.361-17.344V17.344C125 7.78 117.211 0 107.639 0z" mask="url(#p)"/>
                        <path fill="#D7DBE0" d="M104.166 65.906H20.833a3.47 3.47 0 0 1-3.472-3.468V48.563a3.47 3.47 0 0 1 3.472-3.47h83.333a3.47 3.47 0 0 1 3.473 3.47v13.875a3.47 3.47 0 0 1-3.473 3.468" mask="url(#p)"/>
                        <path fill="#F7AB1A" d="M104.166 86.719H20.833a3.468 3.468 0 1 1 0-6.938h83.333a3.468 3.468 0 1 1 0 6.938M97.222 100.594H27.778a3.468 3.468 0 1 1 0-6.938h69.444a3.468 3.468 0 1 1 0 6.938" mask="url(#p)"/>
                        <path fill="#D7DBE0" d="M104.166 121.406h-62.5a3.468 3.468 0 1 1 0-6.937h62.5a3.468 3.468 0 1 1 0 6.937" mask="url(#p)"/>
                        <path fill="#F7AB1A" d="M24.305 111a6.94 6.94 0 0 1 6.945 6.938 6.941 6.941 0 0 1-6.945 6.937 6.941 6.941 0 0 1-6.944-6.937A6.941 6.941 0 0 1 24.305 111" mask="url(#p)"/>
                        <path fill="#D7DBE0" d="M104.166 145.688h-62.5a3.468 3.468 0 1 1 0-6.938h62.5a3.468 3.468 0 1 1 0 6.938" mask="url(#p)"/>
                        <path fill="#F7AB1A" d="M24.305 135.281a6.94 6.94 0 0 1 6.945 6.938 6.941 6.941 0 0 1-6.945 6.937 6.941 6.941 0 0 1-6.944-6.937 6.941 6.941 0 0 1 6.944-6.938" mask="url(#p)"/>
                        <path fill="#D7DBE0" d="M104.166 169.969h-62.5a3.468 3.468 0 1 1 0-6.938h62.5a3.468 3.468 0 1 1 0 6.938" mask="url(#p)"/>
                    </g>
                </g>
                <g mask="url(#e)" opacity=".68">
                    <g transform="translate(1380 365.34)">
                        <mask id="r" fill="#fff">
                            <use xlink:href="#q"/>
                        </mask>
                        <path fill="#F7AB1A" d="M14.145 17.976a3.989 3.989 0 1 1 0-7.978 3.989 3.989 0 0 1 0 7.978m.18-17.3V.66c-.06 0-.118.008-.18.008-.063 0-.122-.008-.184-.008v.017C6.22.872 0 7.196 0 14.985c0 13.347 10.77 23.394 13.962 23.974v.04c.056 0 .12-.007.184-.013.062.006.128.014.18.014v-.041c3.195-.58 13.963-10.627 13.963-23.974 0-7.79-6.22-14.113-13.963-14.308" mask="url(#r)"/>
                    </g>
                    <g transform="translate(1380 365.34)">
                        <mask id="t" fill="#fff">
                            <use xlink:href="#s"/>
                        </mask>
                        <path fill="#FBBA4D" d="M14.145 9.998V.668c-.063-.001-.122-.009-.184-.009v.018C6.22.872 0 7.196 0 14.984c0 13.348 10.77 23.394 13.962 23.975V39c.056 0 .12-.008.184-.015V17.976a3.99 3.99 0 0 1 0-7.978" mask="url(#t)"/>
                    </g>
                </g>
                <g mask="url(#e)">
                    <g transform="translate(498 58)">
                        <mask id="v" fill="#fff">
                            <use xlink:href="#u"/>
                        </mask>
                        <path fill="#F7AB1A" d="M29.264 36.334c-4.557 0-8.253-3.71-8.253-8.283 0-4.577 3.696-8.287 8.253-8.287 4.556 0 8.254 3.71 8.254 8.287 0 4.574-3.698 8.283-8.254 8.283M29.64.405V.37c-.126 0-.246.017-.375.017-.128 0-.252-.017-.378-.017v.035C12.868.81-.001 13.945-.001 30.122c0 27.72 22.28 48.587 28.887 49.792v.085c.114 0 .248-.016.378-.029.129.013.265.03.375.03v-.086c6.608-1.205 28.889-22.071 28.889-49.792C58.528 13.945 45.659.81 29.639.405" mask="url(#v)"/>
                    </g>
                    <g transform="translate(498 58)">
                        <mask id="x" fill="#fff">
                            <use xlink:href="#w"/>
                        </mask>
                        <path fill="#FBBA4D" d="M29.232 19.765V.387C29.104.385 28.98.37 28.854.37v.037C12.854.811-.001 13.946-.001 30.121c0 27.722 22.256 48.587 28.855 49.794V80c.113 0 .248-.017.378-.031V36.335c-4.553 0-8.244-3.71-8.244-8.285 0-4.576 3.691-8.285 8.244-8.285" mask="url(#x)"/>
                    </g>
                </g>
            </g>
        </g>
    </g>
</svg>
