<svg xmlns="http://www.w3.org/2000/svg" xmlns:xlink="http://www.w3.org/1999/xlink" width="416" height="416" viewBox="0 0 416 416">
    <defs>
        <linearGradient id="a" x1="50%" x2="50%" y1="97.291%" y2="1.569%">
            <stop offset="0%" stop-color="#38964F"/>
            <stop offset="100%" stop-color="#33C74E"/>
        </linearGradient>
        <path id="b" d="M0 .97h218.853v159.446H0z"/>
    </defs>
    <g fill="none" fill-rule="evenodd">
        <path fill="url(#a)" d="M0 0h416v416H0z"/>
        <path fill="#FFF" d="M283.186 125.454a109.607 109.607 0 0 0-9.668-8.26l-109.16 62.877-.01.415-.351-.204-.025.013-.005-.03-51.464-30.332a109.528 109.528 0 0 0-5.436 10.81l56.934 33.284 119.185-68.573z"/>
        <path fill="#FFF" d="M262.24 109.682a109.21 109.21 0 0 0-12.633-6.27l-85.247 49.105-.014.41-.348-.203-.028.016-.004-.037-37.387-22.032a108.754 108.754 0 0 0-7.438 9.089l44.861 26.333 98.237-56.411z"/>
        <g transform="translate(98 151.125)">
            <mask id="c" fill="#fff">
                <use xlink:href="#b"/>
            </mask>
            <path fill="#FFF" d="M206.774.97L66.36 81.77l-.014.413-.355-.204-.02.013-.005-.027L.237 43.89A110.4 110.4 0 0 0 0 50.99c0 60.437 48.993 109.426 109.427 109.426 60.436 0 109.427-48.989 109.427-109.427 0-18.021-4.359-35.028-12.08-50.02" mask="url(#c)"/>
        </g>
        <path fill="#FFF" d="M298.624 142.649a109.258 109.258 0 0 0-6.946-9.343L164.36 206.733l-.014.417-.349-.206-.027.018-.005-.037-61.176-35.892a108.524 108.524 0 0 0-2.922 11.924l64.13 36.983 134.627-77.291z"/>
    </g>
</svg>
