<svg xmlns="http://www.w3.org/2000/svg" width="112" height="112" viewBox="0 0 112 112">
    <g fill="none" fill-rule="evenodd">
        <path stroke="#00AEEF" stroke-dasharray="2" d="M56 111c30.376 0 55-24.624 55-55S86.376 1 56 1 1 25.624 1 56s24.624 55 55 55z"/>
        <path d="M30 81.286h50.286V31H30z"/>
        <path fill="#00AEEF" d="M69.33 47.478c-.567 2.133-1.755 6.569-2.662 6.569-1.056 0-1.945-1.907-2.726-3.591-1.048-2.244-2.232-4.79-4.608-4.79-3.73 0-5.202 5.716-6.765 11.767-1.176 4.56-2.636 13.376-4.758 13.376-2.297 0-3.667-5.586-4.838-8.327-1.297-3.044-3.108-6.34-6.686-6.34v2.095c2.273 0 3.453 2.536 4.802 5.167 1.745 3.39 3.116 9.5 6.722 9.5 3.748 0 5.225-8.877 6.788-14.947 1.17-4.543 2.628-10.196 4.735-10.196 1.04 0 1.926 1.9 2.707 3.579 1.048 2.252 2.236 4.802 4.627 4.802 2.516 0 3.522-3.765 4.685-8.123.567-2.12 1.751-6.543 2.648-6.543V39.38c-2.51 0-3.512 3.753-4.67 8.098"/>
    </g>
</svg>
