<svg xmlns="http://www.w3.org/2000/svg" width="112" height="112" viewBox="0 0 112 112">
    <g fill="none" fill-rule="evenodd">
        <path stroke="#00AEEF" stroke-dasharray="2" d="M56 111c30.376 0 55-24.624 55-55S86.376 1 56 1 1 25.624 1 56s24.624 55 55 55z"/>
        <path d="M30 81.286h50.286V31H30z"/>
        <g fill="#B4C7CF">
            <path d="M63.524 75h2.095V58.238h-2.095zM63.524 43.571h2.095v-6.285h-2.095zM44.667 75h2.095v-6.286h-2.095zM44.667 54.048h2.095V37.286h-2.095z"/>
        </g>
        <path fill="#00AEEF" d="M38.381 68.714h14.667V54.048H38.38v14.666zm2.095-2.095h10.476V56.143H40.476v10.476zM57.238 58.238h14.667V43.571H57.238v14.667zm2.095-2.095H69.81V45.667H59.333v10.476z"/>
    </g>
</svg>
