<svg id="Layer_1" xmlns="http://www.w3.org/2000/svg" viewBox="0 0 400 100">
  <style>
    .onwhite .st1{fill:#00AEEF;}
    .onwhite .st2{fill:#1C273A;}
    .ondark .st1{fill:#00AEEF;}
    .ondark .st2{fill:#FFFFFF;}
    .onblue .st1{fill:#1C273A;}
    .onblue .st2{fill:#FFFFFF;}
  </style>
  <g class="onwhite">
    <path class="st1" d="M74.1 59.5c-2.2-2.2-3.4-5-3.4-8.3 0-3.3 1.1-6.1 3.4-8.3 2.2-2.2 4.9-3.3 8.1-3.3 3.2 0 5.9 1.1 8.1 3.3 2.2 2.2 3.4 5 3.4 8.3 0 3.3-1.1 6.1-3.4 8.3-2.2 2.2-4.9 3.4-8.1 3.4-3.1-.1-5.8-1.2-8.1-3.4z"/>
    <path class="st2" d="M61.8 56.2H24.4c.7 3.1 2.3 5.5 4.8 7.3 2.5 1.8 5.6 2.7 9.4 2.7 2.6 0 4.9-.4 6.8-1.1 2-.8 3.8-2 5.6-3.6l7.6 8.3c-4.7 5.3-11.5 8-20.4 8-5.6 0-10.5-1.1-14.8-3.3-4.3-2.2-7.6-5.2-9.9-9.1-2.3-3.9-3.5-8.2-3.5-13.1 0-4.8 1.1-9.2 3.4-13.1 2.3-3.9 5.5-6.9 9.5-9.1 4-2.2 8.5-3.3 13.5-3.3 4.8 0 9.2 1 13.1 3.1 3.9 2.1 7 5.1 9.2 9 2.2 3.9 3.4 8.4 3.4 13.6 0 0-.1 1.3-.3 3.7zM28.3 40.3c-2.2 1.8-3.6 4.4-4 7.5h24.4c-.5-3.1-1.8-5.6-4-7.5-2.2-1.9-4.9-2.8-8.1-2.8-3.4 0-6.1 1-8.3 2.8zm76.5-31.6h14.3v68.2h-14.3V8.7zm75.3 47.5h-37.4c.7 3.1 2.3 5.5 4.8 7.3 2.5 1.8 5.6 2.7 9.4 2.7 2.6 0 4.9-.4 6.8-1.1 2-.8 3.8-2 5.6-3.6l7.6 8.3c-4.7 5.3-11.5 8-20.4 8-5.6 0-10.5-1.1-14.8-3.3-4.3-2.2-7.6-5.2-9.9-9.1-2.3-3.9-3.5-8.2-3.5-13.1 0-4.8 1.1-9.2 3.4-13.1 2.3-3.9 5.5-6.9 9.5-9.1 4-2.2 8.5-3.3 13.5-3.3 4.8 0 9.2 1 13.1 3.1 3.9 2.1 7 5.1 9.2 9 2.2 3.9 3.4 8.4 3.4 13.6 0 0-.1 1.3-.3 3.7zm-33.5-15.9c-2.2 1.8-3.6 4.4-4 7.5H167c-.5-3.1-1.8-5.6-4-7.5-2.2-1.9-4.9-2.8-8.1-2.8-3.4 0-6.1 1-8.3 2.8zm94.3-12.9v41.2c0 9.1-2.4 15.8-7.1 20.2-4.7 4.4-11.6 6.6-20.7 6.6-4.8 0-9.3-.6-13.6-1.7-4.3-1.2-7.8-2.8-10.7-5.1l5.7-10.3c2.1 1.7 4.7 3.1 7.9 4.1 3.2 1 6.4 1.5 9.6 1.5 5 0 8.6-1.1 11-3.4 2.4-2.2 3.5-5.6 3.5-10.2v-2.1c-3.7 4.1-8.9 6.2-15.6 6.2-4.5 0-8.7-1-12.5-3-3.8-2-6.8-4.8-9-8.4-2.2-3.6-3.3-7.8-3.3-12.5s1.1-8.9 3.3-12.5c2.2-3.6 5.2-6.4 9-8.4s7.9-3 12.5-3c7.2 0 12.6 2.4 16.4 7.1v-6.3h13.6zm-17.8 32c2.4-2.2 3.6-5.2 3.6-8.8 0-3.6-1.2-6.5-3.6-8.8-2.4-2.2-5.5-3.4-9.3-3.4-3.8 0-6.9 1.1-9.4 3.4-2.5 2.2-3.7 5.2-3.7 8.8 0 3.6 1.2 6.5 3.7 8.8 2.4 2.2 5.6 3.4 9.4 3.4 3.8-.1 6.9-1.2 9.3-3.4zm30.8-41.2c-1.7-1.5-2.5-3.4-2.5-5.7 0-2.3.8-4.2 2.5-5.7s3.8-2.3 6.4-2.3c2.6 0 4.8.7 6.4 2.2 1.7 1.5 2.5 3.3 2.5 5.5 0 2.4-.8 4.4-2.5 5.9-1.7 1.6-3.8 2.3-6.4 2.3-2.6.1-4.8-.6-6.4-2.2zm-.7 9.2h14.3v49.4h-14.3V27.4zm36.2 47c-4.1-2.2-7.4-5.2-9.7-9.1-2.3-3.9-3.5-8.2-3.5-13.1s1.2-9.3 3.5-13.1c2.3-3.9 5.6-6.9 9.7-9.1 4.1-2.2 8.8-3.3 14-3.3 5.2 0 9.9 1.1 14 3.3 4.1 2.2 7.3 5.2 9.6 9.1 2.3 3.9 3.5 8.2 3.5 13.1s-1.2 9.3-3.5 13.1c-2.3 3.9-5.5 6.9-9.6 9.1-4.1 2.2-8.8 3.3-14 3.3-5.2-.1-9.9-1.2-14-3.3zm23.1-12.3c2.4-2.5 3.5-5.8 3.5-10s-1.2-7.5-3.5-10c-2.4-2.5-5.4-3.7-9.1-3.7-3.7 0-6.7 1.2-9.1 3.7-2.4 2.5-3.6 5.8-3.6 10s1.2 7.5 3.6 10c2.4 2.5 5.4 3.7 9.1 3.7 3.7.1 6.7-1.2 9.1-3.7zm71.8-29.9c3.8 3.7 5.7 9.1 5.7 16.4v28.3h-14.3V50.8c0-3.9-.9-6.8-2.6-8.8-1.7-1.9-4.2-2.9-7.4-2.9-3.6 0-6.5 1.1-8.6 3.4-2.1 2.2-3.2 5.6-3.2 10v24.4h-14.3V27.4h13.7v5.8c1.9-2.1 4.3-3.7 7.1-4.8 2.8-1.1 5.9-1.7 9.3-1.7 5.9 0 10.9 1.8 14.6 5.5z"/>
  </g>
</svg>
