<svg xmlns="http://www.w3.org/2000/svg" width="416" height="416" viewBox="0 0 416 416">
    <g fill="none" fill-rule="evenodd">
        <path fill="#2B93DD" stroke="#2B93DD" d="M.5.5h415v415H.5z"/>
        <g fill="#FFF">
            <path d="M317.232 338.15c2.456-1.598 5.629-1.747 8.397-.985.024 1.645.003 3.291.011 4.937-1.315-.579-2.862-.956-4.246-.388-1.098.435-1.75 1.561-1.922 2.688-.206 1.428-.072 2.876-.107 4.313 2.81.007 5.619.002 8.429.003.02-1.824-.023-3.65.024-5.473 1.91-.544 3.8-1.154 5.7-1.727.016 2.404-.022 4.808.021 7.213 1.9-.027 3.8-.006 5.701-.013v4.679c-1.907-.079-3.816-.021-5.723-.027.008 2.69.001 5.379.003 8.07.03 1.49-.08 2.987.094 4.472.106.875.424 1.845 1.245 2.298 1.375.77 3.119.433 4.381-.412v4.725c-1.646.715-3.486.933-5.267.807-1.69-.125-3.44-.74-4.543-2.084-1.273-1.518-1.601-3.574-1.627-5.497-.014-4.128.002-8.256-.006-12.386-2.811-.001-5.623-.003-8.432.002-.003 6.478-.002 12.957-.002 19.435h-5.761c0-6.477-.008-12.952.003-19.429-1.336-.025-2.674.007-4.01-.02.005-1.538.011-3.077-.003-4.617 1.33-.03 2.66-.017 3.994-.008.097-2.044-.215-4.148.396-6.14.517-1.799 1.666-3.421 3.25-4.436zm-123.357.336c1.162-.176 2.42.221 3.189 1.13.902.995 1.069 2.58.4 3.742-.74 1.312-2.394 1.922-3.835 1.607-1.496-.269-2.743-1.66-2.675-3.21-.044-1.632 1.321-3.086 2.921-3.269zm-44.155.714h8.38c2.607 6.622 5.234 13.238 7.846 19.86.667 1.657 1.29 3.332 1.99 4.975 3.355-8.275 6.758-16.53 10.088-24.816 2.686-.043 5.374-.01 8.062-.016-.006 11.199-.003 22.397-.001 33.595-1.94-.004-3.877.016-5.815-.01.021-8.265-.001-16.529.01-24.794a14.38 14.38 0 0 0-.035-1.114 4.442 4.442 0 0 0-.303.538c-3.33 8.459-6.723 16.894-10.033 25.361-1.38.05-2.76.003-4.141.026-3.435-8.46-6.827-16.938-10.245-25.403a6.394 6.394 0 0 0-.29-.512c-.07 3.62-.01 7.244-.03 10.865.002 5.015-.003 10.029.002 15.043-1.829.005-3.658 0-5.485.002a78400 78400 0 0 1 0-33.6zm60.011 9.496c2.781-.792 5.78-.76 8.559.026.572.16 1.128.382 1.643.684-.032 1.836 0 3.672-.018 5.51-1.857-1.42-4.214-2.32-6.576-2.022-1.875.17-3.664 1.143-4.785 2.658-1.442 1.878-1.775 4.373-1.527 6.67.186 1.799.93 3.596 2.328 4.788 1.453 1.29 3.49 1.748 5.39 1.604 1.879-.216 3.652-1.01 5.17-2.121.016 1.739-.008 3.478.013 5.217-2.355 1.402-5.18 1.764-7.875 1.63-2.759-.145-5.509-1.19-7.506-3.129-2.17-2.091-3.347-5.073-3.486-8.06-.141-3.106.491-6.346 2.278-8.94 1.498-2.213 3.84-3.779 6.392-4.515zm39.035-.414c2.765-.352 5.682-.196 8.248.972 2.228 1.005 4.032 2.863 5.032 5.087 1.068 2.368 1.327 5.027 1.146 7.595-.178 2.507-.965 5.02-2.533 7.011-1.605 2.115-4.024 3.549-6.614 4.082-2.215.46-4.531.459-6.746-.007-2.65-.566-5.102-2.104-6.656-4.34-1.824-2.592-2.342-5.888-2.11-8.994.157-2.635.976-5.291 2.659-7.358 1.843-2.316 4.67-3.682 7.574-4.048zm23.901.048c2.664-.47 5.453-.125 7.975.83.003 1.766 0 3.531.001 5.296-1.761-1.211-3.913-1.862-6.051-1.787-1.077.041-2.26.497-2.752 1.521-.39 1.013-.12 2.341.835 2.948 1.634 1.092 3.583 1.556 5.275 2.536 1.333.748 2.626 1.728 3.301 3.139 1.269 2.643.731 6.136-1.499 8.107-2.13 1.99-5.197 2.54-8.018 2.435-2.003-.13-4.016-.525-5.857-1.344.008-1.857-.011-3.713.01-5.57 1.548 1.125 3.335 1.93 5.227 2.257 1.316.214 2.748.224 3.976-.365 1.174-.584 1.385-2.253.688-3.274-.653-.787-1.612-1.22-2.516-1.646-1.697-.763-3.481-1.402-4.972-2.546-1.048-.817-1.842-1.97-2.152-3.269-.461-1.915-.317-4.073.796-5.747 1.272-1.95 3.482-3.12 5.733-3.521zm22.021-.056c2.875-.357 5.928-.164 8.552 1.161 2.288 1.144 4.062 3.211 4.949 5.602.693 1.829.936 3.803.896 5.75.005 2.909-.781 5.895-2.607 8.202-1.708 2.233-4.323 3.685-7.083 4.14-2.699.437-5.55.324-8.115-.686-2.598-1.022-4.758-3.109-5.853-5.678-1.14-2.62-1.26-5.567-.905-8.365.372-2.798 1.64-5.534 3.8-7.395 1.77-1.554 4.048-2.434 6.366-2.731zm-61.872.814c1.59-.955 3.611-1.035 5.347-.451-.008 1.921 0 3.843-.005 5.765-1.136-.736-2.553-1.052-3.894-.916-1.635.186-2.931 1.442-3.603 2.882-.73 1.525-.867 3.25-.821 4.917 0 3.838.002 7.677 0 11.515h-5.68c-.005-8.022.006-16.046-.005-24.069 1.896-.024 3.792-.014 5.688-.005-.008 1.378 0 2.756-.005 4.135.616-1.5 1.533-2.955 2.978-3.773zm-41.34-.362c1.911-.008 3.823-.027 5.734.01-.023 8.02-.002 16.043-.01 24.064h-5.72c-.005-8.024.002-16.048-.003-24.074zm59.009 4.128c-1.378.077-2.77.543-3.79 1.496-1.409 1.276-2.052 3.176-2.226 5.024-.192 2.032-.053 4.175.875 6.028.722 1.438 2.048 2.568 3.611 2.979 1.536.398 3.208.365 4.696-.207 1.272-.496 2.28-1.542 2.83-2.78.833-1.837.914-3.903.812-5.885-.143-1.811-.658-3.71-1.989-5.02-1.245-1.259-3.088-1.748-4.82-1.635zm45.758.005c-1.593.09-3.174.776-4.205 2.018-1.13 1.33-1.614 3.085-1.745 4.795-.136 1.766 0 3.595.683 5.246.568 1.386 1.646 2.59 3.038 3.18 1.29.555 2.743.654 4.122.448 1.285-.19 2.53-.804 3.366-1.812.83-1.003 1.27-2.267 1.49-3.534.278-1.7.282-3.453-.048-5.146-.293-1.443-.931-2.876-2.085-3.833-1.251-1.1-2.989-1.475-4.616-1.362zM77 328h26.64c-.002 8.88 0 17.76-.002 26.64H77V328M106.36 328H133c0 8.88.002 17.76-.002 26.64-8.878-.002-17.758 0-26.636 0-.004-8.88-.002-17.76-.002-26.64M77 357.358c8.88.004 17.76-.001 26.64.004.002 8.88 0 17.758 0 26.638H77v-26.642M106.362 357.362c8.878-.004 17.758-.002 26.638-.002V384h-26.64c.002-8.88-.002-17.76.002-26.638"/>
            <path fill-rule="nonzero" d="M135.375 110.5v148.125h146.25V110.5h-146.25zm-5.625-9.375h157.5a3.75 3.75 0 0 1 3.75 3.75V264.25a3.75 3.75 0 0 1-3.75 3.75h-157.5a3.75 3.75 0 0 1-3.75-3.75V104.875a3.75 3.75 0 0 1 3.75-3.75z"/>
            <path fill-rule="nonzero" d="M171 178h26.25v-26.25H171V178zm-7.5-33.75h41.25v41.25H163.5v-41.25zm7.5 80.625h26.25v-26.25H171v26.25zm-7.5-33.75h41.25v41.25H163.5v-41.25zm56.25-39.375V178H246v-26.25h-26.25zm-7.5-7.5h41.25v41.25h-41.25v-41.25zm7.5 54.375v26.25H246v-26.25h-26.25zm-7.5-7.5h41.25v41.25h-41.25v-41.25z"/>
            <path d="M163.5 88h11.25v37.5H163.5zM202.875 88h11.25v37.5h-11.25zM242.25 88h11.25v37.5h-11.25z"/>
        </g>
    </g>
</svg>
