<svg xmlns="http://www.w3.org/2000/svg" width="410" height="607" viewBox="0 0 410 607">
  <ellipse fill="#FFF" cx="205" cy="545" rx="205" ry="205"/>
  <path fill="#28ABE3" d="M239.27 342.189v-43.417h-28.192V0h-12.01v298.773H170.73v43.417C73.787 358.506 0 442.751 0 544.248c0 17.217 2.147 33.957 6.225 49.895 8.175-.671 14.343-2.453 20.456-6.909h-9.996l2.948-5.177h-1.798l3.165-4.96h-1.654l3.236-5.678h-1.223l2.59-4.457H22.15l7.264-12.867 7.408 12.867h-1.726l2.445 4.457h-1.223l3.38 5.678h-1.726l.863 1.438c10.356-6.972 22.007-12.939 38.116-13.873v-6.254H50.63l7.767-13.442h-4.819l8.27-12.938h-4.314l8.486-14.736h-3.236l6.76-11.573h-4.675l19.058-33.64 19.274 33.64h-4.53l6.4 11.573h-3.236l8.846 14.808h-4.531l7.767 12.938h-4.315l7.767 13.441H89.465v6.398C142.468 568.472 174.399 607 179.793 607c1.654 0 6.544-2.875 13.736-6.972H180.44l5.106-8.842h-3.164l5.466-8.482h-2.805l5.538-9.704h-2.086l4.387-7.62h-3.093l12.514-22.066 12.658 22.067h-2.949l4.243 7.62h-2.086l5.754 9.703h-3.021l2.589 4.313c15.03-6.47 33.01-11.932 51.853-11.932h1.654v-8.914H240.06l9.779-16.892h-6.04l10.427-16.173h-5.393l10.57-18.545h-4.026l8.486-14.521h-5.897l23.876-42.195 24.165 42.195h-5.682l8.055 14.521h-4.027l11.075 18.545h-5.682l9.781 16.173h-5.395l9.781 16.892h-34.952v10.28c31.5 5.247 41.568 23.864 46.387 23.864 3.955 0 16.397-8.698 38.549-11.718v-2.73h-7.696l2.302-3.954h-1.438l2.445-3.81h-1.295l2.445-4.313h-1.15l2.014-3.379h-1.366l5.609-9.847 5.681 9.847h-1.366l1.87 3.379h-.936l2.591 4.313h-1.367l2.301 3.81h-1.294l2.301 3.953h-8.198v2.228c7.16-.695 17.994 4.994 26.99 5.905.36-2.352.646-3.88.913-5.401A210.212 210.212 0 00410 544.175c.072-101.424-73.787-185.669-170.73-201.986z"/>
</svg>
