<svg id="Layer_1" data-name="Layer 1" xmlns="http://www.w3.org/2000/svg" xmlns:xlink="http://www.w3.org/1999/xlink" viewBox="0 0 1439 594.04"><defs><style>.cls-1{fill:none;}.cls-2{clip-path:url(#clip-path);}.cls-3{fill:#fff;}.cls-4{clip-path:url(#clip-path-2);}</style><clipPath id="clip-path"><rect class="cls-1" x="-2960.42" y="-1534.69" width="2576.84" height="1459.04"/></clipPath><clipPath id="clip-path-2"><rect class="cls-1" width="1439" height="594.04"/></clipPath></defs><title>NY</title><g class="cls-2"><circle class="cls-3" cx="121.65" cy="-0.95" r="3.62"/><circle class="cls-3" cx="17.2" cy="17.92" r="5.06"/><circle class="cls-3" cx="79.19" cy="85.74" r="5.43"/><circle class="cls-3" cx="-1.53" cy="56.77" r="13.67"/><circle class="cls-3" cx="136.53" cy="58.63" r="3.9"/><circle class="cls-3" cx="100.75" cy="53.32" r="2.86"/><circle class="cls-3" cx="143.29" cy="107.53" r="3.78"/><circle class="cls-3" cx="121.77" cy="63.54" r="1.65"/><circle class="cls-3" cx="132.92" cy="32.44" r="1.74"/><circle class="cls-3" cx="122.74" cy="1.35" r="2.83"/><circle class="cls-3" cx="121.77" cy="26.75" r="1.65"/><circle class="cls-3" cx="113.3" cy="31.56" r="0.87"/><circle class="cls-3" cx="110.1" cy="44.68" r="2.33"/><circle class="cls-3" cx="100.8" cy="57.09" r="1.9"/><circle class="cls-3" cx="41.86" cy="65.59" r="3.86"/><circle class="cls-3" cx="34.51" cy="43.52" r="3.49"/><circle class="cls-3" cx="80.04" cy="7.88" r="1.72"/></g><g class="cls-4"><circle class="cls-3" cx="297.42" cy="572.69" r="1.59"/><circle class="cls-3" cx="275.72" cy="554.16" r="2.12"/><circle class="cls-3" cx="52.43" cy="556.39" r="10.59"/><circle class="cls-3" cx="50.01" cy="583.5" r="25.94"/><circle class="cls-3" cx="172.48" cy="583.28" r="15.35"/><circle class="cls-3" cx="115.84" cy="590.16" r="11.65"/><circle class="cls-3" cx="260.37" cy="571.63" r="31.24"/><circle class="cls-3" cx="384.78" cy="585.92" r="18"/><circle class="cls-3" cx="491.19" cy="574.81" r="17.47"/><circle class="cls-3" cx="654.78" cy="578.51" r="15.88"/><circle class="cls-3" cx="581.01" cy="558.16" r="6.35"/><circle class="cls-3" cx="542.84" cy="568.81" r="5.82"/><circle class="cls-3" cx="564.25" cy="577.98" r="23.82"/><circle class="cls-3" cx="616.66" cy="584.87" r="14.82"/><circle class="cls-3" cx="697.42" cy="570.22" r="5.82"/><circle class="cls-3" cx="727.31" cy="575.87" r="19.59"/><circle class="cls-3" cx="789.78" cy="580.1" r="15.35"/><circle class="cls-3" cx="872.36" cy="579.04" r="15.35"/><circle class="cls-3" cx="195.25" cy="584.87" r="24.35"/><circle class="cls-3" cx="157.13" cy="571.1" r="7.41"/><circle class="cls-3" cx="328.48" cy="569.28" r="6.88"/><circle class="cls-3" cx="318.9" cy="571.1" r="4.24"/><circle class="cls-3" cx="221.54" cy="565.39" r="11.12"/><circle class="cls-3" cx="228.6" cy="584.34" r="13.24"/><circle class="cls-3" cx="211.13" cy="586.98" r="18"/><circle class="cls-3" cx="138.31" cy="588.16" r="23.29"/><circle class="cls-3" cx="106.31" cy="581.69" r="12.71"/><circle class="cls-3" cx="72.64" cy="566.03" r="16.1"/><circle class="cls-3" cx="14.58" cy="589.49" r="2.78"/><circle class="cls-3" cx="27.48" cy="567.69" r="4.76"/><circle class="cls-3" cx="209.9" cy="564.69" r="2.65"/><circle class="cls-3" cx="98.33" cy="576.92" r="20.61"/><circle class="cls-3" cx="317.01" cy="585.92" r="7.41"/><circle class="cls-3" cx="354.07" cy="581.69" r="10.59"/><circle class="cls-3" cx="479.89" cy="558.1" r="5.82"/><circle class="cls-3" cx="398.01" cy="579.04" r="16.41"/><circle class="cls-3" cx="453.6" cy="582.75" r="12.71"/><circle class="cls-3" cx="434.54" cy="570.04" r="5.29"/><circle class="cls-3" cx="439.72" cy="581.81" r="5.29"/><circle class="cls-3" cx="424.48" cy="585.39" r="15.35"/><circle class="cls-3" cx="469.72" cy="567.1" r="11.65"/><circle class="cls-3" cx="517.13" cy="577.45" r="9.53"/><circle class="cls-3" cx="473.98" cy="584.6" r="17.21"/><circle class="cls-3" cx="304.31" cy="576.39" r="14.82"/><circle class="cls-3" cx="349.84" cy="583.81" r="8.47"/><circle class="cls-3" cx="342.42" cy="578.51" r="14.82"/><circle class="cls-3" cx="854.36" cy="586.45" r="11.12"/><circle class="cls-3" cx="945.95" cy="566.87" r="26.47"/><circle class="cls-3" cx="1022.72" cy="572.69" r="12.18"/><circle class="cls-3" cx="1059.78" cy="579.04" r="16.41"/><circle class="cls-3" cx="1150.83" cy="584.34" r="3.71"/><circle class="cls-3" cx="1201.13" cy="568.98" r="22.24"/><circle class="cls-3" cx="1267.6" cy="564.98" r="22.24"/><circle class="cls-3" cx="1128.6" cy="577.98" r="11.12"/><circle class="cls-3" cx="1175.19" cy="585.39" r="9"/><circle class="cls-3" cx="1155.6" cy="566.87" r="6.35"/><circle class="cls-3" cx="1174.66" cy="558.39" r="6.35"/><circle class="cls-3" cx="1143.95" cy="572.16" r="11.65"/><circle class="cls-3" cx="1174.13" cy="581.16" r="9"/><circle class="cls-3" cx="917.36" cy="588.04" r="12.71"/><circle class="cls-3" cx="899.89" cy="570.57" r="6.88"/><circle class="cls-3" cx="917.89" cy="556.81" r="9"/><circle class="cls-3" cx="898.84" cy="566.34" r="17.47"/><circle class="cls-3" cx="841.66" cy="585.39" r="12.18"/><circle class="cls-3" cx="816.18" cy="570.29" r="15.63"/><circle class="cls-3" cx="757.84" cy="578.51" r="4.24"/><circle class="cls-3" cx="763.95" cy="577.1" r="4.24"/><circle class="cls-3" cx="773.36" cy="574.28" r="10.59"/><circle class="cls-3" cx="747.42" cy="582.22" r="9"/><circle class="cls-3" cx="709.84" cy="581.69" r="5.29"/><circle class="cls-3" cx="691.77" cy="576.86" r="3.77"/><circle class="cls-3" cx="682.84" cy="562.1" r="5.82"/><circle class="cls-3" cx="671.54" cy="576.69" r="5.82"/><circle class="cls-3" cx="686.77" cy="576.34" r="13.24"/><circle class="cls-3" cx="717.36" cy="558.75" r="4.76"/><circle class="cls-3" cx="705.07" cy="576.92" r="6.88"/><circle class="cls-3" cx="644.72" cy="585.39" r="10.06"/><circle class="cls-3" cx="587.01" cy="570.98" r="3.18"/><circle class="cls-3" cx="596.54" cy="573.22" r="2.12"/><circle class="cls-3" cx="599.19" cy="576.92" r="12.18"/><circle class="cls-3" cx="533.01" cy="575.34" r="8.47"/><circle class="cls-3" cx="999.19" cy="569.51" r="4.76"/><circle class="cls-3" cx="1016.89" cy="582.75" r="13.76"/><circle class="cls-3" cx="984.86" cy="572.42" r="12.44"/><circle class="cls-3" cx="1047.6" cy="588.04" r="7.41"/><circle class="cls-3" cx="1040.72" cy="562.1" r="12.18"/><circle class="cls-3" cx="1040.72" cy="582.22" r="15.35"/><circle class="cls-3" cx="1007.36" cy="582.75" r="13.76"/><circle class="cls-3" cx="971.36" cy="579.57" r="12.71"/><circle class="cls-3" cx="926.89" cy="584.87" r="23.29"/><circle class="cls-3" cx="838.75" cy="584.07" r="15.62"/><circle class="cls-3" cx="1101.07" cy="584.34" r="16.41"/><circle class="cls-3" cx="1073.81" cy="581.42" r="14.03"/><circle class="cls-3" cx="1089.29" cy="567.26" r="14.16"/><circle class="cls-3" cx="1175.72" cy="560.16" r="9.53"/><circle class="cls-3" cx="1148.72" cy="593.87" r="10.06"/><circle class="cls-3" cx="1167.25" cy="591.22" r="28.59"/><circle class="cls-3" cx="1224.72" cy="562.34" r="7.94"/><circle class="cls-3" cx="1210.13" cy="546.22" r="9"/><circle class="cls-3" cx="1237.36" cy="566.75" r="8.47"/><circle class="cls-3" cx="1248.25" cy="571.63" r="11.12"/><circle class="cls-3" cx="1237.13" cy="584.87" r="8.47"/><circle class="cls-3" cx="1222.83" cy="586.45" r="20.65"/><circle class="cls-3" cx="1295.89" cy="580.1" r="12.18"/><circle class="cls-3" cx="1357.83" cy="565.81" r="11.65"/><circle class="cls-3" cx="1413.78" cy="564.57" r="13.24"/><circle class="cls-3" cx="1389.07" cy="603.39" r="10.06"/><circle class="cls-3" cx="1369.48" cy="580.63" r="11.65"/><circle class="cls-3" cx="1338.19" cy="564.98" r="5.29"/><circle class="cls-3" cx="1329.25" cy="575.34" r="12.71"/><circle class="cls-3" cx="1312.83" cy="569.51" r="11.12"/><circle class="cls-3" cx="1350.95" cy="577.98" r="14.29"/><circle class="cls-3" cx="1391.19" cy="579.04" r="16.41"/><circle class="cls-3" cx="1421.36" cy="583.81" r="18"/><circle class="cls-3" cx="1264.66" cy="590.16" r="25.41"/><circle class="cls-3" cx="1132.31" cy="597.57" r="24.35"/><circle class="cls-3" cx="1113.51" cy="597.31" r="19.32"/><circle class="cls-3" cx="895.66" cy="597.04" r="21.71"/><circle class="cls-3" cx="962.89" cy="589.1" r="21.18"/><circle class="cls-3" cx="1015.83" cy="607.1" r="14.82"/><circle class="cls-3" cx="1075.13" cy="596.51" r="14.82"/><circle class="cls-3" cx="630.42" cy="585.92" r="13.76"/><circle class="cls-3" cx="669.6" cy="588.04" r="12.71"/><circle class="cls-3" cx="362.54" cy="602.87" r="15.88"/><circle class="cls-3" cx="318.07" cy="595.45" r="24.35"/><polygon class="cls-3" points="1455.6 620.51 -9.01 620.51 -10.42 579.57 1454.19 579.57 1455.6 620.51"/><circle class="cls-3" cx="0.72" cy="594.39" r="37.59"/><circle class="cls-3" cx="1439.78" cy="594.39" r="37.59"/></g></svg>