<svg xmlns="http://www.w3.org/2000/svg" xmlns:xlink="http://www.w3.org/1999/xlink" width="368" height="368">
  <defs>
    <linearGradient id="c" x1="50%" x2="50%" y1="2.089%" y2="100%">
      <stop offset="0%" stop-color="#F3B22B"/>
      <stop offset="100%" stop-color="#FFA100"/>
    </linearGradient>
    <path id="a" d="M0 0h368v368H0z"/>
  </defs>
  <g fill="none" fill-rule="evenodd">
    <mask id="b" fill="#fff">
      <use xlink:href="#a"/>
    </mask>
    <use fill="#D8D8D8" xlink:href="#a"/>
    <g fill-rule="nonzero" mask="url(#b)">
      <path fill="url(#c)" d="M0 0h368v369H0z" transform="translate(1)"/>
      <g fill="#FFF" opacity=".3">
        <path d="M189.15 208.556a6.545 6.545 0 00-2.394-8.946 6.545 6.545 0 00-8.945 2.399c-8.6 14.895-3.987 44.83-3.436 48.2a6.561 6.561 0 003.194 4.606 6.537 6.537 0 004.335.789c3.568-.593 5.98-3.964 5.399-7.536-1.8-10.92-2.893-31.302 1.847-39.512zm122.337 63.067a6.545 6.545 0 00-8.945 2.4c-4.724 8.181-22.931 17.443-33.299 21.362a6.557 6.557 0 00-3.817 8.44 6.546 6.546 0 008.432 3.819c3.192-1.207 31.423-12.178 40.024-27.075a6.545 6.545 0 00-2.395-8.946zm-62.365-36.006a6.545 6.545 0 00-8.945 2.399l-19.65 34.035a6.544 6.544 0 002.394 8.946 6.544 6.544 0 008.945-2.399l19.65-34.035a6.545 6.545 0 00-2.394-8.946z"/>
        <path d="M363.889 180.86c-3.436-1.983-7.289-3.601-11.418-5.062-4.078-21.772-17.209-41.72-37.847-53.635s-44.479-13.314-65.374-5.96c-3.329-2.845-6.657-5.373-10.092-7.356-34.389-19.855-78.527-8.014-98.392 26.393-13.612 23.577-12.698 52.682 2.045 75.324l-49.604 85.664c-3.578 6.184-4.534 13.388-2.693 20.286 1.844 6.908 6.261 12.67 12.446 16.241l135.14 78.023c12.757 7.365 29.125 2.974 36.494-9.79l49.559-85.837c26.92 1.374 52.507-12.386 66.074-35.884 19.865-34.408 8.05-78.553-26.338-98.407zM263.255 394.442c-3.755 6.504-12.106 8.745-18.606 4.992l-135.14-78.023a13.53 13.53 0 01-6.344-8.28 13.542 13.542 0 011.373-10.345l12.859-22.203 158.696 91.623-12.838 22.236zm58.167-92.642a5.949 5.949 0 00-1.1-.05c-.97.03-1.896.278-2.724.701a6.494 6.494 0 00-2.177 1.779 6.225 6.225 0 00-.611.917l-32.166 55.713-158.682-91.615 32.193-55.594a6.562 6.562 0 00-.418-7.421c-13.907-18.886-15.341-44.163-3.632-64.443 16.254-28.154 52.365-37.84 80.503-21.595 1.1.635 2.183 1.438 3.27 2.186-11.495 6.663-21.483 16.265-28.591 28.577a6.545 6.545 0 002.395 8.946 6.545 6.545 0 008.944-2.4c18.058-31.277 58.187-42.041 89.448-23.993 31.26 18.048 42.002 58.183 23.944 89.46a6.545 6.545 0 002.395 8.946 6.545 6.545 0 008.945-2.399c7.108-12.312 10.43-25.762 10.453-39.049 1.19.568 2.428 1.104 3.528 1.74 28.137 16.244 37.803 52.361 21.55 80.514-11.668 20.209-34.212 31.612-57.467 29.08z"/>
      </g>
      <g fill="#FFF">
        <path d="M142.57 180.24h8.779v-10.035h-8.78v-2.089c0-4.367.19-5.857 4.72-5.857h3.782v-11.54h-6.894c-9.174 0-14.93 4.177-14.93 15.206v4.28h-7.376v10.035h7.377v37.322h13.322V180.24z"/>
        <path d="M161.98 183.92c.747-6.842 4.099-11.052 10.327-11.052 4.186 0 9.407 2.644 10.14 11.051H161.98zm19.907 16.124c-1.022 3.722-4.747 5.763-8.473 5.763-10.6 0-11.449-8.896-11.449-12.906h33.96v-5.188c0-18.093-9.393-26.213-23.445-26.213-21.864 0-24.007 20.235-24.007 26.601 0 21.6 10.889 28.743 24.927 28.743 8.558 0 18.512-4.197 21.964-16.815h-13.477v.015z"/>
        <path d="M199.03 150v14.246h-6.7v9.915h6.7v32.014c0 6.87 2.06 11.388 15.202 11.388 2.046 0 4.467-.102 6.138-.304v-10.406c-.274.101-1.859.202-2.694.202-5.317 0-5.505-1.17-5.505-4.229v-28.665h8.199v-9.915h-8.199V150h-13.14z"/>
        <path d="M230.986 183.92c.748-6.842 4.1-11.052 10.328-11.052 4.185 0 9.407 2.644 10.14 11.051h-20.468zm19.907 16.124c-1.021 3.722-4.746 5.763-8.472 5.763-10.6 0-11.45-8.896-11.45-12.906h33.975v-5.188c0-18.093-9.407-26.213-23.445-26.213-21.864 0-24.007 20.235-24.007 26.601 0 21.6 10.889 28.743 24.927 28.743 8.559 0 18.512-4.197 21.964-16.815h-13.492v.015z"/>
        <path d="M264.946 165.034v52.529h13.283V190.02c0-5.856 1.966-12.4 12.335-12.4 1.224 0 2.637.1 3.86.287v-14.064c-.568-.086-1.98-.187-2.636-.187-8.098 0-11.113 5.181-13.85 10.449h-.19v-9.071h-12.802zM65.207 197.026c0 2.443-2.368 9.198-9.168 9.198-10.133 0-10.309-11.44-10.309-17.102 0-6.554 2.18-15.248 10.587-15.248 6.331 0 8.335 5.087 8.89 8.508h13.526c-1.228-16.34-14.388-20.163-22.43-20.163-17.198 0-24.303 12.13-24.303 29.145 0 11.051 4.357 26.199 23.469 26.199 18.629 0 22.694-15.148 23.176-20.537H65.207z"/>
        <path d="M323.043 189.863v6.748c0 6.36-6.059 10.361-11.929 10.361-2.637 0-6.232-1.468-6.232-6.36 0-5.67 4.058-7.037 9.073-7.915 5.493-.877 7.754-1.755 9.088-2.834zm-17.03-9.973c.376-3.036 1.507-7.339 8.217-7.339 3.406 0 8.798.288 8.798 6.16 0 2.546-2.087 4.115-7.754 4.59-12.754 1.079-23.726 6.058-23.726 18.189 0 10.864 7.754 15.354 15.407 15.354 9.087 0 13.42-4.404 16.45-7.627.275 2.936.464 3.713 1.232 6.26H339v-2.144c-1.594-.59-2.928-1.957-2.928-8.116v-28.45c0-13.008-13.044-15.267-20.233-15.267-10.392 0-21.175 2.26-22.682 18.39h12.856zm-197.952 12.129v6.749c0 6.36-6.042 10.36-11.91 10.36-2.652 0-6.23-1.467-6.23-6.36 0-5.67 4.057-7.037 9.07-7.914 5.477-.878 7.752-1.756 9.07-2.835zm-17.01-9.987c.376-3.036 1.507-7.339 8.215-7.339 3.405 0 8.78.303 8.78 6.174 0 2.547-2.071 4.1-7.751 4.59-12.765 1.08-23.719 6.058-23.719 18.189 0 10.85 7.752 15.354 15.402 15.354 9.07 0 13.417-4.403 16.445-7.627.29 2.936.478 3.713 1.232 6.26h14.373v-2.159c-1.608-.575-2.927-1.942-2.927-8.115v-28.45c0-13.008-13.054-15.253-20.241-15.253-10.389 0-21.169 2.245-22.676 18.39h12.867v-.014z"/>
      </g>
    </g>
  </g>
</svg>
