<svg xmlns="http://www.w3.org/2000/svg" width="221" height="221" viewBox="0 0 221 221">
    <g fill="#F5F5F5">
        <path d="M44.194 76.482c0-2.004-1.61-3.625-3.6-3.625s-3.6 1.621-3.6 3.625c0 9.519 10.427 22.589 11.615 24.05.714.872 1.748 1.325 2.788 1.325.802 0 1.61-.27 2.282-.822 1.536-1.27 1.757-3.554.499-5.104-3.86-4.737-9.984-14.203-9.984-19.45zM121.393 72.698c-1.99 0-3.6 1.621-3.6 3.625 0 5.228-6.125 14.705-9.985 19.452-1.259 1.547-1.034 3.83.503 5.101.668.553 1.477.822 2.282.822 1.04 0 2.07-.453 2.784-1.324 1.189-1.462 11.617-14.532 11.617-24.051 0-2.004-1.61-3.625-3.6-3.625zM80.994 72.777c-1.659 0-3 1.622-3 3.625v21.75c0 2.004 1.341 3.625 3 3.625 1.658 0 3-1.621 3-3.625v-21.75c0-2.003-1.342-3.625-3-3.625z" transform="rotate(30 38.738 151.917)"/>
        <path d="M120.878 15.023c-2.204 0-4.506.292-6.898.736C105.971 6.423 94.115.478 80.878.478c-13.237 0-25.093 5.945-33.102 15.28-2.391-.443-4.694-.735-6.898-.735-22.056 0-40 17.944-40 40 0 15.114 8.523 28.853 21.904 35.646l-.071 54.954c-.004 3.967 1.537 7.695 4.34 10.5 2.804 2.81 6.53 4.355 10.496 4.355h86.676c8.182 0 14.837-6.655 14.837-14.837V90.616c13.33-6.811 21.818-20.53 21.818-35.593 0-22.056-17.944-40-40-40zm10.91 130.618c0 4.17-3.396 7.564-7.565 7.564H37.547c-2.02 0-3.92-.788-5.352-2.219-1.427-1.431-2.215-3.331-2.212-5.355l.019-14.244h101.785v14.254zm2.25-60.685c-.191.078-.372.17-.543.28-.458.284-.834.66-1.115 1.094-.284.43-.476.927-.554 1.46-.032.202-.043.404-.04.61v35.714H30.012l.047-35.664c.003-.2-.007-.402-.036-.597-.078-.55-.28-1.062-.575-1.506-.277-.415-.64-.777-1.08-1.055-.18-.113-.373-.213-.571-.294C15.86 79.778 8.15 68.024 8.15 55.023c0-18.047 14.68-32.727 32.727-32.727.705 0 1.45.085 2.18.143-3.679 6.394-5.816 13.783-5.816 21.675 0 2.01 1.626 3.636 3.636 3.636 2.01 0 3.637-1.626 3.637-3.636 0-20.05 16.313-36.364 36.363-36.364s36.364 16.314 36.364 36.364c0 2.01 1.626 3.636 3.636 3.636 2.01 0 3.637-1.626 3.637-3.636 0-7.892-2.138-15.281-5.817-21.675.73-.058 1.475-.143 2.18-.143 18.047 0 32.727 14.68 32.727 32.727 0 12.955-7.677 24.695-19.567 29.933z" transform="rotate(30 38.738 151.917)"/>
    </g>
</svg>
