<svg xmlns="http://www.w3.org/2000/svg" xmlns:xlink="http://www.w3.org/1999/xlink" width="2251" height="460" viewBox="0 0 2251 460">
    <defs>
        <radialGradient id="prefix__b" cx="29.437%" cy="29.147%" r="288.783%" fx="29.437%" fy="29.147%" gradientTransform="scale(.19608 1) rotate(4.141 .898 16.984)">
            <stop offset="0%" stop-color="#009BFF"/>
            <stop offset="100%" stop-color="#105DFF"/>
        </radialGradient>
        <path id="prefix__a" d="M0.033 0H2250.033V460H0.033z"/>
    </defs>
    <g fill="none" fill-rule="evenodd">
        <mask id="prefix__c" fill="#fff">
            <use xlink:href="#prefix__a"/>
        </mask>
        <use fill="#FFB400" xlink:href="#prefix__a"/>
        <path fill="url(#prefix__b)" fill-rule="nonzero" d="M-49.938 0H2296.062V460H-49.938z" mask="url(#prefix__c)"/>
        <g mask="url(#prefix__c)">
            <g>
                <path fill="#FFF" stroke="#FFF" d="M1146.841 481.922c60.802-16.292 127.818-9.388 186.638 24.571 58.82 33.96 98.307 88.547 114.599 149.348 16.292 60.802 9.388 127.818-24.571 186.638-33.96 58.82-88.547 98.307-149.348 114.599-60.802 16.292-127.818 9.388-186.638-24.571-58.82-33.96-98.307-88.547-114.599-149.348-16.292-60.802-9.388-127.818 24.571-186.638 33.96-58.82 88.547-98.307 149.348-114.599zm-44.219 171.058l-.357.615c-18.173 31.476-21.867 67.337-13.149 99.873 8.718 32.536 29.848 61.746 61.323 79.918 31.476 18.173 67.338 21.867 99.873 13.149 32.54-8.72 61.75-29.852 79.31-61.413.101-.18.202-.362.301-.543-.227-.064-.42-.12-.578-.174-.36-.121-.879-.337-1.547-.641-1.411-.643-3.47-1.67-6.095-3.035-5.575-2.9-13.691-7.315-23.552-12.788-21.892-12.15-52.38-29.508-82.763-47.05l-3.644-2.105c-29.146-16.846-57.873-33.676-78.483-46.044-9.67-5.804-17.552-10.624-22.85-14.003-2.495-1.59-4.415-2.86-5.676-3.76-.587-.42-1.026-.755-1.665-1.468-.172-.191-.319-.366-.448-.53z" transform="translate(192.062 -458)"/>
                <path fill="#0C66FD" d="M175.782 654.925c-61.914-202.512 52.063-416.873 254.576-478.787 202.512-61.914 416.873 52.063 478.787 254.576C971.06 633.226 857.082 847.587 654.57 909.5c-202.512 61.915-416.873-52.063-478.787-254.576zm177.595-59.107c32.939 107.736 146.978 168.372 254.715 135.434 107.737-32.938 168.373-146.978 135.435-254.715 1.345 4.4-388.804 123.68-390.15 119.28z" transform="translate(192.062 -458)"/>
                <path fill="#FFF" stroke="#FFF" d="M1560.91 460.622c24.665 10.982 45.141 31.373 55.581 58.57 10.44 27.198 8.868 56.053-2.113 80.718-10.982 24.665-31.373 45.141-58.57 55.581-27.198 10.44-56.053 8.868-80.718-2.113-24.665-10.982-45.141-31.373-55.581-58.57-10.44-27.198-8.868-56.053 2.113-80.718 10.982-24.665 31.373-45.141 58.57-55.581 27.198-10.44 56.053-8.868 80.718 2.113zm11.358 73.185l-.658.6c-.132.084-.337.194-.609.33-.594.297-1.492.705-2.655 1.212-2.48 1.08-6.158 2.599-10.661 4.415-10.003 4.036-24.081 9.537-38.191 14.954-14.11 5.416-28.253 10.747-38.388 14.442-4.562 1.663-8.31 2.995-10.877 3.852-1.203.402-2.144.7-2.784.877-.293.08-.518.136-.673.162-.041.007-.073.013-.096.013l-.812-.02.258.673c5.64 14.693 16.702 25.709 30.027 31.642 13.325 5.932 28.913 6.782 43.606 1.141 14.693-5.64 25.71-16.701 31.642-30.026 5.932-13.325 6.782-28.914 1.136-43.577l-.265-.69zM870.013 725.728c23.742-1.66 48.118 5.737 67.5 22.585 19.381 16.848 30.099 39.957 31.76 63.7 1.66 23.742-5.738 48.118-22.586 67.5-16.848 19.381-39.957 30.099-63.7 31.76-23.742 1.66-48.118-5.738-67.5-22.586-19.381-16.848-30.099-39.957-31.76-63.7-1.66-23.742 5.738-48.118 22.586-67.5 16.848-19.381 39.957-30.099 63.7-31.76zm39.12 52.134l-.287.812c-.068.12-.18.288-.334.504-.34.477-.87 1.167-1.565 2.041-1.485 1.868-3.719 4.574-6.473 7.853-5.97 7.107-14.383 16.908-22.912 26.724l-1.92 2.208c-8.32 9.56-16.583 18.944-22.635 25.673-2.864 3.184-5.233 5.773-6.876 7.503-.77.81-1.378 1.43-1.803 1.833-.192.183-.344.318-.453.402-.025.019-.044.035-.059.043l-.72.36.547.475c10.49 9.119 23.682 13.122 36.531 12.224 12.85-.899 25.357-6.7 34.475-17.189 9.118-10.49 13.122-23.682 12.223-36.531-.898-12.85-6.699-25.357-17.18-34.45l-.56-.485zM1472.713 836.748c-13.928-31.281-13.857-65.247-2.485-94.873 11.373-29.627 34.048-54.915 65.329-68.842 31.281-13.927 65.246-13.857 94.873-2.484 29.626 11.372 54.914 34.047 68.842 65.328 13.927 31.281 13.857 65.247 2.484 94.873-11.372 29.627-34.047 54.915-65.328 68.842-31.282 13.927-65.247 13.857-94.873 2.484-29.627-11.372-54.915-34.047-68.842-65.328zm138.392 9.162l.653-.29c16.776-7.47 28.914-21.083 34.976-37.055 6.061-15.97 6.048-34.3-1.477-51.201-7.525-16.902-21.137-29.176-37.061-35.358-15.927-6.182-34.165-6.27-50.907 1.203l-.671.3.658.658c.108.152.252.389.43.704.385.681.921 1.713 1.588 3.051 1.422 2.85 3.434 7.08 5.846 12.264 5.14 11.041 12.098 26.406 19.043 41.985l1.772 3.98c6.93 15.586 13.693 31.038 18.46 42.246 2.237 5.26 4.034 9.586 5.201 12.55.548 1.39.956 2.48 1.205 3.223.115.342.194.607.236.79.012.055.022.098.023.128l.025.822z" transform="translate(192.062 -458)"/>
            </g>
        </g>
    </g>
</svg>
