<svg xmlns="http://www.w3.org/2000/svg" width="250" height="250" viewBox="0 0 250 250">
    <g fill="none" fill-rule="evenodd">
        <circle cx="125" cy="125" r="124.521" fill="#2A5AC4"/>
        <circle cx="125.239" cy="125" r="107.759" fill="#FFF"/>
        <path fill="#2A5AC4" fill-rule="nonzero" d="M100.926 74.361c11.901 0 22.473 5.692 29.142 14.503 4.167 5.505 6.81 12.228 7.301 19.54.042.622-24.899.93-25.048.189-.288-1.44-.842-2.783-1.609-3.976-2.066-3.219-5.677-5.351-9.786-5.351-6.285 0-11.405 4.988-11.615 11.222l-.007.4v68.2H64.4v-68.2c0-20.173 16.353-36.527 36.526-36.527z"/>
        <path fill="#2A5AC4" fill-rule="nonzero" d="M185.595 110.284l.005.604v68.2h-24.904v-68.2c0-6.419-5.203-11.622-11.622-11.622-1.485 0-2.906.278-4.212.786 2.505-8.447 7.003-16.609 13.536-24.489 15.47 4.072 26.927 18.037 27.197 34.72zm-48.144 5.944l.001 62.86h-24.904l-.002-62.86h24.905z"/>
        <path fill="#41A03E" d="M112.634 109.589h24.818c1.118-22.95 15.165-43.705 42.141-62.266-39.233 13-61.552 33.756-66.96 62.266z"/>
    </g>
</svg>
