<svg xmlns="http://www.w3.org/2000/svg" xmlns:xlink="http://www.w3.org/1999/xlink" width="2250" height="400" viewBox="0 0 2250 400">
    <defs>
        <radialGradient id="hhxbcxkdab" cx="28.48%" cy="10.836%" r="351.376%" fx="28.48%" fy="10.836%" gradientTransform="scale(.19675 1) rotate(10.01 .866 6.747)">
            <stop offset="0%" stop-color="#1889FD"/>
            <stop offset="100%" stop-color="#1554CD"/>
        </radialGradient>
        <path id="nsg5hidn6a" d="M0 0H2250V400H0z"/>
    </defs>
    <g fill="none" fill-rule="evenodd">
        <mask id="epxek4iy0c" fill="#fff">
            <use xlink:href="#nsg5hidn6a"/>
        </mask>
        <use fill="#FFB400" xlink:href="#nsg5hidn6a"/>
        <path fill="url(#hhxbcxkdab)" d="M-43 0H2295V460H-43z" mask="url(#epxek4iy0c)"/>
        <g mask="url(#epxek4iy0c)">
            <g>
                <path fill="#FFF" fill-rule="nonzero" d="M499.663 267.167v4.155h4.174c1.75.011 3.163 1.437 3.163 3.19-.011 1.743-1.422 3.155-3.163 3.166h-4.174v4.155c0 .842-.333 1.645-.925 2.24-.595.593-1.4.927-2.238.927-.841 0-1.643-.334-2.238-.926-.592-.596-.925-1.401-.925-2.24v-4.156h-4.174c-1.741-.011-3.152-1.423-3.163-3.167 0-1.752 1.413-3.178 3.163-3.19h4.174v-4.154c0-.842.333-1.645.925-2.24.595-.593 1.4-.927 2.238-.927.841 0 1.643.334 2.238.926.592.596.925 1.401.925 2.24zM13.663 59.167v4.155h4.174c1.75.011 3.163 1.437 3.163 3.19-.011 1.743-1.422 3.155-3.163 3.166h-4.174v4.155c0 .842-.333 1.645-.925 2.24-.595.593-1.4.927-2.238.927-.841 0-1.643-.334-2.238-.926-.592-.596-.925-1.401-.925-2.24v-4.156H3.163C1.422 69.667.011 68.255 0 66.511c0-1.752 1.413-3.178 3.163-3.19h4.174v-4.154c0-.842.333-1.645.925-2.24.595-.593 1.4-.927 2.238-.927.841 0 1.643.334 2.238.926.592.596.925 1.401.925 2.24zM945.663 82.167v4.155h4.174c1.75.011 3.163 1.437 3.163 3.19-.011 1.743-1.422 3.155-3.163 3.166h-4.174v4.155c0 .842-.333 1.645-.925 2.24-.595.593-1.4.927-2.238.927-.841 0-1.643-.334-2.238-.926-.592-.596-.925-1.401-.925-2.24v-4.156h-4.174c-1.741-.011-3.152-1.423-3.163-3.167 0-1.752 1.413-3.178 3.163-3.19h4.174v-4.154c0-.842.333-1.645.925-2.24.595-.593 1.4-.927 2.238-.927.841 0 1.643.334 2.238.926.592.596.925 1.401.925 2.24z" transform="translate(833 24)"/>
                <g>
                    <path fill="#00AEEF" fill-rule="nonzero" d="M19.226 1.908C19.226.853 20.08 0 21.136 0c1.055 0 1.908.853 1.908 1.908v8.6c0 1.054-.853 1.907-1.909 1.907-1.055 0-1.909-.853-1.909-1.908V1.908zM6.177 8.89c-.626-.768-.57-1.885.132-2.584.701-.702 1.816-.758 2.585-.132l6.087 6.174c.626.769.57 1.886-.132 2.585-.702.701-1.816.757-2.586.132L6.177 8.98v-.09zM1.91 23.035c-1.057 0-1.91-.853-1.91-1.909 0-1.055.853-1.908 1.91-1.908h8.601c1.056 0 1.91.853 1.91 1.908 0 1.056-.854 1.909-1.91 1.909H1.91zM8.894 36.079c-.466.57-1.215.828-1.934.66-.716-.166-1.278-.727-1.443-1.443-.169-.719.09-1.468.66-1.934l6.086-6.084c.77-.626 1.887-.57 2.586.132.702.702.758 1.816.132 2.585l-6.087 6.084zM23.044 40.345c0 1.055-.853 1.908-1.909 1.908-1.055 0-1.909-.853-1.909-1.908v-8.6c0-1.054.854-1.908 1.91-1.908 1.055 0 1.908.854 1.908 1.909v8.599zM36.094 33.362c.57.466.828 1.215.66 1.934-.166.716-.728 1.277-1.443 1.442-.72.169-1.469-.09-1.935-.66l-6.11-6.083c-.569-.466-.827-1.216-.659-1.934.166-.716.727-1.277 1.443-1.442.719-.169 1.469.09 1.935.66l6.086 6.083h.023zM40.361 19.218c1.056 0 1.91.853 1.91 1.908 0 1.056-.854 1.909-1.91 1.909H31.76c-1.056 0-1.91-.853-1.91-1.909 0-1.055.854-1.908 1.91-1.908h8.602zM33.376 6.174c.466-.57 1.216-.828 1.935-.66.715.166 1.277.727 1.443 1.443.168.718-.09 1.468-.66 1.934l-6.087 6.084c-.758.539-1.788.466-2.46-.177-.67-.645-.788-1.673-.28-2.45l6.11-6.174z" transform="translate(833 24) translate(831.73)"/>
                </g>
                <g>
                    <path fill="#FFF" fill-rule="nonzero" d="M19.226 1.908C19.226.853 20.08 0 21.136 0c1.055 0 1.908.853 1.908 1.908v8.6c0 1.054-.853 1.907-1.909 1.907-1.055 0-1.909-.853-1.909-1.908V1.908zM6.177 8.89c-.626-.768-.57-1.885.132-2.584.701-.702 1.816-.758 2.585-.132l6.087 6.174c.626.769.57 1.886-.132 2.585-.702.701-1.816.757-2.586.132L6.177 8.98v-.09zM1.91 23.035c-1.057 0-1.91-.853-1.91-1.909 0-1.055.853-1.908 1.91-1.908h8.601c1.056 0 1.91.853 1.91 1.908 0 1.056-.854 1.909-1.91 1.909H1.91zM8.894 36.079c-.466.57-1.215.828-1.934.66-.716-.166-1.278-.727-1.443-1.443-.169-.719.09-1.468.66-1.934l6.086-6.084c.77-.626 1.887-.57 2.586.132.702.702.758 1.816.132 2.585l-6.087 6.084zM23.044 40.345c0 1.055-.853 1.908-1.909 1.908-1.055 0-1.909-.853-1.909-1.908v-8.6c0-1.054.854-1.908 1.91-1.908 1.055 0 1.908.854 1.908 1.909v8.599zM36.094 33.362c.57.466.828 1.215.66 1.934-.166.716-.728 1.277-1.443 1.442-.72.169-1.469-.09-1.935-.66l-6.11-6.083c-.569-.466-.827-1.216-.659-1.934.166-.716.727-1.277 1.443-1.442.719-.169 1.469.09 1.935.66l6.086 6.083h.023zM40.361 19.218c1.056 0 1.91.853 1.91 1.908 0 1.056-.854 1.909-1.91 1.909H31.76c-1.056 0-1.91-.853-1.91-1.909 0-1.055.854-1.908 1.91-1.908h8.602zM33.376 6.174c.466-.57 1.216-.828 1.935-.66.715.166 1.277.727 1.443 1.443.168.718-.09 1.468-.66 1.934l-6.087 6.084c-.758.539-1.788.466-2.46-.177-.67-.645-.788-1.673-.28-2.45l6.11-6.174z" transform="translate(833 24) translate(391 323)"/>
                </g>
                <g>
                    <path fill="#FFF" fill-rule="nonzero" d="M29 2.92C29 1.306 30.341 0 32 0s3 1.306 3 2.92v13.16c0 1.614-1.341 2.92-3 2.92s-3-1.306-3-2.92V2.92zM9.629 13.52c-.906-1.103-.825-2.705.19-3.708 1.017-1.006 2.63-1.087 3.743-.189l8.81 8.857c.905 1.103.824 2.705-.192 3.708-1.016 1.006-2.629 1.087-3.742.189l-8.81-8.728v-.129zM2.92 35C1.306 35 0 33.659 0 32s1.306-3 2.92-3h13.16c1.614 0 2.92 1.341 2.92 3s-1.306 3-2.92 3H2.92zM13.824 54c-.656.802-1.71 1.166-2.722.929-1.007-.234-1.797-1.024-2.03-2.031-.238-1.011.126-2.066.928-2.722l8.565-8.565c1.082-.88 2.654-.802 3.638.186.988.988 1.067 2.556.186 3.638L13.824 54zM35 61.08c0 1.614-1.341 2.92-3 2.92s-3-1.306-3-2.92V47.92c0-1.614 1.341-2.92 3-2.92s3 1.306 3 2.92v13.16zM54.89 50.636c.89.729 1.294 1.902 1.03 3.027-.258 1.12-1.135 1.998-2.252 2.258-1.122.263-2.293-.141-3.02-1.033l-9.539-9.524c-.89-.729-1.293-1.902-1.03-3.027.259-1.12 1.136-1.998 2.253-2.258 1.122-.263 2.293.141 3.02 1.033l9.504 9.524h.035zM61.08 29c1.614 0 2.92 1.341 2.92 3s-1.306 3-2.92 3H47.92C46.306 35 45 33.659 45 32s1.306-3 2.92-3h13.16zM50.128 10.007c.663-.808 1.728-1.174 2.75-.935 1.017.235 1.814 1.03 2.05 2.046.24 1.019-.128 2.082-.938 2.742l-8.65 8.63c-1.077.764-2.54.66-3.494-.25-.954-.916-1.121-2.373-.4-3.476l8.682-8.757z" transform="translate(833 24) translate(916 263)"/>
                </g>
            </g>
        </g>
        <g stroke="#FFF" mask="url(#epxek4iy0c)">
            <g transform="translate(803 -60)">
                <circle cx="614" cy="133" r="128.5" stroke-width="9"/>
                <circle cx="928.5" cy="469.5" r="217" stroke-width="9"/>
                <circle cx="915" cy="248" r="59.5"/>
                <circle cx="40" cy="150" r="38.5" stroke-width="3"/>
                <circle cx="415" cy="440" r="85" stroke-width="2"/>
            </g>
        </g>
    </g>
</svg>
