<svg xmlns="http://www.w3.org/2000/svg" xmlns:xlink="http://www.w3.org/1999/xlink" width="2250" height="460" viewBox="0 0 2250 460">
    <defs>
        <radialGradient id="0coeve6bkb" cx="28.48%" cy="10.836%" r="343.799%" fx="28.48%" fy="10.836%" gradientTransform="scale(.20122 1) rotate(10.233 .85 6.421)">
            <stop offset="0%" stop-color="#1889FD"/>
            <stop offset="100%" stop-color="#1554CD"/>
        </radialGradient>
        <path id="1ivdqzon2a" d="M0 0H2250V460H0z"/>
    </defs>
    <g fill="none" fill-rule="evenodd">
        <mask id="rl5v3dzqwc" fill="#fff">
            <use xlink:href="#1ivdqzon2a"/>
        </mask>
        <use fill="#FFB400" xlink:href="#1ivdqzon2a"/>
        <path fill="url(#0coeve6bkb)" d="M-18 0H2268V460H-18z" mask="url(#rl5v3dzqwc)"/>
        <g mask="url(#rl5v3dzqwc)">
            <g>
                <path fill="#FFF" fill-rule="nonzero" d="M848.401 267.167v4.155h4.162c1.745.011 3.155 1.437 3.155 3.19-.011 1.743-1.418 3.155-3.155 3.166h-4.162v4.155c0 .842-.333 1.645-.923 2.24-.593.593-1.396.927-2.232.927-.84 0-1.639-.334-2.232-.926-.59-.596-.923-1.401-.923-2.24v-4.156h-4.162c-1.737-.011-3.144-1.423-3.155-3.167 0-1.752 1.41-3.178 3.155-3.19h4.162v-4.154c0-.842.333-1.645.923-2.24.593-.593 1.396-.927 2.232-.927.84 0 1.64.334 2.232.926.59.596.923 1.401.923 2.24zM442.484 401.167v4.155h4.161c1.746.011 3.156 1.437 3.156 3.19-.012 1.743-1.419 3.155-3.156 3.166h-4.161v4.155c0 .842-.333 1.645-.924 2.24-.592.593-1.395.927-2.232.927-.839 0-1.639-.334-2.232-.926-.59-.596-.923-1.401-.923-2.24v-4.156h-4.162c-1.737-.011-3.143-1.423-3.155-3.167 0-1.752 1.41-3.178 3.155-3.19h4.162v-4.154c0-.842.333-1.645.923-2.24.593-.593 1.396-.927 2.232-.927.84 0 1.64.334 2.232.926.59.596.924 1.401.924 2.24zM13.627 61.167v4.155h4.162c1.745.011 3.155 1.437 3.155 3.19-.011 1.743-1.418 3.155-3.155 3.166h-4.162v4.155c0 .842-.333 1.645-.923 2.24-.593.593-1.396.927-2.232.927-.839 0-1.639-.334-2.232-.926-.59-.596-.923-1.401-.923-2.24v-4.156H3.155C1.418 71.667.011 70.255 0 68.511c0-1.752 1.41-3.178 3.155-3.19h4.162v-4.154c0-.842.333-1.645.923-2.24.593-.593 1.396-.927 2.232-.927.84 0 1.64.334 2.232.926.59.596.923 1.401.923 2.24zM1293.215 82.167v4.155h4.162c1.745.011 3.155 1.437 3.155 3.19-.011 1.743-1.418 3.155-3.155 3.166h-4.162v4.155c0 .842-.333 1.645-.923 2.24-.593.593-1.396.927-2.232.927-.84 0-1.64-.334-2.232-.926-.59-.596-.923-1.401-.923-2.24v-4.156h-4.162c-1.737-.011-3.144-1.423-3.155-3.167 0-1.752 1.41-3.178 3.155-3.19h4.162v-4.154c0-.842.333-1.645.923-2.24.593-.593 1.396-.927 2.232-.927.839 0 1.639.334 2.232.926.59.596.923 1.401.923 2.24z" transform="translate(482.713 24)"/>
                <g>
                    <path fill="#00AEEF" fill-rule="nonzero" d="M19.175 1.908C19.175.853 20.026 0 21.079 0s1.904.853 1.904 1.908v8.6c0 1.054-.851 1.907-1.904 1.907s-1.904-.853-1.904-1.908V1.908zM6.16 8.89c-.624-.768-.568-1.885.132-2.584.7-.702 1.811-.758 2.579-.132l6.07 6.174c.625.769.569 1.886-.131 2.585-.7.701-1.812.757-2.58.132L6.16 8.98v-.09zM1.904 23.035C.851 23.035 0 22.182 0 21.126c0-1.055.851-1.908 1.904-1.908h8.58c1.052 0 1.904.853 1.904 1.908 0 1.056-.852 1.909-1.905 1.909H1.904zM8.87 36.079c-.464.57-1.212.828-1.929.66-.714-.166-1.274-.727-1.439-1.443-.168-.719.09-1.468.658-1.934l6.07-6.084c.768-.626 1.882-.57 2.58.132.7.702.756 1.816.131 2.585l-6.07 6.084zM22.983 40.345c0 1.055-.851 1.908-1.904 1.908s-1.904-.853-1.904-1.908v-8.6c0-1.054.851-1.908 1.904-1.908s1.904.854 1.904 1.909v8.599zM35.998 33.362c.568.466.826 1.215.658 1.934-.165.716-.725 1.277-1.44 1.442-.716.169-1.464-.09-1.929-.66l-6.093-6.083c-.568-.466-.826-1.216-.658-1.934.166-.716.726-1.277 1.44-1.442.716-.169 1.464.09 1.929.66l6.07 6.083h.023zM40.254 19.218c1.053 0 1.904.853 1.904 1.908 0 1.056-.851 1.909-1.904 1.909h-8.58c-1.052 0-1.904-.853-1.904-1.909 0-1.055.852-1.908 1.905-1.908h8.579zM33.287 6.174c.465-.57 1.213-.828 1.93-.66.714.166 1.274.727 1.439 1.443.168.718-.09 1.468-.658 1.934l-6.07 6.084c-.757.539-1.784.466-2.454-.177-.669-.645-.786-1.673-.28-2.45l6.093-6.174z" transform="translate(482.713 24) translate(1179.584)"/>
                </g>
                <g>
                    <path fill="#FFF" fill-rule="nonzero" d="M19.175 1.908C19.175.853 20.026 0 21.079 0s1.904.853 1.904 1.908v8.6c0 1.054-.851 1.907-1.904 1.907s-1.904-.853-1.904-1.908V1.908zM6.16 8.89c-.624-.768-.568-1.885.132-2.584.7-.702 1.811-.758 2.579-.132l6.07 6.174c.625.769.569 1.886-.131 2.585-.7.701-1.812.757-2.58.132L6.16 8.98v-.09zM1.904 23.035C.851 23.035 0 22.182 0 21.126c0-1.055.851-1.908 1.904-1.908h8.58c1.052 0 1.904.853 1.904 1.908 0 1.056-.852 1.909-1.905 1.909H1.904zM8.87 36.079c-.464.57-1.212.828-1.929.66-.714-.166-1.274-.727-1.439-1.443-.168-.719.09-1.468.658-1.934l6.07-6.084c.768-.626 1.882-.57 2.58.132.7.702.756 1.816.131 2.585l-6.07 6.084zM22.983 40.345c0 1.055-.851 1.908-1.904 1.908s-1.904-.853-1.904-1.908v-8.6c0-1.054.851-1.908 1.904-1.908s1.904.854 1.904 1.909v8.599zM35.998 33.362c.568.466.826 1.215.658 1.934-.165.716-.725 1.277-1.44 1.442-.716.169-1.464-.09-1.929-.66l-6.093-6.083c-.568-.466-.826-1.216-.658-1.934.166-.716.726-1.277 1.44-1.442.716-.169 1.464.09 1.929.66l6.07 6.083h.023zM40.254 19.218c1.053 0 1.904.853 1.904 1.908 0 1.056-.851 1.909-1.904 1.909h-8.58c-1.052 0-1.904-.853-1.904-1.909 0-1.055.852-1.908 1.905-1.908h8.579zM33.287 6.174c.465-.57 1.213-.828 1.93-.66.714.166 1.274.727 1.439 1.443.168.718-.09 1.468-.658 1.934l-6.07 6.084c-.757.539-1.784.466-2.454-.177-.669-.645-.786-1.673-.28-2.45l6.093-6.174z" transform="translate(482.713 24) translate(753.99 366)"/>
                </g>
                <g>
                    <path fill="#FFF" fill-rule="nonzero" d="M28.923 2.92c0-1.614 1.337-2.92 2.992-2.92 1.654 0 2.992 1.306 2.992 2.92v13.16c0 1.614-1.338 2.92-2.992 2.92-1.655 0-2.992-1.306-2.992-2.92V2.92zM9.603 13.52c-.903-1.103-.822-2.705.19-3.708 1.014-1.006 2.623-1.087 3.733-.189l8.786 8.857c.903 1.103.822 2.705-.19 3.708-1.014 1.006-2.623 1.087-3.733.189l-8.786-8.728v-.129zM2.913 35C1.303 35 0 33.659 0 32s1.302-3 2.913-3h13.124c1.61 0 2.912 1.341 2.912 3s-1.302 3-2.912 3H2.913zM13.787 54c-.654.802-1.706 1.166-2.714.929-1.005-.234-1.793-1.024-2.026-2.031-.236-1.011.126-2.066.926-2.722l8.542-8.565c1.08-.88 2.648-.802 3.629.186.985.988 1.064 2.556.185 3.638L13.787 54zM34.907 61.08c0 1.614-1.338 2.92-2.992 2.92-1.655 0-2.992-1.306-2.992-2.92V47.92c0-1.614 1.337-2.92 2.992-2.92 1.654 0 2.992 1.306 2.992 2.92v13.16zM54.745 50.636c.887.729 1.29 1.902 1.027 3.027-.258 1.12-1.132 1.998-2.247 2.258-1.12.263-2.286-.141-3.012-1.033L41 45.364c-.887-.729-1.29-1.902-1.027-3.027.258-1.12 1.132-1.998 2.247-2.258 1.119-.263 2.286.141 3.012 1.033l9.478 9.524h.035zM60.917 29c1.61 0 2.913 1.341 2.913 3s-1.302 3-2.913 3H47.793c-1.61 0-2.913-1.341-2.913-3s1.302-3 2.913-3h13.124zM49.995 10.007c.66-.808 1.723-1.174 2.742-.935 1.014.235 1.81 1.03 2.045 2.046.238 1.019-.128 2.082-.935 2.742l-8.627 8.63c-1.074.764-2.535.66-3.486-.25-.95-.916-1.118-2.373-.397-3.476l8.658-8.757z" transform="translate(482.713 24) translate(1263.63 263)"/>
                </g>
            </g>
        </g>
        <g stroke="#FFF" mask="url(#rl5v3dzqwc)">
            <g transform="translate(452.793 -60)">
                <ellipse cx="962.434" cy="133" stroke-width="9" rx="128.146" ry="128.5"/>
                <ellipse cx="1276.097" cy="469.5" stroke-width="9" rx="216.411" ry="217"/>
                <ellipse cx="1262.633" cy="248" rx="59.34" ry="59.5"/>
                <ellipse cx="39.894" cy="150" stroke-width="3" rx="38.394" ry="38.5"/>
                <ellipse cx="763.963" cy="492" stroke-width="2" rx="84.771" ry="85"/>
            </g>
        </g>
    </g>
</svg>
