<svg xmlns="http://www.w3.org/2000/svg" width="416" height="416" viewBox="0 0 416 416">
    <defs>
        <linearGradient id="eef66uqhia" x1="50%" x2="50%" y1="0%" y2="100%">
            <stop offset="0%" stop-color="#408FDD"/>
            <stop offset="100%" stop-color="#2A5ABF"/>
        </linearGradient>
    </defs>
    <g fill="none" fill-rule="evenodd">
        <path fill="url(#eef66uqhia)" d="M0 0H416V416H0z"/>
        <circle cx="208" cy="208" r="173.333" fill="#FFF"/>
        <path fill="#2A5AC4" fill-rule="nonzero" d="M174.489 137.511c16.567 0 31.283 7.923 40.566 20.187 5.8 7.663 9.48 17.022 10.163 27.2.058.867-34.66 1.296-34.867.263-.4-2.003-1.172-3.873-2.24-5.535-2.876-4.48-7.902-7.448-13.622-7.448-8.749 0-15.875 6.944-16.169 15.621l-.009.557v94.936h-34.667v-94.936c0-28.081 22.764-50.845 50.845-50.845z"/>
        <path fill="#2A5AC4" fill-rule="nonzero" d="M292.349 187.515l.007.84v94.937h-34.667v-94.936c0-8.935-7.243-16.178-16.178-16.178-2.068 0-4.045.388-5.863 1.095 3.487-11.759 9.748-23.12 18.842-34.09 21.535 5.67 37.482 25.108 37.859 48.332zm-67.018 8.275l.002 87.502h-34.666l-.002-87.502h34.666z"/>
        <path fill="#41A03E" d="M190.786 186.548h34.547c1.556-31.947 21.11-60.838 58.66-86.674-54.611 18.096-85.68 46.988-93.207 86.674z"/>
    </g>
</svg>
