<svg xmlns="http://www.w3.org/2000/svg" xmlns:xlink="http://www.w3.org/1999/xlink" width="89" height="89" viewBox="0 0 89 89">
    <defs>
        <circle id="klkkz21iaa" cx="44.5" cy="44.5" r="44.5"/>
        <mask id="v4l32h1qcb" width="89" height="89" x="0" y="0" fill="#fff" maskContentUnits="userSpaceOnUse" maskUnits="objectBoundingBox">
            <use xlink:href="#klkkz21iaa"/>
        </mask>
    </defs>
    <g fill="none" fill-rule="evenodd">
        <path fill-rule="nonzero" stroke="#00AEEF" stroke-linejoin="round" stroke-width="2" d="M66.998 41.415l.002.234V68h-9.17V41.649c0-2.48-1.916-4.49-4.28-4.49-.546 0-1.07.107-1.55.303.922-3.264 2.578-6.417 4.984-9.462 5.696 1.573 9.915 6.969 10.014 13.415zM49 44L49 68H39V44h10zM35.016 28c4.567 0 8.623 2.174 11.182 5.539 1.6 2.103-6.752 7.819-6.81 7.535-.11-.55-.323-1.062-.617-1.518-.793-1.23-2.178-2.044-3.755-2.044-2.412 0-4.376 1.905-4.457 4.286l-.003.153V68H21V41.951C21 34.246 27.275 28 35.016 28z"/>
        <path fill="#00AEEF" d="M39 42.5h9.637c.434-8.846 5.888-16.846 16.363-24-15.234 5.01-23.9 13.01-26 24z"/>
        <use stroke="#00AEEF" stroke-dasharray="4" stroke-width="4" mask="url(#v4l32h1qcb)" xlink:href="#klkkz21iaa"/>
    </g>
</svg>
