<svg xmlns="http://www.w3.org/2000/svg" xmlns:xlink="http://www.w3.org/1999/xlink" width="89" height="89" viewBox="0 0 89 89">
    <defs>
        <circle id="ppkzy61vaa" cx="44.5" cy="44.5" r="44.5"/>
        <mask id="uag5czhs7b" width="89" height="89" x="0" y="0" fill="#fff" maskContentUnits="userSpaceOnUse" maskUnits="objectBoundingBox">
            <use xlink:href="#ppkzy61vaa"/>
        </mask>
    </defs>
    <g fill="none" fill-rule="evenodd">
        <path fill="#00AEEF" fill-rule="nonzero" d="M75.75 28.537H57.094c-5.086 0-9.467 3.427-10.652 8.332l-.002.007-.19.806v-6.419c2.814-.602 4.93-3.091 4.93-6.062 0-3.42-2.803-6.201-6.248-6.201-3.445 0-6.247 2.782-6.247 6.201 0 3.018 2.183 5.54 5.065 6.09v6.391l-.19-.806-.002-.007c-1.185-4.905-5.566-8.332-10.652-8.332H14.25c-.69 0-1.25.56-1.25 1.251v1.021c0 2.459 1.394 4.6 3.439 5.687v.53c0 2.458 1.394 4.6 3.438 5.686v.53c0 3.554 2.914 6.446 6.495 6.446H43.75v3.946h-6.434c-2.497 0-4.529 2.036-4.529 4.538 0 2.502 2.032 4.538 4.529 4.538h6.434v4.014h-6.195c-2.197 0-3.984 1.79-3.984 3.992 0 2.201 1.787 3.992 3.984 3.992h6.195v3.041c0 .691.56 1.251 1.25 1.251s1.25-.56 1.25-1.25v-3.042h9.848c.69 0 1.25-.56 1.25-1.251 0-.69-.56-1.25-1.25-1.25H46.25v-2.98h6.599c2.48 0 4.5-2.024 4.5-4.51 0-2.486-2.02-4.509-4.5-4.509H46.25v-4.072h6.633c2.462 0 4.465-2.007 4.465-4.475 0-.712-.163-1.38-.455-1.973h6.735c3.581 0 6.495-2.891 6.495-6.446v-.53c2.044-1.086 3.438-3.228 3.438-5.686v-.53C75.606 35.41 77 33.268 77 30.81v-1.02c0-.692-.56-1.252-1.25-1.252zm-34.565-3.336c0-2.04 1.68-3.7 3.747-3.7 2.066 0 3.747 1.66 3.747 3.7s-1.68 3.7-3.747 3.7c-2.066 0-3.747-1.66-3.747-3.7zM26.372 47.187c-2.125 0-3.867-1.646-3.988-3.715h8.734c.69 0 1.25-.56 1.25-1.251 0-.69-.56-1.25-1.25-1.25h-8.185c-2.124 0-3.867-1.647-3.988-3.716h.447c.022.002.044.002.067.002h11.542c.69 0 1.25-.56 1.25-1.25 0-.691-.56-1.251-1.25-1.251H19.562c-.022-.002-.044-.002-.067-.002-2.125 0-3.867-1.646-3.988-3.715h17.399c3.927 0 7.307 2.638 8.222 6.415l2.293 9.733h-17.05zm17.378 25.02h-6.195c-.818 0-1.484-.67-1.484-1.49 0-.823.666-1.491 1.484-1.491h6.195v2.98zm9.099-9.497c1.102 0 2 .9 2 2.007 0 1.107-.898 2.007-2 2.007H46.25V62.71h6.599zm-9.099-2.502h-6.434c-1.119 0-2.029-.913-2.029-2.036s.91-2.036 2.029-2.036h6.434v4.072zm11.098-8.547c0 1.088-.881 1.973-1.965 1.973H46.25v-3.946h6.497c1.198 0 2.101.848 2.101 1.973zm15.657-16.907c-.022 0-.045 0-.067.002h-5.996c-.69 0-1.25.56-1.25 1.25 0 .691.56 1.251 1.25 1.251h6.613c-.122 2.068-1.864 3.713-3.988 3.713h-8.185c-.69 0-1.25.56-1.25 1.251 0 .69.56 1.25 1.25 1.25h8.734c-.12 2.07-1.863 3.716-3.988 3.716H46.58l2.294-9.733c.914-3.777 4.294-6.415 8.221-6.415h17.4c-.122 2.069-1.864 3.715-3.989 3.715z"/>
        <use stroke="#00AEEF" stroke-dasharray="4" stroke-width="4" mask="url(#uag5czhs7b)" xlink:href="#ppkzy61vaa"/>
    </g>
</svg>
