<svg xmlns="http://www.w3.org/2000/svg" xmlns:xlink="http://www.w3.org/1999/xlink" width="89" height="89" viewBox="0 0 89 89">
    <defs>
        <circle id="8su11nkwia" cx="44.5" cy="44.5" r="44.5"/>
        <mask id="vhbop34zib" width="89" height="89" x="0" y="0" fill="#fff" maskContentUnits="userSpaceOnUse" maskUnits="objectBoundingBox">
            <use xlink:href="#8su11nkwia"/>
        </mask>
    </defs>
    <g fill="none" fill-rule="evenodd">
        <use stroke="#00AEEF" stroke-dasharray="4" stroke-width="4" mask="url(#vhbop34zib)" xlink:href="#8su11nkwia"/>
        <path fill="#00AEEF" fill-rule="nonzero" d="M44.5 67.969c-.482 0-.873.393-.873.879 0 .485.39.879.873.879.482 0 .873-.394.873-.88 0-.485-.391-.878-.873-.878zm0-5.274c-.482 0-.873.394-.873.88 0 .485.39.878.873.878.482 0 .873-.393.873-.879 0-.485-.391-.879-.873-.879zm0 10.547c-.482 0-.873.394-.873.88 0 .484.39.878.873.878.482 0 .873-.394.873-.879s-.391-.879-.873-.879zm17.149-18.031l-3.886-1.317c2.148-1.54 3.494-4.068 3.494-6.797.006-.012 0-15.224 0-15.224 0-4.506-1.742-8.743-4.907-11.93C53.184 16.755 48.976 15 44.5 15c-2.875 0-5.712.746-8.203 2.156-.42.238-.57.774-.333 1.197.236.423.769.573 1.189.336 2.23-1.263 4.771-1.931 7.347-1.931 4.01 0 7.78 1.572 10.615 4.427 2.835 2.856 4.397 6.652 4.397 10.688v.004c-.507-.293-1.094-.462-1.72-.462h-.838c-2.335-.404-4.626-1.07-6.81-1.982-1.66-.695-3.275-1.538-4.798-2.508-.534-.34-1.23-.308-1.732.079-1.188.913-2.47 1.704-3.813 2.348-2.411 1.158-5.006 1.852-7.713 2.063h-.88c-.626 0-1.213.169-1.72.462v-.004c0-4.09 1.597-7.92 4.496-10.786.344-.34.349-.897.01-1.243-.337-.346-.89-.352-1.234-.011-3.235 3.198-5.017 7.475-5.017 12.04v15.223c0 2.73 1.346 5.258 3.494 6.798l-3.886 1.317C24.151 56.295 22 59.308 22 62.708v11.413c0 .485.39.879.873.879.482 0 .873-.394.873-.879V62.708c0-2.644 1.673-4.988 4.162-5.831l1.517-.514c-.224.929-.324 1.886-.289 2.834.033.9.184 1.785.445 2.643-1.696.512-2.935 2.098-2.935 3.97v3.577c0 .885.715 1.604 1.594 1.604h.978c.482 0 .873-.393.873-.879 0-.485-.39-.878-.873-.878h-.826V65.81c0-1.316 1.063-2.386 2.369-2.387h.004c1.306.001 2.368 1.071 2.368 2.387v3.424h-.826c-.482 0-.873.393-.873.878 0 .486.391.88.873.88h.978c.88 0 1.594-.72 1.594-1.605V65.81c0-2.075-1.522-3.799-3.502-4.099-.296-.832-.464-1.696-.496-2.579-.043-1.17.16-2.358.587-3.461l5.954-2.018 6.248 6.29c.51.52 1.38.522 1.893 0l1.724-1.735c.341-.344.341-.9 0-1.243-.34-.344-.893-.344-1.234 0l-1.437 1.446-5.533-5.572c.82-.718 1.194-1.812 1.11-2.917 1.338.47 2.77.727 4.26.733 1.502.005 2.972-.242 4.353-.718-.142 1.12.373 2.34 1.24 3.007l-1.119 1.126c-.34.343-.34.9 0 1.243.341.343.894.343 1.235 0l1.59-1.601 5.316 1.801c.402 1.03.61 2.143.599 3.245-.01.999-.2 2.007-.549 2.948-2.269.299-4.027 2.257-4.027 4.622 0 2.571 2.078 4.663 4.631 4.663 2.554 0 4.632-2.092 4.632-4.663 0-2.152-1.457-3.968-3.43-4.503.312-.986.479-2.023.489-3.05.008-.861-.094-1.728-.299-2.568l1.978.67c2.49.843 4.162 3.187 4.162 5.831v11.413c0 .485.391.879.873.879s.873-.394.873-.879V62.708c0-3.4-2.15-6.412-5.351-7.497zm-3.901-22.038h.045c.945 0 1.715.773 1.719 1.724v.014c-.005.964-.802 1.751-1.764 1.724v-3.462zm-28.26 1.724c.003-.964.803-1.751 1.764-1.724v3.462c-.962.027-1.76-.758-1.764-1.724v-.014zm8.96 15.502c0 .63-.398 1.187-.99 1.388l-4.006 1.357c-2.382-1.027-3.964-3.42-3.964-6.047V37.93c.548.32 1.153.473 1.818.462.415 4.69 3.208 8.703 7.142 10.77v1.236zm6.011-1.502c-6.32-.022-11.461-5.278-11.461-11.717v-4.085c2.642-.292 5.18-1.016 7.555-2.156 1.404-.674 2.747-1.496 3.995-2.442 1.567.986 3.224 1.847 4.928 2.56 2.098.876 4.29 1.538 6.526 1.971v4.288c0 3.1-1.201 6.014-3.383 8.203-2.219 2.226-4.99 3.389-8.16 3.378zm11.089 4.246l-4.006-1.357c-.592-.2-.99-.757-.99-1.387v-1.211c1.202-.623 2.314-1.435 3.3-2.424 2.258-2.266 3.604-5.206 3.853-8.371.642.009 1.28-.154 1.807-.462v9.165c0 2.628-1.582 5.02-3.964 6.047zm5.06 13.185c0 1.602-1.294 2.906-2.885 2.906-1.592 0-2.886-1.304-2.886-2.906 0-1.6 1.293-2.903 2.882-2.905h.005c1.59 0 2.884 1.304 2.884 2.905zM50.144 33.89c-.482 0-.873.393-.873.879v2.01c0 .486.391.88.873.88s.873-.394.873-.88v-2.01c0-.486-.39-.88-.873-.88zm-4.405 8.35c-.196.141-.608.38-1.162.4-.625.022-1.094-.241-1.317-.4-.394-.28-.938-.187-1.217.209-.279.396-.186.944.207 1.225.387.276 1.18.725 2.25.725.938 0 1.809-.41 2.25-.725.393-.282.486-.83.206-1.226-.279-.396-.824-.489-1.217-.208zm-6.884-8.35c-.482 0-.872.393-.872.879v2.01c0 .486.39.88.872.88.483 0 .873-.394.873-.88v-2.01c0-.486-.39-.88-.873-.88z"/>
    </g>
</svg>
