<svg xmlns="http://www.w3.org/2000/svg" xmlns:xlink="http://www.w3.org/1999/xlink" width="89" height="89" viewBox="0 0 89 89">
    <defs>
        <circle id="01848fc6ta" cx="44.5" cy="44.5" r="44.5"/>
        <mask id="lhlwpgbe3b" width="89" height="89" x="0" y="0" fill="#fff" maskContentUnits="userSpaceOnUse" maskUnits="objectBoundingBox">
            <use xlink:href="#01848fc6ta"/>
        </mask>
    </defs>
    <g fill="none" fill-rule="evenodd">
        <path fill="#00AEEF" fill-rule="nonzero" d="M38.801 33.788c-.485 0-.878.393-.878.879v.94c0 .485.393.878.878.878.486 0 .88-.393.88-.879v-.94c0-.485-.394-.878-.88-.878zM50.074 33.788c-.486 0-.879.393-.879.879v.94c0 .485.393.878.879.878.485 0 .879-.393.879-.879v-.94c0-.485-.394-.878-.879-.878zM47.882 40.625c-.341-.346-.898-.35-1.243-.008-.321.316-1.09.686-2.201.686s-1.88-.37-2.201-.686c-.346-.341-.902-.337-1.243.008-.341.346-.337.902.008 1.243.757.747 2.041 1.193 3.436 1.193 1.394 0 2.678-.446 3.435-1.193.346-.34.35-.897.009-1.243zM39.74 30.97h-1.878c-.485 0-.879.393-.879.879 0 .485.394.878.88.878h1.878c.485 0 .879-.393.879-.878 0-.486-.394-.88-.88-.88zM51.013 30.97h-1.878c-.486 0-.88.393-.88.879 0 .485.394.878.88.878h1.878c.486 0 .88-.393.88-.878 0-.486-.394-.88-.88-.88z"/>
        <path fill="#00AEEF" fill-rule="nonzero" d="M63.261 56.864l-6.335-1.948c.01-.191-.003-.385-.049-.576-.138-.587-.527-1.079-1.067-1.349l-3.918-1.958v-2.794c2.931-2.039 4.994-5.243 5.51-8.936h.523c1.713 0 3.182-1.273 3.345-2.898.09-.91-.207-1.82-.818-2.494-.295-.327-.652-.585-1.045-.766v-9.751c0-3.592-2.922-6.515-6.515-6.515h-.148C51.16 15.712 48.836 15 46.258 15c-5.49 0-8.013 1.144-10.933 2.468-1.56.708-3.173 1.439-5.46 2.108-.24.07-.439.239-.546.465-.108.226-.114.486-.018.717.027.064.42.976 1.433 2.083-.438.539-1.266 1.916-1.266 4.624v5.72c-1.011.482-1.75 1.437-1.862 2.56-.091.911.206 1.82.817 2.496.61.675 1.483 1.062 2.394 1.062h.656c.515 3.694 2.578 6.899 5.51 8.937v2.792l-3.918 1.96c-.54.27-.929.76-1.067 1.348-.045.191-.06.385-.05.576l-6.334 1.948c-2.752.846-4.6 3.348-4.6 6.227v11.03c0 .486.393.88.878.88.486 0 .88-.394.88-.88v-11.03c0-2.102 1.35-3.929 3.359-4.547l6.59-2.026 1.162 1.551-1.321 1.322c-.84.84-1.049 2.12-.517 3.183l2.516 5.032h-2.396v-1c0-.486-.393-.879-.879-.879-.485 0-.879.393-.879.879v1H26.59c-.485 0-.879.393-.879.879v5.636c0 .486.394.88.88.88h9.393c.486 0 .88-.394.88-.88v-1.913l1.152 2.306c.154.308.465.486.787.486.132 0 .266-.03.393-.093.434-.217.61-.745.393-1.18l-5.97-11.94c-.193-.385-.118-.849.187-1.154l1.86-1.86c.31-.31.344-.8.082-1.15l-1.991-2.654c-.066-.088-.058-.179-.047-.225.01-.046.044-.131.143-.18l3.461-1.731 2.444 8.378c.136.467.624.734 1.09.598.466-.136.734-.624.598-1.09l-.386-1.32c1.081.375 2.224.57 3.379.57 1.156 0 2.298-.194 3.378-.57l-3.378 11.583-1.897-6.503c-.136-.466-.624-.734-1.09-.598-.466.136-.733.624-.597 1.09l2.74 9.396c.11.375.453.633.844.633.39 0 .734-.258.844-.633l6.28-21.534 3.462 1.73c.099.05.132.135.143.18.01.047.02.138-.047.226l-1.991 2.655c-.263.35-.228.84.081 1.149l1.861 1.86c.305.305.38.77.187 1.155l-5.97 11.94c-.217.434-.041.962.393 1.18.126.062.26.092.392.092.323 0 .633-.178.787-.486l5.97-11.94c.532-1.063.324-2.343-.516-3.183l-1.322-1.322 1.163-1.55 6.59 2.025c2.01.618 3.36 2.446 3.36 4.548v11.03c0 .485.393.878.878.878.486 0 .879-.393.879-.879v-11.03c0-2.878-1.849-5.381-4.6-6.227zM35.104 73.242h-7.636v-3.878h2.94v.06c0 .486.393.879.878.879.486 0 .879-.393.879-.879v-.06h2.94v3.878zm.947-54.173c2.848-1.291 5.097-2.311 10.207-2.311 3.242 0 6.14 1.357 6.74 3.156.153.461.65.71 1.112.556.46-.153.709-.651.555-1.111-.05-.152-.11-.3-.179-.447 1.842.657 3.164 2.418 3.164 4.482v9.454h-1c-.552 0-1-.448-1-1v-.939c0-4.075-2.95-7.071-3.076-7.197-.231-.232-.573-.315-.886-.217-4.879 1.541-11.758 2.84-16.823.277-1.802-.912-2.866-2.07-3.426-2.845 1.866-.613 3.312-1.269 4.612-1.858zM50.135 51.45l-1.679 5.756c-1.23.659-2.612 1.006-4.018 1.006-1.406 0-2.789-.347-4.018-1.006l-1.68-5.756v-2.18c1.724.836 3.657 1.306 5.698 1.306 2.04 0 3.973-.47 5.697-1.307v2.181zm-5.697-2.632c-6.25 0-11.333-5.084-11.333-11.333 0-.486-.394-.879-.88-.879-.485 0-.878.393-.878.879v.06h-.53c-.415 0-.812-.176-1.09-.484-.282-.311-.414-.716-.372-1.14.074-.737.775-1.315 1.596-1.315h1.275c1.52 0 2.757-1.237 2.757-2.757V28.53c0-.485-.393-.879-.879-.879-.485 0-.878.394-.878.88v3.317c0 .55-.449 1-1 1h-1v-5.384c0-2.045.55-3.062.803-3.423.537.424 1.167.843 1.904 1.227 1.992 1.038 4.363 1.613 7.046 1.709 3.146.113 6.74-.439 10.692-1.637.698.844 2.221 2.985 2.221 5.568v.94c0 1.52 1.237 2.757 2.758 2.757h1.409c.415 0 .812.177 1.09.484.282.312.414.717.372 1.14-.074.738-.775 1.315-1.596 1.315h-.397v-.051c0-.485-.393-.879-.878-.879-.486 0-.88.393-.88.878-.004 6.245-5.088 11.325-11.332 11.325z"/>
        <path fill="#00AEEF" fill-rule="nonzero" d="M62.286 68.076h-1.47v-1.47c0-.486-.393-.879-.878-.879-.486 0-.88.393-.88.879v1.47H57.59c-.485 0-.879.393-.879.878 0 .486.394.88.88.88h1.469v1.469c0 .485.393.879.879.879.485 0 .879-.394.879-.88v-1.469h1.47c.485 0 .878-.393.878-.879 0-.485-.394-.878-.879-.878z"/>
        <use stroke="#00AEEF" stroke-dasharray="4" stroke-width="4" mask="url(#lhlwpgbe3b)" xlink:href="#01848fc6ta"/>
    </g>
</svg>
