<?xml version="1.0" encoding="utf-8"?>
<!-- Generator: Adobe Illustrator 16.2.0, SVG Export Plug-In . SVG Version: 6.00 Build 0)  -->
<!DOCTYPE svg PUBLIC "-//W3C//DTD SVG 1.1//EN" "http://www.w3.org/Graphics/SVG/1.1/DTD/svg11.dtd">
<svg version="1.1" id="Layer_1" xmlns="http://www.w3.org/2000/svg" xmlns:xlink="http://www.w3.org/1999/xlink" x="0px" y="0px"
	 width="440px" height="440px" viewBox="0 0 440 440" enable-background="new 0 0 440 440" xml:space="preserve">
<g>
	<path fill="#039FF4" d="M152.715,362.178c-13.269,3.615-26.956-4.211-30.57-17.479c-0.17-0.626-0.317-1.259-0.438-1.896
		c-3.071-16.164-15.157-29.124-31.067-33.316c-13.298-3.502-21.239-17.123-17.734-30.422c0.165-0.628,0.354-1.249,0.569-1.861
		c5.421-15.533,1.435-32.801-10.248-44.385c-9.765-9.684-9.831-25.45-0.147-35.214c0.457-0.462,0.932-0.904,1.423-1.328
		c12.462-10.742,17.643-27.688,13.318-43.562c-3.615-13.269,4.211-26.956,17.479-30.57c0.626-0.17,1.259-0.317,1.896-0.438
		c16.164-3.071,29.124-15.157,33.315-31.067c3.503-13.298,17.124-21.239,30.422-17.734c0.628,0.165,1.249,0.354,1.861,0.569
		c15.534,5.421,32.801,1.435,44.385-10.248c9.683-9.765,25.449-9.831,35.214-0.147c0.462,0.457,0.903,0.932,1.327,1.423
		c10.742,12.462,27.688,17.643,43.563,13.318c13.269-3.614,26.955,4.211,30.57,17.48c0.17,0.626,0.316,1.258,0.438,1.896
		c3.071,16.164,15.157,29.124,31.066,33.315c13.298,3.503,21.239,17.124,17.734,30.422c-0.165,0.628-0.354,1.249-0.568,1.861
		c-5.422,15.534-1.435,32.801,10.247,44.386c9.765,9.683,9.831,25.449,0.147,35.214c-0.457,0.462-0.933,0.903-1.424,1.327
		c-12.462,10.742-17.643,27.688-13.317,43.563c3.614,13.268-4.212,26.955-17.48,30.57c-0.626,0.17-1.258,0.316-1.896,0.438
		c-16.164,3.071-29.124,15.157-33.315,31.066c-3.503,13.299-17.124,21.238-30.423,17.734c-0.628-0.164-1.248-0.354-1.861-0.568
		c-15.533-5.422-32.801-1.436-44.385,10.248c-9.684,9.764-25.45,9.83-35.214,0.146c-0.461-0.457-0.904-0.932-1.328-1.424
		C185.535,363.034,168.589,357.854,152.715,362.178L152.715,362.178z"/>
	<g enable-background="new    ">
		<path d="M112.167,220.528l-2.41-59.839l7.976,2.438l2.41,59.839L112.167,220.528z"/>
		<path d="M142.535,222.473c0.16-4.972,1.041-10.076,2.643-15.317c1.603-5.24,3.729-9.975,6.383-14.204
			c2.651-4.229,5.652-7.715,9-10.456l8.549,2.614c-3.708,3.509-6.787,7.284-9.234,11.324c-2.449,4.042-4.421,8.51-5.918,13.405
			c-1.497,4.897-2.361,9.705-2.59,14.424c-0.23,4.719,0.211,9.57,1.323,14.552l-8.549-2.614
			C142.911,232.019,142.374,227.442,142.535,222.473z"/>
		<path d="M186.634,212.646c-1.286-1.334-2.148-2.894-2.584-4.681c-0.438-1.784-0.381-3.576,0.168-5.374s1.504-3.314,2.866-4.552
			c1.36-1.235,2.95-2.056,4.768-2.464c1.818-0.406,3.646-0.328,5.481,0.232c1.836,0.562,3.384,1.517,4.646,2.864
			c1.261,1.349,2.109,2.915,2.547,4.7c0.436,1.786,0.38,3.578-0.169,5.376s-1.506,3.314-2.866,4.55
			c-1.362,1.237-2.938,2.051-4.731,2.444c-1.793,0.393-3.607,0.309-5.443-0.253C189.482,214.929,187.92,213.979,186.634,212.646z
			 M196.958,210.688c1.329-0.724,2.228-1.85,2.696-3.379c0.468-1.53,0.352-2.968-0.345-4.31c-0.698-1.343-1.813-2.249-3.342-2.717
			c-1.53-0.468-2.96-0.34-4.289,0.384c-1.33,0.722-2.229,1.85-2.696,3.38c-0.468,1.529-0.353,2.965,0.345,4.309
			c0.698,1.342,1.812,2.247,3.342,2.715C194.198,211.538,195.628,211.411,196.958,210.688z"/>
		<path d="M211.023,215.679l22.263,6.807l-6.807,22.264l-22.263-6.807L211.023,215.679z M223.305,238.507l3.859-12.623
			l-12.966-3.964l-3.859,12.623L223.305,238.507z"/>
		<path d="M245.045,230.504c-1.287-1.335-2.148-2.894-2.584-4.682c-0.438-1.784-0.381-3.576,0.168-5.374s1.504-3.314,2.866-4.552
			c1.36-1.235,2.95-2.056,4.769-2.463c1.818-0.406,3.645-0.329,5.48,0.232s3.385,1.517,4.646,2.864
			c1.26,1.348,2.109,2.914,2.547,4.699c0.436,1.787,0.381,3.578-0.169,5.376s-1.506,3.315-2.866,4.55
			c-1.361,1.238-2.938,2.051-4.73,2.445c-1.793,0.393-3.607,0.309-5.443-0.253S246.33,231.838,245.045,230.504z M255.367,228.546
			c1.33-0.723,2.229-1.85,2.697-3.379c0.467-1.53,0.352-2.967-0.346-4.31c-0.698-1.343-1.813-2.249-3.342-2.716
			c-1.531-0.469-2.961-0.341-4.289,0.383c-1.33,0.723-2.229,1.85-2.697,3.38c-0.467,1.529-0.352,2.966,0.346,4.309
			c0.697,1.342,1.812,2.247,3.342,2.716C252.607,229.396,254.039,229.269,255.367,228.546z"/>
		<path d="M268.708,274.284c3.708-3.508,6.796-7.281,9.263-11.314c2.467-4.035,4.449-8.5,5.947-13.397
			c1.496-4.896,2.35-9.706,2.561-14.432c0.211-4.724-0.24-9.579-1.352-14.562l8.55,2.614c1.292,4.118,1.854,8.671,1.69,13.66
			c-0.168,4.99-1.057,10.124-2.67,15.402c-1.615,5.279-3.733,10.017-6.354,14.213c-2.623,4.197-5.65,7.674-9.086,10.43
			L268.708,274.284z"/>
		<path d="M340.127,231.12l7.977,2.438l-35.461,48.262l-7.975-2.438L340.127,231.12z"/>
	</g>
</g>
</svg>
