<svg xmlns="http://www.w3.org/2000/svg" width="416" height="416" viewBox="0 0 416 416">
    <defs>
        <linearGradient id="a" x1="50%" x2="50%" y1="0%" y2="100%">
            <stop offset="0%" stop-color="#042D64"/>
            <stop offset="100%" stop-color="#0451C3"/>
        </linearGradient>
    </defs>
    <g fill="none" fill-rule="evenodd">
        <path fill="#FFF" d="M0 0h416v416H0z"/>
        <path fill="url(#a)" d="M0 0h416v416H0z"/>
        <g fill-rule="nonzero">
            <path fill="#FFF" stroke="#FFF" stroke-width=".2" d="M297 194h63v31h-63z"/>
            <path fill="#FAFAFC" d="M328.996 227.595l-33.835-.144c-.507-4.462-.628-33.123.266-36.56h33.545a21.623 21.623 0 0 0-3.19-9.736 11.197 11.197 0 0 0-8.99-4.176c-8.411-.31-17.377 0-25.836 0-10.199 0-15.298-1.146-19.19 6.562-3.214 6.324-2.851 43.17-.531 48.516 3.432 7.804 8.193 7.589 17.908 7.589h25.836c10.198 0 12.47-6.324 13.92-11.932l.097-.12zM363 190.605c0 4.487-.218 35.486 0 37.109 0 13.292-9.667 23.53-24.458 25.32-14.355 1.742-34.874.596-49.882.596-14.187 0-33.448 2.196-43.212-6.658-11.117-10.094-9.909-22.862-9.909-40.306 0-11.002-.652-22.242 5.269-31.811 10.174-14.319 33.569-11.55 50.752-11.694 9.522 0 41.085-.668 48.166.716 11.577 1.647 21.196 10.524 23.177 26.728H363zM79.802 163.042c12.084 0 21.582-1.456 22.718 12.791.314 11.932.314 60.973.241 77.893-7.564-.191-16.917.525-24.167-.143-10.658-.955-9.837-8.735-9.812-17.875v-52.143c0-8.185 1.087-6.205-15.782-6.563 5.97-11.311 14.283-13.96 26.826-13.96h-.024zm152.04 79.372s0 11.193-33.835 11.216H153.61c-14.814 0-27.406.31-35.454-8.996-8.362-9.713-7.105-22.743-7.105-36.775 0-12.6-.967-26.585 7.25-36.584 7.42-8.925 25.376-7.97 35.479-7.97 11.745 0 53.87-.693 65.035 1.431 4.834 1.48 12.084 4.415 13.365 9.331-.701 2.387-1.958 4.32-2.634 6.945-2.417 8.877-2.417 37.824-1.354 46.845a60.623 60.623 0 0 0 3.553 14.557h.097zm-77.652-65.077c-9.232 2.386-9.087 12.29-9.062 21.62 0 7.804-.943 23.053.555 29.95 2.417 11.05 8.097 10.715 19.335 10.715 5.824 0 25.81.74 30.016-.334 9.546-2.386 9.16-14.629 9.135-21.478 0-8.209.822-22.384-.531-29.878-1.958-10.882-8.145-11.12-19.335-11.12-5.848 0-26.004-.693-30.113.405v.12z"/>
            <path fill="#B95D31" d="M318.765 201.873l9.1.429v3.117c-3.122-.167-6.196 0-9.27 0l.17-3.546zm38.087-1.95c.292 4.758.536 5.472-1.88 8.446 3.417 5.663 3.514 12.706-4.635 12.944-6.978.19-14.37 0-21.47 0V201.16c-3.221-.118-7.467 0-10.712 0v20.178h-7.124v-20.225h-11.419v-4.95a8.537 8.537 0 0 0-.683 5.711h11.419v4.188h-12.859c-3.806 1.5-2.952 14.277-2.147 18.155-2.05 3.212 0 .547-.732 2.118 0-6.567-.927-30.171.244-35.002 8.467-.19 62.73-.999 66.853.19l-.537 34.574c-.39-.643.488.143.268-1.07-.22-1.214-.22-13.992-.731-18.18-.757-.428-.196-.214-.976-.618-.708-2.237-1.196 0-2.294-.762l-.585-5.544zM328.037 227H363v-37l-34.89.19-34.402-.19c0 3.522-.684 32.503-.708 37h35.037z"/>
            <path fill="#CB762F" d="M299.326 195.654h53.587c2.207.317 3.847 2.153 3.859 4.322l.17 2.612-.121 2.518v.332a5.17 5.17 0 0 1 3.321 2.066c.88 1.021.733 18.309.733 19.496H363v-36.926c-4.274 0-61.525-.166-70 0V227h2.125c.904-14.39 0-20.208 3.126-20.588 1.905-.262 6.18-.31 12.603-.31v-4.748h-11.43v-5.7h-.098z"/>
            <path fill="#B95D31" d="M336 217h13.406c2.125 0 2.125-5 0-5H336v5z"/>
            <path fill="#CB762F" d="M349.912 206c1.45 0 1.45-4 0-4H336v4h13.912zM318 207h11v-5h-11v5z"/>
        </g>
    </g>
</svg>
