<svg xmlns="http://www.w3.org/2000/svg" xmlns:xlink="http://www.w3.org/1999/xlink" width="416" height="416" viewBox="0 0 416 416">
    <defs>
        <path id="a" d="M0 0h1440v460H0z"/>
        <linearGradient id="b" x1="0%" y1="0%" y2="100%">
            <stop offset="0%" stop-color="#C52461"/>
            <stop offset="100%" stop-color="#A9203E"/>
        </linearGradient>
    </defs>
    <g fill="none" fill-rule="evenodd">
        <use fill="#FFF" opacity=".6" transform="translate(-519 -22)" xlink:href="#a"/>
        <path fill="url(#b)" d="M271.616 0H417v417H0V145.384 0h271.616z" transform="translate(-1 -1)"/>
        <path fill="#FFF" d="M207.5 367.35c-88.283 0-159.85-71.567-159.85-159.85S119.217 47.65 207.5 47.65s159.85 71.567 159.85 159.85-71.567 159.85-159.85 159.85zm32.353-154.496a7.573 7.573 0 0 1 0-10.707l6.664-6.66c2.127-2.13 5.002-3.268 8.007-3.375 8.615-.31 17.119-4.235 23.033-11.803 8.558-10.944 8.462-26.833-.206-37.685-11.585-14.5-32.8-15.378-45.55-2.627-5.69 5.693-8.658 13.07-8.913 20.524-.103 2.994-1.253 5.842-3.368 7.958l-6.667 6.667a7.573 7.573 0 0 1-10.708 0l-6.66-6.663c-2.126-2.127-3.268-4.999-3.375-8.004-.309-8.618-4.234-17.122-11.803-23.04-10.944-8.55-26.836-8.459-37.685.213-14.499 11.585-15.373 32.797-2.623 45.547 5.69 5.694 13.067 8.657 20.524 8.913 2.99.103 5.839 1.252 7.958 3.368l6.667 6.667a7.573 7.573 0 0 1 0 10.707l-6.667 6.663c-2.127 2.127-4.998 3.265-8.003 3.372-8.619.31-17.123 4.235-23.038 11.807-8.553 10.94-8.461 26.833.21 37.681 11.586 14.5 32.802 15.374 45.548 2.627 5.693-5.693 8.656-13.07 8.912-20.524.103-2.99 1.257-5.843 3.368-7.958l6.667-6.667a7.573 7.573 0 0 1 10.708 0l6.663 6.663c2.127 2.127 3.265 4.999 3.375 8.008.31 8.614 4.231 17.118 11.804 23.037 10.943 8.55 26.832 8.458 37.68-.21 14.5-11.59 15.374-32.801 2.628-45.551-5.694-5.69-13.067-8.657-20.525-8.913-2.99-.103-5.842-1.252-7.958-3.368l-6.667-6.667z"/>
    </g>
</svg>
