<svg xmlns="http://www.w3.org/2000/svg" xmlns:xlink="http://www.w3.org/1999/xlink" width="416" height="416" viewBox="0 0 416 416">
    <defs>
        <path id="a" d="M0 0h1440v460H0z"/>
        <linearGradient id="b" x1="0%" y1="0%" y2="100%">
            <stop offset="0%" stop-color="#C52461"/>
            <stop offset="100%" stop-color="#A9203E"/>
        </linearGradient>
    </defs>
    <g fill="none" fill-rule="evenodd">
        <use fill="#FFF" opacity=".6" transform="translate(-519 -22)" xlink:href="#a"/>
        <path fill="url(#b)" d="M174.564 0c26.905 0 40.354 0 54.837 4.578a56.919 56.919 0 0 1 34.02 34.02C268 53.08 268 66.534 268 93.437v81.128c0 26.905 0 40.354-4.578 54.837a56.91 56.91 0 0 1-34.02 34.018C214.917 268 201.468 268 174.563 268H93.436c-26.905 0-40.356 0-54.837-4.58A56.91 56.91 0 0 1 4.579 229.4C0 214.918 0 201.47 0 174.564V93.436C0 66.533 0 53.08 4.578 38.599a56.919 56.919 0 0 1 34.02-34.02C53.08 0 66.532 0 93.437 0h81.128z" transform="translate(74 74)"/>
        <path fill="#FFF" d="M208 310.733c-56.738 0-102.733-45.995-102.733-102.733 0-56.738 45.995-102.733 102.733-102.733 56.738 0 102.733 45.995 102.733 102.733 0 56.738-45.995 102.733-102.733 102.733zm20.793-99.292a4.867 4.867 0 0 1 0-6.881l4.282-4.28c1.367-1.37 3.215-2.101 5.147-2.17 5.536-.199 11.002-2.721 14.803-7.585 5.5-7.034 5.438-17.246-.133-24.22-7.445-9.318-21.08-9.883-29.275-1.689a19.546 19.546 0 0 0-5.728 13.191c-.066 1.924-.805 3.755-2.164 5.115l-4.285 4.285c-1.9 1.9-4.98 1.9-6.881 0l-4.28-4.283c-1.367-1.367-2.101-3.212-2.17-5.144-.199-5.539-2.721-11.004-7.585-14.808-7.034-5.495-17.248-5.436-24.22.138-9.318 7.445-9.88 21.078-1.686 29.272a19.525 19.525 0 0 0 13.19 5.728c1.922.066 3.753.805 5.115 2.165l4.285 4.285a4.867 4.867 0 0 1 0 6.881l-4.285 4.282c-1.367 1.367-3.212 2.099-5.144 2.167-5.539.2-11.004 2.722-14.805 7.589-5.498 7.03-5.439 17.245.135 24.217 7.445 9.318 21.08 9.88 29.272 1.688 3.66-3.659 5.564-8.4 5.728-13.19.067-1.922.808-3.756 2.165-5.115l4.285-4.285a4.867 4.867 0 0 1 6.881 0l4.282 4.282c1.367 1.367 2.099 3.213 2.17 5.147.199 5.536 2.719 11.002 7.586 14.805 7.033 5.495 17.245 5.436 24.217-.135 9.318-7.448 9.88-21.08 1.688-29.275a19.541 19.541 0 0 0-13.19-5.728c-1.922-.066-3.756-.805-5.115-2.164l-4.285-4.285z"/>
    </g>
</svg>
