<svg xmlns="http://www.w3.org/2000/svg" width="268" height="322" viewBox="0 0 268 322">
    <g fill="none" fill-rule="evenodd">
        <path fill="#1A3046" d="M28 0h27.5a4 4 0 0 1 4 4v2.5c0 7.732 6.268 14 14 14H195c7.732 0 14-6.268 14-14V4a4 4 0 0 1 4-4h27c15.464 0 28 12.536 28 28v524c0 15.464-12.536 28-28 28H28c-15.464 0-28-12.536-28-28V28C0 12.536 12.536 0 28 0z"/>
        <path fill="#00AEEF" d="M235 174.938c0-9.392 3.212-17.218 9.637-23.48 6.42-6.26 14.211-9.39 23.363-9.39v66c-9.152 0-16.942-3.171-23.363-9.521-6.425-6.347-9.637-14.219-9.637-23.609z"/>
        <path fill="#FFF" d="M111.479 144.177c-6.328 5.274-10.199 12.485-11.602 21.625h69.885c-1.411-8.968-5.277-16.127-11.604-21.493-6.33-5.36-14.07-8.044-23.206-8.044-9.324 0-17.143 2.637-23.473 7.912zM100.402 189.8c1.934 8.795 6.503 15.737 13.717 20.836 7.205 5.099 16.17 7.647 26.896 7.647 7.386 0 13.932-1.096 19.648-3.297 5.71-2.198 11.03-5.67 15.955-10.416l21.889 23.734c-13.364 15.295-32.88 22.942-58.545 22.942-16 0-30.156-3.12-42.458-9.36-12.308-6.239-21.803-14.902-28.483-25.976C62.337 204.83 59 192.265 59 178.198c0-13.888 3.297-26.414 9.889-37.582 6.594-11.163 15.647-19.864 27.163-26.108 11.513-6.238 24.394-9.36 38.636-9.36 13.885 0 26.457 2.99 37.711 8.964 11.25 5.98 20.082 14.552 26.504 25.714 6.413 11.166 9.624 24.13 9.624 38.897 0 .528-.264 4.222-.792 11.077H100.402z"/>
    </g>
</svg>
