<svg xmlns="http://www.w3.org/2000/svg" xmlns:xlink="http://www.w3.org/1999/xlink" width="416" height="416" viewBox="0 0 416 416">
    <defs>
        <linearGradient id="a" x1="100%" x2="0%" y1="48.427%" y2="48.427%">
            <stop offset="0%" stop-color="#2C3033"/>
            <stop offset="100%" stop-color="#151313"/>
        </linearGradient>
        <path id="b" d="M0 .099h33.95v32.9H0z"/>
        <path id="d" d="M.042.88h24.074v24.037H.042z"/>
    </defs>
    <g fill="none" fill-rule="evenodd">
        <path fill="url(#a)" d="M0 0h416v416H0z"/>
        <g fill="#F5F5F5">
            <path d="M176.294 138.313H347V275.95H176.294zM235.281 40H347v93.844H235.281zM61 40h169.813v93.844H61zM61 138.313h110.825v43.794H61zM61 233.05h110.825V326H61zM235.281 280.419H347V326H235.281z"/>
        </g>
        <path fill="#000" fill-opacity=".5" d="M61 99h170.105v35.516H61zM176 241h171.039v35.516H176zM61 304h111.222v21.497H61z"/>
        <path fill="#F5F5F5" d="M70 106h152.346v8.412H70zM185 248h153.281v8.412H185zM185 260h111.222v8.412H185zM70 312h92.529v8.412H70z"/>
        <path fill="#F9A51A" d="M244 52h49.536v8.412H244z"/>
        <path fill="#7A7A7A" d="M244 65h93.464v5.608H244zM244 74h93.464v5.608H244zM244 85h93.464v5.608H244zM244 94h66.359v5.608H244z"/>
        <path fill="#F5F5F5" d="M70 118h66.359v8.412H70z"/>
        <path fill="#F9A51A" d="M69 147h86v9H69z"/>
        <path fill="#7A7A7A" d="M69 159h96v6H69zM69 170h71v6H69z"/>
        <path fill="#F9A51A" d="M244 290h53v9h-53z"/>
        <path fill="#7A7A7A" d="M244 303h96v6h-96zM244 313h86v6h-86z"/>
        <path fill="#F9A51A" d="M323.273 375.945c-.012 1.016-1.037 2.055-2.526 2.055-1.5 0-2.436-1.135-2.436-2.138l.002-1.734c.017-1.043.95-2.128 2.473-2.128 1.665 0 2.494 1.164 2.494 2.256l-.007 1.69z"/>
        <path fill="#FEFEFE" d="M300.422 349.933c0 1.136-1.037 2.067-2.528 2.067-1.503 0-2.44-1.127-2.44-2.19v-1.463c.019-1.107.9-2.347 2.425-2.347 1.67 0 2.543 1.185 2.543 2.347v1.586z"/>
        <g transform="translate(198.062 348)">
            <mask id="c" fill="#fff">
                <use xlink:href="#b"/>
            </mask>
            <path fill="#F9A51A" d="M22.84 16.393c-.195-3.791-2.98-6.071-6.345-6.071h-.127c-3.884 0-6.037 3.084-6.037 6.588 0 3.922 2.605 6.4 6.022 6.4 3.808 0 6.314-2.817 6.494-6.15l-.008-.767zm-6.453-9.464c2.595 0 5.034 1.159 6.825 2.972v.007c0-.87.58-1.526 1.386-1.526l.203-.003c1.26 0 1.519 1.204 1.519 1.586l.005 13.539c-.09.886.907 1.344 1.458.775 2.152-2.234 4.726-11.485-1.339-16.845C20.792 2.437 13.207 3.26 9.174 6.07c-4.287 2.986-7.031 9.597-4.365 15.807 2.906 6.773 11.219 8.794 16.159 6.778 2.502-1.02 3.658 2.397 1.059 3.513-3.926 1.689-14.854 1.519-19.96-7.414C-1.384 18.724-1.2 8.11 7.948 2.612c7-4.207 16.226-3.043 21.789 2.826 5.816 6.137 5.476 17.626-.195 22.093-2.571 2.03-6.388.054-6.364-2.903l-.027-.967c-1.79 1.794-4.17 2.84-6.765 2.84-5.126 0-9.637-4.556-9.637-9.733 0-5.23 4.511-9.84 9.637-9.84z" mask="url(#c)"/>
        </g>
        <path fill="#FEFEFE" d="M257.439 353.008c-2.773-.042-4.895 1.612-6.204 2.712-1.454-1.6-3.315-2.576-5.228-2.698-2.016-.129-3.908.57-5.108 1.573-.422-1.004-.977-1.595-1.93-1.595-1.04 0-2.15.917-2.15 2.409 0 1.49.014 19.354.014 19.354 0 1.112.923 2.237 2.243 2.237 1.454 0 2.258-1.14 2.258-2.245v-14.356c0-1.396 2.324-3.05 4.29-3.024 1.255.018 2.747 1.288 2.747 3.296l.012 14.119c0 1.247 1.221 2.203 2.33 2.203 1.32 0 2.318-1.024 2.318-2.19v-14.268c0-1.75 2.586-3.215 4.355-3.12 1.387.075 2.613 1.628 2.613 3.12v14.248c0 1.233 1.129 2.21 2.345 2.21 1.067 0 2.302-.726 2.302-2.23v-14.188c.014-5.206-4.989-7.635-7.207-7.567M297.9 353c-1.487.005-2.444 1.145-2.447 2.301l.005 19.446c-.008 1.292 1.083 2.253 2.431 2.253 1.54 0 2.524-1.126 2.524-2.353l.01-19.312c0-1.144-1.233-2.34-2.524-2.335M279.497 372.557c-4.127 0-7.47-3.385-7.47-7.562 0-4.177 3.343-7.561 7.47-7.561 4.126 0 7.471 3.384 7.471 7.56 0 4.178-3.345 7.563-7.471 7.563M289.149 353c-1.288-.001-2.2 1.043-2.2 2.061v.794c-2.034-1.755-4.67-2.843-7.516-2.847-6.26-.01-11.806 5.332-11.806 12.014 0 6.127 5.283 11.978 11.806 11.978 2.639 0 5.476-1.027 7.494-2.77l.007.568c0 1.087.849 2.202 2.248 2.202 1.587 0 2.296-1.284 2.296-2.297v-19.517c.017-.917-.976-2.184-2.329-2.186M313.951 372.4c-3.039 0-5.748-2.237-5.748-5.534l.004-16.721c-.004-1.262-1.079-2.145-2.394-2.145-1.529.006-2.41 1.08-2.41 2.145v16.739c-.017 5.67 4.885 10.116 10.464 10.116 1.658 0 2.456-1.285 2.456-2.375 0-1.04-.856-2.225-2.372-2.225"/>
        <path fill="#F9A51A" d="M338.75 353c-6.758.027-12.521 5.731-12.489 12.009v9.784c0 1.274 1.089 2.207 2.237 2.207 1.365 0 2.427-.965 2.427-2.14v-9.934c-.005-3.557 3.24-7.483 7.796-7.461 1.482.006 2.456-1.071 2.447-2.264-.005-.952-.719-2.207-2.419-2.201"/>
        <g transform="translate(343.155 353)">
            <mask id="e" fill="#fff">
                <use xlink:href="#d"/>
            </mask>
            <path fill="#F9A51A" d="M21.882.88c-1.371 0-2.255 1.13-2.255 2.171l.002 9.873c0 3.809-3.188 7.53-7.623 7.53-3.624 0-7.465-3.165-7.465-7.46v-9.89C4.541 2.069 3.767.88 2.233.88 1.15.88.042 1.794.042 3.06v9.855c0 6.382 5.667 12.001 11.95 12.001 6.858 0 12.124-5.917 12.124-11.972V3.058c0-1.11-.91-2.178-2.234-2.178" mask="url(#e)"/>
        </g>
        <path fill="#FFF" d="M52.026 362.708h9.783v-6.843c0-1.804.672-2.706 2.014-2.706 1.342 0 2.013.902 2.013 2.706v18.334c0 1.782-.671 2.674-2.013 2.674-1.342 0-2.014-.892-2.014-2.674V366.4h-9.783v7.798c0 1.782-.681 2.674-2.044 2.674-1.321 0-1.982-.892-1.982-2.674v-18.334c0-1.804.66-2.706 1.982-2.706 1.363 0 2.044.902 2.044 2.706v6.843zm38.26 2.324c0 3.353-.912 6.132-2.736 8.34-1.95 2.334-4.55 3.5-7.801 3.5-3.23 0-5.82-1.177-7.77-3.532-1.846-2.207-2.768-4.977-2.768-8.308 0-3.374.912-6.154 2.736-8.34 1.95-2.355 4.551-3.533 7.802-3.533 3.271 0 5.882 1.167 7.832 3.501 1.804 2.186 2.706 4.977 2.706 8.372zm-10.537-8.149c-1.783 0-3.272.69-4.467 2.07-1.196 1.379-1.793 3.405-1.793 6.079 0 2.207.482 4.053 1.447 5.538 1.111 1.72 2.716 2.579 4.813 2.579 2.097 0 3.712-.86 4.844-2.579.944-1.464 1.416-3.31 1.416-5.538 0-2.695-.593-4.727-1.778-6.096-1.185-1.368-2.679-2.053-4.482-2.053zm29.578 12.892c0 2.164-.766 3.872-2.296 5.124-1.427 1.146-3.23 1.719-5.411 1.719h-5.41c-.902 0-1.552-.18-1.95-.541-.4-.36-.599-.987-.599-1.878v-18.175c0-1.761.84-2.642 2.517-2.642h4.718c1.846 0 3.43.467 4.75 1.4 1.51 1.04 2.265 2.451 2.265 4.234 0 2.61-.985 4.329-2.957 5.156v.064c2.915.743 4.373 2.589 4.373 5.539zm-5.474-9.931c0-.977-.298-1.714-.896-2.213-.598-.498-1.379-.748-2.344-.748h-2.925v5.953h2.768c2.265 0 3.397-.998 3.397-2.992zm1.322 9.835c0-2.398-1.395-3.597-4.184-3.597h-3.303v7.035h3.177c2.873 0 4.31-1.146 4.31-3.438zm27.565-4.647c0 3.353-.913 6.132-2.737 8.34-1.95 2.334-4.55 3.5-7.801 3.5-3.23 0-5.82-1.177-7.77-3.532-1.846-2.207-2.768-4.977-2.768-8.308 0-3.374.912-6.154 2.736-8.34 1.95-2.355 4.551-3.533 7.802-3.533 3.271 0 5.882 1.167 7.832 3.501 1.804 2.186 2.706 4.977 2.706 8.372zm-10.538-8.149c-1.783 0-3.272.69-4.467 2.07-1.196 1.379-1.793 3.405-1.793 6.079 0 2.207.482 4.053 1.447 5.538 1.111 1.72 2.715 2.579 4.813 2.579 2.097 0 3.711-.86 4.844-2.579.944-1.464 1.415-3.31 1.415-5.538 0-2.695-.592-4.727-1.777-6.096-1.185-1.368-2.679-2.053-4.482-2.053zm30.805 16.552c0 .891-.598 1.666-1.793 2.324-.881.488-1.877.827-2.989 1.018a14.06 14.06 0 0 1-2.453.223c-3.272 0-5.893-1.188-7.865-3.565-1.866-2.228-2.8-5.03-2.8-8.403 0-3.353.944-6.165 2.832-8.435 1.992-2.398 4.624-3.597 7.895-3.597 2.894 0 4.981.764 6.26 2.292.357.424.535.87.535 1.337 0 .466-.173.875-.519 1.225-.346.35-.75.525-1.211.525-.252 0-.577-.116-.975-.35-.86-.488-1.667-.838-2.422-1.05-.483-.128-1.08-.191-1.793-.191-1.993 0-3.576.912-4.75 2.737-1.007 1.592-1.51 3.448-1.51 5.57 0 2.144.514 3.969 1.541 5.475 1.195 1.74 2.8 2.61 4.813 2.61.88 0 1.625-.09 2.233-.27.609-.18 1.243-.44 1.904-.78.66-.34 1.148-.51 1.462-.51.462 0 .844.186 1.148.558.304.371.457.79.457 1.257zm15.863-18.175c0 1.23-.829 1.846-2.485 1.846h-3.209v17.157c0 1.74-.671 2.61-2.013 2.61-1.342 0-2.013-.87-2.013-2.61v-17.157h-3.178c-1.677 0-2.516-.615-2.516-1.846 0-1.252.85-1.878 2.548-1.878h10.318c1.698 0 2.548.626 2.548 1.878zm21.242 19.003c0 1.74-.671 2.61-2.013 2.61-1.343 0-2.014-.86-2.014-2.579v-13.878l-10.79 15.12c-.628.891-1.394 1.337-2.296 1.337-1.195 0-1.793-.775-1.793-2.324v-18.748c0-1.761.671-2.642 2.014-2.642 1.342 0 2.013.88 2.013 2.642v13.846c.042-.042.094-.106.157-.19l10.601-14.865c.671-.955 1.426-1.433 2.265-1.433 1.237 0 1.856.828 1.856 2.483v18.62z"/>
    </g>
</svg>
