<svg xmlns="http://www.w3.org/2000/svg" xmlns:xlink="http://www.w3.org/1999/xlink" width="416" height="416" viewBox="0 0 416 416">
    <defs>
        <path id="b" d="M80.685 58.35l.102 3.78H79.23l.068-3.78C76.868 28.52 52.341 0 21.874 0H0v220h73.855V96.966h12.307V220H160V0h-21.891c-30.45 0-54.943 28.52-57.424 58.35z"/>
        <filter id="a" width="107.5%" height="105.5%" x="-3.8%" y="-1.4%" filterUnits="objectBoundingBox">
            <feOffset dy="3" in="SourceAlpha" result="shadowOffsetOuter1"/>
            <feGaussianBlur in="shadowOffsetOuter1" result="shadowBlurOuter1" stdDeviation="1.5"/>
            <feColorMatrix in="shadowBlurOuter1" values="0 0 0 0 0 0 0 0 0 0 0 0 0 0 0 0 0 0 0.5 0"/>
        </filter>
        <path id="d" d="M8.769 35.613V6.35c0-.343.026-.676.062-1.019h8.892c4.34 0 5.646 1.572 5.646 1.572V0H.159s1.208 3.443 1.208 6.35v71.323S1.032 82.978 0 83.83c.944.096 2.858.096 4.676.079.044 0 8.645.896 12.518-1.458 3.908-2.371 8.795-6.069 8.795-23.098 0-17.003-7.701-23.74-17.22-23.74m6.007 41.006c-1.393 2.196-4.702 2.31-6.007 2.266V40.84c6.052 0 8.24 6.912 8.24 22.088 0 5.305-.512 10.952-2.233 13.692"/>
        <filter id="c" width="146.2%" height="114.3%" x="-23.1%" y="-3.6%" filterUnits="objectBoundingBox">
            <feOffset dy="3" in="SourceAlpha" result="shadowOffsetOuter1"/>
            <feGaussianBlur in="shadowOffsetOuter1" result="shadowBlurOuter1" stdDeviation="1.5"/>
            <feColorMatrix in="shadowBlurOuter1" values="0 0 0 0 0 0 0 0 0 0 0 0 0 0 0 0 0 0 0.5 0"/>
        </filter>
        <path id="f" d="M52.956 73.307v-46.34c0-.355-.311-11.26-10.652-11.26-10.527 0-11.908 13.798-11.908 17.66 0 3.846 1.194 4.34 1.194 4.34h6.742s-.989-3.179-.793-8.003c.196-4.825.49-9.857 4.462-9.857 3.474 0 3.901 3.672 3.901 7.137v15.002l-.035-.017c-11.213 7.423-16.165 18.7-16.165 28.834 0 10.135 6.537 13.903 11.908 13.903 3.366 0 4.854-1.724 5.486-2.989C48.503 83.995 50.623 85 50.623 85l5.068-6.176c-2.093-1.412-2.619-3.898-2.735-5.517M42.5 80.08c-2.645 0-4.23-3.326-4.23-11.555 0-15.01 7.223-20.398 7.632-20.684v29.563c-.187 1.697-1.086 2.676-3.402 2.676"/>
        <filter id="e" width="146.2%" height="117.3%" x="-23.1%" y="-4.3%" filterUnits="objectBoundingBox">
            <feOffset dy="3" in="SourceAlpha" result="shadowOffsetOuter1"/>
            <feGaussianBlur in="shadowOffsetOuter1" result="shadowBlurOuter1" stdDeviation="1.5"/>
            <feColorMatrix in="shadowBlurOuter1" values="0 0 0 0 0 0 0 0 0 0 0 0 0 0 0 0 0 0 0.5 0"/>
        </filter>
        <path id="h" d="M83.9 78.229V15.707h-8.81s1.491 2.825 1.491 5.349v25.6h-8.357v-30.95h-8.82s1.472 2.826 1.472 5.35v57.68c0 2.497-1.473 5.34-1.473 5.34h10.303s-1.482-2.843-1.482-5.34V50.62h8.357v28.116c0 2.497-1.492 5.34-1.492 5.34h10.303s-1.491-2.843-1.491-5.34v-.507"/>
        <filter id="g" width="146.2%" height="117.6%" x="-23.1%" y="-4.4%" filterUnits="objectBoundingBox">
            <feOffset dy="3" in="SourceAlpha" result="shadowOffsetOuter1"/>
            <feGaussianBlur in="shadowOffsetOuter1" result="shadowBlurOuter1" stdDeviation="1.5"/>
            <feColorMatrix in="shadowBlurOuter1" values="0 0 0 0 0 0 0 0 0 0 0 0 0 0 0 0 0 0 0.5 0"/>
        </filter>
        <path id="j" d="M115.125 15.707l-5.662.008h-1.974s.489 2.728-.1 5.225l-8.714 22.025v-27.25h-8.642s1.468 2.826 1.468 5.358v57.663c0 2.497-1.468 5.34-1.468 5.34h10.091s-1.45-2.843-1.45-5.34v-23.74l3.579-8.6 7.428 32.35-.018-.01c.425 2.914-.327 5.34-.327 5.34h8.542l-10.897-48.938 8.144-19.431"/>
        <filter id="i" width="143.1%" height="117.6%" x="-21.5%" y="-4.4%" filterUnits="objectBoundingBox">
            <feOffset dy="3" in="SourceAlpha" result="shadowOffsetOuter1"/>
            <feGaussianBlur in="shadowOffsetOuter1" result="shadowBlurOuter1" stdDeviation="1.5"/>
            <feColorMatrix in="shadowBlurOuter1" values="0 0 0 0 0 0 0 0 0 0 0 0 0 0 0 0 0 0 0.5 0"/>
        </filter>
        <path id="l" d="M176.354 0h-9.79l-8.402 34.225L149.742 0h-9.587c1.018.876 1.37 5.887 1.37 5.887v71.78c0 2.939-1.212 6.41-1.212 6.41h9.807s-1.212-3.471-1.212-6.41V23.699l9.254 44.167 9.42-45.15v54.95c0 2.94-1.193 6.41-1.193 6.41h9.798s-1.203-3.47-1.203-6.41V5.888s.36-5.01 1.37-5.887"/>
        <filter id="k" width="133.2%" height="114.3%" x="-16.6%" y="-3.6%" filterUnits="objectBoundingBox">
            <feOffset dy="3" in="SourceAlpha" result="shadowOffsetOuter1"/>
            <feGaussianBlur in="shadowOffsetOuter1" result="shadowBlurOuter1" stdDeviation="1.5"/>
            <feColorMatrix in="shadowBlurOuter1" values="0 0 0 0 0 0 0 0 0 0 0 0 0 0 0 0 0 0 0.5 0"/>
        </filter>
        <path id="n" d="M194.491 15.707c-.173 0-.356.017-.502.034-.174-.017-.338-.034-.511-.034-10.447 0-12.483 16.353-12.483 31.056 0 14.728-.147 38.202 12.994 38.237 13.131-.035 12.994-23.51 12.994-38.237 0-14.703-2.054-31.056-12.492-31.056m3.534 30.29c0 8.451.037 30.248-1.69 33.447-.611 1.078-1.661 1.461-2.346 1.461-.703 0-1.762-.383-2.365-1.46-1.726-3.2-1.671-24.997-1.671-33.448 0-7.398-.055-20.005.986-23.526.53-1.835 1.717-2.556 2.84-2.556h.41c1.124 0 2.302.721 2.85 2.556 1.023 3.52.986 16.128.986 23.526"/>
        <filter id="m" width="146.2%" height="117.3%" x="-23.1%" y="-4.3%" filterUnits="objectBoundingBox">
            <feOffset dy="3" in="SourceAlpha" result="shadowOffsetOuter1"/>
            <feGaussianBlur in="shadowOffsetOuter1" result="shadowBlurOuter1" stdDeviation="1.5"/>
            <feColorMatrix in="shadowBlurOuter1" values="0 0 0 0 0 0 0 0 0 0 0 0 0 0 0 0 0 0 0.5 0"/>
        </filter>
        <path id="p" d="M235.603 52.066h-7.42s.658 1.67 1.175 3.608c.526 1.939.395 10.86.132 14.337-.255 3.504-.29 10.894-4.465 10.894-.658 0-1.684-.383-2.245-1.46-1.667-3.209-1.632-24.997-1.632-33.448 0-7.407-.035-20.014.939-23.518.517-1.834 1.649-2.564 2.745-2.564 5.088 0 4.263 12.65 4.009 14.206-.263 1.548-1.044 3.869-1.044 3.869h7.034s.395-.252.772-1.808c.79-5.034-1.035-20.475-11.069-20.475s-11.981 16.345-11.981 31.064C212.553 61.5 212.43 85 225.06 85c12.64 0 11.605-27.9 11.605-30.221 0-2.322-1.062-2.713-1.062-2.713"/>
        <filter id="o" width="149.7%" height="117.3%" x="-24.9%" y="-4.3%" filterUnits="objectBoundingBox">
            <feOffset dy="3" in="SourceAlpha" result="shadowOffsetOuter1"/>
            <feGaussianBlur in="shadowOffsetOuter1" result="shadowBlurOuter1" stdDeviation="1.5"/>
            <feColorMatrix in="shadowBlurOuter1" values="0 0 0 0 0 0 0 0 0 0 0 0 0 0 0 0 0 0 0.5 0"/>
        </filter>
        <path id="r" d="M334.54 78.727v-63.02h-8.75s1.487 2.843 1.487 5.366v57.654c0 2.497-1.487 5.35-1.487 5.35H336s-1.46-2.853-1.46-5.35"/>
        <filter id="q" width="217.5%" height="117.6%" x="-58.8%" y="-4.4%" filterUnits="objectBoundingBox">
            <feOffset dy="3" in="SourceAlpha" result="shadowOffsetOuter1"/>
            <feGaussianBlur in="shadowOffsetOuter1" result="shadowBlurOuter1" stdDeviation="1.5"/>
            <feColorMatrix in="shadowBlurOuter1" values="0 0 0 0 0 0 0 0 0 0 0 0 0 0 0 0 0 0 0.5 0"/>
        </filter>
        <path id="t" d="M308.189 39.212V15.707H299.8s1.419 2.842 1.419 5.356v57.654c0 2.506-1.419 5.348-1.419 5.348H307c2.626.062 6.626-.106 8.89-1.483 3.56-2.195 8.045-5.632 8.045-21.383 0-15.742-7.049-21.987-15.745-21.987m5.471 37.96c-1.242 2.034-4.29 2.14-5.471 2.087V44.063c5.533 0 7.515 6.378 7.515 20.467 0 4.895-.449 10.119-2.044 12.642"/>
        <filter id="s" width="149.7%" height="117.6%" x="-24.9%" y="-4.4%" filterUnits="objectBoundingBox">
            <feOffset dy="3" in="SourceAlpha" result="shadowOffsetOuter1"/>
            <feGaussianBlur in="shadowOffsetOuter1" result="shadowBlurOuter1" stdDeviation="1.5"/>
            <feColorMatrix in="shadowBlurOuter1" values="0 0 0 0 0 0 0 0 0 0 0 0 0 0 0 0 0 0 0.5 0"/>
        </filter>
        <path id="v" d="M287.19 43.945c2.648-1.767 5.525-5.058 5.958-11.06.035-.438.07-.937.07-1.532 0-3.894.212-15.646-10.221-15.646-10.434 0-10.557 11.393-10.557 11.393v51.708c0 2.468-1.412 5.268-1.412 5.268h8.412c2.515-.017 5.71-.315 7.661-1.496 3.566-2.127 8.06-5.513 8.06-21.028 0-10.492-3.196-15.472-7.971-17.607zm-7.75-7.167V27.1c0-3.492.423-7.21 3.866-7.21 3.937 0 3.69 3.403 3.901 8.278.186 4.882-.794 8.094-.794 8.094l.026-.009c-.856 2.993-2.7 6.283-6.788 6.283-.035 0-.07.01-.105.01h-.106v-5.768zm5.437 40.516c-1.245 1.96-4.237 2.1-5.437 2.048V47.305c5.543 0 7.485 3.64 7.485 17.51 0 4.84-.468 9.977-2.048 12.48z"/>
        <filter id="u" width="149.7%" height="117.6%" x="-24.9%" y="-4.4%" filterUnits="objectBoundingBox">
            <feOffset dy="3" in="SourceAlpha" result="shadowOffsetOuter1"/>
            <feGaussianBlur in="shadowOffsetOuter1" result="shadowBlurOuter1" stdDeviation="1.5"/>
            <feColorMatrix in="shadowBlurOuter1" values="0 0 0 0 0 0 0 0 0 0 0 0 0 0 0 0 0 0 0.5 0"/>
        </filter>
        <path id="x" d="M266.425 15.707l-5.674.008h-1.967s.49 2.728-.091 5.225l.018-.036-8.765 22.061v-27.25h-8.62s1.45 2.826 1.45 5.358v57.663c0 2.497-1.45 5.34-1.45 5.34h10.07s-1.45-2.843-1.45-5.34v-23.74l3.608-8.619 7.405 32.368c.426 2.905-.317 5.331-.317 5.331h8.53l-10.887-48.938 8.14-19.431"/>
        <filter id="w" width="143.1%" height="117.6%" x="-21.5%" y="-4.4%" filterUnits="objectBoundingBox">
            <feOffset dy="3" in="SourceAlpha" result="shadowOffsetOuter1"/>
            <feGaussianBlur in="shadowOffsetOuter1" result="shadowBlurOuter1" stdDeviation="1.5"/>
            <feColorMatrix in="shadowBlurOuter1" values="0 0 0 0 0 0 0 0 0 0 0 0 0 0 0 0 0 0 0.5 0"/>
        </filter>
    </defs>
    <g fill="none" fill-rule="evenodd">
        <path fill="#FFF" d="M-577-52H477v519H-577z"/>
        <path fill="#C61230" d="M0 0h416v416H0z"/>
        <g transform="translate(128 47)">
            <use fill="#000" filter="url(#a)" xlink:href="#b"/>
            <use fill="#FFF" xlink:href="#b"/>
        </g>
        <g transform="translate(40 291)">
            <use fill="#000" filter="url(#c)" xlink:href="#d"/>
            <use fill="#FFF" xlink:href="#d"/>
        </g>
        <g transform="translate(40 291)">
            <use fill="#000" filter="url(#e)" xlink:href="#f"/>
            <use fill="#FFF" xlink:href="#f"/>
        </g>
        <g transform="translate(40 291)">
            <use fill="#000" filter="url(#g)" xlink:href="#h"/>
            <use fill="#FFF" xlink:href="#h"/>
        </g>
        <g transform="translate(40 291)">
            <use fill="#000" filter="url(#i)" xlink:href="#j"/>
            <use fill="#FFF" xlink:href="#j"/>
        </g>
        <g transform="translate(40 291)">
            <use fill="#000" filter="url(#k)" xlink:href="#l"/>
            <use fill="#FFF" xlink:href="#l"/>
        </g>
        <g transform="translate(40 291)">
            <use fill="#000" filter="url(#m)" xlink:href="#n"/>
            <use fill="#FFF" xlink:href="#n"/>
        </g>
        <g transform="translate(40 291)">
            <use fill="#000" filter="url(#o)" xlink:href="#p"/>
            <use fill="#FFF" xlink:href="#p"/>
        </g>
        <g transform="translate(40 291)">
            <use fill="#000" filter="url(#q)" xlink:href="#r"/>
            <use fill="#FFF" xlink:href="#r"/>
        </g>
        <g transform="translate(40 291)">
            <use fill="#000" filter="url(#s)" xlink:href="#t"/>
            <use fill="#FFF" xlink:href="#t"/>
        </g>
        <g transform="translate(40 291)">
            <use fill="#000" filter="url(#u)" xlink:href="#v"/>
            <use fill="#FFF" xlink:href="#v"/>
        </g>
        <g transform="translate(40 291)">
            <use fill="#000" filter="url(#w)" xlink:href="#x"/>
            <use fill="#FFF" xlink:href="#x"/>
        </g>
    </g>
</svg>
