<svg xmlns="http://www.w3.org/2000/svg" xmlns:xlink="http://www.w3.org/1999/xlink" width="416" height="416" viewBox="0 0 416 416">
    <defs>
        <linearGradient id="b" x1="50%" x2="50%" y1="0%" y2="100%">
            <stop offset="0%" stop-color="#02AA41"/>
            <stop offset="100%" stop-color="#0C9A35"/>
        </linearGradient>
        <path id="a" d="M0 0h416v416H0z"/>
    </defs>
    <g fill="none" fill-rule="evenodd">
        <mask id="c" fill="#fff">
            <use xlink:href="#a"/>
        </mask>
        <use fill="url(#b)" xlink:href="#a"/>
        <path fill="#FFF" d="M223.257 185.643c0 1.009.034 1.656.103 1.942.16.676.774 1.013 1.839 1.013.275 0 .59-.022.945-.068v-.928a6.962 6.962 0 0 1-.705.052c-.275 0-.492-.029-.653-.086a.537.537 0 0 1-.334-.336 1.685 1.685 0 0 1-.113-.43 7.563 7.563 0 0 1-.016-.626v-5.602h1.82v-.876h-1.82V177h-1.066v2.698h-1.563v.876h1.563v5.07zm-10.996-6.186c-.745 0-1.361.155-1.847.464-.487.31-.914.791-1.28 1.444v-1.667h-1.014v8.832h1.083v-4.777c0-1.1.25-1.933.755-2.5.504-.567 1.18-.85 2.028-.85 1.5 0 2.25.818 2.25 2.456v5.671h1.083v-6.014c0-1.031-.28-1.799-.842-2.303-.562-.504-1.3-.756-2.216-.756zm-12.646 4.262c-.103.114-.272.21-.507.283-.234.075-.45.13-.644.163-.195.035-.527.08-.996.138-.115.012-.201.023-.258.034a8.304 8.304 0 0 0-.902.155 5.165 5.165 0 0 0-.808.283 1.517 1.517 0 0 0-.687.55c-.155.236-.232.525-.232.868 0 .516.183.926.55 1.229.366.303.859.455 1.477.455.837 0 1.547-.25 2.13-.747.585-.499.877-1.155.877-1.968v-1.443zm0-1.46c0-.7-.195-1.192-.584-1.479-.389-.286-.962-.43-1.718-.43-.745 0-1.314.17-1.71.508-.395.338-.627.862-.695 1.572h-1.031c.045-.95.378-1.684.996-2.2.619-.515 1.472-.773 2.56-.773 1.008 0 1.801.218 2.38.653.578.436.867 1.066.867 1.89v4.812c0 .229.006.392.018.49.01.097.06.188.146.274.086.086.226.13.42.13.15 0 .287-.018.413-.052v.824c-.264.092-.55.138-.859.138-.47 0-.78-.143-.928-.43-.15-.286-.223-.681-.223-1.185-.745 1.18-1.856 1.77-3.333 1.77-.905 0-1.613-.218-2.122-.653-.51-.436-.765-1.043-.765-1.822 0-1.592 1.093-2.503 3.282-2.732l.48-.043c.207-.017.359-.031.456-.043l.378-.043a4.664 4.664 0 0 0 .618-.095 1.943 1.943 0 0 0 .456-.145c.069-.029.132-.06.189-.095.206-.137.31-.418.31-.842zm-15.171 2.662c0-.916.068-1.643.206-2.182a2.724 2.724 0 0 1 1.04-1.52 2.92 2.92 0 0 1 1.777-.576c.024 0 .066.003.13.009.062.006.117.008.162.008v-1.1c-.881.012-1.569.187-2.06.525-.494.337-.929.913-1.307 1.726v-2.113h-1.014v8.832h1.066v-3.609zm-12.68 3.867c1.42 0 2.457-.63 3.11-1.89v1.632h.996v-8.832h-1.065v4.88c0 .928-.246 1.704-.739 2.328-.492.625-1.168.936-2.027.936-.814 0-1.39-.225-1.727-.678-.338-.453-.507-1.137-.507-2.054v-5.412h-1.082v5.877c0 1.054.272 1.853.816 2.397.544.544 1.285.816 2.225.816zm-11.529-5.07c-.103.115-.273.21-.507.284-.235.075-.45.13-.644.163-.195.035-.528.08-.997.138-.115.012-.2.023-.258.034a8.312 8.312 0 0 0-.902.155 5.163 5.163 0 0 0-.807.283 1.516 1.516 0 0 0-.688.55c-.154.236-.231.525-.231.868 0 .516.183.926.55 1.229.366.303.859.455 1.477.455.836 0 1.546-.25 2.13-.747.585-.499.877-1.155.877-1.968v-1.443zm0-1.46c0-.698-.195-1.191-.584-1.478-.39-.286-.963-.43-1.719-.43-.744 0-1.314.17-1.709.508-.395.338-.627.862-.696 1.572h-1.03c.045-.95.377-1.684.996-2.2.618-.515 1.471-.773 2.56-.773 1.007 0 1.8.218 2.38.653.578.436.867 1.066.867 1.89v4.812c0 .229.006.392.017.49.011.097.06.188.147.274.085.086.225.13.42.13.149 0 .287-.018.412-.052v.824c-.263.092-.55.138-.858.138-.47 0-.78-.143-.928-.43-.15-.286-.224-.681-.224-1.185-.744 1.18-1.855 1.77-3.333 1.77-.905 0-1.612-.218-2.122-.653-.51-.436-.764-1.043-.764-1.822 0-1.592 1.093-2.503 3.28-2.732l.482-.043c.206-.017.358-.031.456-.043l.378-.043a4.772 4.772 0 0 0 .618-.095 1.958 1.958 0 0 0 .455-.145c.07-.029.132-.06.19-.095.206-.137.31-.418.31-.842zm-15.412 3.385c0 1.009.034 1.656.103 1.942.16.676.773 1.013 1.838 1.013.275 0 .59-.022.946-.068v-.928a6.962 6.962 0 0 1-.705.052c-.275 0-.492-.029-.653-.086a.539.539 0 0 1-.335-.336 1.68 1.68 0 0 1-.112-.43 7.563 7.563 0 0 1-.017-.626v-5.602h1.822v-.876h-1.822V177h-1.065v2.698h-1.563v.876h1.563v5.07zm-7.525.447a2.07 2.07 0 0 0-.215-.954 2.152 2.152 0 0 0-.507-.67 3.1 3.1 0 0 0-.8-.464 6.013 6.013 0 0 0-.85-.3c-.229-.058-.532-.132-.91-.224a19.91 19.91 0 0 1-.92-.215 9.385 9.385 0 0 1-.67-.214c-.257-.092-.437-.187-.54-.284a1.356 1.356 0 0 1-.276-.386c-.08-.16-.12-.35-.12-.568 0-.446.186-.801.558-1.065.373-.264.874-.395 1.504-.395 1.489 0 2.285.641 2.388 1.924h1.049c0-.916-.304-1.615-.911-2.096-.607-.48-1.415-.722-2.423-.722s-1.801.223-2.38.67c-.578.447-.867 1.055-.867 1.822 0 .24.032.458.094.653.063.195.138.364.224.507.085.143.217.278.395.404.177.126.323.223.438.292.114.068.297.143.55.223.251.08.435.135.55.163.114.029.315.075.601.138.286.063.47.106.55.128.034.012.091.024.172.035.263.057.512.123.747.197.234.075.473.172.713.293.24.12.432.283.576.49.143.205.214.446.214.721 0 .516-.22.93-.661 1.246-.441.315-1.023.473-1.744.473-.825 0-1.467-.195-1.925-.585-.458-.39-.687-.95-.687-1.684h-1.048c.023 1.009.35 1.787.98 2.337.63.55 1.511.825 2.645.825 1.043 0 1.887-.25 2.535-.748.647-.498.97-1.153.97-1.967zm-20.223-2.595h5.739c-.058-.985-.339-1.755-.842-2.31-.505-.556-1.168-.834-1.994-.834-.893 0-1.572.292-2.036.876-.464.584-.753 1.34-.867 2.268zm.008 4.073c-.738-.837-1.108-1.953-1.108-3.35 0-1.398.375-2.541 1.125-3.429.75-.888 1.721-1.332 2.913-1.332 1.248 0 2.208.441 2.878 1.323.67.883 1.005 1.976 1.005 3.282v.31h-6.821c0 1.02.249 1.87.747 2.552.498.68 1.246 1.022 2.242 1.022 1.455 0 2.354-.774 2.698-2.32h1.048c-.195.997-.618 1.778-1.271 2.346-.653.566-1.49.85-2.51.85-1.225 0-2.207-.418-2.946-1.254zm-10.11-2.647c0-.916.068-1.643.205-2.182a2.726 2.726 0 0 1 1.04-1.52 2.922 2.922 0 0 1 1.778-.576c.023 0 .066.003.129.009.063.006.117.008.163.008v-1.1c-.882.012-1.569.187-2.061.525-.493.337-.928.913-1.306 1.726v-2.113h-1.014v8.832h1.065v-3.609zm248.746 16.417c-1.028-.781-2.055-1.172-3.083-1.172-2.336 0-6.397 2.562-12.182 7.686 0-2.534.169-5.096.507-7.686-2.774.817-5.184 1.397-7.232 1.742s-4.508.545-7.38.602v2.238h4.414c2.082 0 3.38.813 3.895 2.439.513 1.626.77 4.1.77 7.422v10.896c0 3.238-.292 5.764-.875 7.58-.585 1.816-1.82 2.724-3.706 2.724h-2.07v2.238h3.717c.38 0 .742-.021 1.087-.063.345-.043.676-.085.993-.127l1.108-.147c.578-.128 1.443-.191 2.597-.191s2.02.063 2.597.19c1.056.156 1.717.25 1.985.286.267.034.556.052.865.052h3.822v-2.238h-2.174c-1.859 0-3.087-.905-3.685-2.713-.598-1.81-.897-4.311-.897-7.507v-10.284l.169-5.89c.985-.845 2.27-1.732 3.853-2.661 1.583-.93 2.952-1.394 4.106-1.394.873 0 1.77.423 2.692 1.267.923.845 1.384 2.063 1.384 3.653 0 .353-.064.845-.19 1.478h.528A29.418 29.418 0 0 1 358 204.41c-.494-1.267-1.253-2.29-2.28-3.072zm-40.674 21.569c0-4.04-.704-7.593-2.113-10.663-1.409-3.068-3.244-5.416-5.505-7.042-2.26-1.626-4.595-2.44-7.005-2.44-2.028 0-3.944.564-5.748 1.69-1.803 1.127-3.257 2.784-4.363 4.973-1.106 2.19-1.66 4.782-1.66 7.78 0 3.127.59 6.174 1.766 9.144 1.176 2.97 2.877 5.389 5.103 7.253 2.226 1.866 4.84 2.799 7.84 2.799 3.606 0 6.455-1.32 8.548-3.96 2.091-2.64 3.137-5.818 3.137-9.534zm4.203-13.735c1.632 2.794 2.448 5.873 2.448 9.238 0 3.308-.798 6.552-2.395 9.734-1.597 3.181-3.94 5.785-7.027 7.813-3.088 2.027-6.721 3.04-10.9 3.04-3.868 0-7.274-.858-10.214-2.576-2.94-1.717-5.202-4.075-6.785-7.074-1.582-2.998-2.374-6.355-2.374-10.072 0-2.562.485-4.986 1.456-7.273.971-2.289 2.37-4.333 4.2-6.135 1.828-1.802 3.995-3.202 6.5-4.202 2.503-1 5.254-1.5 8.251-1.5 3.714 0 7.041.803 9.982 2.408 2.94 1.605 5.226 3.805 6.858 6.599zm-55.432-8.056c.619-7.306 1.083-11.803 1.393-13.492h-2.681c-.45 4.18-1.383 7.474-2.798 9.881s-3.74 3.611-6.978 3.611h-2.428v2.597h3.21c1.786 0 2.927.496 3.42 1.489.492.992.739 2.573.739 4.74v15.478c0 3.125.478 6.17 1.435 9.133.957 2.964 3.125 4.444 6.503 4.444 1.14 0 2.16-.25 3.062-.75.9-.5 2.013-1.284 3.336-2.354 1.238-.985 2.942-2.195 5.11-3.632v-2.956a14.05 14.05 0 0 1-3.347 3.062c-1.288.844-2.509 1.266-3.663 1.266-1.943 0-3.61-.745-5.004-2.237-1.394-1.492-2.09-3.66-2.09-6.504v-13.388l.358-7.094c1.788.113 4.097.17 6.926.17 1.14 0 2.499-.043 4.074-.127 1.577-.085 2.612-.128 3.105-.128l1.816-3.906c-3.66.578-7.299.866-10.917.866-1.534 0-3.061-.056-4.581-.169zm-30.433 1.12c2.026 0 3.814.71 5.363 2.132 1.547 1.422 2.441 3.569 2.681 6.44h.507c1.337-2.562 2.808-4.582 4.413-6.06-1.494-1.802-2.92-3.016-4.28-3.642-1.36-.627-3.166-.94-5.42-.94-3.1 0-5.72.52-7.862 1.563-2.141 1.041-3.744 2.4-4.808 4.075-1.063 1.675-1.595 3.456-1.595 5.342 0 1.506.362 2.794 1.088 3.864.726 1.07 1.572 1.925 2.537 2.565.966.642 2.611 1.616 4.936 2.925 3.354 1.788 5.722 3.326 7.103 4.614 1.38 1.287 2.072 3.15 2.072 5.585 0 2.112-.733 3.677-2.198 4.698-1.465 1.021-3.064 1.53-4.797 1.53-2 0-3.758-.748-5.272-2.248-1.514-1.499-2.673-3.29-3.476-5.374a46.386 46.386 0 0 1-4.865 5.11c2.663 3.055 6.417 4.582 11.263 4.582 3.705 0 6.691-.594 8.96-1.784 2.267-1.19 3.88-2.699 4.838-4.53a12.468 12.468 0 0 0 1.437-5.87c0-2.18-.756-3.86-2.27-5.035-1.512-1.176-4.042-2.672-7.59-4.488-2.435-1.253-4.114-2.153-5.036-2.702-.921-.549-1.756-1.326-2.502-2.334-.746-1.006-1.118-2.269-1.118-3.79 0-1.773.58-3.255 1.742-4.444 1.16-1.19 2.544-1.785 4.149-1.785zm-34.952 10.557c3.632 0 6.517-.028 8.657-.085-.126-3.294-1.21-5.891-3.252-7.791-2.04-1.9-4.504-2.85-7.39-2.85-2.181 0-4.261.89-6.24 2.67-1.977 1.781-3.212 4.439-3.704 7.971 1.83 0 4.032.015 6.609.042 2.575.029 4.35.043 5.32.043zm2.872 2.682c-4.744 0-9.706-.233-14.886-.697 0 4.138.683 7.665 2.048 10.579 1.365 2.914 3.104 5.078 5.215 6.493 2.112 1.414 4.272 2.122 6.483 2.122 2.632 0 5.232-.486 7.801-1.457 2.57-.972 4.783-2.387 6.64-4.244v3.125c-4.067 2.125-6.517 3.449-7.347 3.97-2.83 1.561-4.74 2.558-5.733 2.987-.992.43-2.34.644-4.043.644-3.336 0-6.348-.894-9.037-2.681-2.688-1.788-4.779-4.153-6.271-7.095s-2.238-6.081-2.238-9.418c0-2.688.472-5.215 1.415-7.58a19.093 19.093 0 0 1 4.096-6.303c1.787-1.837 3.895-3.255 6.324-4.255 2.428-1 5.056-1.5 7.886-1.5 5.32 0 9.075 1.585 11.264 4.752s3.417 6.51 3.685 10.03c-3.97.352-8.404.528-13.302.528zM171.968 201.2c-1.267.113-2.45.17-3.547.17-1.605 0-2.767-.057-3.484-.17a12.8 12.8 0 0 0-1.964-.168h-2.154v2.766h1.373c1.844 0 2.766 1.006 2.766 3.019v1.14c-.155 1.408-.732 3.538-1.731 6.388-1 2.85-2.08 5.927-3.242 9.227-1.161 3.301-1.981 6.107-2.46 8.415h-.78c-.522-3.35-2.507-9.255-5.955-17.716-1.562-3.688-2.344-6.285-2.344-7.792 0-1.787.81-2.681 2.429-2.681h2.153v-2.766h-1.647c-.633 0-1.654.056-3.061.168-1.408.113-2.78.17-4.117.17-1.493 0-2.408-.057-2.745-.17-.338-.112-1.5-.168-3.484-.168h-2.492v2.766h1.71c2.309 0 4.793 3.371 7.454 10.113a740.702 740.702 0 0 0 4.033 10.116c1.745 4.307 2.903 7.267 3.473 8.878.57 1.613 1.179 3.643 1.827 6.092l3.209-.95c1.056-3.04 2.463-6.56 4.222-10.557a218.419 218.419 0 0 0 5.448-13.831c1.041-2.914 1.844-4.97 2.407-6.166.563-1.196 1.26-2.111 2.09-2.745.83-.634 1.957-.95 3.378-.95h1.563v-2.766h-1.563c-.69 0-1.611.056-2.765.168zm-45.751 32.402c-.57-1.47-.856-3.416-.856-5.838V213.911c0-3.772-.496-7.006-1.488-9.702-.993-2.695-3.291-4.043-6.894-4.043-1.872 0-4.184.542-6.936 1.626-2.752 1.084-6.725 3.139-11.92 6.165.254-2.294.712-4.891 1.373-7.791-3.054.83-5.366 1.369-6.936 1.615-1.57.247-4.184.49-7.843.729v2.238h3.631c1.59 0 2.741.493 3.452 1.478.71.986 1.151 2.386 1.32 4.202.168 1.816.253 4.68.253 8.594v7.264c0 6.348-1.47 9.523-4.413 9.523h-2.175v2.238h3.822c.352 0 .669-.018.95-.052.282-.036.588-.078.92-.128l1.065-.157c.577-.128 1.471-.191 2.682-.191 1.21 0 2.104.063 2.681.19l1.035.158c.31.05.612.092.908.128.295.034.598.052.907.052h3.801v-2.238h-2.238c-3.055 0-4.582-3.548-4.582-10.643v-10.304l.254-4.92c1.914-1.478 4.053-2.74 6.418-3.79 2.365-1.048 4.406-1.573 6.124-1.573 3.068 0 5.246 1.169 6.534 3.505 1.288 2.337 1.932 5.779 1.932 10.326v6.841c0 7.039-1.555 10.558-4.666 10.558h-2.26v2.238h3.21c.422 0 .817-.018 1.182-.052.367-.036.747-.078 1.14-.128.395-.049.86-.101 1.394-.157h5.025c1.38.225 2.386.337 3.02.337h3.885v-2.238h-2.154c-1.802 0-2.987-.735-3.557-2.207zm-51.875-54.277h2.85v2.429h-1.815c-1.943 0-3.178.953-3.706 2.86-.527 1.908-.791 4.643-.791 8.204V223.857c0 3.577.277 6.43.833 8.563.556 2.133 1.777 3.199 3.664 3.199h1.815v2.428H74.09c-.704 0-1.69-.112-2.956-.337a23.113 23.113 0 0 0-3.632-.276c-1.154 0-2.273.092-3.357.276-1.267.225-2.252.337-2.956.337H58v-2.428h1.816c1.38 0 2.403-.708 3.072-2.122.668-1.415 1.087-3.104 1.256-5.068.17-1.963.253-4.437.253-7.422v-28.633c0-3.392-.278-6.01-.834-7.855-.556-1.844-1.805-2.765-3.747-2.765H58v-2.43h2.85c1.154 0 2.337.085 3.547.254 1.38.225 2.414.338 3.104.338.704 0 1.802-.113 3.294-.338a25.386 25.386 0 0 1 3.547-.253z" mask="url(#c)"/>
    </g>
</svg>
