<svg xmlns="http://www.w3.org/2000/svg" xmlns:xlink="http://www.w3.org/1999/xlink" width="2250" height="460" viewBox="0 0 2250 460">
    <defs>
        <linearGradient id="lrj3o8iulb" x1="10.109%" x2="86.079%" y1="48.655%" y2="50.319%">
            <stop offset="0%" stop-color="#EE4A3F"/>
            <stop offset="100%" stop-color="#D63328"/>
        </linearGradient>
        <path id="8u1urpw2ha" d="M0 0H2250V460H0z"/>
    </defs>
    <g fill="none" fill-rule="evenodd">
        <g>
            <g transform="translate(-62 -4488) translate(62 4488)">
                <mask id="mo7pac5loc" fill="#fff">
                    <use xlink:href="#8u1urpw2ha"/>
                </mask>
                <use fill="url(#lrj3o8iulb)" xlink:href="#8u1urpw2ha"/>
                <g fill="#FFF" mask="url(#mo7pac5loc)">
                    <g>
                        <path d="M52 338L52 390 42.74 390 42.74 353.628 7.998 388.37 1.45 381.822 36.012 347.26 0 347.26 0 338zM114 338L114 390 104.74 390 104.74 353.628 69.998 388.37 63.45 381.822 98.012 347.26 62 347.26 62 338zM606 0L606 52 596.74 52 596.74 15.628 561.998 50.37 555.45 43.822 590.012 9.26 554 9.26 554 0zM668 287L668 339 658.74 339 658.74 302.628 623.998 337.37 617.45 330.822 652.012 296.26 616 296.26 616 287zM219 287L219 339 209.74 339 209.74 302.628 174.998 337.37 168.45 330.822 203.012 296.26 167 296.26 167 287zM271 235L271 287 261.74 287 261.74 250.628 226.998 285.37 220.45 278.822 255.012 244.26 219 244.26 219 235zM114 52L114 104 104.74 104 104.74 67.628 69.998 102.37 63.45 95.822 98.012 61.26 62 61.26 62 52zM720 235L720 287 710.74 287 710.74 250.628 675.998 285.37 669.45 278.822 704.012 244.26 668 244.26 668 235z" transform="translate(1120 22)"/>
                    </g>
                </g>
            </g>
        </g>
    </g>
</svg>
