<svg xmlns="http://www.w3.org/2000/svg" width="71" height="72" viewBox="0 0 71 72">
    <g fill="none" fill-rule="evenodd">
        <g stroke="#E34137" stroke-width="3">
            <g transform="translate(-255 -3326) translate(255 3328)">
                <rect width="67.518" height="55.429" x="1.5" y="12.547" rx="6.044"/>
                <path d="M64.474 12.547c1.255 0 2.39.51 3.213 1.332.822.822 1.331 1.958 1.331 3.213h0v10.074c0 1.255-.509 2.39-1.33 3.213-.823.823-1.96 1.331-3.214 1.331h0-58.43c-1.254 0-2.39-.508-3.213-1.33-.822-.823-1.331-1.96-1.331-3.214h0V17.092c0-1.255.509-2.391 1.331-3.213.822-.823 1.959-1.332 3.213-1.332h0z"/>
                <path d="M29.215 28.173h2.014c5.564 0 10.074 4.51 10.074 10.074s-4.51 10.074-10.074 10.074h-2.014 0V28.173z" transform="rotate(90 35.259 38.247)"/>
                <path d="M29.156-6.044h2.015c5.564 0 10.074 4.51 10.074 10.074v4.03c0 5.563-4.51 10.073-10.074 10.073h-2.015 0V-6.044z" transform="rotate(-90 35.2 6.044)"/>
            </g>
        </g>
    </g>
</svg>
