<svg xmlns="http://www.w3.org/2000/svg" width="70" height="70" viewBox="0 0 70 70">
    <g fill="none" fill-rule="evenodd">
        <g stroke="#FFF" stroke-width="3.12">
            <g>
                <path d="M63.641 1.56c1.325 0 2.525.537 3.394 1.405.868.869 1.405 2.069 1.405 3.394h0v23.316c0 1.326-.537 2.526-1.405 3.394-.869.868-2.069 1.406-3.394 1.406h0-28.116V6.359c0-1.325.538-2.525 1.406-3.394.868-.868 2.068-1.405 3.394-1.405h0z" transform="translate(-92 -3328) translate(92 3328)"/>
                <path d="M29.675 35.525c1.326 0 2.526.538 3.394 1.406.868.868 1.406 2.068 1.406 3.394h0V63.64c0 1.325-.538 2.525-1.406 3.394-.868.868-2.068 1.405-3.394 1.405h0H1.56V40.325c0-1.326.537-2.526 1.405-3.394.869-.868 2.069-1.406 3.394-1.406h0z" transform="translate(-92 -3328) translate(92 3328) rotate(-180 18.017 51.983)"/>
                <path d="M29.675 1.56c1.326 0 2.526.537 3.394 1.405.868.869 1.406 2.069 1.406 3.394h0v23.316c0 1.326-.538 2.526-1.406 3.394-.868.868-2.068 1.406-3.394 1.406h0H1.56V6.359c0-1.325.537-2.525 1.405-3.394.869-.868 2.069-1.405 3.394-1.405h0z" transform="translate(-92 -3328) translate(92 3328) matrix(-1 0 0 1 36.034 0)"/>
                <path d="M63.641 35.525c1.325 0 2.525.538 3.394 1.406.868.868 1.405 2.068 1.405 3.394h0V63.64c0 1.325-.537 2.525-1.405 3.394-.869.868-2.069 1.405-3.394 1.405h0-28.116V40.325c0-1.326.538-2.526 1.406-3.394.868-.868 2.068-1.406 3.394-1.406h0z" transform="translate(-92 -3328) translate(92 3328) matrix(1 0 0 -1 0 103.966)"/>
            </g>
        </g>
    </g>
</svg>
