<svg xmlns="http://www.w3.org/2000/svg" width="801" height="760" viewBox="0 0 801 760">
  <path fill="#F5F5F5" d="M171.367 653.105l-40.43 45.83 58.343 18.167c31.473 9.82 63.59.813 85.397-23.94l40.329-45.797-58.292-18.166c-31.457-9.803-63.557-.813-85.347 23.906zm82.773-540.406c-9.718-5.587-21.044-4.944-30.085 1.66l-15.881 11.58 17.083 9.786c9.701 5.57 21.01 4.943 30.052-1.643l15.897-11.597-17.066-9.786zM112.313 548.847l44.883-11.987-29.273-36.096c-16.202-19.978-40.87-27.986-65.724-21.367l-44.934 11.987 29.273 36.113c16.22 19.978 40.921 28.003 65.775 21.35zm70.584 83.603l45.17-28.478-44.425-29.645c-24.228-16.152-53.72-16.558-78.372-1.05l-45.238 28.477 44.46 29.663c24.21 16.168 53.754 16.558 78.405 1.033zm-35.86-182.918l19.911-15.745c10.768-8.516 15.238-21.62 11.835-34.928l-6.214-24.6-19.91 15.728c-10.785 8.516-15.238 21.638-11.869 34.945l6.248 24.6zm45.764 73.75l15.729-22.637c8.346-11.987 8.837-26.868 1.286-39.38l-14.221-23.635-15.763 22.636c-8.33 12.004-8.82 26.903-1.27 39.414l14.24 23.601zm4.656-353.933c-10.903-2.59-21.553 1.202-28.376 10.107L157.18 195.05l19.098 4.52c10.903 2.591 21.536-1.201 28.359-10.09l11.936-15.61-19.115-4.52zm27.885 350.665c-4.876 14.882-.83 30.187 10.75 40.718l22.061 20.029 9.312-28.308c4.876-14.882.846-30.187-10.734-40.701l-22.078-20.08-9.311 28.342zm-49.98-263.998l7.111-20.147-21.298 1.744c-11.97.965-21.553 8.363-25.514 19.69l-7.094 20.13 21.281-1.744c11.953-.965 21.536-8.346 25.515-19.673zM69.04 450.903l39.99 1.406-15.034-37.112c-8.5-20.994-27.157-34.047-49.81-34.86l-40.007-1.44 15.034 37.113c8.516 21.01 27.174 34.08 49.827 34.893zm55.735-84.974l21.688-8.414c11.97-4.64 19.572-15.136 20.215-27.953l1.185-23.262-21.705 8.414c-11.986 4.64-19.571 15.153-20.215 27.986l-1.168 23.23zM284.04 564.812c-.153 16.694 8.956 30.983 24.126 37.924l29.12 13.325.288-32.033c.152-16.676-8.922-30.966-24.075-37.907l-29.155-13.358-.304 32.049zM55.003 347.915l34.2 11.699-3.284-36.028c-1.846-20.35-14.527-36.502-33.861-43.105l-34.234-11.733 3.285 36.028c1.828 20.35 14.543 36.536 33.894 43.139zm16.525-105.443l24.549 18.234 6.637-29.849c3.894-17.506-2.37-34.386-16.761-45.086l-24.55-18.268-6.67 29.866c-3.894 17.506 2.387 34.403 16.795 45.103zm59.866-72.717l12.342-22.365c7.534-13.663 6.417-29.442-2.98-41.937l-15.372-20.401-12.343 22.365c-7.568 13.68-6.45 29.476 2.963 41.954l15.39 20.384zm59.392-75.73l15.12-14.594c9.836-9.498 12.934-22.806 8.278-35.656L207.04 24l-15.12 14.594c-9.836 9.498-12.934 22.822-8.261 35.673l7.127 19.758zm413.122 75.324l-19.114 4.52 11.953 15.61c6.806 8.889 17.438 12.681 28.358 10.09l19.098-4.52-11.936-15.593c-6.806-8.905-17.472-12.698-28.359-10.107zm36.266 68.264l-21.282-1.744 7.11 20.147c3.996 11.327 13.562 18.708 25.515 19.673l21.282 1.744-7.077-20.13c-3.996-11.327-13.579-18.725-25.548-19.69zm-92.95-124.914l-17.082 9.786 15.915 11.597c9.04 6.586 20.35 7.213 30.051 1.643l17.083-9.786-15.88-11.58c-9.058-6.604-20.368-7.247-30.086-1.66zM675.424 342.7c-.643-12.833-8.228-23.347-20.198-27.986l-21.722-8.414 1.185 23.262c.643 12.817 8.245 23.314 20.215 27.953l21.688 8.414-1.168-23.229zm-1.981 158.064l-29.256 36.096 44.866 11.987c24.854 6.653 49.573-1.372 65.775-21.35l29.273-36.113-44.934-11.987c-24.854-6.62-49.521 1.389-65.724 21.367zm-106.73-9.092l-22.077 20.08c-11.581 10.514-15.61 25.819-10.734 40.7l9.311 28.309 22.06-20.03c11.581-10.53 15.628-25.835 10.735-40.717l-9.295-28.342zm51.012 82.655l-44.426 29.645 45.187 28.478c24.634 15.525 54.144 15.135 78.389-1.033l44.46-29.663-45.239-28.477c-24.65-15.508-54.144-15.102-78.371 1.05zm-73.073 54.872l-58.308 18.166 40.345 45.797c21.79 24.753 53.924 33.76 85.398 23.94l58.342-18.166-40.413-45.831c-21.79-24.719-53.907-33.709-85.364-23.906zm162.72-214.002l-15.035 37.112 39.99-1.406c22.653-.812 41.328-13.883 49.827-34.893l15.051-37.112-40.024 1.439c-22.636.813-41.31 13.866-49.81 34.86zm-115.839 46.068c-7.534 12.512-7.06 27.393 1.304 39.38l15.728 22.636 14.239-23.6c7.55-12.512 7.06-27.411-1.27-39.415l-15.762-22.636-14.239 23.635zm19.03-367.24l7.162-19.758c4.656-12.85 1.557-26.175-8.28-35.673L594.327 24l-7.145 19.775c-4.656 12.85-1.558 26.158 8.279 35.656l15.102 14.594zm59.41 75.73l15.372-20.384c9.43-12.478 10.548-28.274 2.98-41.954l-12.342-22.365-15.39 20.4c-9.38 12.496-10.514 28.275-2.946 41.938l12.325 22.365zM493.2 602.736c15.17-6.941 24.261-21.23 24.126-37.924l-.305-32.05-29.138 13.359c-15.17 6.941-24.244 21.23-24.109 37.907l.305 32.033 29.12-13.325zm212.088-342.03l24.55-18.234c14.407-10.7 20.689-27.597 16.795-45.103l-6.654-29.866-24.566 18.268c-14.374 10.7-20.655 27.58-16.744 45.086l6.62 29.849zm-50.977 188.826l6.264-24.6c3.369-13.307-1.084-26.429-11.869-34.945l-19.893-15.728-6.247 24.6c-3.37 13.307 1.083 26.412 11.851 34.928l19.894 15.745zm61.136-125.946l-3.302 36.028 34.217-11.699c19.351-6.603 32.05-22.789 33.912-43.139l3.267-36.028-34.233 11.733c-19.335 6.603-32.016 22.754-33.861 43.105zm-304.8 330.484c13.34 5.96 26.58 12.139 39.837 18.285l-3.979 11.953c-14.12-7.84-28.172-15.83-42.41-23.45-1.152-.625-2.27-1.133-3.404-1.743-1.151.61-2.269 1.118-3.42 1.744-14.238 7.619-28.29 15.61-42.41 23.449l-3.98-11.953c13.274-6.146 26.497-12.326 39.855-18.285-16.084-7.839-31.66-14.002-49.657-19.606-20.774-6.484-41.108-12.63-62.203-23.042-33.793-16.66-65.267-40.244-90.815-67.926-25.16-27.24-45.967-59.967-59.935-94.336-14.238-35.03-22.128-73.648-22.72-111.454-.711-46.813 9.87-95.996 29.848-138.17 20.672-43.63 53.264-83.654 91.645-113.096 2.912-2.252 5.977-4.334 8.99-6.468l7.687-14.797c4.723-9.058 13.798-14.205 24.007-13.595l24.702 1.473-11.445 21.942c-4.724 9.075-13.799 14.204-23.99 13.595l-18.861-1.134c-1.66 1.219-3.505 2.268-5.13 3.504-37.721 28.918-69.703 68.264-90.02 111.15-19.538 41.259-30.085 90.408-29.391 136.138.558 37.128 8.346 75.222 22.314 109.625 13.663 33.64 34.064 65.741 58.698 92.424 24.651 26.7 55.668 49.979 88.276 66.063 30.83 15.237 60.493 21.264 92.102 32.896 8.753 3.233 17.286 7.009 25.853 10.7 8.567-3.691 17.083-7.467 25.836-10.7 31.592-11.632 61.255-17.659 92.12-32.896 32.59-16.084 63.607-39.364 88.258-66.063 24.634-26.683 45.035-58.783 58.681-92.424 14.002-34.403 21.773-72.497 22.332-109.625.694-45.73-9.854-94.88-29.409-136.139-20.3-42.885-52.281-82.231-90.002-111.149-1.626-1.236-3.471-2.285-5.13-3.504l-18.861 1.134c-10.21.61-19.267-4.52-23.99-13.595L509.08 53.053l24.702-1.473c10.21-.61 19.284 4.537 24.008 13.595l7.686 14.797c3.014 2.134 6.078 4.216 9.007 6.468 38.365 29.442 70.956 69.466 91.628 113.096 19.961 42.174 30.543 91.357 29.832 138.17-.576 37.806-8.483 76.424-22.704 111.454-13.968 34.369-34.775 67.095-59.934 94.336-25.548 27.682-57.04 51.266-90.816 67.926-21.095 10.412-41.429 16.558-62.22 23.042-17.98 5.604-33.539 11.767-49.623 19.606z"/>
</svg>
