<svg xmlns="http://www.w3.org/2000/svg" width="312" height="480" viewBox="0 0 312 480">
    <path fill="#F5F5F5" fill-rule="evenodd" d="M282.682 244.952c0 16.427-4.79 31.324-14.373 44.69-9.582 13.368-25.405 25.849-47.469 37.444 12.723 11.112 22.104 22.224 28.143 33.337 6.04 11.112 9.06 23.432 9.06 36.96 0 16.427-4.752 30.88-14.253 43.362-9.502 12.481-22.788 22.144-39.86 28.988C186.86 476.578 167.294 480 145.23 480c-21.902 0-41.389-3.624-58.46-10.87-21.741-10.63-32.612-25.93-32.612-45.899 0-6.12 1.53-11.837 4.59-17.151 3.06-5.315 7.368-9.583 12.924-12.804 5.556-3.22 11.958-4.831 19.205-4.831 11.112 0 20.13 3.14 27.056 9.421 6.925 6.281 10.387 14.494 10.387 24.64 0 8.375-2.255 15.904-6.764 22.587-4.51 6.684-10.629 11.394-18.36 14.132 2.094 3.382 7.006 6.12 14.737 8.213 7.73 2.094 15.702 3.14 23.915 3.14 11.918 0 21.782-2.093 29.592-6.28 7.811-4.187 13.488-9.703 17.031-16.548 3.543-6.844 5.315-14.212 5.315-22.103 0-15.622-4.67-28.425-14.011-38.41-9.341-9.985-21.098-19.728-35.27-29.23a15982 15982 0 0 0-29.954-20.05c-20.937-14.011-37.122-25.808-48.556-35.39-11.434-9.583-20.292-19.769-26.573-30.559-6.28-10.79-9.421-23.11-9.421-36.96 0-16.427 4.75-31.404 14.253-44.932 9.501-13.528 25.123-26.01 46.864-37.444-12.4-11.112-21.58-22.184-27.539-33.216-5.959-11.031-8.938-23.311-8.938-36.839 0-16.427 4.751-30.88 14.253-43.362 9.502-12.481 22.748-22.144 39.738-28.988C125.621 3.422 145.068 0 166.971 0c23.03 0 42.516 3.704 58.46 11.112 21.74 10.307 32.611 25.607 32.611 45.899 0 6.12-1.49 11.836-4.469 17.151-2.98 5.315-7.247 9.542-12.803 12.682-5.556 3.14-12.038 4.711-19.446 4.711-11.113 0-20.131-3.14-27.056-9.421-6.925-6.281-10.388-14.494-10.388-24.64 0-8.375 2.255-15.904 6.764-22.587 4.51-6.684 10.63-11.394 18.36-14.132-2.094-3.382-7.006-6.12-14.736-8.213-7.73-2.094-15.702-3.14-23.916-3.14-17.554 0-30.518 4.388-38.893 13.165-8.374 8.777-12.561 19.446-12.561 32.008 0 15.944 4.71 28.867 14.132 38.772 9.421 9.904 21.258 19.567 35.51 28.988 14.253 9.422 24.117 15.984 29.593 19.688 21.097 14.334 37.322 26.25 48.676 35.753 11.354 9.501 20.171 19.647 26.452 30.438 6.281 10.79 9.421 23.03 9.421 36.718zm-70.296 74.887c5.797-5.315 10.065-11.072 12.803-17.272 2.738-6.2 4.106-13.488 4.106-21.862 0-9.663-2.697-18.601-8.092-26.815-5.395-8.213-13.528-16.628-24.399-25.244-10.87-8.616-26.774-19.849-47.71-33.699-21.58-14.172-37.926-25.767-49.039-34.786-11.112 10.468-16.668 23.593-16.668 39.376 0 9.663 2.698 18.6 8.093 26.814 5.395 8.214 13.568 16.628 24.519 25.244 10.951 8.616 26.814 19.769 47.59 33.458 21.419 14.172 37.684 25.767 48.797 34.786z"/>
</svg>
