<svg xmlns="http://www.w3.org/2000/svg" xmlns:xlink="http://www.w3.org/1999/xlink" width="416" height="416" viewBox="0 0 416 416">
    <defs>
        <path id="a" d="M0 .934h329.688v205.251H0z"/>
    </defs>
    <g fill="none" fill-rule="evenodd">
        <path fill="#FC9617" stroke="#FC9617" d="M.5.5h415v415H.5z"/>
        <path fill="#FFF" d="M348.376 207.679c0 60.542-61.323 109.68-136.895 109.68-75.561 0-136.886-49.138-136.886-109.68C74.595 147.139 135.92 98 211.48 98c75.572 0 136.895 49.14 136.895 109.679"/>
        <path fill="#00AB4E" d="M77.647 207.53c0 59.338 60.065 107.623 133.888 107.623 73.812 0 133.868-48.285 133.868-107.624 0-59.358-60.056-107.62-133.868-107.62-73.823 0-133.888 48.262-133.888 107.62"/>
        <g transform="translate(43 103.96)">
            <mask id="b" fill="#fff">
                <use xlink:href="#a"/>
            </mask>
            <path fill="#FFF" d="M228.237 51.288c-4.078-8.55-8.57-16.146-12.694-22.41 5.175-1.623 9.876-3.533 13.99-5.678 16.16 7.388 29.883 17.6 40.06 29.768-13.785-.682-27.546-1.27-41.356-1.68zm.095 133.18c-3.903-2.063-8.393-3.906-13.376-5.488a195.983 195.983 0 0 0 10.278-17.323 1458.59 1458.59 0 0 0 39.572-2.136c-9.814 10.111-22.233 18.612-36.474 24.948zm-23.074 7.923a196.783 196.783 0 0 0 7.764-10.544c4.143 1.271 7.962 2.703 11.363 4.318a142.258 142.258 0 0 1-19.127 6.226zm-35.145 4.46v-21c14.463.13 28.174 1.925 39.66 5.054-4.233 6.07-7.78 10.452-9.636 12.659-9.586 2.028-19.642 3.159-30.024 3.287zm0-33.988c17.154-.053 34.276-.405 51.421-1.059a195.227 195.227 0 0 1-9.794 16.212c-12.017-3.405-26.438-5.368-41.627-5.506v-9.647zm0-152.572c10.389.118 20.452 1.258 30.044 3.288 1.573 1.833 5.412 6.462 10.106 13.22-9.649 2.614-20.713 4.308-32.39 4.873a15.561 15.561 0 0 0-6.248-1.37h-1.512V10.29zm14.116 26.582a17.078 17.078 0 0 0-1.708-1.973c10.717-.797 20.874-2.524 29.813-5.054 3.964 5.945 8.327 13.183 12.326 21.35-8.415-.238-16.845-.439-25.335-.573 0 0-5.575-.105-11.066-.154.011-.205.037-.403.037-.611-.037-4.799-1.47-9.405-4.067-12.985zm41.16-15.499c-3.576 1.674-7.564 3.175-11.872 4.484a191.14 191.14 0 0 0-8.175-11.09c6.983 1.748 13.686 3.955 20.046 6.606zm-58.457 8.923h-3.878c-1.507 0-2.981.469-4.273 1.298-11.838-.684-22.99-2.53-32.615-5.32 4.053-5.82 7.515-10.165 9.506-12.566 9.969-2.151 20.443-3.346 31.26-3.436v20.024zm0 142.202c-15.552.13-30.364 2.189-42.62 5.748a194.289 194.289 0 0 1-9.854-16.282c17.573.614 35.046.917 52.474.906v9.628zm0 24.36c-10.824-.083-21.296-1.278-31.26-3.432-1.797-2.13-5.247-6.39-9.38-12.302 11.726-3.276 25.823-5.16 40.64-5.28v21.014zm-54.659-10.604c3.239-1.546 6.844-2.943 10.771-4.178a196.342 196.342 0 0 0 7.485 10.15 142.356 142.356 0 0 1-18.256-5.972zm-40.25-26.34c12.988.81 25.895 1.445 38.745 1.93 3.435 6.535 7.02 12.385 10.347 17.383-4.767 1.545-9.106 3.322-12.855 5.318-14.121-6.263-26.45-14.654-36.238-24.631zM107.94 22.734c3.826 2.076 8.187 3.933 12.994 5.546-4.233 6.4-8.838 14.137-13.007 22.816-1.016.03-2.02.05-3.04.08.209-4.953-1.058-9.657-3.639-13.174-2.741-3.718-6.591-5.533-10.978-5.654 5.491-3.595 11.407-6.814 17.67-9.614zm16.177 6.553c9.368 2.823 20.156 4.752 31.63 5.61a9.667 9.667 0 0 0-1.127 3.38c-.572 4.026-1.115 8.07-1.687 12.093-13.92.077-27.569.302-41.424.643 4.092-8.288 8.551-15.658 12.608-21.725zm6.437-14.379a200.466 200.466 0 0 0-7.612 10.384c-3.944-1.28-7.592-2.73-10.88-4.323a140.804 140.804 0 0 1 18.492-6.06zm194.883 47.219c-3.278-3.96-8.897-6.402-13.917-6.74a2347.454 2347.454 0 0 0-30.409-1.853c-22.105-31.35-64.266-52.6-112.576-52.6-48.094 0-90.088 21.054-112.273 52.17-8.984.454-17.971.942-26.956 1.505-9.23.612-19.378 8.72-20.87 18.69-3.667 24.316-6.5 39.395-8.34 60.76-.429 5.068.491 11.21 3.903 15.335 3.344 4.057 9.381 5.773 14.368 6.257a1657.317 1657.317 0 0 0 41.76 3.452c22.997 28.303 62.978 47.082 108.408 47.082 45.685 0 85.873-19.004 108.799-47.586 7.467-.57 14.951-1.172 22.46-1.859 9.116-.856 17.468-8.923 19.505-18.46 3.251-15.29 3.467-18.3 5.163-28.356.172-.977 1.53-10.322 2.497-16.335l2.464-17.021c.211-1.184.286-2.352.258-3.511-.115-3.993-1.615-7.762-4.244-10.93z" mask="url(#b)"/>
        </g>
        <path fill="#F47920" d="M125.9 255.445c3.293-32.681 7.913-65.606 13.385-99.121.517-3.175-.044-6.116-1.602-8.23-1.491-2.057-3.742-3.113-6.338-2.986-2.864.152-5.742.302-8.606.469-5.918 33.022-10.813 65.575-14.215 97.574-.332 3.045.44 5.958 2.143 8.169 1.672 2.176 4.015 3.476 6.611 3.637 2.867.171 5.749.338 8.622.488M309.309 165.871c-3.14-.138-6.275-.268-9.423-.387-5.185-.222-9.78 4.262-10.52 10.177-2.438 19.864-5.355 39.941-8.604 60.13-3.93.113-7.878.236-11.825.346 3.155-20.081 6.021-40.022 8.503-59.831.4-3.15-.326-6.118-1.99-8.342-1.623-2.183-3.963-3.432-6.56-3.5-2.912-.08-5.81-.15-8.707-.212-3.254 26.89-7.1 53.984-11.227 81.198-.48 3.106.124 6.019 1.681 8.195 1.562 2.173 3.861 3.333 6.508 3.243 9.895-.34 19.79-.764 29.7-1.292 5.077-.286 9.928-5.124 10.934-10.938 4.666-26.596 8.582-52.884 11.53-78.787M166.401 236.834c-4.153-.075-8.325-.167-12.485-.253.467-5.003 6.323-48.635 6.957-52.197 4.177-.042 8.353-.068 12.542-.093-.825 5.15-6.69 49.065-7.014 52.543m24.774-69.744c-1.577-2.16-3.87-3.344-6.485-3.331-9.962.101-19.921.26-29.883.49-5.203.121-10.014 4.988-10.925 11.018-3.544 23.243-6.681 46.347-9.249 69.23-.325 3.014.41 5.904 2.086 8.146 1.678 2.249 4.068 3.558 6.692 3.674 9.905.442 19.776.775 29.672.988 5.068.13 9.642-4.552 10.392-10.606 2.981-23.626 6.215-47.33 9.509-71.071.457-3.243-.203-6.272-1.809-8.538M223.895 237.135c-4.167.022-8.33.046-12.49.05.695-5.154 6.759-49.458 7.216-53.015 4.174.022 8.362.04 12.54.064-.629 5.102-6.736 49.335-7.266 52.901m24.55-69.762c-1.613-2.171-3.921-3.434-6.53-3.46-6.855-.104-13.724-.174-20.579-.223.374-2.851.746-5.704 1.109-8.553.427-3.248-.26-6.292-1.883-8.563-1.582-2.202-3.879-3.436-6.45-3.44a1403.93 1403.93 0 0 0-8.603-.016c-4.615 34.232-9.418 68.45-13.805 102.577v.077s-.004.049-.004.07c-.398 3.12.277 6.086 1.879 8.323 1.623 2.266 3.966 3.527 6.604 3.547 9.882.041 19.77 0 29.652-.168 5.07-.072 9.763-4.921 10.676-10.982 3.5-23.665 6.866-47.236 9.87-70.695.417-3.225-.278-6.221-1.937-8.494M325.96 232.35c.092-.393.129-.822.129-1.24 0-3.113-2.299-5.542-5.126-5.452-4.143.16-8.285.301-12.439.438-.935 5.764-1.91 11.539-2.928 17.347-.541 3.003.004 5.821 1.529 7.85 1.531 2.05 3.821 3.013 6.466 2.873 10.857-.564 15.31-.753 29.942-2.398 5.12-.583 10.133-5.877 11.543-11.236 2.004-7.689 3.58-15.123 5.298-29.676.431-3.548-.19-5.495-1.813-7.486-1.59-1.932-3.91-3.012-6.519-3.012h-20.42c.541-3.597 2.037-11.924 2.363-14.445 4.037.081 8.098.182 12.14.288-.157.565-.328 1.142-.496 1.72a6.556 6.556 0 0 0-.07 1.202c.14 3.033 2.53 5.502 5.366 5.53 4.002.027 8.021.075 12.025.132a827.847 827.847 0 0 0 2.211-15.065c.359-2.799-.513-4.71-2.132-6.886-1.395-1.908-4.345-4.04-6.95-4.383-4.459-.576-12.058-1.366-29.14-1.79-5.237-.126-9.802 4.067-10.512 9.878-.517 4.69-3.485 20.728-4.836 33.763.22 3.26 1.313 4.877 2.922 6.963 1.601 2.112 3.627 2.636 6.272 2.552 0 .026 15.442-.002 19.496-.154-.592 3.553-1.995 11.341-2.475 13.91-4.037.223-8.056.427-12.109.625.086-.607.176-1.225.262-1.848M105.188 207.103c.75-5.39-2.611-6.36-5.474-6.351-6.736.01-12.81.01-19.553.015-.645 4.136-1.226 7.874-1.817 11.972-.443 3.424 2.013 6.548 4.868 6.627.581.028 1.881.055 2.47.081-.452 3.19-1.068 6.008-2.626 15.06-4.235-.223-9.365-.555-13.592-.782.218-4.525 5.874-44.167 6.702-47.57 4.241-.1 9.36-.1 13.598-.187 0 0-.469 2.635-.453 3.053.055 3.144 2.428 5.66 5.304 5.652 4.11-.046 8.245-.075 12.36-.103.882-5.727 1.792-11.49 2.76-17.262.491-3.163-.105-6.083-1.7-8.177-1.534-2.046-3.857-2.999-6.508-2.999-7.357 0-20.207.517-30.35 1.551-5.244.54-11.716 5.472-12.732 11.003-4.235 23.258-7.982 53.84-7.982 61.019 0 2.726.59 6.298 2.352 8.435 1.758 2.127 4.66 2.846 7.335 3.335 8.899 1.522 24.404 2.704 30.239 2.649 6.087-.08 8.848-3.325 9.9-9.562 2.002-11.906 3.638-27.075 4.9-37.459"/>
        <path fill="#C74A1B" d="M123.829 146.855c-6.248 34.978-10.844 66.54-14.025 96.453-.284 2.686.376 5.23 1.88 7.174 1.448 1.892 3.453 2.992 5.675 3.14 2.453.136 4.914.27 7.38.422 3.041-29.96 7.393-62.01 13.278-97.944.45-2.814-.02-5.38-1.362-7.183-1.17-1.626-2.867-2.473-4.873-2.473l-.365.015c-2.535.13-5.07.267-7.588.396m2.07 109.937h-.066c-2.878-.159-5.76-.313-8.633-.493-2.95-.183-5.636-1.661-7.54-4.134-1.933-2.508-2.798-5.755-2.428-9.154 3.22-30.281 7.874-62.232 14.232-97.685.108-.609.605-1.058 1.192-1.084 2.882-.174 5.753-.328 8.635-.478 3.091-.151 5.672 1.118 7.43 3.516 1.773 2.418 2.424 5.702 1.85 9.273-5.951 36.377-10.342 68.759-13.38 99.042-.07.686-.632 1.197-1.292 1.197M261.324 165.623c-2.891 23.798-6.435 49.285-11.084 80.032-.427 2.748.084 5.302 1.434 7.205 1.276 1.753 3.065 2.69 5.168 2.69l.264-.02c9.878-.32 19.866-.76 29.672-1.269 4.461-.257 8.828-4.67 9.728-9.854 4.82-27.526 8.54-52.82 11.354-77.25l-.27-.011c-2.585-.113-5.15-.225-7.749-.324h-.319c-4.413 0-8.226 3.868-8.866 9-2.358 19.105-5.172 38.789-8.615 60.186-.101.631-.62 1.104-1.245 1.122-3.93.127-7.878.226-11.834.339-.376 0-.752-.141-1.003-.46a1.342 1.342 0 0 1-.3-1.094c3.342-21.276 6.119-40.823 8.501-59.778.344-2.798-.27-5.401-1.738-7.346-1.377-1.87-3.368-2.92-5.577-2.985-2.516-.07-5.011-.123-7.521-.183zm-4.482 92.614c-2.9 0-5.482-1.34-7.249-3.773-1.764-2.5-2.453-5.76-1.923-9.232 4.735-31.242 8.303-57.032 11.214-81.149.099-.68.64-1.183 1.33-1.181 2.896.057 5.8.14 8.706.202 2.999.093 5.67 1.53 7.557 4.03 1.886 2.506 2.682 5.833 2.244 9.34-2.312 18.513-5.016 37.587-8.25 58.273 3.065-.09 6.123-.171 9.185-.264 3.362-20.942 6.12-40.251 8.426-59.002.812-6.472 5.736-11.358 11.44-11.358l.425.02c2.583.099 5.163.213 7.755.323l1.654.057c.35.024.704.194.942.478.224.275.334.655.295 1.034-2.832 24.928-6.605 50.725-11.544 78.845-1.11 6.444-6.45 11.737-12.128 12.056-9.834.52-19.825.962-29.729 1.285l-.35.016zM155.363 235.262c3.29.085 6.593.145 9.89.206.874-7.436 5.362-41.03 6.65-49.82-3.314.008-6.623.04-9.932.072-1.058 7.077-5.636 41.111-6.608 49.542m11.04 2.908h-.016a1571.33 1571.33 0 0 1-12.494-.253 1.274 1.274 0 0 1-.95-.455 1.384 1.384 0 0 1-.306-1.001c.48-5.26 6.325-48.788 6.963-52.332a1.309 1.309 0 0 1 1.26-1.093c4.18-.044 8.363-.066 12.545-.095.367-.035.741.163.992.48.246.297.356.69.304 1.087-.865 5.357-6.68 48.972-7 52.45a1.314 1.314 0 0 1-1.299 1.212m18.377-73.073c-9.984.106-20.04.27-29.949.502-4.591.112-8.83 4.44-9.673 9.867-3.79 24.908-6.811 47.526-9.227 69.192-.297 2.64.348 5.187 1.824 7.159 1.445 1.94 3.476 3.06 5.711 3.159 10.04.444 20.009.774 29.64.999h.174c4.334 0 8.248-4.158 8.924-9.452 3.047-24.325 6.369-48.547 9.497-71.084.411-2.88-.163-5.557-1.564-7.537-1.325-1.802-3.221-2.805-5.357-2.805m-11.5 93.566l-.224-.009c-9.654-.22-19.635-.55-29.7-.988-3.018-.134-5.731-1.614-7.665-4.19-1.876-2.54-2.708-5.776-2.345-9.144 2.433-21.68 5.463-44.345 9.251-69.287 1.025-6.66 6.373-12.005 12.177-12.14 9.913-.228 19.98-.384 29.907-.479 3.071 0 5.704 1.373 7.528 3.857 1.837 2.56 2.57 5.942 2.06 9.539-3.133 22.526-6.449 46.732-9.496 71.053-.836 6.61-5.885 11.788-11.493 11.788M219.748 185.53c-.686 5.162-3.194 23.543-5.086 37.321l-1.765 12.985c3.298-.005 6.583-.016 9.874-.033 1.01-7.152 5.773-41.527 6.917-50.246h-.315c-3.203 0-6.413-.015-9.625-.026zm-8.338 53.003c-.378 0-.744-.172-.983-.46a1.412 1.412 0 0 1-.304-1.07l1.976-14.53c2.079-15.226 4.93-36.08 5.233-38.47.09-.664.645-1.165 1.29-1.165 3.59.013 7.183.017 10.77.033l1.78.015c.375 0 .718.17.962.453.257.284.356.678.312 1.063-.638 5.225-6.81 49.826-7.268 52.934-.12.651-.65 1.13-1.28 1.144-4.161.027-8.332.053-12.488.053zm-4.783-94.063c-1.452 10.793-2.92 21.577-4.4 32.353-3.082 22.649-6.287 46.064-9.235 69.056-.372 2.915.222 5.515 1.643 7.495 1.364 1.905 3.344 2.97 5.564 2.983 9.909.044 19.94 0 29.61-.156 4.472-.061 8.595-4.384 9.413-9.836 4.048-27.267 7.194-49.716 9.883-70.68.356-2.842-.242-5.497-1.699-7.5-1.364-1.858-3.324-2.91-5.506-2.934-6.855-.108-13.715-.174-20.572-.213-.372 0-.724-.176-.966-.467a1.397 1.397 0 0 1-.317-1.062c.319-2.41.634-4.81.942-7.227l.171-1.327c.379-2.89-.202-5.581-1.639-7.57-1.34-1.864-3.267-2.893-5.423-2.906-2.037-.01-4.052-.01-6.074-.01h-1.395zm.858 114.609c-2.43 0-4.87-.022-7.308-.029-3.045-.028-5.751-1.467-7.639-4.057-1.815-2.552-2.567-5.865-2.127-9.336 2.97-23.133 6.164-46.555 9.255-69.212 1.512-11.17 3.056-22.34 4.552-33.509.09-.66.64-1.15 1.276-1.15h2.528c2.028 0 4.055 0 6.092.004 2.987.009 5.654 1.421 7.493 3.978 1.826 2.552 2.587 5.957 2.132 9.535l-.185 1.34c-.244 1.909-.486 3.81-.74 5.71 6.376.047 12.739.117 19.121.21 2.999.035 5.67 1.463 7.542 3.997 1.878 2.565 2.644 5.942 2.19 9.478-2.692 20.972-5.83 43.443-9.884 70.725-.99 6.721-6.246 12.058-11.94 12.133-7.32.112-14.836.183-22.358.183zM309.666 227.447a1409.278 1409.278 0 0 1-2.757 16.244c-.462 2.638-.015 5.032 1.276 6.741 1.228 1.652 3.113 2.453 5.335 2.341l1.621-.084c9.595-.49 14.417-.745 28.246-2.323 4.308-.48 9.069-5.157 10.386-10.201 2.062-7.856 3.59-15.189 5.272-29.48.404-3.346-.216-4.845-1.51-6.41-1.335-1.625-3.29-2.527-5.493-2.527h-20.42c-.388 0-.764-.169-1.021-.484a1.423 1.423 0 0 1-.297-1.124c.235-1.606.649-4.114 1.095-6.657.53-3.14 1.07-6.389 1.252-7.762.097-.701.636-1.223 1.36-1.214 2.825.077 5.638.139 8.46.21l3.682.085c.409.015.805.218 1.053.576a1.4 1.4 0 0 1 .203 1.206l-.489 1.73c-.015.133-.02.437-.02.77.113 2.265 1.928 4.146 4.024 4.168 3.64.033 7.256.081 10.895.132a999.342 999.342 0 0 0 2.013-13.864c.299-2.407-.453-3.965-1.848-5.826-1.223-1.65-3.872-3.57-6.077-3.85-4.694-.616-12.245-1.382-28.996-1.784h-.2c-4.499 0-8.353 3.711-8.947 8.65-.187 1.688-.689 4.82-1.318 8.778-1.12 6.99-2.644 16.538-3.502 24.825.228 2.812 1.144 4.15 2.615 6.087 1.105 1.466 2.49 2.044 4.763 2.044l.432-.004h.077l.347.004c2.502 0 15.468-.048 19.065-.176.394-.004.792.154 1.063.471.26.32.372.748.306 1.162-.618 3.667-2.035 11.506-2.486 13.934a1.39 1.39 0 0 1-1.252 1.13c-4.05.206-8.06.421-12.111.624a1.274 1.274 0 0 1-1.063-.442 1.484 1.484 0 0 1-.34-1.155l.27-1.837c.081-.396.11-.698.11-1.045 0-2.266-1.586-4.05-3.612-4.05-3.899.14-7.68.261-11.462.387m3.41 28.133c-2.871 0-5.368-1.223-7.014-3.434-1.751-2.339-2.4-5.513-1.784-8.947a2148.77 2148.77 0 0 0 2.93-17.345c.104-.658.634-1.142 1.274-1.173l1.047-.02c3.789-.132 7.588-.246 11.392-.385h.207c3.526 0 6.298 3.003 6.298 6.834 0 .565-.057 1.093-.16 1.57v.047c3.132-.154 6.278-.317 9.42-.489.493-2.66 1.393-7.709 1.993-11.15-5.143.106-16.005.135-17.5.135a7.93 7.93 0 0 1-.348-.009v.004l-.509.011c-2.105 0-4.763-.352-6.868-3.093-1.71-2.257-2.93-4.138-3.197-7.742 0-.092 0-.171.007-.248.873-8.406 2.413-18.049 3.538-25.104.611-3.932 1.106-7.018 1.293-8.664.772-6.34 5.764-11.112 11.616-11.112h.262c16.885.418 24.515 1.197 29.269 1.804 3.064.39 6.276 2.774 7.858 4.92 1.505 1.994 2.843 4.348 2.396 7.897-.713 5.161-1.443 10.245-2.224 15.116-.101.676-.585 1.164-1.342 1.175-4.055-.05-8.032-.103-12.014-.136-3.523-.038-6.52-3.111-6.693-6.845a7.746 7.746 0 0 1 .093-1.491l.046-.154-1.945-.053c-2.42-.066-4.853-.119-7.282-.17-.253 1.675-.686 4.187-1.1 6.634-.29 1.78-.598 3.566-.834 5.002h18.84c3.008 0 5.677 1.243 7.538 3.5 1.987 2.414 2.574 4.82 2.125 8.563-1.705 14.454-3.231 21.897-5.337 29.865-1.648 6.26-7.216 11.634-12.687 12.26-13.917 1.576-18.762 1.822-28.396 2.317l-1.63.08a5.63 5.63 0 0 1-.578.03M101.528 167.524c-7.489 0-20.282.53-30.215 1.537-4.595.471-10.637 4.871-11.55 9.872-4.393 24.116-7.953 54.016-7.953 60.773 0 2.457.522 5.733 2.022 7.528 1.463 1.77 3.998 2.422 6.547 2.87 8.266 1.413 23.153 2.621 29.529 2.621h.462c5.115-.05 7.612-2.492 8.604-8.4 1.586-9.442 2.968-21.135 4.083-30.531.277-2.45.546-4.748.812-6.868.233-1.68.037-2.898-.583-3.646-.631-.754-1.833-1.146-3.524-1.146l-18.47.015a894.77 894.77 0 0 0-1.625 10.796 4.806 4.806 0 0 0 1.051 3.66c.687.856 1.609 1.345 2.526 1.384l2.48.077c.382 0 .732.18.976.49.25.298.36.679.295 1.086-.26 1.865-.572 3.583-1.09 6.424-.38 2.103-.88 4.833-1.535 8.694a1.374 1.374 0 0 1-1.388 1.122c-2.51-.114-5.335-.288-8.118-.453-1.9-.117-3.762-.227-5.467-.33-.732-.033-1.293-.689-1.265-1.454.225-4.862 5.975-44.65 6.74-47.822.148-.614.659-1.034 1.264-1.047 2.32-.062 4.904-.09 7.464-.123 2.123-.013 4.224-.024 6.14-.07l1.565.065-.233 1.6c-.088.424-.414 2.398-.436 2.77.046 2.343 1.822 4.257 3.938 4.257l11.257-.075c.83-5.355 1.694-10.743 2.574-16.126.447-2.779-.05-5.296-1.414-7.095-1.536-2.026-3.82-2.455-5.463-2.455zm-11.62 87.98c-6.477 0-21.584-1.217-29.984-2.673-2.88-.51-6.114-1.342-8.114-3.789-2.413-2.912-2.68-7.502-2.68-9.336 0-7.573 3.897-38.654 8.009-61.28 1.14-6.24 8.28-11.545 13.908-12.12 10.039-1.02 22.926-1.548 30.481-1.548 3.206 0 5.826 1.206 7.553 3.511 1.835 2.405 2.53 5.707 1.962 9.256a1578.391 1578.391 0 0 0-2.748 17.263 1.361 1.361 0 0 1-1.304 1.168l-12.373.088c-3.62 0-6.567-3.137-6.64-6.991 0 0 .047-.79.18-1.672-1.462.028-3.002.035-4.542.057-2.152.013-4.336.04-6.358.073-1.142 6.459-5.557 37.147-6.347 44.9 1.329.083 2.71.164 4.11.246 2.349.14 4.732.292 6.927.405.557-3.23.995-5.61 1.338-7.498.365-2.017.631-3.47.84-4.783l-.957-.024c-1.676-.057-3.309-.909-4.483-2.354-1.34-1.621-1.928-3.753-1.655-5.832.54-3.828 1.087-7.298 1.666-11.088l.134-.93c.125-.683.68-1.171 1.322-1.171l19.569-.022c2.548 0 4.418.708 5.58 2.12 1.148 1.376 1.559 3.334 1.214 5.828-.258 2.075-.526 4.376-.821 6.818-1.102 9.434-2.484 21.162-4.085 30.677-1.226 7.22-4.792 10.617-11.203 10.7h-.5z"/>
    </g>
</svg>
