<svg xmlns="http://www.w3.org/2000/svg" width="440" height="362">
  <g fill="none" fill-rule="evenodd">
    <path fill="#FF02FD" d="M258.367 230.667l-39.583 37.278 12.493-52.919-51.323 17.956 32.937-43.262-54.19-4.471 47.687-26.125-47.686-26.126 54.189-4.471-32.936-43.262 51.322 17.956-12.493-52.919 39.583 37.279 10.11-53.425 20.999 50.155 30.966-44.693-1.217 54.359 46.468-28.234-23.222 49.165 53.934-6.893-41.212 35.469 52.076 15.64-52.075 15.64 41.211 35.469-53.934-6.893 23.221 49.164-46.467-28.234 1.218 54.36-30.967-44.694-20.998 50.155z"/>
    <text fill="#FFF" font-family="Montserrat-ExtraBold, Montserrat" font-size="47.244" font-weight="600" transform="rotate(18 97.637 636.897)">
      <tspan x="67.585" y="141.144">YAY!</tspan>
    </text>
    <g transform="translate(0 75)">
      <path fill="#1F709C" fill-opacity=".337" d="M116.814 251.219c64.515 0 101.73-12.481 101.73-27.877 0-15.395-37.215-27.876-101.73-27.876S0 207.946 0 223.342s52.3 27.877 116.814 27.877z"/>
      <path fill="#00AEEF" stroke="#1C273A" stroke-width="3" d="M42.097 55.75c2.542 0 4.667 4.019 5.188 9.388 1.962.772 4.124 2.067 6.19 3.8 5.054 4.242 7.624 9.5 5.739 11.747-1.885 2.247-7.51.63-12.565-3.612-.3-.25-.59-.506-.872-.764-.954 2.065-2.251 3.334-3.68 3.334-2.932 0-5.31-5.349-5.31-11.947 0-6.598 2.378-11.947 5.31-11.947z"/>
      <path fill="#00AEEF" stroke="#1C273A" stroke-width="3" d="M225.783 220.85c34.732-34.732 34.732-91.045 0-125.777C182.805 50.758 82.384 41.075 58.15 73.874c-24.233 32.8-10.277 102.53 41.854 146.976 34.733 34.733 91.045 34.733 125.778 0z"/>
      <path fill="#00AEEF" d="M249.164 180.45c-3.778 15.102-11.572 29.405-23.381 41.214-34.733 34.733-91.045 34.733-125.778 0-50.943-43.434-65.431-111.01-43.452-144.676-7.201 36.072 10.067 87.856 51.8 123.437 34.732 34.733 91.045 34.733 125.777 0a88.975 88.975 0 0014.702-19.372l.332-.603z" style="mix-blend-mode:multiply"/>
      <ellipse cx="209.204" cy="119.217" fill="#FFF" rx="30.531" ry="13.274" transform="rotate(49 209.204 119.217)"/>
      <ellipse cx="169.531" cy="82.298" fill="#FFF" rx="13.274" ry="7.965" transform="rotate(37 169.531 82.298)"/>
    </g>
  </g>
</svg>
