<svg xmlns="http://www.w3.org/2000/svg" width="1740" height="2057" viewBox="0 0 1740 2057">
    <g fill="none" fill-rule="evenodd">
        <g fill="#00AEEF">
            <g>
                <g>
                    <path d="M1359.5 693c49.681 0 90.772 36.781 97.527 84.599 5.27-.399 10.598-.599 15.973-.599 117.084 0 212 94.916 212 212 0 73.63-37.536 138.494-94.517 176.498l.008-.012C1682.982 1259.977 1740 1389.33 1740 1532c0 289.397-234.603 524-524 524-132.46 0-253.44-49.149-345.699-130.204l.01-.006c-17.444 15.674-40.514 25.21-65.811 25.21-28.9 0-54.894-12.447-72.913-32.272C717.067 1985.219 657.847 2035 587 2035c-61.512 0-114.26-37.527-136.598-90.935l.008.007C409.623 1963.269 364.065 1974 316 1974c-174.522 0-316-141.478-316-316 0-84.076 32.834-160.482 86.38-217.097l1.619-1.698C82.09 1407.706 79 1375.215 79 1342c0-114.007 36.409-219.51 98.234-305.517l.008.012C160.214 1015.648 150 989.017 150 960c0-66.826 54.174-121 121-121 34.725 0 66.033 14.627 88.1 38.056l.654.704C432.445 839.594 515.201 818 603 818c133.867 0 256.009 50.198 348.63 132.798l-.012.008C967.278 907.193 1008.996 876 1058 876c49.367 0 91.34 31.657 106.726 75.778C1181.956 941.138 1202.261 935 1224 935c14.841 0 29.015 2.861 41.998 8.062 5.975-27.08 17.136-52.217 32.384-74.316C1275.61 850.71 1261 822.811 1261 791.5c0-54.4 44.1-98.5 98.5-98.5zm-486 1275c16.292 0 29.5 13.208 29.5 29.5s-13.208 29.5-29.5 29.5-29.5-13.208-29.5-29.5 13.208-29.5 29.5-29.5zM1216 848c12.15 0 22 9.85 22 22s-9.85 22-22 22-22-9.85-22-22 9.85-22 22-22zm270.5-247c15.74 0 28.5 12.76 28.5 28.5s-12.76 28.5-28.5 28.5-28.5-12.76-28.5-28.5 12.76-28.5 28.5-28.5zm-1199-43c11.874 0 21.5 9.626 21.5 21.5s-9.626 21.5-21.5 21.5-21.5-9.626-21.5-21.5 9.626-21.5 21.5-21.5zM654 493c12.15 0 22 9.85 22 22s-9.85 22-22 22-22-9.85-22-22 9.85-22 22-22zm-330-83c17.673 0 32 14.327 32 32 0 17.673-14.327 32-32 32-17.673 0-32-14.327-32-32 0-17.673 14.327-32 32-32zm1104-152c57.99 0 105 47.01 105 105s-47.01 105-105 105-105-47.01-105-105 47.01-105 105-105zM192.5 105c68.207 0 123.5 55.293 123.5 123.5S260.707 352 192.5 352 69 296.707 69 228.5 124.293 105 192.5 105zM1224 258c20.435 0 37 16.565 37 37s-16.565 37-37 37-37-16.565-37-37 16.565-37 37-37zm225.5-118c11.874 0 21.5 9.626 21.5 21.5s-9.626 21.5-21.5 21.5-21.5-9.626-21.5-21.5 9.626-21.5 21.5-21.5zm-127-78c24.024 0 43.5 19.476 43.5 43.5s-19.476 43.5-43.5 43.5-43.5-19.476-43.5-43.5 19.476-43.5 43.5-43.5zm-909-62C425.374 0 435 9.626 435 21.5S425.374 43 413.5 43 392 33.374 392 21.5 401.626 0 413.5 0z" transform="translate(122 -7589) translate(-122 7373.534) translate(0 216)"/>
                </g>
            </g>
        </g>
    </g>
</svg>
