<svg version="1.1" xmlns="http://www.w3.org/2000/svg" x="0" y="0" width="413" height="310" xml:space="preserve">
  <style>
    .st0{fill:#1768ac}.st1{fill:#1c273a}.st2{fill:#00aeef}.st4{fill:#fceab7}.st5{fill:#ff02fd}.st6{fill:#fff}
  </style>
  <path class="st0" d="M296 228.2l-171.2-.7C51 234.2 0 249.4 0 267c0 23.7 92.5 43 206.5 43S413 290.7 413 267c0-17.1-47.8-31.8-117-38.8z"/>
  <path class="st1" d="M294.2 115.3l-46.9-27.5c-7.3-4.3-16.4-4.9-24.2-1.6l-4.2 1.8V39.5c-.1-1.5-1.7-3.9-3.6-5.6-1.4-1.3-2.9-2-4.5-2.3v-4.8h-.4c-.6 0-1.1-.1-1.6-.2v4.9c-1.5.2-3.1 1-4.5 2.3-1.9 1.7-3.4 4.1-3.5 5.8v56L127.2 127c-1 .4-1.7 1.2-2.1 2.2-.2.5-.3 1-.3 1.5V268H296l.2-149.6c-.1-1.3-.9-2.5-2-3.1z"/>
  <path class="st2" d="M201 97.7l-72.8 31c-.5.2-.9.6-1.1 1.1s-.2 1 0 1.5c.3.8 1.1 1.3 2 1.2l163.4-12c1.1-.1 1.9-1 1.8-2.1 0-.7-.4-1.2-1-1.6l-46.9-27.5c-3.9-2.3-8.3-3.4-12.7-3.4-3.3 0-6.7.7-9.8 2l-5 2.1-17.9 7.7z"/>
  <path class="st0" d="M157.7 116.2l49 3.8c-1.2-.2-2.2-.5-3.1-.8-.8-.3-1.5-.7-2-1.2-.3-.3-.7-.7-.8-1.3v-3.1l-26.6-4.3-16.5 6.9z"/>
  <path d="M210.8 26.8c4.5-.2 8-3.8 8-8.3 0-4.6-3.8-18.5-8.4-18.5S202 13.9 202 18.5c0 4 2.9 7.4 6.8 8.2.5.1 1.1.2 1.6.2.2-.1.3-.1.4-.1z" fill="#f7b500"/>
  <path class="st4" d="M129.1 134.7h-.3c-.4 0-.8-.1-1.2-.2l-.3 23.5H294v-35.7c-.4.2-.9.4-1.5.4l-163.4 12zM127.3 192H294v16H127.3zM127.3 242H294v24H127.3z"/>
  <path class="st5" d="M127.3 160H294v30H127.3zM127.3 210H294v30H127.3z"/>
  <path class="st1" d="M294.2 115.3l-46.9-27.5c-7.3-4.3-16.4-4.9-24.2-1.6l-4.2 1.8V39.5c-.1-1.5-1.7-3.9-3.6-5.6-1.4-1.3-2.9-2-4.5-2.3v-4.8h-.4c-.6 0-1.1-.1-1.6-.2v4.9c-1.5.2-3.1 1-4.5 2.3-1.9 1.7-3.4 4.1-3.5 5.8v56L127.2 127c-1 .4-1.7 1.2-2.1 2.2-.2.5-.3 1-.3 1.5V268H296l.2-149.6c-.1-1.3-.9-2.5-2-3.1zM294 266H127.3v-24H294v24zm0-26H127.3v-30H294v30zm0-32H127.3v-16H294v16zm0-18H127.3v-30H294v30zm0-32H127.3l.3-23.5c.4.1.8.2 1.2.2h.3l163.4-12c.6 0 1.1-.2 1.5-.4V158zm-1.5-37.5l-163.4 12c-.9.1-1.7-.4-2-1.2-.4-.3-.4-.9-.2-1.4.2-.5.6-.9 1.1-1.1l72.8-31v18.8c.1.6.5 1.1.8 1.3.5.4 1.1.9 2 1.2.9.4 2 .6 3.1.8 1 .2 2 .2 3.1.2 2.4 0 4.7-.4 6.4-1.1.9-.4 1.5-.8 2-1.2.2-.2.7-.7.7-1.5V90l5-2.1c3.1-1.3 6.5-2 9.8-2 4.4 0 8.8 1.2 12.7 3.4l46.9 27.5c.6.3.9.9 1 1.6.1 1.1-.7 2.1-1.8 2.1z"/>
  <path class="st6" d="M216.8 50.8c-4.9 2.5-9.6 4.2-13.9 5.2v8.7c4.2-1.2 8.8-3.4 14-6.3l-.1-7.6zM216.8 70.1c-4.9 2.5-9.6 4.2-14 5.2v9.9c4.2-1.2 8.8-3.4 14-6.3v-8.8zM216.8 38.9c-.4-.9-1.3-2.4-2.7-3.7-1-.8-2.4-1.9-4.1-1.9s-3.2 1-4.2 1.9c-1.7 1.5-2.8 3.5-2.9 4.4v5.8c4.2-1.2 8.9-3.3 13.9-6.3v-.2zM216.8 90.6c-5 2.5-9.6 4.2-14 5.2v8.6c4.2-1.2 8.8-3.4 14-6.3v-7.5z"/>
  <path class="st2" d="M216.8 78.9c-5.1 3-9.8 5.1-14 6.3v10.6c4.4-1 9-2.8 14-5.2V78.9zM216.8 58.4c-5.1 3-9.8 5.1-14 6.3v10.6c4.4-1 9-2.8 14-5.2V58.4zM216.8 39.2c-5.1 3-9.8 5.1-13.9 6.3V56c4.4-1 9-2.8 13.9-5.2V39.2z"/>
  <path class="st6" d="M202.9 115v1.3l.2.2c.3.3.8.6 1.4.8 1.5.6 3.4.9 5.5.9 2.2 0 4.2-.3 5.6-1 .7-.3 1-.5 1.2-.7v-6.7c-4.9 2.4-9.6 4.2-13.9 5.2z"/>
  <path class="st2" d="M216.8 98.1c-5.2 3-9.8 5.1-14 6.3V115c4.4-1 9-2.8 14-5.2V98.1z"/>
  <g>
    <path class="st6" d="M216 20c0-3.1-2.6-12.4-5.8-12.4s-5.8 9.3-5.8 12.4 2.6 5.6 5.8 5.6 5.8-2.5 5.8-5.6zM173 144.1c-2.2-.1-3.7 0-4.8 0-.7-.9-1.7-2.1-3.5-3.5-1.5-1.2-3.7-1-4.9.4-1.2 1.5-1 3.7.4 4.9 2.1 1.7 2.4 2.5 2.4 2.5.8 2.4 2.7 2.7 3.9 2.7h.7c.8-.1 2.4-.2 5.5-.1 1.9.1 3.5-1.5 3.6-3.4.2-1.8-1.3-3.4-3.3-3.5zM203.2 138.3c-.7-1.8-2.8-2.7-4.6-1.9-1.8.7-2.7 2.8-1.9 4.6.8 1.9 1.4 3.2 1.8 4 .1.2.2.3.2.5l-.3.6c-.3.7-.7 1.6-1.2 2.9-.7 1.8.2 3.8 2 4.5.4.2.9.2 1.3.2 1.4 0 2.7-.8 3.3-2.2.5-1.2.8-2 1.1-2.6 1.3-3 1.3-4.1-.1-7-.4-.8-1-1.9-1.6-3.6zM249.8 140.3c-2.5-.3-4.1-.4-5.3-.5h-.7c-.1-.2-.3-.5-.4-.7-.4-.8-1-1.8-1.9-3.2-1-1.6-3.2-2.1-4.8-1.1s-2.1 3.2-1.1 4.8c.8 1.2 1.3 2.2 1.7 2.9 1.9 3.4 3 4.1 6.8 4.3 1.1.1 2.5.2 4.7.4h.5c1.7 0 3.2-1.3 3.5-3 .3-1.8-1-3.6-3-3.9zM274.5 136.9c-.1-1.9-1.8-3.4-3.8-3.2-1.9.1-3.4 1.8-3.2 3.8.1 1.8.3 3.1.4 4 0 .2.1.5.1.7-.1.2-.3.4-.5.6-.5.6-1.2 1.5-2.2 2.8-1.2 1.5-.9 3.7.7 4.9.6.5 1.4.7 2.1.7 1.1 0 2.1-.5 2.8-1.4.9-1.2 1.5-1.9 2-2.5 2.1-2.5 2.4-3.5 1.9-6.7 0-1-.1-2.1-.3-3.7zM147.8 195.5c-1.4 0-2.5 0-3.3-.1-3.5-.1-4.3.2-6.9 2.3-.8.7-1.9 1.6-3.7 2.8-1.6 1.1-1.9 3.3-.8 4.9.7 1 1.8 1.5 2.9 1.5.7 0 1.4-.2 2-.7 2-1.4 3.2-2.4 4-3.1.3-.3.7-.6.9-.7h1.4c.9 0 2 .1 3.5.1 1.9 0 3.5-1.6 3.5-3.5s-1.6-3.5-3.5-3.5zM173.8 200.1c-.1-1.9-1.8-3.4-3.7-3.3-.8 0-1.5.4-2.1.8-1.4-.1-2.9.6-3.5 2-.8 1.8 0 3.8 1.7 4.6.7.3 1.2.6 1.6.8.5.3 1.4.8 2.5.8.6 0 1.3-.2 1.9-.6 1.9-1.2 1.7-3.3 1.6-4.2.1 0 0-.4 0-.9zM201.2 193.8c-1.9.4-3.1 2.2-2.8 4.1.4 1.9 2.2 3.1 4.1 2.8 1.7-.3 3.6 0 4.6.5l-.5.5c-1.5 1.3-1.6 3.5-.3 4.9.7.8 1.7 1.2 2.6 1.2.8 0 1.6-.3 2.3-.9 4.4-3.8 3.4-7.3 2.7-8.6-2.1-4.4-8.8-5.3-12.7-4.5zM192.8 199.8c-1.5-1.2-3.7-1.1-4.9.4s-1.1 3.7.4 4.9l2.2 1.8c.7.6 1.5.8 2.3.8 1 0 2-.4 2.7-1.2 1.2-1.5 1.1-3.7-.4-4.9l-2.3-1.8zM147.8 141.8c-3.1-.1-4.9 0-6 .1l-.2-.2-.7-.7c-1.4-1.4-3.6-1.4-5 0s-1.4 3.6 0 5l.7.7c1.6 1.6 2.5 2.3 4.5 2.3.3 0 .7 0 1.1-.1.9-.1 2.3-.2 5.2-.1 1.9.1 3.6-1.4 3.7-3.3.2-1.9-1.3-3.6-3.3-3.7zM228.8 147.6c-2-.6-3.3-.9-4.3-1.1-.2-.6-.3-1.3-.6-2.2-.6-1.9-2.5-2.9-4.4-2.3-1.8.6-2.9 2.5-2.3 4.4.3.8.4 1.5.6 2 .8 3.1 1.7 4.2 5 5 .9.2 2 .4 3.8 1 .4.1.7.2 1.1.2 1.5 0 2.9-.9 3.3-2.4.6-2-.4-4-2.2-4.6zM285.9 128.9c-.6-1.8-2.6-2.8-4.4-2.2-1.8.6-2.8 2.6-2.2 4.4.8 2.3 1.4 3.7 1.7 4.6 0 .1.1.2.1.2-.1.2-.1.4-.2.5-.2.5-.4 1-.7 1.7-.7 1.8.2 3.8 2 4.5.4.2.8.2 1.2.2 1.4 0 2.8-.9 3.3-2.3.2-.6.4-1.2.6-1.6 1-2.6 1.1-3.6 0-6.1-.3-.7-.8-1.8-1.4-3.9zM267.8 196.9c-2.6-2.8-4.1-3.2-7.7-1.8-.8.3-1.8.7-3.3 1.2-1.8.6-2.8 2.6-2.2 4.4.6 1.8 2.6 2.8 4.4 2.2 1.6-.5 2.8-1 3.6-1.3.6.7 1.4 1.6 2.7 2.8.7.7 1.6 1 2.4 1 .9 0 1.8-.4 2.5-1.1 1.3-1.4 1.3-3.6-.1-4.9-1-1.1-1.7-1.9-2.3-2.5zM243.1 196.3c-.9.5-1.7 1-2.4 1.4-.6-.4-1.3-.7-2.1-.7-1.4 0-2.6.8-3.2 2.1 0 .6-.1 1.1-.3 1.7v.8c0 1.5-.1 3.6 2.1 4.7.6.3 1.1.4 1.6.4 1.4 0 2.6-.9 3.3-1.5.9-.7 2.2-1.7 4.3-2.9 1.7-.9 2.3-3.1 1.3-4.8-.8-1.5-2.9-2.1-4.6-1.2z"/>
    <path class="st6" d="M235.5 199.1c-.1-.9-.4-1.7-1.1-2.3-1.4-1.3-3.6-1.3-4.9.1-1.1 1.1-1.9 1.7-2.4 2-.1-.3-.2-.7-.2-1.3-.2-1.9-1.9-3.4-3.8-3.2-1.9.2-3.4 1.9-3.2 3.8.4 5.1 2.8 7 4.6 7.6.6.2 1.3.3 2 .3 2.5 0 5.3-1.5 8.1-4.4.3-.3.5-.6.6-1 .2-.5.3-1 .3-1.6zM292.8 202.6c-.2-.6-.3-1.1-.4-1.5-.8-3.3-1.6-4.4-4.8-5.4-1-.3-2.6-.8-5.3-1.9-1.8-.8-3.8 0-4.6 1.8-.8 1.8 0 3.8 1.8 4.6 3 1.3 4.9 1.9 6.1 2.2 0 .1.1.2.1.3.1.4.2 1 .4 1.6.4 1.6 1.8 2.6 3.4 2.6.3 0 .6 0 .9-.1 1.8-.4 2.9-2.3 2.4-4.2zM272.8 256.8c.5 1.4 1.9 2.2 3.3 2.2.4 0 .9-.1 1.3-.2 2.3-.9 3.8-1.2 4.8-1.5 3.8-.9 4.5-2.6 4.6-6v-1.5c.1-1.9-1.4-3.6-3.4-3.6-1.9-.1-3.6 1.4-3.6 3.4v1.1c-1.1.3-2.7.7-4.9 1.6-1.9.7-2.8 2.7-2.1 4.5zM264.3 256.6c.5.3 1.1.4 1.6.4 1.3 0 2.5-.7 3.1-1.9l3.5-6.5c.9-1.7.3-3.8-1.4-4.7-1.7-.9-3.8-.3-4.7 1.4l-3.5 6.5c-1 1.8-.4 3.9 1.4 4.8zM203.6 253.2h.3l7.1-.6c1.9-.2 3.4-1.8 3.2-3.8-.2-1.9-1.9-3.4-3.8-3.2l-7.1.6c-1.9.2-3.4 1.8-3.2 3.8.2 1.8 1.7 3.2 3.5 3.2zM226.7 255.6c2.7 2.3 4.6 3.6 6.7 3.6 2 0 4.1-1.1 7.2-3.6 1.5-1.2 1.7-3.4.5-4.9s-3.4-1.7-4.9-.5-2.3 1.8-2.7 2c-.5-.3-1.4-1.1-2.2-1.8-.6-.5-1.3-1.1-2-1.7-1.5-1.2-3.7-1-4.9.4-1.2 1.5-1 3.7.4 4.9.7.6 1.4 1.1 1.9 1.6zM131.7 257.3c2.3 1.7 7.6 4.5 12.2 4.5 1.3 0 2.5-.2 3.6-.7 2.3-1.1 3.7-3.2 4-5.9.1-1.1-.4-2.2-1.1-2.9-.2 1-.8 1.9-1.7 2.5-.5.3-1.1.5-1.7.5-.9 0-1.7-.3-2.3-.9 0 .1 0 .2-.1.3v.2c-1.4.4-6-1.1-8.6-3-1.5-1.2-3.7-.8-4.9.7-1.3 1.3-1 3.5.6 4.7z"/>
    <path class="st6" d="M148.6 254.7c1-.5 1.6-1.5 1.7-2.5.1-.8 0-1.6-.4-2.3-.6-1-.9-1.7-1.1-2.2-1.1-2.3-2.1-3.1-4.8-3.4-.4 0-.9-.1-1.5-.2-1.9-.3-3.7 1-4 2.9s1 3.7 2.9 4c.5.1.9.1 1.3.2.3.5.6 1.3 1.1 2.2.2.3.4.6.7.9.6.6 1.5.9 2.3.9.7-.1 1.3-.2 1.8-.5zM192.3 259.8c.7.8 1.6 1.1 2.6 1.1.8 0 1.7-.3 2.4-.9 1.4-1.3 1.5-3.5.2-4.9l-5-5.5c-1.3-1.4-3.5-1.5-4.9-.2s-1.5 3.5-.2 4.9l4.9 5.5zM173 260.9c.6.5 1.4.7 2.1.7 1 0 2.1-.5 2.8-1.4l1.5-1.9c1.2-1.5.9-3.7-.6-4.9s-3.7-.9-4.9.6l-1.5 1.9c-1.2 1.6-.9 3.8.6 5zM163.5 256.6h.2c1.9-.1 3.4-1.8 3.3-3.7l-.1-2.1c-.1-1.9-1.8-3.4-3.7-3.3-1.9.1-3.4 1.8-3.3 3.7l.1 2.1c.1 1.8 1.6 3.3 3.5 3.3zM181.4 139.4c-1.9.1-3.4 1.7-3.4 3.6.1 1.9 1.7 3.4 3.6 3.4h1.5c-.1.2-.2.4-.3.7-.8 1.8.1 3.8 1.8 4.6.4.2.9.3 1.4.3 1.4 0 2.6-.8 3.2-2.1.5-1.2 2-4.7 0-7.6-2-3.1-6.4-3-7.8-2.9zM256.8 134.2c-1.4-1.3-3.6-1.2-4.9.2-1.3 1.4-1.2 3.6.2 4.9l4.6 4.2c.7.6 1.5.9 2.4.9s1.9-.4 2.6-1.1c1.3-1.4 1.2-3.6-.2-4.9l-4.7-4.2zM246.2 254.1c.9 2.9 1.7 3.7 4.5 4.6.7.2 1.7.5 3.2 1.1.4.2.9.3 1.3.3 1.4 0 2.7-.8 3.2-2.2.7-1.8-.1-3.8-1.9-4.6-1.7-.7-2.8-1.1-3.6-1.3v-.1c-.2-.5-.4-1.3-.7-2.2-.6-1.8-2.6-2.8-4.5-2.1-1.8.6-2.8 2.6-2.1 4.5.3.9.5 1.5.6 2z"/>
  </g>
</svg>
