<svg version="1.1" xmlns="http://www.w3.org/2000/svg" x="0" y="0" viewBox="0 0 109 40" width="109" height="40" xml:space="preserve">
  <style>
    .st2{fill:#fff}
  </style>
  <g transform="translate(33.892 9.098)">
    <path fill-rule="evenodd" clip-rule="evenodd" fill="#ff02fd" d="M0 0h75v21H0z"/>
    <path class="st2" d="M25.4 6.2V15h-2.5V8.1h-1.6V6.2h4.1zM32.7 10.2c.6.5.9 1.2.9 2 0 .5-.1 1-.4 1.5-.3.5-.7.8-1.3 1.1s-1.3.4-2.1.4c-.6 0-1.2-.1-1.8-.2s-1.1-.4-1.6-.6l.9-1.9c.3.2.7.4 1.2.5.4.1.8.2 1.3.2s.8-.1 1-.2c.3-.2.4-.4.4-.7 0-.3-.1-.5-.4-.7-.2-.1-.7-.2-1.3-.2H27l.4-5.1H33v1.9h-3.5l-.1 1.3h.6c1.2-.1 2.1.2 2.7.7zM46.6 6.2V15h-2.4V8.2h-2.5v1.4c0 1.2-.1 2.3-.3 3s-.4 1.4-.8 1.8c-.4.4-.9.6-1.7.6-.3 0-.7 0-1.1-.1l.1-2h.3c.3 0 .6-.1.7-.4.2-.3.3-.6.4-1.1.1-.5.1-1.1.1-1.8l.1-3.5h7.1zM55.4 13.1V15h-7V6.2h6.8v1.9h-4.4v1.5h3.9v1.8h-3.9V13h4.6zM63.9 8.2h-2.7V15h-2.4V8.2h-2.7v-2h7.8v2zM65.2 14.7c-.3-.3-.4-.6-.4-.9 0-.4.1-.7.4-.9.3-.2.6-.4 1-.4s.8.1 1 .4c.3.2.4.5.4.9s-.1.7-.4.9c-.3.3-.6.4-1 .4s-.8-.2-1-.4zm-.4-8.5h2.8l-.5 5.5h-1.9l-.4-5.5z"/>
  </g>
  <g transform="translate(0 .09)">
    <path d="M22.7 38.8c12.5 0 19.8-2.4 19.8-5.4S35.2 28 22.7 28 0 30.4 0 33.4s10.2 5.4 22.7 5.4z" opacity=".337" fill-rule="evenodd" clip-rule="evenodd" fill="#1f709c"/>
    <path d="M8.2.8c.5 0 .9.8 1 1.8.4.1.8.4 1.2.7 1 .8 1.5 1.8 1.1 2.3-.4.5-1.5.2-2.4-.6-.1-.1-.2-.1-.2-.2-.2.4-.4.7-.7.7-.6 0-1-1-1-2.3S7.6.8 8.2.8z" fill-rule="evenodd" clip-rule="evenodd" fill="#00aeef" stroke="#1c273a" stroke-width=".583"/>
    <g>
      <path d="M43.9 32.9c6.7-6.7 6.7-17.7 0-24.4C35.5-.1 16-2 11.3 4.4s-2 19.9 8.1 28.6c6.8 6.6 17.7 6.6 24.5-.1z" fill-rule="evenodd" clip-rule="evenodd" fill="#00aeef"/>
      <path d="M31.6 38.2c-4.5 0-9-1.7-12.4-5.1C8.9 24.3 6.4 10.5 11.1 4.2 12.7 2 16.1.7 20.6.4 28-.1 38.5 2.5 44.2 8.3c3.3 3.3 5.1 7.7 5.1 12.4s-1.8 9.1-5.1 12.4c-3.6 3.4-8.1 5.1-12.6 5.1zM22.4.9c-.6 0-1.2 0-1.8.1-4.3.3-7.5 1.6-9 3.6-4.6 6.1-2.1 19.4 8 28.1 6.6 6.6 17.4 6.6 24 0 3.2-3.2 5-7.5 5-12s-1.8-8.8-5-12C38.5 3.4 29.5.9 22.4.9z" fill="#1c273a"/>
    </g>
    <path d="M48.2 24.7c-.7 2.9-2.2 5.6-4.5 7.9-6.6 6.7-17.4 6.7-24.1 0-9.7-8.3-12.5-21.3-8.3-27.8-1.4 6.9 1.9 16.9 9.9 23.7 6.6 6.7 17.4 6.7 24.1 0 1.1-1.1 2.1-2.4 2.8-3.7l.1-.1z" fill-rule="evenodd" clip-rule="evenodd" fill="#0076e0"/>
    <ellipse transform="rotate(-41.001 40.635 13.157)" cx="40.6" cy="13.2" rx="2.6" ry="5.9" fill-rule="evenodd" clip-rule="evenodd" fill="#fff"/>
  </g>
</svg>
