<svg version="1.1" id="Layer_1" xmlns="http://www.w3.org/2000/svg" x="0" y="0" viewBox="0 0 109 40" width="109" height="40" xml:space="preserve">
  <style>
    .st7{fill:#fff}
  </style>
  <path d="M0 0h75v21H0V0z" fill-rule="evenodd" clip-rule="evenodd" fill="#ff02fd" transform="translate(33.892 9.098)"/>
  <g transform="translate(0 .09)">
    <path d="M22.7 38.8c12.5 0 19.8-2.4 19.8-5.4S35.2 28 22.7 28 0 30.4 0 33.4s10.2 5.4 22.7 5.4z" opacity=".337" fill-rule="evenodd" clip-rule="evenodd" fill="#1f709c"/>
    <path d="M8.2.8c.5 0 .9.8 1 1.8.4.1.8.4 1.2.7 1 .8 1.5 1.8 1.1 2.3S10 5.8 9.1 5c-.1-.1-.2-.1-.2-.2-.2.4-.4.7-.7.7-.6 0-1-1-1-2.3S7.6.8 8.2.8z" fill-rule="evenodd" clip-rule="evenodd" fill="#00aeef" stroke="#1c273a" stroke-width=".583"/>
    <path d="M43.9 32.9c6.7-6.7 6.7-17.7 0-24.4C35.5-.1 16-2 11.3 4.4s-2 19.9 8.1 28.6c6.8 6.6 17.7 6.6 24.5-.1z" fill-rule="evenodd" clip-rule="evenodd" fill="#00aeef"/>
    <path d="M31.6 38.2c-4.5 0-9-1.7-12.4-5.1C8.9 24.3 6.4 10.5 11.1 4.2 12.7 2 16.1.7 20.6.4 28-.1 38.5 2.5 44.2 8.3c3.3 3.3 5.1 7.7 5.1 12.4s-1.8 9.1-5.1 12.4c-3.6 3.4-8.1 5.1-12.6 5.1zM22.4.9c-.6 0-1.2 0-1.8.1-4.3.3-7.5 1.6-9 3.6-4.6 6.1-2.1 19.4 8 28.1 6.6 6.6 17.4 6.6 24 0 3.2-3.2 5-7.5 5-12s-1.8-8.8-5-12C38.5 3.4 29.5.9 22.4.9z" fill="#1c273a"/>
    <path d="M48.2 24.7c-.7 2.9-2.2 5.6-4.5 7.9-6.6 6.7-17.4 6.7-24.1 0-9.7-8.3-12.5-21.3-8.3-27.8-1.4 6.9 1.9 16.9 9.9 23.7 6.6 6.7 17.4 6.7 24.1 0 1.1-1.1 2.1-2.4 2.8-3.7l.1-.1z" fill-rule="evenodd" clip-rule="evenodd" fill="#0076e0"/>
    <ellipse transform="rotate(-41.001 40.636 13.211)" cx="40.6" cy="13.2" rx="2.6" ry="5.9" fill-rule="evenodd" clip-rule="evenodd" fill="#fff"/>
  </g>
  <path class="st7" d="M55.6 14v9.1H53V16h-1.7v-2h4.3zM62.9 18.1c.6.5.9 1.2.9 2.1 0 .6-.1 1.1-.4 1.6-.3.5-.7.8-1.3 1.1-.6.3-1.3.4-2.2.4-.6 0-1.3-.1-1.9-.2-.6-.2-1.2-.4-1.6-.7l.9-1.9 1.2.6c.4.2.9.2 1.3.2s.8-.1 1.1-.3.4-.4.4-.7c0-.3-.1-.5-.4-.7s-.7-.2-1.4-.2H57l.5-5.3h5.8v2h-3.7l-.1 1.3h.6c1.3-.1 2.2.2 2.8.7zM75.6 16.1l-3 7.3c-.4.9-.8 1.5-1.3 1.8-.5.4-1.1.5-1.9.5-.4 0-.7-.1-1.1-.2-.4-.1-.7-.3-.9-.5l.9-1.7c.1.1.3.2.5.3.2.1.4.1.6.1.2 0 .4 0 .6-.1s.3-.2.4-.5l-3-7.1h2.5l1.7 4.3 1.7-4.3h2.3zM82.9 20.2h-5.1c.1.4.3.6.6.8s.7.3 1.1.3c.3 0 .6 0 .9-.1.2-.1.5-.3.7-.5l1.3 1.4c-.7.8-1.7 1.1-3 1.1-.8 0-1.5-.2-2.2-.5-.6-.3-1.1-.7-1.5-1.3-.3-.6-.5-1.2-.5-1.9s.2-1.3.5-1.9c.3-.6.8-1 1.4-1.3.6-.3 1.3-.5 2-.5s1.3.1 1.9.4c.6.3 1 .7 1.4 1.3.3.6.5 1.2.5 2 .1.1.1.3 0 .7zM78.3 18c-.3.2-.4.5-.5.9h2.9c-.1-.4-.2-.7-.5-.9s-.6-.3-1-.3-.7.1-.9.3zM89.3 16.7c.6.5.9 1.3.9 2.5v3.9h-2.3v-.9c-.4.7-1 1-2.1 1-.5 0-1-.1-1.4-.3s-.7-.4-.9-.8c-.2-.3-.3-.7-.3-1.1 0-.7.3-1.2.8-1.6.5-.4 1.3-.6 2.4-.6h1.4c0-.7-.5-1.1-1.5-1.1-.3 0-.7.1-1 .2s-.6.3-.9.4l-.8-1.7c.4-.3.9-.5 1.4-.6.6-.1 1.1-.2 1.7-.2 1.1.1 2 .4 2.6.9zm-2 4.8c.2-.1.4-.3.5-.6v-.6h-1.1c-.7 0-1.1.2-1.1.7 0 .2.1.4.2.5.2.1.4.2.7.2s.6-.1.8-.2zM94.9 16.2c.4-.2.9-.2 1.4-.2v2.2h-.6c-.5 0-.9.1-1.2.4-.3.3-.4.7-.4 1.3v3.2h-2.5v-7H94v.8c.1-.3.5-.6.9-.7zM97.8 23c-.6-.1-1-.3-1.4-.5l.7-1.7c.3.2.7.4 1.1.5.4.1.9.2 1.3.2s.7 0 .9-.1c.2-.1.3-.2.3-.4s-.1-.3-.3-.3c-.2-.1-.5-.1-1-.2-.6-.1-1-.2-1.4-.3s-.7-.3-1-.6-.4-.7-.4-1.3c0-.5.1-.9.4-1.2.3-.4.7-.6 1.2-.8.5-.2 1.1-.3 1.9-.3.5 0 1 .1 1.5.2s.9.3 1.3.4l-.7 1.7c-.6-.3-1.3-.5-2-.5-.4 0-.7 0-.9.1-.2.1-.3.2-.3.4s.1.3.3.3c.2.1.5.1 1 .2.6.1 1.1.2 1.4.3.4.1.7.3 1 .6.3.3.4.7.4 1.3 0 .4-.1.8-.4 1.2-.3.4-.7.6-1.2.8s-1.2.3-1.9.3c-.6-.1-1.2-.1-1.8-.3zM103.9 22.8c-.3-.3-.4-.6-.4-1s.1-.7.4-1c.3-.3.6-.4 1.1-.4s.8.1 1.1.4.4.6.4 1-.1.7-.4 1-.6.4-1.1.4c-.4 0-.8-.1-1.1-.4zm-.4-8.8h2.9l-.5 5.8h-2l-.4-5.8z"/>
</svg>
