<svg xmlns="http://www.w3.org/2000/svg" xmlns:xlink="http://www.w3.org/1999/xlink" width="359" height="212" viewBox="0 0 359 212">
    <defs>
        <filter id="prefix__a" width="107.6%" height="113.3%" x="-3.8%" y="-5.6%" filterUnits="objectBoundingBox">
            <feOffset dy="2" in="SourceAlpha" result="shadowOffsetOuter1"/>
            <feGaussianBlur in="shadowOffsetOuter1" result="shadowBlurOuter1" stdDeviation="4"/>
            <feColorMatrix in="shadowBlurOuter1" values="0 0 0 0 0 0 0 0 0 0 0 0 0 0 0 0 0 0 0.14 0"/>
        </filter>
        <path id="prefix__b" d="M16 0h311c8.837 0 16 7.163 16 16v118.402c0 7.426-2.95 14.548-8.201 19.799l-34.77 34.77c-4.5 4.5-10.605 7.029-16.97 7.029H16c-8.837 0-16-7.163-16-16V16C0 7.163 7.163 0 16 0z"/>
    </defs>
    <g fill="none" fill-rule="evenodd">
        <g fill-rule="nonzero" transform="translate(8 6)">
            <use fill="#000" filter="url(#prefix__a)" xlink:href="#prefix__b"/>
            <use fill="#FB85BA" xlink:href="#prefix__b"/>
        </g>
        <g fill="#FFF" fill-rule="nonzero">
            <path d="M4.635 28.035v-2.76H7.14V24.09H4.635v-2.64H3.42v2.64H.9v1.185h2.52v2.76h1.215zM11.19 30c.01-.24.033-.497.068-.773.035-.274.097-.587.187-.937.09-.35.215-.747.375-1.192.16-.445.375-.958.645-1.538l2.595-5.745V18.75h-6.6v1.365h4.98l-2.37 5.25c-.27.59-.49 1.113-.66 1.568-.17.454-.308.864-.412 1.23-.105.364-.183.695-.233.99-.05.295-.08.577-.09.847h1.515zm11.175.15c.67 0 1.273-.09 1.808-.27.535-.18.99-.51 1.365-.99s.662-1.135.862-1.965c.2-.83.3-1.89.3-3.18 0-.92-.078-1.705-.232-2.355-.155-.65-.388-1.183-.698-1.598-.31-.415-.695-.717-1.155-.907-.46-.19-.995-.285-1.605-.285-.57 0-1.083.09-1.538.27-.455.18-.845.435-1.17.765-.325.33-.572.73-.742 1.2-.17.47-.255.99-.255 1.56 0 1.16.297 2.075.893 2.745.595.67 1.437 1.005 2.527 1.005.62 0 1.117-.115 1.492-.345.376-.23.678-.57.908-1.02h.15c-.03.59-.092 1.133-.188 1.627-.095.495-.247.923-.457 1.283-.21.36-.49.64-.84.84-.35.2-.795.3-1.335.3-.43 0-.855-.045-1.275-.135-.42-.09-.84-.26-1.26-.51v1.485c.2.1.415.18.645.24.23.06.452.107.668.142.215.035.422.06.622.076.2.014.37.022.51.022zm.645-5.265c-.63 0-1.14-.215-1.53-.645-.39-.43-.585-1.045-.585-1.845 0-.81.19-1.433.57-1.867.38-.435.895-.653 1.545-.653.69 0 1.215.215 1.575.645.36.43.54 1.05.54 1.86-.01.8-.198 1.418-.563 1.853-.364.434-.882.652-1.552.652zM30.525 30c.01-.24.033-.497.068-.773.035-.274.097-.587.187-.937.09-.35.215-.747.375-1.192.16-.445.375-.958.645-1.538l2.595-5.745V18.75h-6.6v1.365h4.98l-2.37 5.25c-.27.59-.49 1.113-.66 1.568-.17.454-.308.864-.413 1.23-.105.364-.182.695-.232.99-.05.295-.08.577-.09.847h1.515zm7.08 0c.01-.24.033-.497.068-.773.035-.274.097-.587.187-.937.09-.35.215-.747.375-1.192.16-.445.375-.958.645-1.538l2.595-5.745V18.75h-6.6v1.365h4.98l-2.37 5.25c-.27.59-.49 1.113-.66 1.568-.17.454-.308.864-.413 1.23-.105.364-.182.695-.232.99-.05.295-.08.577-.09.847h1.515zm11.79.15c1.2 0 2.125-.292 2.775-.877.65-.585.975-1.393.975-2.423 0-.67-.18-1.258-.54-1.763-.36-.505-.89-.872-1.59-1.102v-.12c.58-.18 1.005-.495 1.275-.945.27-.45.405-.94.405-1.47 0-.4-.07-.773-.21-1.117-.14-.345-.35-.645-.63-.9-.28-.256-.625-.458-1.035-.608-.41-.15-.885-.225-1.425-.225s-1.015.075-1.425.225c-.41.15-.755.352-1.035.608-.28.255-.492.557-.638.907-.144.35-.217.725-.217 1.125 0 .26.032.515.098.765.065.25.165.48.3.69.134.21.31.397.524.563.215.165.468.292.758.382v.12c-.7.23-1.23.6-1.59 1.11-.36.51-.54 1.1-.54 1.77 0 .51.085.968.255 1.373.17.404.418.75.742 1.035.325.285.72.502 1.185.652.466.15.993.225 1.583.225zm0-6.78c-.53 0-.95-.143-1.26-.428-.31-.285-.465-.722-.465-1.312 0-.57.152-1.015.457-1.335.305-.32.728-.48 1.268-.48.52 0 .935.16 1.245.48.31.32.465.765.465 1.335 0 .59-.155 1.027-.465 1.313-.31.284-.725.427-1.245.427zm0 5.565c-.69 0-1.225-.195-1.605-.585-.38-.39-.57-.91-.57-1.56 0-.69.19-1.225.57-1.605.38-.38.915-.57 1.605-.57s1.222.19 1.597.57c.376.38.563.915.563 1.605 0 .65-.188 1.17-.563 1.56-.374.39-.907.585-1.597.585zM56.88 30c.01-.24.032-.497.067-.773.035-.274.098-.587.188-.937.09-.35.215-.747.375-1.192.16-.445.375-.958.645-1.538l2.595-5.745V18.75h-6.6v1.365h4.98l-2.37 5.25c-.27.59-.49 1.113-.66 1.568-.17.454-.308.864-.413 1.23-.104.364-.182.695-.232.99-.05.295-.08.577-.09.847h1.515zm11.085 0v-1.365h-4.86l2.55-3.165c.29-.36.55-.703.78-1.027.23-.326.427-.646.593-.96.164-.316.292-.633.382-.953.09-.32.135-.66.135-1.02 0-.92-.248-1.635-.743-2.145S65.55 18.6 64.53 18.6c-.24 0-.49.015-.75.045s-.515.078-.765.143c-.25.064-.485.147-.705.247-.22.1-.41.215-.57.345v1.44c.42-.35.84-.587 1.26-.712.42-.125.84-.188 1.26-.188 1.13 0 1.695.565 1.695 1.695 0 .51-.125 1.015-.375 1.515s-.6 1.035-1.05 1.605l-3.225 4.05V30h6.66zm5.415-3.78v-1.095h-4.41v1.095h4.41zm5.01 3.93c1.25 0 2.188-.47 2.813-1.41.624-.94.937-2.39.937-4.35 0-1.96-.315-3.415-.945-4.365-.63-.95-1.565-1.425-2.805-1.425-1.24 0-2.172.477-2.797 1.432-.626.956-.938 2.413-.938 4.373 0 1.96.31 3.407.93 4.342.62.936 1.555 1.403 2.805 1.403zm0-1.365c-.41 0-.75-.105-1.02-.315-.27-.21-.49-.508-.66-.892-.17-.386-.29-.845-.36-1.38-.07-.535-.105-1.133-.105-1.793 0-.66.035-1.263.105-1.808.07-.545.19-1.012.36-1.402.17-.39.39-.692.66-.907.27-.215.61-.323 1.02-.323.4 0 .74.108 1.02.323.28.215.502.517.668.907.165.39.284.855.36 1.395.075.54.112 1.14.112 1.8 0 .66-.037 1.26-.112 1.8-.076.54-.195 1.002-.36 1.387-.166.385-.388.683-.668.893-.28.21-.62.315-1.02.315zm8.115 1.365c.67 0 1.273-.09 1.808-.27.534-.18.99-.51 1.364-.99.375-.48.663-1.135.863-1.965.2-.83.3-1.89.3-3.18 0-.92-.078-1.705-.233-2.355-.154-.65-.387-1.183-.697-1.598-.31-.415-.695-.717-1.155-.907-.46-.19-.995-.285-1.605-.285-.57 0-1.083.09-1.538.27-.454.18-.844.435-1.17.765-.324.33-.572.73-.742 1.2-.17.47-.255.99-.255 1.56 0 1.16.298 2.075.893 2.745.595.67 1.437 1.005 2.527 1.005.62 0 1.118-.115 1.493-.345.374-.23.677-.57.907-1.02h.15c-.03.59-.093 1.133-.188 1.627-.095.495-.247.923-.457 1.283-.21.36-.49.64-.84.84-.35.2-.795.3-1.335.3-.43 0-.855-.045-1.275-.135-.42-.09-.84-.26-1.26-.51v1.485c.2.1.415.18.645.24.23.06.453.107.668.142.215.035.422.06.622.076.2.014.37.022.51.022zm.645-5.265c-.63 0-1.14-.215-1.53-.645-.39-.43-.585-1.045-.585-1.845 0-.81.19-1.433.57-1.867.38-.435.895-.653 1.545-.653.69 0 1.215.215 1.575.645.36.43.54 1.05.54 1.86-.01.8-.198 1.418-.563 1.853-.364.434-.882.652-1.552.652zm9.42 1.335v-1.095h-4.41v1.095h4.41zm5.01 3.93c1.25 0 2.188-.47 2.813-1.41.624-.94.937-2.39.937-4.35 0-1.96-.315-3.415-.945-4.365-.63-.95-1.565-1.425-2.805-1.425-1.24 0-2.172.477-2.797 1.432-.626.956-.938 2.413-.938 4.373 0 1.96.31 3.407.93 4.342.62.936 1.555 1.403 2.805 1.403zm0-1.365c-.41 0-.75-.105-1.02-.315-.27-.21-.49-.508-.66-.892-.17-.386-.29-.845-.36-1.38-.07-.535-.105-1.133-.105-1.793 0-.66.035-1.263.105-1.808.07-.545.19-1.012.36-1.402.17-.39.39-.692.66-.907.27-.215.61-.323 1.02-.323.4 0 .74.108 1.02.323.28.215.503.517.668.907.165.39.284.855.36 1.395.075.54.112 1.14.112 1.8 0 .66-.037 1.26-.112 1.8-.076.54-.195 1.002-.36 1.387-.165.385-.388.683-.668.893-.28.21-.62.315-1.02.315zm8.115 1.365c.67 0 1.273-.09 1.808-.27.534-.18.99-.51 1.365-.99s.662-1.135.862-1.965c.2-.83.3-1.89.3-3.18 0-.92-.078-1.705-.233-2.355-.154-.65-.387-1.183-.697-1.598-.31-.415-.695-.717-1.155-.907-.46-.19-.995-.285-1.605-.285-.57 0-1.083.09-1.538.27-.455.18-.845.435-1.17.765-.325.33-.572.73-.742 1.2-.17.47-.255.99-.255 1.56 0 1.16.297 2.075.892 2.745.596.67 1.438 1.005 2.528 1.005.62 0 1.117-.115 1.492-.345.376-.23.678-.57.908-1.02h.15c-.03.59-.093 1.133-.188 1.627-.094.495-.247.923-.457 1.283-.21.36-.49.64-.84.84-.35.2-.795.3-1.335.3-.43 0-.855-.045-1.275-.135-.42-.09-.84-.26-1.26-.51v1.485c.2.1.415.18.645.24.23.06.453.107.668.142.215.035.422.06.622.076.2.014.37.022.51.022zm.645-5.265c-.63 0-1.14-.215-1.53-.645-.39-.43-.585-1.045-.585-1.845 0-.81.19-1.433.57-1.867.38-.435.895-.653 1.545-.653.69 0 1.215.215 1.575.645.36.43.54 1.05.54 1.86-.01.8-.198 1.418-.563 1.853-.364.434-.882.652-1.552.652zM2.124 10l3.792-6.768h.108V10h1.212V1H6.06L2.268 7.708H2.16V1H.948v9h1.176zm9.144 0c.464 0 .856-.046 1.176-.138.32-.092.58-.218.78-.378.2-.16.342-.346.426-.558.084-.212.126-.438.126-.678 0-.344-.122-.642-.366-.894s-.61-.414-1.098-.486v-.084c.384-.072.68-.216.888-.432.208-.216.312-.512.312-.888 0-.208-.04-.402-.12-.582-.08-.18-.22-.338-.42-.474-.2-.136-.464-.244-.792-.324-.328-.08-.744-.12-1.248-.12H9.036V10h2.232zm-.3-3.492h-.78V4.84h.78c.464 0 .802.07 1.014.21.212.14.318.326.318.558 0 .28-.098.5-.294.66-.196.16-.542.24-1.038.24zm.252 2.628h-1.032v-1.8h1.032c.424 0 .754.072.99.216.236.144.354.376.354.696 0 .28-.116.498-.348.654-.232.156-.564.234-.996.234zm5.364.984c.504 0 .896-.094 1.176-.282.28-.188.516-.45.708-.786h.084V10h1.092V6.148c0-.728-.198-1.294-.594-1.698-.396-.404-1.018-.606-1.866-.606-.336 0-.692.032-1.068.096-.376.064-.704.18-.984.348v1.08c.304-.2.612-.34.924-.42.312-.08.636-.12.972-.12.48 0 .844.11 1.092.33.248.22.372.546.372.978v.276c-.672 0-1.244.04-1.716.12-.472.08-.858.2-1.158.36-.3.16-.518.368-.654.624s-.204.556-.204.9c0 .496.152.904.456 1.224.304.32.76.48 1.368.48zm.432-.948c-.384 0-.654-.084-.81-.252-.156-.168-.234-.38-.234-.636 0-.208.044-.384.132-.528.088-.144.232-.26.432-.348.2-.088.46-.152.78-.192.32-.04.712-.06 1.176-.06v.324c0 .288-.042.538-.126.75-.084.212-.196.388-.336.528s-.298.244-.474.312-.356.102-.54.102zm5.412.828V7.384h2.58V10h1.152V3.964h-1.152v2.424h-2.58V3.964h-1.152V10h1.152zm7.836.12c.4 0 .772-.07 1.116-.21.344-.14.642-.344.894-.612s.45-.596.594-.984c.144-.388.216-.83.216-1.326 0-.496-.072-.938-.216-1.326-.144-.388-.344-.718-.6-.99s-.556-.478-.9-.618-.712-.21-1.104-.21c-.408 0-.784.072-1.128.216-.344.144-.642.35-.894.618s-.448.598-.588.99c-.14.392-.21.836-.21 1.332 0 .496.07.938.21 1.326.14.388.336.714.588.978.252.264.55.466.894.606.344.14.72.21 1.128.21zm0-1.008c-.224 0-.434-.04-.63-.12-.196-.08-.366-.206-.51-.378-.144-.172-.258-.39-.342-.654-.084-.264-.126-.584-.126-.96s.042-.7.126-.972c.084-.272.198-.494.342-.666.144-.172.314-.3.51-.384.196-.084.406-.126.63-.126.216 0 .42.042.612.126.192.084.362.212.51.384.148.172.266.394.354.666.088.272.132.592.132.96 0 .376-.042.696-.126.96-.084.264-.2.484-.348.66-.148.176-.32.304-.516.384-.196.08-.402.12-.618.12zm6.348.888c.464 0 .856-.046 1.176-.138.32-.092.58-.218.78-.378.2-.16.342-.346.426-.558.084-.212.126-.438.126-.678 0-.344-.122-.642-.366-.894s-.61-.414-1.098-.486v-.084c.384-.072.68-.216.888-.432.208-.216.312-.512.312-.888 0-.208-.04-.402-.12-.582-.08-.18-.22-.338-.42-.474-.2-.136-.464-.244-.792-.324-.328-.08-.744-.12-1.248-.12H34.38V10h2.232zm-.3-3.492h-.78V4.84h.78c.464 0 .802.07 1.014.21.212.14.318.326.318.558 0 .28-.098.5-.294.66-.196.16-.542.24-1.038.24zm.252 2.628h-1.032v-1.8h1.032c.424 0 .754.072.99.216.236.144.354.376.354.696 0 .28-.116.498-.348.654-.232.156-.564.234-.996.234zm7.944.864V5.932H48.3V10h1.212V1H48.3v3.864h-3.792V1h-1.212v9h1.212zm7.812 0l2.628-4.152h.096V10h1.152V3.964h-1.02l-2.628 4.14h-.084v-4.14h-1.152V10h1.008zm6.72 0V7.504l.492-.132L61.38 10h1.404l-2.292-3.288 2.088-2.748h-1.14L59.532 6.46l-.492.108V3.964h-1.152V10h1.152zm7.104.12c.4 0 .772-.07 1.116-.21.344-.14.642-.344.894-.612s.45-.596.594-.984c.144-.388.216-.83.216-1.326 0-.496-.072-.938-.216-1.326-.144-.388-.344-.718-.6-.99s-.556-.478-.9-.618-.712-.21-1.104-.21c-.408 0-.784.072-1.128.216-.344.144-.642.35-.894.618s-.448.598-.588.99c-.14.392-.21.836-.21 1.332 0 .496.07.938.21 1.326.14.388.336.714.588.978.252.264.55.466.894.606.344.14.72.21 1.128.21zm0-1.008c-.224 0-.434-.04-.63-.12-.196-.08-.366-.206-.51-.378-.144-.172-.258-.39-.342-.654-.084-.264-.126-.584-.126-.96s.042-.7.126-.972c.084-.272.198-.494.342-.666.144-.172.314-.3.51-.384.196-.084.406-.126.63-.126.216 0 .42.042.612.126.192.084.362.212.51.384.148.172.266.394.354.666.088.272.132.592.132.96 0 .376-.042.696-.126.96-.084.264-.2.484-.348.66-.148.176-.32.304-.516.384-.196.08-.402.12-.618.12zm3.912.972c.424 0 .762-.142 1.014-.426.252-.284.448-.664.588-1.14.14-.476.232-1.022.276-1.638.044-.616.066-1.256.066-1.92h1.8V10h1.152V3.964h-3.936c0 .696-.01 1.35-.03 1.962-.02.612-.07 1.146-.15 1.602-.08.456-.194.814-.342 1.074-.148.26-.346.39-.594.39h-.096c-.032 0-.06-.004-.084-.012-.032-.008-.06-.016-.084-.024v1.08l.12.024c.04.008.084.014.132.018.048.004.104.006.168.006zm8.124.036c.504 0 .896-.094 1.176-.282.28-.188.516-.45.708-.786h.084V10h1.092V6.148c0-.728-.198-1.294-.594-1.698-.396-.404-1.018-.606-1.866-.606-.336 0-.692.032-1.068.096-.376.064-.704.18-.984.348v1.08c.304-.2.612-.34.924-.42.312-.08.636-.12.972-.12.48 0 .844.11 1.092.33.248.22.372.546.372.978v.276c-.672 0-1.244.04-1.716.12-.472.08-.858.2-1.158.36-.3.16-.518.368-.654.624s-.204.556-.204.9c0 .496.152.904.456 1.224.304.32.76.48 1.368.48zm.432-.948c-.384 0-.654-.084-.81-.252-.156-.168-.234-.38-.234-.636 0-.208.044-.384.132-.528.088-.144.232-.26.432-.348.2-.088.46-.152.78-.192.32-.04.712-.06 1.176-.06v.324c0 .288-.042.538-.126.75-.084.212-.196.388-.336.528s-.298.244-.474.312-.356.102-.54.102zm6.708-6.024c.264 0 .512-.034.744-.102.232-.068.434-.176.606-.324.172-.148.306-.338.402-.57.096-.232.144-.508.144-.828h-1.02c0 .256-.064.476-.192.66-.128.184-.356.276-.684.276-.336 0-.566-.092-.69-.276-.124-.184-.186-.404-.186-.66h-1.02c0 .32.048.594.144.822.096.228.23.416.402.564.172.148.374.258.606.33.232.072.48.108.744.108zM83.88 10l2.628-4.152h.096V10h1.152V3.964h-1.02l-2.628 4.14h-.084v-4.14h-1.152V10h1.008zm11.916.12c.304 0 .632-.028.984-.084.352-.056.68-.176.984-.36V8.548c-.16.12-.324.214-.492.282-.168.068-.334.12-.498.156-.164.036-.32.058-.468.066-.148.008-.278.012-.39.012-.856 0-1.526-.288-2.01-.864-.484-.576-.726-1.476-.726-2.7 0-.6.07-1.122.21-1.566.14-.444.334-.814.582-1.11.248-.296.538-.518.87-.666.332-.148.686-.222 1.062-.222.704 0 1.256.112 1.656.336V1.168c-.104-.048-.226-.09-.366-.126-.14-.036-.288-.066-.444-.09-.156-.024-.314-.042-.474-.054-.16-.012-.312-.018-.456-.018-.616 0-1.166.108-1.65.324-.484.216-.894.524-1.23.924-.336.4-.592.886-.768 1.458-.176.572-.264 1.21-.264 1.914 0 .712.078 1.352.234 1.92.156.568.392 1.052.708 1.452.316.4.718.708 1.206.924.488.216 1.068.324 1.74.324zm5.892 0c.44 0 .838-.046 1.194-.138.356-.092.634-.218.834-.378V8.536c-.256.208-.544.356-.864.444-.32.088-.66.132-1.02.132-.6 0-1.068-.17-1.404-.51-.336-.34-.5-.854-.492-1.542h3.912c.016-.064.032-.164.048-.3.016-.136.024-.284.024-.444 0-.416-.064-.78-.192-1.092-.128-.312-.302-.57-.522-.774-.22-.204-.482-.356-.786-.456-.304-.1-.632-.15-.984-.15-.408 0-.78.072-1.116.216-.336.144-.624.35-.864.618s-.428.598-.564.99c-.136.392-.204.836-.204 1.332 0 1.056.266 1.84.798 2.352.532.512 1.266.768 2.202.768zm1.08-3.852h-2.844c.072-.52.236-.9.492-1.14.256-.24.576-.36.96-.36.176 0 .344.026.504.078.16.052.304.136.432.252.128.116.232.27.312.462.08.192.128.428.144.708zm3.6 6.732v-2.88l-.06-.96h.084c.192.296.446.53.762.702.316.172.694.258 1.134.258.368 0 .708-.07 1.02-.21.312-.14.58-.346.804-.618.224-.272.398-.604.522-.996s.186-.836.186-1.332c0-.48-.062-.912-.186-1.296s-.298-.71-.522-.978c-.224-.268-.49-.476-.798-.624-.308-.148-.646-.222-1.014-.222-.488 0-.886.092-1.194.276-.308.184-.546.416-.714.696h-.084v-.852h-1.092V13h1.152zm1.596-3.888c-.216 0-.422-.038-.618-.114-.196-.076-.366-.188-.51-.336-.144-.148-.258-.332-.342-.552-.084-.22-.126-.478-.126-.774v-.84c0-.552.148-.964.444-1.236.296-.272.676-.408 1.14-.408.224 0 .436.04.636.12.2.08.376.206.528.378.152.172.272.392.36.66.088.268.132.586.132.954 0 .384-.044.71-.132.978-.088.268-.208.49-.36.666-.152.176-.328.304-.528.384-.2.08-.408.12-.624.12zm5.304.888V4.96h2.556v-.996h-3.708V10h1.152zm6.108.12c.44 0 .838-.046 1.194-.138.356-.092.634-.218.834-.378V8.536c-.256.208-.544.356-.864.444-.32.088-.66.132-1.02.132-.6 0-1.068-.17-1.404-.51-.336-.34-.5-.854-.492-1.542h3.912c.016-.064.032-.164.048-.3.016-.136.024-.284.024-.444 0-.416-.064-.78-.192-1.092-.128-.312-.302-.57-.522-.774-.22-.204-.482-.356-.786-.456-.304-.1-.632-.15-.984-.15-.408 0-.78.072-1.116.216-.336.144-.624.35-.864.618s-.428.598-.564.99c-.136.392-.204.836-.204 1.332 0 1.056.266 1.84.798 2.352.532.512 1.266.768 2.202.768zm1.08-3.852h-2.844c.072-.52.236-.9.492-1.14.256-.24.576-.36.96-.36.176 0 .344.026.504.078.16.052.304.136.432.252.128.116.232.27.312.462.08.192.128.428.144.708zm5.04 3.852c.44 0 .838-.046 1.194-.138.356-.092.634-.218.834-.378V8.536c-.256.208-.544.356-.864.444-.32.088-.66.132-1.02.132-.6 0-1.068-.17-1.404-.51-.336-.34-.5-.854-.492-1.542h3.912c.016-.064.032-.164.048-.3.016-.136.024-.284.024-.444 0-.416-.064-.78-.192-1.092-.128-.312-.302-.57-.522-.774-.22-.204-.482-.356-.786-.456-.304-.1-.632-.15-.984-.15-.408 0-.78.072-1.116.216-.336.144-.624.35-.864.618s-.428.598-.564.99c-.136.392-.204.836-.204 1.332 0 1.056.266 1.84.798 2.352.532.512 1.266.768 2.202.768zm1.08-3.852h-2.844c.072-.52.236-.9.492-1.14.256-.24.576-.36.96-.36.176 0 .344.026.504.078.16.052.304.136.432.252.128.116.232.27.312.462.08.192.128.428.144.708zm4.68 3.732c.464 0 .856-.046 1.176-.138.32-.092.58-.218.78-.378.2-.16.342-.346.426-.558.084-.212.126-.438.126-.678 0-.344-.122-.642-.366-.894s-.61-.414-1.098-.486v-.084c.384-.072.68-.216.888-.432.208-.216.312-.512.312-.888 0-.208-.04-.402-.12-.582-.08-.18-.22-.338-.42-.474-.2-.136-.464-.244-.792-.324-.328-.08-.744-.12-1.248-.12h-1.896V10h2.232zm-.3-3.492h-.78V4.84h.78c.464 0 .802.07 1.014.21.212.14.318.326.318.558 0 .28-.098.5-.294.66-.196.16-.542.24-1.038.24zm.252 2.628h-1.032v-1.8h1.032c.424 0 .754.072.99.216.236.144.354.376.354.696 0 .28-.116.498-.348.654-.232.156-.564.234-.996.234zm4.836.864l2.628-4.152h.096V10h1.152V3.964h-1.02l-2.628 4.14h-.084v-4.14h-1.152V10h1.008zm9.936 0V3.964h-1.152v2.652c-.16.08-.34.134-.54.162-.2.028-.38.042-.54.042-.456 0-.788-.1-.996-.3-.208-.2-.312-.516-.312-.948V3.964h-1.152v1.62c0 .768.182 1.334.546 1.698.364.364.922.546 1.674.546.328 0 .59-.02.786-.06.196-.04.374-.092.534-.156V10h1.152zM263.74 26.2c.813 0 1.537-.123 2.17-.37s1.163-.597 1.59-1.05c.4-.427.703-.937.91-1.53.207-.593.31-1.23.31-1.91 0-.947-.28-1.753-.84-2.42-.587-.68-1.36-1.067-2.32-1.16v-.12c.68-.187 1.26-.573 1.74-1.16.52-.613.78-1.367.78-2.26 0-.52-.093-1-.28-1.44-.187-.44-.453-.82-.8-1.14-.747-.667-1.793-1-3.14-1-.84 0-1.62.093-2.34.28-.72.187-1.347.44-1.88.76v3.76h2.44v-2.02c.387-.16.82-.24 1.3-.24.547 0 .967.133 1.26.4.293.267.44.66.44 1.18 0 .587-.207 1.06-.62 1.42-.493.427-1.293.68-2.4.76v2.42l.48-.08c.347-.027.627-.04.84-.04.733 0 1.303.18 1.71.54.407.36.61.893.61 1.6 0 .693-.187 1.24-.56 1.64-.373.4-.847.6-1.42.6-.56 0-.993-.183-1.3-.55-.307-.367-.473-.877-.5-1.53h-2.82c.013 1.627.52 2.847 1.52 3.66.813.667 1.853 1 3.12 1zm10.92 0c.827 0 1.557-.127 2.19-.38s1.163-.607 1.59-1.06c.4-.427.703-.937.91-1.53.207-.593.31-1.23.31-1.91 0-1.493-.433-2.687-1.3-3.58-.933-.907-2.24-1.36-3.92-1.36-.173 0-.46.013-.86.04l.16-2.84h5.04V11h-7.44l-.44 8.14c.16-.04.317-.07.47-.09.153-.02.297-.043.43-.07.813-.12 1.467-.18 1.96-.18 1.92 0 2.88.853 2.88 2.56 0 .68-.193 1.227-.58 1.64-.387.413-.853.62-1.4.62-.56 0-.997-.187-1.31-.56-.313-.373-.483-.88-.51-1.52h-2.82c.013 1.627.52 2.847 1.52 3.66.813.667 1.853 1 3.12 1zm11.76 0c1.72 0 3.013-.62 3.88-1.86.933-1.307 1.4-3.273 1.4-5.9 0-2.627-.467-4.607-1.4-5.94-.867-1.24-2.16-1.86-3.88-1.86-1.707 0-2.993.62-3.86 1.86-.933 1.333-1.4 3.32-1.4 5.96 0 2.627.467 4.593 1.4 5.9.853 1.227 2.14 1.84 3.86 1.84zm0-2.58c-.813 0-1.387-.427-1.72-1.28-.333-.84-.5-2.133-.5-3.88 0-1.747.167-3.053.5-3.92.333-.88.907-1.32 1.72-1.32.8 0 1.38.433 1.74 1.3.347.893.52 2.2.52 3.92 0 1.707-.173 3-.52 3.88-.36.867-.94 1.3-1.74 1.3zM303.9 26v-2.62h3.54v-2.2h-3.54v-1.06h1.52c1.733 0 3.053-.487 3.96-1.46.4-.413.7-.893.9-1.44.2-.547.3-1.127.3-1.74 0-.587-.097-1.143-.29-1.67-.193-.527-.483-.997-.87-1.41-.427-.44-.977-.783-1.65-1.03-.673-.247-1.457-.37-2.35-.37h-6.2v2.42h1.76v4.5h-2.22v2.18h2.22v1.08h-2.22v2.2h2.22V26h2.92zm1.26-8.08h-1.26v-4.26h1.26c.72 0 1.28.153 1.68.46.467.36.7.873.7 1.54 0 .747-.233 1.32-.7 1.72-.413.36-.973.54-1.68.54z" transform="translate(8 6) translate(16 23)"/>
        </g>
        <path fill="#FFF" fill-rule="nonzero" d="M144.16 86v-7.932h3.456V77h-4.668v9h1.212zm5.556 0l2.628-4.152h.096V86h1.152v-6.036h-1.02l-2.628 4.14h-.084v-4.14h-1.152V86h1.008zm6.72 0v-5.04h2.556v-.996h-3.708V86h1.152zm5.052.12c.504 0 .896-.094 1.176-.282.28-.188.516-.45.708-.786h.084V86h1.092v-3.852c0-.728-.198-1.294-.594-1.698-.396-.404-1.018-.606-1.866-.606-.336 0-.692.032-1.068.096-.376.064-.704.18-.984.348v1.08c.304-.2.612-.34.924-.42.312-.08.636-.12.972-.12.48 0 .844.11 1.092.33.248.22.372.546.372.978v.276c-.672 0-1.244.04-1.716.12-.472.08-.858.2-1.158.36-.3.16-.518.368-.654.624s-.204.556-.204.9c0 .496.152.904.456 1.224.304.32.76.48 1.368.48zm.432-.948c-.384 0-.654-.084-.81-.252-.156-.168-.234-.38-.234-.636 0-.208.044-.384.132-.528.088-.144.232-.26.432-.348.2-.088.46-.152.78-.192.32-.04.712-.06 1.176-.06v.324c0 .288-.042.538-.126.75-.084.212-.196.388-.336.528s-.298.244-.474.312-.356.102-.54.102zm6.756.948c.408 0 .788-.072 1.14-.216.352-.144.658-.348.918-.612s.464-.586.612-.966c.148-.38.222-.81.222-1.29 0-.464-.066-.882-.198-1.254s-.314-.686-.546-.942c-.232-.256-.506-.452-.822-.588-.316-.136-.658-.204-1.026-.204-.576 0-1.048.13-1.416.39-.368.26-.612.606-.732 1.038h-.084c.024-.608.1-1.118.228-1.53.128-.412.318-.748.57-1.008.252-.26.568-.452.948-.576.38-.124.83-.206 1.35-.246.368-.016.662-.038.882-.066.22-.028.362-.05.426-.066v-1.092c-.064.016-.202.036-.414.06-.212.024-.53.048-.954.072-.704.048-1.308.176-1.812.384-.504.208-.918.516-1.242.924-.324.408-.564.932-.72 1.572-.156.64-.234 1.42-.234 2.34 0 .768.08 1.4.24 1.896.16.496.374.892.642 1.188.268.296.578.502.93.618.352.116.716.174 1.092.174zm0-1.008c-.48 0-.88-.174-1.2-.522-.32-.348-.48-.862-.48-1.542 0-.672.16-1.176.48-1.512.32-.336.72-.504 1.2-.504.24 0 .462.042.666.126.204.084.38.21.528.378.148.168.266.376.354.624.088.248.132.54.132.876 0 .336-.044.634-.132.894-.088.26-.206.476-.354.648-.148.172-.324.304-.528.396-.204.092-.426.138-.666.138zm5.712 1.008c.504 0 .896-.094 1.176-.282.28-.188.516-.45.708-.786h.084V86h1.092v-3.852c0-.728-.198-1.294-.594-1.698-.396-.404-1.018-.606-1.866-.606-.336 0-.692.032-1.068.096-.376.064-.704.18-.984.348v1.08c.304-.2.612-.34.924-.42.312-.08.636-.12.972-.12.48 0 .844.11 1.092.33.248.22.372.546.372.978v.276c-.672 0-1.244.04-1.716.12-.472.08-.858.2-1.158.36-.3.16-.518.368-.654.624s-.204.556-.204.9c0 .496.152.904.456 1.224.304.32.76.48 1.368.48zm.432-.948c-.384 0-.654-.084-.81-.252-.156-.168-.234-.38-.234-.636 0-.208.044-.384.132-.528.088-.144.232-.26.432-.348.2-.088.46-.152.78-.192.32-.04.712-.06 1.176-.06v.324c0 .288-.042.538-.126.75-.084.212-.196.388-.336.528s-.298.244-.474.312-.356.102-.54.102zm6.708-6.024c.264 0 .512-.034.744-.102.232-.068.434-.176.606-.324.172-.148.306-.338.402-.57.096-.232.144-.508.144-.828h-1.02c0 .256-.064.476-.192.66-.128.184-.356.276-.684.276-.336 0-.566-.092-.69-.276-.124-.184-.186-.404-.186-.66h-1.02c0 .32.048.594.144.822.096.228.23.416.402.564.172.148.374.258.606.33.232.072.48.108.744.108zM180.088 86l2.628-4.152h.096V86h1.152v-6.036h-1.02l-2.628 4.14h-.084v-4.14h-1.152V86h1.008zm7.764 0v-5.04h1.776v-.996h-4.704v.996h1.776V86h1.152z" transform="translate(8 6)"/>
        <path fill="#EDEDF4" fill-rule="nonzero" d="M152.02 109v-2.58h-5.82l.42-.48c1.053-1.213 1.713-1.96 1.98-2.24.973-1.08 1.667-2.013 2.08-2.8.533-1 .8-2.013.8-3.04 0-1.307-.377-2.337-1.13-3.09-.753-.753-1.817-1.13-3.19-1.13-.867 0-1.673.09-2.42.27-.747.18-1.36.437-1.84.77v3.76h2.46V96.5c.4-.187.82-.28 1.26-.28 1.227 0 1.84.64 1.84 1.92 0 .64-.153 1.26-.46 1.86-.307.6-.787 1.287-1.44 2.06l-.32.36c-.32.347-.56.62-.72.82l-.84.96-.44.5-.9 1.04-.64.74V109h9.32zm5.92.2c.813 0 1.537-.123 2.17-.37s1.163-.597 1.59-1.05c.4-.427.703-.937.91-1.53.207-.593.31-1.23.31-1.91 0-.947-.28-1.753-.84-2.42-.587-.68-1.36-1.067-2.32-1.16v-.12c.68-.187 1.26-.573 1.74-1.16.52-.613.78-1.367.78-2.26 0-.52-.093-1-.28-1.44-.187-.44-.453-.82-.8-1.14-.747-.667-1.793-1-3.14-1-.84 0-1.62.093-2.34.28-.72.187-1.347.44-1.88.76v3.76h2.44v-2.02c.387-.16.82-.24 1.3-.24.547 0 .967.133 1.26.4.293.267.44.66.44 1.18 0 .587-.207 1.06-.62 1.42-.493.427-1.293.68-2.4.76v2.42l.48-.08c.347-.027.627-.04.84-.04.733 0 1.303.18 1.71.54.407.36.61.893.61 1.6 0 .693-.187 1.24-.56 1.64-.373.4-.847.6-1.42.6-.56 0-.993-.183-1.3-.55-.307-.367-.473-.877-.5-1.53h-2.82c.013 1.627.52 2.847 1.52 3.66.813.667 1.853 1 3.12 1z" transform="translate(8 6)"/>
        <path d="M16 122H283V184H16z" transform="translate(8 6)"/>
        <g>
            <path fill="#FFF" fill-rule="nonzero" d="M4.392 29.12c.304 0 .632-.028.984-.084.352-.056.68-.176.984-.36v-1.128c-.16.12-.324.214-.492.282-.168.068-.334.12-.498.156-.164.036-.32.058-.468.066-.148.008-.278.012-.39.012-.856 0-1.526-.288-2.01-.864-.484-.576-.726-1.476-.726-2.7 0-.6.07-1.122.21-1.566.14-.444.334-.814.582-1.11.248-.296.538-.518.87-.666.332-.148.686-.222 1.062-.222.704 0 1.256.112 1.656.336v-1.104c-.104-.048-.226-.09-.366-.126-.14-.036-.288-.066-.444-.09-.156-.024-.314-.042-.474-.054-.16-.012-.312-.018-.456-.018-.616 0-1.166.108-1.65.324-.484.216-.894.524-1.23.924-.336.4-.592.886-.768 1.458-.176.572-.264 1.21-.264 1.914 0 .712.078 1.352.234 1.92.156.568.392 1.052.708 1.452.316.4.718.708 1.206.924.488.216 1.068.324 1.74.324zM8.844 29v-5.04h2.46V29h1.152v-6.036H7.692V29h1.152zm6.312 0l2.628-4.152h.096V29h1.152v-6.036h-1.02l-2.628 4.14H15.3v-4.14h-1.152V29h1.008zm8.1.12c.408 0 .738-.036.99-.108.252-.072.442-.144.57-.216v-1.14c-.336.288-.812.432-1.428.432-.28 0-.534-.04-.762-.12-.228-.08-.422-.204-.582-.372-.16-.168-.286-.384-.378-.648-.092-.264-.138-.58-.138-.948 0-.36.046-.674.138-.942.092-.268.218-.49.378-.666.16-.176.35-.306.57-.39.22-.084.458-.126.714-.126.216 0 .452.026.708.078.256.052.488.154.696.306v-1.116c-.184-.096-.394-.17-.63-.222-.236-.052-.53-.078-.882-.078-.416 0-.802.072-1.158.216-.356.144-.662.35-.918.618s-.458.598-.606.99c-.148.392-.222.836-.222 1.332 0 1 .256 1.77.768 2.31s1.236.81 2.172.81zm4.368 0c.504 0 .896-.094 1.176-.282.28-.188.516-.45.708-.786h.084V29h1.092v-3.852c0-.728-.198-1.294-.594-1.698-.396-.404-1.018-.606-1.866-.606-.336 0-.692.032-1.068.096-.376.064-.704.18-.984.348v1.08c.304-.2.612-.34.924-.42.312-.08.636-.12.972-.12.48 0 .844.11 1.092.33.248.22.372.546.372.978v.276c-.672 0-1.244.04-1.716.12-.472.08-.858.2-1.158.36-.3.16-.518.368-.654.624s-.204.556-.204.9c0 .496.152.904.456 1.224.304.32.76.48 1.368.48zm.432-.948c-.384 0-.654-.084-.81-.252-.156-.168-.234-.38-.234-.636 0-.208.044-.384.132-.528.088-.144.232-.26.432-.348.2-.088.46-.152.78-.192.32-.04.712-.06 1.176-.06v.324c0 .288-.042.538-.126.75-.084.212-.196.388-.336.528s-.298.244-.474.312-.356.102-.54.102zm5.412.828v-2.616h2.58V29H37.2v-6.036h-1.152v2.424h-2.58v-2.424h-1.152V29h1.152zm6.432 0l2.628-4.152h.096V29h1.152v-6.036h-1.02l-2.628 4.14h-.084v-4.14h-1.152V29H39.9zm8.16.12c.44 0 .838-.046 1.194-.138.356-.092.634-.218.834-.378v-1.068c-.256.208-.544.356-.864.444-.32.088-.66.132-1.02.132-.6 0-1.068-.17-1.404-.51-.336-.34-.5-.854-.492-1.542h3.912c.016-.064.032-.164.048-.3.016-.136.024-.284.024-.444 0-.416-.064-.78-.192-1.092-.128-.312-.302-.57-.522-.774-.22-.204-.482-.356-.786-.456-.304-.1-.632-.15-.984-.15-.408 0-.78.072-1.116.216-.336.144-.624.35-.864.618s-.428.598-.564.99c-.136.392-.204.836-.204 1.332 0 1.056.266 1.84.798 2.352.532.512 1.266.768 2.202.768zm1.08-3.852h-2.844c.072-.52.236-.9.492-1.14.256-.24.576-.36.96-.36.176 0 .344.026.504.078.16.052.304.136.432.252.128.116.232.27.312.462.08.192.128.428.144.708zm6.744 3.852c.48 0 .876-.05 1.188-.15.312-.1.56-.234.744-.402.184-.168.312-.36.384-.576.072-.216.108-.44.108-.672 0-.36-.112-.672-.336-.936-.224-.264-.6-.444-1.128-.54v-.084c.464-.112.788-.29.972-.534.184-.244.276-.522.276-.834 0-.2-.038-.394-.114-.582-.076-.188-.204-.354-.384-.498-.18-.144-.414-.258-.702-.342-.288-.084-.64-.126-1.056-.126-.288 0-.584.03-.888.09-.304.06-.576.146-.816.258v1.032c.248-.152.5-.264.756-.336.256-.072.536-.108.84-.108.792 0 1.188.268 1.188.804 0 .256-.086.464-.258.624-.172.16-.45.24-.834.24H54.9v.924h.924c.176 0 .342.014.498.042.156.028.294.074.414.138.12.064.216.152.288.264.072.112.108.256.108.432 0 .288-.098.516-.294.684-.196.168-.51.252-.942.252-.32 0-.638-.044-.954-.132-.316-.088-.626-.224-.93-.408V28.7c.264.152.568.26.912.324.344.064.664.096.96.096zm5.316 0c.504 0 .896-.094 1.176-.282.28-.188.516-.45.708-.786h.084V29h1.092v-3.852c0-.728-.198-1.294-.594-1.698-.396-.404-1.018-.606-1.866-.606-.336 0-.692.032-1.068.096-.376.064-.704.18-.984.348v1.08c.304-.2.612-.34.924-.42.312-.08.636-.12.972-.12.48 0 .844.11 1.092.33.248.22.372.546.372.978v.276c-.672 0-1.244.04-1.716.12-.472.08-.858.2-1.158.36-.3.16-.518.368-.654.624s-.204.556-.204.9c0 .496.152.904.456 1.224.304.32.76.48 1.368.48zm.432-.948c-.384 0-.654-.084-.81-.252-.156-.168-.234-.38-.234-.636 0-.208.044-.384.132-.528.088-.144.232-.26.432-.348.2-.088.46-.152.78-.192.32-.04.712-.06 1.176-.06v.324c0 .288-.042.538-.126.75-.084.212-.196.388-.336.528s-.298.244-.474.312-.356.102-.54.102zm9.264.828v-5.04h1.776v-.996h-4.704v.996h1.776V29h1.152zm4.284.12c.504 0 .896-.094 1.176-.282.28-.188.516-.45.708-.786h.084V29h1.092v-3.852c0-.728-.198-1.294-.594-1.698-.396-.404-1.018-.606-1.866-.606-.336 0-.692.032-1.068.096-.376.064-.704.18-.984.348v1.08c.304-.2.612-.34.924-.42.312-.08.636-.12.972-.12.48 0 .844.11 1.092.33.248.22.372.546.372.978v.276c-.672 0-1.244.04-1.716.12-.472.08-.858.2-1.158.36-.3.16-.518.368-.654.624s-.204.556-.204.9c0 .496.152.904.456 1.224.304.32.76.48 1.368.48zm.432-.948c-.384 0-.654-.084-.81-.252-.156-.168-.234-.38-.234-.636 0-.208.044-.384.132-.528.088-.144.232-.26.432-.348.2-.088.46-.152.78-.192.32-.04.712-.06 1.176-.06v.324c0 .288-.042.538-.126.75-.084.212-.196.388-.336.528s-.298.244-.474.312-.356.102-.54.102zM81.024 32v-2.88l-.06-.96h.084c.192.296.446.53.762.702.316.172.694.258 1.134.258.368 0 .708-.07 1.02-.21.312-.14.58-.346.804-.618.224-.272.398-.604.522-.996s.186-.836.186-1.332c0-.48-.062-.912-.186-1.296s-.298-.71-.522-.978c-.224-.268-.49-.476-.798-.624-.308-.148-.646-.222-1.014-.222-.488 0-.886.092-1.194.276-.308.184-.546.416-.714.696h-.084v-.852h-1.092V32h1.152zm1.596-3.888c-.216 0-.422-.038-.618-.114-.196-.076-.366-.188-.51-.336-.144-.148-.258-.332-.342-.552-.084-.22-.126-.478-.126-.774v-.84c0-.552.148-.964.444-1.236.296-.272.676-.408 1.14-.408.224 0 .436.04.636.12.2.08.376.206.528.378.152.172.272.392.36.66.088.268.132.586.132.954 0 .384-.044.71-.132.978-.088.268-.208.49-.36.666-.152.176-.328.304-.528.384-.2.08-.408.12-.624.12zm5.16.888l2.628-4.152h.096V29h1.152v-6.036h-1.02l-2.628 4.14h-.084v-4.14h-1.152V29h1.008zm9.396 3v-2.892c.504 0 .95-.078 1.338-.234.388-.156.716-.374.984-.654s.472-.612.612-.996.21-.808.21-1.272c0-.448-.07-.86-.21-1.236-.14-.376-.342-.7-.606-.972-.264-.272-.592-.484-.984-.636-.392-.152-.84-.236-1.344-.252V20h-1.152v2.856c-.504 0-.95.078-1.338.234-.388.156-.716.372-.984.648s-.472.608-.612.996-.21.81-.21 1.266c0 .456.07.872.21 1.248.14.376.342.7.606.972.264.272.592.486.984.642.392.156.84.238 1.344.246V32h1.152zm-1.152-3.816c-.624-.016-1.102-.214-1.434-.594-.332-.38-.498-.91-.498-1.59s.164-1.218.492-1.614c.328-.396.808-.598 1.44-.606v4.404zm1.152 0V23.78c.624.016 1.102.212 1.434.588.332.376.498.904.498 1.584s-.164 1.22-.492 1.62c-.328.4-.808.604-1.44.612zm12.06.816v-1.092h-3.888l2.04-2.532c.232-.288.44-.562.624-.822.184-.26.342-.516.474-.768.132-.252.234-.506.306-.762.072-.256.108-.528.108-.816 0-.736-.198-1.308-.594-1.716-.396-.408-1.002-.612-1.818-.612-.192 0-.392.012-.6.036-.208.024-.412.062-.612.114-.2.052-.388.118-.564.198-.176.08-.328.172-.456.276v1.152c.336-.28.672-.47 1.008-.57.336-.1.672-.15 1.008-.15.904 0 1.356.452 1.356 1.356 0 .408-.1.812-.3 1.212-.2.4-.48.828-.84 1.284l-2.58 3.24V29h5.328zm2.808.12c.552 0 1.018-.076 1.398-.228.38-.152.688-.356.924-.612.236-.256.404-.552.504-.888.1-.336.15-.692.15-1.068 0-.624-.178-1.142-.534-1.554-.356-.412-.874-.658-1.554-.738v-.06c.224-.056.442-.14.654-.252.212-.112.4-.254.564-.426.164-.172.296-.376.396-.612.1-.236.15-.506.15-.81 0-.272-.046-.528-.138-.768-.092-.24-.236-.45-.432-.63s-.446-.324-.75-.432c-.304-.108-.672-.162-1.104-.162-.384 0-.772.054-1.164.162-.392.108-.712.274-.96.498v1.152c.256-.272.556-.466.9-.582.344-.116.712-.174 1.104-.174.408 0 .724.106.948.318.224.212.336.506.336.882 0 .2-.044.388-.132.564-.088.176-.226.336-.414.48-.188.144-.43.264-.726.36-.296.096-.656.168-1.08.216V24.8c.176-.048.352-.078.528-.09.176-.012.32-.018.432-.018.552 0 .974.146 1.266.438.292.292.438.694.438 1.206 0 .544-.156.968-.468 1.272-.312.304-.744.456-1.296.456-.424 0-.788-.044-1.092-.132-.304-.088-.616-.224-.936-.408v1.152c.28.144.602.254.966.33.364.076.738.114 1.122.114zM122.976 32v-2.892c.504 0 .95-.078 1.338-.234.388-.156.716-.374.984-.654s.472-.612.612-.996.21-.808.21-1.272c0-.448-.07-.86-.21-1.236-.14-.376-.342-.7-.606-.972-.264-.272-.592-.484-.984-.636-.392-.152-.84-.236-1.344-.252V20h-1.152v2.856c-.504 0-.95.078-1.338.234-.388.156-.716.372-.984.648s-.472.608-.612.996-.21.81-.21 1.266c0 .456.07.872.21 1.248.14.376.342.7.606.972.264.272.592.486.984.642.392.156.84.238 1.344.246V32h1.152zm-1.152-3.816c-.624-.016-1.102-.214-1.434-.594-.332-.38-.498-.91-.498-1.59s.164-1.218.492-1.614c.328-.396.808-.598 1.44-.606v4.404zm1.152 0V23.78c.624.016 1.102.212 1.434.588.332.376.498.904.498 1.584s-.164 1.22-.492 1.62c-.328.4-.808.604-1.44.612zm6.972.936c.44 0 .838-.046 1.194-.138.356-.092.634-.218.834-.378v-1.068c-.256.208-.544.356-.864.444-.32.088-.66.132-1.02.132-.6 0-1.068-.17-1.404-.51-.336-.34-.5-.854-.492-1.542h3.912c.016-.064.032-.164.048-.3.016-.136.024-.284.024-.444 0-.416-.064-.78-.192-1.092-.128-.312-.302-.57-.522-.774-.22-.204-.482-.356-.786-.456-.304-.1-.632-.15-.984-.15-.408 0-.78.072-1.116.216-.336.144-.624.35-.864.618s-.428.598-.564.99c-.136.392-.204.836-.204 1.332 0 1.056.266 1.84.798 2.352.532.512 1.266.768 2.202.768zm1.08-3.852h-2.844c.072-.52.236-.9.492-1.14.256-.24.576-.36.96-.36.176 0 .344.026.504.078.16.052.304.136.432.252.128.116.232.27.312.462.08.192.128.428.144.708zm4.68 3.732c.464 0 .856-.046 1.176-.138.32-.092.58-.218.78-.378.2-.16.342-.346.426-.558.084-.212.126-.438.126-.678 0-.344-.122-.642-.366-.894s-.61-.414-1.098-.486v-.084c.384-.072.68-.216.888-.432.208-.216.312-.512.312-.888 0-.208-.04-.402-.12-.582-.08-.18-.22-.338-.42-.474-.2-.136-.464-.244-.792-.324-.328-.08-.744-.12-1.248-.12h-1.896V29h2.232zm-.3-3.492h-.78V23.84h.78c.464 0 .802.07 1.014.21.212.14.318.326.318.558 0 .28-.098.5-.294.66-.196.16-.542.24-1.038.24zm.252 2.628h-1.032v-1.8h1.032c.424 0 .754.072.99.216.236.144.354.376.354.696 0 .28-.116.498-.348.654-.232.156-.564.234-.996.234zM140.64 32v-2.88l-.06-.96h.084c.192.296.446.53.762.702.316.172.694.258 1.134.258.368 0 .708-.07 1.02-.21.312-.14.58-.346.804-.618.224-.272.398-.604.522-.996s.186-.836.186-1.332c0-.48-.062-.912-.186-1.296s-.298-.71-.522-.978c-.224-.268-.49-.476-.798-.624-.308-.148-.646-.222-1.014-.222-.488 0-.886.092-1.194.276-.308.184-.546.416-.714.696h-.084v-.852h-1.092V32h1.152zm1.596-3.888c-.216 0-.422-.038-.618-.114-.196-.076-.366-.188-.51-.336-.144-.148-.258-.332-.342-.552-.084-.22-.126-.478-.126-.774v-.84c0-.552.148-.964.444-1.236.296-.272.676-.408 1.14-.408.224 0 .436.04.636.12.2.08.376.206.528.378.152.172.272.392.36.66.088.268.132.586.132.954 0 .384-.044.71-.132.978-.088.268-.208.49-.36.666-.152.176-.328.304-.528.384-.2.08-.408.12-.624.12zm5.688 1.008c.504 0 .896-.094 1.176-.282.28-.188.516-.45.708-.786h.084V29h1.092v-3.852c0-.728-.198-1.294-.594-1.698-.396-.404-1.018-.606-1.866-.606-.336 0-.692.032-1.068.096-.376.064-.704.18-.984.348v1.08c.304-.2.612-.34.924-.42.312-.08.636-.12.972-.12.48 0 .844.11 1.092.33.248.22.372.546.372.978v.276c-.672 0-1.244.04-1.716.12-.472.08-.858.2-1.158.36-.3.16-.518.368-.654.624s-.204.556-.204.9c0 .496.152.904.456 1.224.304.32.76.48 1.368.48zm.432-.948c-.384 0-.654-.084-.81-.252-.156-.168-.234-.38-.234-.636 0-.208.044-.384.132-.528.088-.144.232-.26.432-.348.2-.088.46-.152.78-.192.32-.04.712-.06 1.176-.06v.324c0 .288-.042.538-.126.75-.084.212-.196.388-.336.528s-.298.244-.474.312-.356.102-.54.102zm4.056.912c.424 0 .762-.142 1.014-.426.252-.284.448-.664.588-1.14.14-.476.232-1.022.276-1.638.044-.616.066-1.256.066-1.92h1.8V29h1.152v-6.036h-3.936c0 .696-.01 1.35-.03 1.962-.02.612-.07 1.146-.15 1.602-.08.456-.194.814-.342 1.074-.148.26-.346.39-.594.39h-.096c-.032 0-.06-.004-.084-.012-.032-.008-.06-.016-.084-.024v1.08l.12.024c.04.008.084.014.132.018.048.004.104.006.168.006zm7.452-.084l1.596-2.148h.72V29h1.152v-6.036h-2.136c-.44 0-.814.058-1.122.174-.308.116-.558.266-.75.45-.192.184-.33.39-.414.618-.084.228-.126.458-.126.69 0 .44.128.812.384 1.116.256.304.624.512 1.104.624L158.532 29h1.332zm2.316-3.036h-.816c-.448 0-.788-.092-1.02-.276-.232-.184-.348-.436-.348-.756 0-.304.116-.552.348-.744.232-.192.572-.288 1.02-.288h.816v2.064zM2.475 12V3.015h.09L5.445 12H6.57l2.88-8.985h.09V12h1.515V.75H9.12L6.195 9.705H6.12L3.18.75H1.185V12h1.29zm13.845.15c.5 0 .965-.088 1.395-.263.43-.175.802-.43 1.117-.764.316-.335.563-.745.743-1.23.18-.486.27-1.038.27-1.658 0-.62-.09-1.172-.27-1.657-.18-.486-.43-.898-.75-1.238-.32-.34-.695-.598-1.125-.772-.43-.175-.89-.263-1.38-.263-.51 0-.98.09-1.41.27-.43.18-.803.438-1.117.772-.316.335-.56.748-.736 1.238-.175.49-.262 1.045-.262 1.665 0 .62.088 1.172.262 1.658.175.485.42.892.736 1.222.315.33.687.582 1.117.757.43.175.9.263 1.41.263zm0-1.26c-.28 0-.543-.05-.787-.15-.245-.1-.458-.258-.638-.473-.18-.214-.322-.487-.428-.817-.104-.33-.157-.73-.157-1.2s.053-.875.157-1.215c.105-.34.248-.617.428-.833.18-.215.393-.375.638-.48.245-.105.507-.157.787-.157.27 0 .525.052.765.157.24.105.453.265.637.48.185.216.333.493.443.833.11.34.165.74.165 1.2 0 .47-.052.87-.157 1.2-.105.33-.25.605-.435.825-.186.22-.4.38-.645.48-.245.1-.503.15-.773.15zm8.205-7.455c.33 0 .64-.042.93-.127.29-.085.543-.22.758-.405.214-.186.382-.423.502-.713s.18-.635.18-1.035H25.62c0 .32-.08.595-.24.825-.16.23-.445.345-.855.345-.42 0-.707-.115-.862-.345-.155-.23-.233-.505-.233-.825h-1.275c0 .4.06.742.18 1.028.12.284.287.52.502.705.215.184.468.322.758.412.29.09.6.135.93.135zM22.725 12l3.285-5.19h.12V12h1.44V4.455h-1.275L23.01 9.63h-.105V4.455h-1.44V12h1.26zm13.485.15c.5 0 .965-.088 1.395-.263.43-.175.803-.43 1.117-.764.316-.335.563-.745.743-1.23.18-.486.27-1.038.27-1.658 0-.62-.09-1.172-.27-1.657-.18-.486-.43-.898-.75-1.238-.32-.34-.695-.598-1.125-.772-.43-.175-.89-.263-1.38-.263-.51 0-.98.09-1.41.27-.43.18-.802.438-1.117.772-.316.335-.56.748-.736 1.238-.175.49-.262 1.045-.262 1.665 0 .62.087 1.172.262 1.658.175.485.42.892.735 1.222.316.33.688.582 1.118.757.43.175.9.263 1.41.263zm0-1.26c-.28 0-.543-.05-.788-.15-.244-.1-.457-.258-.637-.473-.18-.214-.322-.487-.427-.817-.105-.33-.158-.73-.158-1.2s.052-.875.157-1.215c.105-.34.248-.617.428-.833.18-.215.393-.375.638-.48.244-.105.507-.157.787-.157.27 0 .525.052.765.157.24.105.453.265.637.48.185.216.333.493.443.833.11.34.165.74.165 1.2 0 .47-.053.87-.157 1.2-.105.33-.25.605-.436.825-.184.22-.4.38-.645.48-.245.1-.502.15-.772.15zM42.795 12V8.73h3.225V12h1.44V4.455h-1.44v3.03h-3.225v-3.03h-1.44V12h1.44zm6.525.105c.53 0 .953-.178 1.267-.533.316-.354.56-.83.735-1.424.175-.595.29-1.278.345-2.048.055-.77.083-1.57.083-2.4H54V12h1.44V4.455h-4.92c0 .87-.013 1.688-.038 2.452-.024.766-.087 1.433-.187 2.003-.1.57-.242 1.018-.428 1.342-.184.325-.432.488-.742.488h-.12c-.04 0-.075-.005-.105-.015-.04-.01-.075-.02-.105-.03v1.35l.15.03c.05.01.105.018.165.023.06.004.13.007.21.007zm10.155.045c.63 0 1.12-.117 1.47-.353.35-.235.645-.562.885-.982h.105V12H63.3V7.185c0-.91-.247-1.617-.742-2.122-.495-.505-1.273-.758-2.333-.758-.42 0-.865.04-1.335.12-.47.08-.88.225-1.23.435v1.35c.38-.25.765-.425 1.155-.525.39-.1.795-.15 1.215-.15.6 0 1.055.138 1.365.412.31.276.465.683.465 1.223v.345c-.84 0-1.555.05-2.145.15-.59.1-1.073.25-1.448.45s-.647.46-.817.78c-.17.32-.255.695-.255 1.125 0 .62.19 1.13.57 1.53.38.4.95.6 1.71.6zm.54-1.185c-.48 0-.818-.105-1.013-.315-.195-.21-.292-.475-.292-.795 0-.26.055-.48.165-.66.11-.18.29-.325.54-.435.25-.11.575-.19.975-.24.4-.05.89-.075 1.47-.075v.405c0 .36-.053.673-.157.938-.106.264-.245.485-.42.66-.175.175-.373.304-.593.39-.22.085-.445.127-.675.127zm8.385-7.53c.33 0 .64-.042.93-.127.29-.085.543-.22.758-.405.215-.186.382-.423.502-.713s.18-.635.18-1.035h-1.275c0 .32-.08.595-.24.825-.16.23-.445.345-.855.345-.42 0-.708-.115-.863-.345-.155-.23-.232-.505-.232-.825H66.03c0 .4.06.742.18 1.028.12.284.288.52.503.705.215.184.467.322.757.412.29.09.6.135.93.135zM66.6 12l3.285-5.19h.12V12h1.44V4.455H70.17L66.885 9.63h-.105V4.455h-1.44V12h1.26zm8.4 0V8.73h3.225V12h1.44V4.455h-1.44v3.03H75v-3.03h-1.44V12H75zm10.35-1.965v-2.76h2.505V6.09H85.35V3.45h-1.215v2.64h-2.52v1.185h2.52v2.76h1.215z" transform="translate(8 6) translate(16 139)"/>
        </g>
        <path fill="#FFF" fill-rule="nonzero" d="M17.98 86v-7.188h.072L20.356 86h.9l2.304-7.188h.072V86h1.212v-9h-1.548l-2.34 7.164h-.06L18.544 77h-1.596v9h1.032zm9.672 0l2.628-4.152h.096V86h1.152v-6.036h-1.02l-2.628 4.14h-.084v-4.14h-1.152V86h1.008zm6.72 0v-2.616h2.58V86h1.152v-6.036h-1.152v2.424h-2.58v-2.424H33.22V86h1.152zm7.032 3l3.252-9.036h-1.092l-1.572 4.44h-.108l-1.692-4.44h-1.224l2.4 6.108L40.312 89h1.092zm6.324-3v-5.04h1.776v-.996H44.8v.996h1.776V86h1.152z" transform="translate(8 6)"/>
        <path fill="#EDEDF4" fill-rule="nonzero" d="M24.9 109v-2.58h-2.46V93.8h-1.92l-3.76 1.64v2.8l2.76-1.2v9.38h-2.6V109h7.98zm5.78.2c.827 0 1.557-.127 2.19-.38s1.163-.607 1.59-1.06c.4-.427.703-.937.91-1.53.207-.593.31-1.23.31-1.91 0-1.493-.433-2.687-1.3-3.58-.933-.907-2.24-1.36-3.92-1.36-.173 0-.46.013-.86.04l.16-2.84h5.04V94h-7.44l-.44 8.14c.16-.04.317-.07.47-.09.153-.02.297-.043.43-.07.813-.12 1.467-.18 1.96-.18 1.92 0 2.88.853 2.88 2.56 0 .68-.193 1.227-.58 1.64-.387.413-.853.62-1.4.62-.56 0-.997-.187-1.31-.56-.313-.373-.483-.88-.51-1.52h-2.82c.013 1.627.52 2.847 1.52 3.66.813.667 1.853 1 3.12 1zm11.76 0c1.72 0 3.013-.62 3.88-1.86.933-1.307 1.4-3.273 1.4-5.9 0-2.627-.467-4.607-1.4-5.94-.867-1.24-2.16-1.86-3.88-1.86-1.707 0-2.993.62-3.86 1.86-.933 1.333-1.4 3.32-1.4 5.96 0 2.627.467 4.593 1.4 5.9.853 1.227 2.14 1.84 3.86 1.84zm0-2.58c-.813 0-1.387-.427-1.72-1.28-.333-.84-.5-2.133-.5-3.88 0-1.747.167-3.053.5-3.92.333-.88.907-1.32 1.72-1.32.8 0 1.38.433 1.74 1.3.347.893.52 2.2.52 3.92 0 1.707-.173 3-.52 3.88-.36.867-.94 1.3-1.74 1.3z" transform="translate(8 6)"/>
        <path fill="#FFF" fill-rule="nonzero" d="M261.904 86.12c.496 0 .92-.066 1.272-.198s.638-.31.858-.534c.22-.224.382-.486.486-.786.104-.3.156-.618.156-.954 0-.392-.062-.726-.186-1.002s-.292-.516-.504-.72c-.212-.204-.458-.384-.738-.54-.28-.156-.572-.306-.876-.45-.208-.096-.408-.196-.6-.3-.192-.104-.36-.218-.504-.342-.144-.124-.26-.268-.348-.432-.088-.164-.132-.362-.132-.594 0-.264.05-.482.15-.654.1-.172.23-.308.39-.408.16-.1.338-.17.534-.21.196-.04.39-.06.582-.06.368 0 .714.036 1.038.108.324.072.594.176.81.312v-1.152c-.192-.112-.462-.194-.81-.246-.348-.052-.71-.078-1.086-.078-.352 0-.7.04-1.044.12-.344.08-.652.212-.924.396-.272.184-.492.428-.66.732-.168.304-.252.684-.252 1.14 0 .384.054.712.162.984.108.272.254.51.438.714.184.204.404.384.66.54.256.156.532.302.828.438.248.112.48.22.696.324.216.104.406.22.57.348.164.128.294.276.39.444.096.168.144.372.144.612 0 .28-.04.508-.12.684-.08.176-.19.318-.33.426-.14.108-.306.182-.498.222-.192.04-.396.06-.612.06-.36 0-.748-.054-1.164-.162-.416-.108-.828-.298-1.236-.57v1.248c.2.112.41.204.63.276.22.072.44.128.66.168.22.04.43.066.63.078.2.012.38.018.54.018zM267.1 86v-7.188h.072L269.476 86h.9l2.304-7.188h.072V86h1.212v-9h-1.548l-2.34 7.164h-.06L267.664 77h-1.596v9h1.032zm10.716.12c.496 0 .92-.066 1.272-.198s.638-.31.858-.534c.22-.224.382-.486.486-.786.104-.3.156-.618.156-.954 0-.392-.062-.726-.186-1.002s-.292-.516-.504-.72c-.212-.204-.458-.384-.738-.54-.28-.156-.572-.306-.876-.45-.208-.096-.408-.196-.6-.3-.192-.104-.36-.218-.504-.342-.144-.124-.26-.268-.348-.432-.088-.164-.132-.362-.132-.594 0-.264.05-.482.15-.654.1-.172.23-.308.39-.408.16-.1.338-.17.534-.21.196-.04.39-.06.582-.06.368 0 .714.036 1.038.108.324.072.594.176.81.312v-1.152c-.192-.112-.462-.194-.81-.246-.348-.052-.71-.078-1.086-.078-.352 0-.7.04-1.044.12-.344.08-.652.212-.924.396-.272.184-.492.428-.66.732-.168.304-.252.684-.252 1.14 0 .384.054.712.162.984.108.272.254.51.438.714.184.204.404.384.66.54.256.156.532.302.828.438.248.112.48.22.696.324.216.104.406.22.57.348.164.128.294.276.39.444.096.168.144.372.144.612 0 .28-.04.508-.12.684-.08.176-.19.318-.33.426-.14.108-.306.182-.498.222-.192.04-.396.06-.612.06-.36 0-.748-.054-1.164-.162-.416-.108-.828-.298-1.236-.57v1.248c.2.112.41.204.63.276.22.072.44.128.66.168.22.04.43.066.63.078.2.012.38.018.54.018z" transform="translate(8 6)"/>
        <path fill="#EDEDF4" fill-rule="nonzero" d="M269.02 109v-2.58h-5.82l.42-.48c1.053-1.213 1.713-1.96 1.98-2.24.973-1.08 1.667-2.013 2.08-2.8.533-1 .8-2.013.8-3.04 0-1.307-.377-2.337-1.13-3.09-.753-.753-1.817-1.13-3.19-1.13-.867 0-1.673.09-2.42.27-.747.18-1.36.437-1.84.77v3.76h2.46V96.5c.4-.187.82-.28 1.26-.28 1.227 0 1.84.64 1.84 1.92 0 .64-.153 1.26-.46 1.86-.307.6-.787 1.287-1.44 2.06l-.32.36c-.32.347-.56.62-.72.82l-.84.96-.44.5-.9 1.04-.64.74V109h9.32zm5.92.2c.813 0 1.537-.123 2.17-.37s1.163-.597 1.59-1.05c.4-.427.703-.937.91-1.53.207-.593.31-1.23.31-1.91 0-.947-.28-1.753-.84-2.42-.587-.68-1.36-1.067-2.32-1.16v-.12c.68-.187 1.26-.573 1.74-1.16.52-.613.78-1.367.78-2.26 0-.52-.093-1-.28-1.44-.187-.44-.453-.82-.8-1.14-.747-.667-1.793-1-3.14-1-.84 0-1.62.093-2.34.28-.72.187-1.347.44-1.88.76v3.76h2.44v-2.02c.387-.16.82-.24 1.3-.24.547 0 .967.133 1.26.4.293.267.44.66.44 1.18 0 .587-.207 1.06-.62 1.42-.493.427-1.293.68-2.4.76v2.42l.48-.08c.347-.027.627-.04.84-.04.733 0 1.303.18 1.71.54.407.36.61.893.61 1.6 0 .693-.187 1.24-.56 1.64-.373.4-.847.6-1.42.6-.56 0-.993-.183-1.3-.55-.307-.367-.473-.877-.5-1.53h-2.82c.013 1.627.52 2.847 1.52 3.66.813.667 1.853 1 3.12 1zm10.92 0c.827 0 1.557-.127 2.19-.38s1.163-.607 1.59-1.06c.4-.427.703-.937.91-1.53.207-.593.31-1.23.31-1.91 0-1.493-.433-2.687-1.3-3.58-.933-.907-2.24-1.36-3.92-1.36-.173 0-.46.013-.86.04l.16-2.84h5.04V94h-7.44l-.44 8.14c.16-.04.317-.07.47-.09.153-.02.297-.043.43-.07.813-.12 1.467-.18 1.96-.18 1.92 0 2.88.853 2.88 2.56 0 .68-.193 1.227-.58 1.64-.387.413-.853.62-1.4.62-.56 0-.997-.187-1.31-.56-.313-.373-.483-.88-.51-1.52h-2.82c.013 1.627.52 2.847 1.52 3.66.813.667 1.853 1 3.12 1z" transform="translate(8 6)"/>
    </g>
</svg>
