<svg width="416" height="416" viewBox="0 0 416 416" xmlns="http://www.w3.org/2000/svg">
  <g fill="none" fill-rule="evenodd">
    <path fill="#EDEDF4" d="M0 0h416v416H0z"/>
    <path fill="#3BCCFF" d="M374.4 0L0 393.992V416h416V0z"/>
    <path d="M76 122h264v173H76z"/>
    <path fill="#1F2229" d="M79.108 147.042l245.86-21.51 12.682 144.955-245.86 21.51z"/>
    <path d="M145.918 197.806L120.5 203.72l.848 9.687 25.487-5.13-.916-10.472zm-3.98 47.81l-2.987-34.141-9.335 1.797 2.902 33.168 9.42-.824zm36.697-14.734l-14.299 1.695.962 10.995 14.337-1.255-1-11.435zm38.086 8.19l13.027-1.139-5.116-58.478-12.865 2.995 4.954 56.623zm-57.565-44.355l-9.804 2.288 4.164 47.598 9.928-.869-4.288-49.017zM172 211.748l-9.343 1.646.975 11.146 9.37-1.343L172 211.748zm40.188 15.166l-16.378 1.939 1.046 11.958 16.422-1.437-1.09-12.46zm37.762-4.481l-18.923 2.243 1.142 13.045 18.974-1.66-1.193-13.628zm16.224-27.618c-1.398-8.793 1.092-11.128 3.689-12.525l-1.296-14.708c-12.625 3.9-18.102 14.058-16.004 29.67l13.611-2.437zm-91.03-3.821l-14.157 3.306.957 10.942 14.197-2.853-.997-11.395zm103.261-7.144c1.801 3.063.654 7.995-2.665 12.753-5.13 7.347-19.114 22.698-19.114 22.698l21.778-2.638c12.188-14.39 16.283-22.84 16.259-32.932-.01-5.35-2.349-10.285-6.43-13.56-4.463-3.59-10.63-4.676-17.145-3.136l1.263 14.444c2.654-.384 4.917.435 6.054 2.371zm21.25 47.967l-1.323-15.123-44.188 5.24 1.207 13.76 44.304-3.877zm-53.895-57.284l-18.738 4.364 1.14 13.022 18.789-3.773-1.191-13.613zm-4.398 25.013l-12.344 2.168 1.161 13.27 12.378-1.779-1.195-13.66zm-51.301-12.027l-11.165 2.608 4.537 51.858 11.306-.989-4.678-53.477z" fill="#FFF"/>
  </g>
</svg>
