<svg xmlns="http://www.w3.org/2000/svg" width="2232" height="2500" viewBox="32.2 68.5 203.7 228.2"><path fill="#a4c639" d="M101.9 207c7.8 0 14.2 6.5 14.2 14.3v61.1a14.2 14.2 0 0 1-28.5 0v-61c0-8 6.4-14.3 14.3-14.3z"/><path fill="#a4c639" d="M69.4 133.6l-.1 1.7v92.5c0 10 7.9 18 17.6 18h94.2c9.8 0 17.6-8 17.6-18v-92.5-1.7H69.4z"/><path fill="#a4c639" d="M166.1 207c7.9 0 14.3 6.5 14.3 14.3v61.1a14.2 14.2 0 0 1-28.5 0v-61c0-8 6.4-14.3 14.2-14.3zM46.4 142c7.9 0 14.2 6.4 14.2 14.2v61.1a14.2 14.2 0 0 1-28.4 0v-61c0-8 6.3-14.3 14.2-14.3zm175.2 0c7.9 0 14.3 6.4 14.3 14.2v61.1a14.2 14.2 0 0 1-28.5 0v-61c0-8 6.3-14.3 14.2-14.3zM69.8 127.6c.4-28.5 25.2-51.8 57-54.8h14.4c31.8 3 56.6 26.3 57 54.8H69.8z"/><path fill="none" stroke="#a4c639" stroke-linecap="round" stroke-linejoin="round" stroke-width="3" d="M74.7 70l15 26m103.6-26l-15 26"/><path fill="#fff" d="M114.9 102c0 4-3.3 7.3-7.4 7.3-4 0-7.3-3.2-7.4-7.2 0-4 3.3-7.2 7.4-7.2 4 0 7.4 3.2 7.4 7.1zm55 0c0 4-3.3 7.3-7.4 7.3-4 0-7.3-3.2-7.4-7.2 0-4 3.3-7.2 7.4-7.2 4 0 7.4 3.2 7.4 7.1z"/></svg>