<svg width="2027" height="2026" viewBox="0 0 2027 2026" xmlns="http://www.w3.org/2000/svg"><g fill-rule="nonzero" fill="none"><path d="M1013.476 2025.5C454.28 2025.5.922 1572.188.922 1012.951.921 453.755 454.28.397 1013.476.397c559.245 0 1012.564 453.358 1012.564 1012.555 0 559.237-453.311 1012.547-1012.563 1012.547z" fill="#1A1918"/><path d="M1030.526 618.943l262.025 646.715L896.764 953.89l133.762-334.938v-.008zm465.487 795.694l-403.05-969.978c-11.51-27.972-34.513-42.783-62.437-42.783-27.98 0-52.657 14.811-64.167 42.783L523.987 1508.602h151.328l175.117-438.666 522.605 422.195c21.01 16.994 36.18 24.686 55.888 24.686 39.481 0 73.994-29.607 73.994-72.319 0-6.953-2.461-17.994-6.906-29.86z" fill="#FFF"/></g></svg>