<svg xmlns="http://www.w3.org/2000/svg" width="2490" height="2500" preserveAspectRatio="xMidYMid" viewBox="0 0 256 257"><path fill="#00ACD2" d="M201.7 25.4c-30.8-26.6-99-39.8-150-1.6C4 55.8 1.5 114.6 1.5 114.6c8.2 32 40.5 62.8 102.9 47.8-7.4-43.1 7-152.3 97.3-137z"/><path fill="#C8E9EB" d="M169.6 129.7c-33.7 28-136.2 70.6-168.1-15.1-7.6 40 13.5 106.4 72 131.5 51.8 25.4 105.7-4 105.7-4 23.8-23.1 34.6-65.9-9.6-112.4"/><path fill="#662D91" d="M108.8 90.5c41 15.2 128.8 81 70.4 151.6 38.5-13.4 83.5-64.5 76-127.8-3.9-57.5-53.5-89-53.5-89-31.9-9-74.7 3.7-93 65.2"/></svg>