<svg xmlns="http://www.w3.org/2000/svg" width="512" height="512" fill-rule="evenodd" stroke-linejoin="round" stroke-miterlimit="1.4" clip-rule="evenodd"><path fill="url(#tag1)" stroke="#fcd991" d="M256 0a256 256 0 1 1 0 512 256 256 0 0 1 0-512z"/><g fill="#fbfdfd" fill-opacity=".3"><path d="M255.9 90.8h4.7l.5.1h2.1l.6.1h1.5l.6.1h1l.5.1h.5l.6.1h1l.5.1h.5l.6.1h.5l.5.1h.5l.5.1h.5l.6.1h.5l.5.1.5.1h.5l.5.1.5.1h.6l.5.1.5.1h.5l.5.2h.5l.5.1h.5l.5.2h.5l.5.1.6.1.5.1h.5l.5.2h.5l.5.2h.5l.5.2h.5l.5.1.5.1.5.1.5.2h.5l1 .3h.5l.5.2.5.1.5.1.5.1.5.1.5.2h.5l.4.2.5.1.5.2h.5l.5.2.5.1.5.2.5.1.5.1.5.2.4.1.5.1.5.2.5.1.5.2.5.1.5.1.4.2.5.1.5.2.5.1.5.2.4.1.5.2.5.2.5.1.5.2.4.1.5.2.5.2.5.1.4.2.5.2.5.1.5.2.4.2.5.1.5.2.4.2.5.2.5.1.4.2 1 .4.9.4.5.1.9.4.5.2.4.2.5.2.4.2.5.2.5.2.9.4.4.2.5.2.4.2.5.2.4.2.5.2.4.2.5.2.4.3.5.2.9.4.4.2.5.2.4.3.5.2.4.2.5.2.4.3.4.2.5.2.4.2.5.3.4.2.4.2.5.3.4.2.4.2.5.3.4.2.4.3.5.2.4.3.4.2.5.2.4.3.4.2.5.3.4.2.8.5.5.3.4.3.4.2.4.3.4.2.5.3.4.3.4.2.4.3.4.3.4.2.9.6.4.2.4.3.4.3.4.2.4.3.4.3.4.3.4.3.5.2.4.3.4.3.4.3.4.3.4.3.4.2.4.3.4.3.4.3.4.3.4.3.4.3.3.3.4.3.4.3.4.3.4.3.4.3.4.3.4.3.4.3.4.3.3.3.4.3.4.3.4.3.4.3.3.4.4.3.4.3.4.3.4.3.3.3.4.4.4.3.3.3.4.3.4.3.4.4.3.3.4.3.4.3.3.4.4.3.4.3.3.4.4.3.3.3.4.4.4.3.3.3.4.4.3.3.4.4.3.3.4.4.3.3.4.3.3.4.4.3.3.4.4.3.3.4.4.3.3.4.3.3.4.4.3.3.7.8.3.3.4.4.3.3.3.4.4.4.3.3.3.4.4.4.3.3.3.4.3.4.4.3.3.4.3.4.3.3.4.4.3.4.3.4.3.3.3.4.3.4.4.4.3.3.3.4.3.4.3.4.3.4.3.4.3.3.3.4.3.4.3.4.3.4.3.4.3.4.3.4.3.4.3.4.3.4.3.4.3.3.3.4.3.4.3.4.3.4.2.4.3.4.3.5.3.4.3.4.3.4.2.4.3.4.6.8.2.4.3.4.3.4.3.4.2.5.3.4.3.4.2.4.3.4.3.4.2.5.3.4.2.4.3.4.3.4.2.5.3.4.2.4.3.4.2.5.3.4.2.4.3.4.2.5.3.4.2.4.2.5.3.4.2.4.5.9.2.4.5 1 .2.4.3.4.2.4.2.5.3.4.2.5.2.4.2.4.3.5.2.4.2.5.2.4.2.5.2.4.3.5.2.4.2.5.2.4.2.5.2.4.2.5.2.4.2.5.2.4.2.5.2.5.2.4.2.5.2.4.2.5.2.5.2.4.2.5.2.4.2.5.1.5.2.4.2.5.2.5.2.4.1.5.2.5.2.4.2.5.1.5.2.5.2.4.2.5.1.5.2.4.3 1 .2.5.1.5.2.4.2.5.1.5.2.5.1.4.2.5.1.5.2.5.1.5.2.5.1.4.2.5.1.5.1.5.2.5.1.5.1.5.2.4.1.5.1.5.2.5.1.5.1.5.2.5v.5l.2.5.1.5.1.5.2.4v.5l.2.5.1.5.1.5.1.5.1.5.2.5v.5l.2.5v.5l.2.5v.5l.2.5v.5l.2.5v.5l.1.5.1.5.1.5.1.6.1.5v.5l.2.5v.5l.1.5.1.5v.5l.2.5v.5l.1.5v.5l.1.6.1.5.1 1 .1.5v.5l.1.5v.6l.1.5.1.5v.5l.1.5v.5l.1.6v1l.1.5v.5l.1.5v1.1l.1.5v.5l.1.6v1.5l.1.5v2.1l.1.6v4.7l.1.5v5.3l-.1.6v2.1l-.1.5v1l-.1.5v1.1l-.1.5v1.1l-.1.5v.5l-.1.5v.5l-.1.5v.6l-.1.5v.5l-.1.5v.5l-.1.5v.6l-.1.5v.5l-.2.5v1l-.2.5v.6l-.1.5v.5l-.1.5-.1.5v.5l-.2.5v.5l-.1.5-.1.5-.1.5v.5l-.2.6v.5l-.2.5v.5l-.1.5-.1.5-.1.5-.1.5-.1.5-.1.5-.1.5-.1.5-.1.5-.2.5v.5l-.2.5v.5l-.2.5-.1.5-.1.5-.2.4v.5l-.2.5-.1.5-.1.5-.2.5v.5l-.2.5-.2.5v.5l-.2.5-.2.4v.5l-.2.5-.2.5-.1.5-.1.5-.2.5-.1.4-.2.5-.1.5-.2.5-.1.5-.2.5-.1.4-.2.5-.1.5-.2.5-.2.4-.1.5-.2.5-.1.5-.2.4-.2.5-.1.5-.2.5-.2.4-.2.5-.1.5-.2.5-.2.4-.2.5-.1.5-.2.4-.2.5-.2.5-.2.4-.1.5-.2.5-.2.4-.2.5-.2.4-.2.5-.2.5-.2.4-.2.5-.2.4-.2.5-.2.5-.2.4-.2.5-.2.4-.2.5-.2.4-.2.5-.2.4-.2.5-.2.4-.3.5-.2.4-.2.5-.2.4-.2.5-.2.4-.3.5-.2.4-.2.4-.2.5-.3.4-.2.5-.2.4-.3.4-.2.5-.5.9-.2.4-.5.9-.2.4-.3.4-.2.5-.2.4-.3.4-.2.5-.3.4-.2.4-.3.4-.2.5-.3.4-.2.4-.3.4-.2.5-.3.4-.3.4-.2.4-.3.4-.2.5-.3.4-.3.4-.2.4-.3.4-.3.4-.2.5-.3.4-.3.4-.3.4-.2.4-.3.4-.3.4-.3.4-.2.4-.3.4-.3.4-.3.4-.3.5-.3.4-.2.4-.3.4-.3.4-.3.4-.3.3-.3.4-.3.4-.3.4-.3.4-.3.4-.3.4-.3.4-.3.4-.3.4-.3.4-.3.4-.3.3-.3.4-.3.4-.3.4-.3.4-.3.4-.3.3-.3.4-.4.4-.3.4-.3.4-.3.3-.3.4-.3.4-.4.4-.3.3-.3.4-.3.4-.4.3-.3.4-.3.4-.3.3-.4.4-.3.4-.3.3-.4.4-.3.4-.3.3-.4.4-.3.3-.7.8-.3.3-.4.4-.3.3-.3.4-.4.3-.3.4-.4.3-.3.4-.4.3-.3.4-.4.3-.3.3-.4.4-.3.3-.4.4-.3.3-.4.4-.7.6-.4.4-.3.3-.4.3-.3.4-.4.3-.4.3-.3.4-.4.3-.4.3-.3.3-.4.4-.4.3-.4.3-.3.3-.4.3-.4.4-.3.3-.4.3-.4.3-.4.3-.4.3-.3.4-.4.3-.4.3-.4.3-.4.3-.3.3-.4.3-.4.3-.4.3-.4.3-.4.3-.4.3-.8.6-.4.3-.3.3-.4.3-.4.3-.4.3-.4.3-.4.3-.4.3-.4.2-.4.3-.4.3-.4.3-.4.3-.4.3-.5.2-.4.3-.4.3-.4.3-.4.3-.4.2-.4.3-.4.3-.4.2-.9.6-.4.2-.4.3-.4.3-.4.2-.4.3-.5.3-.4.2-.4.3-.4.2-.4.3-.5.3-.8.5-.4.2-.5.3-.4.2-.4.3-.5.2-.4.2-.4.3-.5.2-.4.3-.4.2-.5.3-.4.2-.4.2-.5.3-.4.2-.4.2-.5.3-.4.2-.5.2-.4.2-.4.3-.5.2-.4.2-1 .5-.4.2-.4.2-1 .4-.4.2-.4.3-.5.2-.4.2-.5.2-.4.2-.5.2-.4.2-.5.2-.4.2-1 .4-.4.2-.5.2-.4.2-.5.2-.4.2-.5.2-1 .3-.4.2-1 .4-.9.4-.4.2-.5.1-.5.2-.4.2-.5.2-.5.1-.4.2-.5.2-.5.1-.5.2-.4.2-.5.1-.5.2-.5.2-.4.1-.5.2-.5.1-.5.2-.4.2-.5.1-.5.2-.5.1-.5.2-1 .3h-.4l-.5.2-1 .3-.5.2-.4.1-.5.1-.5.2-.5.1-.5.1-.5.2h-.5l-.5.2-.5.1-.5.2-1 .2-1 .3h-.4l-.5.2-.5.1-.5.1-.5.1-.5.1-.5.1-.5.1-.5.1-.5.1-.5.2h-.5l-.5.1-.5.1-.5.1-.5.1-.5.1-.5.1-.5.1-.5.1h-.5l-.6.2h-.5l-.5.1-.5.1h-.5l-.5.2h-.5l-.5.1h-.5l-.5.2h-.5l-.6.1h-.5l-.5.1h-.5l-.5.2h-1l-.6.1h-.5l-.5.1h-.5l-.5.1h-.5l-.6.1h-.5l-.5.1h-.5l-.5.1h-1.1l-.5.1h-1l-.6.1h-1.5l-.6.1h-1.5l-.6.1H256l-3-.4-2.8-1.4-2.2-2.2-1.4-2.7-.5-3 .5-3.1 1.4-2.8 2.2-2.2 2.7-1.4 3-.4h3.3l.5-.1h2.8l.4-.1h1.5l.4-.1h.9l1-.1h.4l.4-.1h.9l.5-.1h.5l.4-.1h.9l.5-.1.9-.1h.4l.5-.1.4-.1h.5l.4-.1h.5l.4-.1h.5l.4-.1.5-.1h.4l.5-.1.4-.1h.5l.4-.2h.5l.4-.1h.5l.4-.1.5-.1.4-.1h.4l.5-.2h.4l.5-.1.4-.1.5-.1h.4l.4-.2h.5l.4-.2h.5l.4-.1.4-.1.5-.1.4-.1.4-.1.5-.1.4-.1.4-.1.5-.2.8-.2h.5l.4-.2.4-.1.5-.1.4-.1.4-.1.5-.2h.4l.4-.2.4-.1.5-.1.4-.2h.4l.5-.2.4-.1.4-.2.4-.1.4-.1.5-.2.4-.1.4-.1.4-.2.5-.1.4-.1.4-.2.4-.1.4-.2.5-.1.4-.2.4-.1.4-.1.4-.2.4-.1.4-.2.5-.1.4-.2.4-.2.4-.1.4-.2.4-.1.4-.2.8-.3.9-.3.4-.2.4-.2.4-.1.4-.2.8-.3.4-.2.4-.2.4-.2.4-.1.4-.2.8-.4.4-.2.8-.3.4-.2.4-.2.4-.2.4-.2.4-.2.8-.3.4-.2.3-.2.4-.2.4-.2.4-.2.4-.2.4-.2.4-.2.4-.2.4-.2.3-.2.4-.2.8-.4.4-.3.4-.2.3-.2.4-.2.4-.2.4-.2.4-.2.3-.2.4-.3.4-.2.4-.2.3-.2.4-.2.4-.3.4-.2.3-.2.8-.5.3-.2.4-.2.4-.3.3-.2.4-.2.4-.3.3-.2.4-.2.4-.3.3-.2.4-.2.4-.3.3-.2.4-.3.3-.2.4-.3.4-.2.3-.3.4-.2.3-.2.4-.3.3-.2.4-.3.3-.3.4-.2.3-.3.4-.2.3-.3.4-.2.7-.6.3-.2.4-.3.3-.2.4-.3.3-.3.3-.2.4-.3.3-.3.4-.2.3-.3.3-.3.4-.3.3-.2.4-.3.3-.3.3-.3.4-.2.3-.3.3-.3.3-.3.4-.2.3-.3.3-.3.4-.3.6-.6.3-.3.4-.2.6-.6.3-.3.3-.3.4-.3.3-.3.3-.3.3-.3.3-.3.3-.3.4-.3.3-.3.3-.3.3-.3.3-.3.3-.3.3-.3.3-.3.3-.3.3-.3.3-.3.3-.3.3-.3.3-.3.3-.3.3-.3.3-.4.3-.3.3-.3.6-.6.3-.3.3-.4.3-.3.6-.6.3-.3.3-.4.3-.3.3-.3.2-.3.3-.4.3-.3.3-.3.3-.3.3-.4.2-.3.3-.3.3-.4.5-.6.3-.4.3-.3.3-.3.2-.4.3-.3.3-.3.2-.4.3-.3.3-.4.2-.3.3-.4.3-.3.5-.7.3-.3.2-.4.3-.3.2-.4.3-.3.3-.4.2-.3.3-.4.2-.3.3-.4.2-.3.3-.4.2-.3.3-.4.5-.7.4-.7.3-.4.2-.4.3-.3.4-.7.3-.4.2-.4.3-.3.2-.4.2-.4.3-.3.2-.4.2-.4.2-.3.3-.4.2-.4.2-.4.2-.3.3-.4.2-.4.2-.4.2-.3.3-.4.2-.4.2-.4.4-.7.2-.4.2-.4.3-.4.4-.7.2-.4.2-.4.2-.4.2-.4.2-.3.2-.4.2-.4.2-.4.2-.4.2-.4.2-.4.2-.4.2-.4.2-.4.2-.3.2-.4.1-.4.2-.4.2-.4.2-.4.2-.4.2-.4.2-.4.1-.4.2-.4.2-.4.2-.4.1-.4.2-.4.2-.4.2-.4.1-.4.2-.4.2-.4.1-.4.2-.4.3-.9.2-.4.2-.4.3-.8.1-.4.2-.4.2-.4.1-.4.2-.5.1-.4.2-.4.1-.4.3-.8.2-.4.1-.5.2-.4v-.4l.2-.4.2-.4.2-.9.2-.4.3-.8v-.5l.2-.4.1-.4.2-.4.1-.5.1-.4.2-.4v-.4l.2-.5.1-.4.1-.4.2-.5v-.4l.2-.4.1-.4.1-.5.1-.4.1-.4.1-.5.2-.4v-.4l.2-.5v-.4l.2-.4v-.5l.2-.4v-.4l.2-.5v-.4l.2-.5v-.4l.1-.4.1-.5.1-.4.1-.5.1-.4v-.4l.2-.5v-.4l.1-.5.1-.4v-.5l.2-.4v-.4l.1-.5v-.4l.2-.5v-.4l.1-.5.1-.9.1-.4v-.5l.1-.4v-.5l.2-.4v-.9l.1-.5v-.4l.1-.5v-.4l.1-.5v-.4l.1-.5v-.4l.1-.5v-.5l.1-.4v-.9l.1-.5v-.9l.1-.5v-.9l.1-.4v-1.4l.1-.5v-2.3l.1-.5V248.2l-.1-.4v-1.4l-.1-.5v-1.3l-.1-.5v-.9l-.1-.5v-.4l-.1-.5v-.9l-.1-.5v-.4l-.1-.5v-.4l-.1-.5v-.4l-.1-.5v-.4l-.1-.5v-.4l-.1-.5-.1-.4v-.5l-.1-.4-.1-.5v-.4l-.2-1v-.4l-.1-.4-.1-.5v-.4l-.2-.5v-.4l-.1-.4v-.5l-.2-.4v-.5l-.1-.4-.1-.5-.1-.4v-.4l-.2-.5v-.4l-.2-.5v-.4l-.1-.4-.1-.5-.1-.4-.1-.5-.1-.4-.1-.4-.1-.5-.1-.4-.1-.4-.1-.5-.1-.4-.2-.4v-.5l-.2-.4v-.4l-.2-.5-.1-.4-.1-.4-.1-.4-.2-.5v-.4l-.2-.4-.1-.5-.1-.4-.2-.4-.1-.4-.1-.5-.2-.4v-.4l-.2-.4-.1-.5-.3-.8-.2-.4-.2-.9-.2-.4-.1-.4-.1-.4-.2-.4-.1-.5-.2-.4-.3-.8-.1-.4-.2-.4-.1-.4-.2-.5-.1-.4-.2-.4-.2-.4-.1-.4-.3-.8-.2-.4-.2-.4-.3-.9-.2-.4-.1-.4-.2-.4-.2-.4-.1-.4-.2-.4-.2-.4-.2-.4-.1-.4-.2-.4-.2-.4-.2-.4-.1-.4-.2-.4-.2-.4-.2-.4-.2-.4-.2-.4-.2-.4-.1-.4-.2-.4-.2-.4-.2-.3-.2-.4-.2-.4-.2-.4-.2-.4-.2-.4-.2-.4-.2-.4-.2-.4-.2-.3-.2-.4-.2-.4-.2-.4-.2-.4-.4-.7-.3-.4-.2-.4-.2-.4-.4-.7-.2-.4-.3-.4-.2-.4-.2-.4-.2-.3-.2-.4-.5-.7-.2-.4-.2-.4-.3-.4-.2-.3-.2-.4-.5-.7-.2-.4-.2-.4-.3-.3-.2-.4-.3-.4-.4-.7-.3-.3-.2-.4-.3-.4-.4-.7-.3-.3-.2-.4-.3-.4-.2-.3-.3-.4-.2-.3-.3-.4-.2-.3-.3-.4-.2-.3-.3-.4-.3-.3-.2-.4-.3-.3-.2-.4-.3-.3-.3-.4-.2-.3-.3-.3-.3-.4-.2-.3-.3-.4-.3-.3-.2-.4-.3-.3-.3-.3-.2-.4-.3-.3-.3-.3-.3-.4-.2-.3-.3-.3-.3-.4-.3-.3-.2-.3-.3-.4-.3-.3-.3-.3-.3-.3-.3-.4-.2-.3-.3-.3-.3-.3-.3-.4-.3-.3-.3-.3-.3-.3-.3-.3-.3-.4-.3-.3-.3-.3-.3-.3-.3-.3-.3-.3-.3-.4-.3-.3-.3-.3-.3-.3-.3-.3-.3-.3-.6-.6-.3-.3-.3-.3-.3-.3-.3-.3-.3-.3-.3-.3-.3-.3-.3-.3-.4-.3-.3-.3-.3-.3-.3-.3-.3-.3-.3-.3-.4-.3-.6-.6-.6-.6-.4-.3-.3-.2-.3-.3-.3-.3-.4-.3-.3-.3-.3-.3-.4-.2-.3-.3-.3-.3-.3-.3-.4-.3-.3-.2-.3-.3-.4-.3-.3-.3-.4-.2-.3-.3-.3-.3-.4-.2-.3-.3-.4-.3-.3-.2-.3-.3-.4-.3-.3-.2-.4-.3-.3-.3-.4-.2-.3-.3-.4-.2-.3-.3-.4-.2-.3-.3-.7-.5-.4-.3-.3-.2-.4-.3-.3-.2-.4-.3-.3-.2-.4-.2-.7-.5-.4-.3-.3-.2-.4-.3-.4-.2-.3-.2-.4-.3-.4-.2-.3-.2-.4-.3-.4-.2-.3-.2-.4-.3-.4-.2-.3-.2-.4-.3-.4-.2-.3-.2-.4-.2-.4-.3-.4-.2-.3-.2-.4-.2-.4-.2-.4-.3-.3-.2-.4-.2-.4-.2-.4-.2-.4-.2-.3-.2-.4-.2-.4-.3-.4-.2-.4-.2-.4-.2-.3-.2-.4-.2-.4-.2-.4-.2-.4-.2-.4-.2-.4-.2-.4-.2-.4-.2-.3-.2-.4-.2-.4-.1-.4-.2-.4-.2-.4-.2-.4-.2-.4-.2-.4-.2-.4-.2-.4-.1-.4-.2-.8-.4-.4-.2-.4-.1-.4-.2-.4-.2-.4-.2-.8-.3-.4-.2-.4-.1-.4-.2-.4-.2-.9-.3-.8-.3-.4-.2-.4-.1-.4-.2-.4-.1-.4-.2-.4-.2-.5-.1-.4-.2-.4-.1-.4-.2-.4-.1-.4-.1-.4-.2-.5-.1-.4-.2-.4-.1-.4-.2-.4-.1-.5-.1-.4-.2-.4-.1-.4-.1-.5-.2-.4-.1-.4-.1-.4-.2h-.4l-.5-.2-.4-.1-.4-.2h-.5l-.4-.2-.4-.1-.4-.1-.5-.2h-.4l-.4-.2-.5-.1-.4-.1-.9-.2-.4-.1-.4-.1-.5-.2h-.4l-.4-.2h-.5l-.4-.2h-.4l-.5-.2h-.4l-.4-.1-.5-.1-.4-.1-.5-.1-.4-.1-.4-.1h-.5l-.4-.2h-.5l-.4-.1-.5-.1-.4-.1-.9-.2h-.4l-.5-.1h-.4l-.5-.2h-.9l-.4-.2h-.9l-.5-.2h-.9l-.4-.1h-.5l-.4-.2h-.9l-.5-.1h-.4l-1-.2h-.8l-.5-.1h-.9l-.5-.1h-.4l-.5-.1h-.9l-1-.1h-.8l-.5-.1h-1.4l-.4-.1H260l-.5-.1h-3.8l-3-.5-2.7-1.4-2.2-2.2-1.4-2.8-.5-3 .5-3 1.4-2.8 2.2-2.2 2.7-1.4z"/><path d="M257.4 130H264.2l.4.1H265.8l.4.1h.8l.4.1h.4l.8.1h.8l.4.1h.8l.4.1h.4l.4.1h.4l.4.1h.3l.4.1h.4l.4.1h.4l.4.1h.4l.8.2h.4l.4.1h.3l.4.1.4.1h.4l.4.1.4.1h.4l.3.1.4.1h.4l.4.1.8.2.7.2h.4l.4.1h.4l.7.3h.4l.4.1.4.1.4.1h.3l.8.3h.4l.4.2h.3l.4.2h.4l.7.2.4.2h.4l.4.2h.3l.4.2h.4l.3.2h.4l.4.2.4.1.3.1.4.1.4.1.3.2h.4l.4.2.7.2.4.2h.3l.4.2.4.1.3.1.4.2.3.1.4.1.4.2h.3l.4.2.4.2h.3l.4.2.3.2h.4l.3.2.4.2.4.1.3.1.4.2.3.1.4.2.3.1.4.2.3.1.4.2.3.1.4.2.3.1.4.2.3.1.4.2.3.1.4.2.3.1.7.4.7.3.4.1.3.2.3.2.7.3.4.2.3.1.3.2.4.2.7.3.6.4.4.2.3.1.3.2.4.2.3.2.7.3.6.4.4.2.3.2.3.1.7.4.3.2.4.2.3.2.3.2.3.2.4.2.3.2.3.2.3.2.7.4.3.2.3.2.3.2.7.4.3.2.6.4.3.2.3.2.7.4.3.2.6.4.3.3.3.2.3.2.4.2.3.2.3.2.3.3.6.4.3.2.3.2.6.5.3.2.3.2.3.3.3.2.3.2.6.5.3.2.3.3.3.2.3.2.3.3.6.4.3.3.2.2.3.2.3.3.3.2.3.3.6.4.3.3.3.2.5.5.6.5.3.3.2.2.3.3.3.2.3.3.3.2.2.3.3.2.3.3.5.5.3.3.3.2.3.3.2.2.3.3.3.3.2.2.3.3.3.3.5.5.5.5.3.3.3.3.2.2.3.3.2.3.3.3.3.2.2.3.3.3.2.3.3.2.2.3.3.3.5.5.2.3.3.3.2.3.5.5.5.6.3.3.2.3.5.6.2.3.3.2.2.3.3.3.2.3.2.3.5.6.2.3.3.3.2.3.2.3.3.3.4.6.3.3.2.3.2.3.2.3.3.3.4.6.2.3.3.3.4.6.2.3.2.3.3.3.2.3.2.3.2.3.2.4.2.3.2.3.3.3.2.3.2.3.2.3.2.3.2.4.2.3.2.3.2.3.2.3.4.7.2.3.4.6.2.4.2.3.2.3.2.3.2.4.2.3.2.3.2.3.1.4.4.6.2.4.2.3.2.3.3.7.4.7.2.3.2.3.1.4.2.3.4.7.1.3.2.3.2.4.2.3.1.4.2.3.2.3.1.4.2.3.2.4.1.3.2.4.3.6.3.7.2.4.1.3.2.4.1.3.2.4.2.3.1.4.2.3.1.4.2.3.1.4.1.3.3.7.2.4.1.4.3.7.1.3.2.4.1.3.1.4.2.4.3.7v.3l.2.4.1.4.2.3.1.4.1.3.1.4.2.4v.3l.2.4.1.4.3.7v.4l.2.3.1.4.1.4.1.3.2.4v.4l.2.4v.3l.2.4.1.4.1.3.1.4.1.4.1.4.1.3.2.8.1.4.1.3.1.4.1.4v.4l.3.7v.4l.2.4v.4l.1.3.1.4v.4l.2.4v.4l.1.3.1.4.2.8.1.8v.3l.2.4v.4l.1.4v.4l.1.4.1.4v.4l.1.3v.4l.2.4v.8l.2.8v.4l.1.4v.3l.1.4v.4l.1.4v.4l.1.4v.8l.1.4v.4l.1.4v.8l.1.4v.4l.1.8v.4l.1.4v1.1l.1.4V248.4l.1.4v2l.1.5V261.3l-.1.4v1.6l-.1.4v.4l-.1.8v.8l-.1.8v.4l-.1.4v.8l-.1.4v.4l-.1.4v.4l-.1.4v.4l-.1.4v.3l-.1.4v.4l-.1.4v.4l-.1.4v.4l-.1.4v.4l-.1.4-.1.3v.4l-.1.4-.1.4v.4l-.1.4-.1.4v.4l-.1.3-.1.4v.4l-.2.8-.2.7v.4l-.1.4-.1.4-.1.4v.4l-.2.3v.4l-.1.4-.1.4-.1.4-.2.7-.1.4-.1.4v.3l-.2.4v.4l-.3.7v.4l-.2.4v.4l-.2.3-.1.4-.1.4-.1.4-.1.3-.1.4-.1.4-.2.3v.4l-.2.4v.3l-.2.4-.1.4-.3.7v.4l-.2.3-.1.4-.2.4v.3l-.2.4-.1.4-.2.3v.4l-.2.3-.2.4-.2.7-.2.4v.3l-.2.4-.2.4-.1.3-.1.4-.2.3-.1.4-.2.3-.3.7-.1.4-.1.3-.2.4-.1.3-.2.4-.1.3-.2.4-.2.3-.1.4-.2.3-.1.4-.2.3-.1.4-.2.3-.3.7-.2.4-.3.7-.2.3-.1.3-.2.4-.2.3-.1.4-.2.3-.2.3-.2.4-.1.3-.4.7-.2.3-.1.4-.2.3-.2.3-.4.7-.3.7-.4.6-.2.3-.4.7-.1.3-.2.4-.2.3-.2.3-.2.3-.2.4-.2.3-.2.3-.2.3-.4.7-.2.3-.4.6-.2.4-.2.3-.2.3-.4.6-.2.3-.2.4-.2.3-.2.3-.3.3-.2.3-.2.3-.2.3-.2.3-.2.4-.2.3-.3.3-.2.3-.2.3-.4.6-.3.3-.2.3-.4.6-.3.3-.2.3-.2.3-.5.6-.2.3-.2.3-.3.3-.2.3-.2.3-.3.3-.2.3-.2.3-.3.3-.2.3-.2.3-.3.2-.2.3-.5.6-.5.6-.2.3-.3.3-.2.2-.3.3-.2.3-.3.3-.2.3-.3.3-.2.2-.3.3-.2.3-.3.3-.2.2-.3.3-.2.3-.5.5-.3.3-.3.3-.2.3-.3.2-.2.3-.3.3-.3.2-.5.6-.5.5-.3.3-.3.2-.2.3-.3.3-.3.2-.2.3-.3.2-.3.3-.3.3-.5.5-.3.2-.3.3-.2.2-.3.3-.3.2-.3.3-.3.3-.2.2-.3.3-.6.4-.5.5-.3.3-.3.2-.6.5-.6.5-.3.2-.3.3-.2.2-.3.2-.3.3-.3.2-.3.3-.3.2-.3.2-.3.3-.3.2-.6.4-.3.3-.3.2-.3.2-.3.3-.3.2-.6.4-.3.3-.3.2-.6.4-.3.2-.3.3-.3.2-.4.2-.3.2-.3.2-.3.2-.6.5-.3.2-.3.2-.4.2-.3.2-.3.2-.6.4-.3.2-.7.4-.3.2-.3.2-.3.2-.4.2-.3.2-.3.2-.3.2-.3.2-.4.2-.3.2-.3.2-.3.2-.4.2-.3.2-.7.3-.3.2-.3.2-.4.2-.6.4-.7.3-.3.2-.4.2-.3.1-.3.2-.7.4-.3.1-.4.2-.3.2-.4.2-.3.1-.3.2-.4.2-.3.1-.4.2-.3.2-.3.1-.4.2-.7.3-.3.2-.4.1-.3.2-.4.1-.3.2-.4.2-.3.1-.4.2-.3.1-.4.2-.3.1-.4.2-.3.1-.4.2-.3.1-.4.1-.3.2-.4.1-.7.3-.4.1-.3.2-.4.1-.3.2h-.4l-.7.4h-.4l-.3.2-.4.1-.4.2-.3.1-.4.1-.3.2h-.4l-.4.2-.3.1-.4.1-.7.3-.4.1-.4.1-.3.1-.4.1-.4.2h-.3l-.4.2-.8.2-.3.1-.4.1-.4.1-.3.1-.4.1-.4.1-.4.1-.7.2-.4.1-.4.1-.3.1-.4.1-.4.1-.8.2h-.3l-.4.2h-.4l-.4.1-.4.1-.3.1h-.4l-.4.2h-.4l-.4.1-.7.2-.8.1-.4.1h-.4l-.4.1-.3.1h-.4l-.4.1-.4.1h-.4l-.4.1-.4.1h-.3l-.4.1h-.4l-.8.2h-.4l-.4.1h-.4l-.4.1h-.4l-.4.1h-.3l-.4.1h-.4l-.4.1h-.8l-.4.1h-.4l-.4.1h-.8l-.8.1h-.4l-.4.1H265.8l-.4.1H264.2l-.4.1h-2l-.4.1h-5l-.9-.1-.9-.2-.9-.3-.8-.4-.8-.5-.8-.5-.7-.6-.7-.7-.5-.8-.6-.7-.4-.9-.3-.9-.3-.9-.2-.9v-2.8l.2-.9.3-1 .3-.8.4-.8.5-.8.6-.7.7-.7.7-.6.7-.6.8-.5.9-.3.9-.4.9-.2 1-.1H260l.4-.1h1.6l.7-.1h1.4l.3-.1h1.4l.3-.1h.7l.3-.1h.7l.6-.1h.4l.6-.1h.4l.3-.1h.3l.3-.1h.7l.3-.1h.4l.6-.2h.7l.3-.1.7-.1h.3l.3-.1.3-.1h.4l.3-.1h.3l.3-.1.7-.1.3-.1h.3l.4-.1.3-.1.6-.1.3-.1.7-.1.3-.1h.3l.3-.2h.4l.3-.1h.3l.3-.2h.3l.4-.1.3-.1h.3l.3-.2h.3l.7-.2.3-.1.6-.2.6-.2h.3l.7-.2.3-.1.3-.1.3-.1.3-.1.3-.1.6-.2.6-.2.4-.1.3-.1.3-.1.3-.1.3-.1.3-.1.3-.1.3-.1.6-.3.6-.2h.3l.3-.2.3-.1.3-.1.3-.1.3-.2h.3l.3-.2.6-.2.3-.2h.3l.3-.2.3-.1.3-.2h.3l.6-.3.3-.2h.3l.3-.2.3-.2h.3l.5-.4.6-.2.3-.2.3-.1.6-.3.6-.3h.2l.3-.2.3-.2.3-.1.3-.2.3-.1.3-.2.2-.1.6-.3.3-.2.3-.1.5-.3.3-.2.3-.1.3-.2.3-.1.2-.2.3-.1.3-.2.3-.2.5-.3.3-.1.3-.2.5-.3.3-.2.3-.1.2-.2.3-.2.3-.1.2-.2.3-.2.3-.2.3-.1.2-.2.3-.2.3-.1.2-.2.6-.4.2-.1.3-.2.2-.2.3-.2.3-.2.2-.1.3-.2.3-.2.2-.2.3-.2.5-.3.3-.2.2-.2.3-.2.2-.2.3-.2.2-.2.3-.1.5-.4.2-.2.6-.4.2-.2.3-.2.2-.2.3-.2.2-.2.2-.2.3-.2.2-.2.3-.2.2-.2.5-.4.3-.2.2-.2.5-.4.2-.2.3-.2.2-.2.3-.2.2-.2.2-.2.3-.3.2-.2.2-.2.3-.2.2-.2.3-.2.2-.2.2-.2.2-.3.3-.2.4-.4.3-.2.2-.3.5-.4.2-.2.2-.2.2-.3.3-.2.4-.4.2-.3.3-.2.2-.2.2-.2.4-.5.3-.2.2-.2.4-.5.2-.2.2-.3.3-.2.4-.5.2-.2.2-.2.2-.3.2-.2.2-.3.3-.2.2-.2.4-.5.4-.5.4-.5.2-.2.2-.3.4-.5.2-.2.2-.2.4-.5.2-.3.2-.2.2-.3.2-.2.2-.3.2-.2.4-.5.2-.3.3-.5.2-.3.2-.2.2-.3.2-.2.2-.3.2-.2.2-.3.3-.5.2-.3.2-.2.2-.3.2-.3.1-.2.2-.3.2-.2.2-.3.1-.3.2-.2.4-.6.1-.2.2-.3.2-.3.2-.2.1-.3.2-.3.2-.2.1-.3.4-.6.1-.2.2-.3.2-.3.1-.3.2-.2.2-.3.1-.3.3-.5.2-.3.2-.3.1-.3.2-.2.1-.3.2-.3.1-.3.2-.3.3-.5.1-.3.2-.3.1-.3.2-.3.1-.2.2-.3.1-.3.3-.6.2-.3.1-.2.1-.3.3-.6.2-.3v-.3l.2-.3.2-.3.2-.6.3-.5.1-.3.2-.3.1-.3.1-.3.2-.3.2-.6.1-.3.2-.3v-.3l.2-.3.1-.3.1-.3.3-.6.1-.3.1-.3.1-.3.2-.3v-.3l.2-.3.1-.3.1-.3.2-.6.3-.6v-.3l.2-.3v-.3l.2-.3v-.3l.2-.3v-.3l.2-.3.2-.7v-.3l.2-.3v-.3l.2-.3v-.3l.2-.3v-.3l.2-.7.1-.3.1-.3.1-.3.2-.6v-.3l.2-.4v-.3l.1-.3.1-.3v-.3l.2-.3v-.4l.1-.3.1-.3v-.3l.2-.3v-.3l.1-.4v-.3l.1-.3.2-.6v-.4l.2-.6v-.3l.1-.4.1-.6.1-.3v-.3l.1-.4v-.3l.1-.3.1-.3v-.4l.1-.3v-.3l.2-.7v-.3l.1-.7.1-.6v-.4l.1-.3v-.6l.1-.4v-.3l.1-.3v-.4l.1-.6v-.4l.1-.6v-.7l.1-.3v-.7l.1-.3v-1l.1-.4V260.7l.1-.6V258.4l.1-.4v-7.5l-.1-.7v-1.3l-.1-.3V247l-.1-.3v-1l-.1-.7v-.3l-.1-.7v-.3l-.2-.7V242.2l-.1-.4v-.3l-.1-.3v-.7l-.2-.7v-.6l-.1-.3-.1-.7v-.3l-.1-.3-.1-.4v-.3l-.1-.3v-.4l-.1-.3-.1-.3v-.3l-.2-.7v-.3l-.1-.3-.1-.7-.1-.3-.2-.6v-.3l-.1-.4v-.3l-.1-.3-.1-.3-.1-.3v-.4l-.2-.3v-.3l-.1-.3v-.3l-.2-.3v-.4l-.2-.6-.1-.3-.2-.6v-.3l-.2-.4v-.3l-.2-.6-.1-.3-.1-.3-.1-.3-.1-.3-.1-.3-.1-.4-.1-.3-.1-.3-.2-.6-.1-.3-.1-.3-.1-.3-.1-.3-.1-.3-.1-.3-.1-.3-.3-.6-.2-.6-.1-.3-.1-.3-.1-.3-.1-.4-.2-.3v-.3l-.2-.3-.1-.3-.3-.5v-.3l-.2-.3-.1-.3-.1-.3-.2-.3v-.3l-.3-.6-.2-.3-.1-.3-.1-.3-.2-.3-.1-.3-.3-.6-.2-.6-.2-.2-.1-.3-.1-.3-.2-.3-.3-.6-.1-.3-.1-.3-.2-.2-.1-.3-.2-.3-.1-.3-.2-.3-.1-.3-.3-.5-.2-.3-.1-.3-.2-.3-.1-.3-.2-.2-.1-.3-.2-.3-.1-.3-.2-.3-.1-.2-.4-.6-.1-.3-.2-.2-.1-.3-.2-.3-.2-.3-.1-.2-.2-.3-.2-.3-.1-.3-.4-.5-.1-.3-.2-.2-.2-.3-.1-.3-.2-.3-.2-.2-.2-.3-.1-.3-.4-.5-.2-.2-.1-.3-.2-.3-.2-.2-.2-.3-.1-.3-.2-.2-.2-.3-.2-.2-.2-.3-.3-.5-.2-.3-.2-.2-.2-.3-.2-.3-.2-.2-.2-.3-.2-.2-.3-.5-.2-.3-.2-.2-.2-.3-.2-.2-.2-.3-.2-.2-.2-.3-.2-.2-.2-.3-.2-.2-.2-.3-.2-.2-.2-.3-.4-.5-.2-.2-.2-.2-.2-.3-.2-.2-.4-.5-.4-.5-.2-.2-.3-.3-.2-.2-.2-.2-.2-.3-.2-.2-.2-.2-.4-.5-.3-.3-.4-.4-.2-.2-.2-.3-.2-.2-.3-.2-.4-.5-.2-.2-.2-.2-.3-.3-.2-.2-.4-.4-.3-.3-.2-.2-.2-.2-.2-.2-.5-.5-.2-.2-.3-.2-.2-.2-.2-.2-.5-.5-.2-.2-.5-.4-.2-.2-.3-.2-.2-.3-.2-.2-.3-.2-.2-.2-.2-.2-.3-.2-.2-.2-.5-.4-.2-.2-.3-.2-.2-.2-.3-.2-.5-.4-.2-.2-.3-.2-.2-.2-.3-.2-.2-.2-.2-.2-.3-.2-.2-.2-.3-.2-.2-.2-.3-.2-.3-.2-.2-.2-.5-.4-.3-.2-.2-.2-.3-.1-.2-.2-.3-.2-.2-.2-.3-.2-.5-.4-.3-.1-.2-.2-.6-.4-.2-.2-.3-.1-.3-.2-.2-.2-.3-.2-.2-.2-.3-.1-.3-.2-.2-.2-.3-.2-.3-.1-.3-.2-.2-.2-.3-.1-.3-.2-.2-.2-.6-.3-.2-.2-.3-.1-.3-.2-.3-.2-.5-.3-.3-.2-.5-.3-.3-.1-.3-.2-.3-.1-.2-.2-.6-.3-.3-.2-.3-.1-.2-.2-.3-.1-.3-.2-.3-.1-.6-.3-.2-.2-.3-.1-.3-.2-.3-.1-.3-.1-.3-.2-.3-.1-.2-.2-.3-.1-.3-.2h-.3l-.3-.2-.3-.2-.3-.1-.6-.3-.5-.2-.3-.2-.3-.1-.3-.1-.3-.2-.6-.2-.3-.1-.3-.2h-.3l-.6-.3-.3-.2h-.3l-.6-.3-.3-.1-.3-.2h-.3l-.3-.2-.3-.1-.3-.1-.3-.1-.3-.1-.6-.3-.6-.2h-.3l-.3-.2-.3-.1-.3-.1-.3-.1-.3-.1-.3-.1-.4-.1-.6-.2-.6-.2-.3-.1-.3-.1-.3-.1-.3-.1h-.3l-.7-.3h-.3l-.6-.2-.6-.2-.3-.1h-.4l-.3-.2h-.3l-.3-.1-.3-.1-.3-.1h-.4l-.3-.2h-.3l-.3-.1h-.3l-.4-.2h-.3l-.3-.1h-.3l-.7-.2h-.3l-.6-.2h-.3l-.4-.1-.3-.1h-.3l-.3-.1-.4-.1-.6-.1h-.3l-.4-.1h-.3l-.3-.1h-.3l-.7-.2h-.3l-.7-.1-.6-.1h-.4l-.3-.1h-.3l-.4-.1h-.3l-.6-.1h-.4l-.6-.2h-1.4l-.3-.1h-.7l-.3-.1h-1l-.4-.1h-1.3l-.3-.1H261.5l-.4-.1H257.4l-1-.1-.9-.1-1-.3-.8-.3-.9-.4-.8-.4-.7-.6-.7-.6-.7-.7-.6-.7-.5-.8-.4-.8-.3-1-.3-.8-.2-1v-2.7l.2-1 .3-.9.3-.8.4-.9.6-.8.5-.7.7-.7.7-.6.8-.5.8-.5.8-.4 1-.3.8-.2 1-.2z"/><path d="M256.3 169.3H261l.2.1h1.4l.3.1h.8l.3.1h.8l.2.1h.6l.5.1h.5l.3.1h.6l.2.1h.6l.2.1h.3l.5.2h.6l.5.1.5.1.5.1.6.1.5.1.5.1.5.1.6.1.5.1.5.1.5.2h.5l.6.2.5.1.5.2h.5l.5.2.5.2.5.1.5.2.5.1.6.2.5.1.5.2.5.1.5.2.5.2.5.1.5.2.4.2.5.2.5.1.5.2.5.2.5.2.5.2.5.2.4.2.5.2.5.2.5.2.5.2.4.2.5.3.5.2.5.2.4.2.5.2.5.3.4.2.5.2.4.3.5.2.5.3.4.2.5.3.4.2.5.3.4.2.5.3.4.2.5.3.4.3.4.2.5.3.4.3.5.3.4.2.4.3.5.3.4.3.4.3.4.3.5.3.4.3.4.3.4.3.4.3.4.3.5.3.4.3.4.3.4.3.4.4.4.3.4.3.4.3.4.4.4.3.4.3.3.4.4.3.4.3.4.4.4.3.4.4.3.3.4.4.4.3.4.4.3.3.4.4.4.3.3.4.4.4.3.3.4.4.3.4.4.4.3.3.4.4.3.4.4.4.3.4.3.4.4.3.3.4.3.4.4.4.3.4.3.4.3.4.4.4.3.4.3.4.3.5.3.4.3.4.3.4.3.4.3.4.3.4.3.5.3.4.3.4.3.4.3.5.3.4.2.4.3.5.3.4.3.5.2.4.3.4.3.5.2.4.3.5.2.4.3.5.2.4.3.5.2.4.3.5.2.5.3.4.2.5.2.4.3.5.2.5.2.4.2.5.3.5.2.5.2.4.2.5.2.5.2.5.2.5.2.4.2.5.2.5.2.5.2.5.2.5.1.5.2.5.2.5.2.4.1.5.2.5.2.5.1.5.2.5.1.6.2.5.1.5.2.5.1.5.2.5.1.5.1.5.2.5.1.5.1.6.1.5.2.5v.5l.2.5.1.6.1.5.1.5.1.5.1.6v.5l.2.5v.5l.2.6v.8l.1.2v.6l.1.2v.3l.1.6v.5l.1.3v.5l.1.3v.8l.1.2V248.3l.1.3v1.1l.1.3v2.2l.1.2V259.6l-.1.3v1l-.1.6v.5l-.1.6v.8l-.1.3v.8l-.1.2v.6l-.1.5v.3l-.1.2v.6l-.2.5v.5l-.1.6-.1.5-.1.5-.1.6-.1.5-.1.5-.1.5-.1.6-.1.5-.1.5-.1.5-.2.5v.6l-.2.5-.1.5-.2.5v.5l-.2.5-.2.5-.1.6-.2.5-.1.5-.2.5-.1.5-.2.5-.1.5-.2.5-.2.5-.1.5-.2.5-.2.5-.2.5-.1.5-.2.4-.2.5-.2.5-.2.5-.2.5-.2.5-.2.5-.2.4-.2.5-.2.5-.2.5-.2.4-.3.5-.2.5-.2.4-.2.5-.3.5-.2.4-.2.5-.3.5-.2.4-.3.5-.2.4-.3.5-.2.5-.3.4-.2.5-.3.4-.2.4-.3.5-.3.4-.2.5-.3.4-.3.4-.3.5-.2.4-.3.4-.3.5-.3.4-.3.4-.3.5-.3.4-.3.4-.3.4-.3.4-.3.4-.3.5-.3.4-.3.4-.3.4-.3.4-.4.4-.3.4-.3.4-.3.4-.4.4-.3.4-.3.4-.4.4-.3.4-.3.3-.4.4-.3.4-.4.4-.3.4-.4.3-.3.4-.4.4-.3.3-.4.4-.3.4-.4.3-.4.4-.3.4-.4.3-.4.4-.4.3-.3.4-.4.3-.4.4-.4.3-.4.3-.4.4-.3.3-.4.3-.4.4-.4.3-.4.3-.4.3-.4.4-.4.3-.4.3-.4.3-.4.3-.5.3-.4.3-.4.4-.4.3-.4.3-.4.3-.5.2-.4.3-.4.3-.4.3-.5.3-.4.3-.4.3-.5.2-.4.3-.5.3-.4.3-.4.2-.5.3-.4.2-.5.3-.4.3-.5.2-.4.3-.5.2-.4.3-.5.2-.5.2-.4.3-.5.2-.4.3-.5.2-.5.2-.4.2-.5.3-.5.2-.5.2-.4.2-.5.2-.5.2-.5.2-.5.2-.4.2-.5.2-.5.2-.5.2-.5.2-.5.2-.5.2-.5.1-.4.2-.5.2-.5.2-.5.1-.5.2-.5.2-.5.1-.5.2-.6.1-.5.2-.5.1-.5.2h-.5l-.5.2-.5.2h-.5l-.5.2-.6.1-.5.2h-.5l-.5.2-.5.1-.6.1-.5.1-.5.1-.5.1-.6.1-.5.1-.5.1h-.5l-.6.2h-.8l-.5.2h-.5l-.6.1h-.5l-.3.1h-.8l-.3.1h-.2l-.6.1h-1.1l-.2.1h-1.1l-.3.1H260l-.3.1h-4.8l-.7-.2-.8-.2-.7-.3-.7-.3-.6-.3-.7-.4-.6-.5-.5-.5-.6-.5-.4-.6-.5-.6-.4-.7-.3-.7-.3-.7-.2-.7-.2-.7-.1-.8v-2.2l.1-.8.2-.7.2-.7.3-.7.3-.7.4-.7.4-.6.5-.6.5-.5.6-.5.6-.5.6-.4.7-.3.7-.3.7-.3.7-.2.8-.2H258l.4-.1h1.7l.4-.1H261.8l.4-.1H262.8l.2-.1h.5l.4-.1H264.5l.2-.1H265.3l.2-.1h.4l.4-.1h.4l.5-.2h.4l.4-.1h.4l.4-.1.4-.1.4-.1h.4l.4-.2h.4l.4-.2h.4l.4-.1.4-.1.4-.1.4-.1.4-.2h.3l.4-.2h.4l.4-.2.4-.1.4-.1.4-.2h.4l.4-.2.3-.1.4-.2h.4l.4-.2.4-.2.3-.1.4-.1.4-.2.4-.1.3-.2.4-.1.4-.2.3-.1.4-.2.4-.2.3-.1.4-.2.4-.2.3-.1.4-.2.4-.2.3-.1.4-.2.3-.2.4-.2.3-.2.4-.1.4-.2.3-.2.4-.2.3-.2.3-.2.4-.2.3-.2.4-.2.3-.2.4-.2.3-.2.3-.2.4-.2.3-.2.3-.3.4-.2.3-.2.3-.2.4-.2.3-.3.3-.2.3-.2.4-.3.3-.2.3-.2.3-.3.3-.2.4-.2.3-.3.3-.2.3-.3.3-.2.3-.3.3-.2.3-.3.3-.2.3-.3.3-.2.3-.3.3-.3.3-.2.3-.3.3-.3.3-.2.3-.3.3-.3.3-.2.2-.3.3-.3.3-.3.3-.3.3-.2.2-.3.3-.3.3-.3.3-.3.2-.3.3-.3.3-.3.2-.3.3-.3.2-.3.3-.3.3-.3.2-.3.3-.3.2-.3.3-.3.2-.3.3-.3.2-.3.2-.3.3-.3.2-.4.3-.3.2-.3.2-.3.3-.3.2-.4.2-.3.2-.3.3-.3.2-.4.2-.3.2-.3.2-.4.2-.3.3-.3.2-.4.2-.3.2-.4.2-.3.2-.3.2-.4.2-.3.2-.4.2-.3.2-.4.1-.3.2-.4.2-.3.2-.4.2-.3.2-.4.1-.4.2-.3.2-.4.2-.3.1-.4.2-.4.2-.3.1-.4.2-.4.1-.3.2-.4.1-.4.2-.3.1-.4.2-.4.1-.4.2-.3.1-.4.1-.4.2-.4.1-.4.1-.3.2-.4.1-.4.1-.4.1-.4.2-.4v-.4l.2-.3.1-.4.1-.4.1-.4.1-.4.1-.4.1-.4.1-.4.1-.4.1-.4.1-.4.1-.4v-.4l.2-.4v-.4l.1-.4.1-.4v-.4l.1-.4.1-.4v-.4l.1-.4.1-.5v-.4l.1-.2V263.3l.1-.2V262.5l.1-.2v-.8l.1-.3V260.6l.1-.4v-1.3l.1-.2V256.4l.1-.2V251.3l-.1-.4V249.8l-.1-.2v-1l-.1-.2v-.7l-.1-.2V247l-.1-.2V246.1l-.1-.2V245.3l-.2-.4v-.9l-.1-.4-.1-.4v-.4l-.2-.4v-.4l-.1-.4-.1-.4-.1-.4v-.4l-.2-.4v-.4l-.2-.4v-.4l-.2-.4v-.4l-.2-.4v-.3l-.2-.4-.1-.4-.1-.4-.1-.4-.2-.4v-.4l-.2-.4-.1-.3-.2-.4v-.4l-.2-.4-.2-.4v-.4l-.2-.3-.2-.4-.1-.4-.2-.4-.1-.3-.2-.4-.1-.4-.2-.3-.1-.4-.2-.4-.1-.3-.2-.4-.2-.4-.1-.3-.2-.4-.2-.4-.2-.3-.1-.4-.2-.3-.2-.4-.2-.3-.2-.4-.2-.4-.1-.3-.2-.4-.2-.3-.2-.3-.2-.4-.2-.3-.2-.4-.2-.3-.2-.4-.2-.3-.2-.3-.3-.4-.2-.3-.2-.3-.2-.4-.2-.3-.2-.3-.3-.4-.2-.3-.2-.3-.2-.3-.3-.4-.2-.3-.2-.3-.3-.3-.2-.3-.3-.4-.2-.3-.2-.3-.3-.3-.2-.3-.3-.3-.2-.3-.3-.3-.2-.3-.3-.3-.3-.3-.2-.3-.3-.3-.2-.3-.3-.3-.3-.3-.3-.3-.2-.3-.3-.3-.3-.3-.2-.2-.3-.3-.3-.3-.3-.3-.3-.3-.2-.2-.3-.3-.3-.3-.3-.2-.3-.3-.3-.3-.3-.3-.3-.2-.3-.3-.3-.2-.3-.3-.3-.3-.3-.2-.3-.3-.3-.2-.3-.3-.3-.2-.3-.3-.3-.2-.3-.2-.4-.3-.3-.2-.3-.3-.3-.2-.3-.2-.4-.3-.3-.2-.3-.2-.3-.2-.4-.3-.3-.2-.3-.2-.4-.2-.3-.2-.3-.2-.4-.3-.3-.2-.3-.2-.4-.2-.3-.2-.4-.2-.3-.2-.4-.2-.3-.2-.3-.2-.4-.2-.3-.1-.4-.2-.4-.2-.3-.2-.4-.2-.3-.2-.4-.1-.3-.2-.4-.2-.4-.2-.3-.1-.4-.2-.4-.2-.3-.1-.4-.2-.4-.1-.3-.2-.4-.1-.4-.2-.3-.1-.4-.2-.4-.1-.4-.2-.3-.1-.4-.1-.4-.2-.4-.1-.4-.1-.3-.2-.4-.1-.4-.1-.4-.1-.4-.2h-.4l-.4-.2-.4-.1-.4-.1-.3-.1-.4-.1-.4-.1-.4-.1-.4-.1-.4-.1-.4-.1-.4-.1-.4-.1h-.4l-.4-.2h-.4l-.4-.1-.4-.1h-.4l-.4-.1-.4-.1h-.5l-.4-.1-.4-.1h-.4l-.2-.1h-.4l-.4-.1h-.2l-.6-.1H262.8l-.2-.1h-.8l-.2-.1h-1.3l-.2-.1H257.8l-.4-.1H255.5l-.7-.1-.8-.2-.7-.2-.7-.2-.7-.3-.7-.4-.6-.4-.6-.5-.6-.5-.5-.5-.5-.6-.4-.6-.4-.7-.3-.7-.3-.7-.2-.7-.2-.7-.1-.8V178l.1-.8.2-.7.2-.7.3-.7.3-.7.4-.6.5-.7.4-.5.6-.6.5-.5.6-.4.7-.5.6-.3.7-.3.7-.3.8-.2.7-.1.8-.1z"/></g><g fill="#fbfdfd"><path d="M255 419.5h-4.2l-.5-.1h-2.6l-.5-.1H246l-.5-.1H244l-.5-.1h-.5l-.5-.1h-1.1l-.5-.1h-.5l-.5-.1h-.6l-.5-.1h-.5l-.5-.1h-.5l-.5-.1-.5-.1h-.6l-.5-.1h-.5l-.5-.1-.5-.1h-.5l-.5-.1-.5-.1h-.6l-.5-.2h-.5l-.5-.1h-.5l-.5-.2h-.5l-.5-.1-.5-.1-.5-.1-.5-.1h-.5l-.5-.2h-.6l-.5-.2h-.5l-.5-.2h-.5l-.5-.2h-.5l-.5-.2h-.5l-1-.3h-.5l-.5-.2-.5-.1-.4-.1-.5-.1-.5-.2h-.5l-.5-.2-.5-.1-.5-.1-.5-.2h-.5l-.5-.2-.5-.1-.5-.2-.5-.1-.4-.1-.5-.2-.5-.1-.5-.1-.5-.2-.5-.1-.5-.2-.4-.1-.5-.2-.5-.1-.5-.1-.5-.2-.5-.1-.4-.2-.5-.2-.5-.1-.5-.2-.5-.1-.4-.2-.5-.1-.5-.2-.5-.2-.4-.1-.5-.2-.5-.2-.5-.1-.4-.2-.5-.2-.5-.1-.4-.2-.5-.2-.5-.2-.4-.2-.5-.1-1-.4-.9-.4-.4-.2-1-.3-.4-.2-.5-.2-.4-.2-.5-.2-.5-.2-.4-.2-1-.4-.4-.2-.4-.2-.5-.2-.5-.2-.4-.2-.5-.2-.4-.2-.5-.3-.4-.2-.5-.2-.9-.4-.4-.2-.5-.3-.4-.2-.4-.2-.5-.2-.4-.2-.5-.3-.4-.2-.5-.2-.4-.3-.4-.2-.5-.2-.4-.2-.4-.3-.5-.2-.4-.3-.5-.2-.4-.2-.4-.3-.4-.2-.5-.3-.4-.2-.4-.3-.5-.2-.4-.2-.4-.3-.4-.2-.9-.6-.4-.2-.4-.3-.5-.2-.4-.3-.4-.2-.4-.3-.4-.3-.5-.2-.4-.3-.4-.3-.4-.2-.8-.6-.5-.2-.4-.3-.4-.3-.4-.3-.4-.2-.4-.3-.4-.3-.4-.3-.4-.2-.4-.3-.4-.3-.4-.3-.4-.3-.4-.3-.4-.3-.4-.2-.4-.3-.4-.3-.4-.3-.4-.3-.4-.3-.4-.3-.4-.3-.4-.3-.4-.3-.4-.3-.4-.3-.4-.3-.3-.3-.4-.3-.4-.3-.4-.3-.4-.3-.4-.3-.4-.3-.3-.4-.4-.3-.4-.3-.4-.3-.3-.3-.4-.3-.4-.3-.4-.4-.3-.3-.4-.3-.4-.3-.4-.4-.3-.3-.4-.3-.4-.3-.3-.4-.4-.3-.4-.3-.3-.3-.4-.4-.3-.3-.4-.3-.4-.4-.3-.3-.4-.4-.3-.3-.4-.3-.3-.4-.4-.3-.4-.4-.3-.3-.4-.3-.3-.4-.4-.3-.3-.4-.3-.3-.4-.4-.3-.3-.4-.4-.3-.3-.4-.4-.3-.4-.7-.7-.3-.3-.3-.4-.4-.3-.3-.4-.3-.4-.4-.3-.3-.4-.3-.4-.4-.3-.3-.4-.3-.4-.3-.3-.4-.4-.3-.4-.3-.3-.3-.4-.3-.4-.4-.4-.3-.3-.3-.4-.3-.4-.3-.4-.3-.4-.4-.3-.3-.4-.3-.4-.3-.4-.3-.4-.3-.4-.3-.3-.3-.4-.3-.4-.3-.4-.3-.4-.3-.4-.3-.4-.3-.4-.3-.4-.3-.4-.3-.4-.3-.4-.3-.4-.3-.4-.2-.4-.3-.4-.3-.4-.3-.4-.3-.4-.3-.4-.2-.4-.3-.4-.3-.4-.3-.4-.5-.8-.3-.4-.3-.4-.3-.4-.2-.5-.3-.4-.3-.4-.2-.4-.3-.4-.3-.4-.2-.4-.3-.5-.3-.4-.2-.4-.3-.4-.2-.4-.3-.5-.2-.4-.3-.4-.2-.4-.3-.5-.2-.4-.3-.4-.2-.5-.3-.4-.2-.4-.3-.4-.2-.5-.3-.4-.2-.4-.5-1-.2-.3-.5-1-.2-.4-.2-.4-.3-.4-.2-.5-.2-.4-.3-.5-.2-.4-.2-.5-.2-.4-.2-.4-.3-.5-.2-.4-.2-.5-.2-.4-.2-.5-.2-.4-.2-.5-.3-.4-.2-.5-.2-.4-.2-.5-.2-.4-.2-.5-.2-.5-.2-.4-.2-.5-.2-.4-.2-.5-.2-.4-.2-.5-.2-.5-.2-.4-.1-.5-.2-.5-.2-.4-.2-.5-.2-.4-.2-.5-.2-.5-.1-.4-.2-.5-.2-.5-.2-.5-.1-.4-.2-.5-.2-.5-.2-.4-.1-.5-.2-.5-.2-.5-.1-.4-.2-.5-.2-.5-.1-.5-.2-.4-.1-.5-.2-.5-.1-.5-.2-.5-.1-.4-.2-.5-.1-.5-.2-.5-.1-.5-.2-.4-.1-.5-.2-.5-.1-.5-.1-.5-.2-.5-.1-.5-.2-.4v-.5l-.2-.5-.1-.5-.2-.5-.1-.5-.1-.5-.2-.5v-.5l-.2-.5-.1-.5-.1-.5-.2-.4v-.5l-.2-.5v-.5l-.2-.5-.1-.5-.1-.5-.1-.5-.1-.5-.1-.5-.1-.5-.1-.5-.1-.5-.1-.5-.1-.5-.1-.5-.1-.5-.1-.6-.1-.5v-.5l-.2-.5v-.5l-.1-.5-.1-.5-.1-.5v-.5l-.2-.5v-.5l-.1-.5v-.5l-.1-.6-.1-.5v-.5l-.1-.5-.1-.5v-.5l-.1-.5-.1-.5v-.6l-.1-.5v-.5l-.1-.5v-.5l-.1-.5v-.6l-.1-.5v-.5l-.1-.5V268l-.1-.5v-.5l-.1-.5v-1.1l-.1-.5v-1.6l-.1-.5v-2.1l-.1-.5v-11.6l.1-.5v-1.6l.1-.5V245l.1-.5v-1l.1-.6v-1l.1-.5v-.5l.1-.6v-.5l.1-.5v-.5l.1-.5v-.5l.1-.6.1-.5v-.5l.1-.5v-.5l.2-.5v-1l.2-.6v-.5l.1-.5v-.5l.1-.5.1-.5.1-.5v-.5l.2-.5v-.5l.1-.5.1-.6.1-.5v-.5l.2-.5v-.5l.2-.5v-.5l.2-.5v-.5l.2-.5v-.5l.2-.5v-.5l.2-.5v-.5l.2-.5.1-.5.1-.5.1-.5.1-.5.2-.5v-.5l.2-.4.1-.5.1-.5.2-.5.1-.5.1-.5.2-.5v-.5l.2-.5.1-.5.2-.5.1-.4.2-.5v-.5l.2-.5.2-.5.1-.5.2-.5.1-.4.2-.5.1-.5.2-.5.1-.5.2-.4.1-.5.2-.5.1-.5.2-.5.1-.4.2-.5.2-.5.1-.5.2-.4.2-.5.1-.5.2-.5.2-.4.2-.5.1-.5.2-.4.2-.5.2-.5.1-.4.2-.5.2-.5.2-.4.2-.5.2-.5.2-.4.1-.5.2-.4.2-.5.2-.5.2-.4.2-.5.2-.4.2-.5.2-.5.2-.4.2-.5.2-.4.2-.5.2-.4.2-.5.3-.4.2-.5.2-.4.2-.5.2-.4.2-.5.2-.4.3-.5.2-.4.2-.5.2-.4.2-.5.3-.4.2-.4.2-.5.3-.4.2-.5.2-.4.5-.9.2-.4.5-.9.2-.4.3-.4.2-.5.3-.4.2-.4.3-.5.2-.4.3-.4.2-.4.3-.5.2-.4.3-.4.2-.4.3-.5.2-.4.3-.4.2-.4.3-.5.3-.4.2-.4.3-.4.3-.4.2-.4.3-.5.3-.4.2-.4.3-.4.3-.4.3-.4.2-.4.3-.4.3-.4.3-.4.3-.4.2-.5.3-.4.3-.4.3-.4.3-.4.3-.4.2-.4.3-.4.3-.4.3-.4.3-.4.3-.3.3-.4.3-.4.3-.4.3-.4.3-.4.3-.4.3-.4.3-.4.3-.4.3-.3.3-.4.3-.4.3-.4.3-.4.4-.4.3-.3.3-.4.3-.4.3-.4.3-.3.4-.4.3-.4.3-.4.3-.3.3-.4.4-.4.3-.4.3-.3.3-.4.4-.4.3-.3.3-.4.4-.3.3-.4.3-.4.4-.3.3-.4.3-.3.7-.8.3-.3.4-.4.3-.3.4-.4.3-.3.4-.4.3-.3.3-.4.4-.3.3-.4.4-.3.3-.4.4-.3.4-.3.3-.4.4-.3.3-.4.7-.6.4-.4.4-.3.3-.3.4-.4.3-.3.4-.3.4-.4.3-.3.4-.3.4-.3.3-.4.4-.3.4-.3.4-.3.3-.4.4-.3.4-.3.4-.3.3-.3.4-.3.4-.4.4-.3.3-.3.4-.3.4-.3.4-.3.4-.3.4-.3.4-.3.3-.3.4-.3.4-.3.4-.3.8-.6.4-.3.4-.3.4-.3.4-.3.4-.3.4-.3.4-.3.4-.3.4-.3.4-.2.4-.3.4-.3.4-.3.4-.3.4-.3.4-.2.4-.3.4-.3.4-.3.4-.2.4-.3.4-.3.5-.3.8-.5.4-.3.4-.2.4-.3.5-.3.4-.2.4-.3.4-.2.4-.3.5-.3.4-.2.4-.3.8-.5.5-.2.4-.3.4-.2.5-.3.4-.2.4-.3.5-.2.4-.2.4-.3.4-.2.5-.3.4-.2.5-.2.4-.3.4-.2.5-.2.4-.3.4-.2.5-.2.4-.2.5-.3.4-.2.5-.2.8-.5.5-.2.4-.2 1-.4.4-.2.4-.3.5-.2.4-.2.5-.2.4-.2.5-.2.5-.2.4-.2.5-.2.9-.4.4-.2.5-.2.5-.2.4-.2.5-.2.4-.2 1-.4.4-.1 1-.4.9-.4.5-.2.4-.1.5-.2.5-.2.4-.2.5-.1.5-.2.4-.2.5-.2.5-.1.5-.2.4-.1.5-.2.5-.2.5-.1.4-.2.5-.2.5-.1.5-.2.5-.1.4-.2.5-.1.5-.2.5-.1.5-.2.5-.1.4-.1.5-.2.5-.1.5-.2.5-.1.5-.1.5-.2.4-.1.5-.1.5-.2.5-.1.5-.1.5-.2h.5l.5-.2.5-.1.5-.1.5-.2h.5l.5-.2.4-.1.5-.1.5-.1.5-.1.5-.1.5-.2h.5l.5-.2h.5l.5-.2h.5l.5-.2h.5l.5-.1.6-.1.5-.1.5-.1.5-.1h.5l.5-.2h.5l.5-.1.5-.1.5-.1h.5l.5-.2h.5l.6-.1h.5l.5-.1.5-.1h.5l.5-.1.5-.1h.5l.6-.1h.5l.5-.1h.5l.5-.1h.5l.5-.1h.6l.5-.1h.5l.5-.1h.5l.6-.1h1l.5-.1h1.1l.5-.1h1l.6-.1h2.1l.5-.1h5.2l3.1.4 2.8 1.4 2.1 2.2 1.4 2.7.5 3-.4 3.1-1.4 2.8-2.2 2.1-2.8 1.5-3 .4h-3.8l-.4.1h-2.3l-.5.1h-1.4l-.4.1h-1l-.9.1h-.4l-.5.1h-.9l-.5.1h-.9l-.4.1h-.5l-.4.1-1 .1h-.4l-.5.1h-.4l-.5.1-.4.1h-.5l-.4.1h-.5l-.4.1-.5.1h-.4l-.5.1-.4.1h-.5l-.4.1-.4.1h-.5l-.4.2h-.5l-.4.1h-.5l-.4.2h-.5l-.4.1-.4.1-.5.1h-.4l-.5.2h-.4l-.4.2h-.5l-.4.1-.5.1-.4.1-.4.1-.5.1-.4.1-.4.1-.5.1-.4.1-.4.1-1 .3h-.3l-.5.2h-.4l-.4.2-.5.1-.4.1-.4.2h-.5l-.4.2-.4.1-.4.1-.5.2h-.4l-.4.2-.4.1-.5.2h-.4l-.4.2-.4.2h-.5l-.4.2-.4.2h-.4l-.4.2-.5.2-.4.1-.4.2-.4.1-.4.1-.5.2-.4.1-.4.2-.4.1-.4.2-.4.1-.4.2-.5.1-.4.2-.4.2-.4.1-.4.2-.8.3-.8.3-.4.2-.4.2-.5.1-.4.2-.8.3-.4.2-.4.2-.4.2-.4.1-.4.2-.8.4-.4.2-.8.3-.4.2-.4.2-.4.2-.4.2-.3.2-.8.3-.4.2-.4.2-.4.2-.4.2-.4.2-.4.2-.4.2-.4.2-.3.2-.4.2-.4.2-.4.2-.8.4-.3.2-.4.3-.4.2-.4.2-.4.2-.3.2-.4.2-.4.2-.4.3-.4.2-.3.2-.4.2-.4.2-.4.3-.3.2-.4.2-.7.5-.4.2-.4.2-.4.3-.3.2-.4.2-.4.3-.3.2-.4.2-.3.3-.4.2-.4.2-.3.3-.4.2-.4.3-.3.2-.4.2-.3.3-.4.2-.3.3-.4.2-.4.3-.3.2-.4.3-.3.2-.4.3-.3.3-.4.2-.3.3-.4.2-.7.5-.3.3-.3.3-.4.2-.3.3-.4.3-.3.2-.4.3-.3.3-.3.2-.4.3-.3.3-.4.2-.3.3-.3.3-.4.3-.3.2-.3.3-.4.3-.3.3-.3.3-.3.2-.4.3-.3.3-.3.3-.7.6-.3.2-.3.3-.7.6-.3.3-.3.3-.3.3-.3.3-.4.3-.3.3-.3.3-.3.3-.3.3-.3.3-.4.3-.3.3-.3.3-.3.3-.3.3-.3.3-.3.3-.3.3-.3.3-.3.3-.3.3-.3.3-.3.3-.3.3-.3.4-.3.3-.3.3-.6.6-.3.3-.3.3-.3.4-.6.6-.3.3-.2.4-.3.3-.3.3-.3.3-.3.3-.3.4-.3.3-.2.3-.3.4-.3.3-.3.3-.3.4-.5.6-.3.4-.3.3-.2.3-.3.4-.3.3-.2.3-.3.4-.3.3-.3.4-.2.3-.3.3-.2.4-.6.7-.2.3-.3.4-.3.3-.2.4-.3.3-.2.4-.3.3-.2.4-.3.3-.2.4-.3.3-.2.4-.3.3-.2.4-.5.7-.5.7-.3.4-.2.3-.2.4-.5.7-.3.4-.2.4-.2.3-.3.4-.2.4-.2.3-.3.4-.2.4-.2.3-.2.4-.3.4-.2.3-.2.4-.2.4-.3.4-.2.3-.2.4-.2.4-.2.4-.3.3-.4.8-.2.4-.2.4-.2.3-.4.8-.2.4-.3.4-.2.4-.2.4-.2.3-.2.4-.2.4-.2.4-.2.4-.2.4-.2.4-.2.4-.1.4-.2.3-.2.4-.2.4-.2.4-.2.4-.2.4-.2.4-.2.4-.1.4-.2.4-.2.4-.2.4-.2.4-.1.4-.2.4-.2.4-.2.4-.1.4-.2.4-.2.4-.1.4-.2.4-.2.4-.3.9-.2.4-.1.4-.4.8-.1.4-.2.4-.1.4-.2.4-.1.4-.2.5-.1.4-.2.4-.3.8-.1.4-.2.5-.1.4-.2.4-.1.4-.1.4-.3.9-.2.4-.2.8-.2.5v.4l-.2.4-.1.4-.2.5-.1.4-.1.4-.1.4-.2.5v.4l-.2.4-.1.4-.1.5-.2.4v.4l-.2.5-.1.4-.1.4-.1.5-.1.4-.1.4-.1.5-.1.4-.1.4-.1.5-.1.4-.1.4-.1.5-.1.4-.1.5-.1.4-.1.4-.1.5-.1.4v.4l-.2.5v.4l-.1.5-.1.4-.1.5v.4l-.2.4v.5l-.1.4v.5l-.2.4v.5l-.1.4v.5l-.2.9v.4l-.1.5-.1.4v.5l-.1.4v.5l-.1.4v.5l-.1.4-.1.5v.4l-.1.5v.9l-.1.4v.5l-.1.5v.4l-.1.5v.9l-.1.4v1l-.1.4v.9l-.1.5V249l-.1.5v2.3l-.1.5v9.3l.1.4v1.4l.1.5v1.4l.1.4v.9l.1.5v.9l.1.5v.4l.1.5v.4l.1.5v.5l.1.4v.5l.1.4v.5l.1.4v.5l.1.4v.5l.1.4.1.5v.4l.1.5v.4l.2 1v.4l.2.4v.5l.1.4v.4l.2.5v.4l.1.5v.4l.2.5v.4l.1.5.1.4.1.4.1.5v.4l.2.5v.4l.2.4v.5l.2.4v.4l.2.5v.4l.2.5v.4l.2.4v.5l.2.4v.4l.2.5.1.4.1.4.1.4.1.5.2.4v.4l.2.5.1.4.1.4.2.5v.4l.2.4.1.4.2.5v.4l.2.4.1.4.2.5.2.8.2.4.3.9.1.4.1.4.2.4.1.4.2.4.1.5.3.8.2.4.1.4.2.4.1.4.2.5.1.4.2.4.1.4.4.8.1.4.2.4.3.8.2.5.2.4.1.4.2.4.2.4.1.4.2.4.2.4.2.4.1.4.2.4.2.4.2.4.2.4.1.4.2.4.2.4.2.4.2.4.2.4.2.3.2.4.2.4.1.4.2.4.2.4.2.4.2.4.2.4.2.4.2.3.2.4.2.4.2.4.3.4.2.4.4.7.2.4.2.4.2.4.4.7.3.4.2.4.2.4.2.3.2.4.3.4.4.7.2.4.3.4.2.4.2.3.2.4.5.7.2.4.3.4.2.3.2.4.3.4.5.7.2.3.2.4.3.4.5.7.2.3.3.4.2.3.3.4.2.4.3.3.2.4.3.3.2.4.3.3.2.4.3.3.2.4.3.3.3.4.2.3.3.4.3.3.2.3.3.4.2.3.3.4.3.3.3.3.2.4.3.3.3.4.2.3.3.3.3.4.3.3.2.3.3.4.3.3.3.3.3.4.2.3.3.3.3.3.3.4.3.3.3.3.3.3.2.4.3.3.3.3.3.3.3.3.3.4.3.3.3.3.3.3.3.3.3.3.3.3.3.4.3.3.3.3.3.3.3.3.6.6.3.3.3.3.3.3.3.3.3.3.3.3.4.3.3.3.3.3.3.3.3.3.3.3.4.3.3.3.3.3.6.6.7.6.3.2.3.3.3.3.4.3.3.3.3.3.4.2.3.3.3.3.3.3.4.3.3.2.3.3.4.3.3.3.3.2.4.3.3.3.4.3.3.2.3.3.4.3.3.2.4.3.3.3.4.2.3.3.3.2.4.3.3.3.4.2.3.3.4.2.3.3.7.5.4.2.3.3.4.2.4.3.3.2.4.3.3.2.7.5.4.3.4.2.3.2.4.3.4.2.3.3.4.2.3.2.4.3.4.2.3.2.4.3.4.2.4.2.3.2.4.3.4.2.3.2.4.2.4.3.4.2.3.2.4.2.4.2.4.3.4.2.3.2.4.2.4.2.4.2.4.2.3.2.4.3.4.2.4.2.4.2.4.2.3.2.4.2.4.2.4.2.4.2.4.2.4.2.4.2.4.1.4.2.4.2.3.2.4.2.4.2.4.2.4.2.4.1.4.2.4.2.8.4.4.1.4.2.4.2.4.2.4.1.8.4.4.2.5.1.4.2.4.2.8.3.8.3.4.2.4.1.4.2.4.1.5.2.4.1.4.2.4.1.4.2.4.1.4.2.5.1.4.2.4.1.4.2.4.1.5.2h.4l.4.2.4.2.4.1.5.1.4.2h.4l.4.2.5.2h.4l.4.2.4.1.5.2h.4l.4.2.4.1.5.1.4.1.4.2h.5l.4.2.4.1.9.2.4.1.4.1.5.1.4.1.5.2h.4l.4.2h.5l.4.1.4.1.5.1.4.1.5.1.4.1.4.1h.5l.4.2h.5l.4.1.4.1.5.1h.4l1 .2.4.1.4.1h.5l.4.1.4.1h.5l.4.1.5.1h.4l.5.1.4.1h.5l.4.1h.5l.4.1.5.1h.4l.5.1h.4l1 .2h1.3l.5.1h.4l.5.1h.9l.5.1h.4l1 .1h.9l.4.1h1.4l.5.1h2.3l.4.1h3.8l3 .5 2.8 1.4 2.2 2.2 1.4 2.8.4 3-.5 3-1.4 2.8-2.1 2.2-2.8 1.4z"/><path d="M253.5 380.4H249.1l-.4-.1h-1.6l-.4-.1h-1.6l-.4-.1h-.8l-.4-.1h-.4l-.8-.1h-.8l-.4-.1h-.4l-.4-.1h-.7l-.4-.1h-.4l-.4-.1h-.4l-.4-.1h-.4l-.4-.1h-.4l-.4-.1h-.4l-.7-.2h-.4l-.4-.1h-.4l-.4-.1-.4-.1h-.4l-.4-.1-.3-.1h-.4l-.4-.1-.4-.1h-.4l-.4-.2-.7-.1-.8-.2h-.4l-.4-.1-.4-.1-.7-.2h-.4l-.4-.1-.4-.1-.3-.1-.4-.1-.8-.2h-.3l-.4-.2h-.4l-.4-.2h-.4l-.7-.3h-.4l-.4-.2h-.3l-.4-.2h-.4l-.3-.2h-.4l-.4-.2-.4-.1-.3-.1-.4-.1-.4-.1-.3-.2h-.4l-.4-.2-.3-.1-.8-.2-.3-.2h-.4l-.4-.2-.3-.1-.4-.2h-.4l-.3-.2-.4-.1-.3-.2-.4-.1-.4-.1-.3-.2h-.4l-.3-.2-.4-.2-.4-.1-.3-.1-.4-.2-.3-.1-.4-.2-.3-.1-.4-.1-.3-.2-.4-.1-.4-.2-.3-.1-.4-.2-.3-.1-.4-.2-.3-.1-.4-.2-.3-.1-.4-.2-.3-.1-.4-.2-.3-.2-.7-.3-.7-.3-.3-.2-.4-.1-.3-.2-.7-.3-.3-.2-.4-.2-.3-.1-.4-.2-.6-.3-.7-.4-.3-.2-.4-.1-.3-.2-.4-.2-.3-.2-.7-.3-.6-.4-.3-.2-.4-.2-.3-.2-.7-.3-.3-.2-.3-.2-.3-.2-.4-.2-.3-.2-.3-.2-.3-.2-.4-.2-.3-.2-.6-.4-.4-.2-.3-.2-.3-.2-.6-.4-.4-.2-.6-.4-.3-.2-.3-.2-.6-.4-.4-.2-.6-.5-.3-.2-.3-.2-.3-.2-.3-.2-.3-.2-.3-.3-.3-.2-.7-.4-.3-.2-.3-.3-.6-.4-.3-.2-.3-.3-.3-.2-.3-.2-.3-.2-.6-.5-.3-.2-.3-.3-.3-.2-.3-.2-.2-.3-.6-.4-.3-.3-.3-.2-.3-.3-.3-.2-.3-.2-.3-.3-.6-.5-.2-.2-.3-.2-.6-.5-.6-.5-.2-.3-.3-.2-.3-.3-.3-.2-.3-.3-.2-.2-.3-.3-.3-.3-.3-.2-.5-.5-.3-.3-.3-.2-.2-.3-.3-.3-.3-.2-.2-.3-.3-.2-.3-.3-.2-.3-.6-.5-.5-.5-.3-.3-.2-.3-.3-.2-.2-.3-.3-.3-.3-.3-.2-.2-.3-.3-.2-.3-.3-.3-.3-.2-.2-.3-.3-.3-.5-.5-.2-.3-.3-.3-.2-.3-.5-.6-.5-.5-.2-.3-.3-.3-.5-.6-.2-.3-.3-.2-.2-.3-.2-.3-.3-.3-.2-.3-.5-.6-.2-.3-.3-.3-.2-.3-.2-.3-.2-.3-.5-.6-.2-.3-.3-.3-.2-.3-.2-.3-.2-.3-.5-.6-.2-.3-.2-.3-.5-.6-.2-.3-.2-.3-.2-.3-.2-.3-.3-.3-.2-.4-.2-.3-.2-.3-.2-.3-.2-.3-.2-.3-.2-.3-.3-.3-.2-.4-.2-.3-.2-.3-.2-.3-.2-.3-.2-.3-.4-.7-.2-.3-.4-.7-.2-.3-.2-.3-.2-.3-.2-.3-.2-.4-.1-.3-.2-.3-.2-.4-.2-.3-.4-.6-.2-.4-.2-.3-.1-.3-.4-.7-.4-.7-.2-.3-.1-.3-.2-.4-.2-.3-.3-.7-.2-.3-.2-.3-.2-.4-.1-.3-.2-.4-.2-.3-.1-.3-.2-.4-.2-.3-.1-.4-.2-.3-.2-.4-.3-.7-.3-.6-.2-.4-.1-.3-.2-.4-.1-.3-.2-.4-.1-.3-.2-.4-.1-.3-.2-.4-.1-.3-.2-.4-.1-.3-.3-.8-.1-.3-.2-.4-.3-.7-.1-.3-.1-.4-.2-.3-.1-.4-.2-.4-.2-.7-.2-.3v-.4l-.2-.4-.1-.3-.2-.4v-.4l-.2-.3-.1-.4-.2-.3v-.4l-.2-.4-.2-.7-.2-.4v-.3l-.2-.4-.1-.4-.1-.4-.1-.3-.1-.4-.2-.4v-.3l-.2-.4v-.4l-.2-.4v-.3l-.2-.4v-.4l-.2-.3-.2-.8v-.4l-.2-.3v-.4l-.2-.4v-.4l-.2-.7-.1-.4-.1-.4-.1-.4v-.3l-.2-.4v-.4l-.1-.4-.1-.4-.1-.4v-.3l-.2-.8-.2-.8v-.4l-.1-.3-.1-.4v-.4l-.1-.4-.1-.4v-.4l-.1-.4-.1-.3v-.4l-.1-.4v-.4l-.1-.4-.2-.8v-.8l-.1-.4v-.3l-.1-.4v-.4l-.1-.4v-.4l-.1-.4v-.4l-.1-.4v-.8l-.1-.4v-.4l-.1-.4v-.4l-.1-.8v-.8l-.1-.8v-.8l-.1-.4V261l-.1-.4v-2.4l-.1-.4V249.4l.1-.4V247.8l.1-.4V246.2l.1-.8v-.4l.1-.4v-.8l.1-.4v-.8l.1-.4v-.4l.1-.4v-.8l.1-.4v-.4l.1-.4v-.4l.1-.3v-.4l.1-.4v-.4l.1-.4.1-.4v-.4l.1-.4v-.4l.1-.4.1-.3v-.4l.1-.4v-.4l.2-.4v-.4l.1-.4v-.4l.1-.3.1-.4.2-.8.1-.8v-.3l.2-.4v-.4l.1-.4.1-.4.1-.3v-.4l.2-.4v-.4l.2-.4.1-.7.1-.4.1-.4.1-.3.1-.4.1-.4.2-.8.1-.3.1-.4.1-.4.1-.3.1-.4.1-.4.1-.4.1-.3.2-.4v-.4l.2-.3v-.4l.2-.4.1-.3.1-.4.2-.4.2-.7.1-.4.1-.3.2-.4v-.4l.2-.3.1-.4.2-.4v-.3l.2-.4.1-.3.2-.4.2-.7.2-.4.1-.3.2-.4v-.4l.2-.3.2-.4.1-.3.2-.4v-.3l.4-.7.1-.4.2-.4.1-.3.2-.4.1-.3.2-.4.1-.3.2-.4.1-.3.2-.4.1-.3.2-.3.2-.4.1-.3.3-.7.2-.4.3-.7.2-.3.2-.3.1-.4.2-.3.2-.4.1-.3.2-.3.2-.4.2-.3.3-.7.2-.3.2-.4.1-.3.2-.3.4-.7.4-.7.3-.6.2-.4.4-.6.2-.3.2-.4.2-.3.1-.3.2-.3.2-.4.2-.3.2-.3.2-.3.4-.7.2-.3.4-.6.2-.4.2-.3.2-.3.4-.6.3-.3.2-.4.2-.3.2-.3.2-.3.2-.3.2-.3.2-.3.2-.4.3-.3.2-.3.2-.3.2-.3.2-.3.5-.6.2-.3.2-.3.5-.6.2-.3.2-.3.2-.3.5-.6.2-.3.3-.3.2-.3.2-.3.2-.3.3-.3.2-.3.3-.3.2-.3.2-.3.3-.3.2-.3.2-.2.5-.6.5-.6.3-.3.2-.3.2-.3.3-.2.2-.3.3-.3.2-.3.3-.3.2-.2.3-.3.2-.3.3-.3.2-.3.3-.2.3-.3.5-.6.2-.2.3-.3.3-.3.2-.2.3-.3.2-.3.3-.3.5-.5.6-.5.2-.3.3-.2.3-.3.2-.3.3-.2.3-.3.2-.3.3-.2.3-.3.5-.5.3-.2.3-.3.3-.3.2-.2.3-.3.3-.2.3-.3.3-.2.2-.3.6-.5.6-.4.3-.3.3-.2.5-.5.6-.5.3-.2.3-.3.3-.2.3-.3.3-.2.3-.2.2-.3.3-.2.3-.2.3-.3.3-.2.6-.5.3-.2.3-.2.3-.2.3-.3.3-.2.6-.4.3-.3.3-.2.7-.4.3-.2.3-.3.3-.2.3-.2.3-.2.3-.2.3-.2.6-.5.4-.2.3-.2.3-.2.3-.2.3-.2.6-.4.4-.2.6-.4.3-.2.3-.2.4-.2.3-.2.3-.2.3-.2.4-.2.3-.2.3-.2.3-.2.4-.2.3-.2.3-.2.3-.2.7-.3.3-.2.4-.2.3-.2.6-.4.7-.3.3-.2.4-.2.3-.2.4-.1.6-.4.4-.2.3-.1.3-.2.4-.2.3-.1.4-.2.3-.2.3-.1.4-.2.3-.2.4-.1.3-.2.7-.3.4-.2.3-.1.3-.2.4-.2.3-.1.4-.2.3-.1.4-.2.3-.1.4-.2.3-.1.4-.2.3-.1.4-.2.4-.1.3-.2.4-.1.3-.1.7-.3.4-.2h.3l.4-.2.4-.2.3-.1.7-.3.4-.1.4-.1.3-.2h.4l.3-.2.4-.1.4-.2h.3l.4-.2.4-.1.3-.2.8-.2.3-.1.4-.1.4-.1.3-.2h.4l.4-.2h.3l.8-.3.4-.1.3-.1.4-.1.4-.1.3-.1.4-.1.4-.1.7-.2.4-.1.4-.1.4-.1.4-.1.3-.1.8-.2h.4l.3-.2h.4l.4-.1.4-.1.4-.1h.3l.4-.2h.4l.4-.1.8-.2.7-.1.4-.1h.4l.4-.2h.8l.3-.2h.8l.4-.2h.8l.4-.1h.4l.7-.2h.4l.4-.1h.4l.4-.1h.4l.4-.1h.4l.4-.1h.4l.4-.1h.7l.4-.1h.4l.4-.1h.8l.8-.2h1.6l.4-.1h1.6l.4-.1h1.6l.4-.1H254.5l.9.1 1 .2.8.3.9.4.8.5.7.5.7.6.7.7.6.8.5.7.4.9.4.8.2 1 .2.9.1.9v1.9l-.3.9-.2.9-.4.9-.4.8-.5.8-.6.7-.6.7-.7.6-.8.6-.8.4-.9.4-.9.3-.9.3-.9.1H250.5l-.4.1H248.1l-.3.1h-1.4l-.3.1h-1l-.4.1h-.6l-.4.1h-.6l-.7.1h-.3l-.7.1h-.3l-.4.1h-.3l-.3.1h-.7l-.3.1h-.3l-.7.2h-.7l-.3.1-.6.1h-.4l-.3.1h-.3l-.3.1-.4.1h-.3l-.3.1-.7.1-.3.1h-.3l-.3.1-.4.1-.6.1-.3.1-.7.1-.3.1h-.3l-.3.2h-.3l-.4.1h-.3l-.3.2h-.3l-.3.1h-.3l-.4.2h-.3l-.3.1-.6.2h-.3l-.7.3-.6.1-.3.1-.6.2-.3.1-.4.1-.3.1-.3.1h-.3l-.6.3-.6.2h-.3l-.3.2-.3.1-.3.1-.3.1-.4.1-.3.1-.3.1-.6.2-.6.3h-.3l-.3.2-.3.1-.3.1-.3.1-.3.2h-.3l-.3.2-.6.2-.3.2h-.3l-.3.2-.3.1-.3.1-.3.2-.6.2-.3.2h-.2l-.3.2-.3.1-.3.2-.6.2-.6.3-.3.2h-.3l-.6.4-.5.2-.3.2-.3.1-.3.2-.3.1-.3.2-.2.1-.3.1-.3.2-.6.3-.3.1-.2.2-.6.3-.3.1-.3.2-.2.2-.3.1-.3.2-.3.1-.3.2-.2.1-.6.4-.3.1-.2.2-.6.3-.3.2-.2.1-.3.2-.3.2-.2.1-.3.2-.3.2-.3.1-.2.2-.3.2-.3.2-.2.1-.3.2-.5.4-.3.1-.3.2-.2.2-.3.2-.2.1-.3.2-.3.2-.2.2-.3.2-.2.2-.6.3-.2.2-.3.2-.2.2-.3.2-.2.2-.3.1-.3.2-.5.4-.2.2-.5.4-.3.2-.2.2-.3.2-.2.2-.3.2-.2.2-.3.2-.2.2-.3.2-.2.2-.5.4-.2.2-.3.2-.5.4-.2.2-.2.2-.3.2-.2.2-.3.2-.2.2-.2.2-.3.3-.2.2-.3.2-.2.2-.2.2-.3.2-.2.2-.2.3-.3.2-.4.4-.2.2-.3.2-.4.5-.3.2-.2.2-.2.2-.2.3-.5.4-.2.2-.2.3-.3.2-.2.2-.4.5-.2.2-.2.2-.5.5-.2.2-.2.3-.2.2-.5.5-.2.2-.2.2-.2.3-.2.2-.2.2-.2.3-.2.2-.5.5-.4.5-.4.5-.2.2-.2.3-.4.4-.2.3-.2.2-.4.5-.2.3-.2.2-.2.3-.2.2-.2.3-.2.2-.3.5-.2.3-.4.5-.2.2-.2.3-.2.3-.2.2-.2.3-.1.2-.2.3-.4.5-.2.3-.2.2-.1.3-.2.3-.2.2-.2.3-.2.2-.1.3-.2.3-.2.2-.3.6-.2.2-.2.3-.2.3-.1.2-.2.3-.2.3-.1.2-.2.3-.3.6-.2.2-.2.3-.1.3-.2.2-.2.3-.1.3-.2.3-.3.5-.2.3-.1.3-.2.3-.1.2-.2.3-.2.3-.1.3-.2.2-.3.6-.1.3-.2.3-.1.3-.2.2-.1.3-.2.3-.1.3-.3.6-.1.3-.2.2-.1.3-.3.6-.1.3-.2.3-.1.3-.1.3-.3.5-.3.6-.1.3-.1.3-.2.3-.1.3-.1.3-.3.6-.1.3-.1.3-.2.3v.3l-.2.3-.1.3-.3.6v.3l-.2.3-.1.3-.1.3-.1.3-.2.3v.3l-.2.3-.2.6-.2.6-.1.3-.1.3-.1.3-.1.3-.2.3v.3l-.2.3v.3l-.3.7v.3l-.2.3v.3l-.2.3v.3l-.1.3-.1.3-.2.6-.1.4-.1.3v.3l-.3.6v.3l-.1.3-.1.4-.1.3v.3l-.2.3v.3l-.1.3-.1.4v.3l-.1.3-.1.3-.1.3v.4l-.1.3-.1.3-.2.6v.4l-.2.6v.6l-.2.7v.3l-.1.3v.4l-.2.3v.6l-.1.4v.3l-.1.3-.1.7v.3l-.2.7v.6l-.1.3v.4l-.1.3v.3l-.1.4v.6l-.1.4v.6l-.1.4v.6l-.1.4v.6l-.1.4v1l-.1.3v1l-.1.3v1.1l-.1.6V253.6l-.1.4v5.1l.1.7V261.5l.1.3v1l.1.3v1l.1.4v.7l.1.3v.6l.1.4v.6l.1.4v.3l.1.3v.7l.1.3v.4l.1.3.1.6.1.7v.3l.2.7v.6l.1.4v.3l.1.3.1.3v.4l.1.3v.3l.2.7v.3l.1.3.2.6v.4l.2.6v.3l.1.4.1.3v.3l.2.3v.3l.1.3v.4l.2.3v.3l.1.3.1.3v.3l.3.7v.3l.2.6.1.3v.3l.2.4.2.6v.3l.2.3v.3l.1.3.1.3.1.3.1.4.1.3.2.6.1.3.1.3.2.3v.3l.2.3v.3l.2.3.2.6.2.6.1.3.1.3.2.3v.3l.2.3.1.3.1.3.1.3.3.6.1.3.1.3.1.3.2.3v.3l.2.3.3.6.1.3.1.3.2.3v.3l.2.3.3.6.3.5.1.3.1.3.2.3.1.3.3.6.1.3.2.3.1.2.2.3.1.3.1.3.2.3.1.3.3.5.2.3.1.3.2.3.1.3.2.2.1.3.2.3.2.3.1.3.2.2.3.6.1.3.2.2.2.3.1.3.2.3.2.2.1.3.2.3.2.3.3.5.2.3.1.2.2.3.2.3.1.2.2.3.2.3.2.2.3.6.2.2.2.3.1.3.2.2.2.3.2.3.2.2.1.3.2.2.2.3.4.5.2.3.1.2.2.3.2.2.2.3.2.3.2.2.4.5.2.3.1.2.2.3.2.2.2.3.2.2.2.3.2.2.2.3.2.2.2.3.2.2.2.3.4.4.2.3.2.2.2.3.2.2.4.5.5.5.2.2.2.3.2.2.2.2.2.3.2.2.2.2.5.5.2.2.4.5.2.2.3.3.2.2.2.2.4.5.3.2.2.2.2.3.2.2.5.4.2.3.2.2.2.2.3.2.4.5.3.2.2.2.2.2.2.2.5.5.2.2.5.4.2.2.3.2.2.2.3.3.2.2.2.2.3.2.2.2.3.2.4.4.3.2.2.2.3.2.2.2.5.4.2.2.3.2.2.2.3.2.2.2.3.2.2.2.3.2.2.2.3.2.2.2.3.2.2.2.5.4.3.2.3.2.2.1.3.2.2.2.3.2.2.2.6.4.2.1.3.2.5.4.3.2.2.1.3.2.2.2.3.2.3.1.2.2.3.2.3.2.2.1.3.2.3.2.2.2.3.1.3.2.3.2.5.3.3.2.2.1.3.2.3.2.5.3.3.1.6.4.2.1.3.2.3.1.3.2.5.3.3.2.3.1.3.2.3.1.2.2.3.1.6.3.3.2.3.1.2.1.3.2.3.1.3.2.3.1.3.2.3.1.3.1.2.2.3.1.3.2h.3l.6.4.6.2.3.2h.3l.3.2.2.2.6.2.3.1.3.2h.3l.6.3.3.2h.3l.6.3.3.1.3.1.3.2h.3l.3.2.3.1.3.1.3.1.6.3.6.2h.3l.3.2.4.1.3.1.3.1.3.1.3.1.3.1.6.2.6.2.3.1.3.1.3.1h.4l.3.2.6.2h.3l.6.2.7.2.3.1h.3l.3.2h.3l.3.1.4.1h.3l.3.2h.3l.3.1.3.1h.4l.3.2h.3l.3.1h.3l.7.2h.3l.6.2h.4l.3.1.3.1h.3l.4.1h.3l.6.2h.4l.3.1h.3l.3.1h.4l.6.2h.3l.7.1.7.1h.3l.3.1h.4l.3.1h.3l.7.1h.3l.7.1.6.1h.7l.3.1h.7l.3.1h1l.4.1h1.3l.4.1h2l.3.1H253.6l.9.1 1 .1.8.3 1 .3.8.4.8.4.8.6.7.6.6.7.6.7.5.8.4.8.4 1 .2.8.2 1 .1.9v1.9l-.3.9-.2.9-.4.8-.4.9-.5.8-.6.7-.7.7-.7.6-.7.5-.8.5-.9.4-.9.3-.9.2-1 .1z"/><path d="M254.6 341H250.2l-.2-.1H248.9l-.6-.1h-1.1l-.2-.1h-.8l-.3-.1h-.5l-.6-.1h-.5l-.3-.1h-.5l-.3-.1h-.3l-.2-.1h-.6l-.5-.2h-.5l-.6-.1-.5-.1-.5-.1-.5-.1-.6-.1-.5-.1-.5-.1-.5-.1-.6-.1-.5-.1-.5-.2h-.5l-.5-.2-.5-.1-.6-.2-.5-.1-.5-.1-.5-.2-.5-.1-.5-.2-.5-.1-.5-.2-.5-.1-.5-.2-.5-.1-.5-.2-.5-.2-.5-.1-.5-.2-.5-.2-.5-.2-.5-.2-.5-.1-.5-.2-.5-.2-.5-.2-.4-.2-.5-.2-.5-.2-.5-.2-.5-.2-.4-.2-.5-.2-.5-.3-.5-.2-.4-.2-.5-.2-.5-.3-.4-.2-.5-.2-.5-.2-.4-.3-.5-.2-.4-.3-.5-.2-.4-.3-.5-.2-.5-.3-.4-.2-.4-.3-.5-.2-.4-.3-.5-.3-.4-.2-.5-.3-.4-.3-.4-.3-.5-.3-.4-.2-.4-.3-.5-.3-.4-.3-.4-.3-.4-.3-.4-.3-.5-.3-.4-.3-.4-.3-.4-.3-.4-.3-.4-.3-.4-.3-.4-.3-.4-.4-.4-.3-.4-.3-.4-.3-.4-.4-.4-.3-.4-.3-.4-.4-.4-.3-.4-.3-.4-.4-.3-.3-.4-.4-.4-.3-.4-.4-.4-.3-.3-.4-.4-.3-.4-.4-.3-.4-.4-.3-.3-.4-.4-.4-.4-.3-.3-.4-.4-.4-.3-.4-.4-.3-.3-.4-.3-.4-.4-.4-.3-.4-.4-.4-.3-.3-.3-.4-.3-.4-.4-.4-.3-.4-.3-.4-.3-.4-.4-.4-.3-.5-.3-.4-.3-.4-.3-.4-.3-.4-.3-.4-.3-.4-.3-.5-.3-.4-.3-.4-.3-.4-.3-.5-.2-.4-.3-.4-.3-.4-.3-.5-.3-.4-.2-.5-.3-.4-.3-.4-.2-.5-.3-.4-.3-.5-.2-.4-.3-.5-.2-.4-.3-.5-.2-.4-.3-.5-.2-.5-.2-.4-.3-.5-.2-.4-.2-.5-.3-.5-.2-.5-.2-.4-.2-.5-.2-.5-.3-.4-.2-.5-.2-.5-.2-.5-.2-.5-.2-.4-.2-.5-.2-.5-.2-.5-.1-.5-.2-.5-.2-.5-.2-.5-.2-.5-.1-.5-.2-.5-.2-.5-.1-.5-.2-.5-.2-.5-.1-.5-.2-.5-.1-.5-.2-.5-.1-.5-.1-.5-.2-.5-.1-.5-.1-.5-.2-.6v-.5l-.2-.5-.1-.5-.1-.5-.2-.5v-.6l-.2-.5v-.5l-.2-.5v-.6l-.2-.5v-.5l-.1-.6-.1-.5-.1-.5v-.6l-.1-.2v-.6l-.1-.2v-.6l-.1-.2v-.6l-.1-.2v-.8l-.1-.3v-.6l-.1-.5v-.8l-.1-.3v-1.3l-.1-.6V257l-.1-.5V251.3l.1-.6v-.8l.1-.6v-1l.1-.6v-.5l.1-.3v-.8l.1-.3v-.5l.1-.3v-.5l.1-.3v-.5l.1-.3.1-.5v-.6l.2-.5v-.5l.1-.5.1-.6.1-.5.1-.5.1-.5.1-.6.1-.5.2-.5v-.5l.2-.6.1-.5.1-.5.2-.5v-.5l.2-.5.2-.5.1-.6.1-.5.2-.5.1-.5.2-.5.1-.5.2-.5.2-.5.1-.5.2-.5.2-.5.1-.5.2-.5.2-.5.2-.5.2-.5.1-.4.2-.5.2-.5.2-.5.2-.5.2-.5.2-.4.2-.5.2-.5.3-.5.2-.4.2-.5.2-.5.2-.5.3-.4.2-.5.2-.5.3-.4.2-.5.2-.4.3-.5.2-.5.3-.4.2-.5.3-.4.2-.5.3-.4.3-.5.2-.4.3-.4.3-.5.2-.4.3-.5.3-.4.3-.4.3-.5.2-.4.3-.4.3-.4.3-.5.3-.4.3-.4.3-.4.3-.4.3-.5.3-.4.3-.4.3-.4.3-.4.4-.4.3-.4.3-.4.3-.4.4-.4.3-.4.3-.4.3-.4.4-.4.3-.4.4-.3.3-.4.3-.4.4-.4.3-.4.4-.3.3-.4.4-.4.4-.4.3-.3.4-.4.3-.3.4-.4.4-.4.3-.3.4-.4.4-.3.4-.4.4-.3.3-.4.4-.3.4-.3.4-.4.4-.3.4-.3.4-.4.4-.3.4-.3.4-.4.4-.3.4-.3.4-.3.4-.3.4-.3.4-.3.4-.4.4-.3.4-.3.5-.3.4-.3.4-.3.4-.2.4-.3.5-.3.4-.3.4-.3.5-.3.4-.2.4-.3.5-.3.4-.3.5-.2.4-.3.5-.3.4-.2.4-.3.5-.2.5-.3.4-.2.5-.3.4-.2.5-.3.4-.2.5-.2.5-.3.4-.2.5-.2.5-.2.4-.3.5-.2.5-.2.5-.2.4-.2.5-.2.5-.2.5-.2.5-.2.4-.2.5-.2.5-.2.5-.2.5-.2.5-.2.5-.1.5-.2.5-.2.5-.2.5-.1.5-.2.5-.2.5-.1.5-.2.5-.1.5-.2.5-.1.5-.2.5-.1.5-.1.5-.2.6-.1.5-.1.5-.2h.5l.5-.2.5-.1.6-.1.5-.1.5-.1.5-.1.6-.1.5-.1.5-.1.5-.1.6-.1h.5l.5-.2h.8l.3-.1h.3l.5-.1h.5l.3-.1h.6l.2-.1h.6l.5-.1h.8l.3-.1h1.3l.3-.1h1.7l.2-.1h4.8l.8.2.7.2.7.2.7.3.7.4.6.4.6.5.6.5.5.5.5.6.4.6.4.7.3.6.3.7.2.8.2.7.1.7.1.8v1.5l-.2.8-.1.7-.3.7-.3.7-.3.7-.4.6-.4.7-.5.5-.5.6-.6.5-.6.5-.6.4-.7.3-.7.3-.7.3-.7.2-.7.1-.8.1h-2.9l-.2.1H250.4l-.2.1H249l-.4.1H248.1l-.2.1h-.8l-.2.1h-.7l-.2.1h-.4l-.2.1h-.4l-.4.1h-.4l-.4.2h-.8l-.4.2h-.4l-.5.1-.4.1h-.4l-.4.2h-.4l-.4.1-.4.1-.4.1-.3.1-.4.1-.4.1-.4.1-.4.2h-.4l-.4.2h-.4l-.4.2-.4.1-.4.1-.3.2h-.4l-.4.2-.4.2h-.4l-.3.2-.4.2-.4.1-.4.1-.4.2-.3.1-.4.2-.4.1-.3.2-.4.1-.4.2-.4.2-.3.1-.4.2-.3.1-.4.2-.4.2-.3.2-.4.1-.4.2-.3.2-.4.2-.3.1-.4.2-.3.2-.4.2-.3.2-.4.2-.3.2-.4.2-.3.2-.4.2-.3.2-.3.2-.4.2-.3.2-.3.2-.4.2-.3.3-.3.2-.4.2-.3.2-.3.2-.4.3-.3.2-.3.2-.3.2-.4.3-.3.2-.3.3-.3.2-.3.2-.3.3-.4.2-.3.3-.3.2-.3.3-.3.2-.3.3-.3.2-.3.3-.3.2-.3.3-.3.3-.3.2-.3.3-.3.2-.3.3-.3.3-.2.3-.3.2-.3.3-.3.3-.3.3-.3.2-.2.3-.3.3-.3.3-.3.3-.2.3-.3.3-.3.3-.2.3-.3.2-.2.3-.3.3-.3.3-.2.3-.3.3-.2.4-.3.3-.2.3-.3.3-.2.3-.3.3-.2.3-.3.3-.2.3-.2.4-.3.3-.2.3-.2.3-.3.3-.2.4-.2.3-.2.3-.2.4-.3.3-.2.3-.2.4-.2.3-.2.3-.2.4-.2.3-.2.3-.3.4-.2.3-.2.4-.2.3-.1.4-.2.3-.2.4-.2.3-.2.4-.2.3-.2.4-.2.3-.1.4-.2.3-.2.4-.2.4-.1.3-.2.4-.2.4-.1.3-.2.4-.1.4-.2.3-.2.4-.1.4-.2.3-.1.4-.2.4-.1.4-.1.3-.2.4-.1.4-.2.4v.4l-.2.3-.1.4-.2.4-.1.4-.1.4-.1.4-.2.3v.4l-.2.4v.4l-.2.4-.1.4-.1.4-.1.4-.1.4-.1.4v.4l-.2.4v.4l-.2.4v.4l-.1.4-.1.4v.4l-.2.4v.8l-.2.4v.8l-.1.2v.5l-.1.2V247.2l-.1.2V248l-.1.2v.8l-.1.3v1l-.1.2v1.5l-.1.4V260l.1.3v1l.1.2v.8l.1.2v.7l.1.2v.4l.1.4V264.8l.1.2v.4l.1.4.1.4v.5l.2.4v.4l.1.4v.4l.2.4v.4l.1.4.1.4.1.4.1.4.1.4v.4l.2.4.1.4.1.3.1.4.1.4.1.4.1.4.2.4v.4l.2.4.1.4.2.3v.4l.2.4.1.4.2.4.1.3.2.4.1.4.1.4.2.3.1.4.2.4.1.4.2.3.2.4.1.4.2.3.1.4.2.4.2.3.1.4.2.4.2.3.2.4.1.3.2.4.2.3.2.4.2.3.2.4.2.3.2.4.2.3.1.4.2.3.2.4.3.3.2.4.2.3.2.3.2.4.2.3.2.3.2.4.3.3.2.3.2.4.2.3.2.3.3.3.2.4.2.3.3.3.2.3.2.3.3.3.2.4.3.3.2.3.3.3.2.3.3.3.2.3.3.3.2.3.3.3.3.3.2.3.3.3.2.3.3.3.3.3.2.3.3.3.3.2.3.3.2.3.3.3.3.3.3.2.3.3.3.3.2.3.3.2.3.3.3.3.3.2.3.3.3.3.3.2.3.3.3.2.3.3.3.2.3.3.3.3.3.2.3.2.4.3.3.2.3.3.3.2.3.2.3.3.4.2.3.2.3.3.3.2.4.2.3.2.3.3.4.2.3.2.3.2.4.2.3.2.3.3.4.2.3.2.3.2.4.2.3.2.4.2.3.2.4.2.3.1.4.2.3.2.4.2.3.2.4.2.3.2.4.1.4.2.3.2.4.1.4.2.3.2.4.1.3.2.4.2.4.1.4.2.3.1.4.2.4.1.3.2.4.1.4.2.4.1.4.1.3.2.4.1.4.1.4.2h.4l.3.2.4.1.4.2h.4l.4.2.4.1.4.1.4.1.4.1.4.1.4.1.3.1.4.1.4.1.4.1h.4l.4.2h.4l.4.1.5.1h.4l.4.2h.4l.4.1h.4l.4.1.4.1H245.6l.2.1H246.4l.2.1h.7l.2.1H248l.2.1h1l.3.1h1.2l.2.1h2.6l.4.1h1.4l.8.1.7.2.7.2.7.2.7.3.7.4.6.4.6.5.6.5.5.5.5.6.4.6.4.7.3.6.3.7.3.8.1.7.1.7.1.8v1.5l-.2.8-.2.7-.2.7-.3.7-.3.7-.4.6-.4.7-.5.5-.5.6-.6.5-.6.4-.6.4-.7.4-.7.3-.7.3-.7.2-.8.1-.7.1z"/></g><defs><linearGradient id="tag1" x2="1" gradientTransform="rotate(45 -71.5 113.6) scale(532.37)" gradientUnits="userSpaceOnUse"><stop offset="0%" stop-color="#f8be6b"/><stop offset="46%" stop-color="#df5959"/><stop offset="100%" stop-color="#4280c3"/></linearGradient></defs></svg>