<svg xmlns="http://www.w3.org/2000/svg" width="2500" height="2500" preserveAspectRatio="xMidYMid" viewBox="0 0 256 256"><path fill="#FA2A00" d="M255.3 255.3H0V0h255.3v255.3z"/><path fill="#FFF" d="M161 136c-3.8 21-22 38.3-49.8 38.3a51.2 51.2 0 0 1-53.4-52.4c0-27.3 19-52.4 53-52.4 29.3 0 47.4 18.4 50 41.3h-24c-2.1-11.7-11-20.5-25.6-20.5-19 0-29.9 15-29.9 31.6 0 17.5 12 31.6 30.2 31.6 13.3 0 22.2-7.7 25-17.5H161zm28-64.2l-14.8 6.3 18.5 43.1-18.5 43.1 14.7 6.3 12.4-29.1v.1l8.6-20.4-21-49.4z"/></svg>