<svg width="64" height="61" xmlns="http://www.w3.org/2000/svg"><defs><linearGradient x1="99.14%" y1="112.708%" x2="33.859%" y2="37.755%" id="a"><stop stop-color="#0052CC" offset="18%"/><stop stop-color="#2684FF" offset="100%"/></linearGradient><linearGradient x1=".926%" y1="-12.582%" x2="66.18%" y2="62.306%" id="b"><stop stop-color="#0052CC" offset="18%"/><stop stop-color="#2684FF" offset="100%"/></linearGradient></defs><g fill-rule="nonzero" fill="none"><path d="M3.23 46.53c-.65 1.06-1.38 2.29-2 3.27a2 2 0 0 0 .67 2.72l13 8a2 2 0 0 0 2.77-.68c.52-.87 1.19-2 1.92-3.21 5.15-8.5 10.33-7.46 19.67-3l12.89 6.13a2 2 0 0 0 2.69-1l6.19-14a2 2 0 0 0-1-2.62c-2.72-1.28-8.13-3.83-13-6.18C29.51 27.45 14.62 28 3.23 46.53z" fill="url(#a)"/><path d="M61.52 14.76c.65-1.06 1.38-2.29 2-3.27a2 2 0 0 0-.67-2.72l-13-8a2 2 0 0 0-2.85.66c-.52.87-1.19 2-1.92 3.21-5.15 8.5-10.33 7.46-19.67 3l-12.85-6.1a2 2 0 0 0-2.69 1l-6.19 14a2 2 0 0 0 1 2.62c2.72 1.28 8.13 3.83 13 6.18 17.56 8.5 32.45 7.93 43.84-10.58z" fill="url(#b)"/></g></svg>