<svg version="1.1" id="Слой_1" text-rendering="geometricPrecision" shape-rendering="geometricPrecision" image-rendering="optimizeQuality" xmlns="http://www.w3.org/2000/svg" x="0" y="0" width="1361.8" height="1536" viewBox="0 0 1361.8 1536" xml:space="preserve"><style>.st2{fill:#e9e9e8}.st3{fill:#fffffe}</style><g id="_337846024"><path d="M1239.4 1371.1L1360.2 17.8l1.6-17.8H0l1.6 17.8 120.7 1353.6 1 11.3 10.9 3L675.7 1536h8.7l543.1-150.6 10.9-3 1-11.3z" fill="#1572b6"/><path d="M1256.8 96H680.9v1341.4l467.8-129.7L1256.8 96z" fill="#35a8db"/><path class="st2" d="M680.2 456.4L274 625.5 287.5 793l392.7-167.9L1098 446.5l17.3-171.3-435.1 181.2z"/><path class="st2" d="M680.2 275.2h435.1l-3.4 33.9-3.4 33.9-3.4 33.9-3.4 33.9-3.4 33.9-.2 1.8H258.6l-.6-4.8-3.4-27.8-3.4-27.7-3.4-27.8-3.4-27.7L241 303l-3.4-27.7H680.2zM274.7 625.6h808.6L1068.5 795l-780.4-2-13.4-167.4z"/><path class="st2" d="M299.9 887.4l176.9.1 11.5 138.5 191.9 47.6 197-55.3 13.3-226.5L1069 789l-32 367.9-356.2 104L322.2 1155l-22.3-267.6z"/><path class="st3" d="M680.9 624.8L1098 446.5l17.3-171.3-434.4 180.9v168.7z"/><path class="st3" d="M680.9 275.2h434.4l-3.4 33.9-3.4 33.9-3.4 33.9-3.4 33.9-3.4 33.9-.2 1.8H680.9V275.2zm0 350.4h402.4L1068.5 795l-387.6-1V625.6z"/><path class="st3" d="M680.9 1073.4l196.4-55.1 13.3-226.5L1069 789l-32 367.9-356.2 104v-187.5z"/></g></svg>