<svg width="100" height="100" xmlns="http://www.w3.org/2000/svg"><g fill-rule="nonzero" fill="none"><path fill="#FFF" d="M0 8h100v85H0z"/><path d="M8 0h84a8 8 0 0 1 8 8v84a8 8 0 0 1-8 8H8a8 8 0 0 1-8-8V8a8 8 0 0 1 8-8zm75.486 59.735h-9.983L60.756 39.724a6.51 6.51 0 0 0 4.868-6.296V19.514A6.514 6.514 0 0 0 59.111 13H40.523a6.514 6.514 0 0 0-6.514 6.514v13.914a6.516 6.516 0 0 0 5.187 6.378L27.46 59.736H16.514A6.514 6.514 0 0 0 10 66.248v13.914a6.514 6.514 0 0 0 6.514 6.514H35.1a6.514 6.514 0 0 0 6.514-6.514V66.25a6.514 6.514 0 0 0-6.514-6.514h-1.26l11.656-19.793h8.88l12.607 19.793h-2.085a6.514 6.514 0 0 0-6.514 6.514v13.914a6.514 6.514 0 0 0 6.514 6.514h18.587A6.514 6.514 0 0 0 90 80.163V66.25a6.514 6.514 0 0 0-6.514-6.514z" fill="#F08705"/></g></svg>