<svg xmlns="http://www.w3.org/2000/svg" width="256" height="256" preserveAspectRatio="xMidYMid" viewBox="0 0 256 256"><path fill="#fff" d="M58.7 196.3l-2.3 1.6c-5.4 3-5.4 10.7 0 14.6l59.3 39.3a23.2 23.2 0 0 0 26.2 0l58.5-38.5c5.4-3.1 5.4-10.8 0-14.7l-3.1-1.5-20 13.9-40 27a15 15 0 0 1-17.8 0l-40-27-20.8-14.7zm-28.5-63.1l-3 2.3c-7 4.6-7 15.4 0 20l83 56.2a32.4 32.4 0 0 0 37 0l82.4-54.6c7-4.7 7-15.4 0-20l-3.8-2.4-28.5 18.5L141 191a23.4 23.4 0 0 1-25.4 0l-85.5-57.7zm219.4-58.5l-100-67.8a39.4 39.4 0 0 0-44.7 0L6.4 73.1a15.1 15.1 0 0 0 0 24.7l100 67c13.1 9.2 30.8 9.2 44 0l99.2-66.2a14.4 14.4 0 0 0 0-24zm-38.4 20l-67.8 45.4a26.7 26.7 0 0 1-30 0L44.8 94c-6.1-3.8-6.1-12.3 0-17l67.8-45.3a26.7 26.7 0 0 1 30 0l68.6 46.2c6.1 4.6 6.1 13 0 16.9z"/></svg>
