<svg xmlns="http://www.w3.org/2000/svg" viewBox="0 0 300 300.002" height="300.002" width="300"><defs><clipPath clipPathUnits="userSpaceOnUse" id="a"><path d="M0 500h1024V0H0v500z"/></clipPath></defs><g clip-path="url(#a)" transform="matrix(1.11655 0 0 -1.11655 -136.954 433.606)"><path d="M375.716 120.553c8.134 0 14.73 6.596 14.73 14.73v237.434c0 8.137-6.596 14.73-14.73 14.73H138.283c-8.137 0-14.73-6.593-14.73-14.73V135.283c0-8.134 6.593-14.73 14.73-14.73h237.433z" fill="#3b5998"/><path d="M307.705 120.553v103.355h34.693l5.194 40.28h-39.887v25.717c0 11.662 3.238 19.609 19.962 19.609l21.33.01v36.026c-3.69.49-16.351 1.587-31.081 1.587-30.753 0-51.806-18.771-51.806-53.244v-29.705h-34.781v-40.28h34.78V120.553h41.596z" fill="#fff"/></g></svg>