<svg xmlns="http://www.w3.org/2000/svg" width="256" height="248" preserveAspectRatio="xMidYMid" viewBox="0 0 256 248"><path fill="#0A7BFF" d="M216.43 65.97c-10.7 0-20.4 4.25-27.52 11.15l-45.17-32.34a15.83 15.83 0 1 0-7.05 9.77l55.29 40.23c4.3-8.99 13.81-15.99 24.45-15.99a26.75 26.75 0 0 1 8.49 52.12l3.63 12.3a39.59 39.59 0 0 0-12.12-77.24"/><path fill="#EB3D00" d="M89.56 27.53a39.33 39.33 0 0 0 2.3 29.53L47.48 90.23a15.79 15.79 0 1 0 7.15 9.65l54.94-40.4c-7.24-6.82-11.03-17.97-7.82-28.08a26.68 26.68 0 0 1 52.11 7.67l12.8.27a39.49 39.49 0 0 0-77.1-11.81"/><path fill="#00BCD4" d="M16.26 134.49a39.44 39.44 0 0 0 28.65 7.26l17.5 52.32c-.9.78-1.75 1.66-2.5 2.67a15.7 15.7 0 0 0 3.53 21.92 15.7 15.7 0 0 0 21.95-3.33 15.7 15.7 0 0 0-3.52-21.93 15.76 15.76 0 0 0-8.1-2.98l-21.05-64.57c-8.7 4.64-20.43 4.65-28.99-1.6C11.85 115.58 9.18 99 17.78 87.21a26.45 26.45 0 0 1 29.47-9.53l4.25-11.95A39.14 39.14 0 0 0 7.47 79.68c-12.73 17.44-8.8 41.98 8.8 54.8"/><path fill="#86C351" d="M218.85 195.98a38.97 38.97 0 0 0-18.96-22.54l16.9-52.49a15.73 15.73 0 0 0 13.8-20.48 15.73 15.73 0 0 0-19.83-10.07 15.73 15.73 0 0 0-10.18 19.77c.93 2.88 2.64 5.3 4.8 7.12l-21.3 64.46c9.84 1.3 19.37 8.13 22.61 18.16a26.57 26.57 0 0 1-17.2 33.4 26.64 26.64 0 0 1-29.61-9.44l-10.56 7.2a39.41 39.41 0 0 0 44.08 14.34c20.71-6.7 32.1-28.82 25.45-49.43"/><path fill="#9032E9" d="M96.27 238.32a39.2 39.2 0 0 0 15.54-25.1l55.2-.57a15.73 15.73 0 1 0-.07-11.97l-67.96.17c1.82 9.74-1.7 20.94-10.23 27.18a26.59 26.59 0 0 1-37.4-36.82l-10.14-7.75a39.35 39.35 0 0 0 55.06 54.86"/></svg>