<svg xmlns="http://www.w3.org/2000/svg" width="2500" height="2305" preserveAspectRatio="xMinYMin meet" viewBox="0 0 256 236"><path fill="#E24329" d="M128 236l47.2-144.9H81l47 145z"/><path fill="#FC6D26" d="M128 236L81 91.2H15l113 145z"/><path fill="#FCA326" d="M15 91.1l-14.4 44a9.8 9.8 0 0 0 3.6 11L128 236 15 91z"/><path fill="#E24329" d="M15 91.1h66L52.6 3.8a4.9 4.9 0 0 0-9.3 0L15 91z"/><path fill="#FC6D26" d="M128 236l47.2-144.9h66L128 236.1z"/><path fill="#FCA326" d="M241.2 91.1l14.3 44a9.8 9.8 0 0 1-3.5 11l-124 90L241.3 91z"/><path fill="#E24329" d="M241.2 91.1h-66l28.3-87.3a4.9 4.9 0 0 1 9.3 0L241.2 91z"/></svg>