<svg xmlns="http://www.w3.org/2000/svg" xmlns:xlink="http://www.w3.org/1999/xlink" viewBox="0 0 152.1 152" width="2500" height="2498"><linearGradient id="a" gradientUnits="userSpaceOnUse" y1="77.32" x2="152.1" y2="77.32" gradientTransform="matrix(1 0 0 -1 0 153.32)"><stop offset="0" stop-color="#fff" stop-opacity=".1"/><stop offset="1" stop-color="#fff" stop-opacity="0"/></linearGradient><path d="M139.8 0h-27.7c-6.7 0-12.2 5.5-12.2 12.2V48H59.8C53.3 48 48 53.3 48 59.9V100H11.9C5.3 100 0 105.3 0 111.9v28c0 6.6 5.3 11.9 11.9 12.1h128c6.7 0 12.2-5.5 12.2-12.2V12.2C152 5.5 146.5 0 139.8 0z" fill="url(#a)"/><linearGradient id="b" gradientUnits="userSpaceOnUse" y1="77.32" x2="152.1" y2="77.32" gradientTransform="matrix(1 0 0 -1 0 153.32)"><stop offset="0" stop-color="#fff" stop-opacity=".1"/><stop offset="1" stop-color="#fff" stop-opacity="0"/></linearGradient><path d="M139.8 0h-27.7c-6.7 0-12.2 5.5-12.2 12.2V48H59.8C53.3 48 48 53.3 48 59.9V100H11.9C5.3 100 0 105.3 0 111.9v28c0 6.6 5.3 11.9 11.9 12.1h128c6.7 0 12.2-5.5 12.2-12.2V12.2C152 5.5 146.5 0 139.8 0z" fill="url(#b)"/><defs><path id="c" d="M139.8 0h-27.5c-6.7 0-12.2 5.5-12.2 12.2V48h-40c-6.6 0-12 5.4-12 12v40H12c-6.6 0-12 5.4-12 12v28c0 6.6 5.4 12 12 12h127.8c6.7 0 12.2-5.5 12.2-12.2V12.2C152 5.5 146.5 0 139.8 0z"/></defs><clipPath id="d"><use xlink:href="#c" overflow="visible"/></clipPath><g clip-path="url(#d)"><path d="M139.8 0h-27.5c-6.7 0-12.2 5.5-12.2 12.2V152h39.7c6.7 0 12.2-5.5 12.2-12.2V12.2C152 5.5 146.5 0 139.8 0z" fill="#f57c00"/><image width="125" height="129" xlink:href="D219C75C03CDCBF6.png" transform="translate(-9 39)" overflow="visible" opacity=".2"/><path d="M48 60v40H12c-6.6 0-12 5.4-12 12v28c0 6.6 5.4 12 12 12h88V48H60c-6.6 0-12 5.4-12 12z" fill="#ffc107"/></g><defs><path id="e" d="M139.8 0h-27.5c-6.7 0-12.2 5.5-12.2 12.2V48h-40c-6.6 0-12 5.4-12 12v40H12c-6.6 0-12 5.4-12 12v28c0 6.6 5.4 12 12 12h127.8c6.7 0 12.2-5.5 12.2-12.2V12.2C152 5.5 146.5 0 139.8 0z"/></defs><clipPath id="f"><use xlink:href="#e" overflow="visible"/></clipPath><linearGradient id="g" gradientUnits="userSpaceOnUse" x1="74.25" y1="79.07" x2="148.36" y2="4.96" gradientTransform="matrix(1 0 0 -1 0 153.32)"><stop offset="0" stop-color="#bf360c" stop-opacity=".2"/><stop offset="1" stop-color="#bf360c" stop-opacity=".02"/></linearGradient><path d="M100 48v104h39.7c6.7 0 12.2-5.5 12.2-12.2V100L100 48z" clip-path="url(#f)" fill="url(#g)"/><defs><path id="h" d="M139.8 0h-27.5c-6.7 0-12.2 5.5-12.2 12.2V48h-40c-6.6 0-12 5.4-12 12v40H12c-6.6 0-12 5.4-12 12v28c0 6.6 5.4 12 12 12h127.8c6.7 0 12.2-5.5 12.2-12.2V12.2C152 5.5 146.5 0 139.8 0z"/></defs><clipPath id="i"><use xlink:href="#h" overflow="visible"/></clipPath><path d="M60 49h40v-1H60c-6.6 0-12 5.4-12 12v1c0-6.6 5.4-12 12-12z" opacity=".2" clip-path="url(#i)" fill="#fff"/><defs><path id="j" d="M139.8 0h-27.5c-6.7 0-12.2 5.5-12.2 12.2V48h-40c-6.6 0-12 5.4-12 12v40H12c-6.6 0-12 5.4-12 12v28c0 6.6 5.4 12 12 12h127.8c6.7 0 12.2-5.5 12.2-12.2V12.2C152 5.5 146.5 0 139.8 0z"/></defs><clipPath id="k"><use xlink:href="#j" overflow="visible"/></clipPath><path d="M12 101h36v-1H12c-6.6 0-12 5.4-12 12v1c0-6.6 5.4-12 12-12z" clip-path="url(#k)" opacity=".2" fill="#fff"/><g><defs><path id="l" d="M139.8 0h-27.5c-6.7 0-12.2 5.5-12.2 12.2V48h-40c-6.6 0-12 5.4-12 12v40H12c-6.6 0-12 5.4-12 12v28c0 6.6 5.4 12 12 12h127.8c6.7 0 12.2-5.5 12.2-12.2V12.2C152 5.5 146.5 0 139.8 0z"/></defs><clipPath id="m"><use xlink:href="#l" overflow="visible"/></clipPath><path d="M139.8 0h-27.5c-6.7 0-12.2 5.5-12.2 12.2v1c0-6.7 5.5-12.2 12.2-12.2h27.5c6.7 0 12.2 5.5 12.2 12.2v-1C152 5.5 146.5 0 139.8 0z" clip-path="url(#m)" opacity=".2" fill="#fff"/></g><g><defs><path id="n" d="M139.8 0h-27.5c-6.7 0-12.2 5.5-12.2 12.2V48h-40c-6.6 0-12 5.4-12 12v40H12c-6.6 0-12 5.4-12 12v28c0 6.6 5.4 12 12 12h127.8c6.7 0 12.2-5.5 12.2-12.2V12.2C152 5.5 146.5 0 139.8 0z"/></defs><clipPath id="o"><use xlink:href="#n" overflow="visible"/></clipPath><path d="M139.8 151H12c-6.6 0-12-5.4-12-12v1c0 6.6 5.4 12 12 12h127.7c6.7 0 12.2-5.5 12.2-12.2v-1c.1 6.7-5.4 12.2-12.1 12.2z" clip-path="url(#o)" fill="#bf360c" opacity=".2"/></g><linearGradient id="p" gradientUnits="userSpaceOnUse" x1="50.969" y1="102.289" x2="149.295" y2="3.963" gradientTransform="matrix(1 0 0 -1 0 153.32)"><stop offset="0" stop-color="#fff" stop-opacity=".1"/><stop offset="1" stop-color="#fff" stop-opacity="0"/></linearGradient><path d="M139.8 0h-27.5c-6.7 0-12.2 5.5-12.2 12.2V48h-40c-6.6 0-12 5.4-12 12v40H12c-6.6 0-12 5.4-12 12v28c0 6.6 5.4 12 12 12h127.8c6.7 0 12.2-5.5 12.2-12.2V12.2C152 5.5 146.5 0 139.8 0z" fill="url(#p)"/></svg>