<svg xmlns="http://www.w3.org/2000/svg" width="2500" height="1591" viewBox=".3 .5 124.3 79.1"><path d="M4.6 7c0 1.3-.8 2.3-2.2 2.3C1.2 9.3.3 8.3.3 7c0-1.3 1-2.4 2.2-2.4 1.3 0 2.1 1 2.1 2.4zM1.3 78.5V23.8h2.3v54.7H1.3zm76.9-39c0 27.6-15.3 40.1-32.1 40.1-17.1 0-31-13.5-31-39 0-26 14.4-40 32.2-40 17.5 0 30.9 13.7 30.9 39zm-60.8.6c0 20.9 10.1 37.1 28.8 37.1 18.8 0 29.6-16.7 29.6-37.4 0-19.1-8.6-36.6-28.4-36.6s-30 16.5-30 36.9zm69 32.5c3.8 2.5 10.3 4.9 15.8 4.9 10.7 0 20-7.4 20-18.3 0-10.2-6.2-15.5-16.9-20-9.5-4-18-8.5-18-19.3C87.2 8.6 96 .6 108.1.6c6.5 0 11.4 1.9 13.7 3.5l-1 2a26 26 0 0 0-12.8-3.2c-12.8 0-18.3 9.7-18.3 16.8 0 9.8 7.6 13 17.4 17.7 11.4 5.6 17.4 10.5 17.4 21.3 0 11.5-8.2 20.8-22.8 20.8-6 0-13-2-16.4-4.6l1-2.3z"/></svg>