<svg xmlns="http://www.w3.org/2000/svg" width="1850" height="2500" preserveAspectRatio="xMinYMin meet" viewBox="0 0 256 346"><path fill="#5382A1" d="M82.6 267.5s-13.2 7.6 9.3 10.2c27.4 3.2 41.4 2.7 71.6-3 0 0 7.9 5 19 9.3-67.6 29-153-1.7-100-16.5m-8.2-37.8s-14.8 11 7.8 13.3a279 279 0 0 0 92.3-4.5s5.5 5.6 14.2 8.7C106.8 271 15.8 249 74.3 229.7"/><path fill="#E76F00" d="M144 165.5c16.6 19.2-4.4 36.5-4.4 36.5s42.3-21.9 22.8-49.2c-18.1-25.5-32-38.2 43.3-81.9 0 0-118.2 29.5-61.8 94.6"/><path fill="#5382A1" d="M233.4 295.4s9.7 8-10.8 14.3c-39 11.8-162.4 15.4-196.7.5-12.3-5.4 10.8-12.8 18-14.4 7.6-1.6 12-1.3 12-1.3-13.7-9.7-88.6 19-38 27.1 137.8 22.4 251.2-10 215.5-26.2m-144.5-105s-62.8 15-22.2 20.4c17 2.3 51.2 1.8 83-.9 26-2.2 52-6.8 52-6.8s-9.1 3.9-15.7 8.4c-63.8 16.8-187 9-151.5-8.2 30-14.5 54.4-12.8 54.4-12.8m112.6 63c64.8-33.8 34.8-66.1 14-61.7-5.2 1-7.5 2-7.5 2s2-3 5.6-4.3c41.3-14.6 73.1 42.9-13.4 65.6 0 0 1-.9 1.3-1.7"/><path fill="#E76F00" d="M162.4.4s36 35.9-34 91c-56 44.4-12.8 69.6 0 98.4-32.8-29.5-56.8-55.5-40.7-79.7C111.4 74.6 177 57.4 162.4.4"/><path fill="#5382A1" d="M95.3 344.7c62.2 4 157.7-2.2 160-31.7 0 0-4.4 11.2-51.5 20-53 10-118.5 8.9-157.4 2.5 0 0 8 6.5 48.9 9.2"/></svg>