<svg xmlns="http://www.w3.org/2000/svg" width="226" height="312"><path fill="#d33833" fill-rule="evenodd" d="M222.1 150.4c0 61.8-49 111.9-109.3 111.9-60.4 0-109.4-50-109.4-111.9 0-61.8 49-111.9 109.4-111.9 60.4 0 109.3 50.1 109.3 112"/><path fill="#ef3d3a" d="M7.9 178.1s-8-116.6 99.5-120L100 45.6 41.6 65.2 25 84.4l-14.5 27.9L2 144.8l2.5 21.7"/><path fill="#231f20" d="M37.9 74.1a109.4 109.4 0 0 0-31.1 76.7c0 30 11.9 57.1 31 76.8a104.4 104.4 0 0 0 149.8 0c19.3-19.7 31.1-46.8 31.1-76.8s-11.8-57-31-76.7a104.4 104.4 0 0 0-149.8 0zM33 232.3a116.2 116.2 0 0 1-33-81.5C0 119 12.6 90.2 33 69.4a111.2 111.2 0 0 1 159.5 0c20.4 20.8 33 49.6 33 81.4 0 31.8-12.6 60.7-33 81.5a111.2 111.2 0 0 1-159.5 0"/><path fill="#f0d6b7" fill-rule="evenodd" d="M158.8 151l-16.7 2.5-22.5 2.5-14.5.5-14.2-.5-10.8-3.3-9.6-10.4L63 121l-1.7-4.5-10-3.4-5.8-9.6-4.2-13.7 4.6-12L56.7 74l8.8 4.1 4.1 9.2 5-.8 1.7-2.1-1.7-9.6-.4-12L76.7 46v-9.5l7.5-12.1 13.4-9.6 23.3-10 25.8 3.7 22.5 16.3 10.4 16.7 6.7 12 1.7 30-5 25.9-9.2 22.9-8.7 12"/><path fill="#335061" fill-rule="evenodd" d="M144.6 223.1l-59.5 2.5v10l5 35-2.5 3-41.7-14.2-3-5-4-47.1-9.7-28.3-2-6.7 33.3-23 10.4-4 9.2 11.2 7.9 7 9.1 3 4.2 1.2 5 21.7 3.8 4.6 9.5-3.4-6.6 13 36.2 17-4.6 2.5"/><path fill="#6d6b6d" fill-rule="evenodd" d="M45.9 77.7L56.7 74l8.8 4.1 4.1 9.2 5-.8 1.3-5-2.5-9.6 2.5-23-2-12.4 7.4-8.8 16.3-13L93 8.6 70 19.8l-9.5 7.5L55 39l-8.4 11.2-2.5 13.3L46 77.7"/><path fill="#dcd9d8" fill-rule="evenodd" d="M63 38.5s6.2-15.4 31.2-22.9c25-7.5 1.3-5.4 1.3-5.4L68.4 20.6 58 31l-4.6 8.4 9.6-.9M50.5 74.8S41.7 45.6 75 41.5l-1.3-5L51 41.9l-6.7 21.6L46 77.7l4.6-3"/><path fill="#f7e4cd" fill-rule="evenodd" d="M63.8 113.5l5.5-5.2s2.4.2 2.8 3.2c.5 2.9 1.7 29.1 19.6 43.3 1.7 1.3-13.3-2-13.3-2l-13.3-21M140.5 105.6s1-12.6 4.4-11.6c3.4 1 3.4 4.3 3.4 4.3s-8.3 5.4-7.8 7.3"/><path fill="#f7e4cd" d="M175 59.4s-6.8 1.4-7.4 7.5c-.7 6 7.5 1.2 8.7.8M124.6 59.8s-9.1 1.2-9.1 7c0 6 10.4 5.5 13.3 3"/><path fill="#f7e4cd" fill-rule="evenodd" d="M68 86.9s-15.9-9.6-17.5-.4c-1.7 9.1-5.4 15.8 2.5 25.4l-5.4-1.7-5-13-1.7-12.4 9.6-10 10.8.8 6.3 5L68 87M75.5 60.6s7-36.6 42.9-43.7c29.5-5.9 45 1.2 50.8 7.9 0 0-26.2-31.3-51.2-21.7-25 9.6-43.4 27.1-43 38.4.8 19.1.5 19.1.5 19.1M172.1 29s-12-.5-12.5 10.4c0 0 0 1.6.9 3.3 0 0 9.6-10.8 15.4-5"/><path fill="#f7e4cd" fill-rule="evenodd" d="M119.2 43.8s-2-16.6-16.2-7c-9.2 6.3-8.4 15-6.7 16.7 1.7 1.7 1.2 5 2.5 2.8 1.3-2.3.8-9.8 5.4-12 4.6-2 12.1-4.3 15-.5"/><path fill="#49728b" fill-rule="evenodd" d="M80 156.5L41 174s16.2 64.5 8 84.5l-6-2-.3-24.6-10.9-46.7-4.6-13L68 144.9l12 11.7M84 192.2l5.6 6.8v25H83l-.9-19.6c0-2.1.9-9.6.9-9.6M84.2 227.7l-18.7.8 5.4 3.8 13.3 2"/><path fill="#335061" fill-rule="evenodd" d="M148.4 223.5l15.4-.4 3.8 38.4-15.9 2-3.3-40"/><path fill="#335061" fill-rule="evenodd" d="M152.6 223.5l23.3-1.2s9.6-24.2 9.6-25.4c0-1.3 8.3-35 8.3-35l-18.7-19.6-3.8-3.3-10 10v38.7l-8.7 35.8"/><path fill="#49728b" fill-rule="evenodd" d="M163 220.6l-14.6 3 2 11.6c5.5 2.5 14.7-4.2 14.7-4.2M163.4 147.7l29.2 21.7.8-10-22-20.4-8 8.7"/><path fill="#fff" fill-rule="evenodd" d="M98.7 305.6l-8.6-35-4.3-25.8-.7-19.2 39-2h24.3l-2.2 43.7 3.7 33.7-.4 6.3-31.6 2.5-19.2-4.2"/><path fill="#dcd9d8" fill-rule="evenodd" d="M143 223.1s-2.1 43.4 4.1 74.2c0 0-12.5 8-30.8 10l35-1.3 4.2-2.5-5-68.3-1.3-14.6"/><path fill="#fff" fill-rule="evenodd" d="M168.3 258.1l16.2-4.6 30.9-1.6 4.5-14.2-8.3-24.6-9.6-1.2-13.3 4.1-12.8 6.3-6.8-1.3-5.3 2.1"/><path fill="#dcd9d8" fill-rule="evenodd" d="M168 249.8s10.8-5 12.5-4.6l-4.6-23 5.4-2s3.8 21.7 3.8 24.2l25.4 1.2s5-9.6 3.7-19.6l4.6 13.4.4 7.5-6.6 10-7.5 1.6-12.5-.4-4.2-5.4-14.6 2-4.6 1.8"/><path fill="#fff" d="M151.6 220.2l-9.2-23.3L133 183s2-5.8 5-5.8h9.5l9.2 3.3-.8 15.4-4.2 24.2"/><path fill="#dcd9d8" fill-rule="evenodd" d="M153.4 212.3s-11.7-22.5-11.7-25.8c0 0 2.1-5 5-3.8 3 1.3 9.2 4.6 9.2 4.6v-8l-14.2-2.8-9.6 1.2 16.3 38.3 3.3.5"/><path fill="#fff" d="M102.4 157.3L91 156l-10.8-3.3v3.8l5.3 5.8 16.6 7.5"/><path fill="#dcd9d8" fill-rule="evenodd" d="M83.8 158.5s13 5.5 17.1 4.2l.4 5-11.7-2.5-7-5 1.2-1.7"/><path fill="#d33833" fill-rule="evenodd" d="M168.2 178.7c-7-.2-13.4-1-19-2.6.4-2.3-.4-4.6.2-6.2 1.6-1.1 4.2-1.1 6.5-1.4-2-1-4.9-1.4-7.2-.8 0-1.6-.8-2.6-1.2-3.8 4-1.4 13.4-10.7 18.6-7.7 2.5 1.5 3.6 9.9 3.8 14 .2 3.3-.3 6.7-1.7 8.5"/><path fill="none" stroke="#d33833" stroke-width="2.5" d="M168.2 178.7c-7-.2-13.4-1-19-2.6.4-2.3-.4-4.6.2-6.2 1.6-1.1 4.2-1.1 6.5-1.4-2-1-4.9-1.4-7.2-.8 0-1.6-.8-2.6-1.2-3.8 4-1.4 13.4-10.7 18.6-7.7 2.5 1.5 3.6 9.9 3.8 14 .2 3.3-.3 6.7-1.7 8.5z"/><path fill="#d33833" fill-rule="evenodd" d="M134.4 167.2v1.6c-2.3 1.4-5.8 1.4-8.2 2.6 3.5.2 6.3 1 8.8 2.2l-.2 4c-4 2.9-7.7 7-12.5 9.6-2.2 1.2-10.1 4.4-12.5 3.8-1.4-.3-1.5-2-2-3.6-1.2-3.4-3.9-8.8-4.1-13.9-.3-6.4-1-17.3 6-16 5.6 1.1 12.1 3.7 16.5 6.1 2.7 1.5 4.2 3.2 8.2 3.6"/><path fill="none" stroke="#d33833" stroke-width="2.5" d="M134.4 167.2v1.6c-2.3 1.4-5.8 1.4-8.2 2.6 3.5.2 6.3 1 8.8 2.2l-.2 4c-4 2.9-7.7 7-12.5 9.6-2.2 1.2-10.1 4.4-12.5 3.8-1.4-.3-1.5-2-2-3.6-1.2-3.4-3.9-8.8-4.1-13.9-.3-6.4-1-17.3 6-16 5.6 1.1 12.1 3.7 16.5 6.1 2.7 1.5 4.2 3.2 8.2 3.6z"/><path fill="#d33833" fill-rule="evenodd" d="M138.4 174.9c-.6-3.6-1.3-4.6-1-7.6 9.4-6.3 11.1 10.7 1 7.6"/><path fill="none" stroke="#d33833" stroke-width="2.5" d="M138.4 174.9c-.6-3.6-1.3-4.6-1-7.6 9.4-6.3 11.1 10.7 1 7.6z"/><path fill="#ef3d3a" fill-rule="evenodd" d="M152 177.7s-2.9-4.2-.8-5.4c2-1.3 4.2 0 5.4-2 1.3-2.2 0-3.4.4-6 .4-2.4 2.5-2.8 4.6-3.3 2-.4 8-1.2 8.8.9l-2.5-7.5-5-1.7L147 162l-.8 4.6v9.1M108.3 191.5l-1.6-19.5c-1-9.7 2.3-8 10.7-8 1.3 0 7.9 1.5 8.4 2.5 2.2 4.6-3.8 3.6 2.6 7 5.4 3 15-1.7 12.8-8.3-1.2-1.4-6.4-.4-8.2-1.4l-9.8-5c-4.2-2.2-13.7-5.3-18.1-2.3-11.2 7.6.7 26.6 4.7 34.5"/><path fill="#231f20" fill-rule="evenodd" d="M119.2 43.8c-11.3-2.6-17 4.8-20.4 12.5-3-.8-1.9-5-1-7.1 2-5.6 10.1-13 16.8-12 3 .4 6.8 3 4.6 6.6M174.6 56.8h.5c2.6 5.3 4.8 11 8 15.7-2.1 5-16.4 9.5-16.2.4 3.1-1.3 8.4-.3 11.2-2-1.6-4.3-3.9-8-3.5-14.1M125 57c2.5 4.4 3.3 9 6.7 12.4 1.6 1.6 4.6 3.4 3.1 7.6-.3 1-2.9 3.2-4.4 3.7-5.4 1.6-18 .3-13.7-6.4 4.5.2 10.5 2.9 13.8-.4-2.6-4-7.1-12.2-5.4-17M172.5 102.3c-8.1 5.2-17.2 10.9-30.5 9.6a9 9 0 0 1-1.2-11.7c1.4 2.5.5 7 4.5 7.8 7.6 1.3 16.4-4.7 21.9-6.7 3.4-5.7-.3-7.8-3.4-11.5-6.2-7.5-14.5-16.8-14.2-28 2.5-1.9 2.7 2.7 3 3.6 3.3 7.6 11.5 17.3 17.5 23.8 1.4 1.6 3.9 3.2 4.1 4.2.8 3.1-2 6.8-1.7 8.9M65.1 96.8c-2.5-1.5-3.1-8-6.1-8.1-4.3-.3-3.5 8.3-3.5 13.4-3-2.7-3.5-11-1.3-15.2-2.5-1.2-3.6 1.3-5 2.2 1.8-12.8 18.7-5.9 16 7.7M177.7 107.6c-3.8 7.2-9.1 15.2-20.3 15.4-.2-2.3-.4-5.9 0-7.3 8.6-.8 13.8-5.1 20.3-8.1M124.4 112.3c7.1 3.7 20.2 4.1 29.8 3.8.5 2.1.5 4.8.5 7.3-12.4.7-27-2.4-30.3-11.1M123 119.2c5 12.4 21.8 11 36 10.6-.6 1.6-2 3.5-3.6 4.2-4.6 1.8-17.1 3.2-23.5-.1-4-2.2-6.6-7-8.8-9.8-1-1.4-6.3-4.9 0-4.9"/><path fill="#81b0c4" fill-rule="evenodd" d="M172 187.2c-5.8 9.9-11.3 20-18.2 28.7 3-8.4 4.1-22.5 4.6-33.3 6-2.8 11 .7 13.5 4.6"/><path fill="#231f20" fill-rule="evenodd" d="M203 222.7c-6.5 1.3-11 7.5-17.3 7.1 3.4-4.8 9.5-6.9 17.2-7.1M205.8 232.8c-5.3.5-11.4 1.4-16.8 1 2.5-4 12.3-2.6 16.8-1M207.6 241.5c-5.9.1-13.2 0-18.9-.5 3.4-3.6 15-1.3 19 .5"/><path fill="#dcd9d8" fill-rule="evenodd" d="M160.8 265.3c.9 7.4 3.8 15 3.4 23-3.2 1.1-5 2.1-9.5 2.1-.3-7-1.2-17.5-1-24 2.2.1 5.4-1.6 7.1-1.1"/><path fill="#f0d6b7" fill-rule="evenodd" d="M151.3 156c-3 1.9-5.5 4.3-8.3 6.4-6.4.3-9.8-.5-14.4-4.1 0-.3.5-.2.5-.5 6.8 3 15.4-1.3 22.2-1.9"/><path fill="#81b0c4" fill-rule="evenodd" d="M115.8 202c1.9-8 9.1-12.2 15.8-16.6 6.8 8.6 11 19.8 15.5 30.5a159.3 159.3 0 0 1-31.3-13.9"/><path fill="#231f20" fill-rule="evenodd" d="M153.8 266.4c-.3 6.5.6 17 1 24 4.3 0 6.2-1 9.5-2 .3-8.2-2.6-15.7-3.5-23.1-1.7-.5-4.9 1.2-7 1zm-68.2-37.5a344 344 0 0 0 14.8 72.3c17 5.2 37.5 5.7 52.5 1-2.7-13.3-1.5-29.4-3.1-43.6-1.3-10.6-.6-21.3-2.3-32.1-18.2-3.8-44-1-61.9 2.4zm66.2-2.3c-.2 11.4.5 22.7 1.4 34 4.4-.6 7.3-1 11.4-2-1.3-10.9-1.2-23.3-3.9-33-3 0-5.8 0-8.9 1zm22.2-1.8c-2-.5-4.5 0-6.5 0 1 9.3 3.2 19.5 4 29.3 3.1 0 4.8-1.4 7.4-1.9a59 59 0 0 0-4.9-27.4zm33.6 30.7c6.5-1.6 10.6-9.6 8.8-17.7-1.2-5.5-3.4-15.9-5.7-19.4-1.8-2.6-6.4-6-10.2-3.6-6 3.8-16.7 5-21.1 9.7 2.2 7.3 3 17.5 3.8 26.8 7.6.5 16.9-2 23.2.6-4.4 1.5-10.1 1.5-13.9 3.5 3.1 1.5 10.4 1.2 15.1 0zm-60.5-39.6c-4.6-10.7-8.7-21.9-15.5-30.5-6.7 4.4-14 8.6-15.8 16.6 9.5 5.4 20.5 10.7 31.3 14zm11.3-33.3c-.5 10.8-1.7 24.9-4.6 33.3 6.9-8.7 12.4-18.8 18.1-28.7-2.4-4-7.5-7.4-13.5-4.6zm-12.8-4.5c-2.6-.3-4.8 3-8.2 1.6l-2.2 2.6c7.4 9 10.8 21.7 16.5 32.2 3.1-10.1 2.8-21.2 3.4-32.2-4.2.2-6.5-3.9-9.5-4.2zm-8.2-10.8c-.3 3 .4 4 1 7.6 10.1 3.1 8.4-13.9-1-7.6zm-11.2-3.7c-4.4-2.4-10.9-5-16.5-6-7-1.4-6.3 9.5-6 16 .2 5 2.9 10.4 4 13.8.6 1.6.7 3.3 2 3.6 2.5.6 10.4-2.6 12.6-3.8 4.8-2.6 8.5-6.7 12.5-9.5l.2-4c-2.5-1.3-5.3-2.1-8.8-2.3 2.4-1.2 6-1.2 8.2-2.6v-1.6c-4-.4-5.5-2.2-8.2-3.6zm-41.5-7.5c-3.6 3.6 10.1 8.6 14.5 8.9 0-2.3 1.3-4.5 1-6.2-5.2-.9-12-.3-15.5-2.7zm44.4 1.7c0 .3-.5.2-.5.5 4.6 3.6 8 4.4 14.4 4 2.8-2 5.3-4.4 8.3-6.4-6.8.6-15.4 4.9-22.2 1.9zM170 170c-.2-4-1.3-12.4-3.8-13.9-5.2-3-14.6 6.3-18.6 7.7.4 1.2 1.1 2.2 1.2 3.8 2.3-.6 5.2-.2 7.2.8-2.3.3-5 .3-6.5 1.4-.6 1.6.2 3.9-.2 6.2 5.6 1.6 12 2.4 19 2.6 1.4-1.8 1.9-5.2 1.7-8.6zm-91.3-10.5c-1.1-.8-8.8-10.8-9.8-10.4-14 5.5-26.9 15-38.5 23.9 11 23.7 15.5 52.8 16.3 80.7 12.7 6 23.8 14.5 41 15.4-2-14-3.8-26.6-5-39.9-4.3-1.8-10.5.1-14.5-.5 0-4.9 6.2-2.2 6.7-5.4.4-2.5-3.4-2.7-2.2-6.6 3.2 1.2 4.8 3.7 8.2 4.7 3-6.8 0-18.7.4-24.3 0-1 .5-5.9 2.9-5 2 .7-.1 12.7.1 18 .2 5-.6 9.7 1.4 12.8 16.6-2.3 33.5-3.7 51.4-4.2-4-1.7-8.6-3.3-13.8-6.2-2.8-1.6-11.6-4.9-12.4-7.5-1.3-4.2 3.4-6.5 4.2-10.1-8.4 4.6-10-4.4-12-10.7-1.8-5.8-2.8-10-3.3-13.4-7.2-3.4-14.9-6.9-21-11.3zm84-9.2c11.5-5.6 13.6 21 9 29.5.8 2.6 3.2 3.6 4.2 5.8-6.5 11.6-13.6 22.4-20.2 33.8 4.9-3 11.9-.6 17.6-2.8 2.1-.9 3.7-5.7 5.3-9.5 4.3-10.6 9-24 11-34.1.5-2.3 1.7-7.4 1.4-9.4-.5-3.7-5.5-6.4-8-8.7-4.7-4.2-7.6-7.9-12.5-11.8-2 3-6.2 4.9-7.8 7.2zM52.2 48c-5.5 6-4.4 17.4-3.7 25.5 10-6.3 23.2.5 23 11.1 4.8-.1 1.8-6 1-9.7-2.9-12.2 4.7-25.5.3-36.6-8.5.6-15.5 4-20.6 9.7zm39.4-35.2C79 16.4 63 25.4 58 36.6c4-.6 6.7-2.6 10.6-2.8 1.5-.1 3.5.6 5.2.2 3.3-.9 6.2-8.5 8.8-11.3 2.5-2.7 5.4-4 7.5-6.4 1.3-.7 3.3-.6 3.3-2.6-.5-.6-1.1-1-1.8-.9zm64.9 3.3c-13-7.3-34.9-12.7-48.6-5.9C96.8 15.8 81.7 25 76.6 36.5c4.8 11.2-1.4 21.5-1.8 32.9-.2 6 2.9 11.3 3.1 17.9-1.6 2.7-6.6 3-10 2.8-1.3-5.8-3.3-12.4-9.3-13-8.5-1-14.7 6-15 13.4-.5 8.7 6.6 23 16.6 22 3.9-.4 4.8-4.3 9-4.2 2.4 4.5-3.5 6-4 9.2-.2.9.4 4.2.8 5.7a77.7 77.7 0 0 0 9.9 23c5 7.4 15 8.5 25.8 9.2 2-4.2 9-3.8 13.6-2.7a45.5 45.5 0 0 1-15-12.2c-4.8-5.4-9.7-11.2-10-18.2 9.2 12.8 16.9 24 33.7 29.6 12.7 4.3 27.5-2 37.2-8.8 4.1-2.8 6.5-7.4 9.4-11.5a97.5 97.5 0 0 0 14.7-59c-.5-8.9-.4-17.7-3.4-23.6-3.1-6.3-13.6-11.8-19.7-6.2-1.2-6 5-9.8 12.4-7.6-5.2-6.8-10.7-14.9-18.1-19zm24 199.5c10.2-5 29-13.5 35.4 0 2.3 5 5 13.5 6.3 18.6 1.7 7.3-1.9 22.6-9.3 25-6.6 2.2-14.4 2-22.3.4-1-.7-2-2.1-2.7-3.5-5.7-.2-11 .3-15.5 2.6.4 4.2-2.4 4.9-5 5.8-2 7.8 3.9 18 2.5 25.1-1 5.1-7.3 6-11.9 6.9-.1 2.8.2 5.1.5 7.5-1 3.9-5.7 6.1-10.2 6.6-14.7 1.8-37 2.6-51.2-2.5-4-9.6-7-21.4-10.3-32.5-13.8 1.5-25-6-35.5-10.8-3.6-1.7-8.6-2.6-10-5.5-1.3-2.8-.8-8.2-1.1-13.3-.8-13-1.6-25.4-5-38.7-1.5-6-4.2-11.2-6-17-1.8-5.3-4.8-11.9-5.6-17.2-1.2-7.9 6.2-8.3 11-11.7 7.3-5.3 13-8.2 21-13 2.3-1.4 9.4-5 10.2-6.6 1.6-3.2-2.7-7.8-3.9-10.4-1.8-4-2.8-7.4-3-11.4a22 22 0 0 1-14.8-9.5c-5-7.4-8.5-21-4.2-31.4.4-.9 2-2.5 2.3-3.7.5-2.5-1-5.8-1-8.4-.5-13.5 2.3-25.2 11.4-29.3C56.3 23 69.5 18.1 81.9 10.8c4.7-2.7 9.8-4.4 15.1-6.4 19-7 48.2-5.7 64 6.3 6.7 5 17.4 15.7 21.2 23.4 10 20.5 9.4 54.6 2.3 79.4-1 3.4-2.3 8.3-4.2 12.3-1.4 2.8-5.6 8.4-5 10.8.5 2.6 9.5 9.4 11.4 11.3 3.5 3.3 10 7.8 10.6 12 .6 4.5-2 10.6-3.3 15a589.2 589.2 0 0 1-13.4 40.7"/><path fill="#f7e4cd" fill-rule="evenodd" d="M113.1 115.4c.6-.7 3.6-1.8 7.8.2 0 0-5 .9-4.6 9.2l-2-.4s-2.2-7.6-1.2-9"/><path fill="#1d1919" fill-rule="evenodd" d="M149.6 187a2.3 2.3 0 1 1-4.5 0 2.3 2.3 0 0 1 4.5 0M152 197.7a2.3 2.3 0 1 1-4.6 0 2.3 2.3 0 0 1 4.5 0"/></svg>