<svg xmlns="http://www.w3.org/2000/svg" xmlns:xlink="http://www.w3.org/1999/xlink" viewBox="0 0 100 100" width="100" height="100"><defs><path d="M47.85 48.71l.18.02.18.03.17.03.17.04.17.05.17.06.16.06.16.07.15.08.16.08.14.09.15.09.14.1.13.11.13.11.13.11.12.12.12.13.11.13.1.13.1.14.09.15.09.15.08.15.08.15.07.16.06.16.06.17.05.17.04.17.03.17.03.18.02.18.01.18.01.19V100l-.96-.02-.94-.07-.93-.1-.92-.14-.91-.19-.89-.21-.87-.26-.86-.29-.85-.33-.82-.36-.81-.39-.79-.43-.76-.46-.75-.49-.72-.52-.71-.54-.67-.58-.66-.6-.63-.63-.6-.66-.57-.67-.55-.71-.51-.72-.49-.75-.46-.77-.42-.79-.4-.8-.35-.83-.33-.84-.29-.87-.25-.87-.22-.89-.18-.91-.14-.92-.11-.93-.06-.94-.02-.96v-8.44h-8.77l-.96-.02-.94-.06-.93-.11-.92-.14-.91-.18-.89-.22-.88-.25-.86-.29-.85-.33-.82-.36-.81-.39-.79-.43-.77-.45-.75-.49-.72-.52-.71-.55-.67-.57-.66-.6-.63-.63-.6-.66-.58-.68-.54-.7-.52-.72-.49-.75-.46-.77-.42-.79-.4-.81-.36-.82-.32-.85-.3-.86-.25-.88-.22-.89-.18-.9-.14-.92-.11-.94-.06-.94L0 48.7h47.67l.18.01zm24.2-24.35l.18.02.17.03.18.04.17.04.17.05.16.05.17.06.16.07.15.08.15.08.15.09.14.09.14.1.14.11.13.11.13.11.12.13.11.12.11.13.11.14.1.14.09.14.09.15.08.15.08.15.07.16.06.17.05.16.05.17.05.17.03.18.03.17.02.18.01.18v47.37l-.95-.02-.95-.06-.93-.1-.92-.14-.91-.19-.89-.21-.88-.26-.86-.29-.84-.33-.83-.36-.81-.39-.79-.43-.77-.45-.74-.49-.73-.52-.7-.55-.68-.57-.66-.61-.63-.62-.6-.66-.57-.68-.55-.7-.52-.73-.49-.74-.46-.77-.42-.79-.4-.81-.36-.83-.32-.84-.29-.87-.26-.87-.22-.9-.18-.9-.14-.92-.1-.94-.06-.94-.02-.95v-8.45h-8.75l-.95-.02-.95-.06-.93-.11-.92-.14-.91-.18-.89-.22-.87-.25-.86-.29-.85-.33-.83-.36-.8-.39-.79-.43-.77-.46-.75-.49-.72-.51-.7-.55-.68-.57-.66-.61-.63-.63-.6-.65-.57-.68-.55-.7-.52-.73-.49-.74-.45-.77-.43-.79-.39-.81-.36-.82-.33-.85-.29-.86-.26-.88-.21-.89-.18-.9-.15-.92-.1-.93-.06-.95-.02-.95H71.87l.18.01zM96.25.02l.17.02.18.02.18.04.17.04.17.05.16.05.16.07.16.07.16.07.15.08.15.09.14.1.14.1.14.1.13.11.12.12.12.12.12.12.11.13.1.14.1.14.1.14.09.15.08.15.07.16.07.16.07.16.05.16.05.17.04.17.04.18.02.18.02.17.02.19V51.3l-.95-.02-.95-.06-.93-.1-.92-.14-.91-.18-.89-.22-.88-.26-.86-.29-.84-.32-.83-.36-.81-.4-.79-.42-.77-.46-.74-.49-.73-.51-.7-.55-.68-.58-.66-.6-.62-.63-.61-.65-.57-.68-.55-.7-.52-.73-.49-.74-.45-.77-.43-.79-.39-.81-.36-.83-.33-.84-.29-.86-.26-.88-.22-.89-.18-.91-.14-.92-.1-.93-.06-.94-.03-.96v-8.44h-8.74l-.96-.02-.94-.07-.94-.1-.92-.14-.9-.18-.9-.22-.87-.25-.86-.3-.85-.32-.83-.36-.81-.4-.78-.42-.77-.46-.75-.49-.73-.52-.7-.54-.68-.58-.65-.6-.63-.63-.61-.65-.57-.68-.55-.71-.52-.72-.49-.75-.45-.77-.43-.79-.39-.81-.36-.82-.33-.85-.29-.86-.25-.88-.22-.89-.18-.91-.15-.92-.1-.93-.06-.95-.02-.95h47.68l.19.02z" id="a"/></defs><use xlink:href="#a" fill="#fff"/><use xlink:href="#a" fill-opacity="0" stroke="#000" stroke-opacity="0"/></svg>