<svg xmlns="http://www.w3.org/2000/svg" viewBox="0 0 1000 1000"><path d="M966.3 708.3S844.4 1037 424.8 960.5c-6.6-1.2-12.9-3.5-19.3-5.5-1.5-.4-3-.9-4.5-1.3-6.3-2-12.5-4-18.7-6.1-.7-.2-1.4-.5-2.1-.7-5.6-2-11.3-4.1-16.8-6.2-1.5-.6-2.9-1.1-4.3-1.7-6-2.4-11.9-4.8-17.8-7.4-1.1-.5-2.1-1-3.2-1.4-5.1-2.3-10.2-4.7-15.3-7.1-1.3-.7-2.6-1.3-3.9-1.9-.7-.4-1.5-.7-2.2-1.1-3.3-1.6-6.4-3.3-9.6-5-2.5-1.3-5-2.5-7.4-3.8-4.5-2.5-9-5-13.5-7.6-1.7-.9-3.3-1.8-5-2.8-6-3.6-12-7.3-17.9-11-1.7-1.1-3.3-2.2-5-3.3-3.8-2.5-7.7-5-11.5-7.6-.4-.3-.8-.6-1.2-.8-1.5-1-2.8-2-4.3-3.1-4-2.8-7.9-5.6-11.8-8.5-1.9-1.4-3.8-2.8-5.6-4.3-3.5-2.7-7-5.4-10.5-8.2-1.7-1.4-3.5-2.8-5.2-4.2-4.2-3.5-8.5-7.1-12.6-10.6l-2.4-2.1c-.1 0-.1-.1-.2-.2-4.7-4.1-9.3-8.3-13.9-12.6-1.4-1.3-2.8-2.6-4.1-3.9-3.4-3.3-6.8-6.6-10.1-9.9l-4.1-4.1c-4.3-4.4-8.5-8.8-12.7-13.4l-.5-.5c-.1-.1-.2-.2-.2-.3-4.2-4.7-8.4-9.5-12.5-14.2-1.1-1.3-2.3-2.7-3.4-4.1-3-3.7-6-7.3-9-11-1.2-1.5-2.4-3.1-3.6-4.6-3.3-4.3-6.5-8.5-9.7-12.9l-1.8-2.4c-.1-.1-.2-.3-.3-.4-3.7-5-7.2-10.2-10.6-15.3-1.1-1.6-2.1-3.2-3.1-4.8-2.5-3.8-5-7.6-7.3-11.5l-3.6-6c-2.2-3.6-4.3-7.2-6.3-10.8-1.2-2.1-2.3-4.1-3.5-6.2-.6-1.1-1.3-2.3-1.9-3.4-1.1-1.9-2-4-3.1-6-1.6-3.1-3.3-6.3-4.8-9.4-66.3-132.5-77.1-294.8 9.7-419.5l67.7-85.9c-76.4 147.7-42.1 327.5 53.5 457.9 3.5 4.7 7 9.4 10.6 14.1 1.1 1.4 2.2 2.8 3.4 4.2 3 3.8 6.1 7.6 9.2 11.3 1.1 1.3 2.2 2.6 3.4 4 4.1 4.9 8.4 9.8 12.7 14.5.2.2.4.4.6.7 4.1 4.5 8.3 8.9 12.6 13.3l4 4c3.4 3.4 6.8 6.7 10.2 10 1.3 1.3 2.6 2.6 4 3.9 4.7 4.4 9.4 8.7 14.3 13 .5.4 1 .8 1.5 1.3 4.5 3.9 9 7.7 13.6 11.4l4.8 3.9c3.6 2.9 7.2 5.7 10.9 8.5 1.7 1.3 3.5 2.7 5.4 4 4 3 8 5.9 12.1 8.7 1.4.9 2.7 1.9 4.1 2.9 4.2 2.9 8.5 5.7 12.8 8.5 1.6 1.1 3.2 2.2 4.8 3.2 5.9 3.7 11.9 7.4 17.9 11 1.6.9 3.1 1.7 4.6 2.6 4.6 2.6 9.1 5.2 13.8 7.7 2.5 1.4 5.1 2.7 7.7 4 3.8 2 7.6 4 11.5 5.8 1.5.7 2.9 1.4 4.3 2.1 4.9 2.4 9.9 4.6 14.8 6.9 1.2.5 2.3 1 3.5 1.6 5.8 2.5 11.7 5 17.6 7.3 1.5.6 3 1.2 4.6 1.8 5.4 2.1 10.8 4.1 16.3 6.1.9.3 1.7.6 2.5.9 6.1 2.1 12.3 4.1 18.5 6l4.8 1.5c6.4 1.9 12.7 3.9 19.2 5.4 171.9 39 353.6 3.8 455.9-129.6zM358.9 497.6c9.4 13.5 19.8 29.5 32.3 40.3 4.5 5 9.3 9.8 14.1 14.6 1.2 1.2 2.5 2.4 3.7 3.7 4.7 4.5 9.5 9 14.4 13.4.2.1.4.4.6.5l.1.1c5.5 4.8 11.1 9.4 16.8 13.9 1.3 1 2.5 2 3.8 3 5.7 4.4 11.6 8.7 17.6 12.8.2.1.3.3.5.4 2.6 1.8 5.3 3.5 8 5.3 1.3.8 2.5 1.7 3.8 2.5 4.3 2.8 8.6 5.4 13 8 .6.4 1.2.7 1.8 1.1 3.8 2.2 7.7 4.3 11.5 6.4 1.3.8 2.7 1.4 4.1 2.1 2.7 1.4 5.3 2.8 8.1 4.2.4.2.8.4 1.2.5 5.5 2.7 11.1 5.4 16.8 7.8 1.2.5 2.5 1 3.7 1.5 4.6 1.9 9.1 3.8 13.8 5.6 2 .7 3.9 1.5 5.9 2.2 4.2 1.6 8.4 3 12.6 4.4l5.7 1.8c6 1.9 12 4.2 18.3 5.3C915.2 712.8 990 463.3 990 463.3c-67.4 97.1-198 143.4-337.3 107.3-6.2-1.6-12.3-3.4-18.3-5.3-1.9-.6-3.7-1.2-5.5-1.8-4.3-1.4-8.6-2.9-12.8-4.4-1.9-.7-3.9-1.4-5.8-2.2-4.7-1.8-9.3-3.6-13.8-5.6-1.3-.5-2.5-1-3.7-1.6-5.7-2.5-11.3-5.1-16.9-7.9-2.9-1.4-5.7-2.9-8.5-4.3-1.6-.8-3.3-1.7-4.9-2.5-3.6-2-7.2-4-10.7-6-.8-.5-1.7-.9-2.6-1.4-4.4-2.6-8.7-5.2-13-7.9-1.3-.8-2.6-1.8-3.9-2.6-2.8-1.8-5.6-3.7-8.4-5.6-6-4.1-11.8-8.4-17.5-12.8-1.3-1-2.6-2.1-3.9-3.1C441.3 447.4 393 381.6 370 307c-24.1-77.4-18.9-164.3 22.8-234.8l-51.3 72.4c-62.7 90.3-59.3 211.2-10.4 306.7 8.3 16 17.5 31.5 27.8 46.3zm341.5-111.7c2.7 1 5.3 1.9 8 2.8 1.2.4 2.4.8 3.5 1.1 3.8 1.2 7.6 2.6 11.5 3.3 178.9 34.6 227.4-91.8 240.3-110.4-42.5 61.2-113.9 75.9-201.6 54.6-6.9-1.7-14.5-4.2-21.2-6.6-8.6-3.1-17-6.5-25.2-10.5-15.6-7.5-30.4-16.5-44.2-26.9-78.4-59.5-127.1-173-76-265.5L567.8 66c-37 54.4-40.6 122-15 182.2 27.4 63.9 82.9 114 147.6 137.7z"/></svg>
