<svg xmlns="http://www.w3.org/2000/svg" viewBox="0 0 50 50" width="50" height="50"><path fill="#ffffff" d="M28.875 0a.466.466 0 0 0-.063.031l-28 5.313a1 1 0 0 0-.812 1v37.312a1 1 0 0 0 .813 1l28 5.313c.289.054.59-.02.82-.207.226-.188.363-.465.367-.762v-5h17c1.094 0 2-.906 2-2V8c0-1.094-.906-2-2-2H30V1a1.004 1.004 0 0 0-1.125-1zM28 2.188v4.5a1.025 1.025 0 0 0 0 .593v35.532a1.016 1.016 0 0 0 0 .406v4.593L2 42.844V7.156zM30 8h17v34H30v-6.5l1.5 1.5 5-5-5-5-1.5 1.5V15h8v8h-4l5 5 5-5h-4V13H30zM9.156 15.656v18.719h4.219v-6.438h2c2.262 0 4.086-.59 5.438-1.75 1.351-1.16 2.03-2.683 2.03-4.562 0-3.977-2.378-5.969-7.093-5.969zm4.219 3.25h1.656c2.242 0 3.375.953 3.375 2.875 0 1.965-1.133 2.938-3.375 2.938h-1.656z"/></svg>
