<svg version="1.1" xmlns="http://www.w3.org/2000/svg" x="0" y="0" viewBox="0 0 265 55" width="345" height="71" xml:space="preserve">
  <style>
    .st1{fill:#036}.st2{fill:#ea7e20}
  </style>
  <path fill="#fff" d="M4.2 5.1H51v43.2H4.2z"/>
  <g transform="translate(-112 -72)">
    <g transform="translate(108 70)">
      <g transform="translate(4.031)">
        <path class="st1" d="M34.9 30.4c0-4.1-3.3-7.4-7.4-7.4s-7.4 3.3-7.4 7.4c0 3.2 2 5.9 4.8 6.9L22 52.5h11l-2.8-15.2c2.7-1.1 4.7-3.7 4.7-6.9"/>
        <g transform="translate(0 1.393)">
          <path class="st2" d="M51 28.9C51 16.1 40.5 5.7 27.6 5.7S4.2 16.1 4.2 28.9c0 8.5 4.6 15.9 11.5 19.9l1.5-9.9c-2.2-2.4-3.6-5.7-3.6-9.2 0-7.6 6.2-13.8 13.9-13.8s13.9 6.2 13.9 13.8c0 3.6-1.4 6.8-3.6 9.3l1.5 9.9c7-4 11.7-11.5 11.7-20"/>
        </g>
        <path class="st2" d="M82.3 38.8c4.7 0 8.5-3.8 8.5-8.4S87 22 82.3 22s-8.5 3.8-8.5 8.4 3.8 8.4 8.5 8.4m0 6.8c-8.5 0-15.4-6.8-15.4-15.3S73.8 15 82.3 15s15.4 6.8 15.4 15.3-6.9 15.3-15.4 15.3"/>
        <path class="st2" d="M100.9 16v28.8c0 .3.2.5.5.5h5.5c.3 0 .5-.2.5-.5V33.7h5.9s8.2-.4 8.2-9.2-8.3-9.1-8.3-9.1h-11.8c-.3 0-.5.2-.5.6zm10.7 3.9s4.3-.1 4.3 4.6c0 4.6-4.3 4.6-4.3 4.6h-4.3v-8.9c0-.4.3-.3.3-.3h4z"/>
        <path class="st1" d="M205.7 16v28.8c0 .3.2.5.5.5h5.5c.3 0 .5-.2.5-.5V33.7h5.9s8.2-.4 8.2-9.2-8.3-9.1-8.3-9.1h-11.8c-.2 0-.5.2-.5.6zm10.7 3.9s4.3-.1 4.3 4.6c0 4.6-4.3 4.6-4.3 4.6h-4.3v-8.9c0-.4.3-.3.3-.3h4z"/>
        <path class="st2" d="M124.8 44.8c0 .3.2.5.5.5h19.9c.3 0 .5-.2.5-.5v-4.2c0-.3-.2-.5-.5-.5h-13.4c-.3 0-.5-.2-.5-.5v-6.7c0-.3.2-.5.5-.5h8.9c.3 0 .5-.2.5-.5v-4.2c0-.3-.2-.5-.5-.5h-8.9c-.3 0-.5-.2-.5-.5V21c0-.3.2-.5.5-.5h13.4c.3 0 .5-.2.5-.5v-4.2c0-.3-.2-.5-.5-.5h-19.8c-.3 0-.5.2-.5.5l-.1 29z"/>
        <path class="st2" d="M170.8 15.4h-4.2c-.3 0-.5.2-.5.5v17.9l-10.7-18.4h-5.2c-.3 0-.6.3-.6.6v28.8c0 .3.2.5.5.5h4.2c.3 0 .5-.2.5-.5V24.1L167 45.2v.1h3.7c.3 0 .5-.2.5-.5V15.9c0-.3-.2-.5-.4-.5"/>
        <path class="st1" d="M251.6 15.4h-4.2c-.3 0-.5.2-.5.5v17.9l-10.7-18.4H231c-.4 0-.6.3-.6.6v28.7c0 .3.2.5.5.5h4.2c.3 0 .5-.2.5-.5V24.1l12.3 21.1v.1h3.7c.3 0 .5-.2.5-.5V15.9c0-.3-.3-.5-.5-.5"/>
        <path class="st1" d="M190.7 44.9l10.7-28.8c.1-.3-.1-.7-.5-.7h-4.8c-.2 0-.4.1-.5.3l-7 18.9-7-18.9c-.1-.2-.3-.3-.5-.3h-4.8c-.3 0-.6.3-.5.7l10.7 28.8c.1.2.3.3.5.3h3.2c.2 0 .4-.1.5-.3"/>
      </g>
    </g>
  </g>
  <path class="st1" d="M260.5 16.5c0 1.4-1.1 2.6-2.6 2.6s-2.6-1.1-2.6-2.6c0-1.4 1.2-2.5 2.6-2.5 1.5 0 2.6 1.1 2.6 2.5zm-4.6 0c0 1.1.8 2 2 2 1.1 0 1.9-.9 1.9-2s-.8-2-1.9-2-2 .9-2 2zm1.6 1.3h-.6v-2.5c.2 0 .6-.1 1-.1.5 0 .7.1.9.2.1.1.2.3.2.6s-.2.5-.5.6c.2.1.4.3.5.6.1.4.1.5.2.6h-.6c-.1-.1-.1-.3-.2-.6 0-.3-.2-.4-.5-.4h-.3v1h-.1zm0-1.4h.3c.3 0 .6-.1.6-.4 0-.2-.2-.4-.5-.4h-.3v.8h-.1z"/>
</svg>
