<svg version="1.1" id="svg8944" xmlns="http://www.w3.org/2000/svg" x="0" y="0" viewBox="0 0 433.3 208.9" width="434" height="209" xml:space="preserve">
  <style>
    .st0,.st1{fill:none;stroke:#fff;stroke-width:4}.st1{fill:#fff;stroke:#1d2d44}
  </style>
  <circle class="st0" cx="24" cy="184.9" r="22"/>
  <circle class="st0" cx="291.5" cy="184.9" r="22"/>
  <path class="st0" d="M62 162.7v30.1c0 7.8 6.3 14.1 14.1 14.1s14.1-6.3 14.1-14.1v-30.1"/>
  <path class="st0" d="M90.2 162.7v30.1c0 7.8 6.3 14.1 14.1 14.1s14.1-6.3 14.1-14.1v-30.1"/>
  <path class="st0" d="M246.3 122.7v70.1c0 7.8 6.3 14.1 14.1 14.1"/>
  <path class="st0" d="M135 206.9v-22.2c0-12.1 9.9-22 22-22 12.2 0 22 9.9 22 22v22.2"/>
  <path class="st0" d="M328 162.7v22.2c0 12.1 9.9 22 22 22s22-9.9 22-22v-22.2"/>
  <path class="st0" d="M229.8 136.6c-19.4 0-35.2 15.7-35.2 35.2s15.7 35.2 35.2 35.2"/>
  <path class="st0" d="M431.3 122.7v40.2-1"/>
  <path class="st0" d="M416.9 206.9h-7.8c-12.1 0-22-9.9-22-22s9.9-22 22-22h22.2s.1 22.3 0 29.9c-.2 7.5-8 14.1-14.4 14.1z"/>
  <circle class="st1" cx="215.2" cy="38.6" r="20.3"/>
  <circle class="st1" cx="177.9" cy="109.3" r="37.2"/>
  <circle class="st1" cx="219.9" cy="84.5" r="40.3"/>
  <circle class="st1" cx="302" cy="68.2" r="37.2"/>
  <circle class="st1" cx="261.2" cy="39.2" r="37.2"/>
  <circle class="st1" cx="385.1" cy="123.7" r="21.3"/>
  <circle class="st1" cx="339.9" cy="107.3" r="40.3"/>
  <circle class="st1" cx="217.4" cy="125.7" r="21.3"/>
  <path class="st1" d="M324.8 95.4c0 28.3-23 51.3-51.3 51.3-28.4 0-51.3-23-51.3-51.3 0-28.4 23-51.3 51.3-51.3s51.3 23 51.3 51.3z"/>
</svg>
