<svg xmlns="http://www.w3.org/2000/svg" width="2500" height="2490" preserveAspectRatio="xMinYMin meet" viewBox="0 0 256 255"><defs><linearGradient id="a" x1="13%" x2="79.6%" y1="12%" y2="78.2%"><stop offset="0%" stop-color="#387EB8"/><stop offset="100%" stop-color="#366994"/></linearGradient><linearGradient id="b" x1="19.1%" x2="90.7%" y1="20.6%" y2="88.4%"><stop offset="0%" stop-color="#FFE052"/><stop offset="100%" stop-color="#FFC331"/></linearGradient></defs><path fill="url(#a)" d="M127 0C62 0 66 28.3 66 28.3l.1 29.1h61.9v8.8H41.6S.1 61.4.1 126.8s36.3 63 36.3 63H58v-30.3s-1.2-36.2 35.6-36.2H155s34.4.6 34.4-33.3V34S194.7 0 127 0zM92.7 19.8a11.1 11.1 0 0 1 11.1 11A11.1 11.1 0 0 1 92.8 42a11.1 11.1 0 0 1-11.1-11.1 11.1 11.1 0 0 1 11.1-11.1z"/><path fill="url(#b)" d="M128.8 254.1c64.8 0 60.7-28 60.7-28v-29.2h-61.9V188H214s41.5 4.7 41.5-60.7-36.2-63-36.2-63h-21.6v30.3s1.2 36.2-35.6 36.2h-61.4s-34.5-.6-34.5 33.3v56s-5.2 34 62.6 34zm34-19.6a11.1 11.1 0 0 1-11-11 11.1 11.1 0 0 1 11-11.2 11.1 11.1 0 0 1 11.2 11.1 11.1 11.1 0 0 1-11.1 11.1z"/></svg>