<?xml version="1.0" encoding="UTF-8"?>
<svg width="140px" height="39px" viewBox="0 0 140 39" version="1.1" xmlns="http://www.w3.org/2000/svg" xmlns:xlink="http://www.w3.org/1999/xlink">
    <g id="Layout" stroke="none" stroke-width="1" fill="none" fill-rule="evenodd">
        <g id="HD" transform="translate(-40.000000, -28.000000)">
            <g id="Header_hd">
                <g id="logotype" transform="translate(40.000000, 28.000000)">
                    <g id="Group">
                        <g id="Sign-Copy" transform="translate(0.000000, 1.395349)" fill="#FFEE55">
                            <polygon id="Rectangle-Copy" points="0 0 37.2093023 0 37.2093023 29.0697674 29.0697674 37.2093023 0 37.2093023"></polygon>
                        </g>
                        <path d="M70.3020772,25.5753979 C66.5303556,25.5753979 64.2428668,28.040489 64.2428668,32.3631598 C64.2428668,36.171253 66.742858,38.3650526 70.3020772,38.3650526 C74.122898,38.3650526 76.3861499,35.8996486 76.3861499,31.5771343 C76.3861499,27.7690411 73.8725549,25.5753979 70.3020772,25.5753979 Z M73.0569461,35.1392816 C73.0569461,35.1392816 72.1650303,35.7589964 70.5813482,35.7589964 C67.7257792,35.7589964 67.1025014,33.6647016 67.1025014,31.7650357 C67.1025014,29.6464905 67.5720707,28.8010125 67.5720707,28.8010125 C67.5720707,28.8010125 68.4711793,28.1812977 70.0473558,28.1812977 C72.9334164,28.1812977 73.5262026,30.2579132 73.5262026,32.1574226 C73.5262026,34.2759678 73.0569461,35.1392816 73.0569461,35.1392816 Z M82.8888164,25.7246552 C80.554574,25.7246552 78.3174353,26.9138629 78.3174353,26.9138629 L78.7264906,28.8568666 C78.7264906,28.8568666 80.1877376,28.2529537 82.0547563,28.2529537 C83.5080286,28.2529537 84.8981287,28.5564747 85.0984345,30.3788522 C81.672596,30.371186 77.5043284,30.2403903 77.5043284,34.5383414 C77.5043284,36.829299 79.0889487,38.372093 81.129378,38.372093 C82.5405877,38.372093 84.22669,37.3446588 85.2327535,36.6268474 L85.3329846,38.1733963 L88.0152993,38.1733963 C88.0154556,38.1733963 88.0152993,34.3806356 88.0152993,30.7814087 C88.0152993,27.6948819 86.5140224,25.7246552 82.8888164,25.7246552 Z M80.1722573,33.9716645 C80.1722573,33.4481691 80.2832777,32.9565902 80.2832777,32.9565902 L85.128926,32.5729647 C85.1323661,33.3808938 85.1362752,34.2443641 85.1387771,34.7558126 C84.5392671,35.1996729 83.4188995,35.872895 82.1368488,35.872895 C80.839005,35.872895 80.1722573,34.9274427 80.1722573,33.9716645 Z M77.3676638,14.1012095 C77.3676638,16.3926365 78.9524406,17.9352741 80.9928699,17.9352741 C82.4039232,17.9352741 84.0901819,16.9078399 85.0962453,16.1900284 L85.1964764,17.7365774 L87.8786348,17.7365774 C87.8786348,17.7365774 87.8786348,13.9436602 87.8786348,10.3445897 C87.8786348,7.25790646 86.3775143,5.28767977 82.7521518,5.28767977 C80.4180658,5.28767977 78.1809272,6.47704396 78.1809272,6.47704396 L78.5899825,8.41989118 C78.5899825,8.41989118 80.0512295,7.81613474 81.9180918,7.81613474 C83.3715204,7.81613474 84.7617769,8.11965573 84.9619263,9.94218973 C81.5359315,9.93436702 77.3676638,9.80341493 77.3676638,14.1012095 Z M80.0357492,13.5346891 C80.0357492,13.0111937 80.1466132,12.5197713 80.1466132,12.5197713 L84.9925742,12.1359893 C84.9957015,12.9440749 84.9997671,13.8073887 85.002269,14.3189936 C84.4026026,14.7626975 83.2825478,15.4359196 82.0001843,15.4359196 C80.7024969,15.4359196 80.0357492,14.4904673 80.0357492,13.5346891 Z M90.4715077,17.7448694 L93.2775085,17.7448694 L93.2775085,0 L90.4715077,0 L90.4715077,17.7448694 Z M107.619308,26.1739914 C107.011979,25.8441861 106.19684,25.5749286 105.150277,25.5749286 C101.824044,25.5749286 99.0923177,27.8527441 99.0923177,32.2093654 C99.0923177,35.8031164 101.037989,38.3625493 103.655411,38.3625493 C105.161379,38.3625493 106.746625,37.327136 107.619308,36.6532881 L107.619308,38.0849997 L110.425308,38.0849997 L110.425308,20.3398174 L107.619308,20.3398174 L107.619308,26.1739914 Z M104.800798,35.8821258 C103.539075,35.8821258 101.95164,34.9413672 101.95164,31.6625582 C101.95164,29.8686553 102.420583,28.8010125 102.420583,28.8010125 C102.420583,28.8010125 103.033228,28.1459391 105.337448,28.1459391 C106.192461,28.1459391 106.995874,28.2615587 107.619308,28.3878171 L107.619308,34.7362558 C107.288123,34.9765693 105.962446,35.8821258 104.800798,35.8821258 Z M104.694781,17.7448694 L107.500782,17.7448694 L107.500782,5.60356063 L104.694781,5.60356063 L104.694781,17.7448694 Z M104.643649,3.3654845 L107.552226,3.3654845 L107.552226,0.455437933 L104.643649,0.455437933 L104.643649,3.3654845 Z M126.289025,8.17081622 C126.289025,10.3403655 126.289025,17.7448694 126.289025,17.7448694 L123.483024,17.7448694 C123.483024,17.7448694 123.483024,10.2738725 123.483024,9.16351759 C123.483024,8.05284982 123.281467,7.53968032 122.18862,7.53968032 C121.335015,7.53968032 119.686753,8.47386785 119.686753,8.47386785 C119.686597,10.9525704 119.686597,17.7448694 119.686597,17.7448694 L116.880752,17.7448694 C116.880752,17.7448694 116.880752,10.2738725 116.880752,9.16351759 C116.880752,8.05284982 116.679195,7.53968032 115.586348,7.53968032 C114.732586,7.53968032 113.084637,8.47386785 113.084637,8.47386785 L113.084637,17.7448694 L110.278637,17.7448694 L110.278637,5.60356063 L113.084637,5.60356063 L113.084637,6.79402 C113.89321,6.24830804 115.592447,5.21618024 116.886381,5.21618024 C117.901514,5.21618024 119.009685,5.77221817 119.468621,6.94421595 C120.144907,6.4690648 122.063527,5.21618024 123.48881,5.21618024 C124.80917,5.21618024 126.289025,6.15584366 126.289025,8.17081622 Z M96.7721483,7.82458327 L95.1385852,7.82458327 L95.1385852,5.60356063 L96.7721483,5.60356063 L97.0567358,2.71056757 L99.5783055,2.71056757 C99.5783055,2.71056757 99.5783055,3.94467763 99.5783055,5.60356063 L103.04433,5.60356063 L102.424023,7.82458327 L99.5783055,7.82458327 C99.5783055,10.232725 99.5783055,12.790124 99.5783055,13.775472 C99.5783055,15.2788396 100.281487,15.6361808 101.545086,15.6361808 C102.250769,15.6361808 102.753957,15.4540682 102.753957,15.4540682 L102.753957,17.4882847 C102.753957,17.4882847 101.672681,17.9953525 100.092127,17.9953525 C98.1017346,17.9953525 96.7721483,16.9929509 96.7721483,14.3961255 C96.7721483,13.70585 96.7721483,10.6418525 96.7721483,7.82458327 Z M70.3147429,18.0069301 C73.1036998,18.0069301 75.1322452,16.3206676 75.1322452,16.3206676 L74.7067714,14.344965 C74.7067714,14.344965 72.8707133,15.4723734 71.2086915,15.4723734 C69.1656039,15.4723734 67.5484593,15.1165967 67.0903048,12.7447523 L75.8208842,12.7447523 C75.8890601,12.0699657 75.9556724,11.651451 75.9556724,10.7451123 C75.9556724,7.9666436 74.2992797,5.21618024 70.1901187,5.21618024 C66.6451288,5.21618024 64.0929111,7.51104922 64.0929111,12.0197439 C64.0929111,15.6133385 66.3192605,18.0069301 70.3147429,18.0069301 Z M69.8888,7.69707316 C71.762386,7.69707316 73.0017487,8.64987873 73.0017487,10.0734547 C73.0017487,10.2216168 73.0017487,10.5922566 73.0017487,10.5922566 L66.9800663,10.5922566 C67.0710717,9.25989333 67.4354062,8.46197734 67.4354062,8.46197734 C67.4354062,8.46213379 68.3614099,7.69707316 69.8888,7.69707316 Z M140.232558,10.7451123 C140.232558,7.9666436 138.576165,5.21618024 134.467004,5.21618024 C130.922171,5.21618024 128.369797,7.51104922 128.369797,12.0197439 C128.369797,15.6133385 130.596146,18.0069301 134.591629,18.0069301 C137.380586,18.0069301 139.409131,16.3206676 139.409131,16.3206676 L138.983344,14.344965 C138.983344,14.344965 137.147599,15.4723734 135.485577,15.4723734 C133.44249,15.4723734 131.825345,15.1165967 131.367347,12.7447523 L140.097926,12.7447523 C140.165946,12.0699657 140.232558,11.651451 140.232558,10.7451123 Z M137.278634,10.5922566 L131.256952,10.5922566 C131.347957,9.25989333 131.712292,8.46197734 131.712292,8.46197734 C131.712292,8.46213379 132.638296,7.69707316 134.165529,7.69707316 C136.039272,7.69707316 137.278634,8.64987873 137.278634,10.0734547 C137.278634,10.2216168 137.278634,10.5922566 137.278634,10.5922566 Z M62.6813888,6.02723838 C62.6813888,2.62404844 59.4713364,1.91030476 57.95067,1.91030476 C57.4155831,1.91030476 51.1627907,1.91030476 51.1627907,1.91030476 L51.1627907,17.7448694 L54.1623735,17.7448694 L54.1623735,11.5093906 C54.7529706,11.5093906 55.5329278,11.5093906 56.5042779,11.5093906 L59.8276961,17.7448694 L63.3056047,17.7448694 L59.6517836,10.889363 C61.3449224,10.0887872 62.6813888,8.49764887 62.6813888,6.02723838 Z M54.1623735,4.33769038 C55.056322,4.33769038 56.7286641,4.33769038 57.5828955,4.33769038 C58.7833228,4.33769038 59.7219922,5.12465458 59.7219922,6.49957335 C59.7219922,8.41566692 58.4788768,9.24080593 58.4788768,9.24080593 L54.1623735,9.24080593 L54.1623735,4.33769038 Z M60.5471394,29.4728264 C61.5785343,28.6564489 62.2809336,27.4957158 62.2809336,25.9682542 C62.2809336,22.9102021 59.0740085,22.3083231 57.2545254,22.3083231 C56.7994982,22.3083231 51.1627907,22.3083231 51.1627907,22.3083231 L51.1627907,38.1286504 C51.1627907,38.1286504 56.3413437,38.1286504 57.9042291,38.1286504 C60.7585472,38.1286504 62.9981877,36.0270023 62.9981877,32.9838133 C62.9981877,30.9991928 61.8296592,29.9769216 60.5471394,29.4728264 Z M56.9039512,24.7527622 C58.1558232,24.7527622 59.2352226,25.2679656 59.2352226,26.657904 C59.2352226,28.5703991 58.1447211,28.9128772 58.1447211,28.9128772 L54.1720682,28.9128772 L54.1720682,24.7527622 C55.0785261,24.7527622 56.2243814,24.7527622 56.9039512,24.7527622 Z M59.0796377,35.6651239 L54.1720682,35.6651239 L54.1720682,31.3407321 C54.9388906,31.3407321 56.756341,31.3407321 57.7273783,31.3407321 C58.9794067,31.3407321 59.925269,32.0576049 59.925269,33.4472303 C59.925269,34.9202459 59.0796377,35.6651239 59.0796377,35.6651239 Z M98.8210215,25.9113049 L98.8210215,28.8612473 L97.3188064,28.8612473 C95.4248927,28.8612473 93.9720895,30.1532454 93.3630411,30.8006525 L93.3630411,38.1192632 L90.5568839,38.1192632 L90.5568839,25.9776415 L93.3630411,25.9776415 L93.3630411,28.3846881 C94.247764,27.2499263 95.6929052,25.9113049 97.591979,25.9113049 L98.8210215,25.9113049 Z" id="2_lines_wordmark-copy" fill="#ffffff"></path>
                    </g>
                </g>
            </g>
        </g>
    </g>
</svg>
