<svg xmlns="http://www.w3.org/2000/svg" width="100" height="70"><path d="M0 66.001h21L22.5 48 2.999 43.501 0 66.001z" fill="#9c0000"/><path d="M3.75 40.5L22.5 45 27 29.25l-15.75-8.249L3.75 40.5z" fill="#b50808"/><path d="M12.749 18l15 8.25L39.75 18 28.5 5.25 12.749 18z" fill="#c61818"/><path d="M96.749 66.001H75.75L74.249 48l19.501-4.499 2.999 22.5z" fill="#9c0000"/><path d="M92.999 40.5L74.249 45 69.75 29.25l15.749-8.249 7.5 19.499z" fill="#b50808"/><path d="M83.999 18l-15 8.25L57 18 68.25 5.25 83.999 18z" fill="#c61818"/><path d="M32.25 3L43.5 16.5h10.499L63.75 3l-9.751-3H43.236L32.25 3z" fill="#ce3129"/></svg>