<svg xmlns="http://www.w3.org/2000/svg" viewBox="0 0 100 80"><rect fill="#2db67e" x="51.9" y="6.71" width="13.87" height="31.58" rx="6.94" ry="6.94"/><path fill="#2db67e" d="M76.27 24.34a7 7 0 0 1 7 7 7 7 0 0 1-7 7h-7v-7a7 7 0 0 1 7-7z"/><rect fill="#36c4f0" x="25.61" y="15.45" width="13.87" height="31.58" rx="6.94" ry="6.94" transform="rotate(-90 32.54 31.24)"/><path fill="#36c4f0" d="M34.39 13.8a7 7 0 0 1 7-7 7 7 0 0 1 7 7v7h-7a7 7 0 0 1-7-7z"/><rect fill="#df1d5a" x="34.23" y="41.7" width="13.87" height="31.58" rx="6.94" ry="6.94" transform="rotate(180 41.165 57.495)"/><path fill="#df1d5a" d="M23.72 55.66a7 7 0 0 1-7-7 7 7 0 0 1 7-7h7v7a7 7 0 0 1-7 7z"/><rect fill="#ebb22e" x="60.52" y="32.97" width="13.87" height="31.58" rx="6.94" ry="6.94" transform="rotate(90 67.46 48.76)"/><path fill="#ebb22e" d="M65.62 66.2a7 7 0 0 1-7 7 7 7 0 0 1-7-7v-7h7a7 7 0 0 1 7 7z"/></svg>