<svg width="401" height="401" viewBox="0 0 401 401" xmlns="http://www.w3.org/2000/svg">
  <g fill="none" fill-rule="evenodd">
    <path d="M350.5.046h-300c-27.5 0-50 22.5-50 50v300c0 27.5 22.5 50 50 50h300c27.5 0 50-22.5 50-50v-300c0-27.5-22.5-50-50-50" fill="#E44332"/>
    <path d="M85.952 187.458c7.065-4.073 158.399-91.156 161.871-93.162 3.466-2.001 3.64-8.139-.238-10.352-3.881-2.212-11.249-6.398-13.991-8.003-2.791-1.628-7.811-2.533-12.467.149-1.933 1.115-131.266 75.481-135.589 77.938-5.175 2.941-11.578 2.979-16.735-.005C64.732 151.666.5 114.341.5 114.341v33.733c16.626 9.682 57.965 33.758 67.984 39.414 5.979 3.376 11.703 3.293 17.468-.03" fill="#FFF"/>
    <path d="M85.952 254.855c7.065-4.072 158.399-91.156 161.871-93.162 3.466-2 3.64-8.138-.238-10.351-3.881-2.213-11.249-6.399-13.991-8.003-2.791-1.628-7.811-2.534-12.467.148-1.933 1.115-131.266 75.481-135.589 77.938-5.175 2.941-11.578 2.979-16.735-.005C64.732 219.063.5 181.739.5 181.739v33.733c16.626 9.682 57.965 33.758 67.984 39.414 5.979 3.376 11.703 3.292 17.468-.031" fill="#FFF"/>
    <path d="M85.952 322.253c7.065-4.073 158.399-91.156 161.871-93.162 3.466-2 3.64-8.139-.238-10.352-3.881-2.212-11.249-6.398-13.991-8.002-2.791-1.629-7.811-2.534-12.467.148-1.933 1.115-131.266 75.481-135.589 77.938-5.175 2.941-11.578 2.979-16.735-.005C64.732 286.461.5 249.136.5 249.136v33.733c16.626 9.682 57.965 33.758 67.984 39.414 5.979 3.376 11.703 3.293 17.468-.03" fill="#FFF"/>
  </g>
</svg>
