<svg id="Layer_1" xmlns="http://www.w3.org/2000/svg" viewBox="0 0 2500 1357.8"><style>.st2{fill:#af4a46}</style><path d="M2389.7 1147.1c0 57.7-46 103.8-102.2 103.8H212.4c-56.2 0-102.1-46.1-102.1-103.8V221c0-56.4 46-102.5 102.1-102.5h2075.1c56.2 0 102.2 46.1 102.2 102.5v926.1z" fill="#fff"/><path d="M2389.7 1147.1c0 57.7-46 103.8-102.2 103.8H212.4c-56.2 0-102.1-46.1-102.1-103.8V221c0-56.4 46-102.5 102.1-102.5h2075.1c56.2 0 102.2 46.1 102.2 102.5v926.1z" fill="none" stroke="#b2684d" stroke-width=".536" stroke-miterlimit="2.613"/><path class="st2" d="M728.4 641.2c0 43.6-35.8 79.4-77.9 79.4-43.4 0-79.2-35.9-79.2-79.4 0-43.6 35.8-78.1 79.2-78.1 42.1-.1 77.9 34.5 77.9 78.1zm60 430.4V185.2H2322v886.4h-655v-132c154.5-32 268.2-166.5 266.9-334.3 0-185.7-139.2-340.7-334.6-340.7-196.6 0-334.6 155-334.6 340.7 0 161.4 103.5 286.9 240.1 327.9v-146c-71.5-44.8-102.1-111.4-102.1-181.9 0-110.2 74.1-204.9 196.6-204.9s195.4 94.8 195.4 204.9c0 85.8-60 178-127.7 190.9V684.7h-120v386.8l-758.6.1zm429-795.5H997.8c-74.1 0-162.2 52.5-162.2 174.2 0 165.2 260.5 235.7 260.5 304.9 0 28.2-19.2 47.4-43.4 47.4H836.9v130.7h219.6c144.3 0 185.2-106.3 185.2-198.6 0-137.1-260.5-228-260.5-286.9 0-26.9 15.3-50 48.5-50h187.7V276.1zm747.1 0V736c0 144.7 71.5 197.3 176.2 197.3h137.9V794.9h-104.7c-47.3 0-71.5-16.6-71.5-76.9V276.1h-137.9z"/><path class="st2" d="M386.1 309.4H165.2V187.7h568.2v121.7H517.6v760.9H386.1V309.4zm421.4 860.8h3.8c3.8 12.8 10.2 20.5 21.7 20.5s17.9-6.4 17.9-15.4-11.5-14.1-16.6-15.4l-2.6-1.3c-12.8-3.8-23-10.2-23-20.5 0-14.1 12.8-20.5 28.1-20.5 7.7 0 16.6 1.3 20.4 3.9v15.4h-3.8c-2.6-10.3-7.7-15.4-17.9-15.4s-15.3 5.1-15.3 12.8c0 6.4 6.4 11.6 14 14.1l3.8 1.3c14 3.9 24.3 10.3 24.3 23.1 0 10.2-8.9 21.8-29.4 21.8-8.9 0-19.2-2.6-24.3-6.4l-1.1-18zm238.8-42.3c6.4 6.4 10.2 15.4 10.2 28.2 0 11.5-3.8 21.8-10.2 28.2s-16.6 10.2-30.6 10.2c-12.8 0-23-3.8-29.4-10.2s-10.2-16.7-10.2-28.2c0-12.8 3.8-21.8 10.2-28.2 6.4-6.4 16.6-10.3 29.4-10.3 14 .1 24.2 3.9 30.6 10.3zm-56.2 28.2c0 15.4 5.1 34.6 25.5 34.6 21.7 0 26.8-19.2 26.8-34.6 0-16.6-5.1-34.6-26.8-34.6-20.4 0-25.5 18-25.5 34.6zm203.1 23.1c0 5.1 0 7.7 2.6 9h12.8c12.8 0 19.2-1.3 21.7-14.1h3.8l-1.3 17.9h-62.6v-2.6c10.2-1.3 10.2-1.3 10.2-6.4v-53.8c0-6.4 0-6.4-10.2-7.7v-2.6h34.5v2.6c-11.5 1.3-11.5 1.3-11.5 7.7v50zm233.7-60.2v2.6c-11.5 1.3-11.5 1.3-11.5 7.7v35.9c0 6.4-1.3 12.8-2.6 15.4-6.4 11.5-19.2 14.1-30.6 14.1-11.5 0-24.3-2.6-29.4-14.1-2.6-2.6-3.9-9-3.9-15.4v-35.9c0-6.4 0-6.4-10.2-7.7v-2.6h33.2v2.6c-10.2 1.3-11.5 1.3-11.5 7.7v34.6c0 9 2.6 15.4 6.4 20.5 3.8 3.8 8.9 6.4 15.3 6.4 7.7 0 12.8-2.6 16.6-6.4 2.6-5.1 5.1-11.5 5.1-20.5v-34.6c0-6.4 0-6.4-11.5-7.7v-2.6h34.6zm149.4 64c0 5.1 1.3 5.1 14.1 6.4v2.6H1552v-2.6c12.8-1.3 12.8-1.3 12.8-6.4v-60.2h-6.4c-15.3 0-17.9 2.6-19.2 14.1h-2.6V1119h68.9v17.9h-3.8c-1.3-11.5-3.9-14.1-17.9-14.1h-7.7l.2 60.2zm162.2 0c0 5.1 0 5.1 11.5 6.4v2.6h-34.5v-2.6c11.5-1.3 11.5-1.3 11.5-6.4v-53.8c0-6.4 0-6.4-11.5-7.7v-2.6h34.5v2.6c-11.5 1.3-11.5 1.3-11.5 7.7v53.8zm194-55.1c7.7 6.4 10.2 15.4 10.2 28.2 0 11.5-2.5 21.8-10.2 28.2-6.4 6.4-16.6 10.2-29.4 10.2-12.8 0-23-3.8-29.4-10.2s-10.2-16.7-10.2-28.2c0-12.8 3.8-21.8 10.2-28.2 6.4-6.4 16.6-10.3 29.4-10.3 12.9.1 23.1 3.9 29.4 10.3zm-56.1 28.2c0 15.4 5.1 34.6 26.8 34.6 21.7 0 26.8-19.2 26.8-34.6 0-16.6-5.1-34.6-26.8-34.6-21.7 0-26.8 18-26.8 34.6zm203-37.1c15.3 19.2 31.9 38.4 47.2 58.9v-51.2c-1.3-3.9-3.8-3.9-11.5-5.1v-2.6h28.1v2.6c-6.4 1.3-8.9 1.3-10.2 5.1v65.3h-8.9c-16.6-20.5-33.2-42.3-51.1-64v43.5c0 5.1 0 9 1.3 12.8 0 3.8 3.8 5.1 11.5 5.1v2.6h-29.4v-2.6c6.4 0 8.9-1.3 10.2-5.1 1.3-3.9 1.3-7.7 1.3-12.8v-42.3c0-6.4 0-6.4-11.5-7.7v-2.6l23 .1zm176.2 51.2h3.8c3.8 12.8 11.5 20.5 21.7 20.5 11.5 0 17.9-6.4 17.9-15.4s-11.5-14.1-16.6-15.4l-2.6-1.3c-12.8-3.8-23-10.2-23-20.5 0-14.1 14.1-20.5 28.1-20.5 7.7 0 16.6 1.3 20.4 3.9v15.4h-3.8c-1.3-10.3-7.7-15.4-17.9-15.4s-15.3 5.1-15.3 12.8c0 6.4 6.4 11.6 15.3 14.1l3.8 1.3c14.1 3.9 23 10.3 23 23.1 0 10.2-7.7 21.8-29.4 21.8-8.9 0-19.2-2.6-24.3-6.4l-1.1-18z"/></svg>