<?xml version="1.0" encoding="UTF-8"?>
<svg width="416px" height="416px" viewBox="0 0 416 416" version="1.1" xmlns="http://www.w3.org/2000/svg" xmlns:xlink="http://www.w3.org/1999/xlink" style="background: #FFFFFF;">
    <!-- Generator: sketchtool 52.5 (67469) - http://www.bohemiancoding.com/sketch -->
    <title>8A8E898B-A1AC-4930-954D-A82CB3BD7B6C</title>
    <desc>Created with sketchtool.</desc>
    <g id="Umniy-navigator" stroke="none" stroke-width="1" fill="none" fill-rule="evenodd">
        <g id="COVER">
            <rect fill="#4A90E2" x="0" y="0" width="416" height="416"></rect>
            <g id="Group-5" transform="translate(85.000000, 89.000000)">
                <g id="Group-4" transform="translate(123.113498, 118.527248) rotate(27.000000) translate(-123.113498, -118.527248) translate(28.113498, 35.027248)">
                    <polygon id="Fill-1" fill="#0B1F35" points="0.95455713 78.0779227 101.245886 166.615719 189.781718 66.3222559 128.493568 12.2163996 108.817866 34.5030696 97.6746918 24.6657665 90.2964759 33.0239573 104.226134 45.3202414 82.0921758 70.3934347 87.6637631 75.3134654 97.501614 64.1687512 117.002859 81.3850659 121.92075 75.8127088 102.419505 58.5970837 129.472044 27.9522229 174.0475 67.3021246 146.994272 97.9469855 138.636891 90.5686634 133.717621 96.1410205 142.075691 103.519343 100.266721 150.879895 55.6926438 111.529994 72.908021 92.0277783 67.3364337 87.1098164 50.1210565 106.610653 16.6901538 77.0987435 70.7959205 15.8083322 79.1533014 23.1859647 86.5315172 14.829153 69.8160659 0.0725089092"></polygon>
                    <polygon id="Fill-2" fill="#FFB005" points="76.5354474 34.0263539 39.9211713 73.2317514 41.0829534 75.7417597 61.4336502 74.8009415 76.122628 89.1498107 78.624875 88.0412875"></polygon>
                    <polygon id="Fill-3" fill="#FFB005" points="174.145807 67.2726297 148.210812 96.2010286 134.40196 83.6535117 126.559071 92.403854 140.466347 105.040773 99.8677437 150.573406 108.456074 158.372398 182.476733 74.8122362"></polygon>
                </g>
            </g>
        </g>
    </g>
</svg>