<svg xmlns="http://www.w3.org/2000/svg" width="1920" height="990" viewBox="0 0 1920 990">
    <defs>
        <linearGradient id="a" x1="50%" x2="50%" y1="0%" y2="98.898%">
            <stop offset="0%" stop-color="#B1B1B1"/>
            <stop offset="100%" stop-color="#C4C4C4"/>
        </linearGradient>
        <filter id="b" width="107.3%" height="113.4%" x="-3.1%" y="-5.7%" filterUnits="objectBoundingBox">
            <feOffset dx="8" dy="8" in="SourceAlpha" result="shadowOffsetOuter1"/>
            <feGaussianBlur in="shadowOffsetOuter1" result="shadowBlurOuter1" stdDeviation="16"/>
            <feColorMatrix in="shadowBlurOuter1" result="shadowMatrixOuter1" values="0 0 0 0 0.109803922 0 0 0 0 0.152941176 0 0 0 0 0.22745098 0 0 0 0.1 0"/>
            <feMerge>
                <feMergeNode in="shadowMatrixOuter1"/>
                <feMergeNode in="SourceGraphic"/>
            </feMerge>
        </filter>
    </defs>
    <g fill="none" fill-rule="evenodd">
        <path fill="#FFF" d="M0-120h1920v5850H0z"/>
        <path fill="url(#a)" d="M0 0h1920v892H0z"/>
        <g filter="url(#b)" transform="translate(272 178)">
            <path fill="#D62E3A" d="M958.974 9.43l-60.338 106.298-297.156 51.524-304.137 11.551L23.08 306.796 0 496.84l23.081 67.074L29.781 669v44.717H818.26l48.09-191.45 16.677-12.733 121.934 110.557 7.888-23.658 32.959-.623 23.14 156.1L1223.506 774l143.15-69.265 41.285-111.753-20.248-178.002-90.5-155.952 14.314-65.795 72.235-39.67 24.943 20.573L1434 139.954l-46.307-53.83-146.746 62.215-28.13 138.43 84.376 162.27-6.524 160.645-59.736 31.403-31.08-33.242 19.095-217.855-18.282-124.743-42.893-81.422-58.395-25.884-28.94-26.33-102.586-4.567L998.458 0z"/>
            <path fill="#A61324" d="M266.621 681.022L161 398l264 313H282.256z"/>
            <path fill="#BF202B" d="M298.028 179L382 292.862 161 397l13.238-128.7z"/>
            <path fill="#EC4E4F" d="M161 398l406 167.078V715l-141.541-3.73zM543 277.725L297 179l83.721 114z"/>
            <path fill="#BF202B" d="M550.576 226.983l50.376-59.868L779.556 19H798l-48.893 573.191-18.96 10.348L720.043 677 516 466.176z"/>
            <path fill="#A61324" d="M700.33 626.533L516 466l205 211z"/>
            <path fill="#F15A69" d="M700 626l-98.589-459L551 226.808z"/>
            <path fill="#DA313E" d="M699.494 627L601 167.218 779.56 19H798l-44.68 524.31z"/>
            <path fill="#EC4E4F" d="M753 543l163-421.153-17.29-6.239L824.01 19h-25.92z"/>
            <path fill="#F15A69" d="M916 122l48.424 4.925 105.727 4.726L1099 158z"/>
            <path fill="#BF202B" d="M947 323.314L1126.23 196 1180 428zM915.12 122L818 492l129-168.837z"/>
            <path fill="#A61324" d="M794 565l71.898-43.234 16.672-12.762L992 420.096 947.338 322 817.82 491.054z"/>
            <path fill="#EC4E4F" d="M1126 196l74.607 69.563L1219 390.424 1179.928 428z"/>
            <path fill="#ED1D2A" d="M1058 680.848l11.407 71.083L1223.876 774 1291 609.837l-59.702 31.374L1200.236 608z"/>
            <path fill="#BF202B" d="M1224 773l143-69.131L1291.093 609zM1343.816 663L1400 590.545 1295 512z"/>
            <path fill="#A61324" d="M1380.065 551L1389 415l-92 34.179z"/>
            <path fill="#BF202B" d="M1387 414.788L1296.435 449 1212 286z"/>
            <path fill="#A61324" d="M1212 286l99-93-14.36 65.417z"/>
            <path fill="#EC4E4F" d="M1241 147.733L1388 85l-3.959 68-72.358 40zM23.08 306.68L0 497l35.736-11.942 125.075-88.07L174 268z"/>
            <path fill="#BF202B" d="M820.8 549.782L780 714h37.504L865 523z"/>
            <path fill="#EF2130" d="M23 306l151.338-38.324L298 179z"/>
            <path fill="#BF202B" d="M550.487 227L699 627 516 466.437zM1035 515.528L1005.018 618 883 508.146 992.532 420zM1180.248 427L1035 516.352 1057.62 680 1200 607.15zM1383 152.429L1408.312 173 1434 138.823 1387.01 85z"/>
            <path fill="#EC4E4F" d="M1212 287.75l84.435-27.75L1387 416z"/>
            <path fill="#BF202B" d="M49.155 653.204L36 485l247 224H68.213z"/>
            <path fill="#ED1D2A" d="M1199.826 608L1219 390l-39 37.565z"/>
            <path fill="#FFF" d="M1013 597l222.747-4.193 85.027-32.02L1370 496l-48.48 40.957-128.287 6.781-158.12-26.142z"/>
            <path fill="#C9C9CB" d="M1235 591.798L1025.557 550 1013 596l32.905-.622z"/>
            <path fill="#A61324" d="M0 496.907l23.341 66.977L64 677 36.141 485z"/>
        </g>
    </g>
</svg>
