<svg xmlns="http://www.w3.org/2000/svg" width="416" height="416" viewBox="0 0 416 416">
    <defs>
        <linearGradient id="a" x1="50%" x2="50%" y1="0%" y2="98.898%">
            <stop offset="0%" stop-color="#EBEBEB"/>
            <stop offset="100%" stop-color="#F4F4F4"/>
        </linearGradient>
        <filter id="b" width="135.3%" height="165.8%" x="-14.9%" y="-27.8%" filterUnits="objectBoundingBox">
            <feOffset dx="8" dy="8" in="SourceAlpha" result="shadowOffsetOuter1"/>
            <feGaussianBlur in="shadowOffsetOuter1" result="shadowBlurOuter1" stdDeviation="16"/>
            <feColorMatrix in="shadowBlurOuter1" result="shadowMatrixOuter1" values="0 0 0 0 0.109803922 0 0 0 0 0.152941176 0 0 0 0 0.22745098 0 0 0 0.1 0"/>
            <feMerge>
                <feMergeNode in="shadowMatrixOuter1"/>
                <feMergeNode in="SourceGraphic"/>
            </feMerge>
        </filter>
    </defs>
    <g fill="none" fill-rule="evenodd">
        <path fill="#FFF" d="M0 0h416v416H0z"/>
        <path fill="url(#a)" d="M0 0h416v416H0z"/>
        <g filter="url(#b)" transform="translate(62 76)">
            <path fill="#D62E3A" d="M197.279 1.925l-12.413 21.7-61.13 10.517L61.168 36.5 4.749 62.628 0 101.422l4.748 13.693 1.379 21.45v9.13H168.33l9.893-39.082 3.43-2.6 25.085 22.569 1.622-4.83 6.78-.127 4.761 31.866L251.697 158l29.45-14.14 8.492-22.812-4.165-36.336-18.618-31.835 2.945-13.431 14.86-8.099 5.131 4.2L295 28.57l-9.526-10.988-30.189 12.7L249.5 58.54l17.357 33.125-1.342 32.793-12.289 6.41-6.393-6.785 3.928-44.472-3.761-25.464-8.824-16.621-12.013-5.284-5.953-5.375-21.104-.932L205.4 0z"/>
            <path fill="#A61324" d="M54.849 139.02L33.12 81.245l54.31 63.895H58.064z"/>
            <path fill="#BF202B" d="M61.31 36.54l17.274 23.243-45.463 21.258 2.723-26.272z"/>
            <path fill="#EC4E4F" d="M33.12 81.245l83.522 34.107v30.604l-29.117-.761zM111.705 56.693L61.098 36.54l17.223 23.271z"/>
            <path fill="#BF202B" d="M113.264 46.335l10.363-12.221 36.742-30.235h3.794l-10.058 117.008-3.9 2.112-2.079 15.2-41.975-43.036z"/>
            <path fill="#A61324" d="M144.07 127.897l-37.92-32.77 42.173 43.072z"/>
            <path fill="#F15A69" d="M144.003 127.788L123.72 34.09l-10.37 12.21z"/>
            <path fill="#DA313E" d="M143.899 127.992l-20.262-93.857L160.37 3.879h3.793l-9.192 107.03z"/>
            <path fill="#EC4E4F" d="M154.906 110.845l33.532-85.972-3.557-1.273-15.367-19.721h-5.332z"/>
            <path fill="#F15A69" d="M188.438 24.904l9.962 1.006 21.75.965 5.934 5.378z"/>
            <path fill="#BF202B" d="M194.815 66l36.871-25.99 11.062 47.36zM188.257 24.904l-19.98 75.53 26.538-34.465z"/>
            <path fill="#A61324" d="M163.34 115.336l14.791-8.826 3.43-2.605 22.512-18.149-9.188-20.025-26.645 34.51z"/>
            <path fill="#EC4E4F" d="M231.639 40.01l15.348 14.2L250.77 79.7l-8.038 7.67z"/>
            <path fill="#ED1D2A" d="M217.65 138.984l2.347 14.51L251.774 158l13.808-33.511-12.281 6.404-6.39-6.78z"/>
            <path fill="#BF202B" d="M251.8 157.796l29.417-14.112-15.616-19.366zM276.448 135.341l11.558-14.79-21.6-16.034z"/>
            <path fill="#A61324" d="M283.905 112.478l1.838-27.762-18.926 6.977z"/>
            <path fill="#BF202B" d="M285.331 84.673l-18.63 6.983-17.37-33.274z"/>
            <path fill="#A61324" d="M249.33 58.382l20.367-18.984-2.955 13.354z"/>
            <path fill="#EC4E4F" d="M255.296 30.157l30.241-12.806-.814 13.881-14.886 8.166zM4.748 62.604L0 101.454l7.352-2.437 25.73-17.978 2.713-26.331z"/>
            <path fill="#BF202B" d="M168.853 112.23l-8.393 33.522h7.715l9.771-38.99z"/>
            <path fill="#EF2130" d="M4.732 62.465l31.132-7.823 25.44-18.102z"/>
            <path fill="#BF202B" d="M113.245 46.339l30.552 81.653-37.646-32.776zM212.918 105.237l-6.168 20.918-25.1-22.425 22.532-17.994zM242.799 87.165l-29.88 18.24 4.653 33.406 29.29-14.87zM284.508 31.116l5.207 4.2L295 28.338l-9.667-10.988z"/>
            <path fill="#EC4E4F" d="M249.33 58.74l17.37-5.665 18.631 31.845z"/>
            <path fill="#BF202B" d="M10.112 133.341L7.406 99.005l50.812 45.726H14.033z"/>
            <path fill="#ED1D2A" d="M246.826 124.114l3.945-44.502-8.023 7.669z"/>
            <path fill="#FFF" d="M208.393 121.868l45.823-.856 17.491-6.536 10.127-13.225-9.973 8.36-26.391 1.385-32.528-5.337z"/>
            <path fill="#C9C9CB" d="M254.062 120.806l-43.086-8.532-2.583 9.39 6.769-.127z"/>
            <path fill="#A61324" d="M0 101.436l4.802 13.672 8.364 23.091-5.731-39.194z"/>
        </g>
        <g fill="#ED1D2A">
            <path d="M352 287.945c0-.933-.05-1.864-.15-2.791-1.541-14.276-14.933-24.233-28.64-23.06-11.323.97-19.715 4.083-25.263 8.58-.869-2.95-1.965-5.35-3.299-7.17H279v73.737h21.396v-41.117c1.033-9.668 6.57-14.578 16.618-14.722 9.249-.133 13.429 2.6 13.651 17.473l-.065 38.369H352v-49.3z"/>
            <path fill-rule="nonzero" d="M224 337.186c-22.091 0-40-16.027-40-38.118C184 276.976 201.909 261 224 261s40 15.976 40 38.068c0 22.091-17.909 38.118-40 38.118zm.5-18.095c11.322 0 20.5-9.178 20.5-20.5s-9.178-20.5-20.5-20.5-20.5 9.178-20.5 20.5 9.178 20.5 20.5 20.5zM138 234h21.403v75.454a8.615 8.615 0 0 0 7.9 8.586l4.66.388L173.025 337H162c-13.255 0-24-10.745-24-24v-5.603V234z"/>
            <path d="M64 325.983l9.119-13.745c3.262 2.152 6.352 4.208 10.958 6.069 4.606 1.861 8.22 2.515 12.386 2.515 5.35 0 8.735-1.252 8.735-5.21 0-2.082-.766-3.374-3.384-4.633-3.291-1.583-14.986-4.61-21.242-7.473-5.125-2.345-6.77-4.29-9.407-7.275-2.638-2.985-3.614-7.012-3.614-12.08 0-4.442 1.215-8.451 3.645-12.027 2.43-3.575 5.409-6.481 10.234-8.564S91.325 261 98.337 261c12.35.848 20.852 6.474 24.393 8.557l-8.355 14.595c-12.7-8.296-22.596-7.064-24.745-6.094-2.149.971-2.811 3.383-2.811 4.738 0 1.356 1.94 3.269 4.16 4.24 2.222.973 7.914 2.99 12.728 4.667 9.6 3.345 14.396 7.134 17.069 10.084 2.672 2.95 3.644 7.258 3.644 12.325 0 4.374-1.215 8.33-3.644 11.871-2.43 3.541-5.303 6.689-10.088 8.524-4.786 1.835-25.226 8.774-46.688-8.524z"/>
        </g>
    </g>
</svg>
