<svg xmlns="http://www.w3.org/2000/svg" xmlns:xlink="http://www.w3.org/1999/xlink" width="250" height="250" viewBox="0 0 250 250">
  <defs>
    <linearGradient id="c" x1="7.707%" x2="105.627%" y1="114.2%" y2="0%">
      <stop offset="0%" stop-color="#FF0A0A"/>
      <stop offset="61.738%" stop-color="#FB6813"/>
      <stop offset="100%" stop-color="#F6CA1D"/>
      <stop offset="100%" stop-color="#F8A519"/>
    </linearGradient>
    <circle id="a" cx="125" cy="125" r="125"/>
  </defs>
  <g fill="none" fill-rule="evenodd">
    <mask id="b" fill="#fff">
      <use xlink:href="#a"/>
    </mask>
    <use fill="#D8D8D8" xlink:href="#a"/>
    <g mask="url(#b)">
      <path fill="url(#c)" d="M0 0h250v250H0z"/>
      <g fill="#FFF" fill-rule="nonzero" opacity=".896">
        <path d="M92.856 156.25l-1.8 7.146h5.957l-2.806 11.26c-.554 2.16-2.46 3.694-4.71 3.694h-10.6l-1.974 7.948h12.573c5.854 0 10.946-4.009 12.366-9.725l5.091-20.323H92.856zm77.921 7.13l1.699-7.13h-27.347l-1.767 7.13h4.723l-5.64 22.918h12.773l1.8-7.234h-4.79l3.874-15.72h14.675v.035zm-33.446 2.712l2.384-9.842h-22.317a6.22 6.22 0 00-6.011 4.695l-6.254 25.353h26.014l1.83-7.234s-17.895.035-17.895 0l1.279-5.182h7.945l1.416-5.668h-7.945l1.105-4.452h11.193l-.552 2.295h7.807v.035zM127.945 201.95c1.299 0 2.35-.266 3.153-.797.803-.531 1.204-1.298 1.204-2.3 0-.806-.26-1.428-.779-1.867-.52-.438-1.293-.79-2.32-1.052-.715-.167-1.211-.323-1.489-.47-.277-.146-.416-.33-.416-.55 0-.269.15-.47.452-.604.301-.135.629-.202.983-.202.431 0 .796.091 1.094.273.298.182.5.458.607.828h1.904l.638-2.757h-2.02l-.106.502c-.59-.394-1.317-.591-2.179-.591-1.18 0-2.132.262-2.852.788-.72.525-1.08 1.235-1.08 2.13 0 .782.23 1.389.69 1.821.46.433 1.199.778 2.215 1.034.82.197 1.378.372 1.674.524.295.152.442.357.442.613 0 .627-.605.94-1.815.94-1.228 0-1.952-.531-2.17-1.593h-1.834l-.744 3.24h2.029l.115-.528c.661.412 1.53.618 2.604.618zm9.238 4.18l.469-1.996h-1.541l.815-3.536c.632 1.026 1.532 1.54 2.701 1.54.98 0 1.84-.294 2.577-.882a5.696 5.696 0 001.697-2.256 7.111 7.111 0 00.589-2.824c0-.71-.124-1.355-.372-1.933a3.192 3.192 0 00-1.099-1.383c-.484-.343-1.05-.515-1.7-.515-.992 0-1.931.465-2.817 1.396l-.035-.035.31-1.254h-4.172l-.452 2.023h1.302l-2.187 9.659h-1.329l-.47 1.996h5.714zm1.957-6.212c-.46 0-.833-.175-1.116-.524-.283-.35-.425-.768-.425-1.258 0-.489.106-1.011.319-1.566a3.842 3.842 0 01.899-1.4c.386-.38.822-.57 1.306-.57.443 0 .799.159 1.067.475.269.316.403.734.403 1.253 0 .525-.091 1.065-.274 1.62a3.592 3.592 0 01-.828 1.401c-.37.38-.82.569-1.351.569zm10.469 2.22c1.04 0 1.994-.254 2.865-.761a5.598 5.598 0 002.068-2.09c.508-.887.762-1.867.762-2.94 0-.812-.171-1.53-.514-2.154a3.647 3.647 0 00-1.439-1.454c-.617-.346-1.312-.52-2.086-.52-1.092 0-2.08.275-2.963.824a5.604 5.604 0 00-2.041 2.198 6.318 6.318 0 00-.717 2.967c0 .788.172 1.477.518 2.068.345.59.823 1.048 1.435 1.374.61.325 1.315.488 2.112.488zm.186-2.113c-.425 0-.759-.158-1-.474-.243-.317-.364-.731-.364-1.245 0-.549.094-1.132.283-1.75.19-.617.477-1.144.864-1.58.387-.435.863-.653 1.43-.653.449 0 .797.163 1.045.488.248.325.372.744.372 1.258 0 .549-.1 1.132-.3 1.75a4.122 4.122 0 01-.9 1.566c-.398.427-.875.64-1.43.64zm11.355 1.835l.451-1.996h-1.452l.443-1.942c.43-2.041 1.42-3.062 2.967-3.062.271 0 .564.036.876.108l.558-2.516a4.56 4.56 0 00-.797-.09c-.661 0-1.237.211-1.727.632-.49.42-1.01 1.165-1.559 2.233l-.035-.036.638-2.739h-3.791l-.452 2.023h1.267l-1.231 5.389h-1.125l-.452 1.996h5.42zm6.43.278c.773 0 1.564-.191 2.373-.573l.505-2.158c-.555.305-1.012.457-1.373.457-.39 0-.584-.173-.584-.52 0-.059.023-.235.07-.527l1.02-4.342h1.833l.451-2.023h-1.833l.85-3.75-3.392 2.399-.328 1.351h-1.08l-.46 2.023h1.089l-.957 4.18c-.148.669-.221 1.194-.221 1.576 0 .585.184 1.049.553 1.392.37.343.864.515 1.484.515zM119.923 48.759l.022.145 6.813 50.167 5.596-38.58c.579-3.993 6.241-4.145 7.086-.275l.03.145 5.983 32.788h12.6v-28.86a9 9 0 019-9h1.231a9 9 0 019 9v64.932a9 9 0 01-9 9h-1.23a9 9 0 01-9-9l-.001-28.861h-15.608a3.605 3.605 0 01-3.518-2.816l-.029-.142-2.569-14.078-6.119 42.193c-.593 4.088-6.437 4.11-7.119.114l-.022-.146-7.367-54.236-5.211 26.209a3.607 3.607 0 01-3.39 2.9l-.147.002H91.947v28.861a9 9 0 01-9 9h-1.23a9 9 0 01-9-9V64.288a9 9 0 019-9h1.23a9 9 0 019 9v28.86l12.047.001 8.842-44.462c.784-3.944 6.421-3.82 7.087.072zm-55.62 22.154a6.61 6.61 0 016.61 6.611v38.462a6.61 6.61 0 01-13.22 0l-.001-15.626h-2.201a3.605 3.605 0 01-.136-7.209l.136-.002h2.2l.002-15.626a6.61 6.61 0 016.61-6.61zm121.394 0a6.611 6.611 0 016.611 6.611v15.625h2.202a3.606 3.606 0 01.136 7.209l-.136.002h-2.202v15.626a6.61 6.61 0 01-13.221 0V77.523a6.61 6.61 0 016.61-6.61z"/>
      </g>
    </g>
  </g>
</svg>
