<svg width="416" height="416" viewBox="0 0 416 416" xmlns="http://www.w3.org/2000/svg">
  <defs>
    <linearGradient x1="7.707%" y1="114.2%" x2="105.627%" y2="0%" id="a">
      <stop stop-color="#FF0A0A" offset="0%"/>
      <stop stop-color="#FB6813" offset="61.738%"/>
      <stop stop-color="#F6CA1D" offset="100%"/>
      <stop stop-color="#F8A519" offset="100%"/>
    </linearGradient>
  </defs>
  <g fill="none" fill-rule="evenodd">
    <path fill="url(#a)" d="M0 0h416v416H0z"/>
    <g opacity=".896" fill="#FFF" fill-rule="nonzero">
      <path d="M154.513 260l-2.997 11.89h9.913l-4.668 18.736c-.922 3.597-4.092 6.149-7.839 6.149h-17.637L128 310h20.922c9.741 0 18.213-6.67 20.576-16.183L177.971 260h-23.458zM284.174 271.863L287 260h-45.505l-2.94 11.863h7.858L237.029 310h21.255l2.996-12.037h-7.971l6.444-26.157h24.42v.057zM228.519 276.377L232.486 260H195.35c-4.715 0-8.854 3.24-10.003 7.813L174.943 310h43.287l3.046-12.037s-29.777.058-29.777 0l2.127-8.623h13.221l2.357-9.433h-13.221l1.839-7.407h18.625l-.92 3.82h12.992v.057zM212.9 336.044c2.161 0 3.91-.442 5.246-1.325 1.337-.884 2.005-2.16 2.005-3.828 0-1.34-.433-2.376-1.297-3.106-.865-.73-2.152-1.313-3.862-1.75-1.189-.278-2.014-.539-2.476-.782-.461-.243-.692-.549-.692-.916 0-.447.25-.782.751-1.005a3.971 3.971 0 011.636-.336c.717 0 1.324.152 1.82.455.497.303.833.762 1.01 1.377h3.169l1.06-4.587h-3.36l-.176.834c-.983-.655-2.191-.983-3.626-.983-1.965 0-3.547.437-4.746 1.31-1.198.874-1.798 2.056-1.798 3.546 0 1.3.384 2.31 1.15 3.03.766.72 1.995 1.294 3.684 1.721 1.366.328 2.295.618 2.786.871.491.254.737.594.737 1.02 0 1.043-1.007 1.565-3.021 1.565-2.044 0-3.248-.884-3.611-2.652h-3.051L205 335.895h3.375l.192-.879c1.1.686 2.544 1.028 4.333 1.028zM228.27 343l.781-3.322h-2.564l1.356-5.883c1.051 1.708 2.55 2.562 4.495 2.562 1.631 0 3.06-.49 4.289-1.467 1.228-.978 2.169-2.23 2.822-3.754s.98-3.09.98-4.699c0-1.182-.206-2.254-.619-3.217-.413-.963-1.022-1.73-1.827-2.301-.806-.571-1.75-.857-2.83-.857-1.65 0-3.213.775-4.687 2.324l-.059-.06.516-2.085h-6.941l-.752 3.366h2.166l-3.64 16.071h-2.21l-.782 3.322h9.506zm3.257-10.337c-.766 0-1.385-.29-1.857-.871-.471-.581-.707-1.279-.707-2.093 0-.814.177-1.683.53-2.607.354-.923.853-1.7 1.496-2.33.644-.631 1.369-.946 2.174-.946.737 0 1.33.263 1.776.789.447.526.67 1.221.67 2.085 0 .874-.151 1.773-.456 2.696-.305.924-.764 1.7-1.378 2.331a3.018 3.018 0 01-2.248.946zm17.42 3.694c1.73 0 3.32-.422 4.768-1.266a9.304 9.304 0 003.442-3.478c.845-1.475 1.267-3.106 1.267-4.893 0-1.35-.285-2.544-.855-3.582a6.072 6.072 0 00-2.395-2.42c-1.026-.576-2.183-.864-3.47-.864-1.818 0-3.461.456-4.93 1.37a9.308 9.308 0 00-3.397 3.657c-.796 1.524-1.194 3.17-1.194 4.937 0 1.31.287 2.458.862 3.44a5.946 5.946 0 002.388 2.287c1.017.541 2.188.812 3.515.812zm.31-3.515c-.707 0-1.262-.263-1.665-.79-.403-.526-.604-1.216-.604-2.07 0-.914.157-1.884.471-2.912.315-1.028.794-1.904 1.437-2.629.644-.725 1.437-1.087 2.38-1.087.747 0 1.327.27 1.74.812.412.54.618 1.238.618 2.092 0 .914-.167 1.885-.5 2.912-.335 1.028-.833 1.897-1.497 2.607-.663.71-1.456 1.065-2.38 1.065zm18.894 3.053l.752-3.321h-2.417l.737-3.232c.717-3.396 2.363-5.094 4.937-5.094.452 0 .938.06 1.46.178l.928-4.185c-.54-.1-.983-.15-1.327-.15-1.1 0-2.058.351-2.874 1.051-.815.7-1.68 1.939-2.594 3.716l-.059-.06 1.062-4.557h-6.308l-.752 3.366h2.108l-2.049 8.967h-1.872l-.751 3.321h9.02zm10.7.462c1.287 0 2.604-.318 3.95-.953l.84-3.59c-.924.506-1.685.76-2.284.76-.649 0-.973-.288-.973-.864 0-.1.04-.392.118-.879l1.695-7.224h3.05l.752-3.366h-3.05l1.414-6.241-5.645 3.992-.545 2.249h-1.798l-.766 3.366h1.812l-1.591 6.956c-.246 1.112-.369 1.986-.369 2.621 0 .974.307 1.746.921 2.317.615.57 1.437.856 2.47.856zM199.55 81.134l.038.243 11.337 83.477 9.31-64.197c.965-6.644 10.387-6.897 11.793-.457l.048.241L242.033 155H263v-54a9 9 0 019-9h14a9 9 0 019 9v120a9 9 0 01-9 9h-14a9 9 0 01-9-9v-54h-25.971a6 6 0 01-5.855-4.687l-.048-.236-4.275-23.425-10.182 70.21c-.986 6.8-10.712 6.837-11.846.189l-.037-.243-12.259-90.249-8.67 43.611a6 6 0 01-5.641 4.825l-.245.005H153v54a9 9 0 01-9 9h-14a9 9 0 01-9-9V101a9 9 0 019-9h14a9 9 0 019 9v54h20.046l14.712-73.986c1.305-6.562 10.685-6.355 11.793.12zM111 118a7 7 0 017 7v72a7 7 0 01-7 7h-8a7 7 0 01-7-7v-30h-3.664a6 6 0 01-.225-11.996l.225-.004H96v-30a7 7 0 017-7h8zm202 0a7 7 0 017 7v30h3.664a6 6 0 01.225 11.996l-.225.004H320v30a7 7 0 01-7 7h-8a7 7 0 01-7-7v-72a7 7 0 017-7h8z"/>
    </g>
  </g>
</svg>
