<svg xmlns="http://www.w3.org/2000/svg" width="119" height="729" viewBox="0 0 119 729">
  <g fill="none" fill-rule="evenodd">
    <g transform="translate(.5 612)">
      <ellipse cx="59" cy="58.5" fill="#EBEBEB" rx="59" ry="58.5"/>
      <path fill="#FFF" fill-rule="nonzero" d="M82.156 59.483H67.819l-3.488-10.428c-.273-.816-1.066-1.459-1.912-1.34a1.964 1.964 0 00-1.85 1.421l-5.747 20.027-6.193-27.757a1.968 1.968 0 00-1.766-1.529c-.857-.057-1.666.425-1.985 1.226l-7.385 18.38H23.072c-1.089 0-1.97.878-1.97 1.962s.881 1.961 1.97 1.961h15.755a1.963 1.963 0 001.828-1.233l5.512-13.718 6.492 29.107a1.971 1.971 0 001.866 1.536h.058c.877 0 1.65-.578 1.892-1.421l6.132-21.365 1.923 5.754c.27.8 1.023 1.34 1.87 1.34h15.755c1.089 0 1.97-.877 1.97-1.961 0-1.085-.88-1.962-1.97-1.962z"/>
      <path fill="#FFF" fill-rule="nonzero" d="M92.647 32.614a23.406 23.406 0 00-16.657-6.943c-5.64 0-11.235 2.108-15.705 6.16-4.47-4.052-10.063-6.16-15.704-6.16a23.406 23.406 0 00-16.657 6.943c-6.1 6.14-8.064 14.789-6.073 22.633h4.083C23.84 48.46 25.37 40.773 30.7 35.409c3.708-3.731 8.637-5.786 13.881-5.786 4.786 0 9.263 1.785 12.836 4.922l2.868 2.699 2.87-2.7c3.573-3.136 8.05-4.922 12.835-4.922 5.244 0 10.172 2.054 13.88 5.786 7.655 7.702 7.654 20.237 0 27.94L60.286 93.122 34.43 67.1h-5.553l31.408 31.61 32.362-32.569c9.198-9.259 9.198-24.269 0-33.528z"/>
    </g>
    <g transform="translate(.5 153)">
      <ellipse cx="59" cy="58.5" fill="#EBEBEB" rx="59" ry="58.5"/>
      <path fill="#FFF" d="M82.466 33.584c-.016-1.833-2.357-3.06-7.557-3.984-4.32-.765-10.102-1.195-16.244-1.195-6.143 0-11.924.43-16.245 1.195-5.2.924-7.525 2.151-7.556 3.968v.032c0 .112.015.223.031.319L40.08 87.1c.158 1.721 2.137 2.917 6.206 3.777 3.346.717 7.808 1.1 12.584 1.1 4.65 0 9.05-.43 12.396-1.211 3.974-.925 5.938-2.2 6-3.92l2.577-26.329c.008-.04.012-.08.016-.12.004-.039.008-.079.016-.119l2.56-26.343c.016-.112.032-.223.032-.335v-.016zm-7.557 53.102v.064c-.173.286-1.304 1.131-4.76 1.848-3.11.654-7.117 1.02-11.28 1.02-4.352 0-8.468-.334-11.594-.956-3.55-.701-4.682-1.514-4.855-1.8l-2.325-23.858c1.068.446 2.467.844 4.21 1.195 3.865.765 8.971 1.195 14.36 1.195 5.388 0 10.494-.43 14.359-1.195 1.744-.35 3.126-.75 4.195-1.195l-2.31 23.682zM58.665 63.004c4.854 0 9.536-.35 13.15-1.004 3.644-.654 5.152-1.419 5.592-1.801-.455-.383-1.948-1.148-5.593-1.801-3.629-.653-8.295-1.004-13.15-1.004-4.854 0-9.535.35-13.149 1.004-3.645.653-5.153 1.418-5.593 1.8.44.383 1.948 1.148 5.593 1.802 3.63.653 8.295 1.004 13.15 1.004zm19.103-5.371c-1.13-.558-2.686-1.02-4.744-1.434-3.865-.765-8.97-1.196-14.36-1.196-5.388 0-10.494.43-14.358 1.196-2.043.414-3.614.876-4.73 1.434l-2.073-21.324c1.194.494 2.828.909 4.933 1.291 4.32.765 10.102 1.195 16.245 1.195 6.142 0 11.924-.43 16.244-1.195 2.105-.366 3.723-.797 4.933-1.29l-2.09 21.323zM58.665 36.405c5.561 0 10.871-.35 14.956-1.004 4.305-.685 5.813-1.45 6.316-1.8-.503-.352-2.027-1.117-6.316-1.802-4.085-.653-9.395-1.004-14.956-1.004-5.562 0-10.872.35-14.956 1.004-4.29.685-5.813 1.45-6.316 1.801.503.35 2.027 1.116 6.316 1.8 4.084.654 9.394 1.005 14.956 1.005z"/>
      <path fill="#FFF" fill-rule="nonzero" d="M74.617 29.877l.047-.27-.047.27zm7.577 3.993h.272v-.003l-.272.003zm-40.152-3.993l-.047-.27.047.27zm-7.577 3.977l-.272-.005v.005h.272zm.031.35l.27-.026-.002-.018-.268.045zm5.198 53.288l.27-.026v-.001l-.27.027zm6.223 3.784l.056-.269h-.001l-.055.27zm25.046-.112l-.06-.268.06.268zm6.017-3.928l-.27-.027v.017l.27.01zm2.584-26.38l-.266-.054-.003.014-.001.013.27.027zm.016-.12l.27.028-.27-.028zm.015-.12l.267.055.002-.014.002-.013-.27-.027zm2.568-26.395l-.27-.04v.013l.27.027zm-7.546 52.92l.232.143.04-.066v-.078h-.272zm0-.064l-.27-.028v.028h.27zm-4.772 1.916l-.055-.27.055.27zm-22.936.064l.052-.27-.052.27zm-4.867-1.805l-.27.027.006.063.032.054.232-.144zM39.71 63.347l.104-.254-.418-.174.044.455.27-.027zm4.222 1.198l-.053.27.053-.27zm28.795 0l.052.27h.001l-.053-.27zm4.206-1.198l.27.028.045-.456-.418.174.103.254zm-5.419-1.006l-.047-.27.047.27zm5.608-1.804l.177.209.245-.213-.249-.208-.173.212zm-5.608-1.805l-.047.271.047-.27zm-26.37 0l.048.271-.047-.27zm-5.607 1.805l-.177-.21-.24.21.24.209.177-.21zm5.608 1.804l.047-.27-.047.27zm27.582-5.812l.053-.27-.053.27zm4.757 1.437l-.118.247.35.173.039-.393-.27-.027zm-33.552-1.437l-.052-.27h-.001l.053.27zm-4.742 1.437l-.27.027.039.396.351-.176-.12-.247zM37.111 36.6l.103-.255-.417-.172.044.454.27-.027zm4.946 1.294l-.048.27h.002l.046-.27zm32.576 0l-.046-.272.046.272zM79.58 36.6l.27.027.044-.452-.416.17.102.255zm-6.254-.91l-.042-.272.042.272zm6.332-1.805l.154.227.325-.227-.325-.226-.154.226zm-6.332-1.804l-.042.272.042-.272zm-29.993 0l.042.272-.042-.272zm-6.332 1.804l-.154-.226-.325.226.325.227.154-.227zm6.332 1.805l.043-.272-.043.272zm31.238-5.542c2.6.462 4.457.996 5.66 1.628 1.2.632 1.685 1.326 1.692 2.096l.543-.005c-.01-1.066-.705-1.905-1.986-2.58-1.278-.672-3.202-1.216-5.816-1.68l-.093.541zm-16.242-1.193c6.15 0 11.93.43 16.242 1.193l.093-.542c-4.352-.77-10.165-1.201-16.335-1.201v.55zm-16.24 1.193c4.311-.763 10.092-1.193 16.24-1.193v-.55c-6.169 0-11.982.431-16.334 1.201l.093.542zm-7.353 3.71c.013-.763.5-1.454 1.698-2.084 1.201-.63 3.054-1.164 5.654-1.626l-.093-.542c-2.614.465-4.534 1.01-5.81 1.68-1.278.671-1.973 1.506-1.992 2.563l.543.01zm0 .027v-.031h-.543v.031h.543zm.028.275a1.757 1.757 0 01-.028-.275h-.543c0 .136.02.266.035.365l.536-.09zm5.2 53.305l-5.198-53.287-.54.054 5.198 53.287.54-.054zm6.008 3.542c-2.03-.43-3.51-.937-4.498-1.536-.982-.596-1.441-1.26-1.51-2.005l-.54.051c.09.98.701 1.777 1.771 2.426 1.065.647 2.616 1.17 4.666 1.603l.111-.54zm12.562 1.096c-4.777 0-9.23-.383-12.561-1.096l-.112.538c3.38.724 7.873 1.108 12.673 1.108v-.55zm12.368-1.207c-3.33.777-7.719 1.207-12.368 1.207v.55c4.677 0 9.109-.432 12.49-1.22l-.122-.537zm5.807-3.67c-.027.74-.458 1.42-1.413 2.042-.96.625-2.412 1.168-4.394 1.628l.122.537c2.004-.466 3.528-1.026 4.565-1.702 1.042-.679 1.627-1.5 1.663-2.485l-.543-.02zm2.585-26.397L76.71 87.21l.54.054 2.584-26.38-.54-.054zm.015-.12c-.004.042-.006.069-.011.093l.532.108c.01-.055.016-.108.02-.146l-.54-.055zm.02-.146c-.01.055-.016.108-.02.146l.54.055c.005-.042.008-.069.013-.093l-.533-.108zm2.564-26.37L79.325 60.59l.54.054 2.568-26.396-.54-.054zm.03-.308c0 .09-.012.182-.029.297l.538.078c.015-.109.034-.24.034-.375h-.543zm0-.015v.015h.543v-.015h-.543zM74.89 87.14v-.063h-.543v.063h.543zm-4.99 2.122c1.746-.362 2.917-.758 3.678-1.106.38-.174.663-.337.865-.48.194-.139.335-.272.407-.392l-.463-.287c-.014.023-.08.104-.255.228-.168.118-.42.266-.777.429-.715.327-1.845.713-3.564 1.07l.109.538zM58.534 90.29c4.188 0 8.224-.368 11.366-1.028l-.11-.539c-3.097.65-7.095 1.017-11.256 1.017v.55zm-11.677-.963c3.157.627 7.303.963 11.677.963v-.55c-4.352 0-8.46-.335-11.573-.953l-.104.54zm-5.047-1.931c.074.122.216.254.412.388.204.14.49.299.876.467.773.338 1.966.722 3.76 1.076l.103-.54c-1.767-.35-2.921-.724-3.648-1.041a4.858 4.858 0 01-.786-.417c-.176-.12-.241-.2-.254-.22l-.463.287zm-2.37-24.022l2.331 23.905.54-.054-2.33-23.905-.54.054zm4.545.901c-1.74-.35-3.123-.744-4.171-1.182l-.207.509c1.093.456 2.514.86 4.272 1.213l.106-.54zm14.344 1.192c-5.39 0-10.492-.43-14.345-1.192l-.104.54c3.897.77 9.035 1.203 14.45 1.203v-.55zm14.346-1.192c-3.853.762-8.954 1.192-14.346 1.192v.55c5.416 0 10.553-.431 14.45-1.202l-.104-.54zm4.155-1.182c-1.05.438-2.417.833-4.156 1.182l.106.54c1.759-.353 3.163-.757 4.257-1.213l-.207-.509zm-1.942 24.01l2.315-23.728-.54-.055-2.315 23.73.54.054zm-3.421-25.032c-3.603.65-8.28 1.001-13.138 1.001v.55c4.879 0 9.59-.351 13.233-1.01l-.095-.541zm5.479-1.743c-.184.16-.635.433-1.514.75-.872.315-2.148.667-3.965.992l.095.542c1.838-.33 3.145-.688 4.052-1.015.902-.326 1.427-.627 1.685-.851l-.353-.418zm-5.479-1.325c1.817.326 3.089.678 3.96.993.874.316 1.329.59 1.522.753l.346-.424c-.263-.221-.785-.522-1.686-.848-.906-.327-2.21-.686-4.047-1.015l-.095.541zM58.33 58.001c4.857 0 9.519.351 13.138 1.002l.095-.541c-3.659-.659-8.354-1.01-13.233-1.01v.55zm-13.137 1.002c3.603-.65 8.28-1.002 13.137-1.002v-.55c-4.878 0-9.589.352-13.232 1.01l.095.542zm-5.478 1.743c.183-.16.634-.433 1.513-.75.872-.315 2.149-.667 3.965-.993l-.094-.541c-1.839.329-3.146.688-4.053 1.015-.902.326-1.427.627-1.685.85l.354.419zm5.478 1.324c-1.816-.325-3.093-.677-3.965-.992-.879-.317-1.33-.59-1.513-.75l-.354.418c.258.224.783.525 1.685.85.907.328 2.214.687 4.053 1.016l.094-.542zm13.137 1.002c-4.856 0-9.518-.35-13.137-1.002l-.095.542c3.66.659 8.354 1.01 13.232 1.01v-.55zM72.674 56.8c2.056.413 3.589.87 4.692 1.414l.237-.495c-1.165-.574-2.751-1.042-4.823-1.46l-.106.54zM58.33 55.606c5.392 0 10.493.43 14.346 1.193l.104-.54c-3.897-.771-9.034-1.203-14.45-1.203v.55zM43.984 56.8c3.853-.762 8.954-1.193 14.345-1.193v-.55c-5.414 0-10.552.432-14.45 1.203l.105.54zm-4.674 1.414c1.087-.543 2.634-1 4.675-1.414l-.106-.54c-2.055.417-3.658.885-4.809 1.46l.24.494zm-2.47-21.586l2.08 21.366.54-.054-2.079-21.366-.54.054zm5.265.996c-2.105-.382-3.721-.794-4.891-1.278l-.206.51c1.224.506 2.885.925 5.001 1.31l.096-.542zm16.24 1.193c-6.149 0-11.93-.43-16.241-1.193l-.093.542c4.351.77 10.165 1.201 16.334 1.201v-.55zm16.242-1.193c-4.312.762-10.093 1.193-16.242 1.193v.55c6.17 0 11.983-.431 16.335-1.201l-.093-.542zm4.891-1.278c-1.188.485-2.79.912-4.89 1.277l.091.543c2.12-.37 3.764-.804 5.002-1.31l-.203-.51zm-1.723 21.648l2.095-21.366-.54-.054-2.096 21.366.54.054zm-4.471-22.575c-4.078.652-9.387 1.003-14.955 1.003v.55c5.586 0 10.925-.352 15.04-1.01l-.085-.543zm6.22-1.76c-.453.317-1.916 1.075-6.22 1.76l.084.544c4.328-.689 5.89-1.463 6.444-1.85l-.307-.453zm-6.22-1.305c4.288.685 5.767 1.443 6.22 1.76l.308-.454c-.555-.387-2.132-1.161-6.444-1.85l-.084.544zM58.329 31.35c5.568 0 10.877.351 14.955 1.003l.084-.544c-4.114-.657-9.453-1.01-15.039-1.01v.551zm-14.953 1.003c4.077-.652 9.386-1.003 14.953-1.003v-.55c-5.585 0-10.924.352-15.038 1.01l.085.543zm-6.221 1.76c.453-.317 1.932-1.075 6.22-1.76l-.084-.544c-4.312.689-5.89 1.463-6.444 1.85l.308.453zm6.22 1.305c-4.288-.685-5.767-1.443-6.22-1.76l-.308.454c.555.387 2.132 1.161 6.444 1.85l.084-.544zm14.954 1.003c-5.567 0-10.876-.351-14.953-1.003l-.085.544c4.114.657 9.453 1.01 15.038 1.01v-.551z"/>
      <path fill="#FFF" fill-rule="nonzero" stroke="#FFF" stroke-width=".3" d="M52.06 84.278l-4.813-1.182-1.272-5.744a1.208 1.208 0 00-1.433-.902c-.66.14-1.079.762-.934 1.385l1.433 6.443c.097.436.435.779.885.888l5.538 1.37c.113.015.21.03.306.03.532 0 1.015-.358 1.16-.871a1.166 1.166 0 00-.87-1.417z"/>
    </g>
    <g transform="translate(.5 306)">
      <ellipse cx="59" cy="58.5" fill="#EBEBEB" rx="59" ry="58.5"/>
      <path fill="#FFF" d="M91.436 52.315a1.339 1.339 0 00-.452-.782c-2.211-1.876-2.585-3.944-2.885-5.605l-.04-.217a1.337 1.337 0 00-1.127-1.085 4.557 4.557 0 00-.618-.042c-1.272 0-3.062.537-4.198 1.737a1.334 1.334 0 00-.355.745 32.61 32.61 0 00-.188 1.959c-.164 2.19-.308 2.421-.974 2.632-.417.132-.742.46-.872.88a31.054 31.054 0 01-2.464 5.782c-.497-.951-1.047-1.807-1.558-2.603-1.25-1.947-2.238-3.485-1.9-5.391 1.093-6.178.538-10.832-1.65-13.833-1.219-1.671-2.955-2.81-5.065-3.342.42-3.285 2.697-4.774 3.958-5.113a1.339 1.339 0 00-.692-2.586c-2.602.699-5.382 3.265-5.913 7.364-2.132-.006-4.068.646-5.661 1.922-2.911 2.332-4.67 6.665-5.228 12.878-.168 1.87-1.375 2.961-3.045 4.47-1.363 1.233-2.882 2.609-4.099 4.689a16.481 16.481 0 00-4.838-1.165c.481-3.154 2.694-4.594 3.93-4.925a1.34 1.34 0 00-.691-2.587 7.091 7.091 0 00-2.008.91 7.918 7.918 0 00-2.152-4.03 7.834 7.834 0 00-5.583-2.319c-.69 0-1.378.091-2.044.269a1.337 1.337 0 00-.946.948 7.958 7.958 0 002.045 7.646 7.83 7.83 0 005.125 2.304 9.961 9.961 0 00-.368 1.769c-8.608.648-15.414 7.876-15.414 16.668 0 9.216 7.48 16.715 16.675 16.715 3.417 0 6.672-1.018 9.459-2.95.439.194.879.38 1.321.554 4.02 1.59 8.083 2.396 12.075 2.396 6.421 0 12.381-2.103 17.235-6.083 5.073-4.158 8.812-10.312 10.813-17.796.652-2.44 1.228-8.192.392-12.783zm-39.138 1.76c1.797-1.625 3.655-3.304 3.916-6.22.49-5.457 1.915-9.167 4.236-11.025 1.377-1.104 3.08-1.529 5.06-1.264 1.956.262 3.466 1.105 4.488 2.507 1.742 2.388 2.138 6.353 1.176 11.784-.52 2.94.906 5.16 2.284 7.308.774 1.204 1.57 2.445 2.11 3.89-4.502 6.516-11.332 11.268-18.849 13.008.065-.597.097-1.2.097-1.801 0-6.04-3.212-11.341-8.014-14.28 1-1.648 2.265-2.794 3.496-3.908zm-17.787-8.71a5.267 5.267 0 001.5 4.262 5.184 5.184 0 004.252 1.504 5.27 5.27 0 00-1.501-4.261 5.184 5.184 0 00-4.251-1.504zm5.63 40.934c-7.722 0-14.004-6.297-14.004-14.037 0-7.74 6.282-14.038 14.004-14.038 7.722 0 14.004 6.297 14.004 14.038 0 .771-.063 1.542-.187 2.3-.86.11-1.725.181-2.594.211a11.523 11.523 0 00-.581-6.886 1.334 1.334 0 00-1.743-.73 1.34 1.34 0 00-.73 1.746 8.86 8.86 0 01.31 5.829 29.339 29.339 0 01-5.713-.947 1.33 1.33 0 00-1.119.201c-1.187.845-2.383 1.908-3.093 3.945a1.34 1.34 0 00.402 1.467c2.454 2.066 5.017 3.817 7.658 5.239a13.855 13.855 0 01-6.614 1.662zm22.855 0c12.282 0 21.803-8.185 25.467-21.894.59-2.209 1.04-7.215.421-11.16-2.187-2.017-2.88-4.203-3.235-5.905-.472.105-.943.31-1.298.567-.05.459-.082.893-.114 1.317-.138 1.856-.281 3.768-2.153 4.712a34.222 34.222 0 01-3.965 8.111 35.615 35.615 0 01-7.692 8.34c-5.908 4.633-12.82 7.082-19.989 7.082-2.532 0-5.083-.315-7.591-.935-.47.374-.907.812-1.26 1.448 6.67 5.37 14.239 8.317 21.409 8.317z"/>
      <path fill="#FFF" fill-rule="nonzero" d="M66.93 38.357c-.695-.282-1.497.035-1.79.709-.291.674.037 1.449.733 1.731.995.404 1.544 3.307.67 8.077-.133.719.363 1.405 1.107 1.533.08.014.161.02.24.02.651 0 1.228-.45 1.345-1.091.783-4.265 1.018-9.631-2.304-10.979zm8.564 38.308a1.322 1.322 0 00-1.865-.268l-.006.005c-.593.44-.72 1.28-.286 1.88a1.323 1.323 0 001.862.29l.03-.022c.589-.447.707-1.29.265-1.885zm-3.234 2.269c-.344-.702-1.166-.98-1.837-.621-4.67 2.499-8.61 2.4-8.668 2.397-.75-.027-1.383.585-1.413 1.371-.03.788.557 1.451 1.31 1.482.02 0 .094.003.216.003.975 0 5.04-.165 9.798-2.712.67-.359.936-1.219.593-1.92zm-23.7-14.548l-.043-.044a1.314 1.314 0 00-1.87.005 1.342 1.342 0 00.004 1.887l.029.029a1.313 1.313 0 001.87.01 1.34 1.34 0 00.01-1.887z"/>
    </g>
    <g transform="translate(.5 459)">
      <ellipse cx="59" cy="58.5" fill="#EBEBEB" rx="59" ry="58.5"/>
      <path fill="#FFF" fill-rule="nonzero" stroke="#FFF" stroke-width=".3" d="M49.94 60.916a1.429 1.429 0 00-1.022-.332h-5.561l5.204-6.04.492-.562.308-.396c.087-.13.158-.272.21-.421.062-.158.095-.327.098-.498a1.049 1.049 0 00-.48-.983 2.851 2.851 0 00-1.39-.281h-6.546a1.394 1.394 0 00-.96.306 1.042 1.042 0 00-.332.805c0 .46.148.745.443.855.432.128.88.184 1.329.166h4.232c-.172.256-.402.558-.689.907l-1.082 1.277-1.428 1.634-1.697 1.954c-.591.681-.98 1.15-1.17 1.405a1.312 1.312 0 00.099 1.864c.357.252.79.36 1.218.306h7.702c.367.027.73-.086 1.021-.319.225-.202.351-.496.345-.804a1.128 1.128 0 00-.345-.843zm12.135 6.549a1.207 1.207 0 00-.83-.257h-4.552l4.25-4.619.403-.427.251-.306c.073-.098.133-.204.176-.317.05-.12.075-.25.076-.38a.776.776 0 00-.39-.757 2.468 2.468 0 00-1.132-.208h-5.344a1.194 1.194 0 00-.78.233.761.761 0 00-.276.623c0 .35.121.566.364.647a3.59 3.59 0 001.082.123h3.445a10.71 10.71 0 01-.565.696l-.893.99-1.157 1.222-1.383 1.49c-.478.522-.797.88-.956 1.076a.948.948 0 00-.226.586.962.962 0 00.327.77c.274.223.623.34.98.33h6.288c.302.02.6-.067.842-.244a.785.785 0 00.277-.624.83.83 0 00-.277-.647zm14.012-7.211a1.425 1.425 0 00-1.02-.331h-5.566l5.198-6.025.491-.56.308-.395c.099-.14.177-.295.233-.459.063-.158.096-.326.098-.497a1.04 1.04 0 00-.479-.98 2.84 2.84 0 00-1.388-.28h-6.55a1.388 1.388 0 00-.958.305 1.038 1.038 0 00-.332.803c0 .458.148.743.442.853.432.127.88.183 1.327.166h4.154c-.172.254-.402.556-.688.904l-1.082 1.274-1.425 1.63-1.696 1.949c-.59.68-.979 1.146-1.167 1.401-.42.526-.366 1.3.123 1.758.35.313.804.473 1.265.446h7.693c.366.027.729-.087 1.02-.319.224-.2.35-.495.344-.802a1.126 1.126 0 00-.345-.84z"/>
      <path fill="#FFF" d="M56.62 36.751c16.142-4.572 25.075-7.054 31.014-2.695 4.97 3.64.516 14.448-3.259 21.741 5.41 11.866 3.762 24.412 1.02 27.108-2.303 2.217-6.015 2.985-10.066 2.985-7.99 0-17.275-2.973-19.401-3.69-7.474 1.713-13.765 2.972-18.294 2.972-3.737 0-6.278-.869-7.323-3.073-3.133-6.614.919-22.775 1.674-25.685-5.85-13.251-8.078-19.738-3.045-22.988 5.033-3.25 18.608.34 27.68 3.325zm4.177 44.365c7.41 1.965 18.747 3.955 22.798-.063 1.585-1.562 3.51-11.664-.78-22.497a102.603 102.603 0 01-2.416 4.043 1.263 1.263 0 01-2.126-1.36c5.196-8.137 11.927-22.195 7.838-25.193-4.403-3.225-11.223-1.84-25.327 2.104 1.801.647 3.168 1.175 3.894 1.455l.309.12a1.26 1.26 0 01-.919 2.342c-7.612-2.96-28.435-9.976-33.757-6.575l.025.038c-3.806 2.498-.383 10.19 6.45 25.546l.168.377a1.26 1.26 0 01-2.29 1.033l-1.044-2.318c-1.421 6.336-3.095 16.59-1.082 20.86 1.485 3.162 11.336 1.323 22.735-1.26.187-.096.395-.143.604-.138l4.467-1.033 5.284-1.26a1.289 1.289 0 01.554 2.519l-5.272 1.26h-.113z"/>
      <path fill="#FFF" fill-rule="nonzero" d="M87.381 34.336l-.16.221.16-.221zm-30.75 2.702l-.084.26.079.027.08-.023-.075-.264zm27.52 19.09l-.242-.126-.06.119.054.121.247-.114zM85.16 83.3l.188.198.002-.002-.19-.196zm-29.216-.707l.087-.26-.073-.025-.074.018.06.267zm-25.398-.1l-.245.117.245-.118zm1.66-25.745l.262.069.024-.093-.039-.087-.248.11zm-3.02-23.043l-.147-.23.147.23zm54.19 47.74l-.19-.196h-.001l.19.195zm-22.604.063v-.275l-.07.54.07-.265zm21.83-22.614l.253-.1-.208-.532-.28.496.235.136zm-2.395 4.053l-.228-.148.228.148zm-1.727.385l.146-.231-.146.231zm-.38-1.748l-.23-.148.23.148zm7.77-25.252l.161-.222-.16.222zM60.76 38.44l-.073-.264-.82.231.8.292.093-.259zm3.86 1.46l.098-.257-.098.256zm.306.118l.11-.251-.013-.005-.097.256zm.674 1.565l-.256-.09.256.09zm-1.585.784l-.098.256.01.004.088-.26zm-33.469-6.59l-.146-.232-.233.15.153.233.226-.152zm.025.037l.149.23.229-.152-.152-.23-.226.152zm6.395 25.607l.248-.112-.248.112zm.167.377l.254-.097-.006-.014-.248.111zm-.586 1.564l-.126-.243.126.243zm-1.685-.528l-.247.113.007.015.24-.128zm-1.035-2.324l.247-.112-.334-.75-.178.802.265.06zm-1.073 20.91l.246-.118-.246.117zm22.542-1.263l.06.267.033-.007.03-.016-.123-.244zm.598-.14l-.006.275.034.001.034-.008-.062-.267zm4.429-1.035l.06.268h.003l-.063-.268zm5.24-1.262l-.06-.268H65.5l.063.268zm1.521.985l.265-.06-.265.06zm-.973 1.54l-.058-.268h-.005l.063.268zm-5.227 1.263v.274h.032l.031-.007-.063-.267zm26.657-47.393c-3.026-2.245-6.797-2.71-11.777-2.057-4.975.652-11.213 2.427-19.207 4.716l.147.529c8.01-2.294 14.204-4.054 19.13-4.7 4.922-.645 8.524-.168 11.386 1.955l.32-.443zm-3.15 22.14c1.873-3.66 3.925-8.22 4.889-12.332.482-2.055.696-4.017.47-5.707-.228-1.695-.903-3.133-2.21-4.101l-.32.443c1.157.857 1.778 2.141 1.992 3.732.214 1.596.014 3.484-.46 5.506-.948 4.045-2.975 8.557-4.844 12.207l.482.253zm.959 27.241c.733-.728 1.36-2.08 1.816-3.839.458-1.77.752-3.989.791-6.491.079-5.004-.86-11.162-3.56-17.15l-.495.227c2.664 5.906 3.59 11.982 3.512 16.914-.038 2.467-.328 4.641-.773 6.361-.448 1.73-1.045 2.964-1.671 3.586l.38.392zm-10.17 3.071c4.035 0 7.806-.77 10.168-3.069l-.376-.396c-2.205 2.146-5.793 2.916-9.792 2.916v.55zm-19.322-3.713c2.109.72 11.352 3.713 19.322 3.713v-.549c-7.873 0-17.041-2.965-19.149-3.685l-.173.52zm-18.052 2.994c4.527 0 10.795-1.271 18.199-2.987l-.121-.535c-7.416 1.718-13.623 2.973-18.078 2.973v.549zm-7.505-3.238c1.109 2.367 3.785 3.238 7.505 3.238v-.55c-3.69 0-6.053-.87-7.015-2.923l-.49.235zm1.642-25.931c-.375 1.461-1.57 6.253-2.282 11.512-.355 2.63-.592 5.382-.543 7.898.05 2.51.382 4.811 1.183 6.521l.49-.235c-.752-1.605-1.082-3.814-1.13-6.297-.048-2.477.184-5.199.538-7.813.707-5.227 1.896-9.993 2.269-11.448l-.525-.138zM29.04 33.474c-1.294.844-2.135 1.91-2.56 3.253-.423 1.335-.428 2.918-.097 4.788.66 3.732 2.678 8.71 5.575 15.343l.496-.222c-2.903-6.65-4.89-11.564-5.536-15.218-.323-1.823-.307-3.307.079-4.523.382-1.208 1.137-2.176 2.338-2.96l-.295-.461zm27.676 3.303c-4.502-1.498-10.13-3.15-15.263-4.02-2.567-.435-5.018-.676-7.147-.601-2.123.074-3.958.464-5.266 1.318l.295.461c1.186-.775 2.905-1.157 4.99-1.23 2.08-.073 4.491.162 7.038.593 5.093.863 10.692 2.506 15.184 4l.17-.521zm26.47 44.471c-.952.955-2.35 1.57-4.055 1.912-1.703.343-3.69.41-5.792.29-4.204-.24-8.83-1.226-12.497-2.209l-.138.531c3.681.987 8.348 1.983 12.605 2.226 2.128.122 4.164.056 5.928-.3 1.761-.353 3.274-1 4.33-2.06l-.381-.39zm-.835-22.253c2.112 5.39 2.693 10.597 2.553 14.648-.07 2.027-.322 3.759-.65 5.076a10.59 10.59 0 01-.533 1.64c-.189.436-.374.729-.535.889l.381.391c.233-.231.451-.598.65-1.058.203-.466.394-1.047.563-1.727.34-1.361.594-3.132.666-5.191.143-4.118-.448-9.402-2.59-14.87l-.505.202zm-1.915 4.1c.34-.535 1.253-2.03 2.403-4.065l-.471-.273a101.73 101.73 0 01-2.388 4.04l.456.298zm-2.102.468c.709.458 1.65.248 2.103-.469l-.457-.296a.972.972 0 01-1.353.302l-.293.463zm-.463-2.128a1.553 1.553 0 00.463 2.128l.293-.463a.999.999 0 01-.298-1.37l-.458-.295zm7.84-24.883c.895.663 1.245 1.976 1.11 3.825-.133 1.833-.738 4.103-1.637 6.552-1.797 4.895-4.744 10.439-7.313 14.506l.458.296c2.583-4.09 5.55-9.67 7.364-14.61.906-2.47 1.531-4.795 1.67-6.704.138-1.893-.198-3.468-1.33-4.308l-.321.443zm-24.878 2.152c6.996-1.977 12.16-3.306 16.12-3.74 3.953-.434 6.654.03 8.759 1.588l.32-.443c-2.262-1.674-5.124-2.132-9.138-1.691-4.01.44-9.218 1.782-16.206 3.757l.145.529zm3.886.938c-.72-.281-2.078-.81-3.867-1.461l-.183.517c1.782.648 3.135 1.176 3.854 1.456l.196-.512zm.305.119l-.305-.119-.196.512.307.12.194-.513zm.834 1.91a1.544 1.544 0 00-.821-1.905l-.22.502c.463.208.692.74.528 1.224l.513.179zm-1.93.955a1.515 1.515 0 001.93-.955l-.513-.179a.973.973 0 01-1.24.614l-.177.52zm-33.235-6.62c.611-.394 1.465-.65 2.53-.775 1.06-.126 2.31-.12 3.697-.008 2.774.225 6.07.873 9.445 1.723 6.75 1.7 13.787 4.195 17.553 5.676l.197-.512c-3.78-1.486-10.84-3.99-17.62-5.697-3.388-.853-6.715-1.51-9.532-1.737-1.408-.114-2.696-.122-3.804.009-1.105.13-2.05.401-2.758.859l.292.463zm.105-.345l-.025-.038-.452.304.025.038.452-.304zm6.417 25.647c-3.391-7.704-5.924-13.46-7.141-17.603-.61-2.072-.88-3.712-.777-4.976.101-1.25.564-2.116 1.424-2.686l-.298-.46c-1.027.682-1.555 1.72-1.667 3.1-.11 1.368.183 3.087.798 5.179 1.23 4.186 3.781 9.982 7.166 17.67l.495-.224zm.167.378l-.167-.378-.495.223.166.378.496-.223zm-.707 1.918a1.546 1.546 0 00.713-1.904l-.508.194a.994.994 0 01-.458 1.224l.253.486zm-2.052-.643a1.51 1.51 0 002.052.643l-.253-.486a.97.97 0 01-1.319-.413l-.48.256zm-1.042-2.339l1.035 2.324.495-.226-1.036-2.323-.494.225zM33 81.301c-.478-1.024-.745-2.429-.848-4.08-.102-1.646-.038-3.515.132-5.457.34-3.881 1.104-8.025 1.808-11.194l-.53-.12c-.706 3.181-1.476 7.351-1.819 11.266-.171 1.957-.237 3.857-.132 5.54.104 1.679.377 3.164.898 4.28L33 81.3zm22.236-1.413c-5.653 1.294-10.904 2.398-14.923 2.784-2.011.194-3.695.205-4.958-.02-1.274-.228-2.045-.683-2.355-1.35l-.491.233c.425.917 1.427 1.42 2.752 1.657 1.335.24 3.076.222 5.103.027 4.059-.39 9.342-1.502 14.992-2.796l-.12-.535zm.665-.146a1.5 1.5 0 00-.73.17l.249.488a.963.963 0 01.468-.109l.013-.549zm4.36-1.028l-4.428 1.035.123.535 4.428-1.035-.122-.535zm5.238-1.262l-5.239 1.262.126.535 5.24-1.263-.127-.534zm1.85 1.193a1.548 1.548 0 00-1.845-1.194l.116.536c.543-.12 1.08.227 1.2.776l.53-.118zm-1.18 1.867a1.567 1.567 0 001.18-1.867l-.53.118a1.018 1.018 0 01-.766 1.213l.116.536zm-5.222 1.262l5.227-1.263-.126-.534-5.227 1.262.126.535zm-.175.007h.112v-.549h-.112v.55z"/>
    </g>
    <g transform="translate(.5)">
      <ellipse cx="59" cy="58.5" fill="#EBEBEB" rx="59" ry="58.5"/>
      <path fill="#FFF" d="M85.696 83.686a1.138 1.138 0 00-1.127-1.119h-.015l-.84.015c0-.061 0-.124.002-.19.05-2.825-1.08-5.15-3.353-6.907-1.884-1.456-4.312-2.364-6.455-3.166h-.002c-1.874-.7-3.652-1.366-4.59-2.215L66.424 53.07 83.018 33c.283-.342.345-.82.16-1.226a1.127 1.127 0 00-1.022-.664H61.148a1.12 1.12 0 00-.907.466l-3.773 5.206-.003.004-5.563 7.675a12.094 12.094 0 01-.554-1.622 1.134 1.134 0 00-.823-.822c-.402-.1-.825.032-1.102.345L36.58 55.676l-3.392 3.406a1.16 1.16 0 00.001 1.637l13.956 13.984h-4.997c-.623 0-1.128.514-1.128 1.149S41.525 77 42.148 77h7.29l3.502 3.508h-5.27c-.622 0-1.127.515-1.127 1.15 0 .634.505 1.149 1.128 1.149h7.563l1.993 1.997c.028.028.057.054.087.079 5.515 4.488 12.314 5.064 17.622 5.064h.001c2.625 0 5.252-.163 7.793-.32.68-.042 1.355-.084 2.023-.122a1.143 1.143 0 001.065-1.178l-.122-4.642zM61.717 33.408h18.014l-8.829 10.678c-2.132-1.29-4.628-2.737-7.052-4.143l-.004-.002c-1.739-1.009-3.4-1.972-4.822-2.817l2.693-3.716zm1.009 8.528l-.002-.001a545.767 545.767 0 01-5.048-2.95l-5.582 7.7c.818 1.245 1.817 2.347 2.87 3.142 2.462 1.863 5.606 1.822 9.246 1.774l.27-.003.213-.002 4.736-5.728c-2.043-1.23-4.401-2.597-6.695-3.928l-.008-.004zm-13.91 3.405a16.58 16.58 0 00.861 1.737c.041.104.098.203.17.293 1.022 1.703 2.352 3.229 3.772 4.302 3.074 2.325 6.74 2.277 10.62 2.226h.036l.898 5.287h-5.157c-.623 0-1.128.514-1.128 1.149 0 .634.505 1.149 1.128 1.149h5.547l.447 2.63h-4.24c-.622 0-1.127.514-1.127 1.15 0 .634.505 1.148 1.128 1.148H66.4l.755 4.446c.036.216.133.418.28.58 1.229 1.369 3.398 2.18 5.694 3.038 4.137 1.547 8.414 3.146 8.332 7.876l-.003.292-.66.021-.023.001c-1.532.05-3.116.102-4.64.102-6.64 0-12-.977-16.581-5.74l-.016-.017-20.58-20.586 9.859-11.084zm33.77 41.993h.007l.94-.058-.062-2.39c-.87.02-1.742.049-2.594.076h-.008c-1.557.051-3.167.104-4.734.104-6.235 0-12.753-.778-18.185-6.422l-20.554-20.56-1.808 1.815 23.178 23.226c4.961 4.01 11.245 4.525 16.17 4.525 2.555 0 5.145-.16 7.65-.316z"/>
      <path fill="#FFF" fill-rule="nonzero" d="M84.295 82.363v-.273h-.002l.002.273zm1.13 1.108l-.272.007.271-.007zm-1.145-1.108l-.002-.273h-.002l.004.273zm-.842.014l-.272-.002-.002.281.28-.005-.006-.274zm.002-.187l-.272-.005.272.005zm-3.362-6.844l-.164.217.164-.217zm-6.47-3.136l-.097.255.003.001.094-.256zm0 0l.096-.256h-.002l-.095.256zm-.002 0l.095-.257-.095.256zm-4.601-2.195l-.268.046.016.094.071.064.18-.204zm-2.9-16.875l-.207-.176-.081.097.021.125.268-.046zM82.74 33.255l.208.176-.208-.176zm.16-1.214l-.246.116.247-.116zm-22.992-.196l.219.162-.219-.162zm-3.782 5.158l-.219-.163.219.163zm-.003.003l.219.163-.219-.163zm-5.576 7.604l-.25.108.187.438.282-.384-.22-.162zm-.555-1.607l-.263.07.263-.07zm-.826-.815l.064-.265-.064.265zm-1.105.342l.202.184-.202-.184zm-11.87 13.191l.19.195.01-.011-.2-.184zm-3.4 3.374l.19.194-.19-.194zm-.337.811h-.272.272zm.337.812l.191-.195-.19.195zm13.99 13.853v.273h.662l-.472-.468-.19.195zm2.299 2.277l.19-.195-.08-.078h-.11v.273zm3.51 3.476v.273h.662l-.472-.468-.19.195zm2.299 2.277l.19-.195-.079-.078h-.111v.273zm1.998 1.979l.19-.195-.19.195zm.087.078l.17-.214-.17.214zm17.665 5.017v.273-.273zm7.813-.317l-.017-.273.017.273zm2.027-.121l-.015-.273.015.273zm1.067-1.167l.272-.007-.272.007zm-6.101-54.41l.208.176.375-.45h-.583v.274zm-18.057 0v-.273h-.137l-.081.11.218.163zm9.207 10.579l-.14.235.2.118.148-.177-.208-.176zm-7.07-4.105l.135-.237-.135.237zm-.003-.002l.134-.238-.134.238zm0 0l-.135.237.135-.237zm-4.834-2.79l-.219-.162-.18.244.262.154.137-.236zm3.71 4.766l-.134.238h.001l.134-.238zm.001 0l.135-.237h-.002l-.133.237zm-.001 0l.134-.238-.134.238zm-5.061-2.924l.137-.236-.21-.124-.146.198.219.162zm-5.595 7.63l-.219-.162-.113.154.106.16.226-.152zm2.876 3.113l.162-.22-.162.22zm9.269 1.757v-.273h-.004l.004.273zm0 0v.273h.003l-.003-.273zm.27-.003l-.003-.273.003.273zm.214-.002l.003.273.125-.002.08-.096-.208-.175zm4.747-5.674l.208.175.206-.246-.276-.165-.138.236zm-6.711-3.892l.135-.237-.135.237zm-13.579 4.178l-.243.122.243-.122zm-.371-.81l.25-.106-.167-.393-.285.316.202.184zm.861 1.722l.252-.103-.007-.018-.01-.017-.235.138zm.171.29l.232-.142-.01-.016-.011-.014-.21.172zm3.781 4.262l.162-.219-.162.22zm10.646 2.206l-.004-.273.004.273zm.036 0l.268-.047-.04-.23-.231.003.003.274zm.9 5.237v.273h.322l-.054-.32-.268.047zm.391 2.277l.268-.047-.04-.226h-.228v.273zm.448 2.606v.273h.322l-.055-.32-.267.047zm.39 2.277l.269-.047-.04-.227h-.228v.274zm.757 4.404l.268-.047-.268.047zm.28.575l-.2.184.2-.184zm5.71 3.01l.095-.256h-.002l-.094.256zm0 0l-.096.256.003.001.092-.257zm0 0l.094-.256h-.001l-.093.256zm8.35 7.802l.273.005-.272-.005zm-.002.29l.009.273.262-.009v-.263l-.27-.001zm-.662.02l-.008-.272.008.273zm-.022.001l.008.274-.008-.274zm-21.273-5.586l.194-.191-.002-.002-.192.193zm-.016-.016l.193-.193-.002-.002-.19.195zm-20.63-20.395l-.2-.183-.176.194.186.184.19-.195zm43.741 30.622l-.016-.273.016.273zm-.006 0l.016.273-.016-.273zm.948-.057l.016.273.263-.016-.007-.264-.272.007zm-.062-2.368l.271-.007-.007-.272-.27.006.006.273zm-2.6.075l.009.273-.009-.273zm-.008 0l-.008-.272.008.273zm-22.975-6.26l.195-.19-.004-.004-.19.194zM37.008 58.107l.19-.195-.19-.19-.19.19.19.195zm-1.812 1.798l-.191-.194-.196.194.196.195.19-.195zm23.234 23.01l-.19.194.01.01.011.01.17-.214zm16.208 4.483v.273-.273zm9.657-4.762c.464 0 .846.373.858.842l.543-.014a1.406 1.406 0 00-1.401-1.374v.546zm-.013 0h.015l-.004-.546h-.015l.004.546zm-.839.015l.84-.015-.007-.546c-.281.003-.563.009-.844.014l.011.547zm-.275-.466l-.002.19.543.005.002-.185-.543-.01zm-3.254-6.622c2.213 1.69 3.302 3.912 3.254 6.622l.543.01c.051-2.89-1.122-5.274-3.468-7.067l-.33.435zm-6.4-3.097c2.156.797 4.55 1.684 6.4 3.097l.329-.435c-1.926-1.471-4.402-2.384-6.542-3.175l-.187.513zm-.003 0l.193-.512-.193.511zm0 0h.002l.189-.512-.19.511zm-4.687-2.247c.503.45 1.215.838 2.02 1.198.807.361 1.732.702 2.669 1.049l.187-.513c-.941-.348-1.848-.683-2.636-1.035-.79-.354-1.44-.715-1.878-1.107l-.362.408zm-2.986-17.033l2.9 16.875.535-.093-2.9-16.875-.535.093zm16.694-20.107L65.898 52.964l.416.351 16.634-19.884-.416-.352zm.122-.922a.868.868 0 01-.122.922l.416.352a1.42 1.42 0 00.2-1.505l-.494.23zm-.779-.5a.86.86 0 01.78.5l.492-.23a1.4 1.4 0 00-1.272-.817v.546zm-21.057 0h21.057v-.547H60.818v.546zm-.691.35a.857.857 0 01.69-.35v-.547c-.445 0-.863.213-1.128.573l.438.324zm-3.782 5.158l3.782-5.158-.438-.324-3.782 5.157.438.325zm-.003.003l.003-.004-.438-.323-.003.004.438.323zm-5.576 7.604l5.576-7.603-.438-.325-5.576 7.604.438.324zm-1.037-1.699c.145.548.335 1.099.568 1.645l.5-.215a11.509 11.509 0 01-.542-1.57l-.526.14zm-.627-.619a.86.86 0 01.627.619l.526-.14a1.407 1.407 0 00-1.025-1.01l-.128.531zm-.84.26a.856.856 0 01.84-.26l.128-.531c-.5-.122-1.025.04-1.37.424l.403.367zm-11.87 13.19l11.87-13.19-.402-.367-11.871 13.19.403.368zm-3.41 3.385l3.399-3.373-.382-.39-3.4 3.375.382.388zm-.257.617a.87.87 0 01.256-.617l-.381-.388a1.415 1.415 0 00-.418 1.006h.543zm.257.617a.87.87 0 01-.257-.617h-.543c0 .379.15.74.419 1.006l.381-.39zm13.989 13.853L32.982 60.523l-.381.39L46.59 74.765l.38-.39zm-5.2.468h5.01v-.546h-5.01v.546zm-.859.866c0-.479.385-.866.86-.866v-.546c-.775 0-1.403.632-1.403 1.412h.543zm.86.865a.862.862 0 01-.86-.865h-.543c0 .779.628 1.411 1.402 1.411v-.546zm7.308 0h-7.31v.546h7.309v-.546zm3.7 3.554l-3.51-3.476-.381.39 3.51 3.476.381-.39zm-5.472.468h5.281v-.546h-5.281v.546zm-.86.865c0-.478.386-.865.86-.865v-.546c-.775 0-1.403.632-1.403 1.411h.544zm.86.866a.863.863 0 01-.86-.866h-.543c0 .78.628 1.412 1.403 1.412v-.546zm7.58 0h-7.58v.546h7.58v-.546zm2.19 2.057l-1.999-1.979-.381.39 1.998 1.979.382-.39zm.065.059a.888.888 0 01-.065-.059l-.382.39c.035.033.07.066.109.096l.338-.427zm17.496 4.957c-5.31 0-12.044-.572-17.495-4.957l-.34.427c5.605 4.508 12.503 5.077 17.835 5.077v-.547zm0 0v.547-.547zm7.796-.316c-2.548.156-5.174.316-7.795.316v.547c2.64 0 5.282-.162 7.828-.318l-.033-.545zm2.029-.12c-.67.037-1.347.078-2.029.12l.033.545c.682-.041 1.358-.082 2.027-.12l-.031-.546zm.81-.888a.863.863 0 01-.81.887l.03.546a1.409 1.409 0 001.324-1.447l-.544.014zm-.121-4.599l.121 4.6.544-.015-.122-4.6-.543.015zm-5.708-50.091H61.388v.546h18.057v-.546zm-8.642 11.028l8.85-10.579-.416-.352-8.85 10.579.416.352zM63.39 40.37c2.43 1.393 4.93 2.826 7.065 4.103l.278-.47c-2.14-1.28-4.645-2.715-7.074-4.107l-.269.474zm-.004-.002l.004.002.269-.474-.004-.003-.269.475zm0 0h.001l.267-.475-.267.476zm-4.836-2.791a575.68 575.68 0 004.836 2.791l.27-.475c-1.744-.999-3.408-1.952-4.832-2.788l-.274.472zm2.619-4.08l-2.7 3.682.437.324 2.7-3.682-.437-.324zm1.095 8.848l.267-.476-.267.476zm-.002-.001h.001l.27-.474h-.002l-.27.474zM57.2 39.42a509.25 509.25 0 005.063 2.925l.27-.475a503.2 503.2 0 01-5.059-2.922l-.274.472zm-5.24 7.556l5.596-7.63-.438-.324-5.595 7.63.437.324zm2.82 2.731c-1.027-.767-2.007-1.833-2.812-3.045l-.452.304c.835 1.255 1.856 2.37 2.94 3.18l.324-.439zm9.103 1.704c-3.674.047-6.722.076-9.103-1.704l-.324.44c2.556 1.91 5.81 1.857 9.434 1.81l-.007-.546zm.004 0v.546-.546zm.267-.003l-.27.003.006.546.27-.003-.006-.546zm.214-.003l-.214.003.006.546.214-.002-.006-.547zm4.542-5.576l-4.747 5.674.416.351 4.747-5.674-.416-.351zm-6.638-3.479c2.3 1.319 4.662 2.672 6.708 3.89l.276-.47a489.26 489.26 0 00-6.714-3.894l-.27.474zm-.007-.004l.007.004.27-.474-.008-.005-.27.475zM49.07 46.17c-.13-.264-.252-.53-.364-.795l-.5.214c.117.276.243.55.378.824l.486-.243zm.482.895a16.49 16.49 0 01-.482-.896l-.486.244c.155.314.323.623.499.927l.47-.275zm.147.256a.88.88 0 01-.13-.22l-.503.204c.051.129.122.25.212.36l.421-.344zm3.732 4.215c-1.391-1.04-2.703-2.524-3.71-4.185l-.465.285c1.04 1.713 2.397 3.252 3.85 4.339l.325-.439zm10.48 2.152c-3.908.05-7.484.087-10.48-2.152l-.324.439c3.167 2.367 6.94 2.309 10.811 2.26l-.007-.547zm.037 0h-.037l.007.546h.036l-.006-.547zm1.17 5.463l-.9-5.237-.535.093.9 5.237.536-.093zm-5.437.32h5.17v-.546h-5.17v.546zm-.859.866c0-.479.385-.866.86-.866v-.546c-.775 0-1.403.632-1.403 1.412h.543zm.86.865a.862.862 0 01-.86-.865h-.543c0 .779.627 1.411 1.402 1.411v-.546zm5.56 0h-5.56v.546h5.56v-.546zm.715 2.832l-.447-2.606-.536.093.448 2.606.535-.093zm-4.516.32h4.249v-.547h-4.25v.547zm-.86.865c0-.478.386-.865.86-.865v-.547c-.775 0-1.403.633-1.403 1.412h.544zm.86.865a.863.863 0 01-.86-.865h-.543c0 .78.628 1.412 1.403 1.412v-.547zm4.64 0h-4.64v.547h4.64v-.547zm1.024 4.631l-.756-4.404-.536.093.757 4.404.535-.093zm.213.437a.868.868 0 01-.213-.437l-.535.093c.045.266.166.514.347.713l.401-.369zm5.602 2.938c-1.154-.426-2.26-.835-3.231-1.305-.972-.47-1.788-.992-2.37-1.633l-.402.369c.65.715 1.537 1.273 2.536 1.756 1 .484 2.132.902 3.28 1.326l.187-.513zm.002.001l-.191.512.19-.512zm-.002 0l-.001-.001-.185.514.186-.514zm8.53 8.063c.043-2.448-1.065-4.094-2.7-5.308-1.618-1.201-3.766-1.993-5.829-2.755l-.188.513c2.083.77 4.151 1.536 5.694 2.682 1.524 1.132 2.518 2.622 2.48 4.859l.543.01zm-.003.286c0-.092 0-.186.003-.286l-.544-.01-.003.294.544.002zm-.925.293l.662-.021-.018-.547-.661.022.017.546zm-.023 0h.023l-.018-.546h-.022l.017.547zm-4.66.101c1.533 0 3.125-.051 4.66-.1l-.017-.547c-1.537.05-3.12.1-4.642.1v.547zm-16.815-5.769c4.668 4.798 10.134 5.77 16.816 5.77v-.547c-6.63 0-11.912-.964-16.428-5.605l-.388.382zm-.014-.014l.016.016.384-.386-.015-.016-.385.386zM38.383 56.658l20.63 20.395.38-.39L38.765 56.27l-.38.39zm9.872-11.36L38.372 56.28l.403.367 9.883-10.982-.403-.367zm34.043 41.514h-.007l.033.546h.007l-.033-.546zm.942-.057l-.942.057.033.546.941-.057-.032-.546zm-.318-2.088l.063 2.368.543-.014-.063-2.368-.543.014zm-2.32.341c.854-.027 1.727-.055 2.598-.075l-.012-.546c-.874.02-1.75.048-2.603.075l.018.546zm-.007 0h.008l-.017-.546h-.008l.017.547zm-4.754.103c1.576 0 3.194-.052 4.754-.102l-.018-.546c-1.561.05-3.17.102-4.736.102v.546zm-18.424-6.444c5.525 5.672 12.154 6.444 18.424 6.444v-.546c-6.23 0-12.67-.77-18.035-6.28l-.389.382zM36.817 58.3l20.604 20.37.381-.39L37.2 57.91l-.381.39zm-1.43 1.799l1.812-1.8-.382-.388-1.812 1.799.382.389zM58.62 82.72L35.386 59.71l-.381.39L58.24 83.11l.38-.39zm16.017 4.405c-4.928 0-11.144-.514-16.039-4.424l-.338.428c5.05 4.034 11.432 4.542 16.377 4.542v-.546zm.001 0v.546-.546zm7.652-.312c-2.513.154-5.1.312-7.652.312v.546c2.57 0 5.175-.16 7.685-.313l-.033-.545z"/>
      <path fill="#FFF" fill-rule="nonzero" stroke="#FFF" stroke-width=".3" d="M38.576 74.393h-.05c-.541 0-.98.454-.98 1.015 0 .56.439 1.014.98 1.014h.05c.542 0 .98-.454.98-1.014s-.438-1.015-.98-1.015zm5.364 6.087h-.05c-.542 0-.98.454-.98 1.014s.438 1.015.98 1.015h.05c.541 0 .98-.455.98-1.015 0-.56-.439-1.014-.98-1.014z"/>
    </g>
  </g>
</svg>
