<svg xmlns="http://www.w3.org/2000/svg" width="2252" height="699" viewBox="0 0 2252 699">
  <g fill="none" fill-rule="evenodd">
    <path d="M1.757 611.5h2248.486M1.757 530.5h2248.486M1.757 448.5h2248.486M1.757 285.5h2248.486M1.757 367.5h2248.486M1.757 204.5h2248.486" stroke="#EBEBEB" stroke-linecap="square" stroke-width="3"/>
    <path stroke="#4ADA5D" stroke-width="10" d="M394 694.188L882.539 528.5l420.617 46.055L1560.352 351 1734 339.5l188-201.289"/>
    <path stroke="#EC3F23" stroke-linejoin="round" stroke-width="10" d="M227.156 694.188L492 567.234 515.375 465.5l116.278 22.101 49.028-66.24h46.305l55.502 32.795h61.869l68.095-32.795 116.78 95.32 120.842-178.74 558.121-159.347L1922 39.086"/>
    <path stroke="#F7A819" stroke-width="10" d="M287.5 694.188L492 364.5h293.461L908.32 261.867l419.93 77.633L1542.078 210l196.25-151.414L1922 5"/>
  </g>
</svg>
