<svg xmlns="http://www.w3.org/2000/svg" xmlns:xlink="http://www.w3.org/1999/xlink" width="416" height="416" viewBox="0 0 416 416">
  <defs>
    <path id="a" d="M0 1.846h207.502v216.241H0z"/>
  </defs>
  <g fill="none" fill-rule="evenodd">
    <path fill="#FF7900" stroke="#FF7900" d="M.5.5h415v415H.5z"/>
    <g transform="translate(93 93)">
      <circle cx="115" cy="115" r="115" fill="#FFF"/>
      <path fill="#FDBE10" d="M74.246 176.952c-.599 1.394.773 2.772.773 2.772 5.894 7.39 32.055 16.773 60.45 9.902 43.37-10.495 52.536-41.165 53.571-45.502.213-.878.385-2.305-.436-3.153-.693-.713-1.666-.725-3.019-.405-30.124 7.082-80.244 22.386-109.145 34.756-1.241.536-1.806.736-2.194 1.63m95.75-138.571c.51-1.236-.515-2.453-.515-2.453s-8.035-13.655-36.45-16.693c-15.217-1.626-35.93 1.458-50.454 9.28-26.306 14.181-30.245 37.522-30.245 37.522-.15.572-.398 2.325.193 3.063.603.756 1.48.74 2.562.38 9.29-3.135 36.962-12.317 54.426-16.95 24.85-6.59 45.268-10.605 58.375-12.835.922-.159 1.762-.461 2.108-1.314"/>
      <g transform="translate(9 6.067)">
        <mask id="b" fill="#fff">
          <use xlink:href="#a"/>
        </mask>
        <path fill="#0060A8" d="M189.38 142.357c-14.872 33.412-43.41 56.663-80.813 57.193-27.234.386-51.273-8.948-68.632-25.212l-10.497 4.486.013-16.257c-11.436-15.43-18.064-34.946-18.064-57.116 0-56.785 43.485-101.544 104.146-101.544 9.904 0 18.843 1.542 25.6 3.072-10.397-3.33-20.73-5.133-32.229-5.133C43.811 1.846.002 54.636 0 109.066c-.002 59.326 46.537 109.021 107.617 109.021 58.338 0 89.819-41.13 99.885-65.877l-18.122-9.853z" mask="url(#b)"/>
      </g>
      <path fill="#EC1C2D" d="M145.379 67.341l-14.455 3.287s-.013 1.525-.015 4.027c.015 1.861 1.331 3.08 3.212 2.686 1.192-.247 2.146-.461 2.146-.461l.021 4.008c.017 1.591-2.368 2.63-4.842 2.575-3.472-.087-5.395-2.784-5.442-7.917.107-6.741 3.279-10.694 7.6-11.807 2.16-.55 4.123-.275 5.642-.084 3.734.606 5.873-1.194 5.95-4.274.082-3.3-2.851-5.335-9.126-5.12-13.61.473-20.57 10.253-20.57 21.924 0 11.955 7.812 17.235 17.339 15.513 5.387-1.094 8.065-2.839 9.923-4.463 1.854-1.636 2.617-4.067 2.623-6.145l-.006-13.749zM98.506 81.626c.011 0 5.744-2.965 5.68-7.671-.054-4.014-3.754-3.136-5.679-2.428l-.001 10.1zm.017 5.448s-.021 6.78-.027 9.51c-.029 2.558-1.78 4.412-3.993 5.261 0 .075 0-.086 0 0l-5.78 1.98.015-36.4s8.12-2.825 12.9-3.938c7.42-1.726 12.7 1.647 12.604 7.646-.05 5.703-3.233 9.175-6.095 11.543l6.29 6.034c1.934 1.875 2.066 5.255-.107 7.296-1.29 1.21-4.736 2.464-7.432-.27l-8.375-8.662zm-12.471-13.98c0-3.264-2.248-4.136-4.965-3.356-2.198.628-4.76 1.628-4.76 1.628l-.017 24.112c-.024 2.397-.394 5.4-3.355 6.147-2.269.57-3.344-.947-3.348-3.33l-.032-19.737c0-3.287-2.28-4.267-4.988-3.375-3.051 1.021-4.874 1.75-4.874 1.75s.027 17.082-.01 23.904c-.04 8.002 5.481 11.998 13.89 9.515 7.42-2.196 12.374-6.35 12.466-17.007l-.007-20.251zM42.187 98.643a22.21 22.21 0 0 0 1.806-.792c2.135-1.045 3.658-2.964 3.677-5.47.02-2.84-2.324-3.577-5.48-1.943l-.003 8.205 6.344 8.524c-.042-2.933-2.324-4.528-6.265-2.552l-.012 9.437s1.278-.566 2.216-1.002c2.303-1.07 4.11-2.992 4.061-5.883l-6.344-8.524zm16.69 7.177c.126 7.45-5.238 11.41-12.226 14.31l-14.312 6.08-.034-38.784s9.022-3.682 11.964-4.744c8.364-3.042 13.28.62 13.28 6.208 0 3.736-1.595 6.896-5.062 9.691 3.415.567 6.327 3.367 6.39 7.24zm21.711 8.54c-4.47-2.024-8.3.24-9.933 2.745l-13.731 23.351-.025-18.832-16.185 6.71-.051 53.25 11.4-4.782s2.242-.64 3.59-2.76c1.242-1.952 1.196-5.235 1.196-5.235l.015-16.879 12.745 13.524c2.799 2.906 7.94 4.386 12.477.73 4.105-3.313 3.47-8.958 1.18-11.487l-11.614-11.69s10.22-16.103 11.892-18.8c2.217-3.572 1.102-8-2.956-9.845zm24.154-10.548s-4.867 1.427-8.825 2.852c-5.15 1.861-8.11 4.836-8.11 12.624 0 7.147-.016 44.366-.016 44.366s4.507-1.539 8.712-3.12c5.968-2.248 8.224-5.328 8.224-11.598 0-5.39.015-45.124.015-45.124zm4.896 52.186l7.554-2.6c5.588-1.925 7.622-5.246 7.595-11-.07-6.239-.082-18.408-.082-18.408l16.165 18.616c2.627 2.711 5.92 2.944 8.924 2.059 3.119-.91 5.71-3.754 5.79-7.775.026-13.447-.014-46.269-.014-46.269s-4.17.886-7.637 1.863c-3.99 1.137-7.057 3.683-7.057 10.394 0 2.376-.008 16.01-.008 16.01s-9.095-11.396-15.048-17.351c-3.181-3.178-8.442-1.276-8.442-1.276l-7.754 2.34.014 53.397zm55.958-72.943c2.14-.467 3.47-1.97 3.47-4.576 0-2.36.012-4.151.012-4.151l-11.614 2.538.025-6.833s5.693-1.205 7.273-1.548c1.984-.43 3.024-1.519 3.024-3.786 0-2.121-.013-3.954-.013-3.954l-10.286 2.183-.002-5.414s5.347-1.113 8.226-1.724c2.248-.464 2.988-2.006 2.988-4.12 0-1.378.025-4.108.025-4.108-5.131.903-14.89 2.866-20.971 4.247l-.078 35.36s11.558-2.729 17.921-4.114zm15.102-21c.007-.005 5.666-2.157 5.599-6.693-.057-3.836-3.836-3.134-5.613-2.742l.014 9.436zM171.205 82l.013-34.91s10.199-1.8 12.83-2.144c7.301-.93 12.206 3.128 12.107 8.886-.04 5.06-3.222 8.114-5.925 9.946 0 0 4.965 5.598 6.296 7.079 1.793 1.993 1.71 5.41-.932 7.082-2.605 1.64-5.178.778-6.674-.869l-8.211-9.622s.03 5.91.023 8.5c-.027 2.567-1.511 4.449-4.18 5.002L171.205 82zm12.073 54.7c8.563-.976 14.478-4.417 17.736-7.608 2.963-2.914 3.652-6.914 3.656-9.897.12-4.369 0-18.18 0-18.18l-22.65 4.906s0 1.702-.014 5.293c.042 3.495 1.733 5.4 5.399 4.731 1.151-.19 2.925-.756 2.925-.756l.028 4.322c-.017-.119.335 2.414-5.375 3.545-7.47 1.175-10.864-3.423-10.952-11.541.147-8.716 5.067-13.736 11.038-15.11 6.715-1.534 10.525.063 12.762.402 7.499 1.123 9.624-10.124 2.804-12.766-5.05-2.03-11.595-2.397-17.833-1.155-8.333 1.666-24.722 8.635-24.764 31.301.04 18.01 13.316 23.873 25.24 22.513z"/>
      <path fill="#FEFEFE" d="M88.424 28.245C72.479 35.297 61.716 52.042 61.123 59.13c-.232 2.82 3.507 3.227 3.857.239 3.365-12.944 13.663-25.138 23.444-31.124m52.836 12.022c8.595-2.108 13.316-2.427 13.402-6.269.152-6.43-18.198-13.883-35.004-12.538 17.121 1.144 27.392 7.739 27.452 12.33.028 2.911-2.487 5.47-5.85 6.477m5.326 142.185c12.907-5.077 25.306-14.763 32.164-29.287 1.982-4.2-3.746-6.344-5.359-1.412-4.017 10.325-12.268 22.438-26.805 30.699"/>
    </g>
  </g>
</svg>
