<svg xmlns="http://www.w3.org/2000/svg" width="409" height="409" viewBox="0 0 408.2 408.2">
  <style>
    .st0{fill:#ff8500}.st1{fill:#ef0}.st2{fill:#ffe000}.st3{fill:#101010}.st4{fill:#2d2d2d}.st5{fill:#fffdfd}
  </style>
  <path class="st0" d="M391.7 135.6v-34.1h-17v-17h-17v-17h-17v-17h-17v-17h-17.1v-17h-34v-17h-137v17h-34v17H84.5v17h-17v17h-17v17h-17v17h-17v34.1h-17v137h17v34h17v17h17v17h17v17.1h17v17h17.1v17h34v17h137v-17h34v-17h17.1v-17h17v-17.1h17v-17h17v-17h17v-34h17v-137z"/>
  <path class="st0" d="M136.1 0h17v17h-17zm17 0h17v17h-17zm17 0h17v17h-17zm17 0h17v17h-17zm17 0h17v17h-17zm17 0h17v17h-17zm17 0h17v17h-17zm17 0h17v17h-17zm-153 17h17v17h-17zm17 0h17v17h-17z"/>
  <path class="st1" d="M136.1 17h17v17h-17zm17 0h17v17h-17zm17 0h17v17h-17zm17 0h17v17h-17zm17 0h17v17h-17zm17 0h17v17h-17zm17 0h17v17h-17zm17 0h17v17h-17z"/>
  <path class="st0" d="M272.1 17h17v17h-17zm17 0h17v17h-17zM85 34h17v17H85z"/>
  <path class="st1" d="M102.1 34h17v17h-17zm17 0h17v17h-17zm17 0h17v17h-17zm17 0h17v17h-17zm17 0h17v17h-17zm17 0h17v17h-17zm17 0h17v17h-17zm17 0h17v17h-17zm17 0h17v17h-17zm17 0h17v17h-17zm17 0h17v17h-17zm17 0h17v17h-17z"/>
  <path class="st0" d="M306.1 34h17v17h-17zM68 51h17v17H68z"/>
  <path class="st1" d="M85 51h17v17H85zm17.1 0h17v17h-17zm17 0h17v17h-17z"/>
  <path class="st2" d="M136.1 51h17v17h-17zm17 0h17v17h-17zm17 0h17v17h-17zm17 0h17v17h-17zm17 0h17v17h-17z"/>
  <path class="st1" d="M221.1 51h17v17h-17zm17 0h17v17h-17zm17 0h17v17h-17zm17 0h17v17h-17zm17 0h17v17h-17zm17 0h17v17h-17z"/>
  <path class="st0" d="M323.1 51h17v17h-17zM51 68h17v17H51z"/>
  <path class="st1" d="M68 68h17v17H68zm17 0h17v17H85z"/>
  <path class="st2" d="M102.1 68h17v17h-17zm17 0h17v17h-17zm17 0h17v17h-17zm17 0h17v17h-17zm17 0h17v17h-17zm17 0h17v17h-17zm17 0h17v17h-17zm17 0h17v17h-17z"/>
  <path class="st1" d="M238.1 68h17v17h-17zm17 0h17v17h-17zm17 0h17v17h-17zm17 0h17v17h-17zm17 0h17v17h-17zm17 0h17v17h-17z"/>
  <path class="st0" d="M340.2 68h17v17h-17zM34 85h17v17H34z"/>
  <path class="st1" d="M51 85h17v17H51z"/>
  <path class="st2" d="M68 85h17v17H68zm17 0h17v17H85zm17.1 0h17v17h-17zm17 0h17v17h-17zm17 0h17v17h-17zm17 0h17v17h-17zm17 0h17v17h-17zm17 0h17v17h-17zm17 0h17v17h-17zm17 0h17v17h-17zm17 0h17v17h-17zm17 0h17v17h-17zm17 0h17v17h-17zm17 0h17v17h-17z"/>
  <path class="st1" d="M306.1 85h17v17h-17zm17 0h17v17h-17zm17.1 0h17v17h-17z"/>
  <path class="st0" d="M357.2 85h17v17h-17zM17 102h17v17H17z"/>
  <path class="st2" d="M34 102h17v17H34zm17 0h17v17H51zm17 0h17v17H68zm17 0h17v17H85zm17.1 0h17v17h-17zm17 0h17v17h-17zm17 0h17v17h-17zm17 0h17v17h-17zm17 0h17v17h-17zm17 0h17v17h-17zm17 0h17v17h-17zm17 0h17v17h-17zm17 0h17v17h-17zm17 0h17v17h-17zm17 0h17v17h-17zm17 0h17v17h-17zm17 0h17v17h-17zm17 0h17v17h-17zm17.1 0h17v17h-17z"/>
  <path class="st1" d="M357.2 102h17v17h-17z"/>
  <path class="st0" d="M374.2 102h17v17h-17zM17 119.1h17v17H17z"/>
  <path class="st3" d="M34 119.1h17v17H34zm17 0h17v17H51zm17 0h17v17H68zm17 0h17v17H85zm17.1 0h17v17h-17zm17 0h17v17h-17zm17 0h17v17h-17zm17 0h17v17h-17z"/>
  <path class="st2" d="M170.1 119.1h17v17h-17zm17 0h17v17h-17zm17 0h17v17h-17zm17 0h17v17h-17z"/>
  <path class="st3" d="M238.1 119.1h17v17h-17zm17 0h17v17h-17zm17 0h17v17h-17zm17 0h17v17h-17zm17 0h17v17h-17zm17 0h17v17h-17zm17.1 0h17v17h-17zm17 0h17v17h-17z"/>
  <path class="st0" d="M374.2 119.1h17v17h-17zM0 136.1h17v17H0z"/>
  <path class="st2" d="M17 136.1h17v17H17z"/>
  <path class="st3" d="M34 136.1h17v17H34zm17 0h17v17H51z"/>
  <path class="st4" d="M68 136.1h17v17H68z"/>
  <path class="st5" d="M85 136.1h17v17H85zm17.1 0h17v17h-17zm17 0h17v17h-17z"/>
  <path class="st4" d="M136.1 136.1h17v17h-17z"/>
  <path class="st3" d="M153.1 136.1h17v17h-17zm17 0h17v17h-17zm17 0h17v17h-17zm17 0h17v17h-17zm17 0h17v17h-17zm17 0h17v17h-17z"/>
  <path class="st4" d="M255.1 136.1h17v17h-17z"/>
  <path class="st5" d="M272.1 136.1h17v17h-17zm17 0h17v17h-17zm17 0h17v17h-17z"/>
  <path class="st4" d="M323.1 136.1h17v17h-17z"/>
  <path class="st3" d="M340.2 136.1h17v17h-17zm17 0h17v17h-17z"/>
  <path class="st2" d="M374.2 136.1h17v17h-17z"/>
  <path class="st0" d="M391.2 136.1h17v17h-17zM0 153.1h17v17H0z"/>
  <path class="st2" d="M17 153.1h17v17H17zm17 0h17v17H34z"/>
  <path class="st3" d="M51 153.1h17v17H51z"/>
  <path class="st4" d="M68 153.1h17v17H68z"/>
  <path class="st5" d="M85 153.1h17v17H85z"/>
  <path class="st4" d="M102.1 153.1h17v17h-17zm17 0h17v17h-17zm17 0h17v17h-17zm17 0h17v17h-17z"/>
  <path class="st3" d="M170.1 153.1h17v17h-17zm17 0h17v17h-17zm17 0h17v17h-17zm17 0h17v17h-17z"/>
  <path class="st4" d="M238.1 153.1h17v17h-17zm17 0h17v17h-17z"/>
  <path class="st5" d="M272.1 153.1h17v17h-17z"/>
  <path class="st4" d="M289.1 153.1h17v17h-17zm17 0h17v17h-17zm17 0h17v17h-17z"/>
  <path class="st3" d="M340.2 153.1h17v17h-17z"/>
  <path class="st2" d="M357.2 153.1h17v17h-17zm17 0h17v17h-17z"/>
  <path class="st0" d="M391.2 153.1h17v17h-17zM0 170.1h17v17H0z"/>
  <path class="st2" d="M17 170.1h17v17H17zm17 0h17v17H34z"/>
  <path class="st3" d="M51 170.1h17v17H51zm17 0h17v17H68z"/>
  <path class="st4" d="M85 170.1h17v17H85zm17.1 0h17v17h-17zm17 0h17v17h-17zm17 0h17v17h-17zm17 0h17v17h-17z"/>
  <path class="st3" d="M170.1 170.1h17v17h-17z"/>
  <path class="st2" d="M187.1 170.1h17v17h-17zm17 0h17v17h-17z"/>
  <path class="st3" d="M221.1 170.1h17v17h-17z"/>
  <path class="st4" d="M238.1 170.1h17v17h-17zm17 0h17v17h-17zm17 0h17v17h-17zm17 0h17v17h-17zm17 0h17v17h-17z"/>
  <path class="st3" d="M323.1 170.1h17v17h-17zm17.1 0h17v17h-17z"/>
  <path class="st2" d="M357.2 170.1h17v17h-17zm17 0h17v17h-17z"/>
  <path class="st0" d="M391.2 170.1h17v17h-17zM0 187.1h17v17H0z"/>
  <path class="st2" d="M17 187.1h17v17H17zm17 0h17v17H34zm17 0h17v17H51z"/>
  <path class="st3" d="M68 187.1h17v17H68zm17 0h17v17H85z"/>
  <path class="st4" d="M102.1 187.1h17v17h-17zm17 0h17v17h-17zm17 0h17v17h-17z"/>
  <path class="st3" d="M153.1 187.1h17v17h-17z"/>
  <path class="st2" d="M170.1 187.1h17v17h-17zm17 0h17v17h-17zm17 0h17v17h-17zm17 0h17v17h-17z"/>
  <path class="st3" d="M238.1 187.1h17v17h-17z"/>
  <path class="st4" d="M255.1 187.1h17v17h-17zm17 0h17v17h-17zm17 0h17v17h-17z"/>
  <path class="st3" d="M306.1 187.1h17v17h-17zm17 0h17v17h-17z"/>
  <path class="st2" d="M340.2 187.1h17v17h-17zm17 0h17v17h-17zm17 0h17v17h-17z"/>
  <path class="st0" d="M391.2 187.1h17v17h-17zM0 204.1h17v17H0z"/>
  <path class="st2" d="M17 204.1h17v17H17zm17 0h17v17H34zm17 0h17v17H51zm17 0h17v17H68z"/>
  <path class="st3" d="M85 204.1h17v17H85zm17.1 0h17v17h-17zm17 0h17v17h-17zm17 0h17v17h-17z"/>
  <path class="st2" d="M153.1 204.1h17v17h-17zm17 0h17v17h-17zm17 0h17v17h-17zm17 0h17v17h-17zm17 0h17v17h-17zm17 0h17v17h-17z"/>
  <path class="st3" d="M255.1 204.1h17v17h-17zm17 0h17v17h-17zm17 0h17v17h-17zm17 0h17v17h-17z"/>
  <path class="st2" d="M323.1 204.1h17v17h-17zm17.1 0h17v17h-17zm17 0h17v17h-17zm17 0h17v17h-17z"/>
  <path class="st0" d="M391.2 204.1h17v17h-17zM0 221.1h17v17H0z"/>
  <path class="st2" d="M17 221.1h17v17H17zm17 0h17v17H34zm17 0h17v17H51zm17 0h17v17H68zm17 0h17v17H85zm17.1 0h17v17h-17zm17 0h17v17h-17zm17 0h17v17h-17zm17 0h17v17h-17zm17 0h17v17h-17zm17 0h17v17h-17zm17 0h17v17h-17zm17 0h17v17h-17zm17 0h17v17h-17zm17 0h17v17h-17zm17 0h17v17h-17zm17 0h17v17h-17zm17 0h17v17h-17zm17 0h17v17h-17zm17.1 0h17v17h-17zm17 0h17v17h-17zm17 0h17v17h-17z"/>
  <path class="st0" d="M391.2 221.1h17v17h-17zM0 238.1h17v17H0z"/>
  <path class="st2" d="M17 238.1h17v17H17zm17 0h17v17H34zm17 0h17v17H51zm17 0h17v17H68zm17 0h17v17H85zm17.1 0h17v17h-17zm17 0h17v17h-17zm17 0h17v17h-17zm17 0h17v17h-17zm17 0h17v17h-17zm17 0h17v17h-17zm17 0h17v17h-17zm17 0h17v17h-17zm17 0h17v17h-17zm17 0h17v17h-17zm17 0h17v17h-17zm17 0h17v17h-17zm17 0h17v17h-17zm17 0h17v17h-17zm17.1 0h17v17h-17zm17 0h17v17h-17zm17 0h17v17h-17z"/>
  <path class="st0" d="M391.2 238.1h17v17h-17zM0 255.1h17v17H0z"/>
  <path class="st2" d="M17 255.1h17v17H17zm17 0h17v17H34zm17 0h17v17H51zm17 0h17v17H68zm17 0h17v17H85zm17.1 0h17v17h-17z"/>
  <path class="st3" d="M119.1 255.1h17v17h-17z"/>
  <path class="st2" d="M136.1 255.1h17v17h-17zm17 0h17v17h-17zm17 0h17v17h-17zm17 0h17v17h-17zm17 0h17v17h-17zm17 0h17v17h-17zm17 0h17v17h-17zm17 0h17v17h-17z"/>
  <path class="st3" d="M272.1 255.1h17v17h-17z"/>
  <path class="st2" d="M289.1 255.1h17v17h-17zm17 0h17v17h-17zm17 0h17v17h-17zm17.1 0h17v17h-17zm17 0h17v17h-17zm17 0h17v17h-17z"/>
  <path class="st0" d="M391.2 255.1h17v17h-17zM17 272.1h17v17H17z"/>
  <path class="st2" d="M34 272.1h17v17H34zm17 0h17v17H51zm17 0h17v17H68zm17 0h17v17H85zm17.1 0h17v17h-17zm17 0h17v17h-17z"/>
  <path class="st3" d="M136.1 272.1h17v17h-17z"/>
  <path class="st2" d="M153.1 272.1h17v17h-17zm17 0h17v17h-17zm17 0h17v17h-17zm17 0h17v17h-17zm17 0h17v17h-17zm17 0h17v17h-17z"/>
  <path class="st3" d="M255.1 272.1h17v17h-17z"/>
  <path class="st2" d="M272.1 272.1h17v17h-17zm17 0h17v17h-17zm17 0h17v17h-17zm17 0h17v17h-17zm17.1 0h17v17h-17zm17 0h17v17h-17z"/>
  <path class="st0" d="M374.2 272.1h17v17h-17zM17 289.1h17v17H17z"/>
  <path class="st2" d="M34 289.1h17v17H34zm17 0h17v17H51zm17 0h17v17H68zm17 0h17v17H85zm17.1 0h17v17h-17zm17 0h17v17h-17zm17 0h17v17h-17z"/>
  <path class="st3" d="M153.1 289.1h17v17h-17zm17 0h17v17h-17zm17 0h17v17h-17zm17 0h17v17h-17zm17 0h17v17h-17zm17 0h17v17h-17z"/>
  <path class="st2" d="M255.1 289.1h17v17h-17zm17 0h17v17h-17zm17 0h17v17h-17zm17 0h17v17h-17zm17 0h17v17h-17zm17.1 0h17v17h-17zm17 0h17v17h-17z"/>
  <path class="st0" d="M374.2 289.1h17v17h-17zM34 306.1h17v17H34z"/>
  <path class="st2" d="M51 306.1h17v17H51zm17 0h17v17H68zm17 0h17v17H85zm17.1 0h17v17h-17zm17 0h17v17h-17zm17 0h17v17h-17zm17 0h17v17h-17zm17 0h17v17h-17zm17 0h17v17h-17zm17 0h17v17h-17zm17 0h17v17h-17zm17 0h17v17h-17zm17 0h17v17h-17zm17 0h17v17h-17zm17 0h17v17h-17zm17 0h17v17h-17zm17 0h17v17h-17zm17.1 0h17v17h-17z"/>
  <path class="st0" d="M357.2 306.1h17v17h-17zM51 323.1h17v17H51z"/>
  <path class="st2" d="M68 323.1h17v17H68zm17 0h17v17H85zm17.1 0h17v17h-17zm17 0h17v17h-17zm17 0h17v17h-17zm17 0h17v17h-17zm17 0h17v17h-17zm17 0h17v17h-17zm17 0h17v17h-17zm17 0h17v17h-17zm17 0h17v17h-17zm17 0h17v17h-17zm17 0h17v17h-17zm17 0h17v17h-17zm17 0h17v17h-17zm17 0h17v17h-17z"/>
  <path class="st0" d="M340.2 323.1h17v17h-17zM68 340.2h17v17H68z"/>
  <path class="st2" d="M85 340.2h17v17H85zm17.1 0h17v17h-17zm17 0h17v17h-17zm17 0h17v17h-17zm17 0h17v17h-17zm17 0h17v17h-17zm17 0h17v17h-17zm17 0h17v17h-17zm17 0h17v17h-17zm17 0h17v17h-17zm17 0h17v17h-17zm17 0h17v17h-17zm17 0h17v17h-17zm17 0h17v17h-17z"/>
  <path class="st0" d="M323.1 340.2h17v17h-17zM85 357.2h17v17H85z"/>
  <path class="st2" d="M102.1 357.2h17v17h-17zm17 0h17v17h-17zm17 0h17v17h-17zm17 0h17v17h-17zm17 0h17v17h-17zm17 0h17v17h-17zm17 0h17v17h-17zm17 0h17v17h-17zm17 0h17v17h-17zm17 0h17v17h-17zm17 0h17v17h-17zm17 0h17v17h-17z"/>
  <path class="st0" d="M306.1 357.2h17v17h-17zm-204 17h17v17h-17zm17 0h17v17h-17z"/>
  <path class="st2" d="M136.1 374.2h17v17h-17zm17 0h17v17h-17zm17 0h17v17h-17zm17 0h17v17h-17zm17 0h17v17h-17zm17 0h17v17h-17zm17 0h17v17h-17zm17 0h17v17h-17z"/>
  <path class="st0" d="M272.1 374.2h17v17h-17zm17 0h17v17h-17zm-153 17h17v17h-17zm17 0h17v17h-17zm17 0h17v17h-17zm17 0h17v17h-17zm17 0h17v17h-17zm17 0h17v17h-17zm17 0h17v17h-17zm17 0h17v17h-17z"/>
</svg>
