<svg xmlns="http://www.w3.org/2000/svg" width="528" height="477" viewBox="0 0 527.2 476.2">
  <style>
    .st0{fill:#ff8500}.st1{fill:#9b0060}.st2{fill:#ffe000}.st3{fill:#fffdfd}.st4{fill:#ff55b6}.st5{fill:#ed2790}.st6{fill:#ef0}
  </style>
  <path class="st0" d="M510.7 50.5h-17v-17h-17v-34h-18v34h-17v17h-34v18h34v17h17v34h18v-34h17v-17h34v-18zm-425.2 51h-17v-17h-17v-17h-18v17h-17v17h-17v18h17v17.1h17v17h18v-17h17v-17.1h17zm118.6 221.1v-16.5h-16.5v-.5h-18v.5h-16.5v16.5h-17.5v17.1h-17v17H84.5v18h34.1v17h17v17h17v17h17v34h18v-34h17v-17h17v-86.1h-17z"/>
  <path class="st1" d="M459.7 186.6v-17h-17v-17h-17v-17h-86v17h-17.1v17h-17v17h-33v-17h-17v-17h-17v-17h-86v17h-17v17h-17v17h-17.1v86h17.1v34h17v17h18v-17h50v17h17v102.1h17v17h17v17h17v17h35v-17h17v-17h17v-17h17.1v-17h17v-17h17v-17h17v-17h17v-17.1h17v-34h17v-34h17v-86z"/>
  <g>
    <path class="st0" d="M459.2 0h17v17h-17zm0 17h17v17h-17zm-17 17h17v17h-17z"/>
    <path class="st2" d="M459.2 34h17v17h-17z"/>
    <path class="st0" d="M476.2 34h17v17h-17zm-68 17h17v17h-17zm17 0h17v17h-17z"/>
    <path class="st2" d="M442.2 51h17v17h-17zm17 0h17v17h-17zm17 0h17v17h-17z"/>
    <path class="st0" d="M493.2 51h17v17h-17zm17 0h17v17h-17zM34 68h17v17H34zm408.2 0h17v17h-17z"/>
    <path class="st2" d="M459.2 68h17v17h-17z"/>
    <path class="st0" d="M476.2 68h17v17h-17zM17 85h17v17H17zm17 0h17v17H34zm17 0h17v17H51zm408.2 0h17v17h-17zM0 102h17v17H0zm17 0h17v17H17z"/>
    <path class="st2" d="M34 102h17v17H34z"/>
    <path class="st0" d="M51 102h17v17H51zm17 0h17v17H68zm391.2 0h17v17h-17zM17 119.1h17v17H17zm17 0h17v17H34zm17 0h17v17H51zm-17 17h17v17H34z"/>
    <path class="st1" d="M153.1 136.1h17v17h-17zm17 0h17v17h-17zm17 0h17v17h-17zm17 0h17v17h-17zm17 0h17v17h-17zm119.1 0h17v17h-17zm17 0h17v17h-17zm17 0h17v17h-17z"/>
    <path class="st0" d="M391.2 136.1h17v17h-17z"/>
    <path class="st1" d="M408.2 136.1h17v17h-17zm-272.1 17h17v17h-17zm17 0h17v17h-17z"/>
    <path class="st3" d="M170.1 153.1h17v17h-17zm17 0h17v17h-17zm17 0h17v17h-17z"/>
    <path class="st1" d="M221.1 153.1h17v17h-17zm17 0h17v17h-17zm85 0h17v17h-17zm17.1 0h17v17h-17z"/>
    <path class="st3" d="M357.2 153.1h17v17h-17zm17 0h17v17h-17z"/>
    <path class="st0" d="M391.2 153.1h17v17h-17z"/>
    <path class="st1" d="M408.2 153.1h17v17h-17zm17 0h17v17h-17zm-306.1 17h17v17h-17zm17 0h17v17h-17z"/>
    <path class="st3" d="M153.1 170.1h17v17h-17zm17 0h17v17h-17z"/>
    <path class="st4" d="M187.1 170.1h17v17h-17zm17 0h17v17h-17z"/>
    <path class="st3" d="M221.1 170.1h17v17h-17z"/>
    <path class="st1" d="M238.1 170.1h17v17h-17zm17 0h17v17h-17zm51 0h17v17h-17zm17 0h17v17h-17z"/>
    <path class="st4" d="M340.2 170.1h17v17h-17zm17 0h17v17h-17z"/>
    <path class="st0" d="M374.2 170.1h17v17h-17z"/>
    <path class="st2" d="M391.2 170.1h17v17h-17z"/>
    <path class="st0" d="M408.2 170.1h17v17h-17z"/>
    <path class="st1" d="M425.2 170.1h17v17h-17zm17 0h17v17h-17zm-340.1 17h17v17h-17z"/>
    <path class="st5" d="M119.1 187.1h17v17h-17z"/>
    <path class="st4" d="M136.1 187.1h17v17h-17z"/>
    <path class="st3" d="M153.1 187.1h17v17h-17z"/>
    <path class="st4" d="M170.1 187.1h17v17h-17zm17 0h17v17h-17zm17 0h17v17h-17zm17 0h17v17h-17zm17 0h17v17h-17z"/>
    <path class="st1" d="M255.1 187.1h17v17h-17zm17 0h17v17h-17zm17 0h17v17h-17zm17 0h17v17h-17z"/>
    <path class="st4" d="M323.1 187.1h17v17h-17zm17.1 0h17v17h-17z"/>
    <path class="st0" d="M357.2 187.1h17v17h-17z"/>
    <path class="st2" d="M374.2 187.1h17v17h-17z"/>
    <path class="st6" d="M391.2 187.1h17v17h-17z"/>
    <path class="st2" d="M408.2 187.1h17v17h-17z"/>
    <path class="st0" d="M425.2 187.1h17v17h-17z"/>
    <path class="st5" d="M442.2 187.1h17v17h-17z"/>
    <path class="st1" d="M459.2 187.1h17v17h-17zm-357.1 17h17v17h-17z"/>
    <path class="st5" d="M119.1 204.1h17v17h-17z"/>
    <path class="st4" d="M136.1 204.1h17v17h-17zm17 0h17v17h-17zm17 0h17v17h-17zm17 0h17v17h-17zm17 0h17v17h-17zm17 0h17v17h-17zm17 0h17v17h-17zm17 0h17v17h-17z"/>
    <path class="st1" d="M272.1 204.1h17v17h-17zm17 0h17v17h-17z"/>
    <path class="st5" d="M306.1 204.1h17v17h-17z"/>
    <path class="st0" d="M323.1 204.1h17v17h-17zm17.1 0h17v17h-17z"/>
    <path class="st2" d="M357.2 204.1h17v17h-17zm17 0h17v17h-17z"/>
    <path class="st6" d="M391.2 204.1h17v17h-17zm17 0h17v17h-17z"/>
    <path class="st2" d="M425.2 204.1h17v17h-17z"/>
    <path class="st0" d="M442.2 204.1h17v17h-17zm17 0h17v17h-17z"/>
    <path class="st1" d="M102.1 221.1h17v17h-17z"/>
    <path class="st5" d="M119.1 221.1h17v17h-17z"/>
    <path class="st4" d="M136.1 221.1h17v17h-17zm17 0h17v17h-17zm17 0h17v17h-17zm17 0h17v17h-17zm17 0h17v17h-17zm17 0h17v17h-17z"/>
    <path class="st5" d="M238.1 221.1h17v17h-17zm17 0h17v17h-17zm17 0h17v17h-17zm17 0h17v17h-17zm17 0h17v17h-17zm17 0h17v17h-17zm17.1 0h17v17h-17z"/>
    <path class="st0" d="M357.2 221.1h17v17h-17z"/>
    <path class="st2" d="M374.2 221.1h17v17h-17zm17 0h17v17h-17zm17 0h17v17h-17z"/>
    <path class="st0" d="M425.2 221.1h17v17h-17z"/>
    <path class="st5" d="M442.2 221.1h17v17h-17z"/>
    <path class="st1" d="M459.2 221.1h17v17h-17zm-357.1 17h17v17h-17z"/>
    <path class="st5" d="M119.1 238.1h17v17h-17z"/>
    <path class="st4" d="M136.1 238.1h17v17h-17zm17 0h17v17h-17zm17 0h17v17h-17zm17 0h17v17h-17z"/>
    <path class="st5" d="M204.1 238.1h17v17h-17zm17 0h17v17h-17zm17 0h17v17h-17zm17 0h17v17h-17zm17 0h17v17h-17zm17 0h17v17h-17zm17 0h17v17h-17zm17 0h17v17h-17zm17.1 0h17v17h-17zm17 0h17v17h-17z"/>
    <path class="st0" d="M374.2 238.1h17v17h-17z"/>
    <path class="st2" d="M391.2 238.1h17v17h-17z"/>
    <path class="st0" d="M408.2 238.1h17v17h-17z"/>
    <path class="st5" d="M425.2 238.1h17v17h-17zm17 0h17v17h-17z"/>
    <path class="st1" d="M459.2 238.1h17v17h-17zm-357.1 17h17v17h-17z"/>
    <path class="st5" d="M119.1 255.1h17v17h-17z"/>
    <path class="st4" d="M136.1 255.1h17v17h-17zm17 0h17v17h-17zm17 0h17v17h-17zm17 0h17v17h-17z"/>
    <path class="st5" d="M204.1 255.1h17v17h-17zm17 0h17v17h-17zm17 0h17v17h-17zm17 0h17v17h-17zm17 0h17v17h-17zm17 0h17v17h-17zm17 0h17v17h-17zm17 0h17v17h-17zm17.1 0h17v17h-17zm17 0h17v17h-17zm17 0h17v17h-17z"/>
    <path class="st0" d="M391.2 255.1h17v17h-17z"/>
    <path class="st5" d="M408.2 255.1h17v17h-17zm17 0h17v17h-17zm17 0h17v17h-17z"/>
    <path class="st1" d="M459.2 255.1h17v17h-17zm-340.1 17h17v17h-17z"/>
    <path class="st5" d="M136.1 272.1h17v17h-17z"/>
    <path class="st4" d="M153.1 272.1h17v17h-17z"/>
    <path class="st0" d="M170.1 272.1h17v17h-17z"/>
    <path class="st5" d="M187.1 272.1h17v17h-17zm17 0h17v17h-17zm17 0h17v17h-17zm17 0h17v17h-17zm17 0h17v17h-17zm17 0h17v17h-17zm17 0h17v17h-17zm17 0h17v17h-17zm17 0h17v17h-17zm17.1 0h17v17h-17zm17 0h17v17h-17zm17 0h17v17h-17z"/>
    <path class="st0" d="M391.2 272.1h17v17h-17z"/>
    <path class="st5" d="M408.2 272.1h17v17h-17zm17 0h17v17h-17z"/>
    <path class="st1" d="M442.2 272.1h17v17h-17zm-323.1 17h17v17h-17z"/>
    <path class="st5" d="M136.1 289.1h17v17h-17zm17 0h17v17h-17z"/>
    <path class="st0" d="M170.1 289.1h17v17h-17z"/>
    <path class="st5" d="M187.1 289.1h17v17h-17zm17 0h17v17h-17zm17 0h17v17h-17zm17 0h17v17h-17zm17 0h17v17h-17zm17 0h17v17h-17zm17 0h17v17h-17zm17 0h17v17h-17zm17 0h17v17h-17zm17.1 0h17v17h-17zm17 0h17v17h-17zm17 0h17v17h-17zm17 0h17v17h-17zm17 0h17v17h-17zm17 0h17v17h-17z"/>
    <path class="st1" d="M442.2 289.1h17v17h-17zm-306.1 17h17v17h-17z"/>
    <path class="st0" d="M153.1 306.1h17v17h-17z"/>
    <path class="st2" d="M170.1 306.1h17v17h-17z"/>
    <path class="st0" d="M187.1 306.1h17v17h-17z"/>
    <path class="st5" d="M204.1 306.1h17v17h-17zm17 0h17v17h-17zm17 0h17v17h-17zm17 0h17v17h-17zm17 0h17v17h-17zm17 0h17v17h-17zm17 0h17v17h-17zm17 0h17v17h-17zm17.1 0h17v17h-17zm17 0h17v17h-17zm17 0h17v17h-17zm17 0h17v17h-17zm17 0h17v17h-17z"/>
    <path class="st1" d="M425.2 306.1h17v17h-17z"/>
    <path class="st0" d="M136.1 323.1h17v17h-17z"/>
    <path class="st2" d="M153.1 323.1h17v17h-17zm17 0h17v17h-17zm17 0h17v17h-17z"/>
    <path class="st0" d="M204.1 323.1h17v17h-17z"/>
    <path class="st5" d="M221.1 323.1h17v17h-17zm17 0h17v17h-17zm17 0h17v17h-17zm17 0h17v17h-17zm17 0h17v17h-17zm17 0h17v17h-17zm17 0h17v17h-17zm17.1 0h17v17h-17zm17 0h17v17h-17zm17 0h17v17h-17zm17 0h17v17h-17zm17 0h17v17h-17z"/>
    <path class="st1" d="M425.2 323.1h17v17h-17z"/>
    <path class="st0" d="M119.1 340.2h17v17h-17z"/>
    <path class="st2" d="M136.1 340.2h17v17h-17zm17 0h17v17h-17z"/>
    <path class="st6" d="M170.1 340.2h17v17h-17z"/>
    <path class="st2" d="M187.1 340.2h17v17h-17zm17 0h17v17h-17z"/>
    <path class="st0" d="M221.1 340.2h17v17h-17z"/>
    <path class="st5" d="M238.1 340.2h17v17h-17zm17 0h17v17h-17zm17 0h17v17h-17zm17 0h17v17h-17zm17 0h17v17h-17zm17 0h17v17h-17zm17.1 0h17v17h-17zm17 0h17v17h-17zm17 0h17v17h-17z"/>
    <path class="st1" d="M391.2 340.2h17v17h-17zm17 0h17v17h-17z"/>
    <path class="st0" d="M85 357.2h17v17H85zm17.1 0h17v17h-17z"/>
    <path class="st2" d="M119.1 357.2h17v17h-17zm17 0h17v17h-17z"/>
    <path class="st6" d="M153.1 357.2h17v17h-17zm17 0h17v17h-17zm17 0h17v17h-17z"/>
    <path class="st2" d="M204.1 357.2h17v17h-17zm17 0h17v17h-17z"/>
    <path class="st0" d="M238.1 357.2h17v17h-17zm17 0h17v17h-17z"/>
    <path class="st5" d="M272.1 357.2h17v17h-17zm17 0h17v17h-17zm17 0h17v17h-17zm17 0h17v17h-17zm17.1 0h17v17h-17zm17 0h17v17h-17z"/>
    <path class="st1" d="M374.2 357.2h17v17h-17zm17 0h17v17h-17z"/>
    <path class="st0" d="M119.1 374.2h17v17h-17z"/>
    <path class="st2" d="M136.1 374.2h17v17h-17zm17 0h17v17h-17z"/>
    <path class="st6" d="M170.1 374.2h17v17h-17z"/>
    <path class="st2" d="M187.1 374.2h17v17h-17zm17 0h17v17h-17z"/>
    <path class="st0" d="M221.1 374.2h17v17h-17z"/>
    <path class="st5" d="M238.1 374.2h17v17h-17zm17 0h17v17h-17zm17 0h17v17h-17zm17 0h17v17h-17zm17 0h17v17h-17zm17 0h17v17h-17zm17.1 0h17v17h-17z"/>
    <path class="st1" d="M357.2 374.2h17v17h-17zm17 0h17v17h-17z"/>
    <path class="st0" d="M136.1 391.2h17v17h-17z"/>
    <path class="st2" d="M153.1 391.2h17v17h-17zm17 0h17v17h-17zm17 0h17v17h-17z"/>
    <path class="st0" d="M204.1 391.2h17v17h-17z"/>
    <path class="st1" d="M221.1 391.2h17v17h-17z"/>
    <path class="st5" d="M238.1 391.2h17v17h-17zm17 0h17v17h-17zm17 0h17v17h-17zm17 0h17v17h-17zm17 0h17v17h-17zm17 0h17v17h-17z"/>
    <path class="st1" d="M340.2 391.2h17v17h-17zm17 0h17v17h-17z"/>
    <path class="st0" d="M153.1 408.2h17v17h-17z"/>
    <path class="st2" d="M170.1 408.2h17v17h-17z"/>
    <path class="st0" d="M187.1 408.2h17v17h-17z"/>
    <path class="st1" d="M221.1 408.2h17v17h-17zm17 0h17v17h-17z"/>
    <path class="st5" d="M255.1 408.2h17v17h-17zm17 0h17v17h-17zm17 0h17v17h-17zm17 0h17v17h-17z"/>
    <path class="st1" d="M323.1 408.2h17v17h-17zm17.1 0h17v17h-17z"/>
    <path class="st0" d="M170.1 425.2h17v17h-17z"/>
    <path class="st1" d="M238.1 425.2h17v17h-17zm17 0h17v17h-17z"/>
    <path class="st5" d="M272.1 425.2h17v17h-17zm17 0h17v17h-17z"/>
    <path class="st1" d="M306.1 425.2h17v17h-17zm17 0h17v17h-17z"/>
    <path class="st0" d="M170.1 442.2h17v17h-17z"/>
    <path class="st1" d="M255.1 442.2h17v17h-17zm17 0h17v17h-17zm17 0h17v17h-17zm17 0h17v17h-17zm-34 17h17v17h-17zm17 0h17v17h-17z"/>
  </g>
</svg>
