<svg xmlns="http://www.w3.org/2000/svg" width="273" height="426" viewBox="0 0 272.1 425.2">
  <style>
    .st0{fill:#ff8500}.st1{fill:#ffe000}.st2{fill:#ef0}.st3{fill:#cc5809}
  </style>
  <path class="st0" d="M255.6 237.6v-34h-17V-.5h-52v17h-17v102.1h-51v17H68.5V67.5h-52v153.1h-17v137.1h17v17h17v17h17v17h34v17h103.1v-17h34v-17h17v-17h17v-34.1h17v-103z"/>
  <path class="st0" d="M187.1 0h17v17h-17zm17 0h17v17h-17zm17 0h17v17h-17zm-51 17h17v17h-17zm17 0h17v17h-17zm17 0h17v17h-17zm17 0h17v17h-17zm-51 17h17v17h-17z"/>
  <path class="st1" d="M187.1 34h17v17h-17z"/>
  <path class="st2" d="M204.1 34h17v17h-17z"/>
  <path class="st0" d="M221.1 34h17v17h-17zm-51 17h17v17h-17z"/>
  <path class="st1" d="M187.1 51h17v17h-17z"/>
  <path class="st2" d="M204.1 51h17v17h-17z"/>
  <path class="st0" d="M221.1 51h17v17h-17zM17 68h17v17H17zm17 0h17v17H34zm17 0h17v17H51zm119.1 0h17v17h-17z"/>
  <path class="st1" d="M187.1 68h17v17h-17zm17 0h17v17h-17z"/>
  <path class="st0" d="M221.1 68h17v17h-17zM17 85h17v17H17zm17 0h17v17H34zm17 0h17v17H51zm119.1 0h17v17h-17z"/>
  <path class="st1" d="M187.1 85h17v17h-17zm17 0h17v17h-17z"/>
  <path class="st0" d="M221.1 85h17v17h-17zM17 102h17v17H17z"/>
  <path class="st1" d="M34 102h17v17H34z"/>
  <path class="st0" d="M51 102h17v17H51zm119.1 0h17v17h-17z"/>
  <path class="st1" d="M187.1 102h17v17h-17zm17 0h17v17h-17z"/>
  <path class="st0" d="M221.1 102h17v17h-17zM17 119.1h17v17H17z"/>
  <path class="st1" d="M34 119.1h17v17H34z"/>
  <path class="st0" d="M51 119.1h17v17H51zm68.1 0h17v17h-17zm17 0h17v17h-17zm17 0h17v17h-17zm17 0h17v17h-17z"/>
  <path class="st1" d="M187.1 119.1h17v17h-17zm17 0h17v17h-17z"/>
  <path class="st0" d="M221.1 119.1h17v17h-17zM17 136.1h17v17H17z"/>
  <path class="st1" d="M34 136.1h17v17H34z"/>
  <path class="st0" d="M51 136.1h17v17H51zm17 0h17v17H68zm17 0h17v17H85zm17.1 0h17v17h-17zm17 0h17v17h-17z"/>
  <path class="st1" d="M136.1 136.1h17v17h-17zm17 0h17v17h-17z"/>
  <path class="st0" d="M170.1 136.1h17v17h-17z"/>
  <path class="st1" d="M187.1 136.1h17v17h-17zm17 0h17v17h-17z"/>
  <path class="st0" d="M221.1 136.1h17v17h-17zM17 153.1h17v17H17z"/>
  <path class="st1" d="M34 153.1h17v17H34zm17 0h17v17H51z"/>
  <path class="st0" d="M68 153.1h17v17H68z"/>
  <path class="st1" d="M85 153.1h17v17H85zm17.1 0h17v17h-17z"/>
  <path class="st0" d="M119.1 153.1h17v17h-17z"/>
  <path class="st1" d="M136.1 153.1h17v17h-17zm17 0h17v17h-17z"/>
  <path class="st0" d="M170.1 153.1h17v17h-17z"/>
  <path class="st1" d="M187.1 153.1h17v17h-17zm17 0h17v17h-17z"/>
  <path class="st0" d="M221.1 153.1h17v17h-17zM17 170.1h17v17H17z"/>
  <path class="st1" d="M34 170.1h17v17H34zm17 0h17v17H51z"/>
  <path class="st0" d="M68 170.1h17v17H68z"/>
  <path class="st1" d="M85 170.1h17v17H85zm17.1 0h17v17h-17z"/>
  <path class="st0" d="M119.1 170.1h17v17h-17z"/>
  <path class="st1" d="M136.1 170.1h17v17h-17zm17 0h17v17h-17z"/>
  <path class="st0" d="M170.1 170.1h17v17h-17z"/>
  <path class="st3" d="M187.1 170.1h17v17h-17z"/>
  <path class="st1" d="M204.1 170.1h17v17h-17z"/>
  <path class="st0" d="M221.1 170.1h17v17h-17zM17 187.1h17v17H17z"/>
  <path class="st1" d="M34 187.1h17v17H34zm17 0h17v17H51z"/>
  <path class="st0" d="M68 187.1h17v17H68z"/>
  <path class="st3" d="M85 187.1h17v17H85z"/>
  <path class="st1" d="M102.1 187.1h17v17h-17z"/>
  <path class="st0" d="M119.1 187.1h17v17h-17z"/>
  <path class="st3" d="M136.1 187.1h17v17h-17z"/>
  <path class="st1" d="M153.1 187.1h17v17h-17z"/>
  <path class="st0" d="M170.1 187.1h17v17h-17z"/>
  <path class="st3" d="M187.1 187.1h17v17h-17z"/>
  <path class="st1" d="M204.1 187.1h17v17h-17z"/>
  <path class="st0" d="M221.1 187.1h17v17h-17zM17 204.1h17v17H17z"/>
  <path class="st1" d="M34 204.1h17v17H34zm17 0h17v17H51z"/>
  <path class="st0" d="M68 204.1h17v17H68z"/>
  <path class="st3" d="M85 204.1h17v17H85zm17.1 0h17v17h-17z"/>
  <path class="st0" d="M119.1 204.1h17v17h-17z"/>
  <path class="st3" d="M136.1 204.1h17v17h-17zm17 0h17v17h-17z"/>
  <path class="st0" d="M170.1 204.1h17v17h-17z"/>
  <path class="st3" d="M187.1 204.1h17v17h-17zm17 0h17v17h-17z"/>
  <path class="st0" d="M221.1 204.1h17v17h-17zm17 0h17v17h-17zM17 221.1h17v17H17zm-17 0h17v17H0z"/>
  <path class="st1" d="M34 221.1h17v17H34zm17 0h17v17H51zm17 0h17v17H68z"/>
  <path class="st0" d="M85 221.1h17v17H85zm17.1 0h17v17h-17zm17 0h17v17h-17zm17 0h17v17h-17zm17 0h17v17h-17zm17 0h17v17h-17zm17 0h17v17h-17zm17 0h17v17h-17zm17 0h17v17h-17zm17 0h17v17h-17zM17 238.1h17v17H17z"/>
  <path class="st1" d="M34 238.1h17v17H34zm17 0h17v17H51z"/>
  <path class="st0" d="M68 238.1h17v17H68zm17 0h17v17H85z"/>
  <path class="st2" d="M102.1 238.1h17v17h-17zm17 0h17v17h-17zm17 0h17v17h-17zm17 0h17v17h-17zm17 0h17v17h-17zm17 0h17v17h-17zm17 0h17v17h-17zm17 0h17v17h-17zm17 0h17v17h-17z"/>
  <path class="st0" d="M255.1 238.1h17v17h-17zM17 255.1h17v17H17z"/>
  <path class="st1" d="M34 255.1h17v17H34zm17 0h17v17H51z"/>
  <path class="st0" d="M68 255.1h17v17H68zm17 0h17v17H85z"/>
  <path class="st1" d="M102.1 255.1h17v17h-17zm17 0h17v17h-17zm17 0h17v17h-17zm17 0h17v17h-17zm17 0h17v17h-17zm17 0h17v17h-17z"/>
  <path class="st2" d="M204.1 255.1h17v17h-17zm17 0h17v17h-17zm17 0h17v17h-17z"/>
  <path class="st0" d="M255.1 255.1h17v17h-17zM17 272.1h17v17H17z"/>
  <path class="st1" d="M34 272.1h17v17H34zm17 0h17v17H51zm17 0h17v17H68z"/>
  <path class="st0" d="M85 272.1h17v17H85zm17.1 0h17v17h-17zm17 0h17v17h-17zm17 0h17v17h-17zm17 0h17v17h-17zm17 0h17v17h-17zm17 0h17v17h-17zm17 0h17v17h-17z"/>
  <path class="st2" d="M221.1 272.1h17v17h-17zm17 0h17v17h-17z"/>
  <path class="st0" d="M255.1 272.1h17v17h-17zM17 289.1h17v17H17z"/>
  <path class="st1" d="M34 289.1h17v17H34zm17 0h17v17H51zm17 0h17v17H68zm17 0h17v17H85zm17.1 0h17v17h-17z"/>
  <path class="st3" d="M119.1 289.1h17v17h-17zm17 0h17v17h-17zm17 0h17v17h-17zm17 0h17v17h-17zm17 0h17v17h-17z"/>
  <path class="st0" d="M204.1 289.1h17v17h-17z"/>
  <path class="st1" d="M221.1 289.1h17v17h-17z"/>
  <path class="st2" d="M238.1 289.1h17v17h-17z"/>
  <path class="st0" d="M255.1 289.1h17v17h-17zM17 306.1h17v17H17z"/>
  <path class="st2" d="M34 306.1h17v17H34z"/>
  <path class="st1" d="M51 306.1h17v17H51zm17 0h17v17H68zm17 0h17v17H85zm17.1 0h17v17h-17zm17 0h17v17h-17z"/>
  <path class="st3" d="M136.1 306.1h17v17h-17zm17 0h17v17h-17zm17 0h17v17h-17zm17 0h17v17h-17z"/>
  <path class="st1" d="M204.1 306.1h17v17h-17zm17 0h17v17h-17z"/>
  <path class="st2" d="M238.1 306.1h17v17h-17z"/>
  <path class="st0" d="M255.1 306.1h17v17h-17zM17 323.1h17v17H17z"/>
  <path class="st2" d="M34 323.1h17v17H34zm17 0h17v17H51z"/>
  <path class="st1" d="M68 323.1h17v17H68zm17 0h17v17H85zm17.1 0h17v17h-17zm17 0h17v17h-17zm17 0h17v17h-17zm17 0h17v17h-17zm17 0h17v17h-17zm17 0h17v17h-17zm17 0h17v17h-17zm17 0h17v17h-17zm17 0h17v17h-17z"/>
  <path class="st0" d="M255.1 323.1h17v17h-17zM17 340.2h17v17H17zM0 238.1h17v17H0zm0 17h17v17H0zm0 17h17v17H0zm0 17h17v17H0zm0 17h17v17H0zm0 17h17v17H0zm0 17.1h17v17H0z"/>
  <path class="st2" d="M34 340.2h17v17H34zm17 0h17v17H51zm17 0h17v17H68z"/>
  <path class="st1" d="M85 340.2h17v17H85zm17.1 0h17v17h-17zm17 0h17v17h-17zm17 0h17v17h-17zm17 0h17v17h-17zm17 0h17v17h-17zm17 0h17v17h-17zm17 0h17v17h-17zm17 0h17v17h-17z"/>
  <path class="st0" d="M238.1 340.2h17v17h-17zM17 357.2h17v17H17zm17 0h17v17H34z"/>
  <path class="st2" d="M51 357.2h17v17H51zm17 0h17v17H68zm17 0h17v17H85z"/>
  <path class="st1" d="M102.1 357.2h17v17h-17zm17 0h17v17h-17zm17 0h17v17h-17zm17 0h17v17h-17zm17 0h17v17h-17zm17 0h17v17h-17zm17 0h17v17h-17z"/>
  <path class="st0" d="M221.1 357.2h17v17h-17zm17 0h17v17h-17zM34 374.2h17v17H34zm17 0h17v17H51z"/>
  <path class="st2" d="M68 374.2h17v17H68zm17 0h17v17H85zm17.1 0h17v17h-17z"/>
  <path class="st1" d="M119.1 374.2h17v17h-17zm17 0h17v17h-17zm17 0h17v17h-17zm17 0h17v17h-17zm17 0h17v17h-17z"/>
  <path class="st0" d="M204.1 374.2h17v17h-17zm17 0h17v17h-17zM51 391.2h17v17H51zm17 0h17v17H68z"/>
  <path class="st2" d="M85 391.2h17v17H85zm17.1 0h17v17h-17zm17 0h17v17h-17z"/>
  <path class="st1" d="M136.1 391.2h17v17h-17zm17 0h17v17h-17zm17 0h17v17h-17z"/>
  <path class="st0" d="M187.1 391.2h17v17h-17zm17 0h17v17h-17zM85 408.2h17v17H85zm17.1 0h17v17h-17zm17 0h17v17h-17zm17 0h17v17h-17zm17 0h17v17h-17zm17 0h17v17h-17z"/>
</svg>
