<svg xmlns="http://www.w3.org/2000/svg" width="426" height="409" viewBox="0 0 425.2 408.2">
  <style>
    .st0{fill:#ff2703}.st1{fill:#ff8500}.st2{fill:#ef0}.st3{fill:#ffe000}.st4{fill:#101010}.st5{fill:#fffdfd}.st6{fill:#ff4200}
  </style>
  <path class="st0" d="M408.7 254.6h-86.1v120.1h35v-17h17v-17.1h17.1v-17h17v-17h17v-52z"/>
  <path class="st1" d="M391.7 135.6v-34.1h-17.1v-17h-17v-17h-17v-17h-17v-17h-17v-17h-34v-17H135.5v17h-34v17h-17v17h-17v17h-17v17h-17v17h-17v34.1h-17v137h17v34h17v17h17v17h17v17.1h17v17h17v17h34v17h137.1v-17h34v-17h17V255.6h85.1v-120z"/>
  <g>
    <path class="st1" d="M136.1 0h17v17h-17zm17 0h17v17h-17zm17 0h17v17h-17zm17 0h17v17h-17zm17 0h17v17h-17zm17 0h17v17h-17zm17 0h17v17h-17zm17 0h17v17h-17zm-153 17h17v17h-17zm17 0h17v17h-17z"/>
    <path class="st2" d="M136.1 17h17v17h-17zm17 0h17v17h-17zm17 0h17v17h-17zm17 0h17v17h-17zm17 0h17v17h-17zm17 0h17v17h-17zm17 0h17v17h-17zm17 0h17v17h-17z"/>
    <path class="st1" d="M272.1 17h17v17h-17zm17 0h17v17h-17zM85 34h17v17H85z"/>
    <path class="st2" d="M102.1 34h17v17h-17zm17 0h17v17h-17zm17 0h17v17h-17zm17 0h17v17h-17zm17 0h17v17h-17zm17 0h17v17h-17zm17 0h17v17h-17zm17 0h17v17h-17zm17 0h17v17h-17zm17 0h17v17h-17zm17 0h17v17h-17zm17 0h17v17h-17z"/>
    <path class="st1" d="M306.1 34h17v17h-17zM68 51h17v17H68z"/>
    <path class="st2" d="M85 51h17v17H85zm17.1 0h17v17h-17zm17 0h17v17h-17z"/>
    <path class="st3" d="M136.1 51h17v17h-17zm17 0h17v17h-17zm17 0h17v17h-17zm17 0h17v17h-17zm17 0h17v17h-17z"/>
    <path class="st2" d="M221.1 51h17v17h-17zm17 0h17v17h-17zm17 0h17v17h-17zm17 0h17v17h-17zm17 0h17v17h-17zm17 0h17v17h-17z"/>
    <path class="st1" d="M323.1 51h17v17h-17zM51 68h17v17H51z"/>
    <path class="st2" d="M68 68h17v17H68zm17 0h17v17H85z"/>
    <path class="st3" d="M102.1 68h17v17h-17zm17 0h17v17h-17zm17 0h17v17h-17zm17 0h17v17h-17zm17 0h17v17h-17zm17 0h17v17h-17zm17 0h17v17h-17zm17 0h17v17h-17z"/>
    <path class="st2" d="M238.1 68h17v17h-17zm17 0h17v17h-17zm17 0h17v17h-17zm17 0h17v17h-17zm17 0h17v17h-17zm17 0h17v17h-17z"/>
    <path class="st1" d="M340.2 68h17v17h-17zM34 85h17v17H34z"/>
    <path class="st2" d="M51 85h17v17H51z"/>
    <path class="st3" d="M68 85h17v17H68zm17 0h17v17H85zm17.1 0h17v17h-17z"/>
    <path class="st4" d="M119.1 85h17v17h-17zm17 0h17v17h-17zm17 0h17v17h-17z"/>
    <path class="st3" d="M170.1 85h17v17h-17zm17 0h17v17h-17zm17 0h17v17h-17zm17 0h17v17h-17zm17 0h17v17h-17zm17 0h17v17h-17zm17 0h17v17h-17zm17 0h17v17h-17z"/>
    <path class="st2" d="M306.1 85h17v17h-17zm17 0h17v17h-17zm17.1 0h17v17h-17z"/>
    <path class="st1" d="M357.2 85h17v17h-17zM17 102h17v17H17z"/>
    <path class="st3" d="M34 102h17v17H34zm17 0h17v17H51zm17 0h17v17H68zm17 0h17v17H85z"/>
    <path class="st4" d="M102.1 102h17v17h-17z"/>
    <path class="st3" d="M119.1 102h17v17h-17zm17 0h17v17h-17zm17 0h17v17h-17zm17 0h17v17h-17zm17 0h17v17h-17zm17 0h17v17h-17zm17 0h17v17h-17zm17 0h17v17h-17zm17 0h17v17h-17zm17 0h17v17h-17zm17 0h17v17h-17zm17 0h17v17h-17z"/>
    <path class="st2" d="M323.1 102h17v17h-17zm17.1 0h17v17h-17zm17 0h17v17h-17z"/>
    <path class="st1" d="M374.2 102h17v17h-17zM17 119.1h17v17H17z"/>
    <path class="st3" d="M34 119.1h17v17H34zm17 0h17v17H51zm17 0h17v17H68z"/>
    <path class="st4" d="M85 119.1h17v17H85z"/>
    <path class="st3" d="M102.1 119.1h17v17h-17zm17 0h17v17h-17zm17 0h17v17h-17zm17 0h17v17h-17zm17 0h17v17h-17zm17 0h17v17h-17zm17 0h17v17h-17zm17 0h17v17h-17z"/>
    <path class="st4" d="M238.1 119.1h17v17h-17zm17 0h17v17h-17zm17 0h17v17h-17zm17 0h17v17h-17z"/>
    <path class="st3" d="M306.1 119.1h17v17h-17zm17 0h17v17h-17zm17.1 0h17v17h-17z"/>
    <path class="st2" d="M357.2 119.1h17v17h-17z"/>
    <path class="st1" d="M374.2 119.1h17v17h-17zM0 136.1h17v17H0z"/>
    <path class="st3" d="M17 136.1h17v17H17zm17 0h17v17H34zm17 0h17v17H51z"/>
    <path class="st4" d="M68 136.1h17v17H68z"/>
    <path class="st3" d="M85 136.1h17v17H85zm17.1 0h17v17h-17zm17 0h17v17h-17zm17 0h17v17h-17zm17 0h17v17h-17zm17 0h17v17h-17zm17 0h17v17h-17zm17 0h17v17h-17zm17 0h17v17h-17zm17 0h17v17h-17zm17 0h17v17h-17zm17 0h17v17h-17zm17 0h17v17h-17z"/>
    <path class="st4" d="M306.1 136.1h17v17h-17z"/>
    <path class="st3" d="M323.1 136.1h17v17h-17zm17.1 0h17v17h-17zm17 0h17v17h-17zm17 0h17v17h-17z"/>
    <path class="st1" d="M391.2 136.1h17v17h-17zM0 153.1h17v17H0z"/>
    <path class="st3" d="M17 153.1h17v17H17zm17 0h17v17H34zm17 0h17v17H51zm17 0h17v17H68zm17 0h17v17H85zm17.1 0h17v17h-17z"/>
    <path class="st4" d="M119.1 153.1h17v17h-17zm17 0h17v17h-17z"/>
    <path class="st3" d="M153.1 153.1h17v17h-17zm17 0h17v17h-17zm17 0h17v17h-17zm17 0h17v17h-17zm17 0h17v17h-17zm17 0h17v17h-17zm17 0h17v17h-17zm17 0h17v17h-17zm17 0h17v17h-17zm17 0h17v17h-17z"/>
    <path class="st4" d="M323.1 153.1h17v17h-17z"/>
    <path class="st3" d="M340.2 153.1h17v17h-17zm17 0h17v17h-17zm17 0h17v17h-17z"/>
    <path class="st1" d="M391.2 153.1h17v17h-17zM0 170.1h17v17H0z"/>
    <path class="st3" d="M17 170.1h17v17H17zm17 0h17v17H34zm17 0h17v17H51zm17 0h17v17H68zm17 0h17v17H85zm17.1 0h17v17h-17z"/>
    <path class="st4" d="M119.1 170.1h17v17h-17zm17 0h17v17h-17z"/>
    <path class="st3" d="M153.1 170.1h17v17h-17zm17 0h17v17h-17zm17 0h17v17h-17zm17 0h17v17h-17zm17 0h17v17h-17zm17 0h17v17h-17z"/>
    <path class="st4" d="M255.1 170.1h17v17h-17zm17 0h17v17h-17z"/>
    <path class="st3" d="M289.1 170.1h17v17h-17zm17 0h17v17h-17zm17 0h17v17h-17zm17.1 0h17v17h-17zm17 0h17v17h-17zm17 0h17v17h-17z"/>
    <path class="st1" d="M391.2 170.1h17v17h-17zM0 187.1h17v17H0z"/>
    <path class="st3" d="M17 187.1h17v17H17zm17 0h17v17H34zm17 0h17v17H51zm17 0h17v17H68zm17 0h17v17H85zm17.1 0h17v17h-17z"/>
    <path class="st4" d="M119.1 187.1h17v17h-17zm17 0h17v17h-17z"/>
    <path class="st3" d="M153.1 187.1h17v17h-17zm17 0h17v17h-17zm17 0h17v17h-17zm17 0h17v17h-17zm17 0h17v17h-17z"/>
    <path class="st4" d="M238.1 187.1h17v17h-17z"/>
    <path class="st3" d="M255.1 187.1h17v17h-17zm17 0h17v17h-17z"/>
    <path class="st4" d="M289.1 187.1h17v17h-17z"/>
    <path class="st3" d="M306.1 187.1h17v17h-17zm17 0h17v17h-17zm17.1 0h17v17h-17zm17 0h17v17h-17zm17 0h17v17h-17z"/>
    <path class="st1" d="M391.2 187.1h17v17h-17zM0 204.1h17v17H0z"/>
    <path class="st3" d="M17 204.1h17v17H17zm17 0h17v17H34zm17 0h17v17H51zm17 0h17v17H68zm17 0h17v17H85zm17.1 0h17v17h-17z"/>
    <path class="st4" d="M119.1 204.1h17v17h-17zm17 0h17v17h-17z"/>
    <path class="st3" d="M153.1 204.1h17v17h-17zm17 0h17v17h-17zm17 0h17v17h-17zm17 0h17v17h-17z"/>
    <path class="st4" d="M221.1 204.1h17v17h-17z"/>
    <path class="st3" d="M238.1 204.1h17v17h-17zm17 0h17v17h-17zm17 0h17v17h-17zm17 0h17v17h-17z"/>
    <path class="st4" d="M306.1 204.1h17v17h-17z"/>
    <path class="st3" d="M323.1 204.1h17v17h-17zm17.1 0h17v17h-17zm17 0h17v17h-17zm17 0h17v17h-17z"/>
    <path class="st1" d="M391.2 204.1h17v17h-17zM0 221.1h17v17H0z"/>
    <path class="st3" d="M17 221.1h17v17H17zm17 0h17v17H34zm17 0h17v17H51zm17 0h17v17H68zm17 0h17v17H85zm17.1 0h17v17h-17zm17 0h17v17h-17zm17 0h17v17h-17zm17 0h17v17h-17zm17 0h17v17h-17zm17 0h17v17h-17zm17 0h17v17h-17zm17 0h17v17h-17zm17 0h17v17h-17zm17 0h17v17h-17zm17 0h17v17h-17zm17 0h17v17h-17zm17 0h17v17h-17zm17 0h17v17h-17zm17.1 0h17v17h-17zm17 0h17v17h-17zm17 0h17v17h-17z"/>
    <path class="st1" d="M391.2 221.1h17v17h-17zM0 238.1h17v17H0z"/>
    <path class="st3" d="M17 238.1h17v17H17zm17 0h17v17H34zm17 0h17v17H51zm17 0h17v17H68zm17 0h17v17H85zm17.1 0h17v17h-17zm17 0h17v17h-17zm17 0h17v17h-17zm17 0h17v17h-17zm17 0h17v17h-17zm17 0h17v17h-17zm17 0h17v17h-17zm17 0h17v17h-17zm17 0h17v17h-17zm17 0h17v17h-17z"/>
    <path class="st0" d="M272.1 238.1h17v17h-17zm17 0h17v17h-17zm17 0h17v17h-17z"/>
    <path class="st3" d="M323.1 238.1h17v17h-17zm17.1 0h17v17h-17z"/>
    <path class="st0" d="M357.2 238.1h17v17h-17zm17 0h17v17h-17zm17 0h17v17h-17z"/>
    <path class="st1" d="M0 255.1h17v17H0z"/>
    <path class="st3" d="M17 255.1h17v17H17zm17 0h17v17H34zm17 0h17v17H51zm17 0h17v17H68zm17 0h17v17H85zm17.1 0h17v17h-17zm17 0h17v17h-17zm17 0h17v17h-17zm17 0h17v17h-17z"/>
    <path class="st4" d="M170.1 255.1h17v17h-17zm17 0h17v17h-17zm17 0h17v17h-17z"/>
    <path class="st3" d="M221.1 255.1h17v17h-17zm17 0h17v17h-17z"/>
    <path class="st0" d="M255.1 255.1h17v17h-17z"/>
    <path class="st5" d="M272.1 255.1h17v17h-17zm17 0h17v17h-17z"/>
    <path class="st6" d="M306.1 255.1h17v17h-17z"/>
    <path class="st0" d="M323.1 255.1h17v17h-17zm17.1 0h17v17h-17z"/>
    <path class="st6" d="M357.2 255.1h17v17h-17zm17 0h17v17h-17z"/>
    <path class="st0" d="M391.2 255.1h17v17h-17zm17 0h17v17h-17z"/>
    <path class="st1" d="M17 272.1h17v17H17z"/>
    <path class="st3" d="M34 272.1h17v17H34zm17 0h17v17H51zm17 0h17v17H68zm17 0h17v17H85zm17.1 0h17v17h-17zm17 0h17v17h-17zm17 0h17v17h-17zm17 0h17v17h-17zm17 0h17v17h-17zm17 0h17v17h-17zm17 0h17v17h-17z"/>
    <path class="st4" d="M221.1 272.1h17v17h-17z"/>
    <path class="st3" d="M238.1 272.1h17v17h-17z"/>
    <path class="st0" d="M255.1 272.1h17v17h-17z"/>
    <path class="st5" d="M272.1 272.1h17v17h-17z"/>
    <path class="st6" d="M289.1 272.1h17v17h-17zm17 0h17v17h-17zm17 0h17v17h-17zm17.1 0h17v17h-17zm17 0h17v17h-17z"/>
    <path class="st0" d="M374.2 272.1h17v17h-17zm17 0h17v17h-17zm17 0h17v17h-17z"/>
    <path class="st1" d="M17 289.1h17v17H17z"/>
    <path class="st3" d="M34 289.1h17v17H34zm17 0h17v17H51zm17 0h17v17H68zm17 0h17v17H85zm17.1 0h17v17h-17zm17 0h17v17h-17zm17 0h17v17h-17zm17 0h17v17h-17zm17 0h17v17h-17zm17 0h17v17h-17z"/>
    <path class="st4" d="M204.1 289.1h17v17h-17z"/>
    <path class="st3" d="M221.1 289.1h17v17h-17zm17 0h17v17h-17z"/>
    <path class="st0" d="M255.1 289.1h17v17h-17z"/>
    <path class="st6" d="M272.1 289.1h17v17h-17zm17 0h17v17h-17z"/>
    <path class="st0" d="M306.1 289.1h17v17h-17z"/>
    <path class="st6" d="M323.1 289.1h17v17h-17zm17.1 0h17v17h-17zm17 0h17v17h-17z"/>
    <path class="st0" d="M374.2 289.1h17v17h-17zm17 0h17v17h-17zm17 0h17v17h-17z"/>
    <path class="st1" d="M34 306.1h17v17H34z"/>
    <path class="st3" d="M51 306.1h17v17H51zm17 0h17v17H68zm17 0h17v17H85zm17.1 0h17v17h-17zm17 0h17v17h-17zm17 0h17v17h-17zm17 0h17v17h-17zm17 0h17v17h-17zm17 0h17v17h-17z"/>
    <path class="st4" d="M204.1 306.1h17v17h-17zm17 0h17v17h-17z"/>
    <path class="st3" d="M238.1 306.1h17v17h-17zm17 0h17v17h-17z"/>
    <path class="st0" d="M272.1 306.1h17v17h-17z"/>
    <path class="st6" d="M289.1 306.1h17v17h-17zm17 0h17v17h-17z"/>
    <path class="st0" d="M323.1 306.1h17v17h-17zm17.1 0h17v17h-17zm17 0h17v17h-17zm17 0h17v17h-17zm17 0h17v17h-17z"/>
    <path class="st1" d="M51 323.1h17v17H51z"/>
    <path class="st3" d="M68 323.1h17v17H68zm17 0h17v17H85zm17.1 0h17v17h-17zm17 0h17v17h-17zm17 0h17v17h-17zm17 0h17v17h-17zm17 0h17v17h-17zm17 0h17v17h-17zm17 0h17v17h-17z"/>
    <path class="st4" d="M221.1 323.1h17v17h-17z"/>
    <path class="st3" d="M238.1 323.1h17v17h-17zm17 0h17v17h-17zm17 0h17v17h-17z"/>
    <path class="st0" d="M289.1 323.1h17v17h-17zm17 0h17v17h-17z"/>
    <path class="st6" d="M323.1 323.1h17v17h-17z"/>
    <path class="st0" d="M340.2 323.1h17v17h-17zm17 0h17v17h-17zm17 0h17v17h-17z"/>
    <path class="st1" d="M68 340.2h17v17H68z"/>
    <path class="st3" d="M85 340.2h17v17H85zm17.1 0h17v17h-17zm17 0h17v17h-17zm17 0h17v17h-17zm17 0h17v17h-17z"/>
    <path class="st4" d="M170.1 340.2h17v17h-17zm17 0h17v17h-17zm17 0h17v17h-17z"/>
    <path class="st3" d="M221.1 340.2h17v17h-17zm17 0h17v17h-17zm17 0h17v17h-17zm17 0h17v17h-17zm17 0h17v17h-17z"/>
    <path class="st0" d="M306.1 340.2h17v17h-17zm17 0h17v17h-17zm17.1 0h17v17h-17zm17 0h17v17h-17z"/>
    <path class="st1" d="M85 357.2h17v17H85z"/>
    <path class="st3" d="M102.1 357.2h17v17h-17zm17 0h17v17h-17zm17 0h17v17h-17zm17 0h17v17h-17zm17 0h17v17h-17zm17 0h17v17h-17zm17 0h17v17h-17zm17 0h17v17h-17zm17 0h17v17h-17zm17 0h17v17h-17zm17 0h17v17h-17zm17 0h17v17h-17z"/>
    <path class="st1" d="M306.1 357.2h17v17h-17z"/>
    <path class="st0" d="M323.1 357.2h17v17h-17zm17.1 0h17v17h-17z"/>
    <path class="st1" d="M102.1 374.2h17v17h-17zm17 0h17v17h-17z"/>
    <path class="st3" d="M136.1 374.2h17v17h-17zm17 0h17v17h-17zm17 0h17v17h-17zm17 0h17v17h-17zm17 0h17v17h-17zm17 0h17v17h-17zm17 0h17v17h-17zm17 0h17v17h-17z"/>
    <path class="st1" d="M272.1 374.2h17v17h-17zm17 0h17v17h-17zm-153 17h17v17h-17zm17 0h17v17h-17zm17 0h17v17h-17zm17 0h17v17h-17zm17 0h17v17h-17zm17 0h17v17h-17zm17 0h17v17h-17zm17 0h17v17h-17z"/>
  </g>
</svg>
