<svg xmlns="http://www.w3.org/2000/svg" width="307" height="477" viewBox="0 0 306.1 476.2">
  <style>
    .st0{fill:#ff2703}.st1{fill:#ef0}.st2{fill:#ffe000}.st3{fill:#ff4200}
  </style>
  <path class="st0" d="M272.6 102.5v-69h-18v86h18zM16.5 203.6v35h18v-120h-18v34h-17v35h17zm273.1 136.1v-85.1h-18v85.1h-17v17h-33v-33.1h17v-103h-18v34h-33v-33h17v-17h17v-17h17v-69h-17v-17.1h-17v-17h-17v-17h-17v-34h-17v-34h-18v120h17v50.1h-50.1v-34h-18v86h17v17h17.1v50h-17.1v34h-33v-85h-18v51h-17v17h-17v51.1h-17v52h17v34h17v17h17v17h205.1v-17h17v-17h17v-17h17v-86z"/>
  <path class="st0" d="M136.1 0h17v17h-17zm0 17h17v17h-17zm0 17h17v17h-17zm17 0h17v17h-17zm102 0h17v17h-17zm-119 17h17v17h-17zm17 0h17v17h-17zm102 0h17v17h-17zm-119 17h17v17h-17zm17 0h17v17h-17zm17 0h17v17h-17zm85 0h17v17h-17zm-119 17h17v17h-17z"/>
  <path class="st1" d="M153.1 85h17v17h-17zm17 0h17v17h-17z"/>
  <path class="st0" d="M187.1 85h17v17h-17zm68 0h17v17h-17zm-119 17h17v17h-17z"/>
  <path class="st1" d="M153.1 102h17v17h-17zm17 0h17v17h-17zm17 0h17v17h-17z"/>
  <path class="st0" d="M204.1 102h17v17h-17zm51 0h17v17h-17zM17 119.1h17v17H17zm136.1 0h17v17h-17z"/>
  <path class="st1" d="M170.1 119.1h17v17h-17zm17 0h17v17h-17zm17 0h17v17h-17z"/>
  <path class="st0" d="M221.1 119.1h17v17h-17zM17 136.1h17v17H17zm68 0h17v17H85zm68.1 0h17v17h-17z"/>
  <path class="st1" d="M170.1 136.1h17v17h-17zm17 0h17v17h-17zm17 0h17v17h-17z"/>
  <path class="st0" d="M221.1 136.1h17v17h-17zM0 153.1h17v17H0zm17 0h17v17H17zm68 0h17v17H85zm68.1 0h17v17h-17z"/>
  <path class="st1" d="M170.1 153.1h17v17h-17zm17 0h17v17h-17zm17 0h17v17h-17z"/>
  <path class="st0" d="M221.1 153.1h17v17h-17zM0 170.1h17v17H0zm17 0h17v17H17zm68 0h17v17H85zm17.1 0h17v17h-17zm17 0h17v17h-17zm17 0h17v17h-17z"/>
  <path class="st2" d="M153.1 170.1h17v17h-17z"/>
  <path class="st1" d="M170.1 170.1h17v17h-17zm17 0h17v17h-17z"/>
  <path class="st2" d="M204.1 170.1h17v17h-17z"/>
  <path class="st0" d="M221.1 170.1h17v17h-17zM17 187.1h17v17H17zm68 0h17v17H85z"/>
  <path class="st1" d="M102.1 187.1h17v17h-17zm17 0h17v17h-17z"/>
  <path class="st2" d="M136.1 187.1h17v17h-17zm17 0h17v17h-17zm17 0h17v17h-17zm17 0h17v17h-17z"/>
  <path class="st0" d="M204.1 187.1h17v17h-17zM17 204.1h17v17H17zm68 0h17v17H85z"/>
  <path class="st1" d="M102.1 204.1h17v17h-17zm17 0h17v17h-17z"/>
  <path class="st2" d="M136.1 204.1h17v17h-17zm17 0h17v17h-17zm17 0h17v17h-17z"/>
  <path class="st0" d="M187.1 204.1h17v17h-17zM17 221.1h17v17H17zm85.1 0h17v17h-17zm17 0h17v17h-17z"/>
  <path class="st2" d="M136.1 221.1h17v17h-17zm17 0h17v17h-17z"/>
  <path class="st0" d="M170.1 221.1h17v17h-17zm51 0h17v17h-17zM51 238.1h17v17H51zm68.1 0h17v17h-17z"/>
  <path class="st2" d="M136.1 238.1h17v17h-17zm17 0h17v17h-17z"/>
  <path class="st0" d="M170.1 238.1h17v17h-17zm51 0h17v17h-17zM51 255.1h17v17H51zm68.1 0h17v17h-17z"/>
  <path class="st2" d="M136.1 255.1h17v17h-17zm17 0h17v17h-17zm17 0h17v17h-17z"/>
  <path class="st0" d="M187.1 255.1h17v17h-17zm17 0h17v17h-17zm17 0h17v17h-17zm51 0h17v17h-17zM51 272.1h17v17H51zm68.1 0h17v17h-17z"/>
  <path class="st2" d="M136.1 272.1h17v17h-17zm17 0h17v17h-17zm17 0h17v17h-17zm17 0h17v17h-17zm17 0h17v17h-17z"/>
  <path class="st0" d="M221.1 272.1h17v17h-17zm51 0h17v17h-17zM34 289.1h17v17H34zm17 0h17v17H51zm51.1 0h17v17h-17z"/>
  <path class="st2" d="M119.1 289.1h17v17h-17zm17 0h17v17h-17zm17 0h17v17h-17zm17 0h17v17h-17zm17 0h17v17h-17zm17 0h17v17h-17z"/>
  <path class="st0" d="M221.1 289.1h17v17h-17zm51 0h17v17h-17zM17 306.1h17v17H17zm17 0h17v17H34zm17 0h17v17H51zm51.1 0h17v17h-17z"/>
  <path class="st2" d="M119.1 306.1h17v17h-17zm17 0h17v17h-17zm17 0h17v17h-17zm17 0h17v17h-17zm17 0h17v17h-17zm17 0h17v17h-17z"/>
  <path class="st0" d="M221.1 306.1h17v17h-17zm51 0h17v17h-17zM17 323.1h17v17H17z"/>
  <path class="st1" d="M34 323.1h17v17H34z"/>
  <path class="st0" d="M51 323.1h17v17H51zm17 0h17v17H68zm17 0h17v17H85z"/>
  <path class="st2" d="M102.1 323.1h17v17h-17zm17 0h17v17h-17zm17 0h17v17h-17zm17 0h17v17h-17zm17 0h17v17h-17zm17 0h17v17h-17z"/>
  <path class="st0" d="M204.1 323.1h17v17h-17zm68 0h17v17h-17zM17 340.2h17v17H17z"/>
  <path class="st1" d="M34 340.2h17v17H34z"/>
  <path class="st2" d="M51 340.2h17v17H51zm17 0h17v17H68zm17 0h17v17H85zm17.1 0h17v17h-17zm17 0h17v17h-17zm17 0h17v17h-17zm17 0h17v17h-17zm17 0h17v17h-17zm17 0h17v17h-17z"/>
  <path class="st0" d="M204.1 340.2h17v17h-17zm51 0h17v17h-17z"/>
  <path class="st2" d="M272.1 340.2h17v17h-17z"/>
  <path class="st0" d="M289.1 340.2h17v17h-17zM0 357.2h17v17H0z"/>
  <path class="st2" d="M17 357.2h17v17H17zm17 0h17v17H34zm17 0h17v17H51zm17 0h17v17H68zm17 0h17v17H85zm17.1 0h17v17h-17z"/>
  <path class="st3" d="M119.1 357.2h17v17h-17z"/>
  <path class="st1" d="M136.1 357.2h17v17h-17zm17 0h17v17h-17z"/>
  <path class="st2" d="M170.1 357.2h17v17h-17zm17 0h17v17h-17z"/>
  <path class="st0" d="M204.1 357.2h17v17h-17zm17 0h17v17h-17zm17 0h17v17h-17z"/>
  <path class="st2" d="M255.1 357.2h17v17h-17zm17 0h17v17h-17z"/>
  <path class="st0" d="M289.1 357.2h17v17h-17zM0 374.2h17v17H0z"/>
  <path class="st2" d="M17 374.2h17v17H17zm17 0h17v17H34zm17 0h17v17H51zm17 0h17v17H68zm17 0h17v17H85zm17.1 0h17v17h-17z"/>
  <path class="st3" d="M119.1 374.2h17v17h-17zm17 0h17v17h-17z"/>
  <path class="st1" d="M153.1 374.2h17v17h-17z"/>
  <path class="st3" d="M170.1 374.2h17v17h-17z"/>
  <path class="st2" d="M187.1 374.2h17v17h-17zm17 0h17v17h-17zm17 0h17v17h-17zm17 0h17v17h-17zm17 0h17v17h-17zm17 0h17v17h-17z"/>
  <path class="st0" d="M289.1 374.2h17v17h-17zM0 391.2h17v17H0z"/>
  <path class="st2" d="M17 391.2h17v17H17zm17 0h17v17H34zm17 0h17v17H51zm17 0h17v17H68zm17 0h17v17H85zm17.1 0h17v17h-17z"/>
  <path class="st1" d="M119.1 391.2h17v17h-17zm17 0h17v17h-17z"/>
  <path class="st3" d="M153.1 391.2h17v17h-17zm17 0h17v17h-17z"/>
  <path class="st2" d="M187.1 391.2h17v17h-17zm17 0h17v17h-17zm17 0h17v17h-17zm17 0h17v17h-17zm17 0h17v17h-17zm17 0h17v17h-17z"/>
  <path class="st0" d="M289.1 391.2h17v17h-17zM17 408.2h17v17H17z"/>
  <path class="st2" d="M34 408.2h17v17H34zm17 0h17v17H51zm17 0h17v17H68z"/>
  <path class="st3" d="M85 408.2h17v17H85z"/>
  <path class="st2" d="M102.1 408.2h17v17h-17z"/>
  <path class="st1" d="M119.1 408.2h17v17h-17zm17 0h17v17h-17z"/>
  <path class="st3" d="M153.1 408.2h17v17h-17zm17 0h17v17h-17z"/>
  <path class="st2" d="M187.1 408.2h17v17h-17z"/>
  <path class="st1" d="M204.1 408.2h17v17h-17zm17 0h17v17h-17z"/>
  <path class="st2" d="M238.1 408.2h17v17h-17zm17 0h17v17h-17zm17 0h17v17h-17z"/>
  <path class="st0" d="M289.1 408.2h17v17h-17zM17 425.2h17v17H17z"/>
  <path class="st2" d="M34 425.2h17v17H34zm17 0h17v17H51z"/>
  <path class="st3" d="M68 425.2h17v17H68zm17 0h17v17H85zm17.1 0h17v17h-17z"/>
  <path class="st1" d="M119.1 425.2h17v17h-17z"/>
  <path class="st3" d="M136.1 425.2h17v17h-17zm17 0h17v17h-17zm17 0h17v17h-17zm17 0h17v17h-17z"/>
  <path class="st1" d="M204.1 425.2h17v17h-17zm17 0h17v17h-17z"/>
  <path class="st3" d="M238.1 425.2h17v17h-17z"/>
  <path class="st2" d="M255.1 425.2h17v17h-17z"/>
  <path class="st0" d="M272.1 425.2h17v17h-17zM34 442.2h17v17H34z"/>
  <path class="st3" d="M51 442.2h17v17H51zm17 0h17v17H68zm17 0h17v17H85zm17.1 0h17v17h-17zm17 0h17v17h-17zm17 0h17v17h-17zm17 0h17v17h-17zm17 0h17v17h-17zm17 0h17v17h-17zm17 0h17v17h-17zm17 0h17v17h-17zm17 0h17v17h-17z"/>
  <path class="st0" d="M255.1 442.2h17v17h-17zM51 459.2h17v17H51zm17 0h17v17H68zm17 0h17v17H85zm17.1 0h17v17h-17zm17 0h17v17h-17zm17 0h17v17h-17zm17 0h17v17h-17zm17 0h17v17h-17zm17 0h17v17h-17zm17 0h17v17h-17zm17 0h17v17h-17zm17 0h17v17h-17z"/>
</svg>
