<svg xmlns="http://www.w3.org/2000/svg" width="426" height="477" viewBox="0 0 425.2 476.2">
  <style>
    .st0{fill:#5b1a11}.st1{fill:#3bed00}.st2{fill:#e53535}.st3{fill:#258700}.st4{fill:#f88}.st5{fill:#ff5a5a}.st6{fill:#ffc7c7}
  </style>
  <g id="Layer_2_2_">
    <g id="Layer_1-2_1_">
      <path class="st0" d="M238.6 67.5v-34h-17v-17h-18v52h17v17h35v-18z"/>
      <path class="st1" d="M170.6 50.5h-17v-17h-17v-17h-17v-17H50.5v52h17v17h17v17h17.1v17h35v-17h51v-18h-17zm204.1 0v-17h-69v17h-34.1v17h-17v17h-17v18h86.1v-17h34v-17h34v-18z"/>
      <path class="st2" d="M187.1 85h-51v16.5H84.5v17.1h-17v17h-17v17h-17v17h-17v17h-17v120h17v34h17v17.1h17v17h17v17h17v17h17.1v17h17v17h17v17h34v17h86v-17h34v-17h17v-17h17.1v-17h17v-17h17v-17h17v-17h17v-17.1h17v-34h17v-120h-17v-17h-17v-17h-17v-17h-17v-17h-17v-17.1H238.1V85h-51"/>
    </g>
  </g>
  <path class="st1" d="M51 0h17v17H51zm17 0h17v17H68zm17 0h17v17H85zm17.1 0h17v17h-17zM51 17h17v17H51z"/>
  <path class="st3" d="M68 17h17v17H68z"/>
  <path class="st1" d="M85 17h17v17H85zm17.1 0h17v17h-17zm17 0h17v17h-17z"/>
  <path class="st0" d="M204.1 17h17v17h-17z"/>
  <path class="st3" d="M51 34h17v17H51zm17 0h17v17H68zm17 0h17v17H85z"/>
  <path class="st1" d="M102.1 34h17v17h-17zm17 0h17v17h-17zm17 0h17v17h-17z"/>
  <path class="st0" d="M204.1 34h17v17h-17zm17 0h17v17h-17z"/>
  <path class="st1" d="M306.1 34h17v17h-17zm17 0h17v17h-17zm17.1 0h17v17h-17zm17 0h17v17h-17z"/>
  <path class="st3" d="M68 51h17v17H68zm17 0h17v17H85z"/>
  <path class="st1" d="M102.1 51h17v17h-17zm17 0h17v17h-17zm17 0h17v17h-17zm17 0h17v17h-17z"/>
  <path class="st0" d="M204.1 51h17v17h-17zm17 0h17v17h-17z"/>
  <path class="st1" d="M272.1 51h17v17h-17zm17 0h17v17h-17zm17 0h17v17h-17zm17 0h17v17h-17zm17.1 0h17v17h-17zm17 0h17v17h-17zm17 0h17v17h-17z"/>
  <path class="st3" d="M85 68h17v17H85zm17.1 0h17v17h-17zm17 0h17v17h-17z"/>
  <path class="st1" d="M136.1 68h17v17h-17zm17 0h17v17h-17zm17 0h17v17h-17z"/>
  <path class="st0" d="M221.1 68h17v17h-17zm17 0h17v17h-17z"/>
  <path class="st1" d="M255.1 68h17v17h-17zm17 0h17v17h-17z"/>
  <path class="st3" d="M289.1 68h17v17h-17zm17 0h17v17h-17zm17 0h17v17h-17zm17.1 0h17v17h-17zM102.1 85h17v17h-17zm17 0h17v17h-17z"/>
  <path class="st2" d="M136.1 85h17v17h-17zm17 0h17v17h-17zm17 0h17v17h-17zm17 0h17v17h-17zm17 0h17v17h-17zm17 0h17v17h-17z"/>
  <path class="st3" d="M238.1 85h17v17h-17zm17 0h17v17h-17zm17 0h17v17h-17zm17 0h17v17h-17zm17 0h17v17h-17z"/>
  <path class="st2" d="M85 102h17v17H85zm17.1 0h17v17h-17zm17 0h17v17h-17zm17 0h17v17h-17z"/>
  <path class="st4" d="M153.1 102h17v17h-17zm17 0h17v17h-17zm17 0h17v17h-17zm17 0h17v17h-17z"/>
  <path class="st2" d="M221.1 102h17v17h-17zm17 0h17v17h-17zm17 0h17v17h-17zm17 0h17v17h-17zm17 0h17v17h-17zm17 0h17v17h-17zm17 0h17v17h-17zM68 119.1h17v17H68z"/>
  <path class="st5" d="M85 119.1h17v17H85zm17.1 0h17v17h-17z"/>
  <path class="st4" d="M119.1 119.1h17v17h-17zm17 0h17v17h-17zm17 0h17v17h-17zm17 0h17v17h-17zm17 0h17v17h-17zm17 0h17v17h-17zm17 0h17v17h-17zm17 0h17v17h-17z"/>
  <path class="st6" d="M255.1 119.1h17v17h-17zm17 0h17v17h-17zm17 0h17v17h-17zm17 0h17v17h-17z"/>
  <path class="st5" d="M323.1 119.1h17v17h-17z"/>
  <path class="st2" d="M340.2 119.1h17v17h-17zM51 136.1h17v17H51zm17 0h17v17H68z"/>
  <path class="st5" d="M85 136.1h17v17H85z"/>
  <path class="st4" d="M102.1 136.1h17v17h-17zm17 0h17v17h-17zm17 0h17v17h-17zm17 0h17v17h-17zm17 0h17v17h-17zm17 0h17v17h-17zm17 0h17v17h-17zm17 0h17v17h-17zm17 0h17v17h-17zm17 0h17v17h-17zm17 0h17v17h-17z"/>
  <path class="st6" d="M289.1 136.1h17v17h-17zm17 0h17v17h-17zm17 0h17v17h-17zm17.1 0h17v17h-17z"/>
  <path class="st2" d="M357.2 136.1h17v17h-17zM34 153.1h17v17H34zm17 0h17v17H51z"/>
  <path class="st5" d="M68 153.1h17v17H68zm17 0h17v17H85z"/>
  <path class="st4" d="M102.1 153.1h17v17h-17zm17 0h17v17h-17zm17 0h17v17h-17zm17 0h17v17h-17z"/>
  <path class="st6" d="M170.1 153.1h17v17h-17zm17 0h17v17h-17zm17 0h17v17h-17z"/>
  <path class="st4" d="M221.1 153.1h17v17h-17zm17 0h17v17h-17zm17 0h17v17h-17zm17 0h17v17h-17z"/>
  <path class="st6" d="M289.1 153.1h17v17h-17zm17 0h17v17h-17zm17 0h17v17h-17zm17.1 0h17v17h-17z"/>
  <path class="st5" d="M357.2 153.1h17v17h-17z"/>
  <path class="st2" d="M374.2 153.1h17v17h-17zM17 170.1h17v17H17zm17 0h17v17H34z"/>
  <path class="st5" d="M51 170.1h17v17H51zm17 0h17v17H68zm17 0h17v17H85z"/>
  <path class="st4" d="M102.1 170.1h17v17h-17zm17 0h17v17h-17zm17 0h17v17h-17zm17 0h17v17h-17z"/>
  <path class="st6" d="M170.1 170.1h17v17h-17zm17 0h17v17h-17zm17 0h17v17h-17zm17 0h17v17h-17zm17 0h17v17h-17z"/>
  <path class="st4" d="M255.1 170.1h17v17h-17zm17 0h17v17h-17zm17 0h17v17h-17z"/>
  <path class="st6" d="M306.1 170.1h17v17h-17zm17 0h17v17h-17zm17.1 0h17v17h-17zm17 0h17v17h-17zm17 0h17v17h-17z"/>
  <path class="st2" d="M391.2 170.1h17v17h-17zM0 187.1h17v17H0zm17 0h17v17H17zm17 0h17v17H34z"/>
  <path class="st5" d="M51 187.1h17v17H51zm17 0h17v17H68zm17 0h17v17H85zm17.1 0h17v17h-17z"/>
  <path class="st4" d="M119.1 187.1h17v17h-17zm17 0h17v17h-17zm17 0h17v17h-17z"/>
  <path class="st6" d="M170.1 187.1h17v17h-17zm17 0h17v17h-17zm17 0h17v17h-17zm17 0h17v17h-17zm17 0h17v17h-17zm17 0h17v17h-17z"/>
  <path class="st2" d="M272.1 187.1h17v17h-17z"/>
  <path class="st4" d="M289.1 187.1h17v17h-17zm17 0h17v17h-17z"/>
  <path class="st6" d="M323.1 187.1h17v17h-17zm17.1 0h17v17h-17zm17 0h17v17h-17zm17 0h17v17h-17zm17 0h17v17h-17z"/>
  <path class="st2" d="M408.2 187.1h17v17h-17zM0 204.1h17v17H0zm17 0h17v17H17z"/>
  <path class="st5" d="M34 204.1h17v17H34zm17 0h17v17H51zm17 0h17v17H68zm17 0h17v17H85zm17.1 0h17v17h-17zm17 0h17v17h-17z"/>
  <path class="st4" d="M136.1 204.1h17v17h-17zm17 0h17v17h-17zm17 0h17v17h-17z"/>
  <path class="st6" d="M187.1 204.1h17v17h-17zm17 0h17v17h-17zm17 0h17v17h-17zm17 0h17v17h-17zm17 0h17v17h-17zm17 0h17v17h-17z"/>
  <path class="st2" d="M289.1 204.1h17v17h-17z"/>
  <path class="st4" d="M306.1 204.1h17v17h-17zm17 0h17v17h-17z"/>
  <path class="st6" d="M340.2 204.1h17v17h-17zm17 0h17v17h-17zm17 0h17v17h-17zm17 0h17v17h-17z"/>
  <path class="st2" d="M408.2 204.1h17v17h-17zM0 221.1h17v17H0zm17 0h17v17H17z"/>
  <path class="st5" d="M34 221.1h17v17H34zm17 0h17v17H51zm17 0h17v17H68zm17 0h17v17H85zm17.1 0h17v17h-17zm17 0h17v17h-17z"/>
  <path class="st4" d="M136.1 221.1h17v17h-17zm17 0h17v17h-17z"/>
  <path class="st6" d="M170.1 221.1h17v17h-17zm17 0h17v17h-17zm17 0h17v17h-17zm17 0h17v17h-17zm17 0h17v17h-17zm17 0h17v17h-17zm17 0h17v17h-17zm17 0h17v17h-17z"/>
  <path class="st2" d="M306.1 221.1h17v17h-17z"/>
  <path class="st4" d="M323.1 221.1h17v17h-17zm17.1 0h17v17h-17z"/>
  <path class="st5" d="M357.2 221.1h17v17h-17z"/>
  <path class="st6" d="M374.2 221.1h17v17h-17zm17 0h17v17h-17z"/>
  <path class="st2" d="M408.2 221.1h17v17h-17zM0 238.1h17v17H0zm17 0h17v17H17z"/>
  <path class="st5" d="M34 238.1h17v17H34zm17 0h17v17H51zm17 0h17v17H68zm17 0h17v17H85zm17.1 0h17v17h-17zm17 0h17v17h-17z"/>
  <path class="st4" d="M136.1 238.1h17v17h-17zm17 0h17v17h-17z"/>
  <path class="st6" d="M170.1 238.1h17v17h-17zm17 0h17v17h-17zm17 0h17v17h-17zm17 0h17v17h-17zm17 0h17v17h-17zm17 0h17v17h-17zm17 0h17v17h-17zm17 0h17v17h-17z"/>
  <path class="st2" d="M306.1 238.1h17v17h-17z"/>
  <path class="st4" d="M323.1 238.1h17v17h-17zm17.1 0h17v17h-17zm17 0h17v17h-17z"/>
  <path class="st5" d="M374.2 238.1h17v17h-17z"/>
  <path class="st6" d="M391.2 238.1h17v17h-17z"/>
  <path class="st2" d="M408.2 238.1h17v17h-17zM0 255.1h17v17H0zm17 0h17v17H17z"/>
  <path class="st5" d="M34 255.1h17v17H34zm17 0h17v17H51zm17 0h17v17H68zm17 0h17v17H85zm17.1 0h17v17h-17zm17 0h17v17h-17z"/>
  <path class="st4" d="M136.1 255.1h17v17h-17zm17 0h17v17h-17zm17 0h17v17h-17z"/>
  <path class="st6" d="M187.1 255.1h17v17h-17zm17 0h17v17h-17zm17 0h17v17h-17zm17 0h17v17h-17zm17 0h17v17h-17zm17 0h17v17h-17zm17 0h17v17h-17zm17 0h17v17h-17z"/>
  <path class="st2" d="M323.1 255.1h17v17h-17z"/>
  <path class="st4" d="M340.2 255.1h17v17h-17zm17 0h17v17h-17zm17 0h17v17h-17z"/>
  <path class="st5" d="M391.2 255.1h17v17h-17z"/>
  <path class="st2" d="M408.2 255.1h17v17h-17zM0 272.1h17v17H0zm17 0h17v17H17zm17 0h17v17H34z"/>
  <path class="st5" d="M51 272.1h17v17H51zm17 0h17v17H68zm17 0h17v17H85zm17.1 0h17v17h-17zm17 0h17v17h-17z"/>
  <path class="st4" d="M136.1 272.1h17v17h-17zm17 0h17v17h-17zm17 0h17v17h-17zm17 0h17v17h-17zm17 0h17v17h-17z"/>
  <path class="st6" d="M221.1 272.1h17v17h-17zm17 0h17v17h-17zm17 0h17v17h-17zm17 0h17v17h-17zm17 0h17v17h-17zm17 0h17v17h-17z"/>
  <path class="st2" d="M323.1 272.1h17v17h-17z"/>
  <path class="st4" d="M340.2 272.1h17v17h-17zm17 0h17v17h-17z"/>
  <path class="st5" d="M374.2 272.1h17v17h-17zm17 0h17v17h-17z"/>
  <path class="st2" d="M408.2 272.1h17v17h-17zM0 289.1h17v17H0zm17 0h17v17H17zm17 0h17v17H34z"/>
  <path class="st5" d="M51 289.1h17v17H51zm17 0h17v17H68zm17 0h17v17H85zm17.1 0h17v17h-17zm17 0h17v17h-17z"/>
  <path class="st4" d="M136.1 289.1h17v17h-17zm17 0h17v17h-17zm17 0h17v17h-17zm17 0h17v17h-17zm17 0h17v17h-17zm17 0h17v17h-17z"/>
  <path class="st6" d="M238.1 289.1h17v17h-17zm17 0h17v17h-17zm17 0h17v17h-17zm17 0h17v17h-17zm17 0h17v17h-17z"/>
  <path class="st2" d="M323.1 289.1h17v17h-17z"/>
  <path class="st4" d="M340.2 289.1h17v17h-17zm17 0h17v17h-17z"/>
  <path class="st5" d="M374.2 289.1h17v17h-17zm17 0h17v17h-17z"/>
  <path class="st2" d="M408.2 289.1h17v17h-17zM17 306.1h17v17H17zm17 0h17v17H34zm17 0h17v17H51z"/>
  <path class="st5" d="M68 306.1h17v17H68zm17 0h17v17H85zm17.1 0h17v17h-17zm17 0h17v17h-17z"/>
  <path class="st4" d="M136.1 306.1h17v17h-17zm17 0h17v17h-17zm17 0h17v17h-17zm17 0h17v17h-17zm17 0h17v17h-17zm17 0h17v17h-17zm17 0h17v17h-17z"/>
  <path class="st6" d="M255.1 306.1h17v17h-17zm17 0h17v17h-17zm17 0h17v17h-17zm17 0h17v17h-17z"/>
  <path class="st2" d="M323.1 306.1h17v17h-17z"/>
  <path class="st4" d="M340.2 306.1h17v17h-17zm17 0h17v17h-17z"/>
  <path class="st5" d="M374.2 306.1h17v17h-17z"/>
  <path class="st2" d="M391.2 306.1h17v17h-17zM17 323.1h17v17H17zm17 0h17v17H34zm17 0h17v17H51zm17 0h17v17H68z"/>
  <path class="st5" d="M85 323.1h17v17H85zm17.1 0h17v17h-17zm17 0h17v17h-17z"/>
  <path class="st4" d="M136.1 323.1h17v17h-17zm17 0h17v17h-17zm17 0h17v17h-17zm17 0h17v17h-17zm17 0h17v17h-17zm17 0h17v17h-17zm17 0h17v17h-17z"/>
  <path class="st6" d="M255.1 323.1h17v17h-17zm17 0h17v17h-17zm17 0h17v17h-17z"/>
  <path class="st4" d="M306.1 323.1h17v17h-17z"/>
  <path class="st2" d="M323.1 323.1h17v17h-17z"/>
  <path class="st4" d="M340.2 323.1h17v17h-17zm17 0h17v17h-17z"/>
  <path class="st5" d="M374.2 323.1h17v17h-17z"/>
  <path class="st2" d="M391.2 323.1h17v17h-17zM34 340.2h17v17H34zm17 0h17v17H51zm17 0h17v17H68zm17 0h17v17H85z"/>
  <path class="st5" d="M102.1 340.2h17v17h-17zm17 0h17v17h-17zm17 0h17v17h-17z"/>
  <path class="st4" d="M153.1 340.2h17v17h-17zm17 0h17v17h-17zm17 0h17v17h-17zm17 0h17v17h-17zm17 0h17v17h-17zm17 0h17v17h-17zm17 0h17v17h-17zm17 0h17v17h-17zm17 0h17v17h-17z"/>
  <path class="st2" d="M306.1 340.2h17v17h-17z"/>
  <path class="st4" d="M323.1 340.2h17v17h-17zm17.1 0h17v17h-17z"/>
  <path class="st5" d="M357.2 340.2h17v17h-17z"/>
  <path class="st2" d="M374.2 340.2h17v17h-17zM51 357.2h17v17H51zm17 0h17v17H68zm17 0h17v17H85z"/>
  <path class="st5" d="M102.1 357.2h17v17h-17zm17 0h17v17h-17zm17 0h17v17h-17zm17 0h17v17h-17z"/>
  <path class="st4" d="M170.1 357.2h17v17h-17zm17 0h17v17h-17zm17 0h17v17h-17zm17 0h17v17h-17zm17 0h17v17h-17zm17 0h17v17h-17zm17 0h17v17h-17zm17 0h17v17h-17z"/>
  <path class="st2" d="M306.1 357.2h17v17h-17z"/>
  <path class="st4" d="M323.1 357.2h17v17h-17zm17.1 0h17v17h-17z"/>
  <path class="st2" d="M357.2 357.2h17v17h-17zM68 374.2h17v17H68zm17 0h17v17H85zm17.1 0h17v17h-17z"/>
  <path class="st5" d="M119.1 374.2h17v17h-17zm17 0h17v17h-17zm17 0h17v17h-17zm17 0h17v17h-17zm17 0h17v17h-17zm17 0h17v17h-17z"/>
  <path class="st4" d="M221.1 374.2h17v17h-17zm17 0h17v17h-17zm17 0h17v17h-17zm17 0h17v17h-17z"/>
  <path class="st2" d="M289.1 374.2h17v17h-17z"/>
  <path class="st4" d="M306.1 374.2h17v17h-17z"/>
  <path class="st5" d="M323.1 374.2h17v17h-17zm17.1 0h17v17h-17z"/>
  <path class="st2" d="M85 391.2h17v17H85zm17.1 0h17v17h-17z"/>
  <path class="st5" d="M119.1 391.2h17v17h-17zm17 0h17v17h-17zm17 0h17v17h-17zm17 0h17v17h-17zm17 0h17v17h-17zm17 0h17v17h-17zm17 0h17v17h-17z"/>
  <path class="st4" d="M238.1 391.2h17v17h-17zm17 0h17v17h-17z"/>
  <path class="st2" d="M272.1 391.2h17v17h-17z"/>
  <path class="st4" d="M289.1 391.2h17v17h-17zm17 0h17v17h-17z"/>
  <path class="st2" d="M323.1 391.2h17v17h-17zm-221 17h17v17h-17zm17 0h17v17h-17z"/>
  <path class="st5" d="M136.1 408.2h17v17h-17zm17 0h17v17h-17zm17 0h17v17h-17zm17 0h17v17h-17zm17 0h17v17h-17zm17 0h17v17h-17zm17 0h17v17h-17z"/>
  <path class="st2" d="M255.1 408.2h17v17h-17z"/>
  <path class="st4" d="M272.1 408.2h17v17h-17zm17 0h17v17h-17z"/>
  <path class="st2" d="M306.1 408.2h17v17h-17zm-187 17h17v17h-17zm17 0h17v17h-17z"/>
  <path class="st5" d="M153.1 425.2h17v17h-17zm17 0h17v17h-17zm17 0h17v17h-17zm17 0h17v17h-17z"/>
  <path class="st2" d="M221.1 425.2h17v17h-17zm17 0h17v17h-17z"/>
  <path class="st4" d="M255.1 425.2h17v17h-17zm17 0h17v17h-17z"/>
  <path class="st2" d="M289.1 425.2h17v17h-17zm-153 17h17v17h-17zm17 0h17v17h-17zm17 0h17v17h-17z"/>
  <path class="st5" d="M187.1 442.2h17v17h-17z"/>
  <path class="st2" d="M204.1 442.2h17v17h-17zm17 0h17v17h-17z"/>
  <path class="st4" d="M238.1 442.2h17v17h-17z"/>
  <path class="st2" d="M255.1 442.2h17v17h-17zm17 0h17v17h-17zm-102 17h17v17h-17zm17 0h17v17h-17zm17 0h17v17h-17zm17 0h17v17h-17zm17 0h17v17h-17z"/>
</svg>
