<svg xmlns="http://www.w3.org/2000/svg" width="2250" height="740" viewBox="0 0 2250 740">
    <g fill="none" fill-rule="evenodd">
        <g>
            <g>
                <path fill="#F5F5F5" d="M0 0H2250V740H0z" transform="translate(-61 -4339) translate(61 4339)"/>
                <g transform="translate(-61 -4339) translate(61 4339) translate(430 170)">
                    <path fill="#EBEBEB" d="M287.742 127.494l-19.498 9.91c-2.694 1.37-5.99.298-7.36-2.394-.524-1.027-.708-2.193-.529-3.332l3.41-21.588c.303-1.918-.33-3.866-1.704-5.24L246.6 89.386c-2.136-2.137-2.134-5.6.004-7.734.817-.814 1.87-1.35 3.01-1.531l21.604-3.432c1.92-.305 3.579-1.509 4.462-3.239l9.943-19.467c1.374-2.69 4.67-3.758 7.363-2.385 1.028.524 1.864 1.358 2.388 2.385l9.943 19.467c.884 1.73 2.542 2.934 4.462 3.24l21.605 3.43c2.985.475 5.02 3.277 4.546 6.26-.18 1.138-.717 2.19-1.533 3.006l-15.46 15.462c-1.373 1.375-2.007 3.323-1.704 5.241l3.41 21.588c.471 2.983-1.568 5.783-4.554 6.254-1.14.18-2.307-.005-3.335-.528l-19.497-9.91c-1.733-.881-3.783-.881-5.516 0zM45.5 337c25.129 0 45.5 20.371 45.5 45.5S70.629 428 45.5 428 0 407.629 0 382.5 20.371 337 45.5 337zm0 23c-1.927 0-3.501 1.506-3.612 3.405l-.006.213v13.263l-13.264.001-.213.006c-1.899.11-3.405 1.685-3.405 3.612s1.506 3.501 3.405 3.612l.213.006H41.88l.001 13.264.006.213c.11 1.899 1.685 3.405 3.612 3.405s3.501-1.506 3.612-3.405l.006-.213-.002-13.264h13.266l.213-.006c1.899-.11 3.405-1.685 3.405-3.612s-1.506-3.501-3.405-3.612l-.213-.006H49.116l.002-13.264-.006-.213c-.11-1.899-1.685-3.405-3.612-3.405zM799.241 0h55.087c40.828 0 74.003 32.8 74.662 73.51l.01 1.236C929 81.514 923.52 87 916.759 87h-55.087c-40.828 0-74.003-32.8-74.662-73.51l-.01-1.236C787 5.486 792.48 0 799.241 0z"/>
                    <g>
                        <path fill="#EBEBEB" d="M85.648 4.153c.084.084.166.17.248.257l5.052 5.366c3.162 3.36 7.775 4.948 12.335 4.247l7.285-1.118c7.653-1.175 14.809 4.076 15.984 11.729.018.117.034.235.05.353l.932 7.311c.584 4.577 3.382 8.573 7.483 10.687l6.551 3.377c4.953 2.553 7.741 7.648 7.593 12.869l-78.619 95.135c-2.578-.55-5.03-1.831-7.024-3.843-.083-.085-.166-.17-.247-.257l-5.053-5.367c-3.162-3.359-7.774-4.947-12.334-4.247l-7.286 1.119c-7.652 1.175-14.808-4.077-15.983-11.73-.018-.117-.035-.234-.05-.352l-.933-7.312c-.584-4.576-3.382-8.572-7.482-10.686l-6.552-3.377C.716 104.766-1.986 96.312 1.561 89.43c.055-.106.11-.21.168-.315l3.542-6.463c2.218-4.046 2.303-8.923.228-13.044l-3.315-6.583C-1.298 56.11 1.484 47.681 8.4 44.2c.106-.053.213-.105.32-.156l6.665-3.147c4.172-1.97 7.108-5.865 7.851-10.418l1.188-7.275c1.247-7.64 8.453-12.824 16.094-11.577.117.02.234.04.351.062l7.242 1.372c4.533.86 9.198-.567 12.475-3.814l5.237-5.187c5.5-5.448 14.376-5.406 19.825.094z" transform="rotate(90 618.23 755.184)"/>
                        <path fill="#FFF" d="M149.16 59.54c-4.318-.921-8.99.214-12.447 3.411l-.353.339-5.237 5.187c-3.168 3.138-7.633 4.576-12.021 3.892l-.454-.078-7.417-1.404-.176-.03c-7.512-1.226-14.603 3.762-16.026 11.19l-.068.387-1.188 7.274c-.719 4.406-3.492 8.197-7.45 10.222l-.4.197-6.666 3.146c-.107.051-.214.103-.32.157-6.794 3.42-9.6 11.616-6.394 18.46l.178.366 3.315 6.583c2.003 3.978 1.993 8.662-.006 12.622l-.222.421-3.542 6.463c-.058.105-.113.21-.168.315-.994 1.93-1.498 3.982-1.555 6.016L149.16 59.54z" transform="rotate(90 618.23 755.184)"/>
                    </g>
                    <circle cx="232.5" cy="125.5" r="12.5" fill="#EBEBEB"/>
                </g>
            </g>
        </g>
    </g>
</svg>
