<svg xmlns="http://www.w3.org/2000/svg" width="2250" height="508" viewBox="0 0 2250 508">
    <g fill="none" fill-rule="evenodd">
        <g>
            <g>
                <path fill="#F5F5F5" d="M0 0H2250V479H0z" transform="translate(-62 -3786) translate(62 3786)"/>
                <g fill="#EBEBEB" transform="translate(-62 -3786) translate(62 3786) translate(1186 49)">
                    <path d="M84.465 136.693l-32.057 16.31c-4.43 2.255-9.849.49-12.103-3.94-.86-1.69-1.164-3.61-.869-5.483l5.607-35.53c.498-3.157-.544-6.363-2.803-8.625L16.82 73.977c-3.513-3.517-3.51-9.215.007-12.728 1.343-1.34 3.074-2.223 4.948-2.52l35.522-5.648c3.157-.502 5.884-2.483 7.337-5.33l16.348-32.04c2.26-4.427 7.68-6.185 12.108-3.926 1.69.862 3.063 2.236 3.926 3.926l16.348 32.04c1.453 2.847 4.18 4.828 7.337 5.33l35.522 5.647c4.91.78 8.256 5.393 7.476 10.302-.298 1.873-1.18 3.605-2.521 4.947L135.76 99.425c-2.26 2.262-3.3 5.468-2.803 8.626l5.607 35.529c.774 4.91-2.578 9.518-7.488 10.292-1.873.296-3.793-.008-5.484-.868l-32.057-16.311c-2.85-1.45-6.22-1.45-9.07 0zM491.5 304c30.652 0 55.5 24.848 55.5 55.5S522.152 415 491.5 415 436 390.152 436 359.5s24.848-55.5 55.5-55.5zm-.5 29c-2.35 0-4.27 1.837-4.404 4.153l-.008.259-.001 16.175-16.175.001-.26.008C467.838 353.73 466 355.65 466 358s1.837 4.27 4.153 4.404l.259.008h16.175l.001 16.176.008.26C486.73 381.162 488.65 383 491 383s4.27-1.837 4.404-4.153l.008-.259-.002-16.176h16.178l.26-.008C514.162 362.27 516 360.35 516 358s-1.837-4.27-4.153-4.404l-.259-.008H495.41l.002-16.176-.008-.26C495.27 334.838 493.35 333 491 333zM562.5 75c39.488 0 71.5 32.012 71.5 71.5S601.988 218 562.5 218 491 185.988 491 146.5 523.012 75 562.5 75zm.31 17C532.536 92 508 116.541 508 146.813c0 30.272 24.536 54.811 54.81 54.811 30.27 0 54.811-24.539 54.811-54.81 0-15.67-6.578-29.8-17.117-39.789l.152-.321.047-.1c.378-.817.701-1.628 3.095-7.382-6.662-.8-10.287-1.38-16.125-1.267C580.211 94.148 571.76 92 562.81 92zm0 8.201c1.383 0 2.752.063 4.106.181.24.021.43.204.461.443.031.24-.109.466-.336.545-7.578 2.705-15.19 7.208-24.342 14.105-.129.096-.204.248-.204.407-.003.158.073.31.202.405 6.023 4.617 13.222 10.864 26.09 10.864 6.817 0 13.447-1.948 19.168-5.628 2.953-1.904 5.576-4.214 7.804-6.873.094-.11.231-.179.376-.18.146-.003.285.052.385.156 7.99 8.368 12.901 19.703 12.901 32.188 0 25.745-20.87 46.611-46.612 46.611-5.11 0-10.024-.822-14.625-2.34-.237-.08-.382-.32-.345-.566.037-.245.248-.428.5-.432 19.157-.257 40.61-10.574 42.264-30.076.728-8.596-5.257-26.657-33.929-18.923-.172.048-.352 0-.479-.115-.13-.12-.19-.295-.157-.47.35-1.907 1-6.582 1.181-7.869.028-.204-.067-.402-.242-.508-5.269-3.194-10.106-6.246-11.789-7.312-.144-.093-.317-.106-.476-.038-.154.063-.265.202-.297.367v.003l-5.833 29.65c-.038.19.035.386.19.502l.052.04c.041.035.088.062.138.08.137.052.295.04.428-.034 17.202-9.625 28.856-3.305 30.357 3.811 1.757 8.33-8.932 21.883-33.873 16.435-.257-.055-.513.094-.593.348l-1.905 6.064c-.05.163-.179.292-.343.338-.166.051-.34.01-.472-.1-10.016-8.552-16.364-21.266-16.364-35.466 0-25.743 20.867-46.613 46.612-46.613zm33.66 3.246l.005.025.002.01.001.001-.007-.036c.007.003.015.006.023.006l-.014.03.014.004-.006.012-.006.012c-7.564 18.142-30.185 24.09-45.676 12.362.003 0 .004-.003.01-.003l.015-.01c-.007-.007-.016-.013-.025-.019.003 0 .004-.003.01-.003 13.515-10.248 29.918-14.235 45.654-12.39z"/>
                    <circle cx="564" cy="437" r="22"/>
                </g>
            </g>
        </g>
    </g>
</svg>
