<svg xmlns="http://www.w3.org/2000/svg" xmlns:xlink="http://www.w3.org/1999/xlink" width="2250" height="460" viewBox="0 0 2250 460">
    <defs>
        <radialGradient id="snbs88myrb" cx="29.399%" cy="39.606%" r="373.12%" fx="29.399%" fy="39.606%" gradientTransform="scale(.20444 1) rotate(8.673 .866 7.94)">
            <stop offset="0%" stop-color="#9C3"/>
            <stop offset="100%" stop-color="#64A70B"/>
        </radialGradient>
        <path id="17fyg7zjoa" d="M0 0H2250V460H0z"/>
    </defs>
    <g fill="none" fill-rule="evenodd">
        <g>
            <g transform="translate(-61 -2793) translate(61 2793)">
                <mask id="3senrdmpec" fill="#fff">
                    <use xlink:href="#17fyg7zjoa"/>
                </mask>
                <use fill="#FFB400" xlink:href="#17fyg7zjoa"/>
                <path fill="url(#snbs88myrb)" d="M1 0H2251V460H1z" mask="url(#3senrdmpec)"/>
                <g style="mix-blend-mode:soft-light">
                    <g>
                        <g>
                            <path fill="#FFF" d="M14.863 97.196c2.54-1.5 5.817-.66 7.318 1.879l.498.842.184.297c.88 1.367 2.11 2.477 3.564 3.215 4.524 2.297 10.054.493 12.352-4.027l.121-.225c.464-.815 1.134-1.496 1.944-1.974 2.564-1.513 5.87-.662 7.385 1.9l.593 1.004.174.282c.897 1.394 2.173 2.507 3.68 3.207 4.39 2.036 9.6.132 11.637-4.254.376-.81 1.075-1.424 1.926-1.695.344-.11.693-.157 1.035-.15-3.29 24.711-16.166 39-34.51 39-15.984 0-25.88-14.407-30.208-33.02 3.906 1.416 8.341-.281 10.253-4.082l.12-.226c.46-.814 1.126-1.495 1.934-1.973zm53.16-17.187c.176 4.845.06 9.424-.328 13.718-.856-.062-1.737.035-2.604.31-1.863.593-3.393 1.938-4.216 3.71l-.095.194c-1.216 2.35-4.082 3.344-6.507 2.22-.913-.424-1.675-1.114-2.187-1.98l-.593-1.004-.141-.231c-2.639-4.183-8.146-5.535-12.435-3.004-1.506.888-2.726 2.187-3.518 3.745l-.105.196c-1.407 2.51-4.56 3.485-7.15 2.17-.916-.465-1.68-1.18-2.202-2.064l-.498-.842-.14-.23c-2.627-4.158-8.105-5.5-12.37-2.981-1.507.89-2.726 2.195-3.512 3.758l-.1.188c-1.176 2.09-3.8 2.908-5.967 1.82-.81-.407-1.478-1.047-1.917-1.834C.493 92.218.018 86.296 0 80.355c.178-.268.342-.55.49-.844l.12-.226c.46-.815 1.126-1.496 1.935-1.973 2.54-1.5 5.816-.66 7.317 1.878l.499.843.183.296c.88 1.367 2.11 2.478 3.564 3.216 4.524 2.296 10.054.493 12.352-4.027l.121-.225c.464-.815 1.134-1.496 1.944-1.974 2.565-1.513 5.87-.663 7.385 1.9l.593 1.004.175.282c.896 1.394 2.172 2.507 3.68 3.207 4.389 2.036 9.599.131 11.636-4.254.441-.949.029-2.075-.92-2.515-.95-.44-2.077-.029-2.518.92l-.095.193c-1.216 2.35-4.082 3.345-6.507 2.22-.913-.423-1.675-1.113-2.187-1.98l-.593-1.003-.141-.231c-2.638-4.183-8.146-5.535-12.435-3.005-1.505.889-2.726 2.188-3.518 3.746l-.104.196c-1.408 2.51-4.56 3.484-7.151 2.17-.915-.465-1.68-1.18-2.202-2.064l-.498-.842-.14-.23c-2.626-4.159-8.105-5.5-12.37-2.981l-.13.078c3.838-22.04 29.216-22.517 31.639-22.527h.126c.253 0 1.025-.043 2.18-.05h.56c8.304.043 32.077 2.16 33.033 28.456zM40.615 23.349c5.026-1.288 9.637-6.132 13.831-14.532 3.655 8.689 2.516 17.984-3.417 27.884 4.874.83 9.54.35 13.997-1.44-2.823 6.53-6.298 11.909-10.425 16.134-9.619-3.172-16.807-4.767-21.564-4.785-4.376-.017-10.939 1.578-19.69 4.785-4.126-4.225-7.756-9.603-10.58-16.133 4.458 1.79 9.123 2.27 13.997 1.44C10.83 26.8 9.692 17.505 13.347 8.816c4.195 8.4 8.805 13.244 13.831 14.532-1.3-7.648 1.12-15.73 6.572-23.349 5.46 10.37 7.749 18.153 6.865 23.349z" transform="translate(1157.19 9.21) rotate(28 211.759 1193.696)"/>
                        </g>
                        <g>
                            <path fill="#FFF" d="M41.413.857c1.832.647 3.27 2.103 3.902 3.951l26.82 78.389c-11.57 3.574-22.829 5.356-33.784 5.356-10.437 0-21.285-1.617-32.548-4.862L33.316 4.773c1.161-3.332 4.786-5.085 8.097-3.916zm-2.667 67.874c-1.462 0-2.647 1.67-2.647 3.73s1.185 3.73 2.647 3.73c1.462 0 2.647-1.67 2.647-3.73s-1.185-3.73-2.647-3.73zM57.803 66.6c-1.462 0-2.647 1.67-2.647 3.73s1.185 3.73 2.647 3.73c1.462 0 2.647-1.67 2.647-3.73s-1.185-3.73-2.647-3.73zm-38.113 0c-1.462 0-2.647 1.67-2.647 3.73s1.185 3.73 2.647 3.73c1.461 0 2.646-1.67 2.646-3.73s-1.185-3.73-2.646-3.73zm9.528-17.05c-1.462 0-2.647 1.67-2.647 3.73s1.185 3.73 2.647 3.73c1.462 0 2.647-1.67 2.647-3.73s-1.185-3.73-2.647-3.73zm19.057 0c-1.462 0-2.647 1.67-2.647 3.73s1.185 3.73 2.647 3.73c1.461 0 2.646-1.67 2.646-3.73s-1.185-3.73-2.646-3.73zM38.746 32.5c-1.462 0-2.647 1.67-2.647 3.73s1.185 3.73 2.647 3.73c1.462 0 2.647-1.67 2.647-3.73s-1.185-3.73-2.647-3.73zM75.21 90.448l2.31 6.567c.535 1.52-.19 3.191-1.679 3.87-11.864 5.408-23.917 8.237-36.157 8.485-12.29.25-24.603-2.569-36.942-8.455-1.463-.698-2.16-2.359-1.621-3.863l2.194-6.125c12.174 3.45 23.957 5.18 35.345 5.18 11.903 0 24.089-1.89 36.55-5.659z" transform="translate(1157.19 9.21) rotate(-37 573.45 -36.213)"/>
                        </g>
                        <g>
                            <path fill="#FFF" d="M41.413.857c1.832.647 3.27 2.103 3.902 3.951l26.82 78.389c-11.57 3.574-22.829 5.356-33.784 5.356-10.437 0-21.285-1.617-32.548-4.862L33.316 4.773c1.161-3.332 4.786-5.085 8.097-3.916zm-2.667 67.874c-1.462 0-2.647 1.67-2.647 3.73s1.185 3.73 2.647 3.73c1.462 0 2.647-1.67 2.647-3.73s-1.185-3.73-2.647-3.73zM57.803 66.6c-1.462 0-2.647 1.67-2.647 3.73s1.185 3.73 2.647 3.73c1.462 0 2.647-1.67 2.647-3.73s-1.185-3.73-2.647-3.73zm-38.113 0c-1.462 0-2.647 1.67-2.647 3.73s1.185 3.73 2.647 3.73c1.461 0 2.646-1.67 2.646-3.73s-1.185-3.73-2.646-3.73zm9.528-17.05c-1.462 0-2.647 1.67-2.647 3.73s1.185 3.73 2.647 3.73c1.462 0 2.647-1.67 2.647-3.73s-1.185-3.73-2.647-3.73zm19.057 0c-1.462 0-2.647 1.67-2.647 3.73s1.185 3.73 2.647 3.73c1.461 0 2.646-1.67 2.646-3.73s-1.185-3.73-2.646-3.73zM38.746 32.5c-1.462 0-2.647 1.67-2.647 3.73s1.185 3.73 2.647 3.73c1.462 0 2.647-1.67 2.647-3.73s-1.185-3.73-2.647-3.73zM75.21 90.448l2.31 6.567c.535 1.52-.19 3.191-1.679 3.87-11.864 5.408-23.917 8.237-36.157 8.485-12.29.25-24.603-2.569-36.942-8.455-1.463-.698-2.16-2.359-1.621-3.863l2.194-6.125c12.174 3.45 23.957 5.18 35.345 5.18 11.903 0 24.089-1.89 36.55-5.659z" transform="translate(1157.19 9.21) rotate(131 327.185 412.727)"/>
                        </g>
                        <g fill="#FFF">
                            <path d="M69.481 27.018c17.773 18.271-3.847 53.388-28.417 53.388-1.032 0-2.022-.065-2.972-.195-.948.13-1.938.195-2.97.195-24.57 0-46.19-35.117-28.417-53.388 8.57-8.81 19.033-10.485 31.388-5.026 12.356-5.459 22.818-3.783 31.388 5.026zm-50.79 3.61c-.923-.492-2.071-.143-2.564.78-4.09 7.665-4.09 15.292.018 22.645.51.913 1.665 1.24 2.579.73.913-.51 1.24-1.663.73-2.576-3.472-6.216-3.472-12.477.018-19.017.493-.923.143-2.07-.78-2.562z" transform="translate(1157.19 9.21) rotate(-22 1028.9 -1327.255)"/>
                            <path d="M38.33.356c1.776 0 3.255 3.01 3.582 6.999 2.68-3.095 5.73-4.72 7.18-3.691 1.63 1.157.62 5.233-2.257 9.103-.893 1.201-2.004 2.253-3.333 3.154-3.203 2.171-7.436 2.052-10.512-.297-1.083-.827-2.025-1.78-2.826-2.857-2.876-3.87-3.886-7.946-2.256-9.103 1.394-.99 4.27.476 6.874 3.345.38-3.815 1.825-6.653 3.549-6.653z" transform="translate(1157.19 9.21) rotate(-22 1028.9 -1327.255)"/>
                        </g>
                        <g fill="#FFF">
                            <path d="M42.108 16.033c10.664 10.962-2.309 32.032-17.05 32.032-.62 0-1.214-.039-1.784-.117-.568.078-1.163.117-1.782.117-14.742 0-27.714-21.07-17.05-32.032 5.142-5.286 11.42-6.292 18.833-3.016 7.413-3.276 13.69-2.27 18.833 3.016zm-30.474 2.165c-.554-.295-1.243-.086-1.539.468-2.454 4.6-2.454 9.176.01 13.587.307.548 1 .745 1.548.439s.745-.998.439-1.546c-2.084-3.73-2.084-7.486.01-11.41.296-.554.086-1.243-.468-1.538z" transform="translate(1157.19 9.21) rotate(21 -246.263 428.664)"/>
                            <path d="M22.987.831c1.11 0 2.034 1.744 2.238 4.053 1.675-1.792 3.581-2.733 4.488-2.137 1.018.67.387 3.03-1.41 5.27-2.31 2.877-6.513 3.338-9.39 1.03-.38-.305-.726-.65-1.03-1.03-1.798-2.24-2.43-4.6-1.41-5.27.871-.574 2.669.275 4.296 1.936.238-2.208 1.14-3.852 2.218-3.852z" transform="translate(1157.19 9.21) rotate(21 -246.263 428.664)"/>
                        </g>
                        <path fill="#FFF" d="M574.517 341.787c6.213 4.844 1.903 16.838-6.93 10.672 2.762-4.63-5.353-5.918-3.697 1.67.5 2.293 1.154 3.723 1.821 4.665l.155.21c.18.233.36.434.538.61l.152.143.076.067.15.127.147.116.144.108.142.099.274.178.553.34.16.108.051.036.096.073.089.077.082.08c.22.232.35.522.35.974 0 .853-.927 1.445-2.78 1.778l-.347.057c-.12.019-.242.036-.368.052l-.388.046-11.067-.15c-1.854-.332-2.78-.924-2.78-1.776 0-.452.13-.742.352-.975l.082-.08.089-.077.096-.073.155-.108.229-.144.38-.232.204-.132.212-.146.145-.108.147-.116.15-.127.151-.138c.203-.191.41-.416.615-.683l.155-.21c.668-.942 1.322-2.373 1.825-4.667 1.66-7.588-6.455-6.294-3.697-1.666-8.836 6.172-13.545-6.156-6.922-10.668 9.137-6.224 22.543-5.052 29.01-.01z" transform="translate(1157.19 9.21) rotate(35 559.92 350.815)"/>
                        <path fill="#FFF" d="M112.176 242.02c6.215 4.849 1.914 16.84-6.922 10.668 2.758-4.628-5.357-5.923-3.696 1.666.503 2.295 1.157 3.725 1.825 4.668l.155.21c.18.234.36.435.539.61l.152.143.075.068.15.127.147.116.145.108.142.099.274.178.553.341.16.108.051.036.096.073.09.077.081.08c.221.233.351.523.352.975 0 .852-.926 1.444-2.78 1.775l-.347.058c-.119.018-.241.035-.367.051l-.388.046-11.067-.16c-1.853-.332-2.78-.924-2.78-1.777 0-.452.13-.742.35-.975l.082-.08.09-.076.095-.074.156-.107.228-.144.38-.232.204-.132.212-.146.145-.107.147-.117.15-.126.15-.138c.203-.192.41-.416.615-.683l.155-.21c.667-.941 1.32-2.372 1.82-4.666 1.656-7.587-6.458-6.3-3.696-1.669-8.832 6.166-13.55-6.166-6.93-10.674 9.131-6.218 22.537-5.036 29.007.011z" transform="translate(1157.19 9.21) rotate(-42 97.584 251.04)"/>
                        <path fill="#FFF" d="M738.176 149.02c6.215 4.849 1.914 16.84-6.922 10.668 2.758-4.628-5.357-5.923-3.696 1.666.503 2.295 1.157 3.725 1.825 4.668l.155.21c.18.234.36.435.539.61l.152.143.075.068.15.127.147.116.145.108.142.099.274.178.553.341.16.108.051.036.096.073.09.077.081.08c.221.233.351.523.352.975 0 .852-.926 1.444-2.78 1.775l-.347.058c-.119.018-.241.035-.367.051l-.388.046-11.067-.16c-1.853-.332-2.78-.924-2.78-1.777 0-.452.13-.742.35-.975l.082-.08.09-.076.095-.074.156-.107.228-.144.38-.232.204-.132.212-.146.145-.107.147-.117.15-.126.15-.138c.203-.192.41-.416.615-.683l.155-.21c.667-.941 1.32-2.372 1.82-4.666 1.656-7.587-6.458-6.3-3.696-1.669-8.832 6.166-13.55-6.166-6.93-10.674 9.131-6.218 22.537-5.036 29.007.011z" transform="translate(1157.19 9.21) rotate(-42 723.584 158.04)"/>
                        <path fill="#FFF" d="M174.88 208.195c7.768-5.918 16.003-3.523 22.586 3.27l.53.561c1.052 1.14 2.06 2.392 3.014 3.741l.473.682c.39.576.77 1.167 1.14 1.773l.438.735c.145.247.288.497.43.749.14-.252.284-.502.428-.75l.44-.734c.37-.607.75-1.198 1.14-1.774l.473-.682c.16-.225.32-.448.482-.667l.49-.65.5-.633c6.876-8.535 16.059-12.19 24.662-5.639 17.797 13.554 8.724 33.324-27.22 59.31l-1.097.789c-37.258-26.353-46.894-46.38-28.908-60.081z" transform="translate(1157.19 9.21) rotate(26 203.522 236.548)"/>
                        <path fill="#FFF" d="M595.386 6.85c2.752-2.118 5.671-1.258 8.006 1.177l.188.2c.373.409.73.858 1.069 1.341l.168.245c.138.206.273.418.404.635l.156.263.152.269c.05-.09.1-.18.152-.268l.155-.264c.131-.217.266-.429.404-.635l.168-.244.17-.239.174-.233.177-.226c2.435-3.056 5.689-4.363 8.74-2.015 6.31 4.86 3.099 11.94-9.635 21.24l-.388.282c-13.211-9.448-16.631-16.624-10.26-21.528z" transform="translate(1157.19 9.21) rotate(-28 605.541 17.013)"/>
                        <path fill="#FFF" d="M869.013 411.406c7.365-5.684 15.177-3.376 21.426 3.158l.503.539c1 1.096 1.956 2.3 2.861 3.598l.449.656c.37.553.731 1.122 1.082 1.705l.417.707c.138.238.273.478.407.72.134-.242.27-.482.407-.72l.416-.706c.351-.583.712-1.152 1.082-1.705l.448-.655c.15-.217.303-.43.456-.641l.465-.625.473-.608c6.517-8.2 15.226-11.709 23.39-5.405 16.89 13.04 8.296 32.039-25.784 56.997l-1.04.758c-35.358-25.355-44.51-44.612-27.458-57.773z" transform="translate(1157.19 9.21) rotate(-28 896.191 438.68)"/>
                        <path fill="#FFF" d="M509.162 406.407c7.733-5.918 15.93-3.524 22.483 3.27l.528.56c1.048 1.14 2.05 2.393 3 3.742l.47.682c.389.575.767 1.167 1.135 1.773l.437.735c.144.247.287.497.427.749.14-.252.283-.502.427-.75l.438-.735c.368-.606.747-1.198 1.136-1.774l.47-.682c.159-.225.319-.447.48-.667l.488-.65.497-.633c6.846-8.537 15.988-12.193 24.551-5.64 17.717 13.553 8.683 33.326-27.1 59.316l-1.093.79c-37.088-26.353-46.68-46.382-28.774-60.086z" transform="translate(1157.19 9.21) rotate(35 537.674 434.761)"/>
                        <path fill="#FFF" d="M246.542 89.987c1.358-3.686 3.478-6.035 6.359-7.047.487 4.632 1.47 10.85 12.297 10.85s14.874-10.85 32.611 0c0-7.734-8.897-27-30.318-27-6.05 0-10.752 2.396-14.103 7.19 7.874-1.2 13.535-.149 16.985 3.156-11.98-1.995-20.502.978-25.564 8.92l1.733 3.93z" transform="translate(1157.19 9.21)"/>
                        <path fill="#FFF" d="M578.468 408.173c1.354-3.71 3.467-6.073 6.339-7.091.486 4.662 1.468 10.92 12.263 10.922 10.794.002 14.827-10.917 32.514.006-.002-7.784-8.877-27.18-30.234-27.183-6.032-.001-10.719 2.411-14.059 7.236 7.85-1.207 13.495-.147 16.934 3.18-11.944-2.011-20.44.98-25.485 8.973l1.728 3.957z" transform="translate(1157.19 9.21) rotate(166 603.162 398.419)"/>
                        <path fill="#FFF" d="M5.036 340.868c1.355-3.712 3.469-6.077 6.34-7.097.485 4.663 1.463 10.922 12.255 10.918 10.791-.004 14.83-10.928 32.506-.012.003-7.786-8.86-27.181-30.211-27.173-6.031.002-10.718 2.417-14.06 7.246 7.849-1.212 13.491-.156 16.928 3.17-11.94-2.004-20.435.993-25.484 8.99l1.726 3.958z" transform="translate(1157.19 9.21) rotate(-142 29.723 331.096)"/>
                        <path fill="#FFF" d="M795.336 368.01c2.104-5.734 5.385-9.388 9.843-10.964.751 7.205 2.27 16.874 19.02 16.868 16.752-.006 23.021-16.884 50.459-.019.004-12.03-13.752-41.993-46.895-41.98-9.362.003-16.637 3.734-21.825 11.194 12.183-1.873 20.942-.24 26.277 4.898-18.535-3.096-31.72 1.533-39.557 13.89l2.678 6.113z" transform="translate(1157.19 9.21) rotate(-142 833.658 352.914)"/>
                        <path fill="#FFF" d="M638.398 171.184c1.158 0 2.307.197 3.398.585l23.242 8.248c5.296 1.879 8.067 7.7 6.19 13.001l-.047.129-9.964 25.912c-4.118.11-7.422 3.486-7.422 7.635 0 2.173.906 4.134 2.36 5.525l-1.322 3.438c-1.672 4.347-6.458 6.614-10.876 5.151l-7.758-2.57c-4.76-1.576-7.974-6.03-7.974-11.05v-45.82c0-5.625 4.555-10.184 10.173-10.184zm-1.281 51.434c-2.094 0-3.79 1.696-3.79 3.788 0 2.092 1.696 3.787 3.79 3.787 2.093 0 3.79-1.695 3.79-3.787 0-2.092-1.697-3.788-3.79-3.788zm6.836-22.045c-3.14 0-5.686 2.543-5.686 5.68 0 3.138 2.545 5.682 5.686 5.682 3.14 0 5.685-2.544 5.685-5.681 0-3.138-2.545-5.681-5.685-5.681zm13.816-16.053c-3.14 0-5.686 2.543-5.686 5.68 0 3.139 2.545 5.682 5.686 5.682 3.14 0 5.685-2.543 5.685-5.681s-2.545-5.681-5.685-5.681zm-19.292-6.865c-2.093 0-3.79 1.696-3.79 3.788 0 2.091 1.697 3.787 3.79 3.787 2.094 0 3.79-1.696 3.79-3.787 0-2.092-1.696-3.788-3.79-3.788z" transform="translate(1157.19 9.21) rotate(39 650.02 206.218)"/>
                        <path fill="#FFF" d="M122.66 476.126l-.148-.055-2.366-.401-3.451-.568-3.332-.526-2.156-.327-2.102-.308-2.05-.29-1.998-.271-2.896-.372-1.866-.224-1.812-.206-1.76-.187-1.707-.168-.834-.078-1.628-.14-1.575-.122-1.522-.103-.741-.044-1.443-.075-1.39-.056-1.338-.038-1.285-.019c-.21-.002-.418-.002-.623-.002-1.565 0-3.224.044-4.977.134l-1.785.105c-2.724.18-5.661.461-8.81.844l-2.131.27c-.72.096-1.452.196-2.194.301l-2.257.33-1.152.177-2.35.376c-.398.065-.798.132-1.2.2l-2.445.42-1.247.222-2.54.466-2.602.496c-1.04.432-2.17.688-3.355.732l-.365.006c-5.364 0-9.715-4.357-9.716-9.73 0-2.906 1.27-5.513 3.287-7.295-2.017-1.783-3.29-4.392-3.29-7.297-.001-5.373 4.347-9.728 9.712-9.726.188 0 .376.005.562.016-.365-1.017-.563-2.115-.563-3.259-.001-5.373 4.347-9.727 9.712-9.726 1.81 0 3.503.496 4.954 1.36-.065-.443-.097-.897-.097-1.359-.002-5.373 4.347-9.727 9.711-9.726 3.498 0 6.565 1.853 8.276 4.631.861-4.484 4.801-7.87 9.533-7.87 4.167.001 7.722 2.63 9.102 6.323 1.77-1.893 4.291-3.077 7.088-3.076 5.365.001 9.715 4.358 9.717 9.73 0 .462-.032.916-.094 1.36 1.447-.864 3.141-1.359 4.95-1.359 5.365.002 9.715 4.358 9.717 9.73 0 1.145-.197 2.243-.559 3.263l.195-.013.364-.006c5.365 0 9.715 4.357 9.717 9.73 0 2.906-1.271 5.513-3.287 7.295 2.017 1.784 3.29 4.392 3.29 7.297.001 5.251-4.152 9.53-9.348 9.72l-.364.006c-1.097 0-2.152-.182-3.136-.518z" transform="translate(1157.19 9.21) rotate(-72 84.508 446.644)"/>
                        <path fill="#FFF" d="M768.989 317.31l-.13-.047-2.089-.355-3.045-.501-2.94-.465-1.902-.289-1.855-.272-1.809-.256-1.762-.24-2.556-.328-1.646-.198-1.6-.182-1.552-.165-1.506-.149-.736-.068-1.436-.124-1.39-.107-1.343-.091-.654-.04-1.273-.066-1.227-.05-1.18-.033-1.134-.017-.55-.002c-1.38 0-2.844.04-4.391.119l-1.575.093c-2.404.159-4.995.407-7.774.746l-1.88.238c-.636.084-1.281.173-1.936.266l-1.991.292c-.337.05-.675.103-1.016.156l-2.075.332c-.35.057-.703.116-1.058.176l-2.158.371-1.1.196-2.24.412-2.297.438c-.917.382-1.915.608-2.96.647l-.322.005c-4.734 0-8.572-3.849-8.573-8.595 0-2.566 1.121-4.87 2.9-6.444-1.78-1.575-2.903-3.88-2.903-6.446 0-4.746 3.836-8.592 8.57-8.591.166 0 .331.005.495.014-.322-.898-.496-1.868-.496-2.878-.001-4.746 3.835-8.593 8.569-8.592 1.597 0 3.091.439 4.371 1.201-.057-.39-.085-.792-.086-1.2 0-4.746 3.836-8.592 8.57-8.591 3.086 0 5.792 1.637 7.301 4.09.76-3.96 4.237-6.952 8.412-6.95 3.677 0 6.814 2.322 8.031 5.584 1.563-1.672 3.787-2.718 6.255-2.717 4.733.001 8.572 3.85 8.573 8.595 0 .408-.028.809-.083 1.201 1.277-.763 2.772-1.2 4.368-1.2 4.734.001 8.572 3.85 8.573 8.595 0 1.011-.173 1.98-.493 2.882l.173-.011.321-.006c4.734 0 8.572 3.85 8.573 8.595 0 2.567-1.121 4.87-2.9 6.444 1.78 1.575 2.903 3.88 2.903 6.446.001 4.638-3.663 8.417-8.248 8.585l-.321.006c-.968 0-1.9-.161-2.767-.458z" transform="translate(1157.19 9.21) rotate(-72 735.325 291.27)"/>
                        <path fill="#FFF" d="M573.25 264.487l-.086-.032-1.393-.234-2.03-.33-1.96-.307-1.268-.19-1.236-.18-1.206-.169-1.175-.158-1.704-.216-1.097-.13-1.067-.12-1.035-.11-1.004-.098-.49-.045-.958-.081-.926-.07-.896-.06-.436-.027-.849-.043-.818-.033-.787-.022-.755-.01-.367-.002c-.92 0-1.896.026-2.927.08l-1.05.06c-1.603.106-3.33.27-5.183.494l-1.254.158c-.424.056-.854.115-1.29.176l-1.328.193-.678.103-1.383.22-.705.116-1.439.246-.733.13-1.494.272-1.531.29c-.611.252-1.277.402-1.974.427l-.214.004c-3.156 0-5.715-2.541-5.715-5.676 0-1.695.749-3.216 1.935-4.256-1.186-1.04-1.935-2.562-1.935-4.257 0-3.135 2.559-5.676 5.715-5.676.11 0 .221.003.33.01-.214-.594-.33-1.234-.33-1.902 0-3.134 2.558-5.675 5.714-5.675 1.065 0 2.061.289 2.914.792-.038-.258-.057-.523-.057-.792 0-3.135 2.559-5.676 5.714-5.676 2.058 0 3.862 1.08 4.868 2.7.507-2.616 2.826-4.592 5.609-4.592 2.451 0 4.542 1.533 5.353 3.687 1.042-1.104 2.525-1.795 4.17-1.795 3.156 0 5.715 2.541 5.715 5.676 0 .269-.02.534-.056.793.852-.504 1.848-.793 2.913-.793 3.156 0 5.714 2.54 5.714 5.675 0 .668-.116 1.308-.329 1.903l.115-.007.214-.004c3.156 0 5.714 2.541 5.714 5.676 0 1.695-.748 3.217-1.934 4.257 1.186 1.04 1.934 2.561 1.934 4.256 0 3.064-2.443 5.56-5.5 5.672l-.214.004c-.645 0-1.266-.106-1.845-.302z" transform="translate(1157.19 9.21)"/>
                        <path fill="#FFF" d="M105.47 299.912c5.41 2.18 3.728 12.544 1.51 22.99l-.316 1.445c-2.685 12.498 5.107 20.554 1.508 23.933-3.598 3.38-17.036-7.37-17.036-23.928 0-14.093 8.926-26.619 14.335-24.44zm8.554.778c4.072-2.283 17.193 8.232 17.193 24.167 0 11.946-8.066 25.26-13.878 23.685-5.813-1.575-7.371-11.194-4.874-22.518l.326-1.433c2.322-10.51-2.84-21.618 1.233-23.901z" transform="translate(1157.19 9.21) rotate(19 111.176 324.283)"/>
                        <path fill="#FFF" d="M925.47 316.912c5.41 2.18 3.728 12.544 1.51 22.99l-.316 1.445c-2.685 12.498 5.107 20.554 1.508 23.933-3.598 3.38-17.036-7.37-17.036-23.928 0-14.093 8.926-26.619 14.335-24.44zm8.554.778c4.072-2.283 17.193 8.232 17.193 24.167 0 11.946-8.066 25.26-13.878 23.685-5.813-1.575-7.371-11.194-4.874-22.518l.326-1.433c2.322-10.51-2.84-21.618 1.233-23.901z" transform="translate(1157.19 9.21) rotate(19 931.176 341.283)"/>
                        <path fill="#FFF" d="M646.241 395.935c7.117 2.85 4.905 16.403 1.987 30.064l-.417 1.889c-3.532 16.343 6.72 26.879 1.985 31.298-4.735 4.419-22.416-9.638-22.416-31.292 0-18.428 11.744-34.809 18.861-31.959zm11.997 1.327c5.236-3 22.106 10.815 22.106 31.75 0 15.693-10.37 33.183-17.844 31.114-7.473-2.069-9.477-14.705-6.266-29.583l.419-1.882c2.985-13.808-3.65-28.4 1.585-31.4z" transform="translate(1157.19 9.21) rotate(19 653.862 427.952)"/>
                    </g>
                </g>
            </g>
        </g>
    </g>
</svg>
