<svg xmlns="http://www.w3.org/2000/svg" width="30" height="30">
  <defs>
    <linearGradient id="a" x1="50%" x2="50%" y1="0%" y2="100%">
      <stop offset="0%" stop-color="#80D40E"/>
      <stop offset="100%" stop-color="#3DC40D"/>
    </linearGradient>
  </defs>
  <path d="M17 190c8.284 0 15 6.716 15 15 0 8.284-6.716 15-15 15-8.284 0-15-6.716-15-15 0-8.284 6.716-15 15-15zm9.377 8.359a1.643 1.643 0 00-2.314.266l-7.365 9.305-3.938-3.619-.057-.05a1.643 1.643 0 00-2.27.153 1.655 1.655 0 00.102 2.335l5.241 4.817.054.047c.705.596 1.77.494 2.348-.238l8.465-10.694.044-.059a1.656 1.656 0 00-.31-2.263z" transform="translate(-2 -190)" fill="url(#a)" fill-rule="evenodd"/>
</svg>