<svg xmlns="http://www.w3.org/2000/svg" width="193" height="193" viewbox="0 0 193 193">
  <defs>
    <filter id="communication-mtc-a" width="133.1%" height="133.1%" x="-14.1%" y="-13.4%" filterUnits="objectBoundingBox">
      <feOffset dx="4" dy="5" in="SourceAlpha" result="shadowOffsetOuter1"/>
      <feGaussianBlur in="shadowOffsetOuter1" result="shadowBlurOuter1" stdDeviation="8"/>
      <feColorMatrix in="shadowBlurOuter1" values="0 0 0 0 0 0 0 0 0 0 0 0 0 0 0 0 0 0 0.195367133 0"/>
    </filter>
    <rect id="communication-mtc-b" width="160.073" height="160.073" x="0" y="0" rx="16.401"/>
  </defs>
  <g transform="translate(12 11)" fill="none" fill-rule="evenodd">
    <use fill="#000" filter="url(#communication-mtc-a)" xlink:href="#communication-mtc-b"/>
    <use fill="#FFF" xlink:href="#communication-mtc-b"/>
    <text fill="#000" font-family="Montserrat-Bold, Montserrat" font-size="14.433" font-weight="bold">
      <tspan x="10.497" y="22.856">MTC Cashback</tspan>
    </text>
    <circle cx="35.754" cy="126.615" r="25.257" fill="#C61F26"/>
    <g fill="#FFF" fill-rule="nonzero">
      <path d="M36.428 110c1.652 0 3.275.23 4.834.68a17.329 17.329 0 014.852 2.257 17.41 17.41 0 017.743 14.491c0 9.626-7.803 17.429-17.429 17.429-9.625 0-17.428-7.803-17.428-17.429a1.394 1.394 0 112.789 0c0 8.086 6.554 14.64 14.64 14.64 8.085 0 14.64-6.554 14.64-14.64 0-4.947-2.472-9.472-6.507-12.174a14.57 14.57 0 00-8.134-2.465 14.614 14.614 0 00-11.498 5.576h4.178c.747 0 1.357.588 1.393 1.325l.002.07c0 .747-.587 1.356-1.325 1.392l-.07.002h-7.32a1.394 1.394 0 01-1.392-1.325l-.002-.07v-7.319a1.395 1.395 0 012.787-.07l.002.07v3.66a17.396 17.396 0 0113.245-6.1z"/>
      <path d="M32.838 119.667l.024-.057.033-.066.05-.086.035-.054.063-.084.037-.044.065-.07.044-.042.088-.073.026-.02.051-.036.061-.039.08-.044.055-.026.045-.02.053-.02.072-.025.066-.018.063-.015.07-.012a1.44 1.44 0 01.21-.016h3.362l.054.005c3.313.26 5.216 2.086 5.216 5.16 0 2.998-1.8 4.882-4.99 5.381l-.237.035h-2.011v2.471h4.474a1.396 1.396 0 01.07 2.787l-.07.002h-4.474v2.204a1.394 1.394 0 01-2.787.07l-.002-.07v-2.204h-1.481a1.394 1.394 0 01-.07-2.787l.07-.001h1.481v-2.473h-1.481a1.394 1.394 0 01-.07-2.787l.07-.002h1.481v-6.397l.002-.071.009-.103a1.48 1.48 0 01.03-.164l.023-.08c.012-.037.025-.074.04-.11zm4.542 1.922h-1.857v5.003h1.81l.019-.002c1.846-.288 2.592-1.048 2.62-2.534l.001-.09c0-1.483-.663-2.176-2.429-2.362l-.164-.015z"/>
    </g>
  </g>
</svg>
