<?xml version="1.0" encoding="utf-8"?>
<!-- Generator: Adobe Illustrator 24.0.3, SVG Export Plug-In . SVG Version: 6.00 Build 0)  -->
<svg version="1.1" id="Layer_1" xmlns="http://www.w3.org/2000/svg" xmlns:xlink="http://www.w3.org/1999/xlink" x="0px" y="0px"
	 viewBox="0 0 416 416" style="enable-background:new 0 0 416 416;" xml:space="preserve">
<style type="text/css">
	.st0{fill-rule:evenodd;clip-rule:evenodd;fill:#EB2316;}
	.st1{fill-rule:evenodd;clip-rule:evenodd;fill:#FFFFFF;}
	.st2{fill-rule:evenodd;clip-rule:evenodd;fill:#008F32;}
</style>
<g>
	<rect class="st0" width="416" height="416"/>
	<g>
		<path class="st1" d="M208.6,37.2c-93.8,0-170,76.3-170,170s76.3,170,170,170c93.7,0,170-76.3,170-170S302.3,37.2,208.6,37.2"/>
		<path class="st2" d="M294.4,85.3c-13,33.3-42.5,40.2-85.3,40.2c-4.6,0-9.1-0.1-13.5-0.1c-4.2-0.1-8.3-0.1-12.2-0.1
			c-3.5,0-7,0-10.5,0.2c6-14.7,15.6-24.7,29.2-30.8c19-8.4,43.7-8.5,65.4-8.6C277,86,286.1,86,294.4,85.3"/>
		<path class="st0" d="M307.7,96c-19.2,41.8-62,46-98.6,46c-8.1,0-15.8-0.2-22.9-0.2l-9.2,36.1c47.3-38.6,109.9-0.3,103.2,57.9
			c-4.5,39.2-32.4,64.8-62,72.2c-32.2,8-67.9-4-83.9-36.8c-1.7-3.5-4.7-10.4-5.8-14.1l34-8.7c0.6,2,1.6,3.8,2.7,5.6
			c22.7,36.7,68.8,18.3,74-19.7c5.3-38.7-49-59.3-73.7-14.1l-30.1-12.8l-0.5-0.2l14.5-58.3c0.9-4.1,3.9-15.7,4.4-17.6
			c16.4-60.4,69.5-61.3,112.1-61.5c-17.6-7.3-36.9-11.4-57.2-11.4c-82.3,0-149,66.7-149,149s66.7,149,149,149s149-66.7,149-149
			C357.6,163,338.4,123.3,307.7,96"/>
	</g>
</g>
</svg>
