<svg xmlns="http://www.w3.org/2000/svg" width="101" height="68" viewbox="0 0 101 68">
  <defs>
    <linearGradient id="r-3-1-a" x1="50%" x2="50%" y1="0%" y2="100%">
      <stop offset="0%" stop-color="#F7594A"/>
      <stop offset="100%" stop-color="#ED2D24"/>
    </linearGradient>
  </defs>
  <g fill="none" fill-rule="evenodd">
    <path fill="url(#r-3-1-a)" d="M12.027 32h76c6.628 0 12 5.373 12 12v24h-100V44c0-6.627 5.373-12 12-12z"/>
    <text fill="#FFF" font-family="Montserrat-Medium, Montserrat" font-size="18" font-weight="400">
      <tspan class="lang-ru" x="33.809" y="56">нет</tspan>
	  <tspan class="lang-en" x="38.809" y="56">no</tspan>
    </text>
    <path fill="#F7594A" fill-rule="nonzero" d="M30.758 5.58a1.283 1.283 0 00-1.004-.482H5.516l-.36-3.956A1.27 1.27 0 003.886 0H1.3C.597 0 .027.562.027 1.255c0 .693.57 1.254 1.273 1.254h1.423L4.12 17.83v.054c.003.048.01.095.017.141l.052.56c0 .011.002.022.003.032a4.815 4.815 0 001.83 3.239 3.75 3.75 0 00-.82 2.34C5.2 26.294 6.932 28 9.06 28s3.86-1.706 3.86-3.804c0-.454-.082-.89-.231-1.294h6.968c-.149.404-.23.84-.23 1.294 0 2.098 1.731 3.804 3.86 3.804 2.128 0 3.86-1.706 3.86-3.804 0-2.097-1.732-3.803-3.86-3.803H9.068c-.967 0-1.81-.575-2.173-1.413l20.347-1.18a1.268 1.268 0 001.16-.948L30.99 6.657c.095-.375.01-.772-.231-1.077z"/>
  </g>
</svg>
