<svg xmlns="http://www.w3.org/2000/svg" width="416" height="416" viewBox="0 0 416 416">
    <defs>
        <linearGradient id="a" x1="-3.426%" x2="36.222%" y1="-4.992%" y2="37.291%">
            <stop offset="0%" stop-color="#FE8D31"/>
            <stop offset="100%" stop-color="#EE482A"/>
        </linearGradient>
    </defs>
    <g fill="none" fill-rule="evenodd">
        <path fill="url(#a)" d="M0 0h416v416H0z"/>
        <path fill="#FFF" d="M84.202 298.89l31.906 31.905 16.513-16.513c8.811-8.81 8.811-23.096 0-31.906-8.81-8.81-23.095-8.81-31.906 0l-16.513 16.513zm246.593-182.781L298.89 84.202l-16.513 16.514c-8.81 8.81-8.81 23.095 0 31.906 8.81 8.81 23.096 8.81 31.906 0l16.513-16.513zM116.108 84.202L84.202 116.11l16.513 16.513c8.81 8.81 23.095 8.81 31.906 0s8.811-23.096 0-31.906l-16.513-16.514zm182.78 246.593l31.907-31.906-16.513-16.513c-8.81-8.81-23.096-8.81-31.906 0-8.81 8.81-8.81 23.095 0 31.906l16.513 16.513zM230.06 291.49c0-12.46-10.1-22.56-22.56-22.56-12.461 0-22.56 10.1-22.56 22.56v23.353h45.12v-23.353zm0-191.333h-45.12v23.353c0 12.46 10.099 22.56 22.56 22.56 12.46 0 22.56-10.1 22.56-22.56v-23.353zM123.51 230.06c12.459 0 22.56-10.1 22.56-22.561 0-12.46-10.101-22.561-22.56-22.561h-23.354v45.122h23.353zm167.98 0c-12.46 0-22.561-10.1-22.561-22.561 0-12.46 10.1-22.561 22.561-22.561h23.354v45.122h-23.354z" opacity=".4"/>
        <path fill="#FFF" d="M100.733 230.545c12.451 0 22.544-10.093 22.544-22.545 0-12.45-10.093-22.545-22.544-22.545S78.188 195.55 78.188 208c0 12.452 10.094 22.545 22.545 22.545M84.79 299.326c-8.804 8.805-8.804 23.08 0 31.883 8.804 8.804 23.08 8.804 31.884 0 8.803-8.804 8.803-23.078 0-31.883-8.805-8.804-23.08-8.804-31.884 0M331.21 116.674c8.804-8.804 8.804-23.078 0-31.883-8.805-8.803-23.08-8.803-31.884 0-8.804 8.805-8.804 23.08 0 31.883 8.805 8.805 23.08 8.805 31.884 0M116.675 84.791c-8.805-8.803-23.08-8.803-31.884 0-8.804 8.805-8.804 23.08 0 31.883 8.804 8.805 23.08 8.805 31.884 0 8.803-8.804 8.803-23.078 0-31.883m182.65 246.418c8.805 8.804 23.08 8.804 31.884 0 8.804-8.804 8.804-23.078 0-31.883-8.805-8.804-23.08-8.804-31.884 0-8.804 8.805-8.804 23.08 0 31.883m15.942-100.664c12.45 0 22.545-10.093 22.545-22.545 0-12.45-10.094-22.545-22.545-22.545-12.451 0-22.545 10.094-22.545 22.545 0 12.452 10.094 22.545 22.545 22.545m-129.812 84.722c0 12.452 10.093 22.545 22.545 22.545 12.45 0 22.545-10.093 22.545-22.545 0-12.45-10.094-22.544-22.545-22.544-12.452 0-22.545 10.093-22.545 22.544m0-214.534c0 12.452 10.093 22.545 22.545 22.545 12.45 0 22.545-10.093 22.545-22.545 0-12.451-10.094-22.545-22.545-22.545-12.452 0-22.545 10.094-22.545 22.545m0 107.267c0-12.45 10.093-22.545 22.545-22.545 12.45 0 22.545 10.094 22.545 22.545 0 12.452-10.094 22.545-22.545 22.545-12.452 0-22.545-10.093-22.545-22.545"/>
    </g>
</svg>
