<svg xmlns="http://www.w3.org/2000/svg" width="300" height="300" viewBox="0 0 300 300">
    <defs>
        <linearGradient id="a" x1="-3.426%" x2="36.222%" y1="-4.992%" y2="37.291%">
            <stop offset="0%" stop-color="#FE8D31"/>
            <stop offset="100%" stop-color="#EE482A"/>
        </linearGradient>
    </defs>
    <g fill="none" fill-rule="evenodd">
        <path fill="url(#a)" d="M0 0h300v300H0z"/>
        <path fill="#FFF" d="M60.938 216.015l23.047 23.048 11.928-11.929c6.364-6.364 6.364-16.683 0-23.047-6.365-6.364-16.683-6.364-23.048 0l-11.927 11.928zm178.125-132.03l-23.048-23.047-11.928 11.928c-6.364 6.364-6.364 16.683 0 23.047 6.364 6.364 16.683 6.364 23.048 0l11.928-11.928zM83.984 60.938L60.938 83.984l11.927 11.928c6.365 6.364 16.683 6.364 23.048 0 6.364-6.364 6.364-16.683 0-23.047L83.985 60.938zm132.03 178.125l23.048-23.048-11.928-11.928c-6.365-6.364-16.684-6.364-23.048 0-6.364 6.364-6.364 16.683 0 23.047l11.928 11.929zm-49.719-28.393c0-9-7.296-16.297-16.296-16.297-9.001 0-16.297 7.297-16.297 16.297v16.869h32.593v-16.87zm0-138.208h-32.593V89.33c0 9 7.296 16.297 16.297 16.297 9 0 16.296-7.296 16.296-16.297V72.462zM89.33 166.297c9 0 16.296-7.296 16.296-16.297 0-9-7.296-16.297-16.296-16.297H72.46v32.594h16.87zm121.34 0c-9 0-16.297-7.296-16.297-16.297 0-9 7.296-16.297 16.297-16.297h16.87v32.594h-16.87z" opacity=".4"/>
        <path fill="#FFF" d="M72.532 166.282c8.992 0 16.282-7.29 16.282-16.282s-7.29-16.282-16.282-16.282S56.25 141.008 56.25 150c0 8.993 7.29 16.282 16.282 16.282m-11.513 49.674c-6.359 6.358-6.359 16.667 0 23.026 6.358 6.357 16.667 6.357 23.026 0 6.358-6.359 6.358-16.668 0-23.026-6.359-6.36-16.668-6.36-23.026 0M238.981 84.045c6.359-6.358 6.359-16.668 0-23.026-6.359-6.358-16.667-6.358-23.026 0-6.359 6.358-6.359 16.668 0 23.026 6.359 6.359 16.667 6.359 23.026 0M84.045 61.019c-6.359-6.358-16.668-6.358-23.026 0-6.359 6.358-6.359 16.668 0 23.026 6.358 6.359 16.667 6.359 23.026 0 6.358-6.358 6.358-16.668 0-23.026m131.91 177.963c6.359 6.357 16.667 6.357 23.026 0 6.359-6.359 6.359-16.668 0-23.026-6.359-6.36-16.667-6.36-23.026 0-6.359 6.358-6.359 16.667 0 23.026m11.513-72.7c8.992 0 16.282-7.29 16.282-16.282s-7.29-16.282-16.282-16.282-16.282 7.29-16.282 16.282c0 8.993 7.29 16.282 16.282 16.282m-93.75 61.186c0 8.993 7.29 16.282 16.282 16.282s16.282-7.29 16.282-16.282-7.29-16.281-16.282-16.281c-8.993 0-16.282 7.29-16.282 16.281m0-154.936c0 8.992 7.29 16.282 16.282 16.282s16.282-7.29 16.282-16.282S158.992 56.25 150 56.25c-8.993 0-16.282 7.29-16.282 16.282m0 77.468c0-8.992 7.29-16.282 16.282-16.282s16.282 7.29 16.282 16.282c0 8.993-7.29 16.282-16.282 16.282-8.993 0-16.282-7.29-16.282-16.282"/>
    </g>
</svg>
