<?xml version="1.0" encoding="UTF-8"?>
<svg width="76px" height="72px" viewBox="0 0 76 72" version="1.1" xmlns="http://www.w3.org/2000/svg" xmlns:xlink="http://www.w3.org/1999/xlink">
    <!-- Generator: sketchtool 52.5 (67469) - http://www.bohemiancoding.com/sketch -->
    <title>94047631-2768-4E6A-A6FC-75A11AB4DB8A</title>
    <desc>Created with sketchtool.</desc>
    <g id="АШАН" stroke="none" stroke-width="1" fill="none" fill-rule="evenodd">
        <g id="Auchan" transform="translate(-98.000000, -5668.000000)">
            <g id="Review-Copy" transform="translate(96.000000, 5475.000000)">
                <g id="Auchan_ava" transform="translate(2.000000, 193.000000)">
                    <g id="Group-2">
                        <ellipse id="Oval-5" fill="#E3000F" cx="38" cy="36" rx="38" ry="36"></ellipse>
                        <g id="lgAuchan-Copy" transform="translate(16.500000, 14.750000)" fill="#FFFFFF">
                            <path d="M33.7441281,9.47228098 C33.418624,9.79145367 33.418624,10.2930108 33.7441281,10.6121834 C34.0696323,10.9313561 34.5811388,10.9313561 34.9066429,10.6121834 C35.2321471,10.2930108 35.2321471,9.79145367 34.9066429,9.47228098 C34.5811388,9.17590634 34.0696323,9.17590634 33.7441281,9.47228098" id="Shape"></path>
                            <path d="M29.5506561,19.3598901 C29.7889746,19.0302198 30.027293,18.6785714 30.2417797,18.3269231 C30.1464523,18.282967 30.0511249,18.282967 29.9557975,18.3928571 C25.3800829,22.8543956 20.9711912,23.4038462 17.587069,23.4038462 L12.3917264,23.4038462 C12.2487353,23.4038462 12.1057442,23.228022 12.2249035,23.0741758 C16.2286537,17.9532967 20.6852091,13.9532967 23.9740039,11.3598901 L15.2753799,18.0631868 C14.6080881,18.5906593 13.7978054,18.9203297 12.6538767,18.9203297 L1.71505901,18.9203297 C1.40524501,18.9203297 1.50057239,19.1620879 1.57206793,19.293956 C2.33468703,21.4697802 4.38422586,23.4038462 7.98283473,23.4038462 L5.40899527,25.8214286 C5.31366788,25.9093407 5.31366788,26.1510989 5.55198635,26.1510989 L15.3230435,26.1510989 C22.3772702,26.1510989 26.6908345,23.3379121 29.5506561,19.3598901 L29.5506561,19.3598901 Z M26.5001797,29.293956 C27.2866307,29.1840659 28.0015861,29.0521978 28.5973822,28.9203297 L31.8385134,37.25 L29.5744879,37.25 L26.5001797,29.293956 Z M28.9310281,25.4038462 L24.5221364,25.4038462 C23.4020396,26.0192308 23.0445619,26.217033 21.4478282,26.7664835 C21.3286689,26.8104396 21.3048371,26.8983516 21.3525008,27.0521978 L25.3085874,37.228022 L27.5726128,37.228022 L23.9025084,27.9093407 C26.2618612,27.9093407 31.8861771,27.3379121 34.9366535,22.7884615 C34.0072115,24.1071429 31.7908497,25.4038462 28.9310281,25.4038462 Z M42.2768623,9.25 L38.6782534,9.25 L37.7964751,10.239011 C37.653484,10.3708791 37.7011477,10.5247253 37.8441388,10.5686813 L39.0357311,11.0521978 L42.3721897,9.62362637 C42.5866763,9.53571429 42.5151808,9.25 42.2768623,9.25 Z" id="Shape"></path>
                            <path d="M13.8456583,17.042475 L18.8322129,13.3446502 C19.8680672,10.7779248 20.9521008,8.14594356 22.1084034,5.94900059 C22.6865546,7.12360376 23.2165266,8.29820694 23.7705882,9.55981775 C26.5168067,7.53689006 28.1789916,6.31878307 30.4434174,5.75323339 C29.0462185,2.99074074 28.0585434,1.0765726 27.6008403,0.25 L16.5436975,0.25 C15.6042017,2.03365667 12.0871148,8.64623751 7.96778711,17.5862728 L11.9666667,17.5862728 C12.7134454,17.5645209 13.3397759,17.4557613 13.8456583,17.042475 Z M0.5,37.25 L10.3526611,37.25 L13.7011204,27.8314227 L4.08935574,27.8314227 C2.95714286,30.6374192 1.75266106,33.7261905 0.5,37.25 Z M30.2507003,28.3752205 L33.7436975,37.25 L43.5,37.25 C41.4764706,31.8120223 39.3084034,26.7003233 37.2848739,22.0236626 C35.5745098,25.1559377 33.9845938,26.7438272 30.2507003,28.3752205 Z M34.7795518,22.9589947 C37.8630252,18.4781011 38.9229692,11.3434744 38.9229692,11.3434744 L37.7184874,10.8649324 C37.5739496,10.8214286 37.5016807,10.6691652 37.6703081,10.5386537 L38.5616246,9.55981775 C37.9834734,8.58098178 36.0081232,6.97134039 33.1173669,6.97134039 C31.3829132,6.97134039 29.8893557,7.38462669 28.5403361,8.18944738 C28.5403361,8.18944738 26.564986,9.40755438 23.6983193,11.6480012 C20.3980392,14.2364785 15.8932773,18.1953263 11.8221289,23.2417695 C11.7016807,23.3940329 11.8462185,23.5680482 11.9907563,23.5680482 L17.2422969,23.5680482 C20.6630252,23.5680482 25.1196078,23.0024985 29.7448179,18.6086126 C29.8411765,18.5216049 29.937535,18.499853 30.0338936,18.5433568 C30.1302521,18.5868607 30.1543417,18.6956202 30.1061625,18.7826279 C29.3834734,20.3705173 27.5526611,23.611552 24.252381,25.5257202 L28.6848739,25.5257202 C31.5997199,25.5257202 33.840056,24.2641093 34.7795518,22.9589947 Z M32.4428571,12.3440623 C31.7442577,11.7132569 31.7442577,10.6691652 32.4428571,10.0383598 C33.1414566,9.40755438 34.2977591,9.40755438 34.9963585,10.0383598 C35.694958,10.6691652 35.694958,11.7132569 34.9963585,12.3440623 C34.2736695,12.9748677 33.1414566,12.9748677 32.4428571,12.3440623 Z" id="Shape"></path>
                        </g>
                    </g>
                </g>
            </g>
        </g>
    </g>
</svg>