<?xml version="1.0" encoding="utf-8"?>
<svg version="1.1" id="Слой_1" xmlns="http://www.w3.org/2000/svg" xmlns:xlink="http://www.w3.org/1999/xlink" x="0px" y="0px"
	 width="1371px" height="564.6px" viewBox="0 0 1371 564.6" style="enable-background:new 0 0 1371 564.6;" xml:space="preserve">
<style type="text/css">
	.st0{fill:#E3000F;}
</style>
<g id="АШАН">
	<g id="Auchan" transform="translate(-35.000000, -2486.000000)">
		<g id="Text-picture-quote-1" transform="translate(35.000000, 2175.000000)">
			<g id="Pattern_Auchan" transform="translate(0.000000, 311.000000)">
				<g id="Group" transform="translate(0.000000, 1.000000)">
					<g transform="translate(1.000000, 0.000000)">
						<path id="Shape" class="st0" d="M50.7,37.3l-3-3c-1.9-1.9-2.6-2.6-3.4-1.7l-2.6,2.6c-0.1,0.1-0.2,0.3-0.3,0.4
							c-0.2,0.1-0.3,0.3-0.5,0.4c0,0-2.2,2.2-1.3,5c-0.2,0.1-0.3,0.2-0.5,0.4L17.8,62.8l0,0l-5.1-5.1c-0.3-0.3-1.5-1.3-3.2,0.2
							c-0.3,0.3-4.6,5-4.6,5.1c-4,4.9-6.6,11.8-1.7,16.7c1.9,1.9,4.2,2.7,6.5,2.7c4,0,8-2.2,10.2-3.9c0.5-0.3,2.2-1.6,3.4-2.5
							c3.3-2.6,3.4-3,3.4-3.6c-0.1-0.5-0.3-0.9-0.6-1.2l-4-4.1l0,0l21.4-21.4c0.2-0.2,0.3-0.3,0.4-0.5c0.5,0.2,1,0.3,1.5,0.3l0,0
							c1.8,0,3.1-1.1,3.3-1.3c0.2-0.1,0.4-0.4,0.7-0.7c0.1,0,0.2-0.1,0.3-0.2l2.6-2.6c0.2-0.2,0.3-0.5,0.3-0.7
							C52.7,39.5,52.7,39.3,50.7,37.3z M24.4,72.3c-1.2,1.2-5.1,4.1-5.6,4.4l-0.1,0.1c-0.1,0-4.5,3.5-9,3.5c-1.8,0-3.6-0.6-5.1-2.1
							c-5.1-5.1,0.6-12.5,1.8-13.9c0.3-0.3,4.2-4.6,4.4-4.8s0.3-0.3,0.4-0.3l6.4,6.4c0.1,0.1,0.1,0.2,0.2,0.2l1.3,1.3
							c0.1,0.1,0.2,0.1,0.2,0.2L24.4,72.3z M42,44.3L20.7,65.7c0,0,0,0-0.1,0l-1.4-1.4c0,0,0,0,0-0.1l21.4-21.4l0,0
							c0.2,0.2,0.4,0.5,0.6,0.7C41.6,43.8,41.8,44.1,42,44.3C42.1,44.3,42.1,44.3,42,44.3z M47.4,42.7c-0.3,0.3-1.8,1.5-3.8,0.1l0,0
							l-1.3-1.3c0,0,0,0-0.1-0.1c-1.4-2-0.1-3.5,0.3-3.9c0.3,0.3,0.6,0.6,1,1.1l3,3c0.4,0.4,0.8,0.8,1.1,1.1
							C47.5,42.6,47.4,42.7,47.4,42.7z M49.1,41.1l-5.2-5.2l1.2-1.2c0.3,0.3,0.7,0.6,1.1,1.1l3,3c0.4,0.4,0.8,0.8,1.1,1.1L49.1,41.1
							z"/>
						<path id="Path" class="st0" d="M14.5,66.4c-0.4,0.4-0.4,1.1,0,1.5c1.7,1.6,3.6,3.4,4.4,4.3c-0.7,0.7-2.2,2-4.3,3.1
							c-0.5,0.3-0.7,0.9-0.4,1.4c0.2,0.3,0.5,0.6,0.9,0.6c0.2,0,0.3,0,0.5-0.1c1.2-0.6,5.9-3.5,5.6-5.1c0-0.5-0.1-0.6-5.3-5.6
							C15.5,66,14.9,66,14.5,66.4z"/>
					</g>
					<g id="Path_1_" transform="translate(0.000000, 218.000000)">
						<path class="st0" d="M28.5,37.4c-0.4-0.1-0.8-0.6-0.7-1.1c0-0.2,0.1-0.4,0.3-1.4c0.5-1.7,2.9-2.5,4.6-2c2.1,0.6,3.4,2.7,3,4.1
							c-0.2,0.6-0.3,0.9-0.3,1.1v0.1c-0.1,0.5-0.7,0.8-1.2,0.7c-0.5-0.1-0.8-0.7-0.7-1.2c0-0.1,0-0.1,0.1-0.2c0-0.2,0.1-0.4,0.3-1
							c0.1-0.3-0.5-1.4-1.6-1.6c-1.1-0.3-2.1,0.3-2.2,0.7c-0.2,0.6-0.3,1-0.3,1c0,0.5-0.5,0.9-1.1,0.9
							C28.6,37.4,28.5,37.4,28.5,37.4z"/>
						<path class="st0" d="M39.6,62.4L12,55c-2.9-0.8-4.6-2.7-5.3-5.7c-0.6-2.5-0.3-5.2,0-7.6c0.1-0.5,0.6-0.9,1.1-0.9
							c0.5,0.1,0.9,0.6,0.9,1.1c-0.3,2.2-0.5,4.8,0,7c0.5,2.3,1.8,3.6,3.9,4.2l27.6,7.4c2.1,0.6,3.9,0,5.5-1.7c1.5-1.7,2.6-4,3.5-6
							c0.2-0.5,0.8-0.7,1.3-0.5s0.7,0.8,0.5,1.3c-1,2.2-2.1,4.7-3.8,6.6C44.9,62.4,42.4,63.2,39.6,62.4z"/>
						<path class="st0" d="M53.3,53.9L4.4,40.8c-0.5-0.1-0.8-0.7-0.7-1.2c0.1-0.5,0.7-0.8,1.2-0.7L53.8,52c0.5,0.1,0.8,0.7,0.7,1.2
							C54.3,53.8,53.8,54.1,53.3,53.9z"/>
						<path class="st0" d="M50.3,52.1L50.3,52.1c-0.6-0.2-0.9-0.8-0.7-1.3c0-0.1,0.1-0.3-0.1-0.8c-1.7-3.5-13.2-8.7-16.6-9.8
							L28.4,39c-1.6-0.3-6.4-0.8-10.9-0.8c-7.8,0.1-8.4,1.7-8.5,1.9c-0.1,0.5-0.7,0.8-1.2,0.7S7,40.1,7.1,39.6
							c0.6-2.2,3.9-3.3,10.3-3.3c4.5,0,9.5,0.5,11.3,0.8c0,0,0,0,0.1,0l4.6,1.2c0,0,0,0,0.1,0c2,0.7,15.5,6.2,17.8,10.9
							c0.4,0.8,0.5,1.6,0.2,2.4C51.4,51.9,50.8,52.2,50.3,52.1z"/>
						<path class="st0" d="M36.5,73.8L9,66.4c-2.9-0.8-4.6-2.7-5.3-5.7c-0.6-2.5-0.3-5.2,0-7.6c0.1-0.5,0.6-0.9,1.1-0.9
							c0.5,0.1,0.9,0.6,0.9,1.1c-0.3,2.2-0.5,4.8,0,7c0.5,2.3,1.8,3.6,3.9,4.2l27.6,7.4c2.1,0.6,3.9,0,5.5-1.7c1.5-1.7,2.6-4,3.5-6
							c0.2-0.5,0.8-0.7,1.3-0.5c0.5,0.2,0.7,0.8,0.5,1.3c-1,2.2-2.1,4.7-3.8,6.6C41.9,73.8,39.4,74.6,36.5,73.8z"/>
						<path class="st0" d="M50.2,65.3L1.3,52.2c-0.5-0.1-0.8-0.7-0.7-1.2s0.7-0.8,1.2-0.7l48.9,13.1c0.5,0.1,0.8,0.7,0.7,1.2
							S50.7,65.4,50.2,65.3z"/>
					</g>
					<path id="Shape_1_" class="st0" d="M42,467.2c-7.1-8.5-18.6-11-28-5.9C4.9,466.1,0.4,477.4,3.2,488c-1.8,1.8-2.2,4.8-0.8,7.4
						l0.2,0.2l11.2,10.7c0.2,0.2,0.6,0.3,0.9,0.1l1-0.5l0.5,3.5c0.3,1.9,2.1,3.2,4,2.9c0.4-0.1,0.7-0.2,1-0.3c0.5-0.2,0.9-0.6,1.2-1
						c0.5-0.8,0.7-1.7,0.6-2.6l-1-5.8L43.7,491l4.3,4.1c1.1,1.1,2.7,1.3,4,0.6c0.3-0.2,0.6-0.4,0.9-0.7c0.6-0.7,0.9-1.5,0.9-2.5
						s-0.4-1.8-1.1-2.5l-2.6-2.4l1.4-0.7c0.3-0.2,0.5-0.5,0.4-0.8L49,470.9c0-0.1,0-0.2-0.1-0.3C47.5,467.9,44.5,466.5,42,467.2z
						 M14.7,462.7c8.7-4.6,19.2-2.5,25.8,5.2c-2.4,1.6-3.1,5.1-1.5,8l2.5,4.7c-2.9,0.3-10.5,1.4-15.1,3.8c-5.8,3.1-10,8.2-11.6,10.3
						l-2.5-4.6c-1.6-3-5-4.4-7.7-3.1C2.2,477.3,6.4,467.1,14.7,462.7z M21.4,508.6c0.1,0.5,0,1-0.3,1.4c-0.3,0.4-0.7,0.7-1.2,0.8
						c-1,0.2-2-0.6-2.2-1.6l-0.6-4.1l3.4-1.8L21.4,508.6z M51.4,491.2c0.4,0.4,0.6,0.8,0.6,1.3s-0.2,1-0.5,1.4
						c-0.7,0.8-1.9,0.8-2.6,0l-3.8-3.7l3.4-1.8L51.4,491.2z M50,485.8l-35.6,19L3.7,494.6c-1.1-2.3-0.5-5,1.4-6c2-1.1,4.6,0,5.8,2.3
						l3,5.8c0.1,0.2,0.4,0.4,0.6,0.4c0.3,0,0.5-0.1,0.7-0.3c0-0.1,4.8-7.1,11.8-10.9c5.4-2.9,15.6-3.8,15.7-3.8
						c0.3,0,0.5-0.2,0.6-0.4c0.1-0.2,0.1-0.5,0-0.8l-3.1-5.7c-1.2-2.3-0.6-5.1,1.4-6.1c1.9-1,4.5-0.1,5.8,2.2L50,485.8z"/>
				</g>
				<g id="Group_1_" transform="translate(88.000000, 110.000000)">
					<g id="Shape_2_" transform="translate(7.000000, 0.000000)">
						<path class="st0" d="M30.3,39.4c9.1,3.2,14.2,13.5,11.1,22.5c-3.2,9.3-13.5,14.5-22.7,11.2c-9.6-3.4-14.3-13.3-11-23
							C10.8,41.1,21.3,36.2,30.3,39.4z M38,64.4c1.4-1.4,1.8-3.2,2.1-4.8c-6.6-12.6-21.5-15-30.4-9.9c-0.4,1.4-0.8,3-1.2,4.9
							c1.3-0.2,2-0.4,2.8-0.5c3.1-0.5,6.1-0.4,8,2.5c1.9,2.9,1.1,5.7-0.4,8.5c-0.5,0.9-1.3,1.8-1.9,2.6c-0.4,0.5-0.9,1.1-1.4,1.8
							c2.4,1.9,5,2.8,7.7,2.8c0.3-2.8,0.2-5.3,0.9-7.6c1.5-5.4,6.7-6.8,11-3.1C36.1,62.2,36.9,63.3,38,64.4z M40.2,56.1
							c0.2-7.5-5.3-14-12.4-15.5c-6.1-1.3-13.4,1.5-15.2,5.8C23.6,43.7,32.7,46.8,40.2,56.1z M13.6,68c2.7-2,4.2-4.3,4.7-7.1
							c0.6-2.8-1-5-3.8-5.3c-2.1-0.2-4.1,0-6.1,1.2C8.7,61.2,10.3,64.9,13.6,68z M36.7,66.4c-1.2-2.2-2.5-3.7-4.4-4.7
							c-2.3-1.2-4.7-0.5-5.8,1.7c-1.4,2.7-1.8,5.6-0.7,8.8C30.3,71.7,33.8,69.8,36.7,66.4z"/>
						<path class="st0" d="M26.5,50.9c2.1,0.8,2.9,3.1,2,5.2c-0.8,1.9-3.1,2.8-5,2s-2.8-3-2.1-4.9C22.2,51,24.4,50.1,26.5,50.9z
							 M27,55.2c0.4-1.1-0.2-2.2-1.4-2.6c-1.1-0.4-2.3,0.2-2.6,1.2s0.4,2.3,1.4,2.7C25.4,56.8,26.7,56.2,27,55.2z"/>
						<path class="st0" d="M16.8,78.5C4.4,74.3-2.2,60.7,2,48.3s17.8-19,30.2-14.8s19,17.8,14.8,30.2S29.2,82.7,16.8,78.5z
							 M31.6,35.2c-11.5-3.9-24,2.2-27.9,13.7s2.2,24,13.7,27.9s24-2.2,27.9-13.7C49.3,51.6,43.1,39.1,31.6,35.2z"/>
					</g>
					<path id="Shape_3_" class="st0" d="M51.4,244.4l-16.5,4.5c-1.6-4.4-6.4-6.9-11-5.6c-4.6,1.2-7.5,5.8-6.7,10.4L1.3,258
						c-0.5,0.1-0.8,0.7-0.7,1.1l9.8,36.3c0.1,0.5,0.7,0.8,1.1,0.7l50.2-13.6c0.5-0.1,0.8-0.7,0.7-1.1l-9.8-36.3
						C52.5,244.5,51.9,244.2,51.4,244.4z M41.1,249.1l9.3,34.5l-29,7.8l-9.3-34.5L41.1,249.1z M24.4,245c3.6-1,7.3,0.9,8.7,4.3
						L19,253.1C18.5,249.5,20.7,246,24.4,245z M2.7,259.5l7.6-2.1l9.3,34.5L12,294L2.7,259.5z M60.4,281l-8.1,2.2L43,248.7l8.1-2.2
						L60.4,281z"/>
				</g>
				<g id="Group_2_" transform="translate(185.000000, 1.000000)">
					<path id="Shape_4_" class="st0" d="M27.5,512.1c-10,0.1-17.7-4.2-22.9-12.7c-0.5-0.8-1-1.6-1.4-2.5c-0.6-2.3-1.2-4.5-1.8-6.8
						c0-1,0-2,0-3c0.3-10,4.7-17.7,13.6-22.3c11.3-6,25.2-2.4,32.4,8.5c8.8,13.3,3.1,30.6-10.5,36.7c-0.2,0.1-0.4,0.3-0.5,0.5
						c-2.3,0.6-4.5,1.2-6.8,1.8C28.9,512.2,28.2,512.1,27.5,512.1z M19.4,493.1c-0.7-2.6-1.4-5.1-2.1-7.7c-2.6-0.7-5.3-1.3-8-2
						c-1.9,1.9-3.8,3.7-5.8,5.6c0.3,1.4,0.6,2.7,0.9,4c0.3,1.3,0.7,2.5,1,3.9c2.7,0.7,5.2,1.3,7.9,2C15.5,496.9,17.4,495,19.4,493.1
						z M35.4,488.8c-0.7-2.6-1.4-5.2-2.1-7.9c-2.6-0.6-5.2-1.3-7.9-2c-2,2-4,3.8-5.9,5.7c0.7,2.6,1.4,5.1,2.1,7.8
						c2.6,0.7,5.2,1.3,8,2C31.6,492.6,33.5,490.7,35.4,488.8z M14.2,467.8c-2.6,1.4-4.2,3.8-6.3,5.6c0.7,2.7,1.4,5.2,2.1,7.8
						c2.6,0.7,5.2,1.3,7.9,2c2-1.9,3.9-3.9,5.9-5.8c-0.7-2.6-1.4-5.1-2.1-7.7C19.2,469.1,16.8,468.5,14.2,467.8z M20.8,494.7
						c-1.9,1.8-3.8,3.7-5.7,5.6c0.7,2.5,1.3,5,2.1,7.7c2.6,0.8,5.3,1.6,8.1,2c2-1.9,3.9-3.7,5.8-5.6c-0.7-2.5-1.4-5.1-2.1-7.8
						C26.2,495.9,23.6,495.3,20.8,494.7z M26,476.8c2.6,0.7,5.3,1.4,8.1,2.1c2-1.9,3.9-3.8,6-5.8c-0.3-1.9-0.9-3.6-1.4-5.5
						c-2.9-1.9-6-2.9-9.6-3.4c-1.7,1.6-3.4,3.2-5.1,4.9C24.6,471.8,25.3,474.2,26,476.8z M45.2,492.3c-2.6-0.7-5.3-1.4-8-2.1
						c-2,2-4,3.8-6.1,5.9c0.3,1.2,0.6,2.4,1,3.7c0.3,1.3,0.7,2.5,1,3.9c2.3,0.6,4.5,1.2,6.6,1.7c2.5-1.2,5.3-4.4,6.9-7.7
						C46.2,496,45.7,494.3,45.2,492.3z M37.8,488.2c2.6,0.7,5.2,1.3,8,2c1.2-1.2,2.5-2.4,3.7-3.6c-0.2-3.8-1.1-7.3-2.9-10.7
						c-1.6-0.4-3.2-0.8-5-1.3c-1.9,1.8-3.9,3.7-5.9,5.7C36.4,483,37.1,485.6,37.8,488.2z M6.2,476.5c-1.5,2.9-2.3,5.7-2.5,8.9
						c1-0.4,1.5-1.2,2.1-1.7s1.2-1.2,1.9-1.8C7.2,480,6.7,478.4,6.2,476.5z M12.8,500.9c-1.6-0.4-3.3-0.8-5.3-1.3
						c1.8,2.9,3.9,4.9,6.8,6.7C13.7,504.3,13.2,502.7,12.8,500.9z M16.7,466.2c1.2,0.3,2,0.6,2.9,0.8c0.9,0.2,1.8,0.4,2.8,0.7
						c1.1-1,2.2-2.1,3.6-3.4C22.7,464.1,19.9,465.2,16.7,466.2z M32.6,505.9c-1.3,1.3-2.6,2.5-3.9,3.7c2.5,0,6.7-1.3,8.5-2.6
						C35.6,506.6,34.1,506.3,32.6,505.9z M41.3,469.4c0.3,1.3,0.6,2.1,0.8,3.1c0.7,0.2,1.5,0.4,2.3,0.6c0.1-0.1,0.1-0.2,0.2-0.2
						C43.6,471.9,42.7,470.8,41.3,469.4z M47.3,491.7c0.3,0.9,0.5,1.8,0.8,3.1c0.4-1.8,0.8-3.2,1.1-4.6c-0.1,0-0.2-0.1-0.3-0.1
						C48.4,490.7,47.8,491.2,47.3,491.7z"/>
					<g id="Shape_5_" transform="translate(10.000000, 0.000000)">
						<path class="st0" d="M1,52.5c3.2,12,22.3,26.8,23.1,27.4c0.2,0.2,0.6,0.2,0.8,0.2c0.3-0.1,0.5-0.3,0.6-0.6
							c0.4-0.9,9.5-23.2,6.3-35.3c-2.3-8.5-11.1-13.6-19.5-11.3C3.9,35.2-1.3,44,1,52.5z M2.9,52c-2-7.5,2.4-15.2,9.9-17.2
							c7.5-2,15.2,2.4,17.2,9.9c2.7,9.9-3.9,28.1-5.7,32.9C20.3,74.4,5.5,61.9,2.9,52z"/>
						<path class="st0" d="M9.9,49.2c0.9,3.5,4.5,5.6,8,4.6c3.5-0.9,5.6-4.5,4.6-8c-0.9-3.5-4.5-5.6-8-4.6
							C11,42.1,8.9,45.7,9.9,49.2z M11.7,48.7c-0.7-2.5,0.8-5,3.3-5.7s5,0.8,5.7,3.3s-0.8,5-3.3,5.7S12.4,51.2,11.7,48.7z"/>
					</g>
					<g id="Path_2_" transform="translate(0.000000, 212.000000)">
						<path class="st0" d="M48.4,77.1c-0.4-0.2-0.9-0.2-1.1,0.2c-4.5,6.7-15.5,9.4-26.2,6.6c-11.1-3-19-10.7-19.2-18.8
							c0-0.5-0.4-0.8-0.8-0.8c-0.5,0-0.8,0.4-0.8,0.8c0.2,8.8,8.6,17.1,20.4,20.3c11.3,3,23.1,0,28-7.3
							C48.9,77.9,48.8,77.4,48.4,77.1z"/>
						<path class="st0" d="M28.2,57c2.5,0.7,5.2,0,6.3-1.7c0.2-0.4,0.2-0.9-0.2-1.1s-0.9-0.2-1.1,0.2c-0.7,1.1-2.7,1.6-4.5,1.1
							c-1.9-0.5-3.3-1.8-3.4-3.2c0-0.5-0.4-0.8-0.8-0.8c-0.5,0-0.8,0.4-0.8,0.8C23.6,54.3,25.5,56.3,28.2,57z"/>
						<path class="st0" d="M13.5,61.6l-3.4,10.1c-0.1,0.4,0.1,0.9,0.5,1l0,0c0.4,0.1,0.8-0.1,1-0.5L15,62.1l0,0
							c0.4-1.5,2-2.5,3.6-2.1l17.2,4.6c1.6,0.4,2.6,2.1,2.1,3.7l0,0l-2.3,10.3c-0.1,0.5,0.2,0.9,0.6,1c0.5,0.1,0.9-0.2,1-0.6
							l2.3-10.3c0.7-2.5-0.8-5-3.3-5.7l-17.1-4.6C16.7,57.7,14.2,59.2,13.5,61.6z"/>
						<path class="st0" d="M52.6,69.6c1.4-12.1-6.4-14.2-6.5-14.3c-0.1,0-0.1,0-0.2,0c-0.1-0.1-0.2-0.3-0.3-0.4
							c-1.3-1.9-3.4-2.3-3.8-2.3l-16.9-4.5c0-2.7-0.8-12.2-12.1-15.3c-2.9-0.8-4.5,1.8-6.6,5c-0.9,1.5-2,3.2-3.3,4.9
							c-1,1.2-1.3,3-0.9,4.4c0.5,1.4,1.5,2.5,3.1,2.9c0.3,0.1,0.6,0.1,0.9-0.1l6.6-2.9L7,68c-0.1,0.4,0.1,0.9,0.6,1
							c0.4,0.1,0.9-0.1,1-0.6l6.1-22.6c0.1-0.3,0-0.6-0.3-0.8c-0.2-0.2-0.6-0.3-0.9-0.1l-7.9,3.6c-1.2-0.4-1.7-1.2-1.9-1.8
							c-0.3-1-0.1-2.1,0.6-2.9c1.4-1.8,2.5-3.5,3.5-5c2-3.2,3.1-4.8,4.7-4.3c11.8,3.2,11,13.8,10.9,14.3c0,0.4,0.2,0.8,0.6,0.9
							l17.6,4.7h0.1c0,0,1.7,0.2,2.7,1.6c0.6,0.9,0.8,2,0.7,3.4c0,0.1,0,0.1,0,0.2c-0.1,0.6-0.2,1.1-0.3,1.8l-4.2,15.8
							c-0.1,0.4,0.1,0.9,0.6,1c0.5,0.1,0.9-0.1,1-0.6l4.2-15.8c0.1-0.3,0.2-0.6,0.2-0.9c1,0.8,2.5,3,1.9,8.3c0,0.4,0.2,0.8,0.6,0.9
							h0.1c0.4,0,0.9-0.3,0.9-0.7c0.9-7.3-1.9-9.6-3.3-10.3c0-0.6,0-1.1-0.1-1.6c1.7,0.9,5.4,3.8,4.4,12.1c0,0.4,0.2,0.8,0.6,0.9
							h0.1C52.2,70.4,52.6,70,52.6,69.6z"/>
					</g>
				</g>
				<g id="Group_3_" transform="translate(275.000000, 109.000000)">
					<path id="Shape_6_" class="st0" d="M46.6,248c-3.4-2.2-6.9-2.9-10.1-2c-0.3,0.1-0.5,0.4-0.6,0.7l-1.2,20.2l-19.8,5.3
						c-0.4-1.3-1.3-3.7-3.2-5c-1.1-0.7-2.3-0.9-3.7-0.6c-0.8-1.7-2.7-2.6-4.5-2.1c-2,0.5-3.2,2.7-2.7,4.8c0.6,2.1,2.7,3.3,4.7,2.8
						c1.8-0.5,2.9-2.1,2.8-3.9c1-0.2,1.8-0.1,2.5,0.4c1.7,1.1,2.5,3.7,2.6,4.5c0,0.1,0,0.3,0.1,0.5c3.4,7.2,9.4,12.1,16.2,13.7
						c-2.3,1-3.6,3.6-2.9,6.1c0.7,2.8,3.6,4.4,6.3,3.7c2.7-0.7,4.3-3.6,3.6-6.3c-0.3-1.2-1.1-2.2-2-2.9c1.8,0,3.6-0.2,5.4-0.7
						c2.1-0.6,4-1.5,5.7-2.6c-0.6,1.1-0.8,2.6-0.5,3.9c0.7,2.8,3.6,4.4,6.3,3.7c2.7-0.7,4.3-3.6,3.6-6.3c-0.7-2.8-3.6-4.4-6.3-3.7
						h-0.1c4.9-4.7,7.9-11.9,7.5-19.7c0-0.1,0-0.2,0-0.3C55.4,256.9,51.3,251,46.6,248z M5.1,270.4c-1.2,0.3-2.5-0.4-2.8-1.7
						c-0.3-1.3,0.4-2.5,1.6-2.8c1.2-0.3,2.5,0.4,2.8,1.7C7.1,268.8,6.3,270.1,5.1,270.4z M32.7,295.4c-1.9,0.5-3.8-0.6-4.4-2.6
						c-0.5-1.9,0.6-3.9,2.5-4.4c1.9-0.5,3.8,0.6,4.4,2.6C35.7,292.9,34.6,294.9,32.7,295.4z M53.6,286c0.5,1.9-0.6,3.9-2.5,4.4
						c-1.9,0.5-3.8-0.6-4.4-2.6c-0.5-1.9,0.6-3.9,2.5-4.4C51.2,282.9,53.1,284.1,53.6,286z M37.4,247.3c3.3-0.7,6.3,0.7,8.3,2
						c4.2,2.7,7.8,7.7,8.9,12.2l-18.4,4.9L37.4,247.3z M39.6,285.4c-9.4,2.5-19.3-2.3-24.2-11.8l39.4-10.5
						C54.9,273.7,48.6,283,39.6,285.4z"/>
					<g transform="translate(3.000000, 0.000000)">
						<path id="Shape_7_" class="st0" d="M30.8,33.9c0.4,0,0.7,0.1,1,0.4c0.2,0.2,0.3,0.5,0.3,0.9c0,1.3,0.5,2.5,1.3,3.3
							c0.9,0.9,2.1,1.4,3.4,1.4c1,0,1.9-0.3,2.7-0.9c0.2-0.2,0.5-0.3,0.7-0.3c0.4,0,0.9,0.3,1.1,0.7c0.2,0.4,0.2,0.8,0,1.2
							c-0.8,1.5-0.8,3.2,0.1,4.6c0.9,1.4,2.4,2.3,4,2.3c0.2,0,0.4,0,0.6,0c0.1,0,0.1,0,0.2,0c0.7,0,1,0.5,1.2,0.9
							c0.1,0.3,0.2,0.9-0.5,1.4c-1.5,1-2.2,2.7-2,4.4c0.2,1.8,1.4,3.2,3.1,3.8c0.9,0.3,0.9,1.1,0.8,1.3c0,0.2-0.2,1-1.1,1.1
							c-1.8,0.2-3.2,1.3-3.9,3c-0.6,1.7-0.3,3.5,0.9,4.8c0.5,0.5,0.4,1,0.2,1.3c-0.2,0.4-0.6,0.8-1.1,0.8c-0.2,0-0.3,0-0.5-0.1
							c-0.6-0.2-1.1-0.3-1.7-0.3c-1.4,0-2.8,0.7-3.7,1.8c-0.9,1.2-1.2,2.6-0.8,4c0.1,0.4,0,0.8-0.2,1.1c-0.3,0.3-0.7,0.5-1.1,0.5
							c-0.3,0-0.7-0.2-0.9-0.5c-0.9-1-2.2-1.6-3.5-1.6c-2.2,0-4.1,1.5-4.6,3.6c-0.2,0.9-1,1-1.2,1c-0.2,0-1-0.1-1.2-1
							c-0.5-2.1-2.4-3.6-4.6-3.6c-1.4,0-2.6,0.6-3.5,1.6c-0.3,0.3-0.6,0.5-0.9,0.5c-0.4,0-0.8-0.2-1.1-0.5c-0.2-0.3-0.3-0.7-0.2-1.1
							c0.4-1.4,0.1-2.9-0.8-4c-0.9-1.2-2.3-1.8-3.7-1.8c-0.6,0-1.2,0.1-1.7,0.3c-0.2,0.1-0.3,0.1-0.5,0.1c-0.6,0-1-0.4-1.1-0.8
							c-0.1-0.3-0.2-0.8,0.2-1.3c1.2-1.3,1.5-3.1,0.9-4.8c-0.6-1.7-2.1-2.8-3.9-3c-0.9-0.1-1.1-0.9-1.1-1.1s0-1,0.8-1.3
							c1.7-0.6,2.8-2.1,3.1-3.8c0.2-1.8-0.6-3.5-2-4.4c-0.7-0.5-0.6-1.2-0.5-1.4C3.9,48,4.3,47.5,5,47.5c0.1,0,0.1,0,0.2,0
							c0.2,0,0.4,0,0.6,0c1.6,0,3.1-0.9,4-2.3s0.9-3.1,0.1-4.6c-0.2-0.4-0.2-0.8,0-1.2c0.2-0.4,0.7-0.7,1.1-0.7
							c0.3,0,0.5,0.1,0.7,0.3c0.8,0.6,1.7,0.9,2.7,0.9c1.2,0,2.5-0.5,3.4-1.4c0.9-0.9,1.3-2.1,1.3-3.3c0-0.4,0.1-0.7,0.3-0.9
							c0.3-0.3,0.6-0.4,1-0.4c0.3,0,0.8,0.1,1.1,0.7c0.8,1.6,2.4,2.6,4.2,2.6s3.4-1,4.2-2.6C30,34,30.4,33.9,30.8,33.9z M30.8,32.1
							c-1,0-2,0.5-2.6,1.6c-0.6,1.1-1.6,1.6-2.7,1.6c-1,0-2.1-0.5-2.7-1.6c-0.6-1.1-1.6-1.6-2.6-1.6c-1.5,0-3,1.1-3,3
							c0,1.8-1.4,3-3,3c-0.6,0-1.2-0.2-1.7-0.6c-0.6-0.4-1.2-0.6-1.7-0.6c-2,0-3.8,2.2-2.6,4.4c1.1,2-0.4,4.4-2.6,4.4
							c-0.1,0-0.3,0-0.4,0c-0.2,0-0.3,0-0.4,0c-2.8,0-4.1,3.8-1.6,5.5c2,1.4,1.6,4.4-0.6,5.3c-3,1.1-2.4,5.4,0.7,5.8
							c2.4,0.3,3.5,3.2,1.9,5c-1.8,2-0.2,5,2.2,5c0.4,0,0.7-0.1,1.1-0.2c0.4-0.1,0.7-0.2,1.1-0.2c1.9,0,3.4,1.8,2.9,3.7
							c-0.6,2.1,1.1,3.7,2.9,3.7c0.8,0,1.6-0.3,2.2-1c0.6-0.7,1.4-1,2.2-1c1.3,0,2.6,0.8,2.9,2.3s1.6,2.3,2.9,2.3
							c1.3,0,2.5-0.8,2.9-2.3c0.3-1.5,1.6-2.3,2.9-2.3c0.8,0,1.6,0.3,2.2,1c0.6,0.7,1.4,1,2.2,1c1.8,0,3.5-1.6,2.9-3.7
							c-0.5-2,1-3.7,2.9-3.7c0.4,0,0.7,0.1,1.1,0.2c0.4,0.2,0.8,0.2,1.1,0.2c2.4,0,4-3,2.2-5c-1.6-1.8-0.5-4.7,1.9-5
							c3.1-0.3,3.7-4.7,0.7-5.8c-2.3-0.8-2.7-3.9-0.6-5.3c2.5-1.7,1.2-5.5-1.6-5.5c-0.1,0-0.3,0-0.4,0s-0.3,0-0.4,0
							c-2.2,0-3.7-2.4-2.6-4.4c1.2-2.2-0.6-4.4-2.6-4.4c-0.6,0-1.2,0.2-1.7,0.6c-0.5,0.4-1.1,0.6-1.7,0.6c-1.5,0-3-1.2-3-3
							C33.8,33.3,32.3,32.1,30.8,32.1z"/>
						<g transform="translate(16.000000, 16.000000)">
							<path id="Shape_8_" class="st0" d="M5,40.6c-2.3,0-4.2-1.9-4.2-4.2c0-2.3,1.9-4.2,4.2-4.2s4.2,1.9,4.2,4.2
								C9.2,38.7,7.3,40.6,5,40.6z M5,34c-1.4,0-2.5,1.1-2.5,2.5C2.5,37.9,3.6,39,5,39s2.5-1.1,2.5-2.5C7.5,35.1,6.3,34,5,34z"/>
							<path id="Shape_9_" class="st0" d="M15.4,49.9c-2.3,0-4.2-1.9-4.2-4.2c0-2.3,1.9-4.2,4.2-4.2c2.3,0,4.2,1.9,4.2,4.2
								C19.6,48,17.7,49.9,15.4,49.9z M15.4,43.3c-1.4,0-2.5,1.1-2.5,2.5c0,1.4,1.1,2.5,2.5,2.5c1.4,0,2.5-1.1,2.5-2.5
								S16.8,43.3,15.4,43.3z"/>
							<path id="Path_3_" class="st0" d="M2.8,49.5c-0.2,0-0.4-0.1-0.6-0.3c-0.3-0.3-0.3-0.9,0-1.2l14.6-14.6c0.3-0.3,0.9-0.3,1.2,0
								c0.3,0.3,0.3,0.9,0,1.2L3.4,49.2C3.3,49.4,3,49.5,2.8,49.5z"/>
						</g>
					</g>
				</g>
				<g id="Group_4_" transform="translate(372.000000, 1.000000)">
					<g transform="translate(1.000000, 0.000000)">
						<path id="Shape_10_" class="st0" d="M50.7,37.9l-3-3c-1.9-1.9-2.6-2.6-3.4-1.7l-2.6,2.6c-0.1,0.1-0.2,0.3-0.3,0.4
							c-0.2,0.1-0.3,0.3-0.5,0.4c0,0-2.2,2.2-1.3,5c-0.2,0.1-0.3,0.2-0.5,0.4L17.7,63.4l0,0l-5.1-5.1c-0.3-0.3-1.5-1.3-3.2,0.2
							c-0.3,0.3-4.6,5-4.6,5.1c-4,4.9-6.6,11.8-1.7,16.7C5,82.2,7.3,83,9.6,83c4,0,8-2.2,10.2-3.9c0.5-0.3,2.2-1.6,3.4-2.5
							c3.3-2.6,3.4-3,3.4-3.6c-0.1-0.5-0.3-0.9-0.6-1.2l-3.9-3.9l0,0l21.4-21.4c0.2-0.2,0.3-0.3,0.4-0.5c0.5,0.2,1,0.3,1.5,0.3l0,0
							c1.8,0,3.1-1.1,3.3-1.3c0.2-0.1,0.4-0.4,0.7-0.7c0.1,0,0.2-0.1,0.3-0.2l2.6-2.6c0.2-0.2,0.3-0.5,0.3-0.7
							C52.7,40.2,52.7,39.9,50.7,37.9z M24.4,72.9c-1.2,1.2-5.1,4.1-5.6,4.4l-0.1,0.1c-0.1,0-4.5,3.5-9,3.5c-1.8,0-3.6-0.6-5.1-2.1
							c-5.1-5.1,0.6-12.5,1.8-13.9c0.3-0.3,4.2-4.6,4.4-4.8s0.3-0.3,0.4-0.3l6.4,6.4c0.1,0.1,0.1,0.2,0.2,0.2l1.3,1.3
							c0.1,0.1,0.2,0.1,0.2,0.2L24.4,72.9z M42,44.9L20.6,66.3c0,0,0,0-0.1,0l-1.4-1.4c0,0,0,0,0-0.1l21.4-21.4l0,0
							c0.2,0.2,0.4,0.5,0.6,0.7C41.6,44.5,41.8,44.7,42,44.9C42.1,44.9,42.1,44.9,42,44.9z M47.4,43.3c-0.3,0.3-1.8,1.5-3.8,0.1l0,0
							l-1.3-1.3c0,0,0,0-0.1-0.1c-1.4-2-0.1-3.5,0.3-3.9c0.3,0.3,0.6,0.6,1,1.1l3,3c0.4,0.4,0.8,0.8,1.1,1.1
							C47.5,43.2,47.4,43.3,47.4,43.3z M49.1,41.7l-5.2-5.2l1.2-1.2c0.3,0.3,0.7,0.6,1.1,1.1l3,3c0.4,0.4,0.8,0.8,1.1,1.1L49.1,41.7
							z"/>
						<path id="Path_4_" class="st0" d="M14.5,67c-0.4,0.4-0.4,1.1,0,1.5c1.7,1.6,3.6,3.4,4.4,4.3c-0.7,0.7-2.2,2-4.3,3.1
							c-0.5,0.3-0.7,0.9-0.4,1.4c0.2,0.3,0.5,0.6,0.9,0.6c0.2,0,0.3,0,0.5-0.1c1.2-0.6,5.9-3.5,5.6-5.1c0-0.5-0.1-0.6-5.3-5.6
							C15.5,66.6,14.9,66.6,14.5,67z"/>
					</g>
					<g id="Path_5_" transform="translate(0.000000, 219.000000)">
						<path class="st0" d="M28.5,37c-0.4-0.1-0.8-0.6-0.7-1.1c0-0.2,0.1-0.4,0.3-1.4c0.5-1.7,2.9-2.5,4.6-2c2.1,0.6,3.4,2.7,3,4.1
							c-0.2,0.6-0.3,0.9-0.3,1.1v0.1c-0.1,0.5-0.7,0.8-1.2,0.7c-0.5-0.1-0.8-0.7-0.7-1.2c0-0.1,0-0.1,0.1-0.2c0-0.2,0.1-0.4,0.3-1
							c0.1-0.3-0.5-1.4-1.6-1.6c-1.1-0.3-2.1,0.3-2.2,0.7c-0.2,0.6-0.3,1-0.3,1c0,0.5-0.5,0.9-1.1,0.9C28.6,37,28.5,37,28.5,37z"/>
						<path class="st0" d="M39.6,62L12,54.6c-2.9-0.8-4.6-2.7-5.3-5.7c-0.6-2.5-0.3-5.2,0-7.6c0.1-0.5,0.6-0.9,1.1-0.9
							c0.5,0.1,0.9,0.6,0.9,1.1c-0.3,2.2-0.5,4.8,0,7c0.5,2.3,1.8,3.6,3.9,4.2l27.6,7.4c2.1,0.6,3.9,0,5.5-1.7c1.5-1.7,2.6-4,3.5-6
							c0.2-0.5,0.8-0.7,1.3-0.5s0.7,0.8,0.5,1.3c-1,2.2-2.1,4.7-3.8,6.6C44.9,62,42.4,62.8,39.6,62z"/>
						<path class="st0" d="M53.3,53.6L4.4,40.5c-0.5-0.1-0.8-0.7-0.7-1.2c0.1-0.5,0.7-0.8,1.2-0.7l48.9,13.1
							c0.5,0.1,0.8,0.7,0.7,1.2C54.3,53.4,53.8,53.7,53.3,53.6z"/>
						<path class="st0" d="M50.3,51.7L50.3,51.7c-0.6-0.2-0.9-0.8-0.7-1.3c0-0.1,0.1-0.3-0.1-0.8c-1.7-3.5-13.2-8.7-16.6-9.8
							l-4.5-1.2c-1.6-0.3-6.4-0.8-10.9-0.8c-7.8,0.1-8.4,1.7-8.5,1.9c-0.1,0.5-0.7,0.8-1.2,0.7c-0.5-0.1-0.8-0.7-0.7-1.2
							c0.6-2.2,3.9-3.3,10.3-3.3c4.5,0,9.5,0.5,11.3,0.8c0,0,0,0,0.1,0l4.6,1.2c0,0,0,0,0.1,0c2,0.7,15.5,6.2,17.8,10.9
							c0.4,0.8,0.5,1.6,0.2,2.4C51.4,51.6,50.8,51.8,50.3,51.7z"/>
						<path class="st0" d="M36.5,73.4L8.9,66c-2.9-0.8-4.6-2.7-5.3-5.7c-0.6-2.5-0.3-5.2,0-7.6c0.1-0.5,0.6-0.9,1.1-0.9
							c0.5,0.1,0.9,0.6,0.9,1.1c-0.3,2.2-0.5,4.8,0,7c0.5,2.3,1.8,3.6,3.9,4.2l27.6,7.4c2.1,0.6,3.9,0,5.5-1.7c1.5-1.7,2.6-4,3.5-6
							c0.2-0.5,0.8-0.7,1.3-0.5s0.7,0.8,0.5,1.3c-1,2.2-2.1,4.7-3.8,6.6C41.9,73.4,39.4,74.2,36.5,73.4z"/>
						<path class="st0" d="M50.2,64.9L1.3,51.8c-0.5-0.1-0.8-0.7-0.7-1.2s0.7-0.8,1.2-0.7L50.7,63c0.5,0.1,0.8,0.7,0.7,1.2
							C51.3,64.7,50.7,65,50.2,64.9z"/>
					</g>
					<path id="Shape_11_" class="st0" d="M42,467.8c-7.1-8.5-18.6-11-28-5.9C4.9,466.7,0.4,478,3.2,488.6c-1.8,1.8-2.2,4.8-0.8,7.4
						l0.2,0.2l11.2,10.7c0.2,0.2,0.6,0.3,0.9,0.1l1-0.5l0.5,3.5c0.3,1.9,2.1,3.2,4,2.9c0.4-0.1,0.7-0.2,1-0.3c0.5-0.2,0.9-0.6,1.2-1
						c0.5-0.8,0.7-1.7,0.6-2.6l-1-5.8l21.7-11.6l4.3,4.1c1.1,1.1,2.7,1.3,4,0.6c0.3-0.2,0.6-0.4,0.9-0.7c0.6-0.7,0.9-1.5,0.9-2.5
						c0-0.9-0.4-1.8-1.1-2.5l-2.6-2.4l1.4-0.7c0.3-0.2,0.5-0.5,0.4-0.8l-2.6-15.3c0-0.1,0-0.2-0.1-0.3
						C47.5,468.5,44.5,467.1,42,467.8z M14.7,463.3c8.7-4.6,19.2-2.5,25.8,5.2c-2.4,1.6-3.1,5.1-1.5,8l2.5,4.7
						c-2.9,0.3-10.5,1.4-15.1,3.8c-5.8,3.1-10,8.2-11.6,10.3l-2.5-4.6c-1.6-3-5-4.4-7.7-3.1C2.2,477.9,6.4,467.7,14.7,463.3z
						 M21.4,509.2c0.1,0.5,0,1-0.3,1.4c-0.3,0.4-0.7,0.7-1.2,0.8c-1,0.2-2-0.6-2.2-1.6l-0.6-4.1l3.4-1.8L21.4,509.2z M51.4,491.8
						c0.4,0.4,0.6,0.8,0.6,1.3s-0.2,1-0.5,1.4c-0.7,0.8-1.9,0.8-2.6,0l-3.8-3.7l3.4-1.8L51.4,491.8z M50,486.4l-35.6,19L3.7,495.2
						c-1.1-2.3-0.5-5,1.4-6c2-1.1,4.6,0,5.8,2.3l3,5.8c0.1,0.2,0.4,0.4,0.6,0.4c0.3,0,0.5-0.1,0.7-0.3c0-0.1,4.8-7.1,11.8-10.9
						c5.4-2.9,15.6-3.8,15.7-3.8c0.3,0,0.5-0.2,0.6-0.4c0.1-0.2,0.1-0.5,0-0.8l-3.1-5.7c-1.2-2.3-0.6-5.1,1.4-6.1
						c1.9-1,4.5-0.1,5.8,2.2L50,486.4z"/>
				</g>
				<g id="Group_5_" transform="translate(460.000000, 110.000000)">
					<g id="Shape_12_" transform="translate(7.000000, 0.000000)">
						<path class="st0" d="M30.3,40c9.1,3.2,14.2,13.5,11.1,22.5C38.2,71.8,27.9,77,18.7,73.7c-9.6-3.4-14.3-13.3-11-23
							C10.8,41.7,21.3,36.8,30.3,40z M38,65c1.4-1.4,1.8-3.2,2.1-4.8c-6.6-12.6-21.5-15-30.4-9.9c-0.4,1.4-0.8,3-1.2,4.9
							c1.3-0.2,2-0.4,2.8-0.5c3.1-0.5,6.1-0.4,8,2.5c1.9,2.9,1.1,5.7-0.4,8.5c-0.5,0.9-1.3,1.8-1.9,2.6c-0.4,0.5-0.9,1.1-1.4,1.8
							c2.4,1.9,5,2.8,7.7,2.8c0.3-2.8,0.2-5.3,0.9-7.6c1.5-5.4,6.7-6.8,11-3.1C36.1,62.8,36.9,63.9,38,65z M40.2,56.7
							c0.2-7.5-5.3-14-12.4-15.5c-6.1-1.3-13.4,1.5-15.2,5.8C23.6,44.3,32.7,47.4,40.2,56.7z M13.6,68.6c2.7-2,4.2-4.3,4.7-7.1
							c0.6-2.8-1-5-3.8-5.3c-2.1-0.2-4.1,0-6.1,1.2C8.7,61.8,10.3,65.5,13.6,68.6z M36.7,67c-1.2-2.2-2.5-3.7-4.4-4.7
							c-2.3-1.2-4.7-0.5-5.8,1.7c-1.4,2.7-1.8,5.6-0.7,8.8C30.3,72.3,33.8,70.4,36.7,67z"/>
						<path class="st0" d="M26.5,51.5c2.1,0.8,2.9,3.1,2,5.2c-0.8,1.9-3.1,2.8-5,2s-2.8-3-2.1-4.9C22.2,51.6,24.4,50.7,26.5,51.5z
							 M27,55.8c0.4-1.1-0.2-2.2-1.4-2.6c-1.1-0.4-2.3,0.2-2.6,1.2s0.4,2.3,1.4,2.7C25.4,57.4,26.7,56.8,27,55.8z"/>
						<path class="st0" d="M16.8,79.1C4.4,74.9-2.2,61.3,2,48.9s17.8-19,30.2-14.8s19,17.8,14.8,30.2S29.2,83.3,16.8,79.1z
							 M31.6,35.8C20.1,31.9,7.6,38,3.7,49.5s2.2,24,13.7,27.9c11.5,3.9,24-2.2,27.9-13.7C49.3,52.2,43.1,39.7,31.6,35.8z"/>
					</g>
					<path id="Shape_13_" class="st0" d="M51.4,245l-16.5,4.5c-1.6-4.4-6.4-6.9-11-5.6c-4.6,1.2-7.5,5.8-6.7,10.4l-15.9,4.3
						c-0.5,0.1-0.8,0.7-0.7,1.1l9.8,36.3c0.1,0.5,0.7,0.8,1.1,0.7l50.2-13.6c0.5-0.1,0.8-0.7,0.7-1.1l-9.8-36.3
						C52.5,245.2,51.9,244.9,51.4,245z M41.1,249.7l9.3,34.5l-29,7.8l-9.3-34.5L41.1,249.7z M24.4,245.6c3.6-1,7.3,0.9,8.7,4.3
						L19,253.7C18.5,250.2,20.7,246.6,24.4,245.6z M2.7,260.1l7.6-2.1l9.3,34.5l-7.6,2.1L2.7,260.1z M60.4,281.6l-8.1,2.2L43,249.3
						l8.1-2.2L60.4,281.6z"/>
				</g>
				<g id="Group_6_" transform="translate(557.000000, 1.000000)">
					<path id="Shape_14_" class="st0" d="M27.5,512.7c-10,0.1-17.7-4.2-22.9-12.7c-0.5-0.8-1-1.6-1.4-2.5c-0.6-2.3-1.2-4.5-1.8-6.8
						c0-1,0-2,0-3c0.3-10,4.7-17.7,13.6-22.3c11.3-6,25.2-2.4,32.4,8.5c8.8,13.3,3.1,30.6-10.5,36.7c-0.2,0.1-0.4,0.3-0.5,0.5
						c-2.3,0.6-4.5,1.2-6.8,1.8C28.9,512.8,28.2,512.7,27.5,512.7z M19.4,493.7c-0.7-2.6-1.4-5.1-2.1-7.7c-2.6-0.7-5.3-1.3-8-2
						c-1.9,1.9-3.8,3.7-5.8,5.6c0.3,1.4,0.6,2.7,0.9,4s0.7,2.5,1,3.9c2.7,0.7,5.2,1.3,7.9,2C15.5,497.5,17.4,495.6,19.4,493.7z
						 M35.4,489.5c-0.7-2.6-1.4-5.2-2.1-7.9c-2.6-0.6-5.2-1.3-7.9-2c-2,2-4,3.8-5.9,5.7c0.7,2.6,1.4,5.1,2.1,7.8
						c2.6,0.7,5.2,1.3,8,2C31.6,493.2,33.5,491.3,35.4,489.5z M14.2,468.4c-2.6,1.4-4.2,3.8-6.3,5.6c0.7,2.7,1.4,5.2,2.1,7.8
						c2.6,0.7,5.2,1.3,7.9,2c2-1.9,3.9-3.9,5.9-5.8c-0.7-2.6-1.4-5.1-2.1-7.7C19.2,469.7,16.8,469.1,14.2,468.4z M20.8,495.3
						c-1.9,1.8-3.8,3.7-5.7,5.6c0.7,2.5,1.3,5,2.1,7.7c2.6,0.8,5.3,1.6,8.1,2c2-1.9,3.9-3.7,5.8-5.6c-0.7-2.5-1.4-5.1-2.1-7.8
						C26.2,496.6,23.6,495.9,20.8,495.3z M26,477.4c2.6,0.7,5.3,1.4,8.1,2.1c2-1.9,3.9-3.8,6-5.8c-0.3-1.9-0.9-3.6-1.4-5.5
						c-2.9-1.9-6-2.9-9.6-3.4c-1.7,1.6-3.4,3.2-5.1,4.9C24.6,472.4,25.3,474.8,26,477.4z M45.2,493c-2.6-0.7-5.3-1.4-8-2.1
						c-2,2-4,3.8-6.1,5.9c0.3,1.2,0.6,2.4,1,3.7c0.4,1.3,0.7,2.5,1,3.9c2.3,0.6,4.5,1.2,6.6,1.7c2.5-1.2,5.3-4.4,6.9-7.7
						C46.2,496.6,45.7,494.9,45.2,493z M37.8,488.8c2.6,0.7,5.2,1.3,8,2c1.2-1.2,2.5-2.4,3.7-3.6c-0.2-3.8-1.1-7.3-2.9-10.7
						c-1.6-0.4-3.2-0.8-5-1.3c-1.9,1.8-3.9,3.7-5.9,5.7C36.4,483.6,37.1,486.2,37.8,488.8z M6.2,477.1c-1.5,2.9-2.3,5.7-2.5,8.9
						c1-0.4,1.5-1.2,2.1-1.7c0.6-0.5,1.2-1.2,1.9-1.8C7.2,480.7,6.7,479,6.2,477.1z M12.8,501.5c-1.6-0.4-3.3-0.8-5.3-1.3
						c1.8,2.9,3.9,4.9,6.8,6.7C13.7,504.9,13.2,503.3,12.8,501.5z M16.7,466.8c1.2,0.3,2,0.6,2.9,0.8c0.9,0.2,1.8,0.4,2.8,0.7
						c1.1-1,2.2-2.1,3.6-3.4C22.7,464.7,19.9,465.8,16.7,466.8z M32.6,506.5c-1.3,1.3-2.6,2.5-3.9,3.7c2.5,0,6.7-1.3,8.5-2.6
						C35.6,507.3,34.1,506.9,32.6,506.5z M41.3,470c0.3,1.3,0.6,2.1,0.8,3.1c0.7,0.2,1.5,0.4,2.3,0.6c0.1-0.1,0.1-0.2,0.2-0.2
						C43.6,472.5,42.7,471.4,41.3,470z M47.3,492.4c0.3,0.9,0.5,1.8,0.8,3.1c0.4-1.8,0.8-3.2,1.1-4.6c-0.1,0-0.2-0.1-0.3-0.1
						C48.4,491.3,47.8,491.8,47.3,492.4z"/>
					<g id="Shape_15_" transform="translate(10.000000, 0.000000)">
						<path class="st0" d="M1,53.2c3.2,12,22.3,26.8,23.1,27.4c0.2,0.2,0.6,0.2,0.8,0.2c0.3-0.1,0.5-0.3,0.6-0.6
							c0.4-0.9,9.5-23.2,6.3-35.3c-2.3-8.5-11.1-13.6-19.5-11.3C3.8,35.9-1.3,44.6,1,53.2z M2.9,52.6c-2-7.5,2.4-15.2,9.9-17.2
							S28,37.8,30,45.3c2.7,9.9-3.9,28.1-5.7,32.9C20.3,75,5.5,62.6,2.9,52.6z"/>
						<path class="st0" d="M9.9,49.9c0.9,3.5,4.5,5.6,8,4.6c3.5-0.9,5.6-4.5,4.6-8c-0.9-3.5-4.5-5.6-8-4.6
							C11,42.8,8.9,46.4,9.9,49.9z M11.7,49.3c-0.7-2.5,0.8-5,3.3-5.7c2.5-0.7,5,0.8,5.7,3.3s-0.8,5-3.3,5.7
							C14.9,53.3,12.4,51.8,11.7,49.3z"/>
					</g>
					<g id="Path_6_" transform="translate(0.000000, 213.000000)">
						<path class="st0" d="M48.4,76.7c-0.4-0.2-0.9-0.2-1.1,0.2c-4.5,6.7-15.5,9.4-26.2,6.6c-11.1-3-19-10.7-19.2-18.8
							c0-0.5-0.4-0.8-0.8-0.8c-0.5,0-0.8,0.4-0.8,0.8C0.5,73.5,8.9,81.8,20.7,85c11.3,3,23.1,0,28-7.3C48.9,77.5,48.8,77,48.4,76.7z
							"/>
						<path class="st0" d="M28.2,56.6c2.5,0.7,5.2,0,6.3-1.7c0.2-0.4,0.2-0.9-0.2-1.1c-0.4-0.2-0.9-0.2-1.1,0.2
							c-0.7,1.1-2.7,1.6-4.5,1.1c-1.9-0.5-3.3-1.8-3.4-3.2c0-0.5-0.4-0.8-0.8-0.8c-0.5,0-0.8,0.4-0.8,0.8
							C23.6,53.9,25.5,55.9,28.2,56.6z"/>
						<path class="st0" d="M13.5,61.2l-3.4,10.1c-0.1,0.4,0.1,0.9,0.5,1l0,0c0.4,0.1,0.8-0.1,1-0.5L15,61.7l0,0
							c0.4-1.5,2-2.5,3.6-2.1l17.2,4.6c1.6,0.4,2.6,2.1,2.1,3.7l0,0l-2.3,10.3c-0.1,0.5,0.2,0.9,0.6,1c0.5,0.1,0.9-0.2,1-0.6
							l2.3-10.3c0.7-2.5-0.8-5-3.3-5.7L19.1,58C16.7,57.3,14.2,58.8,13.5,61.2z"/>
						<path class="st0" d="M52.6,69.2C54,57.1,46.2,55,46.1,54.9c-0.1,0-0.1,0-0.2,0c-0.1-0.1-0.2-0.3-0.3-0.4
							c-1.3-1.9-3.4-2.3-3.8-2.3l-16.9-4.5c0-2.7-0.8-12.2-12.1-15.3c-2.9-0.8-4.5,1.8-6.6,5c-0.9,1.5-2,3.2-3.3,4.9
							c-1,1.2-1.3,3-0.9,4.4c0.5,1.4,1.5,2.5,3.1,2.9c0.3,0.1,0.6,0.1,0.9-0.1l6.6-2.9L7,67.6c-0.1,0.4,0.1,0.9,0.6,1
							c0.4,0.1,0.9-0.1,1-0.6l6.1-22.6c0.1-0.3,0-0.6-0.3-0.8c-0.2-0.2-0.6-0.3-0.9-0.1l-7.9,3.6c-1.2-0.4-1.7-1.2-1.9-1.8
							c-0.3-1-0.1-2.1,0.6-2.9c1.4-1.8,2.5-3.5,3.5-5c2-3.2,3.1-4.8,4.7-4.3c11.8,3.2,11,13.8,10.9,14.3c0,0.4,0.2,0.8,0.6,0.9
							L41.6,54h0.1c0,0,1.7,0.2,2.7,1.6c0.6,0.9,0.8,2,0.7,3.4c0,0.1,0,0.1,0,0.2c-0.1,0.6-0.2,1.1-0.3,1.8l-4.2,15.8
							c-0.1,0.4,0.1,0.9,0.6,1c0.4,0.1,0.9-0.1,1-0.6l4.2-15.8c0.1-0.3,0.2-0.6,0.2-0.9c1,0.8,2.5,3,1.9,8.3c0,0.4,0.2,0.8,0.6,0.9
							h0.1c0.4,0,0.9-0.3,0.9-0.7c0.9-7.3-1.9-9.6-3.3-10.3c0-0.6,0-1.1-0.1-1.6c1.7,0.9,5.4,3.8,4.4,12.1c0,0.4,0.2,0.8,0.6,0.9
							h0.1C52.2,70,52.6,69.7,52.6,69.2z"/>
					</g>
				</g>
				<g id="Group_7_" transform="translate(1039.000000, 0.000000)">
					<g transform="translate(1.000000, 0.000000)">
						<path id="Shape_16_" class="st0" d="M50.7,37.9l-3-3c-1.9-1.9-2.6-2.6-3.4-1.7l-2.6,2.6c-0.1,0.1-0.2,0.3-0.3,0.4
							c-0.2,0.1-0.3,0.3-0.5,0.4c0,0-2.2,2.2-1.3,5c-0.2,0.1-0.3,0.2-0.5,0.4L17.7,63.4l0,0l-5.1-5.1c-0.3-0.3-1.5-1.3-3.2,0.2
							c-0.3,0.3-4.6,5-4.6,5.1c-4,4.9-6.6,11.8-1.7,16.7C5,82.2,7.3,83,9.6,83c4,0,8-2.2,10.2-3.9c0.5-0.3,2.2-1.6,3.4-2.5
							c3.3-2.6,3.4-3,3.4-3.6c-0.1-0.5-0.3-0.9-0.6-1.2l-3.9-3.9l0,0l21.4-21.4c0.2-0.2,0.3-0.3,0.4-0.5c0.5,0.2,1,0.3,1.5,0.3l0,0
							c1.8,0,3.1-1.1,3.3-1.3c0.2-0.1,0.4-0.4,0.7-0.7c0.1,0,0.2-0.1,0.3-0.2l2.6-2.6c0.2-0.2,0.3-0.5,0.3-0.7
							C52.7,40.2,52.7,39.9,50.7,37.9z M24.4,72.9c-1.2,1.2-5.1,4.1-5.6,4.4l-0.1,0.1c-0.1,0-4.5,3.5-9,3.5c-1.8,0-3.6-0.6-5.1-2.1
							c-5.1-5.1,0.6-12.5,1.8-13.9c0.3-0.3,4.2-4.6,4.4-4.8s0.3-0.3,0.4-0.3l6.4,6.4c0.1,0.1,0.1,0.2,0.2,0.2l1.3,1.3
							c0.1,0.1,0.2,0.1,0.2,0.2L24.4,72.9z M42,44.9L20.6,66.3c0,0,0,0-0.1,0l-1.4-1.4c0,0,0,0,0-0.1l21.4-21.4l0,0
							c0.2,0.2,0.4,0.5,0.6,0.7C41.6,44.5,41.8,44.7,42,44.9C42.1,44.9,42.1,44.9,42,44.9z M47.4,43.3c-0.3,0.3-1.8,1.5-3.8,0.1l0,0
							l-1.3-1.3c0,0,0,0-0.1-0.1c-1.4-2-0.1-3.5,0.3-3.9c0.3,0.3,0.6,0.6,1,1.1l3,3c0.4,0.4,0.8,0.8,1.1,1.1
							C47.5,43.2,47.4,43.3,47.4,43.3z M49.1,41.7l-5.2-5.2l1.2-1.2c0.3,0.3,0.7,0.6,1.1,1.1l3,3c0.4,0.4,0.8,0.8,1.1,1.1L49.1,41.7
							z"/>
						<path id="Path_7_" class="st0" d="M14.5,67c-0.4,0.4-0.4,1.1,0,1.5c1.7,1.6,3.6,3.4,4.4,4.3c-0.7,0.7-2.2,2-4.3,3.1
							c-0.5,0.3-0.7,0.9-0.4,1.4c0.2,0.3,0.5,0.6,0.9,0.6c0.2,0,0.3,0,0.5-0.1c1.2-0.6,5.9-3.5,5.6-5.1c0-0.5-0.1-0.6-5.3-5.6
							C15.5,66.6,14.9,66.6,14.5,67z"/>
					</g>
					<g id="Path_8_" transform="translate(0.000000, 219.000000)">
						<path class="st0" d="M28.5,37c-0.4-0.1-0.8-0.6-0.7-1.1c0-0.2,0.1-0.4,0.3-1.4c0.5-1.7,2.9-2.5,4.6-2c2.1,0.6,3.4,2.7,3,4.1
							c-0.2,0.6-0.3,0.9-0.3,1.1v0.1c-0.1,0.5-0.7,0.8-1.2,0.7c-0.5-0.1-0.8-0.7-0.7-1.2c0-0.1,0-0.1,0.1-0.2c0-0.2,0.1-0.4,0.3-1
							c0.1-0.3-0.5-1.4-1.6-1.6c-1.1-0.3-2.1,0.3-2.2,0.7c-0.2,0.6-0.3,1-0.3,1c0,0.5-0.5,0.9-1.1,0.9C28.6,37,28.5,37,28.5,37z"/>
						<path class="st0" d="M39.6,62L12,54.6c-2.9-0.8-4.6-2.7-5.3-5.7c-0.6-2.5-0.3-5.2,0-7.6c0.1-0.5,0.6-0.9,1.1-0.9
							c0.5,0.1,0.9,0.6,0.9,1.1c-0.3,2.2-0.5,4.8,0,7c0.5,2.3,1.8,3.6,3.9,4.2l27.6,7.4c2.1,0.6,3.9,0,5.5-1.7c1.5-1.7,2.6-4,3.5-6
							c0.2-0.5,0.8-0.7,1.3-0.5s0.7,0.8,0.5,1.3c-1,2.2-2.2,4.7-3.8,6.6C44.9,62,42.4,62.8,39.6,62z"/>
						<path class="st0" d="M53.3,53.6L4.4,40.5c-0.5-0.1-0.8-0.7-0.7-1.2c0.1-0.5,0.7-0.8,1.2-0.7l48.9,13.1
							c0.5,0.1,0.8,0.7,0.7,1.2C54.3,53.4,53.8,53.7,53.3,53.6z"/>
						<path class="st0" d="M50.3,51.7L50.3,51.7c-0.6-0.2-0.9-0.8-0.7-1.3c0-0.1,0.1-0.3-0.1-0.8c-1.7-3.5-13.2-8.7-16.6-9.8
							l-4.5-1.2c-1.6-0.3-6.4-0.8-10.9-0.8c-7.8,0.1-8.4,1.7-8.5,1.9c-0.1,0.5-0.7,0.8-1.2,0.7c-0.5-0.1-0.8-0.7-0.7-1.2
							c0.6-2.2,3.9-3.3,10.3-3.3c4.5,0,9.5,0.5,11.3,0.8c0,0,0,0,0.1,0l4.6,1.2c0,0,0,0,0.1,0c2,0.7,15.5,6.2,17.8,10.9
							c0.4,0.8,0.5,1.6,0.2,2.4C51.4,51.6,50.8,51.8,50.3,51.7z"/>
						<path class="st0" d="M36.5,73.4L8.9,66c-2.9-0.8-4.6-2.7-5.3-5.7c-0.6-2.5-0.3-5.2,0-7.6c0.1-0.5,0.6-0.9,1.1-0.9
							c0.5,0.1,0.9,0.6,0.9,1.1c-0.3,2.2-0.5,4.8,0,7c0.5,2.3,1.8,3.6,3.9,4.2l27.6,7.4c2.1,0.6,3.9,0,5.5-1.7c1.5-1.7,2.6-4,3.5-6
							c0.2-0.5,0.8-0.7,1.3-0.5s0.7,0.8,0.5,1.3c-1,2.2-2.1,4.7-3.8,6.6C41.9,73.4,39.4,74.2,36.5,73.4z"/>
						<path class="st0" d="M50.2,64.9L1.3,51.8c-0.5-0.1-0.8-0.7-0.7-1.2s0.7-0.8,1.2-0.7L50.7,63c0.5,0.1,0.8,0.7,0.7,1.2
							C51.3,64.7,50.7,65,50.2,64.9z"/>
					</g>
					<path id="Shape_17_" class="st0" d="M42,467.8c-7.1-8.5-18.6-11-28-5.9C4.9,466.7,0.4,478,3.2,488.6c-1.8,1.8-2.2,4.8-0.8,7.4
						l0.2,0.2l11.2,10.7c0.2,0.2,0.6,0.3,0.9,0.1l1-0.5l0.5,3.5c0.3,1.9,2.1,3.2,4,2.9c0.4-0.1,0.7-0.2,1-0.3c0.5-0.2,0.9-0.6,1.2-1
						c0.5-0.8,0.7-1.7,0.6-2.6l-1-5.8l21.7-11.6l4.3,4.1c1.1,1.1,2.7,1.3,4,0.6c0.3-0.2,0.6-0.4,0.9-0.7c0.6-0.7,0.9-1.5,0.9-2.5
						c0-0.9-0.4-1.8-1.1-2.5l-2.6-2.4l1.4-0.7c0.3-0.2,0.5-0.5,0.4-0.8l-2.6-15.3c0-0.1,0-0.2-0.1-0.3
						C47.5,468.5,44.5,467.1,42,467.8z M14.7,463.3c8.7-4.6,19.2-2.5,25.8,5.2c-2.4,1.6-3.1,5.1-1.5,8l2.5,4.7
						c-2.9,0.3-10.5,1.4-15.1,3.8c-5.8,3.1-10,8.2-11.6,10.3l-2.5-4.6c-1.6-3-5-4.4-7.7-3.1C2.2,477.9,6.4,467.7,14.7,463.3z
						 M21.4,509.2c0.1,0.5,0,1-0.3,1.4c-0.3,0.4-0.7,0.7-1.2,0.8c-1,0.2-2-0.6-2.2-1.6l-0.6-4.1l3.4-1.8L21.4,509.2z M51.4,491.8
						c0.4,0.4,0.6,0.8,0.6,1.3s-0.2,1-0.5,1.4c-0.7,0.8-1.9,0.8-2.6,0l-3.8-3.7l3.4-1.8L51.4,491.8z M50,486.4l-35.6,19L3.7,495.2
						c-1.1-2.3-0.5-5,1.4-6c2-1.1,4.6,0,5.8,2.3l3,5.8c0.1,0.2,0.4,0.4,0.6,0.4c0.3,0,0.5-0.1,0.7-0.3c0-0.1,4.8-7.1,11.8-10.9
						c5.4-2.9,15.6-3.8,15.7-3.8c0.3,0,0.5-0.2,0.6-0.4c0.1-0.2,0.1-0.5,0-0.8l-3.1-5.7c-1.2-2.3-0.6-5.1,1.4-6.1
						c1.9-1,4.5-0.1,5.8,2.2L50,486.4z"/>
				</g>
				<g id="Group_8_" transform="translate(1127.000000, 109.000000)">
					<g id="Shape_18_" transform="translate(7.000000, 0.000000)">
						<path class="st0" d="M30.3,40c9.1,3.2,14.2,13.5,11.1,22.5C38.2,71.8,27.9,77,18.7,73.7c-9.6-3.4-14.3-13.3-11-23
							C10.8,41.7,21.3,36.8,30.3,40z M38,65c1.4-1.4,1.8-3.2,2.1-4.8c-6.6-12.6-21.5-15-30.4-9.9c-0.4,1.4-0.8,3-1.2,4.9
							c1.3-0.2,2-0.4,2.8-0.5c3.1-0.5,6.1-0.4,8,2.5c1.9,2.9,1.1,5.7-0.4,8.5c-0.5,0.9-1.3,1.8-1.9,2.6c-0.4,0.5-0.9,1.1-1.4,1.8
							c2.4,1.9,5,2.8,7.7,2.8c0.3-2.8,0.2-5.3,0.9-7.6c1.5-5.4,6.7-6.8,11-3.1C36.1,62.8,36.9,63.9,38,65z M40.2,56.7
							c0.2-7.5-5.3-14-12.4-15.5c-6.1-1.3-13.4,1.5-15.2,5.8C23.6,44.3,32.7,47.4,40.2,56.7z M13.6,68.6c2.7-2,4.2-4.3,4.7-7.1
							c0.6-2.8-1-5-3.8-5.3c-2.1-0.2-4.1,0-6.1,1.2C8.7,61.8,10.3,65.5,13.6,68.6z M36.7,67c-1.2-2.2-2.5-3.7-4.4-4.7
							c-2.3-1.2-4.7-0.5-5.8,1.7c-1.4,2.7-1.8,5.6-0.7,8.8C30.3,72.3,33.8,70.4,36.7,67z"/>
						<path class="st0" d="M26.5,51.5c2.1,0.8,2.9,3.1,2,5.2c-0.8,1.9-3.1,2.8-5,2s-2.8-3-2.1-4.9C22.2,51.6,24.4,50.7,26.5,51.5z
							 M27,55.8c0.4-1.1-0.2-2.2-1.4-2.6c-1.1-0.4-2.3,0.2-2.6,1.2s0.4,2.3,1.4,2.7C25.4,57.4,26.7,56.8,27,55.8z"/>
						<path class="st0" d="M16.8,79.1C4.4,74.9-2.2,61.3,2,48.9s17.8-19,30.2-14.8s19,17.8,14.8,30.2S29.2,83.3,16.8,79.1z
							 M31.6,35.8C20.1,31.9,7.6,38,3.7,49.5s2.2,24,13.7,27.9c11.5,3.9,24-2.2,27.9-13.7C49.3,52.2,43.1,39.7,31.6,35.8z"/>
					</g>
					<path id="Shape_19_" class="st0" d="M51.4,245l-16.5,4.5c-1.6-4.4-6.4-6.9-11-5.6c-4.6,1.2-7.5,5.8-6.7,10.4l-15.9,4.3
						c-0.5,0.1-0.8,0.7-0.7,1.1l9.8,36.3c0.1,0.5,0.7,0.8,1.1,0.7l50.2-13.6c0.5-0.1,0.8-0.7,0.7-1.1l-9.8-36.3
						C52.5,245.2,51.9,244.9,51.4,245z M41.1,249.7l9.3,34.5l-29,7.8l-9.3-34.5L41.1,249.7z M24.4,245.6c3.6-1,7.3,0.9,8.7,4.3
						L19,253.7C18.5,250.2,20.7,246.6,24.4,245.6z M2.7,260.1l7.6-2.1l9.3,34.5l-7.6,2.1L2.7,260.1z M60.4,281.6l-8.1,2.2L43,249.3
						l8.1-2.2L60.4,281.6z"/>
				</g>
				<g id="Group_9_" transform="translate(1224.000000, 0.000000)">
					<path id="Shape_20_" class="st0" d="M27.5,512.7c-10,0.1-17.7-4.2-22.9-12.7c-0.5-0.8-1-1.6-1.4-2.5c-0.6-2.3-1.2-4.5-1.8-6.8
						c0-1,0-2,0-3c0.3-10,4.7-17.7,13.6-22.3c11.3-6,25.2-2.4,32.4,8.5c8.8,13.3,3.1,30.6-10.5,36.7c-0.2,0.1-0.4,0.3-0.5,0.5
						c-2.3,0.6-4.5,1.2-6.8,1.8C28.9,512.8,28.2,512.7,27.5,512.7z M19.4,493.7c-0.7-2.6-1.4-5.1-2.1-7.7c-2.6-0.7-5.3-1.3-8-2
						c-1.9,1.9-3.8,3.7-5.8,5.6c0.3,1.4,0.6,2.7,0.9,4s0.7,2.5,1,3.9c2.7,0.7,5.2,1.3,7.9,2C15.5,497.5,17.4,495.6,19.4,493.7z
						 M35.4,489.5c-0.7-2.6-1.4-5.2-2.1-7.9c-2.6-0.6-5.2-1.3-7.9-2c-2,2-4,3.8-5.9,5.7c0.7,2.6,1.4,5.1,2.1,7.8
						c2.6,0.7,5.2,1.3,8,2C31.6,493.2,33.5,491.3,35.4,489.5z M14.2,468.4c-2.6,1.4-4.2,3.8-6.3,5.6c0.7,2.7,1.4,5.2,2.1,7.8
						c2.6,0.7,5.2,1.3,7.9,2c2-1.9,3.9-3.9,5.9-5.8c-0.7-2.6-1.4-5.1-2.1-7.7C19.2,469.7,16.8,469.1,14.2,468.4z M20.8,495.3
						c-1.9,1.8-3.8,3.7-5.7,5.6c0.7,2.5,1.3,5,2.1,7.7c2.6,0.8,5.3,1.6,8.1,2c2-1.9,3.9-3.7,5.8-5.6c-0.7-2.5-1.4-5.1-2.1-7.8
						C26.2,496.6,23.6,495.9,20.8,495.3z M26,477.4c2.6,0.7,5.3,1.4,8.1,2.1c2-1.9,3.9-3.8,6-5.8c-0.3-1.9-0.9-3.6-1.4-5.5
						c-2.9-1.9-6-2.9-9.6-3.4c-1.7,1.6-3.4,3.2-5.1,4.9C24.6,472.4,25.3,474.8,26,477.4z M45.2,493c-2.6-0.7-5.3-1.4-8-2.1
						c-2,2-4,3.8-6.1,5.9c0.3,1.2,0.6,2.4,1,3.7c0.3,1.3,0.7,2.5,1,3.9c2.3,0.6,4.5,1.2,6.6,1.7c2.5-1.2,5.3-4.4,6.9-7.7
						C46.2,496.6,45.7,494.9,45.2,493z M37.8,488.8c2.6,0.7,5.2,1.3,8,2c1.2-1.2,2.5-2.4,3.7-3.6c-0.2-3.8-1.1-7.3-2.9-10.7
						c-1.6-0.4-3.2-0.8-5-1.3c-1.9,1.8-3.9,3.7-5.9,5.7C36.4,483.6,37.1,486.2,37.8,488.8z M6.2,477.1c-1.5,2.9-2.3,5.7-2.5,8.9
						c1-0.4,1.5-1.2,2.1-1.7c0.6-0.5,1.2-1.2,1.9-1.8C7.2,480.7,6.7,479,6.2,477.1z M12.8,501.5c-1.6-0.4-3.3-0.8-5.3-1.3
						c1.8,2.9,3.9,4.9,6.8,6.7C13.7,504.9,13.2,503.3,12.8,501.5z M16.7,466.8c1.2,0.3,2,0.6,2.9,0.8c0.9,0.2,1.8,0.4,2.8,0.7
						c1.1-1,2.2-2.1,3.6-3.4C22.7,464.7,19.9,465.8,16.7,466.8z M32.6,506.5c-1.3,1.3-2.6,2.5-3.9,3.7c2.5,0,6.7-1.3,8.5-2.6
						C35.6,507.3,34.1,506.9,32.6,506.5z M41.3,470c0.3,1.3,0.6,2.1,0.8,3.1c0.7,0.2,1.5,0.4,2.3,0.6c0.1-0.1,0.1-0.2,0.2-0.2
						C43.6,472.5,42.7,471.4,41.3,470z M47.3,492.4c0.3,0.9,0.5,1.8,0.8,3.1c0.4-1.8,0.8-3.2,1.1-4.6c-0.1,0-0.2-0.1-0.3-0.1
						C48.4,491.3,47.8,491.8,47.3,492.4z"/>
					<g id="Shape_21_" transform="translate(10.000000, 0.000000)">
						<path class="st0" d="M1,53.2c3.2,12,22.3,26.8,23.1,27.4c0.2,0.2,0.6,0.2,0.8,0.2c0.2,0,0.5-0.3,0.6-0.6
							c0.4-0.9,9.5-23.2,6.3-35.3c-2.3-8.5-11.1-13.6-19.5-11.3S-1.3,44.6,1,53.2z M2.9,52.6c-2-7.5,2.4-15.2,9.9-17.2
							S28,37.8,30,45.3c2.7,9.9-3.9,28.1-5.7,32.9C20.3,75,5.5,62.6,2.9,52.6z"/>
						<path class="st0" d="M9.9,49.9c0.9,3.5,4.5,5.6,8,4.6s5.6-4.5,4.6-8c-0.9-3.5-4.5-5.6-8-4.6C11,42.8,8.9,46.4,9.9,49.9z
							 M11.7,49.3c-0.7-2.5,0.8-5,3.3-5.7c2.5-0.7,5,0.8,5.7,3.3s-0.8,5-3.3,5.7C14.9,53.3,12.4,51.8,11.7,49.3z"/>
					</g>
					<g id="Path_9_" transform="translate(0.000000, 213.000000)">
						<path class="st0" d="M48.4,76.7c-0.4-0.2-0.9-0.2-1.1,0.2c-4.5,6.7-15.5,9.4-26.2,6.6c-11.1-3-19-10.7-19.2-18.8
							c0-0.5-0.4-0.8-0.8-0.8c-0.5,0-0.8,0.4-0.8,0.8C0.5,73.5,8.9,81.8,20.7,85c11.3,3,23.1,0,28-7.3C48.9,77.5,48.8,77,48.4,76.7z
							"/>
						<path class="st0" d="M28.2,56.6c2.5,0.7,5.2,0,6.3-1.7c0.2-0.4,0.2-0.9-0.2-1.1c-0.4-0.2-0.9-0.2-1.1,0.2
							c-0.7,1.1-2.7,1.6-4.5,1.1c-1.9-0.5-3.3-1.8-3.4-3.2c0-0.5-0.4-0.8-0.8-0.8c-0.5,0-0.8,0.4-0.8,0.8
							C23.6,53.9,25.5,55.9,28.2,56.6z"/>
						<path class="st0" d="M13.5,61.2l-3.4,10.1c-0.1,0.4,0.1,0.9,0.5,1l0,0c0.4,0.1,0.8-0.1,1-0.5L15,61.7l0,0
							c0.4-1.5,2-2.5,3.6-2.1l17.2,4.6c1.6,0.4,2.6,2.1,2.1,3.7l0,0l-2.3,10.3c-0.1,0.5,0.2,0.9,0.6,1c0.5,0.1,0.9-0.2,1-0.6
							l2.3-10.3c0.7-2.5-0.8-5-3.3-5.7L19.1,58C16.7,57.3,14.2,58.8,13.5,61.2z"/>
						<path class="st0" d="M52.6,69.2C54,57.1,46.2,55,46,54.9c-0.1,0-0.1,0-0.2,0c-0.1-0.1-0.2-0.3-0.3-0.4
							c-1.3-1.9-3.4-2.3-3.8-2.3l-16.9-4.5c0-2.7-0.8-12.2-12.1-15.3c-2.9-0.8-4.5,1.8-6.6,5c-0.9,1.5-2,3.2-3.3,4.9
							c-1,1.2-1.3,3-0.9,4.4c0.5,1.4,1.5,2.5,3.1,2.9c0.3,0.1,0.6,0.1,0.9-0.1l6.6-2.9l-5.6,21c-0.1,0.4,0.1,0.9,0.6,1
							c0.4,0.1,0.9-0.1,1-0.6l6.1-22.6c0.1-0.3,0-0.6-0.3-0.8c-0.2-0.2-0.6-0.3-0.9-0.1l-7.9,3.6c-1.2-0.4-1.7-1.2-1.9-1.8
							c-0.3-1-0.1-2.1,0.6-2.9c1.4-1.8,2.5-3.5,3.5-5c2-3.2,3.1-4.8,4.7-4.3c11.8,3.2,11,13.8,10.9,14.3c0,0.4,0.2,0.8,0.6,0.9
							L41.5,54h0.1c0,0,1.7,0.2,2.7,1.6c0.6,0.9,0.8,2,0.7,3.4c0,0.1,0,0.1,0,0.2c-0.1,0.6-0.2,1.1-0.3,1.8l-4.2,15.8
							c-0.1,0.4,0.1,0.9,0.6,1c0.4,0.1,0.9-0.1,1-0.6l4.2-15.8c0.1-0.3,0.2-0.6,0.2-0.9c1,0.8,2.5,3,1.9,8.3c0,0.4,0.2,0.8,0.6,0.9
							h0.1c0.4,0,0.9-0.3,0.9-0.7c0.9-7.3-1.9-9.6-3.3-10.3c0-0.6,0-1.1-0.1-1.6C48.3,58,52,60.9,51,69.2c0,0.4,0.2,0.8,0.6,0.9h0.1
							C52.2,70,52.6,69.7,52.6,69.2z"/>
					</g>
				</g>
				<g id="Group_10_" transform="translate(1314.000000, 108.000000)">
					<path id="Shape_22_" class="st0" d="M46.6,248.6c-3.4-2.2-6.9-2.9-10.1-2c-0.3,0.1-0.5,0.4-0.6,0.7l-1.2,20.2l-19.8,5.3
						c-0.4-1.3-1.3-3.7-3.2-5c-1.1-0.7-2.3-0.9-3.7-0.6c-0.8-1.7-2.7-2.6-4.5-2.1c-2,0.5-3.2,2.7-2.7,4.8c0.6,2.1,2.7,3.3,4.7,2.8
						c1.8-0.5,2.9-2.1,2.8-3.9c1-0.2,1.8-0.1,2.5,0.4c1.7,1.1,2.5,3.7,2.6,4.5c0,0.1,0,0.3,0.1,0.5c3.4,7.2,9.4,12.1,16.2,13.7
						c-2.3,1-3.6,3.6-2.9,6.1c0.7,2.8,3.6,4.4,6.3,3.7c2.7-0.7,4.3-3.6,3.6-6.3c-0.3-1.2-1.1-2.2-2-2.9c1.8,0,3.6-0.2,5.4-0.7
						c2.1-0.6,4-1.5,5.7-2.6c-0.6,1.1-0.8,2.6-0.5,3.9c0.7,2.8,3.6,4.4,6.3,3.7c2.7-0.7,4.3-3.6,3.6-6.3c-0.7-2.8-3.6-4.4-6.3-3.7
						h-0.1c4.9-4.7,7.9-11.9,7.5-19.7c0-0.1,0-0.2,0-0.3C55.4,257.5,51.3,251.7,46.6,248.6z M5.1,271c-1.2,0.3-2.5-0.4-2.8-1.7
						c-0.3-1.3,0.4-2.5,1.6-2.8c1.2-0.3,2.5,0.4,2.8,1.7C7.1,269.4,6.3,270.7,5.1,271z M32.7,296c-1.9,0.5-3.8-0.6-4.4-2.6
						c-0.5-1.9,0.6-3.9,2.5-4.4c1.9-0.5,3.8,0.6,4.4,2.6C35.7,293.5,34.6,295.5,32.7,296z M53.6,286.6c0.5,1.9-0.6,3.9-2.5,4.4
						c-1.9,0.5-3.8-0.6-4.4-2.6c-0.5-1.9,0.6-3.9,2.5-4.4C51.1,283.5,53.1,284.7,53.6,286.6z M37.4,248c3.3-0.7,6.3,0.7,8.3,2
						c4.2,2.7,7.8,7.7,8.9,12.2l-18.4,4.9L37.4,248z M39.6,286c-9.4,2.5-19.3-2.3-24.2-11.8l39.4-10.5
						C54.9,274.3,48.6,283.6,39.6,286z"/>
					<g transform="translate(3.000000, 0.000000)">
						<path id="Shape_23_" class="st0" d="M30.8,34.5c0.4,0,0.7,0.1,1,0.4c0.2,0.2,0.3,0.5,0.3,0.9c0,1.3,0.5,2.5,1.3,3.3
							c0.9,0.9,2.1,1.4,3.4,1.4c1,0,1.9-0.3,2.7-0.9c0.2-0.2,0.5-0.3,0.7-0.3c0.4,0,0.9,0.3,1.1,0.7c0.2,0.4,0.2,0.8,0,1.2
							c-0.8,1.5-0.8,3.2,0.1,4.6c0.9,1.4,2.4,2.3,4,2.3c0.2,0,0.4,0,0.6,0c0.1,0,0.1,0,0.2,0c0.7,0,1,0.5,1.2,0.9
							c0.1,0.3,0.2,0.9-0.5,1.4c-1.5,1-2.2,2.7-2,4.4c0.2,1.8,1.4,3.2,3.1,3.8c0.9,0.3,0.9,1.1,0.8,1.3c0,0.2-0.2,1-1.1,1.1
							c-1.8,0.2-3.2,1.3-3.9,3c-0.6,1.7-0.3,3.5,0.9,4.8c0.5,0.5,0.4,1,0.2,1.3c-0.2,0.4-0.6,0.8-1.1,0.8c-0.2,0-0.3,0-0.5-0.1
							c-0.6-0.2-1.1-0.3-1.7-0.3c-1.4,0-2.8,0.7-3.7,1.8c-0.9,1.2-1.2,2.6-0.8,4c0.1,0.4,0,0.8-0.2,1.1c-0.3,0.3-0.7,0.5-1.1,0.5
							c-0.3,0-0.7-0.2-0.9-0.5c-0.9-1-2.2-1.6-3.5-1.6c-2.2,0-4.1,1.5-4.6,3.6c-0.2,0.9-1,1-1.2,1c-0.2,0-1-0.1-1.2-1
							c-0.5-2.1-2.4-3.6-4.6-3.6c-1.4,0-2.6,0.6-3.5,1.6c-0.3,0.3-0.6,0.5-0.9,0.5c-0.4,0-0.8-0.2-1.1-0.5c-0.2-0.3-0.3-0.7-0.2-1.1
							c0.4-1.4,0.1-2.9-0.8-4c-0.9-1.2-2.3-1.8-3.7-1.8c-0.6,0-1.2,0.1-1.7,0.3c-0.2,0.1-0.3,0.1-0.5,0.1c-0.6,0-1-0.4-1.1-0.8
							c-0.1-0.3-0.2-0.8,0.2-1.3C7.7,67.5,8,65.7,7.4,64c-0.6-1.7-2.1-2.8-3.9-3c-0.9-0.1-1.1-0.9-1.1-1.1s0-1,0.8-1.3
							C4.9,58,6,56.5,6.3,54.8c0.2-1.8-0.6-3.5-2-4.4c-0.7-0.5-0.6-1.2-0.5-1.4c0.1-0.4,0.5-0.9,1.2-0.9c0.1,0,0.1,0,0.2,0
							c0.2,0,0.4,0,0.6,0c1.6,0,3.1-0.9,4-2.3c0.9-1.4,0.9-3.1,0.1-4.6c-0.2-0.4-0.2-0.8,0-1.2c0.2-0.4,0.7-0.7,1.1-0.7
							c0.3,0,0.5,0.1,0.7,0.3c0.8,0.6,1.7,0.9,2.7,0.9c1.2,0,2.5-0.5,3.4-1.4c0.9-0.9,1.3-2.1,1.3-3.3c0-0.4,0.1-0.7,0.3-0.9
							c0.3-0.3,0.6-0.4,1-0.4c0.3,0,0.8,0.1,1.1,0.7c0.8,1.6,2.4,2.6,4.2,2.6s3.4-1,4.2-2.6C30,34.6,30.4,34.5,30.8,34.5z
							 M30.8,32.8c-1,0-2,0.5-2.6,1.6c-0.6,1.1-1.6,1.6-2.7,1.6c-1,0-2.1-0.5-2.7-1.6c-0.6-1.1-1.6-1.6-2.6-1.6c-1.5,0-3,1.1-3,3
							c0,1.8-1.4,3-3,3c-0.6,0-1.2-0.2-1.7-0.6c-0.6-0.4-1.2-0.6-1.7-0.6c-2,0-3.8,2.2-2.6,4.4c1.1,2-0.4,4.4-2.6,4.4
							c-0.1,0-0.3,0-0.4,0c-0.2,0-0.3,0-0.4,0c-2.8,0-4.1,3.8-1.6,5.5c2,1.4,1.6,4.4-0.6,5.3c-3,1.1-2.4,5.4,0.7,5.8
							c2.4,0.3,3.5,3.2,1.9,5c-1.8,2-0.2,5,2.2,5c0.4,0,0.7-0.1,1.1-0.2c0.4-0.1,0.7-0.2,1.1-0.2c1.9,0,3.4,1.8,2.9,3.7
							c-0.6,2.1,1.1,3.7,2.9,3.7c0.8,0,1.6-0.3,2.2-1c0.6-0.7,1.4-1,2.2-1c1.3,0,2.6,0.8,2.9,2.3s1.6,2.3,2.9,2.3
							c1.3,0,2.5-0.8,2.9-2.3c0.3-1.5,1.6-2.3,2.9-2.3c0.8,0,1.6,0.3,2.2,1c0.6,0.7,1.4,1,2.2,1c1.8,0,3.5-1.6,2.9-3.7
							c-0.5-2,1-3.7,2.9-3.7c0.4,0,0.7,0.1,1.1,0.2c0.4,0.2,0.8,0.2,1.1,0.2c2.4,0,4-3,2.2-5c-1.6-1.8-0.5-4.7,1.9-5
							c3.1-0.3,3.7-4.7,0.7-5.8c-2.3-0.8-2.7-3.9-0.6-5.3c2.5-1.7,1.2-5.5-1.6-5.5c-0.1,0-0.3,0-0.4,0s-0.3,0-0.4,0
							c-2.2,0-3.7-2.4-2.6-4.4c1.2-2.2-0.6-4.4-2.6-4.4c-0.6,0-1.2,0.2-1.7,0.6c-0.5,0.4-1.1,0.6-1.7,0.6c-1.5,0-3-1.2-3-3
							C33.8,33.9,32.3,32.8,30.8,32.8z"/>
						<g transform="translate(16.000000, 16.000000)">
							<path id="Shape_24_" class="st0" d="M5,41.3c-2.3,0-4.2-1.9-4.2-4.2s1.9-4.2,4.2-4.2s4.2,1.9,4.2,4.2S7.3,41.3,5,41.3z
								 M5,34.6c-1.4,0-2.5,1.1-2.5,2.5c0,1.4,1.1,2.5,2.5,2.5s2.5-1.1,2.5-2.5C7.5,35.7,6.3,34.6,5,34.6z"/>
							<path id="Shape_25_" class="st0" d="M15.4,50.6c-2.3,0-4.2-1.9-4.2-4.2c0-2.3,1.9-4.2,4.2-4.2c2.3,0,4.2,1.9,4.2,4.2
								C19.6,48.7,17.7,50.6,15.4,50.6z M15.4,43.9c-1.4,0-2.5,1.1-2.5,2.5c0,1.4,1.1,2.5,2.5,2.5c1.4,0,2.5-1.1,2.5-2.5
								C17.9,45,16.8,43.9,15.4,43.9z"/>
							<path id="Path_10_" class="st0" d="M2.8,50.1c-0.2,0-0.4-0.1-0.6-0.3c-0.3-0.3-0.3-0.9,0-1.2L16.8,34c0.3-0.3,0.9-0.3,1.2,0
								c0.3,0.3,0.3,0.9,0,1.2L3.4,49.8C3.3,50,3,50.1,2.8,50.1z"/>
						</g>
					</g>
				</g>
				<g id="Group_11_" transform="translate(747.000000, 1.000000)">
					<g transform="translate(1.000000, 0.000000)">
						<path id="Shape_26_" class="st0" d="M50.7,37.9l-3-3c-1.9-1.9-2.6-2.6-3.4-1.7l-2.6,2.6c-0.1,0.1-0.2,0.3-0.3,0.4
							c-0.2,0.1-0.3,0.3-0.5,0.4c0,0-2.2,2.2-1.3,5c-0.2,0.1-0.3,0.2-0.5,0.4L17.7,63.4l0,0l-5.1-5.1c-0.3-0.3-1.5-1.3-3.2,0.2
							c-0.3,0.3-4.6,5-4.6,5.1c-4,4.9-6.6,11.8-1.7,16.7C5,82.2,7.3,83,9.6,83c4,0,8-2.2,10.2-3.9c0.5-0.3,2.2-1.6,3.4-2.5
							c3.3-2.6,3.4-3,3.4-3.6c-0.1-0.5-0.3-0.9-0.6-1.2l-3.9-3.9l0,0l21.4-21.4c0.2-0.2,0.3-0.3,0.4-0.5c0.5,0.2,1,0.3,1.5,0.3l0,0
							c1.8,0,3.1-1.1,3.3-1.3c0.2-0.1,0.4-0.4,0.7-0.7c0.1,0,0.2-0.1,0.3-0.2l2.6-2.6c0.2-0.2,0.3-0.5,0.3-0.7
							C52.7,40.2,52.7,39.9,50.7,37.9z M24.4,72.9c-1.2,1.2-5.1,4.1-5.6,4.4l-0.1,0.1c-0.1,0-4.5,3.5-9,3.5c-1.8,0-3.6-0.6-5.1-2.1
							c-5.1-5.1,0.6-12.5,1.8-13.9c0.3-0.3,4.2-4.6,4.4-4.8s0.3-0.3,0.4-0.3l6.4,6.4c0.1,0.1,0.1,0.2,0.2,0.2l1.3,1.3
							c0.1,0.1,0.2,0.1,0.2,0.2L24.4,72.9z M42,44.9L20.6,66.3c0,0,0,0-0.1,0l-1.4-1.4c0,0,0,0,0-0.1l21.4-21.4l0,0
							c0.2,0.2,0.4,0.5,0.6,0.7C41.6,44.5,41.8,44.7,42,44.9C42.1,44.9,42.1,44.9,42,44.9z M47.4,43.3c-0.3,0.3-1.8,1.5-3.8,0.1l0,0
							l-1.3-1.3c0,0,0,0-0.1-0.1c-1.4-2-0.1-3.5,0.3-3.9c0.3,0.3,0.6,0.6,1,1.1l3,3c0.4,0.4,0.8,0.8,1.1,1.1
							C47.5,43.2,47.4,43.3,47.4,43.3z M49.1,41.7l-5.2-5.2l1.2-1.2c0.3,0.3,0.7,0.6,1.1,1.1l3,3c0.4,0.4,0.8,0.8,1.1,1.1L49.1,41.7
							z"/>
						<path id="Path_11_" class="st0" d="M14.5,67c-0.4,0.4-0.4,1.1,0,1.5c1.7,1.6,3.6,3.4,4.4,4.3c-0.7,0.7-2.2,2-4.3,3.1
							c-0.5,0.3-0.7,0.9-0.4,1.4c0.2,0.3,0.5,0.6,0.9,0.6c0.2,0,0.3,0,0.5-0.1c1.2-0.6,5.9-3.5,5.6-5.1c0-0.5-0.1-0.6-5.3-5.6
							C15.5,66.6,14.9,66.6,14.5,67z"/>
					</g>
					<g id="Path_12_" transform="translate(0.000000, 219.000000)">
						<path class="st0" d="M28.5,37c-0.4-0.1-0.8-0.6-0.7-1.1c0-0.2,0.1-0.4,0.3-1.4c0.5-1.7,2.9-2.5,4.6-2c2.1,0.6,3.4,2.7,3,4.1
							c-0.2,0.6-0.3,0.9-0.3,1.1v0.1c-0.1,0.5-0.7,0.8-1.2,0.7c-0.5-0.1-0.8-0.7-0.7-1.2c0-0.1,0-0.1,0.1-0.2c0-0.2,0.1-0.4,0.3-1
							c0.1-0.3-0.5-1.4-1.6-1.6c-1.1-0.3-2.1,0.3-2.2,0.7c-0.2,0.6-0.3,1-0.3,1c0,0.5-0.5,0.9-1.1,0.9C28.6,37,28.5,37,28.5,37z"/>
						<path class="st0" d="M39.6,62L12,54.6c-2.9-0.8-4.6-2.7-5.3-5.7c-0.6-2.5-0.3-5.2,0-7.6c0.1-0.5,0.6-0.9,1.1-0.9
							c0.5,0.1,0.9,0.6,0.9,1.1c-0.3,2.2-0.5,4.8,0,7c0.5,2.3,1.8,3.6,3.9,4.2l27.6,7.4c2.1,0.6,3.9,0,5.5-1.7c1.5-1.7,2.6-4,3.5-6
							c0.2-0.5,0.8-0.7,1.3-0.5s0.7,0.8,0.5,1.3c-1,2.2-2.1,4.7-3.8,6.6C44.9,62,42.4,62.8,39.6,62z"/>
						<path class="st0" d="M53.3,53.6L4.4,40.5c-0.5-0.1-0.8-0.7-0.7-1.2c0.1-0.5,0.7-0.8,1.2-0.7l48.9,13.1
							c0.5,0.1,0.8,0.7,0.7,1.2C54.3,53.4,53.8,53.7,53.3,53.6z"/>
						<path class="st0" d="M50.3,51.7L50.3,51.7c-0.6-0.2-0.9-0.8-0.7-1.3c0-0.1,0.1-0.3-0.1-0.8c-1.7-3.5-13.2-8.7-16.6-9.8
							l-4.5-1.2c-1.6-0.3-6.4-0.8-10.9-0.8c-7.8,0.1-8.4,1.7-8.5,1.9c-0.1,0.5-0.7,0.8-1.2,0.7c-0.5-0.1-0.8-0.7-0.7-1.2
							c0.6-2.2,3.9-3.3,10.3-3.3c4.5,0,9.5,0.5,11.3,0.8c0,0,0,0,0.1,0l4.6,1.2c0,0,0,0,0.1,0c2,0.7,15.5,6.2,17.8,10.9
							c0.4,0.8,0.5,1.6,0.2,2.4C51.4,51.6,50.8,51.8,50.3,51.7z"/>
						<path class="st0" d="M36.5,73.4L8.9,66c-2.9-0.8-4.6-2.7-5.3-5.7c-0.6-2.5-0.3-5.2,0-7.6c0.1-0.5,0.6-0.9,1.1-0.9
							c0.5,0.1,0.9,0.6,0.9,1.1c-0.3,2.2-0.5,4.8,0,7c0.5,2.3,1.8,3.6,3.9,4.2l27.6,7.4c2.1,0.6,3.9,0,5.5-1.7c1.5-1.7,2.6-4,3.5-6
							c0.2-0.5,0.8-0.7,1.3-0.5s0.7,0.8,0.5,1.3c-1,2.2-2.1,4.7-3.8,6.6C41.9,73.4,39.4,74.2,36.5,73.4z"/>
						<path class="st0" d="M50.2,64.9L1.3,51.8c-0.5-0.1-0.8-0.7-0.7-1.2s0.7-0.8,1.2-0.7L50.7,63c0.5,0.1,0.8,0.7,0.7,1.2
							C51.3,64.7,50.7,65,50.2,64.9z"/>
					</g>
					<path id="Shape_27_" class="st0" d="M42,467.8c-7.1-8.5-18.6-11-28-5.9C4.9,466.7,0.4,478,3.2,488.6c-1.8,1.8-2.2,4.8-0.8,7.4
						l0.2,0.2l11.2,10.7c0.2,0.2,0.6,0.3,0.9,0.1l1-0.5l0.5,3.5c0.3,1.9,2.1,3.2,4,2.9c0.4-0.1,0.7-0.2,1-0.3c0.5-0.2,0.9-0.6,1.2-1
						c0.5-0.8,0.7-1.7,0.6-2.6l-1-5.8l21.7-11.6l4.3,4.1c1.1,1.1,2.7,1.3,4,0.6c0.3-0.2,0.6-0.4,0.9-0.7c0.6-0.7,0.9-1.5,0.9-2.5
						c0-0.9-0.4-1.8-1.1-2.5l-2.6-2.4l1.4-0.7c0.3-0.2,0.5-0.5,0.4-0.8l-2.6-15.3c0-0.1,0-0.2-0.1-0.3
						C47.5,468.5,44.5,467.1,42,467.8z M14.7,463.3c8.7-4.6,19.2-2.5,25.8,5.2c-2.4,1.6-3.1,5.1-1.5,8l2.5,4.7
						c-2.9,0.3-10.5,1.4-15.1,3.8c-5.8,3.1-10,8.2-11.6,10.3l-2.5-4.6c-1.6-3-5-4.4-7.7-3.1C2.2,477.9,6.4,467.7,14.7,463.3z
						 M21.4,509.2c0.1,0.5,0,1-0.3,1.4c-0.3,0.4-0.7,0.7-1.2,0.8c-1,0.2-2-0.6-2.2-1.6l-0.6-4.1l3.4-1.8L21.4,509.2z M51.4,491.8
						c0.4,0.4,0.6,0.8,0.6,1.3s-0.2,1-0.5,1.4c-0.7,0.8-1.9,0.8-2.6,0l-3.8-3.7l3.4-1.8L51.4,491.8z M50,486.4l-35.6,19L3.7,495.2
						c-1.1-2.3-0.5-5,1.4-6c2-1.1,4.6,0,5.8,2.3l3,5.8c0.1,0.2,0.4,0.4,0.6,0.4c0.3,0,0.5-0.1,0.7-0.3c0-0.1,4.8-7.1,11.8-10.9
						c5.4-2.9,15.6-3.8,15.7-3.8c0.3,0,0.5-0.2,0.6-0.4c0.1-0.2,0.1-0.5,0-0.8l-3.1-5.7c-1.2-2.3-0.6-5.1,1.4-6.1
						c1.9-1,4.5-0.1,5.8,2.2L50,486.4z"/>
				</g>
				<g id="Group_12_" transform="translate(835.000000, 110.000000)">
					<g id="Shape_28_" transform="translate(7.000000, 0.000000)">
						<path class="st0" d="M30.3,40c9.1,3.2,14.2,13.5,11.1,22.5C38.2,71.8,27.9,77,18.7,73.7c-9.6-3.4-14.3-13.3-11-23
							C10.8,41.7,21.3,36.8,30.3,40z M38,65c1.4-1.4,1.8-3.2,2.1-4.8c-6.6-12.6-21.5-15-30.4-9.9c-0.4,1.4-0.8,3-1.2,4.9
							c1.3-0.2,2-0.4,2.8-0.5c3.1-0.5,6.1-0.4,8,2.5c1.9,2.9,1.1,5.7-0.4,8.5c-0.5,0.9-1.3,1.8-1.9,2.6c-0.4,0.5-0.9,1.1-1.4,1.8
							c2.4,1.9,5,2.8,7.7,2.8c0.3-2.8,0.2-5.3,0.9-7.6c1.5-5.4,6.7-6.8,11-3.1C36.1,62.8,36.9,63.9,38,65z M40.2,56.7
							c0.2-7.5-5.3-14-12.4-15.5c-6.1-1.3-13.4,1.5-15.2,5.8C23.6,44.3,32.7,47.4,40.2,56.7z M13.6,68.6c2.7-2,4.2-4.3,4.7-7.1
							c0.6-2.8-1-5-3.8-5.3c-2.1-0.2-4.1,0-6.1,1.2C8.7,61.8,10.3,65.5,13.6,68.6z M36.7,67c-1.2-2.2-2.5-3.7-4.4-4.7
							c-2.3-1.2-4.7-0.5-5.8,1.7c-1.4,2.7-1.8,5.6-0.7,8.8C30.3,72.3,33.8,70.4,36.7,67z"/>
						<path class="st0" d="M26.5,51.5c2.1,0.8,2.9,3.1,2,5.2c-0.8,1.9-3.1,2.8-5,2s-2.8-3-2.1-4.9C22.2,51.6,24.4,50.7,26.5,51.5z
							 M27,55.8c0.4-1.1-0.2-2.2-1.4-2.6c-1.1-0.4-2.3,0.2-2.6,1.2s0.4,2.3,1.4,2.7C25.4,57.4,26.7,56.8,27,55.8z"/>
						<path class="st0" d="M16.8,79.1C4.4,74.9-2.2,61.3,2,48.9s17.8-19,30.2-14.8s19,17.8,14.8,30.2S29.2,83.3,16.8,79.1z
							 M31.6,35.8C20.1,31.9,7.6,38,3.7,49.5s2.2,24,13.7,27.9c11.5,3.9,24-2.2,27.9-13.7C49.3,52.2,43.1,39.7,31.6,35.8z"/>
					</g>
					<path id="Shape_29_" class="st0" d="M51.4,245l-16.5,4.5c-1.6-4.4-6.4-6.9-11-5.6c-4.6,1.2-7.5,5.8-6.7,10.4l-15.9,4.3
						c-0.5,0.1-0.8,0.7-0.7,1.1l9.8,36.3c0.1,0.5,0.7,0.8,1.1,0.7l50.2-13.6c0.5-0.1,0.8-0.7,0.7-1.1l-9.8-36.3
						C52.5,245.2,51.9,244.9,51.4,245z M41.1,249.7l9.3,34.5l-29,7.8l-9.3-34.5L41.1,249.7z M24.4,245.6c3.6-1,7.3,0.9,8.7,4.3
						L19,253.7C18.5,250.2,20.7,246.6,24.4,245.6z M2.7,260.1l7.6-2.1l9.3,34.5l-7.6,2.1L2.7,260.1z M60.4,281.6l-8.1,2.2L43,249.3
						l8.1-2.2L60.4,281.6z"/>
				</g>
				<g id="Group_13_" transform="translate(932.000000, 1.000000)">
					<path id="Shape_30_" class="st0" d="M27.5,512.7c-10,0.1-17.7-4.2-22.9-12.7c-0.5-0.8-1-1.6-1.4-2.5c-0.6-2.3-1.2-4.5-1.8-6.8
						c0-1,0-2,0-3c0.3-10,4.7-17.7,13.6-22.3c11.3-6,25.2-2.4,32.4,8.5c8.8,13.3,3.1,30.6-10.5,36.7c-0.2,0.1-0.4,0.3-0.5,0.5
						c-2.3,0.6-4.5,1.2-6.8,1.8C28.9,512.8,28.2,512.7,27.5,512.7z M19.4,493.7c-0.7-2.6-1.4-5.1-2.1-7.7c-2.6-0.7-5.3-1.3-8-2
						c-1.9,1.9-3.8,3.7-5.8,5.6c0.3,1.4,0.6,2.7,0.9,4s0.7,2.5,1,3.9c2.7,0.7,5.2,1.3,7.9,2C15.5,497.5,17.4,495.6,19.4,493.7z
						 M35.4,489.5c-0.7-2.6-1.4-5.2-2.1-7.9c-2.6-0.6-5.2-1.3-7.9-2c-2,2-4,3.8-5.9,5.7c0.7,2.6,1.4,5.1,2.1,7.8
						c2.6,0.7,5.2,1.3,8,2C31.6,493.2,33.5,491.3,35.4,489.5z M14.2,468.4c-2.6,1.4-4.2,3.8-6.3,5.6c0.7,2.7,1.4,5.2,2.1,7.8
						c2.6,0.7,5.2,1.3,7.9,2c2-1.9,3.9-3.9,5.9-5.8c-0.7-2.6-1.4-5.1-2.1-7.7C19.2,469.7,16.8,469.1,14.2,468.4z M20.8,495.3
						c-1.9,1.8-3.8,3.7-5.7,5.6c0.7,2.5,1.3,5,2.1,7.7c2.6,0.8,5.3,1.6,8.1,2c2-1.9,3.9-3.7,5.8-5.6c-0.7-2.5-1.4-5.1-2.1-7.8
						C26.2,496.6,23.6,495.9,20.8,495.3z M26,477.4c2.6,0.7,5.3,1.4,8.1,2.1c2-1.9,3.9-3.8,6-5.8c-0.3-1.9-0.9-3.6-1.4-5.5
						c-2.9-1.9-6-2.9-9.6-3.4c-1.7,1.6-3.4,3.2-5.1,4.9C24.6,472.4,25.3,474.8,26,477.4z M45.2,493c-2.6-0.7-5.3-1.4-8-2.1
						c-2,2-4,3.8-6.1,5.9c0.3,1.2,0.6,2.4,1,3.7c0.4,1.3,0.7,2.5,1,3.9c2.3,0.6,4.5,1.2,6.6,1.7c2.5-1.2,5.3-4.4,6.9-7.7
						C46.2,496.6,45.7,494.9,45.2,493z M37.8,488.8c2.6,0.7,5.2,1.3,8,2c1.2-1.2,2.5-2.4,3.7-3.6c-0.2-3.8-1.1-7.3-2.9-10.7
						c-1.6-0.4-3.2-0.8-5-1.3c-1.9,1.8-3.9,3.7-5.9,5.7C36.4,483.6,37.1,486.2,37.8,488.8z M6.2,477.1c-1.5,2.9-2.3,5.7-2.5,8.9
						c1-0.4,1.5-1.2,2.1-1.7c0.6-0.5,1.2-1.2,1.9-1.8C7.2,480.7,6.7,479,6.2,477.1z M12.8,501.5c-1.6-0.4-3.3-0.8-5.3-1.3
						c1.8,2.9,3.9,4.9,6.8,6.7C13.7,504.9,13.2,503.3,12.8,501.5z M16.7,466.8c1.2,0.3,2,0.6,2.9,0.8c0.9,0.2,1.8,0.4,2.8,0.7
						c1.1-1,2.2-2.1,3.6-3.4C22.7,464.7,19.9,465.8,16.7,466.8z M32.6,506.5c-1.3,1.3-2.6,2.5-3.9,3.7c2.5,0,6.7-1.3,8.5-2.6
						C35.6,507.3,34.1,506.9,32.6,506.5z M41.3,470c0.3,1.3,0.6,2.1,0.8,3.1c0.7,0.2,1.5,0.4,2.3,0.6c0.1-0.1,0.1-0.2,0.2-0.2
						C43.6,472.5,42.7,471.4,41.3,470z M47.3,492.4c0.3,0.9,0.5,1.8,0.8,3.1c0.4-1.8,0.8-3.2,1.1-4.6c-0.1,0-0.2-0.1-0.3-0.1
						C48.4,491.3,47.8,491.8,47.3,492.4z"/>
					<g id="Shape_31_" transform="translate(10.000000, 0.000000)">
						<path class="st0" d="M1,53.2c3.2,12,22.3,26.8,23.1,27.4c0.2,0.2,0.6,0.2,0.8,0.2c0.3-0.1,0.5-0.3,0.6-0.6
							c0.4-0.9,9.5-23.2,6.3-35.3c-2.3-8.5-11.1-13.6-19.5-11.3C3.8,35.9-1.3,44.6,1,53.2z M2.9,52.6c-2-7.5,2.4-15.2,9.9-17.2
							S28,37.8,30,45.3c2.7,9.9-3.9,28.1-5.7,32.9C20.3,75,5.5,62.6,2.9,52.6z"/>
						<path class="st0" d="M9.9,49.9c0.9,3.5,4.5,5.6,8,4.6c3.5-0.9,5.6-4.5,4.6-8c-0.9-3.5-4.5-5.6-8-4.6
							C11,42.8,8.9,46.4,9.9,49.9z M11.7,49.3c-0.7-2.5,0.8-5,3.3-5.7c2.5-0.7,5,0.8,5.7,3.3s-0.8,5-3.3,5.7
							C14.9,53.3,12.4,51.8,11.7,49.3z"/>
					</g>
					<g id="Path_13_" transform="translate(0.000000, 213.000000)">
						<path class="st0" d="M48.4,76.7c-0.4-0.2-0.9-0.2-1.1,0.2c-4.5,6.7-15.5,9.4-26.2,6.6c-11.1-3-19-10.7-19.2-18.8
							c0-0.5-0.4-0.8-0.8-0.8c-0.5,0-0.8,0.4-0.8,0.8C0.5,73.5,8.9,81.8,20.7,85c11.3,3,23.1,0,28-7.3C48.9,77.5,48.8,77,48.4,76.7z
							"/>
						<path class="st0" d="M28.2,56.6c2.5,0.7,5.2,0,6.3-1.7c0.2-0.4,0.2-0.9-0.2-1.1c-0.4-0.2-0.9-0.2-1.1,0.2
							c-0.7,1.1-2.7,1.6-4.5,1.1c-1.9-0.5-3.3-1.8-3.4-3.2c0-0.5-0.4-0.8-0.8-0.8c-0.5,0-0.8,0.4-0.8,0.8
							C23.6,53.9,25.5,55.9,28.2,56.6z"/>
						<path class="st0" d="M13.5,61.2l-3.4,10.1c-0.1,0.4,0.1,0.9,0.5,1l0,0c0.4,0.1,0.8-0.1,1-0.5L15,61.7l0,0
							c0.4-1.5,2-2.5,3.6-2.1l17.2,4.6c1.6,0.4,2.6,2.1,2.1,3.7l0,0l-2.3,10.3c-0.1,0.5,0.2,0.9,0.6,1c0.5,0.1,0.9-0.2,1-0.6
							l2.3-10.3c0.7-2.5-0.8-5-3.3-5.7L19.1,58C16.7,57.3,14.2,58.8,13.5,61.2z"/>
						<path class="st0" d="M52.6,69.2C54,57.1,46.2,55,46.1,54.9c-0.1,0-0.1,0-0.2,0c-0.1-0.1-0.2-0.3-0.3-0.4
							c-1.3-1.9-3.4-2.3-3.8-2.3l-16.9-4.5c0-2.7-0.8-12.2-12.1-15.3c-2.9-0.8-4.5,1.8-6.6,5c-0.9,1.5-2,3.2-3.3,4.9
							c-1,1.2-1.3,3-0.9,4.4c0.5,1.4,1.5,2.5,3.1,2.9c0.3,0.1,0.6,0.1,0.9-0.1l6.6-2.9L7,67.6c-0.1,0.4,0.1,0.9,0.6,1
							c0.4,0.1,0.9-0.1,1-0.6l6.1-22.6c0.1-0.3,0-0.6-0.3-0.8c-0.2-0.2-0.6-0.3-0.9-0.1l-7.9,3.6c-1.2-0.4-1.7-1.2-1.9-1.8
							c-0.3-1-0.1-2.1,0.6-2.9c1.4-1.8,2.5-3.5,3.5-5c2-3.2,3.1-4.8,4.7-4.3c11.8,3.2,11,13.8,10.9,14.3c0,0.4,0.2,0.8,0.6,0.9
							L41.6,54h0.1c0,0,1.7,0.2,2.7,1.6c0.6,0.9,0.8,2,0.7,3.4c0,0.1,0,0.1,0,0.2c-0.1,0.6-0.2,1.1-0.3,1.8l-4.2,15.8
							c-0.1,0.4,0.1,0.9,0.6,1c0.4,0.1,0.9-0.1,1-0.6l4.2-15.8c0.1-0.3,0.2-0.6,0.2-0.9c1,0.8,2.5,3,1.9,8.3c0,0.4,0.2,0.8,0.6,0.9
							h0.1c0.4,0,0.9-0.3,0.9-0.7c0.9-7.3-1.9-9.6-3.3-10.3c0-0.6,0-1.1-0.1-1.6c1.7,0.9,5.4,3.8,4.4,12.1c0,0.4,0.2,0.8,0.6,0.9
							h0.1C52.2,70,52.6,69.7,52.6,69.2z"/>
					</g>
				</g>
			</g>
		</g>
	</g>
</g>
</svg>
