<?xml version="1.0" encoding="utf-8"?>
<!-- Generator: Adobe Illustrator 16.0.2, SVG Export Plug-In . SVG Version: 6.00 Build 0)  -->
<!DOCTYPE svg PUBLIC "-//W3C//DTD SVG 1.1//EN" "http://www.w3.org/Graphics/SVG/1.1/DTD/svg11.dtd">
<svg version="1.1" id="Слой_1" xmlns="http://www.w3.org/2000/svg" xmlns:xlink="http://www.w3.org/1999/xlink" x="0px" y="0px"
	 width="1371px" height="564px" viewBox="0 -38.5 1371 564" enable-background="new 0 -38.5 1371 564" xml:space="preserve">
<title>86616C2F-9131-468B-996E-0E90C8122767</title>
<desc>Created with sketchtool.</desc>
<g id="АШАН">
	<g id="Auchan" transform="translate(-35.000000, -2486.000000)">
		<g id="Text-picture-quote-1" transform="translate(35.000000, 2175.000000)">
			<g id="Pattern_Auchan" transform="translate(0.000000, 311.000000)">
				<g id="Group" transform="translate(0.000000, 1.000000)">
					<g transform="translate(1.000000, 0.000000)">
						<path id="Shape" fill="#E3000F" d="M50.7,5.2l-3-3c-1.9-1.9-2.6-2.6-3.4-1.7l-2.6,2.6c-0.1,0.1-0.2,0.3-0.3,0.4
							c-0.2,0.1-0.3,0.3-0.5,0.4c0,0-2.2,2.2-1.3,5c-0.2,0.1-0.3,0.2-0.5,0.4L17.8,30.7l0,0l-5.1-5.1c-0.3-0.3-1.5-1.3-3.2,0.2
							c-0.3,0.3-4.6,5-4.6,5.1c-4,4.9-6.6,11.8-1.7,16.7c1.9,1.9,4.2,2.7,6.5,2.7c4,0,8-2.2,10.2-3.9c0.5-0.3,2.2-1.6,3.4-2.5
							c3.3-2.6,3.4-3,3.4-3.6c-0.1-0.5-0.3-0.9-0.6-1.2l-4-4.1l0,0l21.4-21.4c0.2-0.2,0.3-0.3,0.4-0.5c0.5,0.2,1,0.3,1.5,0.3l0,0
							c1.8,0,3.1-1.1,3.3-1.3c0.2-0.1,0.4-0.4,0.7-0.7c0.1,0,0.2-0.1,0.3-0.2l2.6-2.6c0.2-0.2,0.3-0.5,0.3-0.7
							C52.7,7.4,52.7,7.2,50.7,5.2z M24.4,40.2c-1.2,1.2-5.1,4.1-5.6,4.4l-0.1,0.1c-0.1,0-4.5,3.5-9,3.5c-1.8,0-3.6-0.6-5.1-2.1
							C-0.5,41,5.2,33.6,6.4,32.2c0.3-0.3,4.2-4.6,4.4-4.8c0.2-0.2,0.3-0.3,0.4-0.3l6.4,6.4c0.1,0.1,0.1,0.2,0.2,0.2l1.3,1.3
							c0.1,0.1,0.2,0.1,0.2,0.2L24.4,40.2z M42,12.2L20.7,33.6c0,0,0,0-0.1,0l-1.4-1.4c0,0,0,0,0-0.1l21.4-21.4l0,0
							c0.2,0.2,0.4,0.5,0.6,0.7C41.6,11.7,41.8,12,42,12.2C42.1,12.2,42.1,12.2,42,12.2z M47.4,10.6c-0.3,0.3-1.8,1.5-3.8,0.1l0,0
							l-1.3-1.3c0,0,0,0-0.1-0.1c-1.4-2-0.1-3.5,0.3-3.9c0.3,0.3,0.6,0.6,1,1.1l3,3c0.4,0.4,0.8,0.8,1.1,1.1
							C47.5,10.5,47.4,10.6,47.4,10.6z M49.1,9l-5.2-5.2l1.2-1.2c0.3,0.3,0.7,0.6,1.1,1.1l3,3c0.4,0.4,0.8,0.8,1.1,1.1L49.1,9z"/>
						<path id="Path" fill="#E3000F" d="M14.5,34.3c-0.4,0.4-0.4,1.1,0,1.5c1.7,1.6,3.6,3.4,4.4,4.3c-0.7,0.7-2.2,2-4.3,3.1
							c-0.5,0.3-0.7,0.9-0.4,1.4c0.2,0.3,0.5,0.6,0.9,0.6c0.2,0,0.3,0,0.5-0.1c1.2-0.6,5.9-3.5,5.6-5.1c0-0.5-0.1-0.6-5.3-5.6
							C15.5,33.9,14.9,33.9,14.5,34.3z"/>
					</g>
					<g id="Path_1_" transform="translate(0.000000, 218.000000)">
						<path fill="#E3000F" d="M28.5,5.3c-0.4-0.1-0.8-0.6-0.7-1.1c0-0.2,0.1-0.4,0.3-1.4c0.5-1.7,2.9-2.5,4.6-2
							c2.1,0.6,3.4,2.7,3,4.1c-0.2,0.6-0.3,0.9-0.3,1.1v0.1c-0.1,0.5-0.7,0.8-1.2,0.7c-0.5-0.1-0.8-0.7-0.7-1.2c0-0.1,0-0.1,0.1-0.2
							c0-0.2,0.1-0.4,0.3-1C34,4.1,33.4,3,32.3,2.8c-1.1-0.3-2.1,0.3-2.2,0.7c-0.2,0.6-0.3,1-0.3,1c0,0.5-0.5,0.9-1.1,0.9
							C28.6,5.3,28.5,5.3,28.5,5.3z"/>
						<path fill="#E3000F" d="M39.6,30.3L12,22.9c-2.9-0.8-4.6-2.7-5.3-5.7c-0.6-2.5-0.3-5.2,0-7.6c0.1-0.5,0.6-0.9,1.1-0.9
							c0.5,0.1,0.9,0.6,0.9,1.1c-0.3,2.2-0.5,4.8,0,7c0.5,2.3,1.8,3.6,3.9,4.2l27.6,7.4c2.1,0.6,3.9,0,5.5-1.7c1.5-1.7,2.6-4,3.5-6
							c0.2-0.5,0.8-0.7,1.3-0.5c0.5,0.2,0.7,0.8,0.5,1.3c-1,2.2-2.1,4.7-3.8,6.6C44.9,30.3,42.4,31.1,39.6,30.3z"/>
						<path fill="#E3000F" d="M53.3,21.8L4.4,8.7C3.9,8.6,3.6,8,3.7,7.5C3.8,7,4.4,6.7,4.9,6.8l48.9,13.1c0.5,0.1,0.8,0.7,0.7,1.2
							C54.3,21.7,53.8,22,53.3,21.8z"/>
						<path fill="#E3000F" d="M50.3,20L50.3,20c-0.6-0.2-0.9-0.8-0.7-1.3c0-0.1,0.1-0.3-0.1-0.8c-1.7-3.5-13.2-8.7-16.6-9.8
							l-4.5-1.2C26.8,6.6,22,6.1,17.5,6.1C9.7,6.2,9.1,7.8,9,8C8.9,8.5,8.3,8.8,7.8,8.7C7.3,8.6,7,8,7.1,7.5
							C7.7,5.3,11,4.2,17.4,4.2c4.5,0,9.5,0.5,11.3,0.8c0,0,0,0,0.1,0l4.6,1.2c0,0,0,0,0.1,0c2,0.7,15.5,6.2,17.8,10.9
							c0.4,0.8,0.5,1.6,0.2,2.4C51.4,19.8,50.8,20.1,50.3,20z"/>
						<path fill="#E3000F" d="M36.5,41.7L9,34.3c-2.9-0.8-4.6-2.7-5.3-5.7c-0.6-2.5-0.3-5.199,0-7.6c0.1-0.5,0.6-0.9,1.1-0.9
							c0.5,0.1,0.9,0.6,0.9,1.1c-0.3,2.2-0.5,4.8,0,7c0.5,2.3,1.8,3.6,3.9,4.2L37.2,39.8c2.1,0.601,3.9,0,5.5-1.7
							c1.5-1.699,2.6-4,3.5-6c0.2-0.5,0.8-0.699,1.3-0.5C48,31.8,48.2,32.4,48,32.9c-1,2.199-2.1,4.699-3.8,6.6
							C41.9,41.7,39.4,42.5,36.5,41.7z"/>
						<path fill="#E3000F" d="M50.2,33.2L1.3,20.1c-0.5-0.1-0.8-0.7-0.7-1.2s0.7-0.8,1.2-0.7l48.9,13.1c0.5,0.101,0.8,0.7,0.7,1.2
							S50.7,33.3,50.2,33.2z"/>
					</g>
					<path id="Shape_1_" fill="#E3000F" d="M42,435.1c-7.1-8.5-18.6-11-28-5.899C4.9,434,0.4,445.3,3.2,455.9
						c-1.8,1.8-2.2,4.8-0.8,7.399l0.2,0.2l11.2,10.7c0.2,0.2,0.6,0.3,0.9,0.1l1-0.5l0.5,3.5c0.3,1.9,2.1,3.2,4,2.9
						c0.4-0.101,0.7-0.2,1-0.3c0.5-0.2,0.9-0.601,1.2-1c0.5-0.801,0.7-1.7,0.6-2.601l-1-5.8l21.7-11.6L48,463c1.1,1.1,2.7,1.3,4,0.6
						c0.3-0.199,0.6-0.399,0.9-0.699c0.6-0.7,0.9-1.5,0.9-2.5s-0.4-1.801-1.1-2.5l-2.6-2.4l1.4-0.7c0.3-0.2,0.5-0.5,0.4-0.8
						L49,438.8c0-0.1,0-0.2-0.1-0.3C47.5,435.8,44.5,434.4,42,435.1z M14.7,430.6c8.7-4.6,19.2-2.5,25.8,5.2
						c-2.4,1.601-3.1,5.101-1.5,8l2.5,4.7c-2.9,0.3-10.5,1.4-15.1,3.8c-5.8,3.101-10,8.2-11.6,10.3l-2.5-4.6c-1.6-3-5-4.4-7.7-3.1
						C2.2,445.2,6.4,435,14.7,430.6z M21.4,476.5c0.1,0.5,0,1-0.3,1.4c-0.3,0.399-0.7,0.699-1.2,0.8c-1,0.2-2-0.601-2.2-1.601
						l-0.6-4.1l3.4-1.8L21.4,476.5z M51.4,459.1c0.4,0.4,0.6,0.801,0.6,1.301s-0.2,1-0.5,1.399c-0.7,0.8-1.9,0.8-2.6,0l-3.8-3.7
						l3.4-1.8L51.4,459.1z M50,453.7l-35.6,19L3.7,462.5c-1.1-2.3-0.5-5,1.4-6c2-1.1,4.6,0,5.8,2.3l3,5.8c0.1,0.2,0.4,0.4,0.6,0.4
						c0.3,0,0.5-0.1,0.7-0.3c0-0.101,4.8-7.101,11.8-10.9c5.4-2.899,15.6-3.8,15.7-3.8c0.3,0,0.5-0.2,0.6-0.4
						c0.1-0.199,0.1-0.5,0-0.8l-3.1-5.7c-1.2-2.3-0.6-5.1,1.4-6.1c1.9-1,4.5-0.1,5.8,2.2L50,453.7z"/>
				</g>
				<g id="Group_1_" transform="translate(88.000000, 110.000000)">
					<g id="Shape_2_" transform="translate(7.000000, 0.000000)">
						<path fill="#E3000F" d="M30.3,7.3c9.1,3.2,14.2,13.5,11.1,22.5C38.2,39.1,27.9,44.3,18.7,41c-9.6-3.4-14.3-13.3-11-23
							C10.8,9,21.3,4.1,30.3,7.3z M38,32.3c1.4-1.4,1.8-3.2,2.1-4.8c-6.6-12.6-21.5-15-30.4-9.9c-0.4,1.4-0.8,3-1.2,4.9
							c1.3-0.2,2-0.4,2.8-0.5c3.1-0.5,6.1-0.4,8,2.5c1.9,2.9,1.1,5.7-0.4,8.5c-0.5,0.9-1.3,1.8-1.9,2.6c-0.4,0.5-0.9,1.1-1.4,1.8
							c2.4,1.9,5,2.8,7.7,2.8c0.3-2.8,0.2-5.3,0.9-7.6c1.5-5.4,6.7-6.8,11-3.1C36.1,30.1,36.9,31.2,38,32.3z M40.2,24
							c0.2-7.5-5.3-14-12.4-15.5c-6.1-1.3-13.4,1.5-15.2,5.8C23.6,11.6,32.7,14.7,40.2,24z M13.6,35.9c2.7-2,4.2-4.3,4.7-7.1
							c0.6-2.8-1-5-3.8-5.3c-2.1-0.2-4.1,0-6.1,1.2C8.7,29.1,10.3,32.8,13.6,35.9z M36.7,34.3c-1.2-2.2-2.5-3.7-4.4-4.7
							c-2.3-1.2-4.7-0.5-5.8,1.7c-1.4,2.7-1.8,5.6-0.7,8.8C30.3,39.6,33.8,37.7,36.7,34.3z"/>
						<path fill="#E3000F" d="M26.5,18.8c2.1,0.8,2.9,3.1,2,5.2c-0.8,1.9-3.1,2.8-5,2s-2.8-3-2.1-4.9C22.2,18.9,24.4,18,26.5,18.8z
							 M27,23.1c0.4-1.1-0.2-2.2-1.4-2.6c-1.1-0.4-2.3,0.2-2.6,1.2s0.4,2.3,1.4,2.7C25.4,24.7,26.7,24.1,27,23.1z"/>
						<path fill="#E3000F" d="M16.8,46.4C4.4,42.2-2.2,28.6,2,16.2C6.2,3.8,19.8-2.8,32.2,1.4c12.4,4.2,19,17.8,14.8,30.2
							S29.2,50.6,16.8,46.4z M31.6,3.1C20.1-0.8,7.6,5.3,3.7,16.8c-3.9,11.5,2.2,24,13.7,27.9c11.5,3.9,24-2.2,27.9-13.7
							C49.3,19.5,43.1,7,31.6,3.1z"/>
					</g>
					<path id="Shape_3_" fill="#E3000F" d="M51.4,212.3l-16.5,4.5c-1.6-4.399-6.4-6.899-11-5.6c-4.6,1.2-7.5,5.8-6.7,10.399
						L1.3,225.9C0.8,226,0.5,226.6,0.6,227l9.8,36.3c0.1,0.5,0.7,0.8,1.1,0.7l50.2-13.6c0.5-0.101,0.8-0.7,0.7-1.101L52.6,213
						C52.5,212.4,51.9,212.1,51.4,212.3z M41.1,217l9.3,34.5l-29,7.8l-9.3-34.5L41.1,217z M24.4,212.9c3.6-1,7.3,0.899,8.7,4.3
						L19,221C18.5,217.4,20.7,213.9,24.4,212.9z M2.7,227.4l7.6-2.101l9.3,34.5L12,261.9L2.7,227.4z M60.4,248.9l-8.1,2.199
						L43,216.6l8.1-2.199L60.4,248.9z"/>
				</g>
				<g id="Group_2_" transform="translate(185.000000, 1.000000)">
					<path id="Shape_4_" fill="#E3000F" d="M27.5,480c-10,0.1-17.7-4.2-22.9-12.7c-0.5-0.8-1-1.6-1.4-2.5c-0.6-2.3-1.2-4.5-1.8-6.8
						c0-1,0-2,0-3c0.3-10,4.7-17.7,13.6-22.3c11.3-6,25.2-2.4,32.4,8.5c8.8,13.3,3.1,30.6-10.5,36.7c-0.2,0.1-0.4,0.3-0.5,0.5
						c-2.3,0.6-4.5,1.199-6.8,1.8C28.9,480.1,28.2,480,27.5,480z M19.4,461c-0.7-2.6-1.4-5.1-2.1-7.7c-2.6-0.7-5.3-1.3-8-2
						c-1.9,1.9-3.8,3.7-5.8,5.601c0.3,1.399,0.6,2.699,0.9,4c0.3,1.3,0.7,2.5,1,3.899c2.7,0.7,5.2,1.3,7.9,2
						C15.5,464.8,17.4,462.9,19.4,461z M35.4,456.7c-0.7-2.601-1.4-5.2-2.1-7.9c-2.6-0.6-5.2-1.3-7.9-2c-2,2-4,3.8-5.9,5.7
						c0.7,2.6,1.4,5.1,2.1,7.8c2.6,0.7,5.2,1.3,8,2C31.6,460.5,33.5,458.6,35.4,456.7z M14.2,435.7c-2.6,1.399-4.2,3.8-6.3,5.6
						c0.7,2.7,1.4,5.2,2.1,7.8c2.6,0.7,5.2,1.301,7.9,2c2-1.899,3.9-3.899,5.9-5.8c-0.7-2.6-1.4-5.1-2.1-7.7
						C19.2,437,16.8,436.4,14.2,435.7z M20.8,462.6c-1.9,1.801-3.8,3.7-5.7,5.601c0.7,2.5,1.3,5,2.1,7.7c2.6,0.8,5.3,1.6,8.1,2
						c2-1.9,3.9-3.7,5.8-5.601c-0.7-2.5-1.4-5.1-2.1-7.8C26.2,463.8,23.6,463.2,20.8,462.6z M26,444.7c2.6,0.7,5.3,1.399,8.1,2.1
						c2-1.899,3.9-3.8,6-5.8c-0.3-1.9-0.9-3.6-1.4-5.5c-2.9-1.9-6-2.9-9.6-3.4c-1.7,1.601-3.4,3.2-5.1,4.9
						C24.6,439.7,25.3,442.1,26,444.7z M45.2,460.2c-2.6-0.7-5.3-1.4-8-2.101c-2,2-4,3.801-6.1,5.9c0.3,1.2,0.6,2.4,1,3.7
						c0.3,1.3,0.7,2.5,1,3.899c2.3,0.601,4.5,1.2,6.6,1.7c2.5-1.2,5.3-4.399,6.9-7.7C46.2,463.9,45.7,462.2,45.2,460.2z M37.8,456.1
						c2.6,0.7,5.2,1.301,8,2c1.2-1.199,2.5-2.399,3.7-3.6c-0.2-3.8-1.1-7.3-2.9-10.7c-1.6-0.399-3.2-0.8-5-1.3
						c-1.9,1.8-3.9,3.7-5.9,5.7C36.4,450.9,37.1,453.5,37.8,456.1z M6.2,444.4C4.7,447.3,3.9,450.1,3.7,453.3
						c1-0.399,1.5-1.2,2.1-1.7c0.6-0.5,1.2-1.199,1.9-1.8C7.2,447.9,6.7,446.3,6.2,444.4z M12.8,468.8c-1.6-0.399-3.3-0.8-5.3-1.3
						c1.8,2.9,3.9,4.9,6.8,6.7C13.7,472.2,13.2,470.6,12.8,468.8z M16.7,434.1c1.2,0.301,2,0.601,2.9,0.801
						c0.9,0.199,1.8,0.399,2.8,0.699c1.1-1,2.2-2.1,3.6-3.399C22.7,432,19.9,433.1,16.7,434.1z M32.6,473.8
						c-1.3,1.3-2.6,2.5-3.9,3.7c2.5,0,6.7-1.3,8.5-2.6C35.6,474.5,34.1,474.2,32.6,473.8z M41.3,437.3c0.3,1.3,0.6,2.101,0.8,3.101
						c0.7,0.199,1.5,0.399,2.3,0.6c0.1-0.1,0.1-0.2,0.2-0.2C43.6,439.8,42.7,438.7,41.3,437.3z M47.3,459.6
						c0.3,0.9,0.5,1.801,0.8,3.101c0.4-1.8,0.8-3.2,1.1-4.601c-0.1,0-0.2-0.1-0.3-0.1C48.4,458.6,47.8,459.1,47.3,459.6z"/>
					<g id="Shape_5_" transform="translate(10.000000, 0.000000)">
						<path fill="#E3000F" d="M1,20.4c3.2,12,22.3,26.8,23.1,27.4c0.2,0.2,0.6,0.2,0.8,0.2c0.3-0.1,0.5-0.3,0.6-0.6
							c0.4-0.9,9.5-23.2,6.3-35.3C29.5,3.6,20.7-1.5,12.3,0.8C3.9,3.1-1.3,11.9,1,20.4z M2.9,19.9c-2-7.5,2.4-15.2,9.9-17.2
							S28,5.1,30,12.6c2.7,9.9-3.9,28.1-5.7,32.9C20.3,42.3,5.5,29.8,2.9,19.9z"/>
						<path fill="#E3000F" d="M9.9,17.1c0.9,3.5,4.5,5.6,8,4.6c3.5-0.9,5.6-4.5,4.6-8c-0.9-3.5-4.5-5.6-8-4.6
							C11,10,8.9,13.6,9.9,17.1z M11.7,16.6c-0.7-2.5,0.8-5,3.3-5.7c2.5-0.7,5,0.8,5.7,3.3c0.7,2.5-0.8,5-3.3,5.7
							C14.9,20.6,12.4,19.1,11.7,16.6z"/>
					</g>
					<g id="Path_2_" transform="translate(0.000000, 212.000000)">
						<path fill="#E3000F" d="M48.4,45c-0.4-0.2-0.9-0.2-1.1,0.2c-4.5,6.7-15.5,9.399-26.2,6.6C10,48.8,2.1,41.1,1.9,33
							c0-0.5-0.4-0.8-0.8-0.8c-0.5,0-0.8,0.399-0.8,0.8c0.2,8.8,8.6,17.1,20.4,20.3c11.3,3,23.1,0,28-7.3
							C48.9,45.8,48.8,45.3,48.4,45z"/>
						<path fill="#E3000F" d="M28.2,24.9c2.5,0.7,5.2,0,6.3-1.7c0.2-0.4,0.2-0.9-0.2-1.1c-0.4-0.2-0.9-0.2-1.1,0.2
							c-0.7,1.1-2.7,1.6-4.5,1.1c-1.9-0.5-3.3-1.8-3.4-3.2c0-0.5-0.4-0.8-0.8-0.8c-0.5,0-0.8,0.4-0.8,0.8
							C23.6,22.2,25.5,24.2,28.2,24.9z"/>
						<path fill="#E3000F" d="M13.5,29.5l-3.4,10.1c-0.1,0.4,0.1,0.9,0.5,1l0,0c0.4,0.101,0.8-0.1,1-0.5L15,30l0,0
							c0.4-1.5,2-2.5,3.6-2.1l17.2,4.6c1.6,0.4,2.6,2.1,2.1,3.7l0,0l-2.3,10.3c-0.1,0.5,0.2,0.9,0.6,1c0.5,0.1,0.9-0.2,1-0.6
							L39.5,36.6c0.7-2.5-0.8-5-3.3-5.699L19.1,26.3C16.7,25.6,14.2,27.1,13.5,29.5z"/>
						<path fill="#E3000F" d="M52.6,37.5c1.4-12.1-6.4-14.2-6.5-14.3c-0.1,0-0.1,0-0.2,0c-0.1-0.1-0.2-0.3-0.3-0.4
							c-1.3-1.9-3.4-2.3-3.8-2.3L24.9,16c0-2.7-0.8-12.2-12.1-15.3c-2.9-0.8-4.5,1.8-6.6,5c-0.9,1.5-2,3.2-3.3,4.9
							c-1,1.2-1.3,3-0.9,4.4c0.5,1.4,1.5,2.5,3.1,2.9C5.4,18,5.7,18,6,17.8l6.6-2.9L7,35.9c-0.1,0.399,0.1,0.899,0.6,1
							C8,37,8.5,36.8,8.6,36.3l6.1-22.6c0.1-0.3,0-0.6-0.3-0.8c-0.2-0.2-0.6-0.3-0.9-0.1l-7.9,3.6c-1.2-0.4-1.7-1.2-1.9-1.8
							c-0.3-1-0.1-2.1,0.6-2.9c1.4-1.8,2.5-3.5,3.5-5c2-3.2,3.1-4.8,4.7-4.3c11.8,3.2,11,13.8,10.9,14.3c0,0.4,0.2,0.8,0.6,0.9
							l17.6,4.7h0.1c0,0,1.7,0.2,2.7,1.6c0.6,0.9,0.8,2,0.7,3.4c0,0.1,0,0.1,0,0.2c-0.1,0.6-0.2,1.1-0.3,1.8l-4.2,15.8
							c-0.1,0.4,0.1,0.9,0.6,1c0.5,0.101,0.9-0.1,1-0.6l4.2-15.8c0.1-0.3,0.2-0.601,0.2-0.9c1,0.8,2.5,3,1.9,8.3
							c0,0.4,0.2,0.801,0.6,0.9h0.1c0.4,0,0.9-0.3,0.9-0.7C51,30,48.2,27.7,46.8,27c0-0.6,0-1.1-0.1-1.6c1.7,0.9,5.4,3.8,4.4,12.1
							c0,0.4,0.2,0.8,0.6,0.9h0.1C52.2,38.3,52.6,37.9,52.6,37.5z"/>
					</g>
				</g>
				<g id="Group_3_" transform="translate(275.000000, 109.000000)">
					<path id="Shape_6_" fill="#E3000F" d="M46.6,215.9c-3.399-2.2-6.899-2.9-10.1-2c-0.3,0.1-0.5,0.399-0.6,0.699l-1.2,20.2
						l-19.8,5.3c-0.4-1.3-1.3-3.699-3.2-5c-1.1-0.699-2.3-0.899-3.7-0.6c-0.8-1.7-2.7-2.6-4.5-2.1c-2,0.5-3.2,2.699-2.7,4.8
						c0.6,2.1,2.7,3.3,4.7,2.8c1.8-0.5,2.9-2.1,2.8-3.9c1-0.199,1.8-0.1,2.5,0.4c1.7,1.1,2.5,3.7,2.6,4.5c0,0.1,0,0.3,0.1,0.5
						c3.4,7.2,9.4,12.1,16.2,13.7c-2.3,1-3.601,3.6-2.9,6.1c0.7,2.8,3.601,4.4,6.3,3.7c2.7-0.7,4.301-3.6,3.601-6.3
						c-0.3-1.2-1.101-2.2-2-2.9c1.8,0,3.6-0.2,5.399-0.7c2.101-0.6,4-1.5,5.7-2.6c-0.6,1.1-0.8,2.6-0.5,3.9
						c0.7,2.8,3.601,4.399,6.3,3.699c2.7-0.699,4.301-3.6,3.601-6.3c-0.7-2.8-3.601-4.399-6.3-3.7H48.8
						c4.9-4.699,7.9-11.899,7.5-19.699c0-0.101,0-0.2,0-0.301C55.4,224.8,51.3,218.9,46.6,215.9z M5.1,238.3
						c-1.2,0.3-2.5-0.399-2.8-1.7c-0.3-1.3,0.4-2.5,1.6-2.8c1.2-0.3,2.5,0.4,2.8,1.7C7.1,236.7,6.3,238,5.1,238.3z M32.7,263.3
						c-1.9,0.5-3.8-0.6-4.4-2.6c-0.5-1.9,0.601-3.9,2.5-4.4c1.9-0.5,3.8,0.601,4.4,2.601C35.7,260.8,34.6,262.8,32.7,263.3z
						 M53.6,253.9c0.5,1.899-0.6,3.899-2.5,4.399c-1.899,0.5-3.8-0.6-4.399-2.6c-0.5-1.9,0.6-3.9,2.5-4.4
						C51.2,250.8,53.1,252,53.6,253.9z M37.4,215.2c3.3-0.7,6.3,0.7,8.3,2c4.2,2.7,7.8,7.7,8.899,12.2L36.2,234.3L37.4,215.2z
						 M39.6,253.3c-9.399,2.5-19.3-2.3-24.2-11.8L54.8,231C54.9,241.6,48.6,250.9,39.6,253.3z"/>
					<g transform="translate(3.000000, 0.000000)">
						<path id="Shape_7_" fill="#E3000F" d="M30.8,1.8c0.4,0,0.7,0.1,1,0.4c0.2,0.2,0.3,0.5,0.3,0.9c0,1.3,0.5,2.5,1.301,3.3
							C34.3,7.3,35.5,7.8,36.8,7.8c1,0,1.9-0.3,2.7-0.9c0.2-0.2,0.5-0.3,0.7-0.3c0.399,0,0.899,0.3,1.1,0.7c0.2,0.4,0.2,0.8,0,1.2
							c-0.8,1.5-0.8,3.2,0.101,4.6c0.899,1.4,2.399,2.3,4,2.3c0.199,0,0.399,0,0.6,0c0.1,0,0.1,0,0.2,0c0.7,0,1,0.5,1.2,0.9
							c0.1,0.3,0.199,0.9-0.5,1.4c-1.5,1-2.2,2.7-2,4.4c0.199,1.8,1.399,3.2,3.1,3.8c0.9,0.3,0.9,1.1,0.8,1.3c0,0.2-0.2,1-1.1,1.1
							c-1.8,0.2-3.2,1.3-3.9,3c-0.6,1.7-0.3,3.5,0.9,4.8c0.5,0.5,0.399,1,0.2,1.3c-0.2,0.4-0.601,0.8-1.101,0.8
							c-0.2,0-0.3,0-0.5-0.1c-0.6-0.2-1.1-0.3-1.7-0.3c-1.399,0-2.8,0.7-3.699,1.8c-0.9,1.2-1.2,2.6-0.801,4
							c0.101,0.4,0,0.8-0.199,1.1C36.6,45,36.2,45.2,35.8,45.2c-0.3,0-0.7-0.2-0.899-0.5c-0.9-1-2.2-1.6-3.5-1.6
							c-2.2,0-4.101,1.5-4.601,3.6c-0.2,0.9-1,1-1.2,1c-0.199,0-1-0.1-1.199-1c-0.5-2.1-2.4-3.6-4.601-3.6c-1.4,0-2.6,0.6-3.5,1.6
							c-0.3,0.3-0.6,0.5-0.9,0.5c-0.4,0-0.8-0.2-1.1-0.5c-0.2-0.3-0.3-0.7-0.2-1.1c0.4-1.4,0.1-2.9-0.8-4c-0.9-1.2-2.3-1.8-3.7-1.8
							c-0.6,0-1.2,0.1-1.7,0.3c-0.2,0.1-0.3,0.1-0.5,0.1c-0.6,0-1-0.4-1.1-0.8c-0.1-0.3-0.2-0.8,0.2-1.3C7.7,34.8,8,33,7.4,31.3
							c-0.6-1.7-2.1-2.8-3.9-3c-0.9-0.1-1.1-0.9-1.1-1.1c0-0.2,0-1,0.8-1.3c1.7-0.6,2.8-2.1,3.1-3.8c0.2-1.8-0.6-3.5-2-4.4
							c-0.7-0.5-0.6-1.2-0.5-1.4c0.1-0.4,0.5-0.9,1.2-0.9c0.1,0,0.1,0,0.2,0c0.2,0,0.4,0,0.6,0c1.6,0,3.1-0.9,4-2.3
							c0.9-1.4,0.9-3.1,0.1-4.6c-0.2-0.4-0.2-0.8,0-1.2c0.2-0.4,0.7-0.7,1.1-0.7c0.3,0,0.5,0.1,0.7,0.3c0.8,0.6,1.7,0.9,2.7,0.9
							c1.2,0,2.5-0.5,3.4-1.4c0.9-0.9,1.3-2.1,1.3-3.3c0-0.4,0.1-0.7,0.3-0.9c0.3-0.3,0.6-0.4,1-0.4c0.3,0,0.8,0.1,1.1,0.7
							c0.8,1.6,2.4,2.6,4.2,2.6s3.399-1,4.2-2.6C30,1.9,30.4,1.8,30.8,1.8z M30.8,0c-1,0-2,0.5-2.6,1.6C27.6,2.7,26.6,3.2,25.5,3.2
							c-1,0-2.1-0.5-2.7-1.6C22.2,0.5,21.2,0,20.2,0c-1.5,0-3,1.1-3,3c0,1.8-1.4,3-3,3c-0.6,0-1.2-0.2-1.7-0.6
							c-0.6-0.4-1.2-0.6-1.7-0.6C8.8,4.8,7,7,8.2,9.2c1.1,2-0.4,4.4-2.6,4.4c-0.1,0-0.3,0-0.4,0c-0.2,0-0.3,0-0.4,0
							c-2.8,0-4.1,3.8-1.6,5.5c2,1.4,1.6,4.4-0.6,5.3c-3,1.1-2.4,5.4,0.7,5.8c2.4,0.3,3.5,3.2,1.9,5c-1.8,2-0.2,5,2.2,5
							c0.4,0,0.7-0.1,1.1-0.2s0.7-0.2,1.1-0.2c1.9,0,3.4,1.8,2.9,3.7c-0.6,2.1,1.1,3.7,2.9,3.7c0.8,0,1.6-0.3,2.2-1
							c0.6-0.7,1.4-1,2.2-1c1.3,0,2.601,0.8,2.9,2.3s1.6,2.3,2.899,2.3c1.301,0,2.5-0.8,2.9-2.3c0.3-1.5,1.6-2.3,2.9-2.3
							c0.8,0,1.6,0.3,2.199,1c0.601,0.7,1.4,1,2.2,1c1.8,0,3.5-1.6,2.9-3.7c-0.5-2,1-3.7,2.899-3.7c0.4,0,0.7,0.1,1.101,0.2
							c0.399,0.2,0.8,0.2,1.1,0.2c2.4,0,4-3,2.2-5c-1.6-1.8-0.5-4.7,1.9-5c3.1-0.3,3.699-4.7,0.699-5.8c-2.3-0.8-2.699-3.9-0.6-5.3
							c2.5-1.7,1.2-5.5-1.6-5.5c-0.101,0-0.301,0-0.4,0s-0.3,0-0.4,0c-2.199,0-3.699-2.4-2.6-4.4c1.2-2.2-0.6-4.4-2.6-4.4
							c-0.601,0-1.2,0.2-1.7,0.6S37.6,6,37,6c-1.5,0-3-1.2-3-3C33.8,1.2,32.3,0,30.8,0z"/>
						<g transform="translate(16.000000, 16.000000)">
							<path id="Shape_8_" fill="#E3000F" d="M5,8.5c-2.3,0-4.2-1.9-4.2-4.2C0.8,2,2.7,0.1,5,0.1S9.2,2,9.2,4.3
								C9.2,6.6,7.3,8.5,5,8.5z M5,1.9C3.6,1.9,2.5,3,2.5,4.4S3.6,6.9,5,6.9c1.4,0,2.5-1.1,2.5-2.5S6.3,1.9,5,1.9z"/>
							<path id="Shape_9_" fill="#E3000F" d="M15.4,17.8c-2.301,0-4.2-1.9-4.2-4.2c0-2.3,1.899-4.2,4.2-4.2
								c2.3,0,4.199,1.9,4.199,4.2C19.6,15.9,17.7,17.8,15.4,17.8z M15.4,11.2c-1.4,0-2.5,1.1-2.5,2.5c0,1.4,1.1,2.5,2.5,2.5
								c1.399,0,2.5-1.1,2.5-2.5C17.9,12.3,16.8,11.2,15.4,11.2z"/>
							<path id="Path_3_" fill="#E3000F" d="M2.8,17.4c-0.2,0-0.4-0.1-0.6-0.3c-0.3-0.3-0.3-0.9,0-1.2L16.8,1.3
								C17.1,1,17.7,1,18,1.3c0.3,0.3,0.3,0.9,0,1.2L3.4,17.1C3.3,17.3,3,17.4,2.8,17.4z"/>
						</g>
					</g>
				</g>
				<g id="Group_4_" transform="translate(372.000000, 1.000000)">
					<g transform="translate(1.000000, 0.000000)">
						<path id="Shape_10_" fill="#E3000F" d="M50.7,5.8l-3-3c-1.9-1.9-2.601-2.6-3.4-1.7l-2.6,2.6C41.6,3.8,41.5,4,41.4,4.1
							c-0.2,0.1-0.301,0.3-0.5,0.4c0,0-2.2,2.2-1.301,5c-0.199,0.1-0.3,0.2-0.5,0.4L17.7,31.3l0,0L12.6,26.2
							c-0.3-0.3-1.5-1.3-3.199,0.2C9.1,26.7,4.8,31.4,4.8,31.5c-4,4.9-6.6,11.8-1.7,16.7c1.9,1.9,4.2,2.7,6.5,2.7
							c4,0,8-2.2,10.2-3.9c0.5-0.3,2.2-1.6,3.4-2.5c3.3-2.6,3.399-3,3.399-3.6c-0.1-0.5-0.3-0.9-0.6-1.2l-3.9-3.9l0,0l21.4-21.4
							c0.2-0.2,0.3-0.3,0.4-0.5c0.5,0.2,1,0.3,1.5,0.3l0,0c1.8,0,3.1-1.1,3.3-1.3c0.2-0.1,0.399-0.4,0.7-0.7
							c0.1,0,0.199-0.1,0.3-0.2l2.6-2.6c0.2-0.2,0.3-0.5,0.3-0.7C52.7,8.1,52.7,7.8,50.7,5.8z M24.4,40.8
							C23.2,42,19.3,44.9,18.8,45.2l-0.1,0.1c-0.101,0-4.5,3.5-9,3.5c-1.8,0-3.601-0.6-5.101-2.1C-0.5,41.6,5.2,34.2,6.4,32.8
							C6.7,32.5,10.6,28.2,10.8,28s0.3-0.3,0.4-0.3l6.399,6.4c0.101,0.1,0.101,0.2,0.2,0.2l1.3,1.3c0.101,0.1,0.2,0.1,0.2,0.2
							L24.4,40.8z M42,12.8L20.6,34.2c0,0,0,0-0.1,0l-1.4-1.4c0,0,0,0,0-0.1l21.4-21.4l0,0c0.2,0.2,0.4,0.5,0.6,0.7
							C41.6,12.4,41.8,12.6,42,12.8C42.1,12.8,42.1,12.8,42,12.8z M47.4,11.2C47.1,11.5,45.6,12.7,43.6,11.3l0,0L42.3,10
							c0,0,0,0-0.1-0.1c-1.4-2-0.101-3.5,0.3-3.9c0.3,0.3,0.6,0.6,1,1.1l3,3c0.4,0.4,0.8,0.8,1.1,1.1C47.5,11.1,47.4,11.2,47.4,11.2
							z M49.1,9.6L43.9,4.4L45.1,3.2C45.4,3.5,45.8,3.8,46.2,4.3l3,3C49.6,7.7,50,8.1,50.3,8.4L49.1,9.6z"/>
						<path id="Path_4_" fill="#E3000F" d="M14.5,34.9c-0.4,0.4-0.4,1.1,0,1.5c1.7,1.6,3.6,3.4,4.4,4.3c-0.7,0.7-2.2,2-4.301,3.1
							c-0.5,0.3-0.699,0.9-0.399,1.4c0.2,0.3,0.5,0.6,0.899,0.6c0.2,0,0.301,0,0.5-0.1c1.2-0.6,5.9-3.5,5.601-5.1
							c0-0.5-0.101-0.6-5.3-5.6C15.5,34.5,14.9,34.5,14.5,34.9z"/>
					</g>
					<g id="Path_5_" transform="translate(0.000000, 219.000000)">
						<path fill="#E3000F" d="M28.5,4.9c-0.4-0.1-0.8-0.6-0.7-1.1c0-0.2,0.101-0.4,0.3-1.4c0.5-1.7,2.9-2.5,4.601-2
							c2.1,0.6,3.399,2.7,3,4.1c-0.2,0.6-0.3,0.9-0.3,1.1v0.1c-0.101,0.5-0.7,0.8-1.2,0.7s-0.8-0.7-0.7-1.2c0-0.1,0-0.1,0.1-0.2
							c0-0.2,0.101-0.4,0.301-1C34,3.7,33.4,2.6,32.3,2.4c-1.1-0.3-2.1,0.3-2.2,0.7c-0.199,0.6-0.3,1-0.3,1c0,0.5-0.5,0.9-1.1,0.9
							C28.6,4.9,28.5,4.9,28.5,4.9z"/>
						<path fill="#E3000F" d="M39.6,29.9L12,22.5c-2.9-0.8-4.6-2.7-5.3-5.7c-0.601-2.5-0.3-5.2,0-7.6c0.1-0.5,0.6-0.9,1.1-0.9
							c0.5,0.1,0.9,0.6,0.9,1.1c-0.3,2.2-0.5,4.8,0,7c0.5,2.3,1.8,3.6,3.899,4.2L40.2,28c2.1,0.6,3.899,0,5.5-1.7
							c1.5-1.7,2.6-4,3.5-6c0.2-0.5,0.8-0.7,1.3-0.5c0.5,0.2,0.7,0.8,0.5,1.3c-1,2.2-2.1,4.7-3.8,6.6C44.9,29.9,42.4,30.7,39.6,29.9
							z"/>
						<path fill="#E3000F" d="M53.3,21.5L4.4,8.4C3.9,8.3,3.6,7.7,3.7,7.2c0.1-0.5,0.7-0.8,1.2-0.7L53.8,19.6
							c0.5,0.1,0.8,0.7,0.7,1.2C54.3,21.3,53.8,21.6,53.3,21.5z"/>
						<path fill="#E3000F" d="M50.3,19.6L50.3,19.6c-0.6-0.2-0.899-0.8-0.7-1.3c0-0.1,0.101-0.3-0.1-0.8C47.8,14,36.3,8.8,32.9,7.7
							l-4.5-1.2C26.8,6.2,22,5.7,17.5,5.7C9.7,5.8,9.1,7.4,9,7.6C8.9,8.1,8.3,8.4,7.8,8.3C7.3,8.2,7,7.6,7.1,7.1
							C7.7,4.9,11,3.8,17.4,3.8c4.5,0,9.5,0.5,11.3,0.8c0,0,0,0,0.1,0L33.4,5.8c0,0,0,0,0.1,0c2,0.7,15.5,6.2,17.8,10.9
							c0.4,0.8,0.5,1.6,0.2,2.4C51.4,19.5,50.8,19.7,50.3,19.6z"/>
						<path fill="#E3000F" d="M36.5,41.3L8.9,33.9C6,33.1,4.3,31.2,3.6,28.2c-0.6-2.5-0.3-5.2,0-7.6C3.7,20.1,4.2,19.7,4.7,19.7
							C5.2,19.8,5.6,20.3,5.6,20.8c-0.3,2.2-0.5,4.8,0,7C6.1,30.1,7.4,31.4,9.5,32l27.6,7.4c2.101,0.6,3.9,0,5.5-1.7
							c1.5-1.7,2.601-4,3.5-6c0.2-0.5,0.801-0.7,1.301-0.5s0.699,0.8,0.5,1.3c-1,2.2-2.101,4.7-3.801,6.6
							C41.9,41.3,39.4,42.1,36.5,41.3z"/>
						<path fill="#E3000F" d="M50.2,32.8L1.3,19.7c-0.5-0.1-0.8-0.7-0.7-1.2C0.7,18,1.3,17.7,1.8,17.8L50.7,30.9
							c0.5,0.1,0.8,0.699,0.7,1.199C51.3,32.6,50.7,32.9,50.2,32.8z"/>
					</g>
					<path id="Shape_11_" fill="#E3000F" d="M42,435.7c-7.1-8.5-18.6-11-28-5.9C4.9,434.6,0.4,445.9,3.2,456.5
						c-1.8,1.8-2.2,4.8-0.8,7.4L2.6,464.1l11.2,10.7c0.2,0.2,0.601,0.3,0.9,0.101l1-0.5l0.5,3.5c0.3,1.899,2.1,3.199,4,2.899
						c0.399-0.1,0.7-0.2,1-0.3c0.5-0.2,0.899-0.6,1.2-1c0.5-0.8,0.699-1.7,0.6-2.6l-1-5.801l21.7-11.6l4.3,4.1
						c1.1,1.101,2.7,1.301,4,0.601c0.3-0.2,0.6-0.4,0.9-0.7c0.6-0.7,0.899-1.5,0.899-2.5c0-0.9-0.399-1.8-1.1-2.5l-2.601-2.4
						l1.4-0.699c0.3-0.2,0.5-0.5,0.4-0.801L49.3,439.3c0-0.1,0-0.2-0.1-0.3C47.5,436.4,44.5,435,42,435.7z M14.7,431.2
						c8.7-4.601,19.2-2.5,25.8,5.2c-2.4,1.6-3.1,5.1-1.5,8l2.5,4.699c-2.9,0.301-10.5,1.4-15.1,3.801
						C20.6,456,16.4,461.1,14.8,463.2l-2.5-4.601c-1.6-3-5-4.399-7.7-3.1C2.2,445.8,6.4,435.6,14.7,431.2z M21.4,477.1
						c0.1,0.5,0,1-0.301,1.4c-0.3,0.4-0.699,0.7-1.199,0.8c-1,0.2-2-0.6-2.2-1.6L17.1,473.6l3.4-1.8L21.4,477.1z M51.4,459.7
						C51.8,460.1,52,460.5,52,461s-0.2,1-0.5,1.4c-0.7,0.8-1.9,0.8-2.6,0l-3.801-3.7l3.4-1.8L51.4,459.7z M50,454.3l-35.6,19
						L3.7,463.1c-1.101-2.3-0.5-5,1.399-6c2-1.1,4.601,0,5.801,2.301l3,5.8c0.1,0.2,0.399,0.399,0.6,0.399c0.3,0,0.5-0.1,0.7-0.3
						c0-0.1,4.8-7.1,11.8-10.899c5.4-2.9,15.6-3.801,15.7-3.801c0.3,0,0.5-0.199,0.6-0.399c0.101-0.2,0.101-0.5,0-0.8l-3.1-5.7
						C39,441.4,39.6,438.6,41.6,437.6c1.9-1,4.5-0.1,5.801,2.2L50,454.3z"/>
				</g>
				<g id="Group_5_" transform="translate(460.000000, 110.000000)">
					<g id="Shape_12_" transform="translate(7.000000, 0.000000)">
						<path fill="#E3000F" d="M30.3,7.9C39.4,11.1,44.5,21.4,41.4,30.4c-3.2,9.3-13.5,14.5-22.7,11.2c-9.601-3.4-14.3-13.3-11-23
							C10.8,9.6,21.3,4.7,30.3,7.9z M38,32.9c1.4-1.4,1.8-3.2,2.1-4.8c-6.6-12.6-21.5-15-30.399-9.9c-0.4,1.4-0.8,3-1.2,4.9
							c1.3-0.2,2-0.4,2.8-0.5c3.101-0.5,6.101-0.4,8,2.5c1.9,2.9,1.101,5.7-0.399,8.5c-0.5,0.9-1.301,1.8-1.9,2.6
							c-0.4,0.5-0.9,1.1-1.4,1.8c2.4,1.9,5,2.8,7.7,2.8c0.3-2.8,0.2-5.3,0.9-7.6c1.5-5.4,6.7-6.8,11-3.1
							C36.1,30.7,36.9,31.8,38,32.9z M40.2,24.6c0.2-7.5-5.3-14-12.4-15.5c-6.1-1.3-13.399,1.5-15.2,5.8
							C23.6,12.2,32.7,15.3,40.2,24.6z M13.6,36.5c2.7-2,4.2-4.3,4.7-7.1c0.601-2.8-1-5-3.8-5.3c-2.1-0.2-4.1,0-6.1,1.2
							C8.7,29.7,10.3,33.4,13.6,36.5z M36.7,34.9c-1.2-2.2-2.5-3.7-4.4-4.7c-2.3-1.2-4.7-0.5-5.8,1.7c-1.4,2.7-1.8,5.6-0.7,8.8
							C30.3,40.2,33.8,38.3,36.7,34.9z"/>
						<path fill="#E3000F" d="M26.5,19.4c2.1,0.8,2.9,3.1,2,5.2c-0.8,1.9-3.1,2.8-5,2c-1.9-0.8-2.8-3-2.1-4.9
							C22.2,19.5,24.4,18.6,26.5,19.4z M27,23.7c0.4-1.1-0.2-2.2-1.4-2.6c-1.1-0.4-2.3,0.2-2.6,1.2s0.4,2.3,1.4,2.7
							C25.4,25.3,26.7,24.7,27,23.7z"/>
						<path fill="#E3000F" d="M16.8,47C4.4,42.8-2.2,29.2,2,16.8C6.2,4.4,19.8-2.2,32.2,2C44.6,6.2,51.2,19.8,47,32.2
							C42.8,44.6,29.2,51.2,16.8,47z M31.6,3.7C20.1-0.2,7.6,5.9,3.7,17.4c-3.9,11.5,2.2,24,13.7,27.9c11.5,3.9,24-2.2,27.899-13.7
							C49.3,20.1,43.1,7.6,31.6,3.7z"/>
					</g>
					<path id="Shape_13_" fill="#E3000F" d="M51.4,212.9l-16.5,4.5c-1.601-4.4-6.4-6.9-11-5.601c-4.601,1.2-7.5,5.8-6.7,10.4
						l-15.9,4.3c-0.5,0.1-0.8,0.7-0.7,1.1L10.4,263.9c0.1,0.5,0.699,0.8,1.1,0.699L61.7,251c0.5-0.1,0.8-0.7,0.7-1.1L52.6,213.6
						C52.5,213.1,51.9,212.8,51.4,212.9z M41.1,217.6l9.301,34.5l-29,7.801L12.1,225.4L41.1,217.6z M24.4,213.5
						c3.6-1,7.3,0.9,8.699,4.3L19,221.6C18.5,218.1,20.7,214.5,24.4,213.5z M2.7,228l7.6-2.1l9.3,34.5l-7.6,2.1L2.7,228z
						 M60.4,249.5l-8.101,2.2L43,217.2l8.1-2.2L60.4,249.5z"/>
				</g>
				<g id="Group_6_" transform="translate(557.000000, 1.000000)">
					<path id="Shape_14_" fill="#E3000F" d="M27.5,480.6C17.5,480.7,9.8,476.4,4.6,467.9c-0.5-0.801-1-1.601-1.399-2.5
						C2.6,463.1,2,460.9,1.4,458.6c0-1,0-2,0-3C1.7,445.6,6.1,437.9,15,433.3c11.3-6,25.2-2.399,32.4,8.5
						c8.8,13.3,3.1,30.601-10.5,36.7c-0.2,0.1-0.4,0.3-0.5,0.5c-2.301,0.6-4.5,1.2-6.801,1.8C28.9,480.7,28.2,480.6,27.5,480.6z
						 M19.4,461.6c-0.7-2.6-1.4-5.1-2.101-7.699c-2.6-0.7-5.3-1.301-8-2C7.4,453.8,5.5,455.6,3.5,457.5c0.3,1.4,0.6,2.7,0.9,4
						c0.3,1.3,0.699,2.5,1,3.9c2.699,0.699,5.199,1.3,7.899,2C15.5,465.4,17.4,463.5,19.4,461.6z M35.4,457.4
						c-0.7-2.601-1.4-5.2-2.101-7.9c-2.6-0.6-5.2-1.3-7.899-2c-2,2-4,3.8-5.9,5.7c0.7,2.6,1.4,5.1,2.1,7.8c2.601,0.7,5.2,1.3,8,2
						C31.6,461.1,33.5,459.2,35.4,457.4z M14.2,436.3c-2.601,1.4-4.2,3.8-6.3,5.601C8.6,444.6,9.3,447.1,10,449.7
						c2.6,0.7,5.2,1.3,7.9,2c2-1.9,3.899-3.9,5.899-5.8c-0.7-2.601-1.399-5.101-2.1-7.7C19.2,437.6,16.8,437,14.2,436.3z
						 M20.8,463.2c-1.899,1.8-3.8,3.7-5.7,5.6c0.7,2.5,1.301,5,2.101,7.7c2.6,0.8,5.3,1.6,8.1,2c2-1.9,3.9-3.7,5.8-5.6
						C30.4,470.4,29.7,467.8,29,465.1C26.2,464.5,23.6,463.8,20.8,463.2z M26,445.3c2.6,0.7,5.3,1.4,8.1,2.101
						c2-1.9,3.9-3.801,6-5.801c-0.3-1.899-0.899-3.6-1.399-5.5c-2.9-1.899-6-2.899-9.601-3.399c-1.699,1.6-3.399,3.2-5.1,4.899
						C24.6,440.3,25.3,442.7,26,445.3z M45.2,460.9c-2.601-0.7-5.3-1.4-8-2.101c-2,2-4,3.8-6.101,5.9c0.301,1.2,0.601,2.399,1,3.7
						c0.4,1.3,0.7,2.5,1,3.899c2.301,0.601,4.5,1.2,6.601,1.7c2.5-1.2,5.3-4.4,6.899-7.7C46.2,464.5,45.7,462.8,45.2,460.9z
						 M37.8,456.7c2.601,0.7,5.2,1.3,8,2c1.2-1.2,2.5-2.4,3.7-3.601c-0.2-3.8-1.1-7.3-2.9-10.699c-1.6-0.4-3.199-0.801-5-1.301
						c-1.899,1.801-3.899,3.7-5.899,5.7C36.4,451.5,37.1,454.1,37.8,456.7z M6.2,445c-1.5,2.9-2.3,5.7-2.5,8.9
						c1-0.4,1.5-1.2,2.1-1.7c0.601-0.5,1.2-1.2,1.9-1.8C7.2,448.6,6.7,446.9,6.2,445z M12.8,469.4c-1.6-0.4-3.3-0.801-5.3-1.301
						c1.8,2.9,3.9,4.9,6.8,6.7C13.7,472.8,13.2,471.2,12.8,469.4z M16.7,434.7c1.2,0.3,2,0.6,2.899,0.8c0.9,0.2,1.801,0.4,2.801,0.7
						c1.1-1,2.199-2.101,3.6-3.4C22.7,432.6,19.9,433.7,16.7,434.7z M32.6,474.4c-1.3,1.3-2.6,2.5-3.899,3.699
						c2.5,0,6.7-1.3,8.5-2.6C35.6,475.2,34.1,474.8,32.6,474.4z M41.3,437.9c0.3,1.3,0.601,2.1,0.8,3.1c0.7,0.2,1.5,0.4,2.301,0.6
						c0.1-0.1,0.1-0.199,0.199-0.199C43.6,440.4,42.7,439.3,41.3,437.9z M47.3,460.3c0.3,0.9,0.5,1.8,0.8,3.101
						c0.4-1.801,0.801-3.2,1.101-4.601c-0.101,0-0.2-0.1-0.3-0.1C48.4,459.2,47.8,459.7,47.3,460.3z"/>
					<g id="Shape_15_" transform="translate(10.000000, 0.000000)">
						<path fill="#E3000F" d="M1,21.1c3.2,12,22.3,26.8,23.1,27.4c0.2,0.2,0.601,0.2,0.801,0.2c0.3-0.1,0.5-0.3,0.6-0.6
							c0.4-0.9,9.5-23.2,6.3-35.3C29.5,4.3,20.7-0.8,12.3,1.5C3.8,3.8-1.3,12.5,1,21.1z M2.9,20.5C0.9,13,5.3,5.3,12.8,3.3
							S28,5.7,30,13.2c2.7,9.9-3.9,28.1-5.7,32.9C20.3,42.9,5.5,30.5,2.9,20.5z"/>
						<path fill="#E3000F" d="M9.9,17.8c0.899,3.5,4.5,5.6,8,4.6c3.5-0.9,5.6-4.5,4.6-8c-0.9-3.5-4.5-5.6-8-4.6
							C11,10.7,8.9,14.3,9.9,17.8z M11.7,17.2c-0.7-2.5,0.8-5,3.3-5.7s5,0.8,5.7,3.3s-0.8,5-3.3,5.7S12.4,19.7,11.7,17.2z"/>
					</g>
					<g id="Path_6_" transform="translate(0.000000, 213.000000)">
						<path fill="#E3000F" d="M48.4,44.6C48,44.4,47.5,44.4,47.3,44.8c-4.5,6.7-15.5,9.4-26.2,6.601C10,48.4,2.1,40.7,1.9,32.6
							c0-0.5-0.4-0.8-0.801-0.8c-0.5,0-0.8,0.4-0.8,0.8C0.5,41.4,8.9,49.7,20.7,52.9c11.3,3,23.1,0,28-7.301
							C48.9,45.4,48.8,44.9,48.4,44.6z"/>
						<path fill="#E3000F" d="M28.2,24.5c2.5,0.7,5.2,0,6.3-1.7c0.2-0.4,0.2-0.9-0.2-1.1c-0.399-0.2-0.899-0.2-1.1,0.2
							c-0.7,1.1-2.7,1.6-4.5,1.1c-1.9-0.5-3.3-1.8-3.4-3.2c0-0.5-0.399-0.8-0.8-0.8c-0.5,0-0.8,0.4-0.8,0.8
							C23.6,21.8,25.5,23.8,28.2,24.5z"/>
						<path fill="#E3000F" d="M13.5,29.1L10.1,39.2C10,39.6,10.2,40.1,10.6,40.2l0,0c0.4,0.1,0.801-0.101,1-0.5L15,29.6l0,0
							c0.4-1.5,2-2.5,3.6-2.1l17.2,4.6C37.4,32.5,38.4,34.2,37.9,35.8l0,0L35.6,46.1c-0.1,0.5,0.2,0.9,0.601,1
							c0.5,0.101,0.899-0.199,1-0.6l2.3-10.3c0.7-2.5-0.8-5-3.3-5.7L19.1,25.9C16.7,25.2,14.2,26.7,13.5,29.1z"/>
						<path fill="#E3000F" d="M52.6,37.1C54,25,46.2,22.9,46.1,22.8c-0.1,0-0.1,0-0.199,0c-0.101-0.1-0.2-0.3-0.301-0.4
							c-1.3-1.9-3.399-2.3-3.8-2.3L24.9,15.6C24.9,12.9,24.1,3.4,12.8,0.3C9.9-0.5,8.3,2.1,6.2,5.3c-0.9,1.5-2,3.2-3.3,4.9
							c-1,1.2-1.301,3-0.9,4.4c0.5,1.4,1.5,2.5,3.1,2.9C5.4,17.6,5.7,17.6,6,17.4l6.6-2.9L7,35.5c-0.1,0.4,0.1,0.9,0.6,1
							c0.4,0.1,0.9-0.1,1-0.6L14.7,13.3c0.1-0.3,0-0.6-0.3-0.8c-0.2-0.2-0.601-0.3-0.9-0.1L5.6,16C4.4,15.6,3.9,14.8,3.7,14.2
							c-0.3-1-0.101-2.1,0.6-2.9c1.4-1.8,2.5-3.5,3.5-5c2-3.2,3.101-4.8,4.7-4.3c11.8,3.2,11,13.8,10.9,14.3
							c0,0.4,0.199,0.8,0.6,0.9l17.6,4.7H41.7c0,0,1.7,0.2,2.7,1.6c0.6,0.9,0.8,2,0.699,3.4c0,0.1,0,0.1,0,0.2
							c-0.1,0.6-0.199,1.1-0.3,1.8l-4.2,15.8C40.5,45.1,40.7,45.6,41.2,45.7c0.399,0.1,0.899-0.101,1-0.601l4.2-15.8
							C46.5,29,46.6,28.7,46.6,28.4c1,0.8,2.5,3,1.9,8.3c0,0.399,0.2,0.8,0.6,0.899H49.2c0.399,0,0.899-0.3,0.899-0.699
							C51,29.6,48.2,27.3,46.8,26.6c0-0.6,0-1.1-0.1-1.6c1.7,0.9,5.399,3.8,4.399,12.1c0,0.4,0.2,0.801,0.601,0.9h0.1
							C52.2,37.9,52.6,37.6,52.6,37.1z"/>
					</g>
				</g>
				<g id="Group_7_" transform="translate(1039.000000, 0.000000)">
					<g transform="translate(1.000000, 0.000000)">
						<path id="Shape_16_" fill="#E3000F" d="M50.7,5.8l-3-3c-1.9-1.9-2.601-2.6-3.4-1.7l-2.6,2.6C41.6,3.8,41.5,4,41.4,4.1
							c-0.2,0.1-0.301,0.3-0.5,0.4c0,0-2.2,2.2-1.301,5c-0.199,0.1-0.3,0.2-0.5,0.4L17.7,31.3l0,0L12.6,26.2
							c-0.3-0.3-1.5-1.3-3.199,0.2C9.1,26.7,4.8,31.4,4.8,31.5c-4,4.9-6.6,11.8-1.7,16.7c1.9,1.9,4.2,2.7,6.5,2.7
							c4,0,8-2.2,10.2-3.9c0.5-0.3,2.2-1.6,3.4-2.5c3.3-2.6,3.399-3,3.399-3.6c-0.1-0.5-0.3-0.9-0.6-1.2l-3.9-3.9l0,0l21.4-21.4
							c0.2-0.2,0.3-0.3,0.4-0.5c0.5,0.2,1,0.3,1.5,0.3l0,0c1.8,0,3.1-1.1,3.3-1.3c0.2-0.1,0.399-0.4,0.7-0.7
							c0.1,0,0.199-0.1,0.3-0.2l2.6-2.6c0.2-0.2,0.3-0.5,0.3-0.7C52.7,8.1,52.7,7.8,50.7,5.8z M24.4,40.8
							C23.2,42,19.3,44.9,18.8,45.2l-0.1,0.1c-0.101,0-4.5,3.5-9,3.5c-1.8,0-3.601-0.6-5.101-2.1C-0.5,41.6,5.2,34.2,6.4,32.8
							C6.7,32.5,10.6,28.2,10.8,28s0.3-0.3,0.4-0.3l6.399,6.4c0.101,0.1,0.101,0.2,0.2,0.2l1.3,1.3c0.101,0.1,0.2,0.1,0.2,0.2
							L24.4,40.8z M42,12.8L20.6,34.2c0,0,0,0-0.1,0l-1.4-1.4c0,0,0,0,0-0.1l21.4-21.4l0,0c0.2,0.2,0.4,0.5,0.6,0.7
							C41.6,12.4,41.8,12.6,42,12.8C42.1,12.8,42.1,12.8,42,12.8z M47.4,11.2C47.1,11.5,45.6,12.7,43.6,11.3l0,0L42.3,10
							c0,0,0,0-0.1-0.1c-1.4-2-0.101-3.5,0.3-3.9c0.3,0.3,0.6,0.6,1,1.1l3,3c0.4,0.4,0.8,0.8,1.1,1.1C47.5,11.1,47.4,11.2,47.4,11.2
							z M49.1,9.6L43.9,4.4L45.1,3.2C45.4,3.5,45.8,3.8,46.2,4.3l3,3C49.6,7.7,50,8.1,50.3,8.4L49.1,9.6z"/>
						<path id="Path_7_" fill="#E3000F" d="M14.5,34.9c-0.4,0.4-0.4,1.1,0,1.5c1.7,1.6,3.6,3.4,4.4,4.3c-0.7,0.7-2.2,2-4.301,3.1
							c-0.5,0.3-0.699,0.9-0.399,1.4c0.2,0.3,0.5,0.6,0.899,0.6c0.2,0,0.301,0,0.5-0.1c1.2-0.6,5.9-3.5,5.601-5.1
							c0-0.5-0.101-0.6-5.3-5.6C15.5,34.5,14.9,34.5,14.5,34.9z"/>
					</g>
					<g id="Path_8_" transform="translate(0.000000, 219.000000)">
						<path fill="#E3000F" d="M28.5,4.9c-0.4-0.1-0.8-0.6-0.7-1.1c0-0.2,0.101-0.4,0.3-1.4c0.5-1.7,2.9-2.5,4.601-2
							c2.1,0.6,3.399,2.7,3,4.1c-0.2,0.6-0.3,0.9-0.3,1.1v0.1c-0.101,0.5-0.7,0.8-1.2,0.7s-0.8-0.7-0.7-1.2c0-0.1,0-0.1,0.1-0.2
							c0-0.2,0.101-0.4,0.301-1C34,3.7,33.4,2.6,32.3,2.4c-1.1-0.3-2.1,0.3-2.2,0.7c-0.199,0.6-0.3,1-0.3,1c0,0.5-0.5,0.9-1.1,0.9
							C28.6,4.9,28.5,4.9,28.5,4.9z"/>
						<path fill="#E3000F" d="M39.6,29.9L12,22.5c-2.9-0.8-4.6-2.7-5.3-5.7c-0.601-2.5-0.3-5.2,0-7.6c0.1-0.5,0.6-0.9,1.1-0.9
							c0.5,0.1,0.9,0.6,0.9,1.1c-0.3,2.2-0.5,4.8,0,7c0.5,2.3,1.8,3.6,3.899,4.2L40.2,28c2.1,0.6,3.899,0,5.5-1.7
							c1.5-1.7,2.6-4,3.5-6c0.2-0.5,0.8-0.7,1.3-0.5c0.5,0.2,0.7,0.8,0.5,1.3c-1,2.2-2.2,4.7-3.8,6.6C44.9,29.9,42.4,30.7,39.6,29.9
							z"/>
						<path fill="#E3000F" d="M53.3,21.5L4.4,8.4C3.9,8.3,3.6,7.7,3.7,7.2c0.1-0.5,0.7-0.8,1.2-0.7L53.8,19.6
							c0.5,0.1,0.8,0.7,0.7,1.2C54.3,21.3,53.8,21.6,53.3,21.5z"/>
						<path fill="#E3000F" d="M50.3,19.6L50.3,19.6c-0.6-0.2-0.899-0.8-0.7-1.3c0-0.1,0.101-0.3-0.1-0.8C47.8,14,36.3,8.8,32.9,7.7
							l-4.5-1.2C26.8,6.2,22,5.7,17.5,5.7C9.7,5.8,9.1,7.4,9,7.6C8.9,8.1,8.3,8.4,7.8,8.3C7.3,8.2,7,7.6,7.1,7.1
							C7.7,4.9,11,3.8,17.4,3.8c4.5,0,9.5,0.5,11.3,0.8c0,0,0,0,0.1,0L33.4,5.8c0,0,0,0,0.1,0c2,0.7,15.5,6.2,17.8,10.9
							c0.4,0.8,0.5,1.6,0.2,2.4C51.4,19.5,50.8,19.7,50.3,19.6z"/>
						<path fill="#E3000F" d="M36.5,41.3L8.9,33.9C6,33.1,4.3,31.2,3.6,28.2c-0.6-2.5-0.3-5.2,0-7.6C3.7,20.1,4.2,19.7,4.7,19.7
							C5.2,19.8,5.6,20.3,5.6,20.8c-0.3,2.2-0.5,4.8,0,7C6.1,30.1,7.4,31.4,9.5,32l27.6,7.4c2.101,0.6,3.9,0,5.5-1.7
							c1.5-1.7,2.601-4,3.5-6c0.2-0.5,0.801-0.7,1.301-0.5s0.699,0.8,0.5,1.3c-1,2.2-2.101,4.7-3.801,6.6
							C41.9,41.3,39.4,42.1,36.5,41.3z"/>
						<path fill="#E3000F" d="M50.2,32.8L1.3,19.7c-0.5-0.1-0.8-0.7-0.7-1.2C0.7,18,1.3,17.7,1.8,17.8L50.7,30.9
							c0.5,0.1,0.8,0.699,0.7,1.199C51.3,32.6,50.7,32.9,50.2,32.8z"/>
					</g>
					<path id="Shape_17_" fill="#E3000F" d="M42,435.7c-7.1-8.5-18.6-11-28-5.9C4.9,434.6,0.4,445.9,3.2,456.5
						c-1.8,1.8-2.2,4.8-0.8,7.4L2.6,464.1l11.2,10.7c0.2,0.2,0.601,0.3,0.9,0.101l1-0.5l0.5,3.5c0.3,1.899,2.1,3.199,4,2.899
						c0.399-0.1,0.7-0.2,1-0.3c0.5-0.2,0.899-0.6,1.2-1c0.5-0.8,0.699-1.7,0.6-2.6l-1-5.801l21.7-11.6l4.3,4.1
						c1.1,1.101,2.7,1.301,4,0.601c0.3-0.2,0.6-0.4,0.9-0.7c0.6-0.7,0.899-1.5,0.899-2.5c0-0.9-0.399-1.8-1.1-2.5l-2.601-2.4
						l1.4-0.699c0.3-0.2,0.5-0.5,0.4-0.801L49.3,439.3c0-0.1,0-0.2-0.1-0.3C47.5,436.4,44.5,435,42,435.7z M14.7,431.2
						c8.7-4.601,19.2-2.5,25.8,5.2c-2.4,1.6-3.1,5.1-1.5,8l2.5,4.699c-2.9,0.301-10.5,1.4-15.1,3.801
						C20.6,456,16.4,461.1,14.8,463.2l-2.5-4.601c-1.6-3-5-4.399-7.7-3.1C2.2,445.8,6.4,435.6,14.7,431.2z M21.4,477.1
						c0.1,0.5,0,1-0.301,1.4c-0.3,0.4-0.699,0.7-1.199,0.8c-1,0.2-2-0.6-2.2-1.6L17.1,473.6l3.4-1.8L21.4,477.1z M51.4,459.7
						C51.8,460.1,52,460.5,52,461s-0.2,1-0.5,1.4c-0.7,0.8-1.9,0.8-2.6,0l-3.801-3.7l3.4-1.8L51.4,459.7z M50,454.3l-35.6,19
						L3.7,463.1c-1.101-2.3-0.5-5,1.399-6c2-1.1,4.601,0,5.801,2.301l3,5.8c0.1,0.2,0.399,0.399,0.6,0.399c0.3,0,0.5-0.1,0.7-0.3
						c0-0.1,4.8-7.1,11.8-10.899c5.4-2.9,15.6-3.801,15.7-3.801c0.3,0,0.5-0.199,0.6-0.399c0.101-0.2,0.101-0.5,0-0.8l-3.1-5.7
						C39,441.4,39.6,438.6,41.6,437.6c1.9-1,4.5-0.1,5.801,2.2L50,454.3z"/>
				</g>
				<g id="Group_8_" transform="translate(1127.000000, 109.000000)">
					<g id="Shape_18_" transform="translate(7.000000, 0.000000)">
						<path fill="#E3000F" d="M30.3,7.9C39.4,11.1,44.5,21.4,41.4,30.4c-3.2,9.3-13.5,14.5-22.7,11.2c-9.601-3.4-14.3-13.3-11-23
							C10.8,9.6,21.3,4.7,30.3,7.9z M38,32.9c1.4-1.4,1.8-3.2,2.1-4.8c-6.6-12.6-21.5-15-30.399-9.9c-0.4,1.4-0.8,3-1.2,4.9
							c1.3-0.2,2-0.4,2.8-0.5c3.101-0.5,6.101-0.4,8,2.5c1.9,2.9,1.101,5.7-0.399,8.5c-0.5,0.9-1.301,1.8-1.9,2.6
							c-0.4,0.5-0.9,1.1-1.4,1.8c2.4,1.9,5,2.8,7.7,2.8c0.3-2.8,0.2-5.3,0.9-7.6c1.5-5.4,6.7-6.8,11-3.1
							C36.1,30.7,36.9,31.8,38,32.9z M40.2,24.6c0.2-7.5-5.3-14-12.4-15.5c-6.1-1.3-13.399,1.5-15.2,5.8
							C23.6,12.2,32.7,15.3,40.2,24.6z M13.6,36.5c2.7-2,4.2-4.3,4.7-7.1c0.601-2.8-1-5-3.8-5.3c-2.1-0.2-4.1,0-6.1,1.2
							C8.7,29.7,10.3,33.4,13.6,36.5z M36.7,34.9c-1.2-2.2-2.5-3.7-4.4-4.7c-2.3-1.2-4.7-0.5-5.8,1.7c-1.4,2.7-1.8,5.6-0.7,8.8
							C30.3,40.2,33.8,38.3,36.7,34.9z"/>
						<path fill="#E3000F" d="M26.5,19.4c2.1,0.8,2.9,3.1,2,5.2c-0.8,1.9-3.1,2.8-5,2c-1.9-0.8-2.8-3-2.1-4.9
							C22.2,19.5,24.4,18.6,26.5,19.4z M27,23.7c0.4-1.1-0.2-2.2-1.4-2.6c-1.1-0.4-2.3,0.2-2.6,1.2s0.4,2.3,1.4,2.7
							C25.4,25.3,26.7,24.7,27,23.7z"/>
						<path fill="#E3000F" d="M16.8,47C4.4,42.8-2.2,29.2,2,16.8C6.2,4.4,19.8-2.2,32.2,2C44.6,6.2,51.2,19.8,47,32.2
							C42.8,44.6,29.2,51.2,16.8,47z M31.6,3.7C20.1-0.2,7.6,5.9,3.7,17.4c-3.9,11.5,2.2,24,13.7,27.9c11.5,3.9,24-2.2,27.899-13.7
							C49.3,20.1,43.1,7.6,31.6,3.7z"/>
					</g>
					<path id="Shape_19_" fill="#E3000F" d="M51.4,212.9l-16.5,4.5c-1.601-4.4-6.4-6.9-11-5.601c-4.601,1.2-7.5,5.8-6.7,10.4
						l-15.9,4.3c-0.5,0.1-0.8,0.7-0.7,1.1L10.4,263.9c0.1,0.5,0.699,0.8,1.1,0.699L61.7,251c0.5-0.1,0.8-0.7,0.7-1.1L52.6,213.6
						C52.5,213.1,51.9,212.8,51.4,212.9z M41.1,217.6l9.301,34.5l-29,7.801L12.1,225.4L41.1,217.6z M24.4,213.5
						c3.6-1,7.3,0.9,8.699,4.3L19,221.6C18.5,218.1,20.7,214.5,24.4,213.5z M2.7,228l7.6-2.1l9.3,34.5l-7.6,2.1L2.7,228z
						 M60.4,249.5l-8.101,2.2L43,217.2l8.1-2.2L60.4,249.5z"/>
				</g>
				<g id="Group_9_" transform="translate(1224.000000, 0.000000)">
					<path id="Shape_20_" fill="#E3000F" d="M27.5,480.6C17.5,480.7,9.8,476.4,4.6,467.9c-0.5-0.801-1-1.601-1.399-2.5
						C2.6,463.1,2,460.9,1.4,458.6c0-1,0-2,0-3C1.7,445.6,6.1,437.9,15,433.3c11.3-6,25.2-2.399,32.4,8.5
						c8.8,13.3,3.1,30.601-10.5,36.7c-0.2,0.1-0.4,0.3-0.5,0.5c-2.301,0.6-4.5,1.2-6.801,1.8C28.9,480.7,28.2,480.6,27.5,480.6z
						 M19.4,461.6c-0.7-2.6-1.4-5.1-2.101-7.699c-2.6-0.7-5.3-1.301-8-2C7.4,453.8,5.5,455.6,3.5,457.5c0.3,1.4,0.6,2.7,0.9,4
						c0.3,1.3,0.699,2.5,1,3.9c2.699,0.699,5.199,1.3,7.899,2C15.5,465.4,17.4,463.5,19.4,461.6z M35.4,457.4
						c-0.7-2.601-1.4-5.2-2.101-7.9c-2.6-0.6-5.2-1.3-7.899-2c-2,2-4,3.8-5.9,5.7c0.7,2.6,1.4,5.1,2.1,7.8c2.601,0.7,5.2,1.3,8,2
						C31.6,461.1,33.5,459.2,35.4,457.4z M14.2,436.3c-2.601,1.4-4.2,3.8-6.3,5.601C8.6,444.6,9.3,447.1,10,449.7
						c2.6,0.7,5.2,1.3,7.9,2c2-1.9,3.899-3.9,5.899-5.8c-0.7-2.601-1.399-5.101-2.1-7.7C19.2,437.6,16.8,437,14.2,436.3z
						 M20.8,463.2c-1.899,1.8-3.8,3.7-5.7,5.6c0.7,2.5,1.301,5,2.101,7.7c2.6,0.8,5.3,1.6,8.1,2c2-1.9,3.9-3.7,5.8-5.6
						C30.4,470.4,29.7,467.8,29,465.1C26.2,464.5,23.6,463.8,20.8,463.2z M26,445.3c2.6,0.7,5.3,1.4,8.1,2.101
						c2-1.9,3.9-3.801,6-5.801c-0.3-1.899-0.899-3.6-1.399-5.5c-2.9-1.899-6-2.899-9.601-3.399c-1.699,1.6-3.399,3.2-5.1,4.899
						C24.6,440.3,25.3,442.7,26,445.3z M45.2,460.9c-2.601-0.7-5.3-1.4-8-2.101c-2,2-4,3.8-6.101,5.9c0.301,1.2,0.601,2.399,1,3.7
						c0.301,1.3,0.7,2.5,1,3.899c2.301,0.601,4.5,1.2,6.601,1.7c2.5-1.2,5.3-4.4,6.899-7.7C46.2,464.5,45.7,462.8,45.2,460.9z
						 M37.8,456.7c2.601,0.7,5.2,1.3,8,2c1.2-1.2,2.5-2.4,3.7-3.601c-0.2-3.8-1.1-7.3-2.9-10.699c-1.6-0.4-3.199-0.801-5-1.301
						c-1.899,1.801-3.899,3.7-5.899,5.7C36.4,451.5,37.1,454.1,37.8,456.7z M6.2,445c-1.5,2.9-2.3,5.7-2.5,8.9
						c1-0.4,1.5-1.2,2.1-1.7c0.601-0.5,1.2-1.2,1.9-1.8C7.2,448.6,6.7,446.9,6.2,445z M12.8,469.4c-1.6-0.4-3.3-0.801-5.3-1.301
						c1.8,2.9,3.9,4.9,6.8,6.7C13.7,472.8,13.2,471.2,12.8,469.4z M16.7,434.7c1.2,0.3,2,0.6,2.899,0.8c0.9,0.2,1.801,0.4,2.801,0.7
						c1.1-1,2.199-2.101,3.6-3.4C22.7,432.6,19.9,433.7,16.7,434.7z M32.6,474.4c-1.3,1.3-2.6,2.5-3.899,3.699
						c2.5,0,6.7-1.3,8.5-2.6C35.6,475.2,34.1,474.8,32.6,474.4z M41.3,437.9c0.3,1.3,0.601,2.1,0.8,3.1c0.7,0.2,1.5,0.4,2.301,0.6
						c0.1-0.1,0.1-0.199,0.199-0.199C43.6,440.4,42.7,439.3,41.3,437.9z M47.3,460.3c0.3,0.9,0.5,1.8,0.8,3.101
						c0.4-1.801,0.801-3.2,1.101-4.601c-0.101,0-0.2-0.1-0.3-0.1C48.4,459.2,47.8,459.7,47.3,460.3z"/>
					<g id="Shape_21_" transform="translate(10.000000, 0.000000)">
						<path fill="#E3000F" d="M1,21.1c3.2,12,22.3,26.8,23.1,27.4c0.2,0.2,0.601,0.2,0.801,0.2c0.199,0,0.5-0.3,0.6-0.6
							c0.4-0.9,9.5-23.2,6.3-35.3C29.5,4.3,20.7-0.8,12.3,1.5C3.9,3.8-1.3,12.5,1,21.1z M2.9,20.5C0.9,13,5.3,5.3,12.8,3.3
							S28,5.7,30,13.2c2.7,9.9-3.9,28.1-5.7,32.9C20.3,42.9,5.5,30.5,2.9,20.5z"/>
						<path fill="#E3000F" d="M9.9,17.8c0.899,3.5,4.5,5.6,8,4.6s5.6-4.5,4.6-8c-0.9-3.5-4.5-5.6-8-4.6C11,10.7,8.9,14.3,9.9,17.8z
							 M11.7,17.2c-0.7-2.5,0.8-5,3.3-5.7s5,0.8,5.7,3.3s-0.8,5-3.3,5.7S12.4,19.7,11.7,17.2z"/>
					</g>
					<g id="Path_9_" transform="translate(0.000000, 213.000000)">
						<path fill="#E3000F" d="M48.4,44.6C48,44.4,47.5,44.4,47.3,44.8c-4.5,6.7-15.5,9.4-26.2,6.601C10,48.4,2.1,40.7,1.9,32.6
							c0-0.5-0.4-0.8-0.801-0.8c-0.5,0-0.8,0.4-0.8,0.8C0.5,41.4,8.9,49.7,20.7,52.9c11.3,3,23.1,0,28-7.301
							C48.9,45.4,48.8,44.9,48.4,44.6z"/>
						<path fill="#E3000F" d="M28.2,24.5c2.5,0.7,5.2,0,6.3-1.7c0.2-0.4,0.2-0.9-0.2-1.1c-0.399-0.2-0.899-0.2-1.1,0.2
							c-0.7,1.1-2.7,1.6-4.5,1.1c-1.9-0.5-3.3-1.8-3.4-3.2c0-0.5-0.399-0.8-0.8-0.8c-0.5,0-0.8,0.4-0.8,0.8
							C23.6,21.8,25.5,23.8,28.2,24.5z"/>
						<path fill="#E3000F" d="M13.5,29.1L10.1,39.2C10,39.6,10.2,40.1,10.6,40.2l0,0c0.4,0.1,0.801-0.101,1-0.5L15,29.6l0,0
							c0.4-1.5,2-2.5,3.6-2.1l17.2,4.6C37.4,32.5,38.4,34.2,37.9,35.8l0,0L35.6,46.1c-0.1,0.5,0.2,0.9,0.601,1
							c0.5,0.101,0.899-0.199,1-0.6l2.3-10.3c0.7-2.5-0.8-5-3.3-5.7L19.1,25.9C16.7,25.2,14.2,26.7,13.5,29.1z"/>
						<path fill="#E3000F" d="M52.6,37.1C54,25,46.2,22.9,46,22.8c-0.1,0-0.1,0-0.2,0c-0.1-0.1-0.2-0.3-0.3-0.4
							c-1.3-1.9-3.4-2.3-3.8-2.3l-16.9-4.5c0-2.7-0.8-12.2-12.1-15.3C9.8-0.5,8.2,2.1,6.1,5.3c-0.899,1.5-2,3.2-3.3,4.9
							c-1,1.2-1.3,3-0.899,4.4C2.4,16,3.4,17.1,5,17.5c0.3,0.1,0.6,0.1,0.9-0.1l6.6-2.9l-5.6,21c-0.101,0.4,0.1,0.9,0.6,1
							c0.4,0.1,0.9-0.1,1-0.6L14.6,13.3c0.101-0.3,0-0.6-0.3-0.8c-0.2-0.2-0.6-0.3-0.899-0.1L5.5,16c-1.2-0.4-1.7-1.2-1.9-1.8
							c-0.3-1-0.1-2.1,0.601-2.9c1.399-1.8,2.5-3.5,3.5-5c2-3.2,3.1-4.8,4.7-4.3c11.8,3.2,11,13.8,10.899,14.3
							c0,0.4,0.2,0.8,0.601,0.9l17.6,4.7h0.1c0,0,1.7,0.2,2.7,1.6c0.601,0.9,0.8,2,0.7,3.4c0,0.1,0,0.1,0,0.2
							c-0.1,0.6-0.2,1.1-0.3,1.8l-4.2,15.8c-0.1,0.399,0.1,0.899,0.6,1c0.4,0.1,0.9-0.101,1-0.601l4.2-15.8
							c0.101-0.3,0.2-0.6,0.2-0.9c1,0.8,2.5,3,1.9,8.3c0,0.399,0.199,0.8,0.6,0.899h0.1c0.4,0,0.9-0.3,0.9-0.699
							c0.9-7.301-1.9-9.601-3.3-10.3c0-0.6,0-1.1-0.101-1.6c1.7,0.9,5.4,3.8,4.4,12.1c0,0.4,0.2,0.801,0.6,0.9H51.7
							C52.2,37.9,52.6,37.6,52.6,37.1z"/>
					</g>
				</g>
				<g id="Group_10_" transform="translate(1314.000000, 108.000000)">
					<path id="Shape_22_" fill="#E3000F" d="M46.6,216.5c-3.399-2.2-6.899-2.9-10.1-2c-0.3,0.1-0.5,0.4-0.6,0.7l-1.2,20.2l-19.8,5.3
						c-0.4-1.3-1.301-3.7-3.2-5C10.6,235,9.4,234.8,8,235.1c-0.8-1.699-2.7-2.6-4.5-2.1c-2,0.5-3.2,2.7-2.7,4.8
						c0.601,2.101,2.7,3.3,4.7,2.8c1.8-0.5,2.9-2.1,2.8-3.899c1-0.2,1.8-0.101,2.5,0.399c1.7,1.101,2.5,3.7,2.601,4.5
						c0,0.101,0,0.301,0.1,0.5c3.4,7.2,9.4,12.101,16.2,13.7c-2.3,1-3.601,3.601-2.9,6.101c0.7,2.8,3.601,4.399,6.3,3.699
						c2.7-0.699,4.301-3.6,3.601-6.3c-0.3-1.2-1.101-2.2-2-2.899c1.8,0,3.6-0.2,5.399-0.7c2.101-0.601,4-1.5,5.7-2.601
						c-0.6,1.101-0.8,2.601-0.5,3.9c0.7,2.8,3.601,4.4,6.3,3.7c2.7-0.7,4.301-3.601,3.601-6.3c-0.7-2.801-3.601-4.4-6.3-3.7H48.8
						c4.9-4.7,7.9-11.9,7.5-19.7c0-0.1,0-0.2,0-0.3C55.4,225.4,51.3,219.6,46.6,216.5z M5.1,238.9c-1.199,0.3-2.5-0.4-2.8-1.7
						s0.4-2.5,1.601-2.8C5.1,234.1,6.4,234.8,6.7,236.1C7.1,237.3,6.3,238.6,5.1,238.9z M32.7,263.9c-1.9,0.5-3.8-0.601-4.4-2.601
						c-0.5-1.899,0.601-3.899,2.5-4.399c1.9-0.5,3.8,0.6,4.4,2.6C35.7,261.4,34.6,263.4,32.7,263.9z M53.6,254.5
						c0.5,1.9-0.6,3.9-2.5,4.4c-1.899,0.5-3.8-0.601-4.399-2.601c-0.5-1.899,0.6-3.899,2.5-4.399C51.1,251.4,53.1,252.6,53.6,254.5z
						 M37.4,215.9c3.3-0.7,6.3,0.699,8.3,2c4.2,2.699,7.8,7.699,8.899,12.199L36.2,235L37.4,215.9z M39.6,253.9
						C30.2,256.4,20.3,251.6,15.4,242.1L54.8,231.6C54.9,242.2,48.6,251.5,39.6,253.9z"/>
					<g transform="translate(3.000000, 0.000000)">
						<path id="Shape_23_" fill="#E3000F" d="M30.8,2.4c0.4,0,0.7,0.1,1,0.4C32,3,32.1,3.3,32.1,3.7C32.1,5,32.6,6.2,33.4,7
							C34.3,7.9,35.5,8.4,36.8,8.4c1,0,1.9-0.3,2.7-0.9c0.2-0.2,0.5-0.3,0.7-0.3c0.399,0,0.899,0.3,1.1,0.7s0.2,0.8,0,1.2
							c-0.8,1.5-0.8,3.2,0.101,4.6c0.899,1.4,2.399,2.3,4,2.3c0.199,0,0.399,0,0.6,0c0.1,0,0.1,0,0.2,0c0.7,0,1,0.5,1.2,0.9
							c0.1,0.3,0.199,0.9-0.5,1.4c-1.5,1-2.2,2.7-2,4.4c0.199,1.8,1.399,3.2,3.1,3.8c0.9,0.3,0.9,1.1,0.8,1.3c0,0.2-0.2,1-1.1,1.1
							c-1.8,0.2-3.2,1.3-3.9,3c-0.6,1.7-0.3,3.5,0.9,4.8c0.5,0.5,0.399,1,0.2,1.3c-0.2,0.4-0.601,0.8-1.101,0.8
							c-0.2,0-0.3,0-0.5-0.1c-0.6-0.2-1.1-0.3-1.7-0.3c-1.399,0-2.8,0.7-3.699,1.8c-0.9,1.2-1.2,2.6-0.801,4
							c0.101,0.4,0,0.8-0.199,1.1c-0.301,0.3-0.7,0.5-1.101,0.5c-0.3,0-0.7-0.2-0.899-0.5c-0.9-1-2.2-1.6-3.5-1.6
							c-2.2,0-4.101,1.5-4.601,3.6c-0.2,0.9-1,1-1.2,1c-0.199,0-1-0.1-1.199-1c-0.5-2.1-2.4-3.6-4.601-3.6c-1.399,0-2.6,0.6-3.5,1.6
							c-0.3,0.3-0.6,0.5-0.899,0.5c-0.4,0-0.801-0.2-1.101-0.5c-0.2-0.3-0.3-0.7-0.2-1.1c0.4-1.4,0.101-2.9-0.8-4
							C12.4,39,11,38.4,9.6,38.4C9,38.4,8.4,38.5,7.9,38.7c-0.2,0.1-0.301,0.1-0.5,0.1c-0.601,0-1-0.4-1.101-0.8
							c-0.1-0.3-0.2-0.8,0.2-1.3c1.2-1.3,1.5-3.1,0.9-4.8c-0.601-1.7-2.101-2.8-3.9-3c-0.9-0.1-1.1-0.9-1.1-1.1c0-0.2,0-1,0.8-1.3
							c1.7-0.6,2.8-2.1,3.1-3.8c0.2-1.8-0.6-3.5-2-4.4c-0.7-0.5-0.6-1.2-0.5-1.4C3.9,16.5,4.3,16,5,16c0.1,0,0.1,0,0.2,0
							c0.2,0,0.399,0,0.6,0c1.601,0,3.101-0.9,4-2.3c0.9-1.4,0.9-3.1,0.101-4.6c-0.2-0.4-0.2-0.8,0-1.2C10.1,7.5,10.6,7.2,11,7.2
							c0.3,0,0.5,0.1,0.7,0.3c0.8,0.6,1.7,0.9,2.7,0.9C15.6,8.4,16.9,7.9,17.8,7c0.9-0.9,1.3-2.1,1.3-3.3C19.1,3.3,19.2,3,19.4,2.8
							c0.3-0.3,0.6-0.4,1-0.4c0.3,0,0.8,0.1,1.1,0.7c0.8,1.6,2.4,2.6,4.2,2.6s3.399-1,4.2-2.6C30,2.5,30.4,2.4,30.8,2.4z M30.8,0.7
							c-1,0-2,0.5-2.6,1.6C27.6,3.4,26.6,3.9,25.5,3.9c-1,0-2.1-0.5-2.7-1.6c-0.6-1.1-1.6-1.6-2.6-1.6c-1.5,0-3,1.1-3,3
							c0,1.8-1.4,3-3,3c-0.601,0-1.2-0.2-1.7-0.6c-0.6-0.4-1.2-0.6-1.7-0.6c-2,0-3.8,2.2-2.6,4.4c1.1,2-0.4,4.4-2.601,4.4
							c-0.1,0-0.3,0-0.399,0c-0.2,0-0.3,0-0.4,0c-2.8,0-4.1,3.8-1.6,5.5c2,1.4,1.6,4.4-0.601,5.3c-3,1.1-2.399,5.4,0.7,5.8
							c2.4,0.3,3.5,3.2,1.9,5c-1.8,2-0.2,5,2.2,5c0.399,0,0.699-0.1,1.1-0.2c0.4-0.1,0.7-0.2,1.1-0.2c1.9,0,3.4,1.8,2.9,3.7
							c-0.6,2.1,1.1,3.7,2.9,3.7c0.8,0,1.6-0.3,2.199-1c0.601-0.7,1.4-1,2.2-1c1.3,0,2.601,0.8,2.9,2.3s1.6,2.3,2.899,2.3
							c1.301,0,2.5-0.8,2.9-2.3c0.3-1.5,1.6-2.3,2.9-2.3c0.8,0,1.6,0.3,2.199,1c0.601,0.7,1.4,1,2.2,1c1.8,0,3.5-1.6,2.9-3.7
							c-0.5-2,1-3.7,2.899-3.7c0.4,0,0.7,0.1,1.101,0.2c0.399,0.2,0.8,0.2,1.1,0.2c2.4,0,4-3,2.2-5c-1.6-1.8-0.5-4.7,1.9-5
							c3.1-0.3,3.699-4.7,0.699-5.8c-2.3-0.8-2.699-3.9-0.6-5.3c2.5-1.7,1.2-5.5-1.6-5.5c-0.101,0-0.301,0-0.4,0s-0.3,0-0.4,0
							c-2.199,0-3.699-2.4-2.6-4.4c1.2-2.2-0.6-4.4-2.6-4.4c-0.601,0-1.2,0.2-1.7,0.6S37.6,6.7,37,6.7c-1.5,0-3-1.2-3-3
							C33.8,1.8,32.3,0.7,30.8,0.7z"/>
						<g transform="translate(16.000000, 16.000000)">
							<path id="Shape_24_" fill="#E3000F" d="M5,9.2C2.7,9.2,0.8,7.3,0.8,5S2.7,0.8,5,0.8S9.2,2.7,9.2,5S7.3,9.2,5,9.2z M5,2.5
								C3.6,2.5,2.5,3.6,2.5,5S3.6,7.5,5,7.5S7.5,6.4,7.5,5S6.3,2.5,5,2.5z"/>
							<path id="Shape_25_" fill="#E3000F" d="M15.4,18.5c-2.301,0-4.2-1.9-4.2-4.2c0-2.3,1.899-4.2,4.2-4.2
								c2.3,0,4.199,1.9,4.199,4.2C19.6,16.6,17.7,18.5,15.4,18.5z M15.4,11.8c-1.4,0-2.5,1.1-2.5,2.5c0,1.4,1.1,2.5,2.5,2.5
								c1.399,0,2.5-1.1,2.5-2.5C17.9,12.9,16.8,11.8,15.4,11.8z"/>
							<path id="Path_10_" fill="#E3000F" d="M2.8,18c-0.2,0-0.399-0.1-0.6-0.3c-0.3-0.3-0.3-0.9,0-1.2L16.8,1.9
								c0.3-0.3,0.9-0.3,1.2,0c0.3,0.3,0.3,0.9,0,1.2L3.4,17.7C3.3,17.9,3,18,2.8,18z"/>
						</g>
					</g>
				</g>
				<g id="Group_11_" transform="translate(747.000000, 1.000000)">
					<g transform="translate(1.000000, 0.000000)">
						<path id="Shape_26_" fill="#E3000F" d="M50.7,5.8l-3-3c-1.9-1.9-2.601-2.6-3.4-1.7l-2.6,2.6C41.6,3.8,41.5,4,41.4,4.1
							c-0.2,0.1-0.301,0.3-0.5,0.4c0,0-2.2,2.2-1.301,5c-0.199,0.1-0.3,0.2-0.5,0.4L17.7,31.3l0,0L12.6,26.2
							c-0.3-0.3-1.5-1.3-3.199,0.2C9.1,26.7,4.8,31.4,4.8,31.5c-4,4.9-6.6,11.8-1.7,16.7c1.9,1.9,4.2,2.7,6.5,2.7
							c4,0,8-2.2,10.2-3.9c0.5-0.3,2.2-1.6,3.4-2.5c3.3-2.6,3.399-3,3.399-3.6c-0.1-0.5-0.3-0.9-0.6-1.2l-3.9-3.9l0,0l21.4-21.4
							c0.2-0.2,0.3-0.3,0.4-0.5c0.5,0.2,1,0.3,1.5,0.3l0,0c1.8,0,3.1-1.1,3.3-1.3c0.2-0.1,0.399-0.4,0.7-0.7
							c0.1,0,0.199-0.1,0.3-0.2l2.6-2.6c0.2-0.2,0.3-0.5,0.3-0.7C52.7,8.1,52.7,7.8,50.7,5.8z M24.4,40.8
							C23.2,42,19.3,44.9,18.8,45.2l-0.1,0.1c-0.101,0-4.5,3.5-9,3.5c-1.8,0-3.601-0.6-5.101-2.1C-0.5,41.6,5.2,34.2,6.4,32.8
							C6.7,32.5,10.6,28.2,10.8,28s0.3-0.3,0.4-0.3l6.399,6.4c0.101,0.1,0.101,0.2,0.2,0.2l1.3,1.3c0.101,0.1,0.2,0.1,0.2,0.2
							L24.4,40.8z M42,12.8L20.6,34.2c0,0,0,0-0.1,0l-1.4-1.4c0,0,0,0,0-0.1l21.4-21.4l0,0c0.2,0.2,0.4,0.5,0.6,0.7
							C41.6,12.4,41.8,12.6,42,12.8C42.1,12.8,42.1,12.8,42,12.8z M47.4,11.2C47.1,11.5,45.6,12.7,43.6,11.3l0,0L42.3,10
							c0,0,0,0-0.1-0.1c-1.4-2-0.101-3.5,0.3-3.9c0.3,0.3,0.6,0.6,1,1.1l3,3c0.4,0.4,0.8,0.8,1.1,1.1C47.5,11.1,47.4,11.2,47.4,11.2
							z M49.1,9.6L43.9,4.4L45.1,3.2C45.4,3.5,45.8,3.8,46.2,4.3l3,3C49.6,7.7,50,8.1,50.3,8.4L49.1,9.6z"/>
						<path id="Path_11_" fill="#E3000F" d="M14.5,34.9c-0.4,0.4-0.4,1.1,0,1.5c1.7,1.6,3.6,3.4,4.4,4.3c-0.7,0.7-2.2,2-4.301,3.1
							c-0.5,0.3-0.699,0.9-0.399,1.4c0.2,0.3,0.5,0.6,0.899,0.6c0.2,0,0.301,0,0.5-0.1c1.2-0.6,5.9-3.5,5.601-5.1
							c0-0.5-0.101-0.6-5.3-5.6C15.5,34.5,14.9,34.5,14.5,34.9z"/>
					</g>
					<g id="Path_12_" transform="translate(0.000000, 219.000000)">
						<path fill="#E3000F" d="M28.5,4.9c-0.4-0.1-0.8-0.6-0.7-1.1c0-0.2,0.101-0.4,0.3-1.4c0.5-1.7,2.9-2.5,4.601-2
							c2.1,0.6,3.399,2.7,3,4.1c-0.2,0.6-0.3,0.9-0.3,1.1v0.1c-0.101,0.5-0.7,0.8-1.2,0.7s-0.8-0.7-0.7-1.2c0-0.1,0-0.1,0.1-0.2
							c0-0.2,0.101-0.4,0.301-1C34,3.7,33.4,2.6,32.3,2.4c-1.1-0.3-2.1,0.3-2.2,0.7c-0.199,0.6-0.3,1-0.3,1c0,0.5-0.5,0.9-1.1,0.9
							C28.6,4.9,28.5,4.9,28.5,4.9z"/>
						<path fill="#E3000F" d="M39.6,29.9L12,22.5c-2.9-0.8-4.6-2.7-5.3-5.7c-0.601-2.5-0.3-5.2,0-7.6c0.1-0.5,0.6-0.9,1.1-0.9
							c0.5,0.1,0.9,0.6,0.9,1.1c-0.3,2.2-0.5,4.8,0,7c0.5,2.3,1.8,3.6,3.899,4.2L40.2,28c2.1,0.6,3.899,0,5.5-1.7
							c1.5-1.7,2.6-4,3.5-6c0.2-0.5,0.8-0.7,1.3-0.5c0.5,0.2,0.7,0.8,0.5,1.3c-1,2.2-2.1,4.7-3.8,6.6C44.9,29.9,42.4,30.7,39.6,29.9
							z"/>
						<path fill="#E3000F" d="M53.3,21.5L4.4,8.4C3.9,8.3,3.6,7.7,3.7,7.2c0.1-0.5,0.7-0.8,1.2-0.7L53.8,19.6
							c0.5,0.1,0.8,0.7,0.7,1.2C54.3,21.3,53.8,21.6,53.3,21.5z"/>
						<path fill="#E3000F" d="M50.3,19.6L50.3,19.6c-0.6-0.2-0.899-0.8-0.7-1.3c0-0.1,0.101-0.3-0.1-0.8C47.8,14,36.3,8.8,32.9,7.7
							l-4.5-1.2C26.8,6.2,22,5.7,17.5,5.7C9.7,5.8,9.1,7.4,9,7.6C8.9,8.1,8.3,8.4,7.8,8.3C7.3,8.2,7,7.6,7.1,7.1
							C7.7,4.9,11,3.8,17.4,3.8c4.5,0,9.5,0.5,11.3,0.8c0,0,0,0,0.1,0L33.4,5.8c0,0,0,0,0.1,0c2,0.7,15.5,6.2,17.8,10.9
							c0.4,0.8,0.5,1.6,0.2,2.4C51.4,19.5,50.8,19.7,50.3,19.6z"/>
						<path fill="#E3000F" d="M36.5,41.3L8.9,33.9C6,33.1,4.3,31.2,3.6,28.2c-0.6-2.5-0.3-5.2,0-7.6C3.7,20.1,4.2,19.7,4.7,19.7
							C5.2,19.8,5.6,20.3,5.6,20.8c-0.3,2.2-0.5,4.8,0,7C6.1,30.1,7.4,31.4,9.5,32l27.6,7.4c2.101,0.6,3.9,0,5.5-1.7
							c1.5-1.7,2.601-4,3.5-6c0.2-0.5,0.801-0.7,1.301-0.5s0.699,0.8,0.5,1.3c-1,2.2-2.101,4.7-3.801,6.6
							C41.9,41.3,39.4,42.1,36.5,41.3z"/>
						<path fill="#E3000F" d="M50.2,32.8L1.3,19.7c-0.5-0.1-0.8-0.7-0.7-1.2C0.7,18,1.3,17.7,1.8,17.8L50.7,30.9
							c0.5,0.1,0.8,0.699,0.7,1.199C51.3,32.6,50.7,32.9,50.2,32.8z"/>
					</g>
					<path id="Shape_27_" fill="#E3000F" d="M42,435.7c-7.1-8.5-18.6-11-28-5.9C4.9,434.6,0.4,445.9,3.2,456.5
						c-1.8,1.8-2.2,4.8-0.8,7.4L2.6,464.1l11.2,10.7c0.2,0.2,0.601,0.3,0.9,0.101l1-0.5l0.5,3.5c0.3,1.899,2.1,3.199,4,2.899
						c0.399-0.1,0.7-0.2,1-0.3c0.5-0.2,0.899-0.6,1.2-1c0.5-0.8,0.699-1.7,0.6-2.6l-1-5.801l21.7-11.6l4.3,4.1
						c1.1,1.101,2.7,1.301,4,0.601c0.3-0.2,0.6-0.4,0.9-0.7c0.6-0.7,0.899-1.5,0.899-2.5c0-0.9-0.399-1.8-1.1-2.5l-2.601-2.4
						l1.4-0.699c0.3-0.2,0.5-0.5,0.4-0.801L49.3,439.3c0-0.1,0-0.2-0.1-0.3C47.5,436.4,44.5,435,42,435.7z M14.7,431.2
						c8.7-4.601,19.2-2.5,25.8,5.2c-2.4,1.6-3.1,5.1-1.5,8l2.5,4.699c-2.9,0.301-10.5,1.4-15.1,3.801
						C20.6,456,16.4,461.1,14.8,463.2l-2.5-4.601c-1.6-3-5-4.399-7.7-3.1C2.2,445.8,6.4,435.6,14.7,431.2z M21.4,477.1
						c0.1,0.5,0,1-0.301,1.4c-0.3,0.4-0.699,0.7-1.199,0.8c-1,0.2-2-0.6-2.2-1.6L17.1,473.6l3.4-1.8L21.4,477.1z M51.4,459.7
						C51.8,460.1,52,460.5,52,461s-0.2,1-0.5,1.4c-0.7,0.8-1.9,0.8-2.6,0l-3.801-3.7l3.4-1.8L51.4,459.7z M50,454.3l-35.6,19
						L3.7,463.1c-1.101-2.3-0.5-5,1.399-6c2-1.1,4.601,0,5.801,2.301l3,5.8c0.1,0.2,0.399,0.399,0.6,0.399c0.3,0,0.5-0.1,0.7-0.3
						c0-0.1,4.8-7.1,11.8-10.899c5.4-2.9,15.6-3.801,15.7-3.801c0.3,0,0.5-0.199,0.6-0.399c0.101-0.2,0.101-0.5,0-0.8l-3.1-5.7
						C39,441.4,39.6,438.6,41.6,437.6c1.9-1,4.5-0.1,5.801,2.2L50,454.3z"/>
				</g>
				<g id="Group_12_" transform="translate(835.000000, 110.000000)">
					<g id="Shape_28_" transform="translate(7.000000, 0.000000)">
						<path fill="#E3000F" d="M30.3,7.9C39.4,11.1,44.5,21.4,41.4,30.4c-3.2,9.3-13.5,14.5-22.7,11.2c-9.601-3.4-14.3-13.3-11-23
							C10.8,9.6,21.3,4.7,30.3,7.9z M38,32.9c1.4-1.4,1.8-3.2,2.1-4.8c-6.6-12.6-21.5-15-30.399-9.9c-0.4,1.4-0.8,3-1.2,4.9
							c1.3-0.2,2-0.4,2.8-0.5c3.101-0.5,6.101-0.4,8,2.5c1.9,2.9,1.101,5.7-0.399,8.5c-0.5,0.9-1.301,1.8-1.9,2.6
							c-0.4,0.5-0.9,1.1-1.4,1.8c2.4,1.9,5,2.8,7.7,2.8c0.3-2.8,0.2-5.3,0.9-7.6c1.5-5.4,6.7-6.8,11-3.1
							C36.1,30.7,36.9,31.8,38,32.9z M40.2,24.6c0.2-7.5-5.3-14-12.4-15.5c-6.1-1.3-13.399,1.5-15.2,5.8
							C23.6,12.2,32.7,15.3,40.2,24.6z M13.6,36.5c2.7-2,4.2-4.3,4.7-7.1c0.601-2.8-1-5-3.8-5.3c-2.1-0.2-4.1,0-6.1,1.2
							C8.7,29.7,10.3,33.4,13.6,36.5z M36.7,34.9c-1.2-2.2-2.5-3.7-4.4-4.7c-2.3-1.2-4.7-0.5-5.8,1.7c-1.4,2.7-1.8,5.6-0.7,8.8
							C30.3,40.2,33.8,38.3,36.7,34.9z"/>
						<path fill="#E3000F" d="M26.5,19.4c2.1,0.8,2.9,3.1,2,5.2c-0.8,1.9-3.1,2.8-5,2c-1.9-0.8-2.8-3-2.1-4.9
							C22.2,19.5,24.4,18.6,26.5,19.4z M27,23.7c0.4-1.1-0.2-2.2-1.4-2.6c-1.1-0.4-2.3,0.2-2.6,1.2s0.4,2.3,1.4,2.7
							C25.4,25.3,26.7,24.7,27,23.7z"/>
						<path fill="#E3000F" d="M16.8,47C4.4,42.8-2.2,29.2,2,16.8C6.2,4.4,19.8-2.2,32.2,2C44.6,6.2,51.2,19.8,47,32.2
							C42.8,44.6,29.2,51.2,16.8,47z M31.6,3.7C20.1-0.2,7.6,5.9,3.7,17.4c-3.9,11.5,2.2,24,13.7,27.9c11.5,3.9,24-2.2,27.899-13.7
							C49.3,20.1,43.1,7.6,31.6,3.7z"/>
					</g>
					<path id="Shape_29_" fill="#E3000F" d="M51.4,212.9l-16.5,4.5c-1.601-4.4-6.4-6.9-11-5.601c-4.601,1.2-7.5,5.8-6.7,10.4
						l-15.9,4.3c-0.5,0.1-0.8,0.7-0.7,1.1L10.4,263.9c0.1,0.5,0.699,0.8,1.1,0.699L61.7,251c0.5-0.1,0.8-0.7,0.7-1.1L52.6,213.6
						C52.5,213.1,51.9,212.8,51.4,212.9z M41.1,217.6l9.301,34.5l-29,7.801L12.1,225.4L41.1,217.6z M24.4,213.5
						c3.6-1,7.3,0.9,8.699,4.3L19,221.6C18.5,218.1,20.7,214.5,24.4,213.5z M2.7,228l7.6-2.1l9.3,34.5l-7.6,2.1L2.7,228z
						 M60.4,249.5l-8.101,2.2L43,217.2l8.1-2.2L60.4,249.5z"/>
				</g>
				<g id="Group_13_" transform="translate(932.000000, 1.000000)">
					<path id="Shape_30_" fill="#E3000F" d="M27.5,480.6C17.5,480.7,9.8,476.4,4.6,467.9c-0.5-0.801-1-1.601-1.399-2.5
						C2.6,463.1,2,460.9,1.4,458.6c0-1,0-2,0-3C1.7,445.6,6.1,437.9,15,433.3c11.3-6,25.2-2.399,32.4,8.5
						c8.8,13.3,3.1,30.601-10.5,36.7c-0.2,0.1-0.4,0.3-0.5,0.5c-2.301,0.6-4.5,1.2-6.801,1.8C28.9,480.7,28.2,480.6,27.5,480.6z
						 M19.4,461.6c-0.7-2.6-1.4-5.1-2.101-7.699c-2.6-0.7-5.3-1.301-8-2C7.4,453.8,5.5,455.6,3.5,457.5c0.3,1.4,0.6,2.7,0.9,4
						c0.3,1.3,0.699,2.5,1,3.9c2.699,0.699,5.199,1.3,7.899,2C15.5,465.4,17.4,463.5,19.4,461.6z M35.4,457.4
						c-0.7-2.601-1.4-5.2-2.101-7.9c-2.6-0.6-5.2-1.3-7.899-2c-2,2-4,3.8-5.9,5.7c0.7,2.6,1.4,5.1,2.1,7.8c2.601,0.7,5.2,1.3,8,2
						C31.6,461.1,33.5,459.2,35.4,457.4z M14.2,436.3c-2.601,1.4-4.2,3.8-6.3,5.601C8.6,444.6,9.3,447.1,10,449.7
						c2.6,0.7,5.2,1.3,7.9,2c2-1.9,3.899-3.9,5.899-5.8c-0.7-2.601-1.399-5.101-2.1-7.7C19.2,437.6,16.8,437,14.2,436.3z
						 M20.8,463.2c-1.899,1.8-3.8,3.7-5.7,5.6c0.7,2.5,1.301,5,2.101,7.7c2.6,0.8,5.3,1.6,8.1,2c2-1.9,3.9-3.7,5.8-5.6
						C30.4,470.4,29.7,467.8,29,465.1C26.2,464.5,23.6,463.8,20.8,463.2z M26,445.3c2.6,0.7,5.3,1.4,8.1,2.101
						c2-1.9,3.9-3.801,6-5.801c-0.3-1.899-0.899-3.6-1.399-5.5c-2.9-1.899-6-2.899-9.601-3.399c-1.699,1.6-3.399,3.2-5.1,4.899
						C24.6,440.3,25.3,442.7,26,445.3z M45.2,460.9c-2.601-0.7-5.3-1.4-8-2.101c-2,2-4,3.8-6.101,5.9c0.301,1.2,0.601,2.399,1,3.7
						c0.4,1.3,0.7,2.5,1,3.899c2.301,0.601,4.5,1.2,6.601,1.7c2.5-1.2,5.3-4.4,6.899-7.7C46.2,464.5,45.7,462.8,45.2,460.9z
						 M37.8,456.7c2.601,0.7,5.2,1.3,8,2c1.2-1.2,2.5-2.4,3.7-3.601c-0.2-3.8-1.1-7.3-2.9-10.699c-1.6-0.4-3.199-0.801-5-1.301
						c-1.899,1.801-3.899,3.7-5.899,5.7C36.4,451.5,37.1,454.1,37.8,456.7z M6.2,445c-1.5,2.9-2.3,5.7-2.5,8.9
						c1-0.4,1.5-1.2,2.1-1.7c0.601-0.5,1.2-1.2,1.9-1.8C7.2,448.6,6.7,446.9,6.2,445z M12.8,469.4c-1.6-0.4-3.3-0.801-5.3-1.301
						c1.8,2.9,3.9,4.9,6.8,6.7C13.7,472.8,13.2,471.2,12.8,469.4z M16.7,434.7c1.2,0.3,2,0.6,2.899,0.8c0.9,0.2,1.801,0.4,2.801,0.7
						c1.1-1,2.199-2.101,3.6-3.4C22.7,432.6,19.9,433.7,16.7,434.7z M32.6,474.4c-1.3,1.3-2.6,2.5-3.899,3.699
						c2.5,0,6.7-1.3,8.5-2.6C35.6,475.2,34.1,474.8,32.6,474.4z M41.3,437.9c0.3,1.3,0.601,2.1,0.8,3.1c0.7,0.2,1.5,0.4,2.301,0.6
						c0.1-0.1,0.1-0.199,0.199-0.199C43.6,440.4,42.7,439.3,41.3,437.9z M47.3,460.3c0.3,0.9,0.5,1.8,0.8,3.101
						c0.4-1.801,0.801-3.2,1.101-4.601c-0.101,0-0.2-0.1-0.3-0.1C48.4,459.2,47.8,459.7,47.3,460.3z"/>
					<g id="Shape_31_" transform="translate(10.000000, 0.000000)">
						<path fill="#E3000F" d="M1,21.1c3.2,12,22.3,26.8,23.1,27.4c0.2,0.2,0.601,0.2,0.801,0.2c0.3-0.1,0.5-0.3,0.6-0.6
							c0.4-0.9,9.5-23.2,6.3-35.3C29.5,4.3,20.7-0.8,12.3,1.5C3.8,3.8-1.3,12.5,1,21.1z M2.9,20.5C0.9,13,5.3,5.3,12.8,3.3
							S28,5.7,30,13.2c2.7,9.9-3.9,28.1-5.7,32.9C20.3,42.9,5.5,30.5,2.9,20.5z"/>
						<path fill="#E3000F" d="M9.9,17.8c0.899,3.5,4.5,5.6,8,4.6c3.5-0.9,5.6-4.5,4.6-8c-0.9-3.5-4.5-5.6-8-4.6
							C11,10.7,8.9,14.3,9.9,17.8z M11.7,17.2c-0.7-2.5,0.8-5,3.3-5.7s5,0.8,5.7,3.3s-0.8,5-3.3,5.7S12.4,19.7,11.7,17.2z"/>
					</g>
					<g id="Path_13_" transform="translate(0.000000, 213.000000)">
						<path fill="#E3000F" d="M48.4,44.6C48,44.4,47.5,44.4,47.3,44.8c-4.5,6.7-15.5,9.4-26.2,6.601C10,48.4,2.1,40.7,1.9,32.6
							c0-0.5-0.4-0.8-0.801-0.8c-0.5,0-0.8,0.4-0.8,0.8C0.5,41.4,8.9,49.7,20.7,52.9c11.3,3,23.1,0,28-7.301
							C48.9,45.4,48.8,44.9,48.4,44.6z"/>
						<path fill="#E3000F" d="M28.2,24.5c2.5,0.7,5.2,0,6.3-1.7c0.2-0.4,0.2-0.9-0.2-1.1c-0.399-0.2-0.899-0.2-1.1,0.2
							c-0.7,1.1-2.7,1.6-4.5,1.1c-1.9-0.5-3.3-1.8-3.4-3.2c0-0.5-0.399-0.8-0.8-0.8c-0.5,0-0.8,0.4-0.8,0.8
							C23.6,21.8,25.5,23.8,28.2,24.5z"/>
						<path fill="#E3000F" d="M13.5,29.1L10.1,39.2C10,39.6,10.2,40.1,10.6,40.2l0,0c0.4,0.1,0.801-0.101,1-0.5L15,29.6l0,0
							c0.4-1.5,2-2.5,3.6-2.1l17.2,4.6C37.4,32.5,38.4,34.2,37.9,35.8l0,0L35.6,46.1c-0.1,0.5,0.2,0.9,0.601,1
							c0.5,0.101,0.899-0.199,1-0.6l2.3-10.3c0.7-2.5-0.8-5-3.3-5.7L19.1,25.9C16.7,25.2,14.2,26.7,13.5,29.1z"/>
						<path fill="#E3000F" d="M52.6,37.1C54,25,46.2,22.9,46.1,22.8c-0.1,0-0.1,0-0.199,0c-0.101-0.1-0.2-0.3-0.301-0.4
							c-1.3-1.9-3.399-2.3-3.8-2.3L24.9,15.6C24.9,12.9,24.1,3.4,12.8,0.3C9.9-0.5,8.3,2.1,6.2,5.3c-0.9,1.5-2,3.2-3.3,4.9
							c-1,1.2-1.301,3-0.9,4.4c0.5,1.4,1.5,2.5,3.1,2.9C5.4,17.6,5.7,17.6,6,17.4l6.6-2.9L7,35.5c-0.1,0.4,0.1,0.9,0.6,1
							c0.4,0.1,0.9-0.1,1-0.6L14.7,13.3c0.1-0.3,0-0.6-0.3-0.8c-0.2-0.2-0.601-0.3-0.9-0.1L5.6,16C4.4,15.6,3.9,14.8,3.7,14.2
							c-0.3-1-0.101-2.1,0.6-2.9c1.4-1.8,2.5-3.5,3.5-5c2-3.2,3.101-4.8,4.7-4.3c11.8,3.2,11,13.8,10.9,14.3
							c0,0.4,0.199,0.8,0.6,0.9l17.6,4.7H41.7c0,0,1.7,0.2,2.7,1.6c0.6,0.9,0.8,2,0.699,3.4c0,0.1,0,0.1,0,0.2
							c-0.1,0.6-0.199,1.1-0.3,1.8l-4.2,15.8C40.5,45.1,40.7,45.6,41.2,45.7c0.399,0.1,0.899-0.101,1-0.601l4.2-15.8
							C46.5,29,46.6,28.7,46.6,28.4c1,0.8,2.5,3,1.9,8.3c0,0.399,0.2,0.8,0.6,0.899H49.2c0.399,0,0.899-0.3,0.899-0.699
							C51,29.6,48.2,27.3,46.8,26.6c0-0.6,0-1.1-0.1-1.6c1.7,0.9,5.399,3.8,4.399,12.1c0,0.4,0.2,0.801,0.601,0.9h0.1
							C52.2,37.9,52.6,37.6,52.6,37.1z"/>
					</g>
				</g>
			</g>
		</g>
	</g>
</g>
</svg>
