<svg xmlns="http://www.w3.org/2000/svg" width="86" height="65" viewBox="0 0 86 65">
    <g fill="#060606" fill-rule="evenodd">
        <g>
            <path d="M17.89 6.391L15.436 7.551 15.782 4.859 13.92 2.884 16.587 2.381 17.89 0 19.193 2.381 21.86 2.884 19.998 4.859 20.344 7.551zM26.239 8.459L24.135 9.454 24.432 7.147 22.836 5.454 25.122 5.023 26.239 2.982 27.355 5.023 29.641 5.454 28.045 7.147 28.342 9.454zM32.798 11.124L31.046 11.953 31.293 10.03 29.962 8.62 31.868 8.261 32.798 6.56 33.729 8.261 35.634 8.62 34.304 10.03 34.551 11.953zM2.982 11.124L1.229 11.953 1.476 10.03.146 8.62 2.051 8.261 2.982 6.56 3.912 8.261 5.817 8.62 4.487 10.03 4.734 11.953zM9.541 8.459L7.438 9.454 7.735 7.147 6.138 5.454 8.425 5.023 9.541 2.982 10.658 5.023 12.944 5.454 11.348 7.147 11.644 9.454z" transform="translate(25.642 10.209)"/>
        </g>
        <g transform="translate(39.954 20.347)">
            <circle cx="3.28" cy=".894" r="1"/>
            <circle cx="5.963" cy="1.193" r="1"/>
            <circle cx=".596" cy="1.193" r="1"/>
        </g>
        <g transform="translate(39.954 48.374)">
            <circle cx="3.28" cy=".894" r="1"/>
            <circle cx="5.963" cy="1.193" r="1"/>
            <circle cx=".596" cy="1.193" r="1"/>
        </g>
        <circle cx="43.532" cy="59.108" r="1.789"/>
        <path fill-rule="nonzero" d="M28.221 38.961c1.109 0 1.955-.222 2.538-.666.583-.445.874-1.103.874-1.975 0-.306-.053-.59-.159-.853-.106-.263-.271-.488-.495-.673-.224-.185-.514-.317-.869-.394.416-.172.724-.423.924-.756.2-.332.3-.708.3-1.128 0-.815-.314-1.429-.942-1.84-.628-.412-1.502-.618-2.623-.618h-4.03v1.26l.923.195v5.999l-.923.196v1.253h4.482zm-.544-5.21h-.868v-2.054h.96c.476 0 .832.085 1.067.254.234.169.351.439.351.81 0 .338-.125.588-.376.749-.25.16-.629.241-1.134.241zm.544 3.578h-1.412V35.17h1.516c.277 0 .501.042.673.125.17.084.297.21.379.38.081.169.122.382.122.639 0 .342-.107.597-.321.764-.214.167-.533.25-.957.25zm11.196 1.632v-2.03l-1.673-.316v-2.356l-.238-6.178.07-.01 4.138 10.89h2.732l4.08-11.019.058.01-.079 6.782v1.88l-1.554.318v2.03h6.455v-2.03l-1.495-.317v-9.712l1.495-.317v-2.04h-6.722l-3.386 9.495h-.06l-3.484-9.494h-6.802v2.04l1.485.316v9.712l-1.485.317v2.03h6.465zm18.46 0v-1.253l-.58-.11.256-.967h2.862l.269.967-.581.11v1.253h3.326v-1.253l-.623-.092-2.66-7.558h-2.324l-2.654 7.558-.623.092v1.253h3.332zm2.08-3.834h-1.952l.844-2.666.104-.342h.037l.098.312.868 2.696zM41.1 45.622c0-.058-.001-.125-.005-.203l-.011-.243c-.005-.085-.01-.168-.017-.25l-.02-.23h-.119l-.233.535h-.82l-.268.028v-.019l.2-.186c.121-.118.253-.254.396-.41.143-.156.276-.322.399-.499.122-.176.225-.358.307-.546.083-.188.124-.37.124-.549 0-.108-.017-.212-.052-.312-.035-.1-.09-.189-.165-.265-.074-.076-.169-.137-.283-.181-.115-.045-.252-.067-.41-.067-.182 0-.35.028-.506.084-.156.055-.29.13-.401.226.025.111.056.23.093.353.036.124.072.232.107.325h.12l.152-.683c.06-.019.116-.033.167-.043.051-.01.11-.014.177-.014.089 0 .167.018.236.053.068.035.126.083.174.145.048.062.083.134.107.217.024.083.036.17.036.263 0 .133-.026.273-.079.42-.052.146-.12.293-.202.44-.083.149-.178.294-.284.437-.107.143-.214.278-.322.406-.108.127-.213.243-.313.348l-.255.267v.153h1.97zm1.362.057c.375 0 .659-.145.851-.434.193-.29.289-.72.289-1.293 0-.582-.09-1.015-.267-1.3-.178-.285-.46-.427-.845-.427-.356 0-.63.145-.82.434-.191.29-.286.72-.286 1.293 0 .274.02.517.06.73.039.213.102.394.188.541.085.148.197.261.334.34.136.077.302.116.496.116zm-.005-.196c-.111 0-.206-.036-.284-.11-.078-.072-.141-.177-.19-.312-.05-.135-.086-.296-.108-.484-.022-.188-.034-.396-.034-.625 0-.525.049-.91.146-1.157.097-.246.265-.37.503-.37.128 0 .233.037.318.11.084.073.151.177.202.31.051.134.086.294.105.482.02.188.029.396.029.625 0 .525-.052.911-.155 1.16-.104.247-.28.371-.532.371zm3.103.139v-.139c-.08-.035-.16-.066-.239-.093-.08-.027-.159-.05-.238-.069v-3.096h-.12c-.133.108-.278.198-.434.27-.156.071-.307.13-.453.178l.024.115c.102.003.2-.002.296-.017.095-.014.187-.039.276-.074l-.019.282v2.342c-.082.02-.164.042-.245.07-.082.026-.162.057-.241.092v.139h1.393zm1.538.057c.171 0 .323-.023.455-.07.132-.045.243-.108.334-.188.09-.08.16-.171.205-.276.046-.105.07-.217.07-.334 0-.112-.02-.216-.06-.313-.04-.097-.094-.187-.162-.27-.069-.082-.15-.158-.246-.228-.095-.07-.199-.134-.31-.191.194-.09.351-.203.472-.341.121-.139.181-.3.181-.484 0-.223-.078-.405-.233-.547-.156-.141-.374-.212-.654-.212-.143 0-.273.02-.389.062-.116.041-.214.099-.296.172-.08.073-.143.16-.188.262-.044.102-.067.215-.067.339 0 .108.017.206.05.293.034.088.08.168.136.241.058.073.125.139.203.196.078.057.161.11.25.157-.11.038-.213.088-.307.148s-.175.13-.243.208c-.069.078-.122.165-.16.262-.038.097-.058.2-.058.308 0 .105.02.206.06.303.04.097.102.183.186.257.084.075.19.135.317.18.128.044.279.066.454.066zm.171-1.932c-.082-.041-.163-.086-.24-.134-.078-.047-.148-.1-.208-.16-.06-.058-.109-.124-.146-.197-.036-.074-.054-.16-.054-.258 0-.07.01-.138.033-.203.022-.065.056-.123.1-.174.045-.05.099-.092.162-.124.064-.032.139-.048.225-.048.152 0 .272.054.36.16.087.107.13.258.13.456 0 .13-.026.25-.08.357-.054.109-.148.217-.282.325zm-.133 1.713c-.118 0-.217-.02-.298-.058-.082-.038-.147-.087-.198-.148-.051-.06-.089-.13-.112-.207-.024-.078-.036-.155-.036-.231 0-.06.008-.126.024-.196.015-.07.042-.14.078-.212.037-.072.085-.141.146-.208.06-.067.137-.127.229-.181.098.048.195.1.288.157.094.057.177.12.248.189.072.068.13.146.172.233.043.088.065.186.065.294 0 .067-.013.134-.039.203-.025.068-.063.13-.114.183-.05.054-.115.098-.19.131-.077.034-.165.05-.263.05z"/>
        <g>
            <path d="M30.03 15.553c2.955-2.555 2.955-6.47 0-11.743-3.003 5.145-3.003 9.06 0 11.743zM32.243 24.341c3.455-1.825 4.335-5.639 2.642-11.442-4.083 4.338-4.964 8.152-2.642 11.442zM32.241 32.695c3.85-.668 5.866-4.024 6.049-10.066-5.224 2.864-7.24 6.22-6.049 10.066zM29.851 39.26c3.82.822 6.946-1.534 9.379-7.067-5.916.698-9.042 3.054-9.379 7.067zM27.464 45.225c3.668 1.345 7.091-.553 10.27-5.694-5.955-.132-9.379 1.766-10.27 5.694zM22.69 50.593c3.379 1.962 7.08.688 11.104-3.823-5.842-1.164-9.544.11-11.103 3.823zM16.128 55.364c2.986 2.52 6.852 1.907 11.598-1.837-5.551-2.16-9.417-1.548-11.598 1.837zM8.533 58.058c2.176 3.244 6.061 3.721 11.655 1.431-4.74-3.607-8.626-4.084-11.655-1.431zM.781 60.549c1.945 3.388 5.787 4.135 11.528 2.24C7.83 58.86 3.989 58.113.78 60.55zM1.989 57.563c3.867.554 6.822-2.014 8.863-7.704-5.853 1.109-8.808 3.677-8.863 7.704zM12.728 55.17c3.626-1.454 4.9-5.155 3.823-11.103-4.514 3.887-5.788 7.588-3.823 11.103zM20.481 50.99c2.955-2.556 2.955-6.47 0-11.743-3.002 5.145-3.002 9.06 0 11.743zM25.848 45.62c2.466-3.03 1.787-6.885-2.04-11.565-2.063 5.588-1.383 9.443 2.04 11.565zM28.83 37.866c2.192-3.233 1.18-7.014-3.04-11.343-1.569 5.747-.556 9.528 3.04 11.343zM31.213 28.917c1.281-3.691-.676-7.081-5.872-10.17-.028 5.957 1.93 9.347 5.872 10.17zM28.825 18.776c.35-3.892-2.369-6.707-8.158-8.448 1.414 5.787 4.134 8.603 8.158 8.448zM26.277 11.208c.889-3.805-1.412-6.972-6.902-9.5.595 5.927 2.895 9.093 6.902 9.5z" transform="translate(44.725)"/>
        </g>
        <g>
            <path d="M30.03 15.553c2.955-2.555 2.955-6.47 0-11.743-3.003 5.145-3.003 9.06 0 11.743zM32.243 24.341c3.455-1.825 4.335-5.639 2.642-11.442-4.083 4.338-4.964 8.152-2.642 11.442zM32.241 32.695c3.85-.668 5.866-4.024 6.049-10.066-5.224 2.864-7.24 6.22-6.049 10.066zM29.851 39.26c3.82.822 6.946-1.534 9.379-7.067-5.916.698-9.042 3.054-9.379 7.067zM27.464 45.225c3.668 1.345 7.091-.553 10.27-5.694-5.955-.132-9.379 1.766-10.27 5.694zM22.69 50.593c3.379 1.962 7.08.688 11.104-3.823-5.842-1.164-9.544.11-11.103 3.823zM16.128 55.364c2.986 2.52 6.852 1.907 11.598-1.837-5.551-2.16-9.417-1.548-11.598 1.837zM8.533 58.058c2.176 3.244 6.061 3.721 11.655 1.431-4.74-3.607-8.626-4.084-11.655-1.431zM.781 60.549c1.945 3.388 5.787 4.135 11.528 2.24C7.83 58.86 3.989 58.113.78 60.55zM1.989 57.563c3.867.554 6.822-2.014 8.863-7.704-5.853 1.109-8.808 3.677-8.863 7.704zM12.728 55.17c3.626-1.454 4.9-5.155 3.823-11.103-4.514 3.887-5.788 7.588-3.823 11.103zM20.481 50.99c2.955-2.556 2.955-6.47 0-11.743-3.002 5.145-3.002 9.06 0 11.743zM25.848 45.62c2.466-3.03 1.787-6.885-2.04-11.565-2.063 5.588-1.383 9.443 2.04 11.565zM28.83 37.866c2.192-3.233 1.18-7.014-3.04-11.343-1.569 5.747-.556 9.528 3.04 11.343zM31.213 28.917c1.281-3.691-.676-7.081-5.872-10.17-.028 5.957 1.93 9.347 5.872 10.17zM28.825 18.776c.35-3.892-2.369-6.707-8.158-8.448 1.414 5.787 4.134 8.603 8.158 8.448zM26.277 11.208c.889-3.805-1.412-6.972-6.902-9.5.595 5.927 2.895 9.093 6.902 9.5z" transform="matrix(-1 0 0 1 41.147 0)"/>
        </g>
    </g>
</svg>
