<svg xmlns="http://www.w3.org/2000/svg" width="64" height="70" viewBox="0 0 64 70">
    <g fill="none" fill-rule="evenodd">
        <path stroke="#060606" stroke-width=".875" d="M31.334 4.913L4.375 20.135v29.677l26.959 15.275 27.729-15.279v-29.67L31.332 4.913z"/>
        <path stroke="#060606" stroke-width=".875" d="M31.279.501L.438 17.953v34.032L31.277 69.5 63 51.982V17.957L31.279.5z"/>
        <path fill="#060606" d="M3.938 27.317H59.501000000000005V43.067H3.938z"/>
        <path fill="#060606" d="M58.625 25.567H63.438V44.817H58.625zM0 25.567H4.813V44.817H0z"/>
        <path stroke="#060606" stroke-linecap="square" stroke-width=".875" d="M8.969 25.348L54.906 25.348M8.969 44.817L54.906 44.817"/>
        <path fill="#FFF" fill-rule="nonzero" d="M19.813 39.709c.716 0 1.366-.126 1.949-.378.582-.252 1.07-.619 1.464-1.099l-1.228-1.134c-.56.654-1.252.98-2.08.98-.51 0-.968-.112-1.37-.336-.4-.225-.714-.538-.938-.94-.225-.4-.337-.858-.337-1.37 0-.511.112-.968.337-1.37.224-.401.537-.714.939-.939.401-.224.858-.337 1.37-.337.827 0 1.52.323 2.079.97l1.228-1.135c-.393-.472-.88-.835-1.458-1.087-.58-.252-1.227-.378-1.944-.378-.85 0-1.616.183-2.297.55-.681.366-1.217.874-1.607 1.523-.39.65-.584 1.384-.584 2.203 0 .82.195 1.554.584 2.203.39.65.926 1.158 1.607 1.524.681.366 1.443.55 2.286.55zm19.237-5.83c.437 0 .832.078 1.185.232.353.155.65.377.89.668l-.893.85c-.46-.812-2.53-.762-2.53.875 0 1.638 2.018 1.775 2.53.875l.893.844c-.24.295-.538.52-.893.674-.356.155-.752.232-1.19.232-.513 0-.978-.112-1.393-.337-.416-.225-.742-.536-.98-.935-.238-.4-.356-.85-.356-1.353 0-.502.118-.953.356-1.352.238-.399.564-.71.98-.935.415-.225.882-.338 1.401-.338zm.106 1.75c.483 0 .875.392.875.875 0 .484-.392.875-.875.875s-.875-.391-.875-.875c0-.483.392-.875.875-.875zm-13.781 3.485v-8.312h-1.75v8.312h1.75zm3.335.13c.375 0 .723-.072 1.045-.215.215-.095.383-.21.504-.342v.464h1.663V33.86h-1.753v2.619c0 .952-.263 1.505-1.065 1.505-.817 0-1.225-.502-1.225-1.505v-2.62h-1.603v2.886c0 .926.082 1.321.546 1.792.465.471 1.094.707 1.888.707zm6.345-.128V34.77h.83v-.875h-.83v-2.09h-1.464v2.09h-.779v.875h.78v4.368l1.463-.023zm8.434.013v-2.823c0-.51.111-.893.334-1.151.223-.259.522-.388.897-.388.338 0 .595.112.774.335.178.222.267.56.267 1.013v3.014h1.489V35.86c0-.834-.196-1.464-.587-1.889-.391-.424-.905-.636-1.542-.636-.33 0-.636.058-.916.175-.28.116-.519.284-.716.504v-2.76H42v7.875h1.49z"/>
        <text fill="#060606" font-family="Roboto-Medium, Roboto" font-size="4.375" font-weight="400" letter-spacing=".175">
            <tspan x="27.25" y="14.692">TOP</tspan> <tspan x="18.204" y="21.254">MOBILE APP</tspan>
        </text>
        <text fill="#060606" font-family="Roboto-Medium, Roboto" font-size="4.375" font-weight="400" letter-spacing=".175">
            <tspan x="17.58" y="50.567">DEVELOPERS</tspan> <tspan x="26.396" y="57.567">2019</tspan>
        </text>
    </g>
</svg>
