<svg xmlns="http://www.w3.org/2000/svg" width="70" height="70" viewBox="0 0 70 70">
    <g fill="none" fill-rule="evenodd">
        <path fill="#060606" fill-rule="nonzero" d="M68.112 30.14l-2.2-2.369c-1.44-1.55-2.113-3.705-1.823-5.84l.443-3.262c.507-3.734-1.921-7.213-5.488-7.864l-3.117-.57c-2.04-.372-3.8-1.704-4.771-3.609l-1.484-2.91C47.975.384 44.046-.945 40.792.71L37.95 2.16c-1.86.946-4.037.946-5.897 0L29.208.71c-3.253-1.655-7.182-.326-8.88 3.004l-1.483 2.911c-.97 1.905-2.731 3.237-4.77 3.61l-3.118.569c-3.567.651-5.995 4.13-5.488 7.864l.443 3.262c.29 2.135-.383 4.29-1.823 5.84l-2.2 2.368c-2.519 2.71-2.519 7.012 0 9.721l2.2 2.369c1.44 1.55 2.112 3.704 1.823 5.84l-.443 3.262c-.508 3.733 1.92 7.213 5.488 7.864l3.117.57c2.04.372 3.8 1.704 4.77 3.609l1.485 2.91c1.697 3.331 5.626 4.66 8.88 3.004l2.843-1.447c1.86-.947 4.036-.947 5.897 0l2.844 1.447c3.253 1.657 7.182.327 8.88-3.004l1.483-2.91c.97-1.905 2.731-3.237 4.77-3.61l3.118-.569c3.567-.651 5.995-4.13 5.488-7.864l-.443-3.263c-.29-2.135.382-4.29 1.822-5.84l2.2-2.368c2.518-2.71 2.518-7.01 0-9.72zM11.02 55.634c-1.318 0-2.386-1.112-2.386-2.484 0-1.372 1.068-2.484 2.386-2.484s2.386 1.112 2.386 2.484c0 1.372-1.068 2.484-2.386 2.484z"/>
        <path fill="#FFF" fill-rule="nonzero" d="M31.433 58.364l.123-.673-1.535-.28.963-.626c.274-.175.468-.34.58-.495.113-.155.187-.33.223-.523.039-.215.017-.41-.064-.59-.082-.178-.214-.328-.397-.451-.183-.123-.407-.21-.673-.258-.316-.057-.607-.05-.873.023-.267.072-.489.2-.666.381l.531.498c.107-.103.229-.173.365-.21.137-.036.284-.04.44-.012.187.034.322.099.405.193.083.094.111.213.085.355-.018.099-.061.194-.13.285-.07.09-.19.193-.362.305l-1.615 1.05-.098.535 2.698.493zm2.406.217c.3.006.57-.063.808-.206.238-.144.426-.355.565-.634.14-.28.213-.614.22-1.005.009-.39-.051-.728-.178-1.012-.127-.284-.307-.503-.539-.657-.232-.153-.498-.233-.799-.24-.3-.005-.57.063-.808.207-.238.144-.427.355-.565.634-.14.28-.213.614-.22 1.004-.009.39.05.728.178 1.013.127.284.307.503.539.657.232.153.498.233.799.239zm.014-.71c-.217-.005-.387-.103-.51-.296-.122-.193-.179-.488-.17-.885.008-.398.077-.69.207-.878.13-.187.304-.279.521-.274.222.005.393.103.516.296.122.192.179.488.17.885-.008.397-.077.69-.207.877-.13.188-.305.28-.527.275zm3.863.509l-.424-3.605-1.555.183.079.67.72-.086.346 2.936.834-.098zm2.623-.485c.294-.077.542-.189.742-.336.201-.147.342-.318.424-.513.081-.194.093-.4.037-.618-.049-.184-.137-.334-.266-.45-.128-.116-.291-.195-.488-.237.113-.115.189-.243.227-.383.038-.14.037-.29-.004-.447-.054-.204-.157-.366-.31-.487-.153-.12-.343-.195-.57-.223-.227-.029-.475-.008-.742.062-.264.07-.488.172-.67.307-.183.135-.311.293-.386.473-.074.18-.085.373-.031.577.04.157.113.287.215.39.102.105.229.18.38.226-.148.131-.25.28-.305.444-.055.164-.058.339-.01.522.057.218.167.392.332.522.164.13.37.21.615.241.245.03.515.007.81-.07zm-.566-2.162c-.167.044-.31.04-.426-.012-.117-.051-.193-.144-.228-.278-.036-.137-.015-.257.063-.362.078-.104.2-.178.363-.22.167-.044.311-.04.432.012.121.053.2.147.235.284.035.134.013.253-.068.356-.08.103-.204.176-.37.22zm.41 1.565c-.201.053-.372.05-.512-.01-.141-.06-.232-.169-.273-.326-.04-.154-.014-.291.08-.412.093-.12.24-.208.44-.26.205-.053.378-.05.52.009.143.06.234.166.274.32.04.153.013.292-.081.415-.095.123-.244.211-.448.264z"/>
        <g transform="translate(15.037 11.148)">
            <ellipse cx="20.222" cy="24.184" rx="20.173" ry="20.358"/>
            <path fill="#FFF" fill-rule="nonzero" d="M2.641 9.035L2.003 9.896 4.317 11.642 3.805 12.334 1.491 10.587.865 11.433.335 11.034 2.112 8.635zM5.876 8.909l-.828.838.326.62-.645.654-1.597-3.46.568-.575 3.442 1.59-.65.657-.616-.324zm-1.151.222l.538-.546-1.142-.603.604 1.149zM9.298 6.468c-.02.199-.107.409-.26.632-.153.223-.351.425-.596.603-.376.276-.76.38-1.153.313-.391-.068-.744-.303-1.058-.706l-.182-.248c-.206-.286-.336-.573-.388-.858-.054-.287-.029-.556.075-.808.103-.25.278-.465.522-.644.358-.263.696-.383 1.012-.364.317.021.61.183.88.487l-.668.488c-.14-.144-.275-.222-.404-.233-.128-.011-.265.035-.41.142-.173.127-.254.3-.241.517.012.22.117.466.314.744l.126.174c.208.29.413.472.616.546.202.073.409.032.62-.122.18-.132.285-.27.315-.416l-.323-.45-.482.353-.345-.48 1.174-.86.856 1.19zM10.34 5.665L11.66 4.968 11.965 5.557 9.886 6.654 8.241 3.479 8.999 3.079zM13.07 5.137L12.277 5.458 10.954 2.133 11.746 1.812zM16.385 4.138L15.563 4.361 13.774 2.539 14.348 4.692 13.521 4.916 12.598 1.457 13.424 1.232 15.211 3.055 14.637.903 15.461.679zM18.801 2.317L17.464 2.474 17.562 3.324 19.141 3.139 19.217 3.799 16.788 4.085 16.377.525 18.812.24 18.888.902 17.304 1.088 17.391 1.838 18.727 1.681zM22.703 3.289l-1.167-.108-.265.648-.91-.085L21.982.296l.801.074.981 3.69-.915-.086-.146-.685zm-.904-.753l.76.07-.268-1.272-.492 1.202zM26.777 3.501L27.766 1.446 28.583 1.675 26.906 4.923 26.051 4.683 26.135 2.587 25.145 4.429 24.292 4.189 24.515.533 25.335.763 25.131 3.037 26.197 1.005 26.898 1.202zM29.79 5.494l-1.056-.514-.472.513-.823-.4 2.715-2.657.724.353-.36 3.803-.829-.404.102-.694zm-.584-1.025l.687.334.19-1.287-.877.953zM32.413 6.398l-.38-.266-.717 1.04-.703-.493 2.024-2.943 1.149.804c.345.242.562.51.652.801.088.291.035.578-.16.86-.14.205-.298.347-.472.424-.176.076-.38.096-.612.056l-.208 1.615-.02.03-.754-.526.201-1.402zm-.005-.813l.445.312c.133.093.259.128.374.104.116-.023.219-.099.305-.226.088-.127.122-.25.104-.37-.019-.12-.094-.226-.226-.32l-.445-.31-.557.81zM33.165 8.506l2.447-2.595.829.796c.227.218.382.466.465.745.084.278.087.56.01.848-.077.288-.225.55-.446.786l-.113.12c-.224.237-.475.402-.752.495-.277.093-.556.106-.837.038-.281-.068-.534-.207-.758-.42l-.845-.813zm2.612-1.516l-1.539 1.63.216.208c.178.17.375.238.59.201.217-.036.443-.18.68-.432l.107-.112c.236-.25.366-.485.391-.704.025-.219-.054-.416-.237-.591l-.208-.2zM37.252 11.565c.099-.077.15-.173.15-.286.001-.114-.037-.283-.114-.507-.078-.223-.132-.413-.163-.57-.103-.507.001-.882.314-1.126.156-.122.328-.183.517-.185.189 0 .381.056.575.172.195.116.372.278.533.487.156.204.26.415.312.632.051.218.045.424-.02.617-.064.194-.181.358-.352.491l-.523-.681c.115-.09.177-.194.185-.314.01-.12-.033-.24-.126-.361-.094-.122-.194-.198-.301-.226-.108-.03-.202-.011-.285.053-.072.055-.107.145-.106.269.001.123.046.307.134.552.088.244.144.458.168.64.06.443-.063.785-.37 1.024-.246.192-.51.25-.794.172-.283-.077-.55-.279-.8-.604-.176-.23-.295-.47-.356-.72-.06-.25-.056-.477.013-.682.07-.205.198-.38.383-.524l.526.684c-.151.118-.232.244-.243.378-.01.134.051.289.187.466.087.113.179.183.278.211.098.026.19.006.278-.062z"/>
        </g>
        <path fill="#FFF" d="M27.058 55.693c.247-.744-.674-1.969-1.571-2.548.007.699.44 1.816 1.272 2.354l.299.194-.344-.096c-.957-.266-2.093.149-2.63.603 1.031.286 2.57.166 2.974-.507zm-2.041-.94c-.47.631-2.013.597-3.011.21.58-.399 1.753-.697 2.679-.338l.332.129c.322-.714-.47-2.025-1.304-2.692-.064.697.253 1.851 1.026 2.47l.278.222zm-1.935-1.136c.394-.679-.26-2.061-1.022-2.808-.135.686.063 1.868.769 2.559l.253.249-.317-.161c-.883-.45-2.08-.27-2.699.069.953.485 2.485.672 3.016.092zm-1.808-1.324c-.588.524-2.093.185-2.992-.392.65-.276 1.858-.336 2.692.2l.3.192-.228-.273c-.632-.759-.708-1.953-.504-2.623.681.82 1.192 2.26.732 2.896zm-1.665-1.497c-.637.463-2.1-.024-2.936-.689.674-.209 1.883-.148 2.657.467l.28.222c.521-.588.16-2.072-.434-2.955-.27.647-.316 1.843.235 2.66l.198.295zm-1.504-1.656c-.68.397-2.086-.233-2.85-.978.692-.14 1.888.04 2.596.73l.254.248c.58-.532.372-2.045-.13-2.982-.335.616-.502 1.801-.037 2.67l.167.312zm-1.327-1.797c-.718.327-2.052-.44-2.736-1.257.703-.071 1.874.228 2.508.985l.228.272-.135-.327c-.374-.912-.087-2.074.309-2.654.404.983.457 2.509-.174 2.98zm-1.137-1.92l-.1-.34c-.28-.943.123-2.072.576-2.61.302 1.018.2 2.542-.476 2.95l-.2-.295c-.553-.815-1.689-1.23-2.395-1.229.598.88 1.847 1.777 2.595 1.524zm-.936-2.026c-.77.179-1.922-.837-2.427-1.773.703.069 1.79.594 2.258 1.462l.169.311c.713-.337.97-1.843.774-2.886-.505.49-1.022 1.572-.84 2.54l.066.346zm-.726-2.106l-.03-.353c-.083-.98.541-2.006 1.094-2.443.09 1.058-.32 2.531-1.064 2.796l-.136-.328c-.377-.91-1.404-1.54-2.097-1.68.407.982 1.45 2.108 2.233 2.008zm-.507-2.17l.006-.353c.017-.984.743-1.942 1.337-2.322-.019 1.06-.575 2.486-1.343 2.675l-.102-.339c-.282-.942-1.24-1.673-1.915-1.88.305 1.017 1.227 2.241 2.017 2.22zm-.283-2.209c-.789-.056-1.581-1.366-1.782-2.41.65.274 1.53 1.097 1.715 2.063l.067.347c.782-.111 1.481-1.474 1.608-2.527-.63.318-1.449 1.2-1.566 2.175l-.042.352zm-.058-2.226c-.779-.135-1.434-1.517-1.526-2.574.619.337 1.41 1.242 1.495 2.222l.031.352c.79-.033 1.625-1.319 1.857-2.355-.658.254-1.563 1.05-1.78 2.01l-.077.345zm.17-2.22c-.761-.213-1.273-1.653-1.257-2.714.582.397 1.276 1.377 1.262 2.36l-.006.354c.79.046 1.75-1.15 2.088-2.158-.681.186-1.662.889-1.975 1.822l-.113.336zm.394-2.193l.146-.323c.406-.898 1.454-1.498 2.15-1.616-.438.969-1.515 2.063-2.296 1.939l.041-.35c.115-.978-.476-2.022-1.015-2.475-.123 1.054.24 2.538.974 2.825zm.616-2.142c-.702-.359-.911-1.872-.681-2.908.49.504.971 1.602.758 2.562l-.077.346c.764.2 1.947-.78 2.482-1.701-.705.048-1.808.541-2.303 1.394l-.179.307zm28.873 27.555c-.247-.743.675-1.969 1.573-2.55-.008.7-.442 1.818-1.274 2.356l-.3.194.345-.096c.957-.266 2.092.147 2.63.6-1.033.287-2.572.169-2.974-.504zm2.041-.94c.47.63 2.012.594 3.01.206-.58-.398-1.752-.695-2.677-.336l-.333.13c-.321-.714.472-2.025 1.306-2.693.063.697-.255 1.852-1.028 2.47l-.278.223zm1.935-1.139c-.392-.678.264-2.061 1.026-2.808.134.686-.065 1.868-.771 2.56l-.255.248.318-.161c.884-.45 2.08-.272 2.699.067-.954.486-2.486.674-3.017.094zm1.81-1.325c.587.524 2.092.183 2.992-.395-.65-.275-1.858-.334-2.692.202l-.3.193.228-.273c.632-.76.71-1.954.506-2.623-.682.819-1.193 2.26-.734 2.896zm1.666-1.5l.199-.293c.551-.818.507-2.015.237-2.661-.596.884-.958 2.368-.436 2.955l.279-.222c.775-.616 1.983-.678 2.658-.47-.836.666-2.3 1.155-2.937.692zm1.505-1.656c.681.396 2.087-.235 2.852-.98-.692-.14-1.888.042-2.596.732l-.256.248c-.579-.532-.37-2.045.133-2.983.335.615.501 1.801.035 2.67l-.168.313zm1.33-1.798c.717.326 2.052-.442 2.737-1.26-.703-.07-1.875.23-2.51.988l-.228.272.135-.327c.375-.912.09-2.075-.306-2.654-.405.983-.46 2.509.171 2.98zm1.138-1.921c.748.253 1.998-.645 2.597-1.526-.707 0-1.842.415-2.397 1.231l-.2.295c-.675-.407-.776-1.93-.474-2.95.453.538.855 1.667.575 2.61l-.1.34zm.938-2.026c.77.178 1.922-.84 2.428-1.776-.703.07-1.791.596-2.26 1.464l-.168.312c-.713-.337-.97-1.842-.772-2.886.505.489 1.021 1.572.838 2.539l-.066.347zm.727-2.107c.784.1 1.827-1.028 2.235-2.01-.693.14-1.721.772-2.099 1.681l-.136.329c-.744-.264-1.152-1.738-1.061-2.795.551.436 1.175 1.462 1.091 2.441l-.03.354zm.51-2.17c.79.02 1.713-1.204 2.018-2.222-.675.208-1.634.94-1.917 1.882l-.102.34c-.767-.19-1.323-1.614-1.34-2.675.593.379 1.318 1.338 1.334 2.32l.006.354zm.285-2.21c.788-.057 1.582-1.368 1.783-2.41-.65.274-1.53 1.097-1.717 2.063l-.066.347c-.783-.111-1.481-1.473-1.607-2.526.63.317 1.448 1.198 1.564 2.174l.043.352zm.059-2.226l-.078-.345c-.215-.96-1.12-1.755-1.778-2.008.233 1.035 1.066 2.32 1.856 2.353l.03-.352c.088-.98.88-1.886 1.498-2.223-.093 1.057-.75 2.44-1.528 2.575zm-.168-2.22c.761-.213 1.274-1.654 1.26-2.715-.583.397-1.278 1.378-1.264 2.36l.004.355c-.789.046-1.749-1.15-2.085-2.156.68.186 1.661.887 1.973 1.82l.112.336zm-.393-2.193c.735-.287 1.099-1.771.977-2.825-.54.453-1.131 1.498-1.018 2.475l.041.35c-.78.125-1.857-.969-2.295-1.937.697.118 1.744.717 2.149 1.615l.146.322zm-3.094-3.84c.705.047 1.808.54 2.302 1.392l.179.307c-.764.201-1.947-.78-2.48-1.699zm3.164-1.21c.23 1.037.019 2.55-.683 2.909l-.077-.346c-.212-.96.27-2.058.76-2.563zM16.33 23.852c.05.943-.402 2.222-1.146 2.547l-.127.045-.018-.331c-.049-.923.673-1.867 1.29-2.261zm37.6-.26c.617.394 1.34 1.339 1.29 2.262l-.018.331-.126-.045c-.745-.325-1.197-1.605-1.146-2.547z"/>
        <text fill="#FFF" font-family="Roboto-Black, Roboto" font-size="9.074" font-weight="700">
            <tspan x="23.333" y="38.074">GOLD</tspan>
        </text>
    </g>
</svg>
