<svg width="655" height="608" viewBox="0 0 655 608" xmlns="http://www.w3.org/2000/svg">
  <g fill="none" fill-rule="evenodd">
    <g fill="#000">
      <path d="M75.724 316.386c-2.502-26.867-3.582-45.51 2.528-77.804-7.225 29.077-8.916 38.218-10.418 69.005-.628.541-1.21 1.06-1.744 1.554-2.022-22.886-2.778-31.449 2.084-60.265a238.8 238.8 0 00-4.37 78.112c-.588.773-.97 1.443-1.148 2.006-3.555-33.252-.055-66.59 9.834-97.916l.104-.33c3.555-9.89 8.706-22.934 12.961-32.544a5.23 5.23 0 01.462-.755c-12.43 29.143-16.348 42.487-18.368 74.725 5.915-31.084 9.975-47.207 26.578-82.027 1.099-.822 2.3-1.695 3.606-2.619-9.047 23.242-24.19 62.14-15.76 124.233a258.896 258.896 0 00-6.349 4.625M138.654 177.787a1131.996 1131.996 0 00-21.867 13.05c-1.766 9.46-2.873 19.318-3.31 29.489a1266.026 1266.026 0 0121.982-13.157c.303 6.783.9 13.742 1.788 20.853a1368.028 1368.028 0 00-23.693 14.182c.705 14.57 2.698 29.627 6.013 44.95a1109.311 1109.311 0 00-11.875 7.387c-8.225-42.61-5.89-83.58 6.152-118.283l.977-.615c7.742-4.868 16.502-10.142 25.976-15.661-1 5.698-1.715 11.642-2.143 17.805M201.92 240.39a2940.156 2940.156 0 0117.428-9.453c-14.23-12.842-17.612-15.893-28.658-27.057 14.156-25.34-3.386-64.118-20.858-59-1.605.472-3.094 1.236-4.18 1.794a1546.442 1546.442 0 00-18.304 10.302c-3.956 29.79.08 66.872 12.087 107.155 4.898-2.803 9.899-5.64 14.989-8.5-3.652-11.047-6.745-21.813-9.273-32.21 4.107-2.31 8.275-4.636 12.496-6.976l.718-.398c13.123 14.241 13.635 14.797 23.554 24.343m-21.501-65.262c2.778 15.104-5.796 20.345-8.613 22.066a2248.311 2248.311 0 00-10.926 6.102c-2.226-12.357-3.56-24.05-3.99-34.911 3.023-1.7 6.089-3.412 9.19-5.133 2.753-1.378 11.128-5.574 14.339 11.876"/>
      <path d="M273.689 143.289c-14.305-19.566-41.492-34.03-60.468-23.279-28.786 19.484-8.242 83.366 29.309 91.139 32.469 6.722 56.676-29.031 33.252-64.84a79.035 79.035 0 00-2.093-3.02m-15.244 6.138c8.167 12.644 10.582 29.903-3.414 37.92-23.923 11.092-46.413-26.795-39.361-46.643 6.036-16.987 29.222-12.258 42.775 8.723M378.143 151.215c-17.41-18.655-29.681-31.14-53.265-47.164 12.239 16.544 15.806 22.317 25.794 45.899a1932.62 1932.62 0 00-6.726 3.165c-20.212-12.166-28.578-17.202-55.351-30.643 14.518 13.708 29.33 30.63 43.825 50.258a2629.45 2629.45 0 00-15.135 7.396c-23.577-33.974-47.291-60.479-68.408-76.873 2.887-1.422 5.751-2.824 8.59-4.202 26.276 9.47 41.482 16.004 67.794 29.135-12.46-22.441-18.734-30.934-36.285-43.962a918.845 918.845 0 017.435-3.33c18.715 7.063 53.553 20.212 94.979 64.378a1476.53 1476.53 0 00-13.247 5.943M353.796 72.7c-3.797 1.212-8.427 2.885-13.88 5.025 9.949 3.44 19.764 7.684 29.36 12.696 5.524-2.168 10.312-3.92 14.356-5.255a232.143 232.143 0 0120.999 11.283c-4.36 1.44-9.521 3.328-15.474 5.664 12.75 8.375 24.971 18.166 36.445 29.286a631.277 631.277 0 00-10.577 4.269c-30.717-30.84-66.536-51.884-103.048-61.251 7.862-3.253 14.226-5.641 19.062-7.184a219.312 219.312 0 0122.757 5.467"/>
      <path d="M461.096 120.616c.663.087 1.152.267 1.468.537l-8.816-7.252c-8.063-5.811-19.06-13.232-27.535-18.434-4.457-2.902-7.114-4.248-15.916-8.708-22.733-9.998-22.733-9.998-34.788-13.724-8.454-2.261-19.765-5.167-28.342-6.92l-1.385-.245c-3.142-.522-4.37-.683-5.72-.748-1.801.149-3.715.559-6.137 1.247 42.14 7.217 82.377 26.492 115.695 56.185 2.013-.572 3.802-1.022 5.363-1.348a238.166 238.166 0 00-29.738-22.255c1.26-.263 2.36-.442 3.3-.532l.158-.016c9.103 5.646 21.263 13.241 29.597 19.958.838.677 1.805 1.83 2.796 2.255m-70.622-42.314c7.51 2.903 15.843 6.693 16.789 8.011l-.288.223c-.841.09-1.813.25-2.916.48a235.204 235.204 0 00-42.62-16.27 25.29 25.29 0 012.453-.405c2.654-.023 15.103 3.524 26.582 7.961M90.51 187.304l-.072.1 3.613-5.286a234.754 234.754 0 00-3.542 5.186M120.516 145.039c-.654.578-1.173 1.088-1.558 1.53l11.156-12.267 5.417-5.348a216.667 216.667 0 00-15.015 16.085M109.039 173.521a423.975 423.975 0 016.54-4.226c5.17-15.086 5.48-15.989 12.764-27.706 22.303-24.391 26.944-29.466 41.33-39.221-7.481 5.162-15.217 10.5-26.668 20.446-18.995 17.028-34.493 37.158-46.188 59.34a120.866 120.866 0 013.686-2.767 204.198 204.198 0 0118.063-29.104c.906-.656 1.894-1.352 2.965-2.088l.183-.126c-8.656 14.763-9.174 15.647-12.675 25.452m41.532-56.456c-5.216 4.645-9.675 10.091-15.297 14.303-.769.53-1.482 1.032-2.138 1.508a196.038 196.038 0 0117.402-16.396c3.514-2.756 8.237-6.384 11.827-9.041a170.312 170.312 0 00-11.794 9.626"/>
      <path d="M166.2 112.966c6-10.69 11.125-15.14 16.976-18.535l-.254.146a249.193 249.193 0 00-3.497 2.038c-.895.538-2.09 1.255-2.982 1.8l-2.072 1.296c-41.789 27.243-52.364 59.758-43.35 60.51 3.552.298 9.836-4.462 14.94-11.318 2.867-3.853 4.85-6.782 8.361-13.017 4.226-7.504 7.663-15.41 11.878-22.92m-4.782 2.188c-16.134 24.054-16.134 24.054-19.575 26.274-4.167 2.192-2.965-2.29-2.497-3.716 4.006-12.217 22.226-30.098 36.07-38.507a2.582 2.582 0 01-.422.43c-3.455 2.817-7.77 6.864-13.576 15.519"/>
      <path d="M202.134 120.022c-5.245-11.774-8.58-19.397-10.667-25.947-2.802 19.918-2.802 19.918-3.626 25.937-1.35.72-2.699 1.442-4.04 2.161-5.12-8.925-7.036-12.266-5.93-20.452-4.098 7.992-5.757 19.578-5.12 34.016-2.988 1.634-5.941 3.26-8.855 4.876 1.222-23.62 8.374-40.594 21.786-48.04l.14-.077c.403-.221.94-.518 1.343-.738-3.89 3.085-7.25 5.75-2.992 14.534 2.321-7.772 4.512-15.114 6.684-16.51l1.329-.691c2.021.598 4.872 2.97 19.343 26.046-3.135 1.62-6.27 3.25-9.395 4.885M264.602 64.844c-18.678 2.845-36.543 8.764-45.53 12.04l.457-.16c24.011-7.907 42.896-8.305 71.143-8.022 15.098.151 25.18.099 27.64-1.931-.025-.222-.057-.516-.08-.738-3.515-2.73-25.033-5.545-53.63-1.19m-3.822.859c17.755-2.788 32.004-2.316 32.972-1.001-.144.09-.337.208-.48.296-2.108.631-5.768.882-14.93 1.386-17.042.936-32.665 2.164-51.297 7.728 8.365-2.635 10.613-3.343 19.766-5.705 2.888-.645 7.723-1.724 13.97-2.704"/>
      <path d="M328.831 63.034c-.558.016-1.235.095-2.033.238a233.379 233.379 0 00-64.14 2.217l.505-.088c22.144-3.03 23.009-3.148 35.88-3.507 9.984-.239 19.933.147 29.788 1.14M205.11 82.961c-1.68.8-3.42 1.646-5.187 2.523 3.436-.897 7.235-.923 11.346-.13 3.3-1.635 6.548-3.219 9.708-4.732 4.054-.01 8.237.4 12.527 1.21-4.27 2.042-8.66 4.183-13.12 6.395 6.242 2.65 13.014 6.792 20.189 12.296-3.277 1.624-6.58 3.276-9.899 4.948-15.568-15.097-28.136-21.79-35.888-17.896l.959-.48c1.826-.902 1.826-.902 2.753-1.35l1.236-.593 5.376-2.19"/>
      <path d="M291.86 76.204a587.333 587.333 0 017.988-3.428c-19.954-1.592-23.021-1.836-39.714-1.403-2.317-1.1-21.083-3.65-54.334 10.79-2.696 1.213-2.748 1.236-4.081 1.858l-.797.373c13.907-5.234 31.213-11.747 67.341 2.56 3.029-1.427 6.005-2.813 8.92-4.154-8.278-2.884-16.474-4.894-24.51-5.984a710.898 710.898 0 015.668-2.577l.313-.142c9.024.262 21.076.68 30.046 1.735.947.112 2.216.512 3.16.372m-61.264-2.049c4.646-.94 10.181-1.635 11.355-.946-.112.412-.112.412-.872.796-1.345.605-2.717 1.23-4.111 1.871-9.743.187-19.151 1.864-28.068 5.127.575-.263 1.137-.52 1.688-.768.089-.039 8.934-3.843 20.008-6.08M99.569 434.9c3.69 5.824 9.588 14.626 16.742 23.489-15.876-21.246-16.826-22.519-27.715-42.449l-2.418-4.806c1.67 3.355 6.106 12.268 13.39 23.767"/>
      <path d="M111.512 422.547c22.712 36.943 20.748 43.45 15.101 42.406-4.376-.811-9.21-3.775-27.91-33.264 8.01 10.399 11.133 9.604 11.28 6.534.005-.123-2.948-14.258-15.731-21.246-17.596-9.618-34.131-78.552-27.795-86.628 3.803-2.625 8.77 5.96 8.806 6.055 3.38 8.606 3.5 21.297 5.482 30.326-3.473-4.046-8.23-9.59-8.848-4.171-.02.175.934 19.037 10.608 24.167 8.523 4.52 13.673 10.882 29.007 35.821"/>
      <path d="M147.978 446.13a312.235 312.235 0 00-9.402 6.718c-13.437-15.432-25.322-32.715-35.216-51.679-12.995-24.907-21.52-50.731-25.854-76.479 2.68-1.999 5.737-4.185 9.176-6.556 4.69 25.495 13.407 51.18 26.402 76.087 9.894 18.964 21.667 36.326 34.894 51.908M196.846 415.577c6.005-3.572 12.25-7.232 18.698-10.963-36.836-33.612-64.72-63.86-89.868-110.734-4.922 2.974-9.65 5.875-14.163 8.689l-1.078.674c3.658 50.162 11.593 89.244 41.326 140.562a640.107 640.107 0 0112.788-8.38c-3.897-7.374-9.055-17.235-12.578-24.794 1.65-1.044 3.346-2.11 5.088-3.196 6.017-3.752 12.401-7.653 19.102-11.67 6.138 6.012 14.341 14.013 20.685 19.812m-56.15-33.79c-7.42-24.666-8.025-26.68-11.872-46.667 13.433 20.571 14.237 21.803 26.767 37.514a1259.953 1259.953 0 00-14.894 9.153M264.14 376.518a3062.79 3062.79 0 0122.512-12.244c-17.151-13.147-22.929-17.574-38.622-30.23 12.576-34.402-23.369-94.208-56.995-78.524-.727.34-1.664.852-2.378 1.216a2377.746 2377.746 0 00-30.964 17.5c7.409 23.769 17.602 48.494 30.592 73.354 9.89 18.928 20.802 36.786 32.413 53.331a2318.86 2318.86 0 0119.357-11.013 583.687 583.687 0 01-19.987-32.267c3.708-2.086 7.46-4.186 11.251-6.296 20.043 15.748 20.043 15.748 32.822 25.173m-43.021-77.543c7 16.623-1.583 21.95-4.814 23.956-3.88 2.16-7.72 4.307-11.515 6.442-6.473-12.785-12.306-25.456-17.493-37.904 3.715-2.09 7.475-4.194 11.275-6.308 3.424-1.696 13.841-6.857 22.547 13.814M339.882 263.556c36.371 73.799-14.913 86.807-32.362 81.605-22.128-6.596-36.151-32.06-42.14-42.931-12.634-24.282-24.077-47.599-34.104-69.315a3255.624 3255.624 0 0121.072-11.17 7408.874 7408.874 0 0034.776 67.525c26.271 46.647 38.093 14.735 38.175 14.347 1.953-9.166-4.321-22.19-8.07-29.972-12.482-23.836-24.759-46.23-36.468-66.647a3105.609 3105.609 0 0120.826-10.58c12.678 20.339 25.592 42.893 38.295 67.138M425.688 249.885c18.728 45.303-20.762 69.001-52.651 55.977-1.664-9.247-3.922-21.57-5.733-30.789 22.998 8.703 45.21-.497 38.334-15.875-2.714-6.072-6.304-8.405-21.513-7.14-15.733 1.308-35.317 2.937-51.467-27.889-6.881-13.13-14.664-37.123 10.516-50.267 15.186-6.89 27.464-3.848 32.086-2.704 3.24 7.91 7.473 18.494 10.412 26.519-26.782-6.419-38.03 5.67-31.185 16.96 3.55 5.855 7.415 6.816 21.764 5.411 13.343-1.306 35.676-3.491 49.437 29.797M483.542 223.988c18.656 46.698-14.714 61.132-38.524 50.558-1.175-.521-2.682-1.345-3.805-1.97-1.468-9.257-3.514-21.59-5.31-30.792 20.873 10.338 37.114 3.45 33.548-9.047-3.14-11.01-9.603-11.622-21.709-11.81-12.48-.195-29.57-.46-48.238-32.949-6.834-11.892-15.316-33.28 4.648-42.911 14.31-5.738 27.261.53 27.374.602 7.219 4.457 9.899 17.213 13.755 24.796-22.474-8.537-30.104 1.152-26.769 9.273 4.19 10.202 11.223 10.23 21.869 10.27 10.357.042 29.633.12 43.161 33.98"/>
      <path d="M514.632 255.8a396.583 396.583 0 00-11.6 4.335c-5.327-19.683-12.872-39.214-22.721-58.147-12.936-24.866-28.818-46.719-46.732-65.2a387.74 387.74 0 0111.321-4.23c18.352 18.317 34.472 40.08 47.407 64.946 9.85 18.934 17.257 38.516 22.325 58.296"/>
      <path d="M538.184 249.793c1.107.1 1.803.419 2.084.953-12.783-46.63-29.145-81.836-74.953-123.81-1.405.109-3.168.408-5.287.9 29.261 34.121 48.083 65.803 57.695 126.771 3.438-1.17 6.49-2.128 9.152-2.873-1.596-8.185-3.773-19.097-5.84-27.175 3.676-.946 6.493-1.428 8.444-1.448 2.772 7.95 6.427 18.575 8.705 26.682m-27.07-53.664c-10.364-21.915-11.448-24.206-21.918-39.977 15.39 19.606 16.998 21.656 27.104 39.089-1.406.123-3.136.42-5.186.888M506.23 403.326a185.895 185.895 0 017.374-2.577c3.692-18.394 4.357-21.71 4.75-38.903 17.609-34.54 8.426-97.673-13.1-90.07-6.851 2.666-14.643 5.867-23.361 9.604 11.798 45.318 12.941 90.484 4.136 130.11a584.23 584.23 0 0110.09-4.22c2.958-10.786 5.172-21.948 6.628-33.382a485.14 485.14 0 015.74-2.29c-.207 19.108-.22 20.252-2.256 31.728m11.858-80.731c-.074 7.645-1.322 17.322-6.858 20.005a546.094 546.094 0 00-6.445 2.573c.211-13.016-.52-26.26-2.216-39.59 2.473-1.005 4.84-1.95 7.103-2.835 8.007-2.365 8.466 14.594 8.416 19.847"/>
      <path d="M543.313 339.35c-7.417 44.898-19.473 60.572-20.927 61.22-1.503-1.278-1.694-2.037 1.19-18.439 3.825-21.74 4.64-28.29 6.122-41.036 2.708-25.134 1.675-51-3.354-76.63 2.826-.866 5.287-1.53 7.383-1.999a249.981 249.981 0 012.388 75.761c-3.917 30.069-3.917 30.069-3.756 31.453.345-.043.805-.1 1.151-.145 4.273-7.73 6.95-24.736 8.095-31.998 3.431-24.948 3.047-50.551-1.438-75.88 1.095.06 1.83.313 2.204.754 4.48 25.7 4.691 51.671.942 76.94M253.484 539.866c.326-.62.924-1.38 1.794-2.278-45.84-10.714-80.566-24.34-122.418-62.276-.053.47.066.849.358 1.138l13.78 12.69c19.757 15.542 19.757 15.542 30.545 22.156 21.722 12.182 21.722 12.182 33.337 17.036 5.212 1.945 12.094 4.74 17.376 6.485-.794-.256-1.056-.796-.782-1.612 7.766 2.137 18.14 4.946 26.01 6.661m-52.14-15.758c-20.99-10.843-23.183-11.977-38.712-22.844 19.244 12.482 21.256 13.788 38.044 21.719-.034.51.19.884.667 1.125"/>
      <path d="M266.593 528.797a299.434 299.434 0 017.666-5.237c-20.695-4.633-25.002-5.597-43.934-11.6-7.614-12.066-65.252-61.143-82.5-50.395-4.405 3.275-7.808 6.056-10.224 8.34 33.073 33.452 74.55 56.388 118.804 66.897.999-.943 2.248-2.012 3.753-3.21a244.65 244.65 0 01-33.94-11.522c.962-.765 2.012-1.574 3.151-2.426 22.485 6.272 23.362 6.517 37.224 9.154m-73.45-35.664c11.682 8.633 11.687 11.346 9.953 12.991a148.37 148.37 0 00-3.548 2.73 253.604 253.604 0 01-33.305-22.746c1.191-.947 2.494-1.95 3.909-3.008 2.594-1.524 7.354-1.523 22.991 10.033"/>
      <path d="M272.01 467.692c16.788 15.44 48.037 44.18 13.855 46.929-9.146.736-28.994-.804-59.16-19.381-20.474-13.316-39.77-29.87-57.028-49.264a852.277 852.277 0 0111.3-7.194l2.893-1.806c16.514 19.4 34.768 36.193 53.99 49.973 33.206 22.198 35.985 8.43 35.992 8.277.217-4.653-8.793-12.206-17.506-19.51-17.842-14.618-35.009-32.074-50.789-51.918 5.62-3.345 11.447-6.768 17.452-10.252 15.43 20.506 31.993 38.722 49.001 54.146M341.557 450.416c28.012 41.588-26.27 42.931-31.031 40.245-5.871-3.31-9.923-12.206-13.881-17.66 20.818 3.611 35.03-4.06 30.044-12.21-4.142-6.773-9.807-6.607-20.87-4.68-12.064 2.101-34.522 6.013-53.614-22.569-4.432-6.632-16.904-29.463 8.653-44.735 15.56-8.14 28.504-5.26 32.759-4.313 2.605 8.053 6.124 18.777 8.907 26.77-25.935-4.151-35.6 7.197-29.211 16.583 4.207 6.178 8.562 6.464 21.355 4.236 13.774-2.398 30.916-5.382 46.889 18.333M396.556 421.912c10.484 32.635-13.018 50.306-39.465 43.18-2.35-6.24-5.425-14.585-7.577-20.897 21.264 5.778 36.19-4.072 29.878-14.86-1.7-2.909-3.17-5.42-16.912-3.47-11.839 1.68-33.875 4.807-47.713-26.45-4.117-9.299-10.882-32.504 15.142-47.12 16.448-8.108 28.65-4.603 32.66-3.45 1.56 8.533 3.636 19.91 5.182 28.448-25.149-5.828-37.219 7.774-29.682 18.682 2.783 4.029 5.888 5.053 18.782 3.18 12.325-1.79 30.951-4.495 39.705 22.757M426.53 438.967a2002.775 2002.775 0 00-14.092 7.03c-8.28-31.373-22.38-70.18-40.967-112.02 7.093-3.573 14.14-7.09 21.113-10.53 17.28 42.492 28.91 82.53 33.946 115.52M471.273 417.691a861.35 861.35 0 0112.193-5.416c.298-36.157-5.01-65.369-33.852-116.103-6.17 2.842-12.499 5.8-18.957 8.86 2.726 33.291 5.003 70.885.41 131.705 4.695-2.308 9.332-4.56 13.888-6.749.885-6.922 2.045-16.156 2.778-23.097 7.454-3.554 14.7-6.941 21.656-10.12.706 6.262 1.613 14.625 1.884 20.92m-21.644-37.376c.735-21.298.867-25.135.509-43.628 8.53 19.55 9.422 21.593 14.09 36.805a1622.19 1622.19 0 00-14.6 6.823M418.049 515.508c.458-.225.91-.446 1.355-.66 5.88-7.42 6.233-7.865 7.826-15.117 16.517-22.492 14.654-54.006-2.975-50.33-1.778.37-3.434 1.12-4.642 1.668a1944.339 1944.339 0 00-21.773 11.021c11.416 27.92 17.803 47.588 17.357 54.854.438-.226.876-.449 1.313-.669 1.33-2.547 2.153-5.957 2.494-10.148.88-.444 1.758-.885 2.633-1.321-.946 6.981-.983 7.253-3.588 10.702m10.554-34.959c-.349 4.06-1.588 9.364-5.51 11.58-1.399.697-2.804 1.403-4.212 2.113-.479-5.974-1.516-12.816-3.076-20.415 2.049-1.034 4.09-2.056 6.123-3.07 7.049-3.073 7.017 5.825 6.675 9.792"/>
      <path d="M458.439 477.49c-4.25 5.769-17.182 23.321-37.225 36.709 2.692-4.16 6.681-7.247 9.295-11.47 3.57-5.77 5.872-11.457 7.722-16.026 5.405-13.967 8.353-30.91 8.908-49.994 4.177-1.999 8.277-3.935 12.28-5.799-2.253 19.597-7.03 37.213-14.337 52.026-2.878 5.635-7.482 10.32-8.995 16.709.566-.258 5.86-3.025 17.335-20.512 9.905-15.996 17.096-34.714 21.505-55.293l.622-.277a724.74 724.74 0 019.726-4.24c-5.938 21.54-14.925 41.235-26.836 58.167"/>
      <path d="M457.352 488.19c-15.36 14.12-30.385 23.314-33.24 25.013 15.779-12.707 17.806-14.34 27.516-23.91-5.472 6.941-5.472 6.941-5.541 7.068 2.45-.832 13.118-10.944 15.2-14.07.002-.004 15.486-30.256 19.283-37.708 8.862-17.39 16.243-30.963 23.829-34.353 6.041-1.86 3.51 7.801 3.471 7.903-3.06 8.163-10.032 17.7-14.677 25.075 2.057-5.839 1.415-6.335.445-7.083-3.481.668-12.874 15.112-12.544 20.577.525 8.714-19.686 27.759-23.742 31.488"/>
      <path d="M461.065 487.957c-16.155 13.786-31.386 22.733-35.67 25.147 15.652-10.877 20.925-14.54 34.888-26.687-2.967 2.934-6.202 5.588-9.02 8.677 16.91-9.38 39.376-42.76 55.243-69.11 9.59-15.925 12.013-19.375 14.4-20.508.998 1.286 3.072 3.961-18.47 36.05 2.085-3.477 3.734-6.316 4.423-8.6-.175-.103-.408-.237-.584-.339-1.613 1.505-10.092 13.347-14.132 21.088-5.045 9.667-19.244 24.183-31.078 34.282M404.906 524.15c-.287.113-.55.213-.79.3-6.697 2.822-15.665 6.524-22.533 8.922 2.273-.795 5.307-1.849 7.57-2.673 4.741-1.932 11.123-4.386 15.753-6.549"/>
      <path d="M403.094 524.22a1.727 1.727 0 01-.318.044c-20.238 8.443-23.349 9.74-41.542 14.781-18.492 4.52-35.035 6.798-53.642 7.385l13.397-.73c19.356-2.2 22.33-2.538 38.502-6.191 7.546-1.94 8.906-2.291 16.767-4.723a198.537 198.537 0 0027.962-10.91c-.22.08-.418.146-.595.201a218.555 218.555 0 01-33.49 12.602c-.355.11-.686.208-.992.292 20.294-6.64 21.51-7.038 33.95-12.75"/>
      <path d="M343.121 540.425c21.076-3.18 37.96-7.01 61.909-17.191-5.683 2.988-27.027 13.251-63.073 19.89a241.174 241.174 0 01-76.309.546c-.558-.108-.884-.338-.977-.688a244.624 244.624 0 0075.578-.033c7.526-1.312 20.12-3.507 32.726-7.664-10.85 1.678-21.404 4.824-32.244 6.554-25.174 3.629-50.536 3.224-75.166-.92.53-.666 1.29-1.446 2.28-2.344 24.693 4.54 50.104 5.262 75.276 1.85"/>
      <path d="M373.021 531.182c16.722-2.582 26.667-6.232 33.248-8.648-5.076 2.645-17.258 7.923-41.817 13.538 7.875-1.986 12.683-3.555 14.556-4.362-3.11-.114-17.923 2.979-24.122 4.706-38.894 10.84-87.152 1.919-80.97-5.486.167-.199.463-.389.662-.554 5.691-3.614 19.36-3.146 19.492-3.137 7.295.504 16.45 4.641 23.617 6.113-11.602.85-14.239 1.634-15.49 2.968 2.039 5.477 22.175 2.37 70.824-5.138"/>
      <path d="M384.981 523.399c12.322.127 18.54-1.474 23.078-2.643-1.697.953-11.392 5.878-35.602 9.221 2.884-.59 12.463-2.625 14.639-4.086-.052-.018-7.257-1.278-20.07 2.122-39.335 10.44-82.921-3.374-65.19-15.112 9.4-5.272 22.303-4.133 22.424-4.117 5.89.818 11.891 7.042 17.223 9.624-21.857.74-17.301 5.582-17.25 5.63 3.454 3.223 11.28 3.467 23.26.723 7.305-1.672 7.305-1.672 37.488-1.362"/>
      <path d="M409.722 520.364c-.399.224-.79.448-1.169.666-24.42 6.181-53.738-1.242-83.984-19.248 3.908-2.252 7.926-4.54 12.032-6.856 27.182 19.752 52.76 29.304 73.121 25.438"/>
      <path d="M414.028 518.034c.45-.238.9-.475 1.351-.71-3.636-8.065-13.023-17.586-41.848-42.451a1928.572 1928.572 0 00-12.916 6.979c15.102 25.977 27.472 39.772 49.557 38.286.407-.23.824-.46 1.246-.693-2.462-.305-5.773-.784-8.118-1.608a563.487 563.487 0 015.694-3.078c1.505.99 3.51 2.313 5.034 3.275m-19.256-5.858c-6.634-7.061-7.328-7.8-12.481-16.072 10.478 7.449 11.333 8.057 18.324 12.916a970.568 970.568 0 00-5.843 3.156"/>
    </g>
    <g transform="rotate(-14 1957.014 -983.446)">
      <ellipse fill="#039FF4" cx="164.977" cy="82.372" rx="164" ry="81"/>
      <ellipse stroke="#FFF" stroke-width="4" cx="165.22" cy="83.463" rx="157.5" ry="74"/>
      <path d="M84.466 111.11v-20.4h20.88V76.07h-20.88v-20.4h-15.48v20.4h-20.76v14.64h20.76v20.4h15.48zm91.01 11.174c3.163-7.773 12.206-14.805 27.128-21.094l1.172-.527c9.101-3.828 15.254-7.774 18.457-11.836 3.203-4.063 4.805-9.434 4.805-16.113 0-7.618-2.305-13.74-6.914-18.37-4.61-4.628-10.704-6.943-18.282-6.943-6.406 0-11.855 1.777-16.347 5.332-4.493 3.555-7.832 8.77-10.02 15.645-2.226-6.875-5.576-12.09-10.049-15.645-4.472-3.555-9.931-5.332-16.377-5.332-7.539 0-13.623 2.315-18.252 6.943-4.629 4.63-6.943 10.752-6.943 18.37 0 6.757 1.592 12.148 4.775 16.172 3.184 4.023 9.346 7.949 18.487 11.777.312.117.742.293 1.289.527 14.804 6.25 23.828 13.281 27.07 21.094zm87.648-26.055l3.72-54.84h-22.32l3.72 54.84h14.88zm-7.44 30.12c3.28 0 6.02-1.06 8.22-3.18 2.2-2.12 3.3-4.7 3.3-7.74s-1.08-5.58-3.24-7.62-4.92-3.06-8.28-3.06c-3.36 0-6.12 1.02-8.28 3.06-2.16 2.04-3.24 4.58-3.24 7.62s1.1 5.62 3.3 7.74c2.2 2.12 4.94 3.18 8.22 3.18z" fill="#FFF" fill-rule="nonzero"/>
    </g>
  </g>
</svg>
