<svg xmlns="http://www.w3.org/2000/svg" width="219" height="235" viewBox="0 0 219 235">
    <path fill="#999999" fill-opacity="0.2" d="M191.216 235L219 202.732l-26.803-24.77c9.588-14.342 16.561-31.617 20.92-51.825l-40.859-12.711c-2.615 13.255-6.428 25.097-11.44 35.527l-41.839-38.787c15.69-8.474 27.075-17.274 34.158-26.4 7.082-9.127 10.623-19.557 10.623-31.29 0-16.08-5.993-28.846-17.978-38.298C133.797 4.726 117.89 0 98.06 0 83.896 0 71.42 2.336 60.634 7.008c-10.787 4.671-19.122 11.244-25.006 19.719-5.883 8.474-8.825 18.252-8.825 29.334 0 8.257 1.852 16.243 5.557 23.956 3.704 7.714 9.697 15.808 17.977 24.283-17.65 9.778-30.453 20.045-38.406 30.8C3.977 145.857 0 158.297 0 172.42c0 11.951 3.759 22.707 11.277 32.268 7.518 9.56 17.923 17.003 31.216 22.327C55.785 232.338 70.712 235 87.273 235c29.2 0 54.696-8.474 76.487-25.423L191.216 235zM90.876 84c-7.062-6.619-11.807-11.903-14.235-15.853C74.214 64.197 73 59.98 73 55.497c0-5.978 2.262-10.89 6.786-14.732C84.31 36.922 90.434 35 98.16 35c7.282 0 12.91 1.708 16.882 5.124 3.973 3.416 5.959 7.9 5.959 13.451 0 5.338-2.207 10.302-6.62 14.892-4.414 4.59-12.249 9.768-23.504 15.533zm-.86 112c-12.47 0-22.422-2.613-29.86-7.84C52.72 182.936 49 176.076 49 167.584c0-7.186 2.188-13.61 6.563-19.271 4.374-5.662 11.703-11.433 21.984-17.312L133 182.608C120.312 191.536 105.984 196 90.016 196z"/>
</svg>
