<svg xmlns="http://www.w3.org/2000/svg" width="241" height="266" viewBox="0 0 241 266">
    <path fill="#999999" fill-opacity="0.2" d="M150.525 57.994l-30.242-16.828L0 241.962l30.242 16.828L150.525 57.994zM167.715 266c16.482 0 28.99-3.931 37.526-11.794 8.535-7.862 12.802-19.372 12.802-34.529v-58.542c0-4.547 1.129-7.958 3.385-10.231 2.257-2.274 5.445-3.41 9.565-3.41H241v-28.988h-10.007c-4.12 0-7.308-1.136-9.565-3.41-2.256-2.273-3.385-5.684-3.385-10.23V46.322c0-15.157-4.267-26.667-12.802-34.53C196.706 3.932 184.197 0 167.716 0H153v28.419h6.18c7.457 0 13 1.847 16.63 5.541 3.63 3.695 5.444 9.047 5.444 16.057v53.996c0 8.715 1.325 15.251 3.973 19.609 2.65 4.357 7.015 7.483 13.097 9.378-6.082 1.895-10.448 5.02-13.097 9.378-2.648 4.358-3.973 10.894-3.973 19.61v53.995c0 7.01-1.815 12.362-5.445 16.057-3.63 3.694-9.172 5.541-16.628 5.541H153V266h14.716z"/>
</svg>
