<svg xmlns="http://www.w3.org/2000/svg" width="230" height="233" viewBox="0 0 230 233">
    <path fill="#999999" fill-opacity="0.2" d="M75 190c14.5 0 27.417-3.583 38.75-10.75 11.333-7.167 20.208-17.542 26.625-31.125C146.792 134.542 150 118.333 150 99.5s-3.208-35.042-9.625-48.625c-6.417-13.583-15.292-23.958-26.625-31.125C102.417 12.583 89.5 9 75 9s-27.417 3.583-38.75 10.75C24.917 26.917 16.042 37.292 9.625 50.875 3.208 64.458 0 80.667 0 99.5s3.208 35.042 9.625 48.625c6.417 13.583 15.292 23.958 26.625 31.125C47.583 186.417 60.5 190 75 190zm-.626-36c-10.616 0-18.999-4.563-25.149-13.689C43.075 131.185 40 117.081 40 98s3.075-33.185 9.225-42.311C55.375 46.563 63.758 42 74.374 42c10.784 0 19.25 4.563 25.4 13.689C105.925 64.815 109 78.919 109 98s-3.075 33.185-9.225 42.311C93.625 149.437 85.158 154 74.374 154zm124.011 79c10.371-15.102 18.233-32.569 23.586-52.4 5.353-19.832 8.029-41.198 8.029-64.1 0-22.902-2.718-44.351-8.155-64.349C216.41 32.154 208.59 14.77 198.385 0H161c10.538 18.42 18.275 37.132 23.21 56.134 4.934 19.002 7.4 39.124 7.4 60.366 0 21.242-2.466 41.364-7.4 60.366-4.935 19.002-12.672 37.713-23.21 56.134h37.385z"/>
</svg>
