<svg xmlns="http://www.w3.org/2000/svg" width="247" height="247" viewBox="0 0 247 247">
    <path fill="#039FF4" fill-rule="evenodd" d="M105.965 243.324c-8.955 5.648-20.794 2.967-26.442-5.989-.266-.422-.516-.855-.749-1.297-5.9-11.209-17.715-18.03-30.372-17.535-10.58.414-19.491-7.827-19.905-18.407-.02-.5-.02-1 0-1.498.495-12.657-6.326-24.472-17.535-30.372-9.369-4.931-12.966-16.524-8.035-25.893.233-.442.483-.875.75-1.298 6.756-10.714 6.756-24.356 0-35.07C-1.973 97.01.708 85.171 9.664 79.523c.422-.266.855-.516 1.297-.749 11.209-5.9 18.03-17.715 17.535-30.372-.414-10.58 7.827-19.491 18.407-19.905.5-.02 1-.02 1.498 0 12.657.495 24.472-6.326 30.372-17.535 4.931-9.369 16.524-12.966 25.893-8.035.442.233.875.483 1.298.75 10.714 6.756 24.356 6.756 35.07 0 8.955-5.649 20.794-2.968 26.442 5.988.266.422.516.855.749 1.297 5.9 11.209 17.715 18.03 30.372 17.535 10.58-.414 19.491 7.827 19.905 18.407.02.5.02 1 0 1.498-.495 12.657 6.326 24.472 17.535 30.372 9.369 4.931 12.966 16.524 8.035 25.893-.233.442-.483.875-.75 1.298-6.756 10.714-6.756 24.356 0 35.07 5.649 8.955 2.968 20.794-5.988 26.442-.422.266-.855.516-1.297.749-11.209 5.9-18.03 17.715-17.535 30.372.414 10.58-7.827 19.491-18.407 19.905-.5.02-1 .02-1.498 0-12.657-.495-24.472 6.326-30.372 17.535-4.931 9.369-16.524 12.966-25.893 8.035-.442-.233-.875-.483-1.298-.75-10.714-6.756-24.356-6.756-35.07 0z"/>
</svg>
