<svg xmlns="http://www.w3.org/2000/svg" width="416" height="416">
  <path fill="#FE706D" d="M0 0h416v416H0V0z"/>
  <path fill="#FFF" d="M178 180l-2.426 9.817-4.32 17.469-.04.165A19.151 19.151 0 0 1 152.623 222H136l2.769-11.184h15.029a6.09 6.09 0 0 0 5.912-4.628l4.05-16.371h-8.177l2.425-9.817H178zm6.636 6.622c.95-3.89 4.397-6.622 8.354-6.622H224l-2.396 9.817-.912 3.732h-10.567l.914-3.732h-15.973l-.912 3.732-.87 3.55h11.137l-1.914 7.833h-11.132l-1.621 6.64h24.927L212.139 222H176l2.544-10.428.186-.756 1.434-5.884 1.915-7.834.864-3.549.913-3.732.78-3.195zm48.51 10.476l.873-3.549.922-3.732h-6.328l2.423-9.817H270l-2.423 9.817h-21.272l-.925 3.732-.873 3.55-1.937 7.833-1.637 6.64h6.928L245.286 222H227l2.572-10.428 1.638-6.64 1.935-7.834h.001zm5.78 40.183l2.611 4.515h1.779l-.731 3.204h-4.341l-3.903-6.895h-.38l-.888 3.738h2.194l-.779 3.157H226l.83-3.156h1.902l3.268-13.69h-1.902l.732-3.154h6.244l-2.965 12.475h.377l5.123-3.64h-2.537l.683-3.204H246l-.83 3.203h-1.561l-4.683 3.447zm7.726-6.558h5.846l-2.773 11.161h2.088l-.834 3.121h-7.655l.649-3.121h1.856l2.169-8.087h-2.169l.823-3.074zm16.323 9.161c.558-1.409 1.643-5.852-1.511-5.852-3.663 0-4.39 5.753-4.39 5.753s-.315 3.074 2.183 3.074c2.328 0 3.27-1.843 3.718-2.975zm7.778-14.779l-3.93 17.209h1.795l-.728 3.223h-6.16l.367-1.568-.367.014s-1.94 2.018-5.076 2.018c-3.137 0-5.077-2.447-3.914-7.34 1.164-4.893 5.109-7.803 7.955-7.803 1.423 0 2.404.586 3.029 1.17.625.586.893 1.171.893 1.171l1.165-4.978-1.919.01.729-3.125h6.161v-.001zm-19.765-1.089c1.354-.149 2.232.842 1.963 2.215s-1.585 2.605-2.938 2.754c-1.355.15-2.234-.842-1.966-2.215.271-1.374 1.587-2.607 2.941-2.754z"/>
</svg>
