<svg xmlns="http://www.w3.org/2000/svg" width="416" height="416" viewBox="0 0 416 416">
    <defs>
        <linearGradient id="a" x1="50%" x2="50%" y1="0%" y2="98.338%">
            <stop offset="0%" stop-color="#0DF"/>
            <stop offset="100%" stop-color="#00B2F7"/>
        </linearGradient>
    </defs>
    <g fill="none" fill-rule="evenodd">
        <path fill="#FFF" d="M0 0h416v416H0z"/>
        <path fill="url(#a)" d="M0 0h416v416H0z"/>
        <g fill="#FFF">
            <path d="M165.168 165.92h18.57v53.872c-17.592-6.554-18.16-30.132-18.57-53.873M198.479 165.92h18.577c-.147 21.808 5.522 37.803 12.998 52.019 4.323-13.641.627-35.306 1.85-52.02h18.575c1.53 26.885-4.933 45.822-18.575 57.586 3.218 10.414 5.611 21.657 5.578 35.301h-18.58c.194-22.47-5.783-38.818-12.997-53.884-4.32 14.263-.62 36.54-1.848 53.884h-18.6c.066-24.72 1.817-47.728 18.6-55.737-3.565-10.684-5.275-23.218-5.578-37.15"/>
            <path d="M331.942 216.433a11.84 11.84 0 0 1-8.447 3.5c-4.085 0-7.617-2.266-11.122-5.559.967.23 1.987.37 3.028.37 2.322 0 4.511-.624 6.415-1.696a13.062 13.062 0 0 0 4.779-4.642l.367-.6-.367-.584a12.995 12.995 0 0 0-4.78-4.652 13.138 13.138 0 0 0-6.414-1.688c-.89 0-1.75.09-2.596.27 3.36-2.996 6.885-5.091 10.69-5.091 3.298 0 6.292 1.32 8.447 3.496 1.365 1.373 2.416 3.048 2.989 4.93a129.04 129.04 0 0 1 0 7.03 11.914 11.914 0 0 1-2.99 4.916zm.083 18.682c-5.22-.646-8.98-4.01-13.034-7.645l-.037-.057c-1.101-2.113-2.232-4.217-3.448-6.279 2.432 1.432 5.054 2.274 7.989 2.274 4.25 0 8.134-1.725 10.914-4.52l.112-.112c-.465 5.527-1.324 10.972-2.496 16.339zm-4.437 15.435a109.544 109.544 0 0 0-6.164-17.933c2.968 2.359 6.102 4.23 10.081 4.753-1.084 4.462-2.373 8.872-3.917 13.18zm-25.186-4.481c5.675-3.925 10.877-8.2 15.497-12.738a99.797 99.797 0 0 1 7.09 22.075l-22.587-9.337zm1.058 21.93c-.033-6.47-.661-13.181-1.884-19.94l22.593 9.34a101.308 101.308 0 0 1-20.71 10.6zm12.595 6.56c-3.113-2.385-6.579-3.254-10.256-3.704a109.438 109.438 0 0 0 16.744-8.184 125.873 125.873 0 0 1-6.488 11.888zm-11.484 15.27v-.15c0-3.935-1.272-7.87-4.308-10.882-1.987-1.985-4.303-3.221-6.99-3.992a95.83 95.83 0 0 0 7.092-2.027c5.349.261 10.128.573 14.215 3.751-2.978 4.636-6.294 9.085-10.009 13.3zm-4.45 5.463c-1.599 1.67-3.26 3.332-4.95 4.942a12.019 12.019 0 0 1-5.624 1.383 12.006 12.006 0 0 1-8.478-3.487c-2.875-2.861-3.75-6.955-3.906-11.776a12.74 12.74 0 0 0 1.873 2.375 12.91 12.91 0 0 0 5.754 3.35c2.181.598 4.479.629 6.68.088l.65-.164.187-.679c.556-2.18.511-4.463-.112-6.65-.549-2.093-1.699-4.082-3.338-5.714-.61-.63-1.297-1.17-2.005-1.653 4.494.258 8.482 1.255 11.179 3.94a11.89 11.89 0 0 1 3.492 8.433c0 1.932-.463 3.851-1.401 5.612zm-23.998 19.5c-3.243-4.138-3.123-9.079-4.052-14.501v-.086a53.458 53.458 0 0 0 2.272-6.84c.704 2.726 2.065 5.054 4.167 7.124 3.018 3.005 7.082 4.42 11.037 4.42h.176c-4.214 3.703-8.907 6.9-13.6 9.884zm-13.86 7.888a109.768 109.768 0 0 0 8.37-17.048c.414 3.775 1.298 7.308 3.768 10.497a131.518 131.518 0 0 1-12.138 6.551zm-14.615-20.937c6.777 1.22 13.49 1.864 19.97 1.906a100.511 100.511 0 0 1-10.63 20.626l-9.34-22.532zm-14.816 16.253c4.554-4.6 8.865-9.777 12.809-15.436l9.354 22.543c-7.647-1.514-15.05-3.914-22.163-7.107zm4.228 13.54c-.487-3.899-2.302-6.974-4.607-9.886a109.256 109.256 0 0 0 17.658 6.037 131.525 131.525 0 0 1-13.051 3.85zm-18.643 3.007l.117-.126a15.326 15.326 0 0 0 4.534-10.902c0-2.796-.837-5.373-2.188-7.792a122.036 122.036 0 0 0 6.418 3.511c3.595 3.969 6.86 7.678 7.5 12.822a128.606 128.606 0 0 1-16.381 2.487zm-7.29.387c-1.047.036-2.088.054-3.127.058a103.33 103.33 0 0 1-3.127-.058 11.86 11.86 0 0 1-4.937-2.963 11.844 11.844 0 0 1-3.519-8.452c0-3.8 2.11-7.296 5.103-10.64a12.6 12.6 0 0 0-.26 2.57c0 2.333.617 4.51 1.706 6.416 1.12 1.948 2.718 3.615 4.652 4.755l.382.256.382-.256c1.934-1.14 3.531-2.807 4.653-4.755a12.864 12.864 0 0 0 1.705-6.417 12.6 12.6 0 0 0-.26-2.57c2.992 3.345 5.103 6.841 5.103 10.64 0 3.319-1.342 6.291-3.519 8.453a11.86 11.86 0 0 1-4.937 2.963zm-29.924-2.874c.639-5.144 3.904-8.853 7.5-12.822 2.178-1.115 4.313-2.27 6.417-3.511-1.35 2.42-2.188 4.996-2.188 7.792 0 4.253 1.732 8.121 4.534 10.902l.117.126a128.602 128.602 0 0 1-16.38-2.487zm-15.314-4.369a109.261 109.261 0 0 0 17.658-6.037c-2.305 2.912-4.12 5.987-4.607 9.887a131.503 131.503 0 0 1-13.05-3.85zm4.47-25.127c3.944 5.66 8.255 10.837 12.809 15.436-7.114 3.193-14.516 5.593-22.163 7.107l9.354-22.543zm-21.978 1.089c6.481-.042 13.194-.685 19.971-1.906l-9.34 22.532a100.522 100.522 0 0 1-10.63-20.626zm-6.782 12.48c2.47-3.189 3.354-6.722 3.768-10.497a109.81 109.81 0 0 0 8.37 17.048 131.548 131.548 0 0 1-12.138-6.55zm-15.322-11.22h.176c3.955 0 7.903-1.415 10.921-4.42 2.102-2.07 3.114-4.461 3.819-7.186.604 2.305.878 4.647 1.807 6.902v.086c0 5.422-.345 10.363-3.587 14.502-4.693-2.983-8.922-6.181-13.136-9.884zm-10.399-9.617a11.892 11.892 0 0 1-1.4-5.612 11.89 11.89 0 0 1 3.49-8.432c2.698-2.686 6.686-3.683 11.18-3.941-.708.482-1.395 1.023-2.005 1.653-1.64 1.632-2.79 3.621-3.338 5.714a12.734 12.734 0 0 0-.112 6.65l.187.679.65.164c2.201.54 4.499.51 6.68-.087a12.91 12.91 0 0 0 5.754-3.351 12.751 12.751 0 0 0 1.873-2.375c-.156 4.82-1.031 8.915-3.906 11.776a12.006 12.006 0 0 1-8.478 3.487c-1.923 0-3.85-.447-5.624-1.383a154.04 154.04 0 0 1-4.95-4.942zm-5.378-5.463c-3.714-4.215-6.595-8.664-9.573-13.3 4.087-3.178 9.185-3.49 14.534-3.751a95.824 95.824 0 0 0 7.092 2.027c-2.687.77-5.322 2.007-7.31 3.992-3.035 3.011-4.743 6.947-4.743 10.883v.149zM93.457 262.67a109.427 109.427 0 0 0 16.744 8.184c-3.678.45-7.143 1.32-10.256 3.704a125.924 125.924 0 0 1-6.488-11.888zm20.967-14.613c-1.223 6.76-1.85 13.472-1.884 19.941a101.32 101.32 0 0 1-20.709-10.6l22.593-9.34zM98.1 233.331c4.62 4.537 9.822 8.813 15.497 12.738l-22.586 9.337a99.81 99.81 0 0 1 7.089-22.075zm-13.606 4.039c3.978-.523 7.113-2.394 10.081-4.753a109.564 109.564 0 0 0-6.164 17.933c-1.544-4.308-2.833-8.718-3.917-13.18zm-3.016-18.594l.112.112a15.378 15.378 0 0 0 10.914 4.52c2.935 0 5.557-.842 7.989-2.274-1.216 2.062-2.347 4.166-3.448 6.279l-.038.057c-4.054 3.634-7.814 6.999-13.033 7.645-1.172-5.367-2.032-10.812-2.496-16.34zm-.41-14.289c.573-1.882 1.624-3.557 2.99-4.93 2.154-2.176 5.148-3.496 8.446-3.496 3.805 0 7.33 2.095 10.69 5.09-.846-.18-1.705-.27-2.595-.27a13.14 13.14 0 0 0-6.416 1.69 12.995 12.995 0 0 0-4.779 4.65l-.367.585.367.6a13.062 13.062 0 0 0 4.78 4.642 13.058 13.058 0 0 0 6.415 1.695c1.04 0 2.06-.14 3.027-.369-3.505 3.293-7.037 5.559-11.122 5.559a11.842 11.842 0 0 1-8.447-3.5 11.914 11.914 0 0 1-2.99-4.916 129.042 129.042 0 0 1 0-7.03zm2.884-23.599c5.168.624 8.891 3.914 12.868 7.476a112.029 112.029 0 0 0 3.51 6.419c-2.415-1.37-5.01-2.205-7.826-2.205-4.25 0-8.134 1.74-10.914 4.524l-.123.111c.454-5.428 1.309-10.885 2.485-16.325zm4.37-15.256a111.63 111.63 0 0 0 6.062 17.597c-2.898-2.295-6-4.087-9.905-4.62a131.05 131.05 0 0 1 3.844-12.977zm25.209 4.473c-5.647 3.905-10.848 8.205-15.486 12.758a101.317 101.317 0 0 1-7.111-22.085l22.597 9.327zm-1.084-21.939c.042 6.46.691 13.153 1.93 19.927l-22.622-9.329c6.478-4.3 13.4-7.861 20.692-10.598zm-12.51-6.76c3.186 2.46 6.724 3.343 10.51 3.76a111.38 111.38 0 0 0-17.103 8.352 136.518 136.518 0 0 1 6.594-12.112zm10.562-15.261v.163c0 3.96 1.74 7.891 4.775 10.9 2.071 2.07 4.627 3.161 7.375 3.879-2.313.595-4.485 1.839-6.752 1.839h-.073c-5.448 0-10.75-.39-14.898-3.63 3-4.692 5.859-8.959 9.573-13.151zm5.378-5.44c1.602-1.688 3.26-3.35 4.963-4.95a12.072 12.072 0 0 1 5.612-1.383c3.062 0 6.138 1.166 8.478 3.494 2.688 2.682 3.681 6.66 3.941 11.13a12.82 12.82 0 0 0-1.67-2.014 12.766 12.766 0 0 0-5.723-3.326 13.111 13.111 0 0 0-6.694-.095l-.643.164-.172.673a12.834 12.834 0 0 0 .092 6.652 12.895 12.895 0 0 0 3.343 5.738c.738.731 1.545 1.35 2.386 1.877-4.83-.169-8.927-1.05-11.822-3.926a11.899 11.899 0 0 1-3.492-8.431c0-1.933.463-3.838 1.401-5.603zm23.779-19.772c3.18 4.084 3.498 9.115 3.758 14.452a122.939 122.939 0 0 0-2.067 7.05c-.742-2.682-1.973-5.255-3.974-7.222-3.018-3.012-6.966-4.684-10.92-4.684h-.157c4.248-2.777 8.71-6.624 13.36-9.596zm13.897-7.521a108.69 108.69 0 0 0-8.207 16.715c-.416-3.69-1.337-7.11-3.73-10.236a126.964 126.964 0 0 1 11.937-6.479zm14.662 20.919c-6.79-1.215-13.53-1.845-19.994-1.893a101.362 101.362 0 0 1 10.61-20.624l9.384 22.517zm14.778-16.29c-4.54 4.617-8.85 9.81-12.785 15.457l-9.374-22.521a102.23 102.23 0 0 1 22.159 7.063zm-4.054-13.562c.531 3.97 2.395 7.097 4.757 10.06a107.573 107.573 0 0 0-18-6.155 131.42 131.42 0 0 1 13.243-3.905zm18.643-3.002l-.117.113a15.288 15.288 0 0 0-4.534 10.882c0 2.934.846 5.528 2.274 7.968-2.06-1.206-4.16-2.375-6.299-3.43l-.02-.07c-3.666-4.035-7.034-7.757-7.684-12.982a126.418 126.418 0 0 1 16.38-2.481zm7.286-.415c1.042-.034 2.087-.05 3.131-.054 1.044.004 2.09.02 3.131.054a11.901 11.901 0 0 1 4.933 2.973 11.882 11.882 0 0 1 3.519 8.437c0 4.068-2.274 7.577-5.57 11.076.207-.95.348-1.962.348-2.999 0-2.332-.63-4.517-1.694-6.412a13.203 13.203 0 0 0-4.66-4.767l-.007-.004-.007.004a13.203 13.203 0 0 0-4.66 4.767 13.069 13.069 0 0 0-1.694 6.412c0 1.037.14 2.05.348 2.999-3.296-3.5-5.57-7.008-5.57-11.076 0-3.278 1.342-6.273 3.519-8.437a11.903 11.903 0 0 1 4.933-2.973zm29.928 2.896c-.65 5.225-4.018 8.947-7.684 12.981l-.02.07c-2.14 1.056-4.24 2.225-6.299 3.431 1.428-2.44 2.274-5.034 2.274-7.968 0-4.247-1.736-8.112-4.534-10.882l-.117-.113c5.526.468 11 1.302 16.38 2.481zm15.506 4.426a107.566 107.566 0 0 0-18 6.155c2.362-2.963 4.226-6.09 4.757-10.06a131.442 131.442 0 0 1 13.243 3.905zm-4.512 25.114c-3.935-5.647-8.245-10.84-12.785-15.458a102.234 102.234 0 0 1 22.159-7.063l-9.374 22.521zm21.987-1.06c-6.464.048-13.203.678-19.994 1.893l9.384-22.517a101.361 101.361 0 0 1 10.61 20.624zm6.605-12.547c-2.393 3.125-3.314 6.547-3.73 10.236a108.69 108.69 0 0 0-8.207-16.715 126.964 126.964 0 0 1 11.937 6.48zm15.32 10.638h-.156c-3.955 0-7.903 1.688-10.921 4.7-2 1.967-3.232 4.491-3.974 7.176a121.331 121.331 0 0 0-2.067-6.99c.26-5.336.577-10.413 3.758-14.498 4.65 2.972 9.112 6.835 13.36 9.612zm10.419 10.176a11.864 11.864 0 0 1 1.4 5.603c0 3.055-1.171 6.112-3.491 8.43-2.895 2.878-6.993 3.758-11.822 3.927a13.743 13.743 0 0 0 2.386-1.877 12.89 12.89 0 0 0 3.342-5.738c.617-2.15.646-4.463.093-6.652l-.172-.673-.643-.164a13.11 13.11 0 0 0-6.694.095 12.764 12.764 0 0 0-5.723 3.326 12.82 12.82 0 0 0-1.67 2.014c.26-4.47 1.254-8.448 3.941-11.13a11.997 11.997 0 0 1 8.478-3.494c1.923 0 3.85.46 5.611 1.383a121.16 121.16 0 0 1 4.964 4.95zm4.45 5.44c3.714 4.192 7.036 8.459 10.037 13.15-4.149 3.242-8.986 3.63-14.434 3.63h-.073c-2.267 0-4.555-1.243-6.868-1.838 2.747-.718 4.955-1.872 7.027-3.943 3.035-3.008 4.31-6.876 4.31-10.836v-.163zm18.084 27.373a111.414 111.414 0 0 0-17.103-8.352c3.785-.417 7.323-1.3 10.508-3.76 2.371 3.885 4.58 7.91 6.595 12.112zm-21.034 14.575c1.238-6.774 1.888-13.466 1.93-19.927a102.493 102.493 0 0 1 20.692 10.598l-22.622 9.33zm16.332 14.77c-4.638-4.553-9.84-8.853-15.486-12.758l22.597-9.327a101.316 101.316 0 0 1-7.111 22.085zm13.566-4.254c-3.906.533-7.007 2.325-9.905 4.62a111.584 111.584 0 0 0 6.06-17.597 130.927 130.927 0 0 1 3.845 12.977zm-26.556 25.582c-.332.351-.637.699-.962 1.061a107.32 107.32 0 0 0-10.364-10.366 128.64 128.64 0 0 0 4.224-11.516c1.2-3.845 2.211-7.71 3.055-11.559 5.865 4.07 11.247 8.526 15.997 13.27a104.914 104.914 0 0 1-11.95 19.11zm1.597 3.648c.384-.468.785-.946 1.146-1.443.7-.7 1.511-1.317 2.393-1.825a11.001 11.001 0 0 1 5.3-1.37c1.928 0 3.717.513 5.279 1.37a10.88 10.88 0 0 1 3.556 3.235 10.745 10.745 0 0 1-3.556 3.235 10.589 10.589 0 0 1-5.278 1.384c-1.935 0-3.737-.495-5.301-1.384a10.933 10.933 0 0 1-3.539-3.202zm-5.736 36.503a124.99 124.99 0 0 0-2.99-11.595 133.47 133.47 0 0 0-4.197-11.51 106.294 106.294 0 0 0 10.401-10.407 102.779 102.779 0 0 1 12.811 20.274c-4.71 4.714-10.123 9.189-16.025 13.238zm-21.668 29.587c-.489.015-.963.055-1.443.081.341-4.842.368-9.733.041-14.63 3.806-1.573 7.55-3.288 11.129-5.161 3.604-1.873 7.054-3.9 10.372-6.055 1.26 7.016 1.908 13.985 1.908 20.672a104.737 104.737 0 0 1-22.007 5.093zm-1.45 3.728c.606-.056 1.21-.146 1.831-.224.983 0 2 .132 2.952.394 1.758.483 3.362 1.4 4.737 2.756a10.586 10.586 0 0 1 2.762 4.704c.428 1.574.507 3.204.212 4.796-1.577.282-3.23.2-4.792-.217a11.068 11.068 0 0 1-4.73-2.756 10.538 10.538 0 0 1-2.75-4.718c-.457-1.526-.51-3.164-.222-4.735zm-1.727-40.199l21.698 8.992a128.839 128.839 0 0 1-9.858 5.713 126.497 126.497 0 0 1-10.265 4.795c-.473-5.597-1.425-11.2-2.807-16.797.428-.872.842-1.779 1.232-2.703zm1.668-78.309a128.192 128.192 0 0 1 10.231 4.803 127.429 127.429 0 0 1 9.846 5.752l-21.694 8.933c-.406-.922-.813-1.812-1.212-2.704a111.42 111.42 0 0 0 2.829-16.784zm-.176-21.032c-.07-.598-.137-1.219-.22-1.82 0-1 .136-2 .416-2.968.455-1.717 1.4-3.338 2.75-4.702a10.614 10.614 0 0 1 4.725-2.748 10.76 10.76 0 0 1 4.794-.223c.264 1.581.222 3.228-.214 4.776a10.63 10.63 0 0 1-2.765 4.709 10.68 10.68 0 0 1-4.724 2.753 10.705 10.705 0 0 1-4.762.223zm.359 3.913a104.636 104.636 0 0 1 23.419 5.289c0 6.69-.639 13.634-1.928 20.642a128.342 128.342 0 0 0-10.368-6.043 132.143 132.143 0 0 0-11.11-5.174 108.66 108.66 0 0 0-.013-14.714zm13.983 51.275a110.217 110.217 0 0 0-13.902-9.876 51.68 51.68 0 0 0-1.062-2.787l21.705-8.932a126.034 126.034 0 0 1-2.886 10.97 131.97 131.97 0 0 1-3.855 10.625zm-.03 29.518a131.278 131.278 0 0 1 3.841 10.62c1.142 3.659 2.1 7.327 2.875 10.994l-21.68-8.967c.35-.92.704-1.85 1.037-2.78a107.412 107.412 0 0 0 13.926-9.867zm-10.226-5.705a124.673 124.673 0 0 0 4.287-6.724c1.62 2.933 3.076 5.944 4.444 8.957a103.65 103.65 0 0 1-10.764 8.01c.892-3.363 1.593-6.785 2.033-10.243zm.003-18.108a70.772 70.772 0 0 0-2.003-10.235 101.748 101.748 0 0 1 10.764 7.985 121.412 121.412 0 0 1-4.477 8.967 113.145 113.145 0 0 0-4.284-6.717zm.434 4.847a228.963 228.963 0 0 1 2.553 4.188 138.848 138.848 0 0 1-2.566 4.213c.162-2.781.162-5.586.013-8.4zm19.667 4.307c-2.97 3.386-6.127 6.601-9.542 9.606a125.36 125.36 0 0 0-4.935-9.711c1.791-3.18 3.45-6.41 4.935-9.712 3.39 3.015 6.563 6.211 9.48 9.595l-.05.081.112.14zm-150.3-53.627a127.678 127.678 0 0 0-1.712 7.762 72.668 72.668 0 0 0-5.838 8.68 103.995 103.995 0 0 1-1.941-13.24 121.862 121.862 0 0 1 9.49-3.202zm4.136-12.949c-1.255 3.374-2.422 6.839-3.4 10.364-3.52.977-7.002 2.117-10.41 3.394-.278-4.534-.18-9.064.142-13.538l.241-.01v-.106c4.179-.34 8.92-.356 13.427-.104zm6.542-14.617c-1.894 3.582-3.604 7.293-5.182 11.1a104.226 104.226 0 0 0-14.65.046l.053-1.432a104.284 104.284 0 0 1 5.115-21.933c6.706-.02 13.686.608 20.727 1.917a123.547 123.547 0 0 0-6.063 10.302zm-3.3 25.66a67.42 67.42 0 0 0-5.949 5.94c.353-1.6.754-3.197 1.155-4.754 1.595-.424 3.173-.82 4.794-1.186zm-4.067-1.382c.947-3.233 2.01-6.391 3.199-9.478 4.42.346 8.867.98 13.307 1.907a73.911 73.911 0 0 0-8.698 5.834c-2.62.481-5.233 1.07-7.808 1.737zm24.164-11.409c-.919.394-1.824.811-2.719 1.222-5.602-1.397-11.227-2.302-16.845-2.8a122.399 122.399 0 0 1 4.812-10.208c1.775-3.4 3.674-6.676 5.754-9.836l8.998 21.622zm4.031-19.569a123.822 123.822 0 0 1 10.642 3.812 106.885 106.885 0 0 0-9.87 13.897 52.71 52.71 0 0 0-2.803 1.032l-9.002-21.622c3.675.779 7.363 1.76 11.033 2.881zm22.68-8.412c-3.71 3.205-7.19 6.681-10.46 10.373a134.74 134.74 0 0 0-11.535-4.166 125.654 125.654 0 0 0-11.612-3.002c4.058-5.884 8.544-11.253 13.28-15.98a104.39 104.39 0 0 1 20.326 12.775zm5.105-6.047a10.967 10.967 0 0 1-2.653 3.119 10.97 10.97 0 0 1-2.653-3.119 10.799 10.799 0 0 1-1.386-5.263A10.762 10.762 0 0 1 208 92.156a10.762 10.762 0 0 1 4.04 8.393c0 1.911-.523 3.721-1.387 5.263zm21.794 12.254a134.745 134.745 0 0 0-11.534 4.166c-3.271-3.692-6.75-7.168-10.46-10.373 6.31-5.07 13.13-9.33 20.326-12.776 4.736 4.728 9.222 10.097 13.28 15.98a125.669 125.669 0 0 0-11.612 3.003zm-22.448 11.938a121.893 121.893 0 0 1 9.004-4.436 107.102 107.102 0 0 1 8.021 10.73 77.144 77.144 0 0 0-10.288-2.025c-2.207-1.495-4.457-2.899-6.737-4.27zM208 131.52c1.29.747 2.59 1.518 3.858 2.323a78.682 78.682 0 0 0-3.858-.112 78.682 78.682 0 0 0-3.858.112A112.51 112.51 0 0 1 208 131.52zm-9.406-7.775a100.988 100.988 0 0 1 9.406-9.29 101.02 101.02 0 0 1 9.406 9.29 134.114 134.114 0 0 0-9.406 4.74 134.109 134.109 0 0 0-9.406-4.74zm7.407 6.259c-2.28 1.37-4.53 2.774-6.737 4.27-3.481.439-6.92 1.122-10.288 2.024a107.138 107.138 0 0 1 8.02-10.73c3.05 1.35 6.062 2.83 9.005 4.436zm29.162 9.008a52.778 52.778 0 0 0-2.802-1.032 106.886 106.886 0 0 0-9.87-13.897 123.822 123.822 0 0 1 10.64-3.812c3.671-1.12 7.359-2.102 11.034-2.881l-9.002 21.622zm16.752-10.958a122.4 122.4 0 0 1 4.812 10.207c-5.618.5-11.243 1.404-16.845 2.8-.894-.41-1.8-.827-2.719-1.22l8.998-21.623c2.08 3.16 3.979 6.436 5.754 9.836zm7.227 10.016c-1.578-3.806-3.287-7.517-5.182-11.099a123.485 123.485 0 0 0-6.063-10.302c7.041-1.309 14.02-1.937 20.727-1.917a104.298 104.298 0 0 1 5.116 21.933l.053 1.432c-4.826-.36-9.739-.374-14.651-.047zm-5.623 11.442a73.911 73.911 0 0 0-8.698-5.834c4.44-.928 8.888-1.56 13.307-1.907a120.916 120.916 0 0 1 3.2 9.478 111.427 111.427 0 0 0-7.809-1.737zm8.535 4.305c.401 1.557.802 3.154 1.155 4.754a67.389 67.389 0 0 0-5.949-5.94c1.622.366 3.199.762 4.794 1.186zm12.075 3.922c-.359 4.408-1 8.828-1.94 13.24a72.694 72.694 0 0 0-5.839-8.68 128.03 128.03 0 0 0-1.712-7.762c3.224.942 6.383 2.009 9.491 3.202zm.04-15.93c.323 4.473.42 9.003.143 13.537a125.183 125.183 0 0 0-10.41-3.394c-.978-3.525-2.145-6.99-3.4-10.364 4.507-.252 9.248-.236 13.427.104v.105l.24.011zM138.446 256.957a126.534 126.534 0 0 1-10.265-4.795 128.794 128.794 0 0 1-9.858-5.713l21.698-8.992c.39.924.804 1.831 1.232 2.703-1.382 5.596-2.334 11.2-2.807 16.797zm-1.983 20.475c.621.078 1.225.168 1.83.224.29 1.57.236 3.21-.222 4.735a10.535 10.535 0 0 1-2.75 4.718 11.067 11.067 0 0 1-4.73 2.756 11.093 11.093 0 0 1-4.791.217 10.762 10.762 0 0 1 .212-4.796 10.586 10.586 0 0 1 2.762-4.704c1.375-1.355 2.979-2.273 4.737-2.756a11.29 11.29 0 0 1 2.952-.394zm-19.718-29.269a124.314 124.314 0 0 0 10.372 6.055c3.578 1.873 7.323 3.588 11.128 5.16-.326 4.898-.3 9.789.042 14.631-.48-.026-.954-.066-1.443-.081a104.738 104.738 0 0 1-22.007-5.093c0-6.687.648-13.656 1.908-20.672zm-4.783-37.334c3.215 3.692 6.68 7.17 10.4 10.407a133.468 133.468 0 0 0-4.196 11.51 124.841 124.841 0 0 0-2.99 11.595c-5.902-4.05-11.315-8.524-16.025-13.238a102.768 102.768 0 0 1 12.81-20.274zm-3.668-4.434c.361.497.762.975 1.145 1.443a10.934 10.934 0 0 1-3.538 3.202 10.66 10.66 0 0 1-5.3 1.384 10.59 10.59 0 0 1-5.28-1.384 10.744 10.744 0 0 1-3.555-3.235 10.88 10.88 0 0 1 3.556-3.235 10.93 10.93 0 0 1 5.279-1.37c1.934 0 3.736.513 5.3 1.37a11.54 11.54 0 0 1 2.393 1.825zm6.79-34.585a137.983 137.983 0 0 0 3.055 11.559 128.712 128.712 0 0 0 4.224 11.516 107.372 107.372 0 0 0-10.364 10.366c-.326-.362-.63-.71-.962-1.061a104.903 104.903 0 0 1-11.95-19.11c4.75-4.744 10.132-9.2 15.997-13.27zm23.087-29.781c-.34 4.856-.34 9.781-.014 14.714a132.104 132.104 0 0 0-11.11 5.174 128.35 128.35 0 0 0-10.368 6.043c-1.289-7.008-1.928-13.952-1.928-20.642a104.63 104.63 0 0 1 23.42-5.29zm.358-3.913a10.705 10.705 0 0 1-4.762-.223 10.68 10.68 0 0 1-4.724-2.753 10.632 10.632 0 0 1-2.765-4.709c-.436-1.548-.478-3.195-.214-4.776 1.58-.29 3.241-.209 4.795.223a10.614 10.614 0 0 1 4.725 2.748c1.348 1.364 2.294 2.985 2.75 4.702.28.969.416 1.967.416 2.969-.084.6-.15 1.221-.22 1.819zm-20.253 31.587a127.385 127.385 0 0 1 9.846-5.752 128.197 128.197 0 0 1 10.231-4.803 111.39 111.39 0 0 0 2.829 16.784c-.399.892-.806 1.782-1.212 2.704l-21.694-8.933zm5.91 23.601a132.06 132.06 0 0 1-3.854-10.625 126.115 126.115 0 0 1-2.886-10.97l21.705 8.932a51.877 51.877 0 0 0-1.062 2.787 110.253 110.253 0 0 0-13.902 9.876zm1.526 26.046c1.368-3.013 2.824-6.024 4.444-8.957a124.673 124.673 0 0 0 4.287 6.724c.44 3.458 1.14 6.88 2.033 10.242a103.628 103.628 0 0 1-10.764-8.01zm-1.494 3.472a107.446 107.446 0 0 0 13.926 9.867c.333.93.687 1.86 1.038 2.78l-21.681 8.967a121.115 121.115 0 0 1 2.874-10.994 131.366 131.366 0 0 1 3.843-10.62zm5.938-17.096a121.595 121.595 0 0 1-4.477-8.967 101.748 101.748 0 0 1 10.764-7.985 70.803 70.803 0 0 0-2.003 10.235 113.145 113.145 0 0 0-4.284 6.717zm3.864 6.53a138.385 138.385 0 0 1-2.567-4.212c.84-1.404 1.679-2.793 2.553-4.188-.15 2.815-.15 5.62.014 8.4zm-19.62-4.315c2.918-3.384 6.09-6.58 9.48-9.595 1.486 3.303 3.145 6.532 4.936 9.712a125.284 125.284 0 0 0-4.935 9.71c-3.415-3.004-6.572-6.22-9.542-9.605l.113-.14-.051-.082zM208 278.38c-38.819-.219-70.225-31.65-70.225-70.376 0-38.736 31.406-70.171 70.225-70.39 38.819.219 70.225 31.654 70.225 70.39 0 38.727-31.406 70.157-70.225 70.376zm56.548-16.83a117.152 117.152 0 0 0 1.74-7.797 70.338 70.338 0 0 0 5.834-8.635c.939 4.395 1.57 8.835 1.93 13.24a124.448 124.448 0 0 1-9.504 3.192zm-4.17 12.936c1.273-3.384 2.478-6.83 3.478-10.346a125.08 125.08 0 0 0 10.364-3.377 96.17 96.17 0 0 1-.148 13.46l-.143.01v.19c-4.643.318-8.982.349-13.552.063zm-6.54 14.609a130.019 130.019 0 0 0 5.193-11.075c4.933.33 9.88.31 14.762-.022a103.59 103.59 0 0 1-5.319 23.373c-6.693 0-13.677-.665-20.714-1.96 2.164-3.29 4.195-6.741 6.079-10.316zm3.363-25.666a70.838 70.838 0 0 0 5.95-5.92 121.431 121.431 0 0 1-1.185 4.754c-1.586.422-3.186.83-4.765 1.166zm4.03 1.41a123.28 123.28 0 0 1-3.193 9.492 104.21 104.21 0 0 1-13.31-1.944 75.413 75.413 0 0 0 8.712-5.83 117.098 117.098 0 0 0 7.79-1.718zm-24.171 11.36c.919-.397 1.824-.792 2.712-1.212a111.071 111.071 0 0 0 16.856 2.84 135.84 135.84 0 0 1-4.823 10.197 129.456 129.456 0 0 1-5.776 9.818l-8.97-21.643zm-4.054 19.586a127.936 127.936 0 0 1-10.648-3.848 111.865 111.865 0 0 0 9.9-13.851c.913-.338 1.87-.69 2.803-1.056l8.963 21.636a127.025 127.025 0 0 1-11.018-2.881zm-21.566 9.269c-.357-.318-.723-.646-1.084-.958a105.685 105.685 0 0 0 10.425-10.33 122.755 122.755 0 0 0 11.522 4.2 125.584 125.584 0 0 0 11.61 3.036 116.372 116.372 0 0 1-13.297 15.962 102.764 102.764 0 0 1-19.176-11.91zm-6.466 5.12c.485-.875 1.1-1.67 1.816-2.374l1.21-.94 1.21.94c.716.705 1.33 1.5 1.816 2.374a10.67 10.67 0 0 1 1.39 5.27c0 1.926-.509 3.73-1.39 5.275a10.755 10.755 0 0 1-3.026 3.418 10.757 10.757 0 0 1-3.026-3.418 10.616 10.616 0 0 1-1.39-5.275c0-1.917.509-3.711 1.39-5.27zm-21.277-12.207a122.803 122.803 0 0 0 11.522-4.2 105.682 105.682 0 0 0 10.425 10.33c-.361.311-.727.639-1.083.957a102.765 102.765 0 0 1-19.177 11.91 116.389 116.389 0 0 1-13.298-15.962 125.608 125.608 0 0 0 11.61-3.035zm22.425-11.97a130.158 130.158 0 0 1-8.995 4.462 106.783 106.783 0 0 1-8.035-10.724c3.422.903 6.863 1.588 10.286 1.994a106.95 106.95 0 0 0 6.744 4.267zm1.878-1.56a108.912 108.912 0 0 1-3.752-2.272c1.253.07 2.503.102 3.752.105a69.698 69.698 0 0 0 3.752-.105c-1.24.786-2.482 1.536-3.752 2.272zm9.3 7.82a100.471 100.471 0 0 1-9.3 9.17 100.469 100.469 0 0 1-9.3-9.17 120.03 120.03 0 0 0 9.3-4.678 120.034 120.034 0 0 0 9.3 4.679zm-7.422-6.26a106.95 106.95 0 0 0 6.744-4.268c3.423-.406 6.864-1.091 10.286-1.994a106.783 106.783 0 0 1-8.035 10.724 130.21 130.21 0 0 1-8.995-4.463zm-28.94-8.967c.935.366 1.89.718 2.805 1.056a111.89 111.89 0 0 0 9.899 13.85 127.936 127.936 0 0 1-10.648 3.849 127.025 127.025 0 0 1-11.018 2.88l8.963-21.635zm-16.743 10.994a135.838 135.838 0 0 1-4.823-10.197 111.073 111.073 0 0 0 16.856-2.84c.888.42 1.793.815 2.712 1.212l-8.969 21.643a129.381 129.381 0 0 1-5.776-9.818zm-7.227-10.004a130.019 130.019 0 0 0 5.193 11.075 123.962 123.962 0 0 0 6.079 10.315c-7.037 1.296-14.021 1.961-20.714 1.961a103.59 103.59 0 0 1-5.319-23.373c4.883.332 9.829.352 14.761.022zm5.592-11.464a75.433 75.433 0 0 0 8.711 5.83c-4.424.94-8.874 1.589-13.309 1.945a123.28 123.28 0 0 1-3.192-9.492 117.13 117.13 0 0 0 7.79 1.717zm-8.526-4.293a121.43 121.43 0 0 1-1.185-4.755 70.806 70.806 0 0 0 5.95 5.92 96.91 96.91 0 0 1-4.765-1.165zm-12.086-3.904c.359-4.406.991-8.846 1.93-13.241a70.365 70.365 0 0 0 5.833 8.635c.503 2.631 1.067 5.23 1.74 7.797a124.448 124.448 0 0 1-9.503-3.191zm-.02 15.863a96.24 96.24 0 0 1-.148-13.459 125.08 125.08 0 0 0 10.364 3.377c1 3.516 2.205 6.962 3.479 10.346-4.57.286-8.909.255-13.552-.063v-.19l-.143-.01zm192.604-77.009l-.123-.11a15.424 15.424 0 0 0-10.914-4.525c-2.816 0-5.411.835-7.826 2.205a112.173 112.173 0 0 0 3.51-6.419c3.976-3.562 7.7-6.852 12.868-7.476 1.176 5.44 2.032 10.897 2.485 16.325zM208 78c-71.85.22-130 58.335-130 130.004C78 279.66 136.15 337.78 208 338c71.85-.22 130-58.34 130-129.996C338 136.334 279.85 78.22 208 78z"/>
        </g>
    </g>
</svg>
