<svg xmlns="http://www.w3.org/2000/svg" width="82" height="82" viewBox="0 0 82 82">
  <path d="M.095 0h80.974v.151h.131v80.937h-.112v.112H.112v-.112H0V.151h.095V0zm5.083 76.02h70.845V5.176H5.178v70.846zm9.395-35.017l.692-10.508h14.607v3.722H19.221l-.347 4.332.23.032c1.128-.984 1.76-1.158 3.667-1.158h2.63c1.932 0 2.943.32 3.722 1.099 1.012 1.007 1.386 2.597 1.386 5.253 0 3.523-.405 4.736-1.415 5.8-.694.727-1.761 1.13-3.551 1.13h-6.178c-1.849 0-3.119-.317-3.811-.982-.925-.951-1.33-2.281-1.33-5.515l4.532-.029c.03 1.647.262 2.28.494 2.482.23.257.633.348 1.558.348h3.149c.776 0 1.155-.116 1.383-.317.26-.26.491-.866.491-2.658 0-1.79-.23-2.368-.49-2.628-.229-.201-.577-.317-1.384-.317h-2.025c-1.356 0-2.191.29-3.434 1.07l-3.925-1.156zM42.49 30.495c2.226 0 3.293.26 4.158 1.065 1.184 1.072 2.165 3.176 2.165 9.04 0 5.832-.981 7.937-2.165 9.034-.865.78-1.932 1.071-4.158 1.071h-4.704c-2.224 0-3.264-.291-4.13-1.071-1.213-1.097-2.164-3.202-2.164-9.034 0-5.864.951-7.968 2.163-9.04.867-.805 1.907-1.065 4.131-1.065h4.704zm-3.666 3.723c-1.068 0-1.414.114-1.644.317-.319.292-.781 1.07-.781 6.065s.462 5.772.78 6.034c.231.228.577.317 1.645.317h2.63c1.097 0 1.413-.089 1.674-.317.318-.262.778-1.04.778-6.034s-.46-5.773-.778-6.065c-.261-.203-.577-.317-1.674-.317h-2.63zm21.828-3.723c2.225 0 3.293.26 4.157 1.065 1.186 1.072 2.165 3.176 2.165 9.04 0 5.832-.979 7.937-2.165 9.034-.864.78-1.932 1.071-4.157 1.071h-4.703c-2.226 0-3.265-.291-4.132-1.071-1.21-1.097-2.165-3.202-2.165-9.034 0-5.864.956-7.968 2.165-9.04.867-.805 1.906-1.065 4.132-1.065h4.703zm-3.665 3.723c-1.069 0-1.415.114-1.646.317-.318.292-.778 1.07-.778 6.065s.46 5.772.778 6.034c.23.228.577.317 1.646.317h2.628c1.095 0 1.416-.089 1.67-.317.322-.262.783-1.04.783-6.034s-.46-5.773-.783-6.065c-.254-.203-.575-.317-1.67-.317h-2.628z"/>
</svg>
