<svg xmlns="http://www.w3.org/2000/svg" width="58" height="90" viewBox="0 0 58 90">
  <path d="M28.8 14.2l-8 23.9h16.101L28.9 14.2h-.1zM.9 78c-.5 0-.9.4-.9.9v10.199c0 .5.4.901.9.901h56.001c.5 0 .899-.401.899-.901V78.9c0-.5-.399-.9-.899-.9H.9zm28-78C35 0 37 4.4 38.6 8.8c.7 1.9 16.6 45.4 17.1 46.799.1.401 0 1-.5 1.201-.6.2-8.799 3.4-9.299 3.6-.5.199-1-.1-1.101-.5-.2-.5-3.6-10-4-11H17.2c-.4 1.1-3.9 10.6-4 11-.2.4-.7.699-1.1.5-.5-.2-8.8-3.4-9.3-3.6-.6-.3-.8-.8-.7-1.3.6-1.6 16.3-44.5 17.1-46.7C20.8 4.5 22.8 0 28.9 0z"/>
</svg>
