<svg xmlns="http://www.w3.org/2000/svg" width="172" height="19" viewBox="0 0 172 19">
  <path d="M25.143 18.075h4.801V0h-4.801v18.075zm-13.094-7.157h3.218l-3.081-6.932-.137.317-3.261 6.615h3.261zm0-10.918h3.444l8.834 18.075h-5.799l-1.585-3.67H7.112l-1.676 3.67H0L9.377 0h2.672zm37.375 5.39c.635-.181 1.269-.226 1.994-.226 1.993 0 3.534.589 4.711 1.766 1.133 1.133 1.722 2.719 1.722 4.757 0 2.084-.544 3.715-1.677 4.893-1.132 1.178-2.672 1.766-4.665 1.766-.725 0-1.405-.09-2.085-.271a6.182 6.182 0 0 1-1.041-.408c-.907-.452-1.722-1.087-2.356-1.948v.363c0 .362-.046.679-.046.996-.045.317-.09.68-.135.997h-4.848a9.102 9.102 0 0 0 .136-1.495c.045-.498.091-.951.091-1.359V0h4.802v7.293c.725-.725 1.54-1.268 2.401-1.585.317-.137.679-.272.996-.318zm3.489 6.026c0-1.133-.272-2.039-.906-2.719-.634-.68-1.45-.996-2.492-.996h-.091c-1.087 0-1.948.316-2.536.996-.635.635-.907 1.632-.907 2.9 0 1.223.272 2.174.907 2.854.588.68 1.449.996 2.536.996 1.133 0 1.994-.362 2.583-1.042.634-.725.906-1.721.906-2.989zm14.497 4.213c.86-.091 1.54-.317 1.993-.771.589-.453.86-1.178.86-2.128v-.272h-.362c-.951 0-1.812 0-2.491.09a6.509 6.509 0 0 0-1.677.317c-.77.272-1.177.725-1.177 1.359 0 .453.226.816.589 1.042.407.227.996.363 1.812.363h.453zm2.989.588c-.543.68-1.268 1.224-2.31 1.586a2.4 2.4 0 0 1-.679.227c-.816.226-1.812.316-2.854.316-1.586 0-2.854-.316-3.715-.996-.861-.635-1.314-1.585-1.314-2.808 0-.771.181-1.451.544-2.039.317-.589.815-1.087 1.45-1.496.498-.316 1.177-.543 2.083-.678a36.064 36.064 0 0 1 3.806-.182h2.853c0-.046 0-.136.046-.182v-.18c0-.68-.226-1.178-.589-1.541-.408-.362-.996-.543-1.766-.543h-.544c-.589.045-1.088.181-1.405.362-.453.227-.679.634-.77 1.133h-4.893c.181-1.359.861-2.356 2.13-3.035 1.132-.59 2.763-.907 4.938-.952.226-.045.407-.045.589-.045 2.4 0 4.122.407 5.254 1.177 1.133.816 1.677 1.994 1.677 3.67v6.388c0 .362.045.679.045.906.046.272.136.543.227.77h-4.486c-.135-.227-.18-.498-.226-.77-.045-.272-.091-.544-.091-.861v-.227zM86.481 5.39c.59-.181 1.269-.226 1.949-.226 1.993 0 3.579.589 4.712 1.766 1.177 1.133 1.766 2.719 1.766 4.757 0 2.084-.589 3.715-1.676 4.893-1.132 1.178-2.718 1.766-4.711 1.766-.725 0-1.405-.09-2.04-.271a4.177 4.177 0 0 1-1.041-.408c-.952-.452-1.722-1.087-2.401-1.948v.363c0 .362 0 .679-.045.996 0 .317-.046.68-.091.997h-4.847c.045-.543.091-1.042.136-1.495.044-.498.044-.951.044-1.359V0h4.803v7.293c.725-.725 1.54-1.268 2.446-1.585.318-.137.634-.272.996-.318zm3.489 6.026c0-1.133-.317-2.039-.95-2.719-.635-.68-1.451-.996-2.493-.996h-.046c-1.131 0-1.993.316-2.581.996-.589.635-.906 1.632-.906 2.9 0 1.223.317 2.174.906 2.854.633.68 1.45.996 2.537.996h.044c1.088 0 1.949-.362 2.539-1.042.633-.725.95-1.721.95-2.989zm14.497 4.213c.815-.091 1.495-.317 1.993-.771.544-.453.861-1.178.861-2.128v-.272h-.408c-.951 0-1.766 0-2.446.09a6.92 6.92 0 0 0-1.722.317c-.769.272-1.133.725-1.133 1.359 0 .453.182.816.59 1.042.407.227.996.363 1.812.363h.453zm2.945.588c-.499.68-1.268 1.224-2.265 1.586a4.05 4.05 0 0 1-.68.227c-.861.226-1.812.316-2.9.316-1.585 0-2.807-.316-3.669-.996-.906-.635-1.313-1.585-1.313-2.808 0-.771.181-1.451.498-2.039.316-.589.815-1.087 1.449-1.496.498-.316 1.224-.543 2.13-.678.815-.092 2.083-.182 3.805-.182h2.854v-.362c0-.68-.181-1.178-.589-1.541-.408-.362-.997-.543-1.766-.543h-.499c-.634.045-1.087.181-1.449.362-.409.227-.68.634-.771 1.133h-4.848c.136-1.359.862-2.356 2.084-3.035 1.133-.59 2.809-.907 4.984-.952.181-.045.362-.045.589-.045 2.356 0 4.123.407 5.21 1.177 1.132.816 1.721 1.994 1.721 3.67v6.388c0 .362 0 .679.045.906.046.272.091.543.182.77h-4.485a3.85 3.85 0 0 1-.226-.77 4.954 4.954 0 0 1-.091-.861v-.227zm61.339-13.5V0h.544l.68 1.947c.045.182.089.317.135.408 0-.091.045-.272.136-.453L170.881 0h.498v2.717h-.362V.453l-.771 2.264h-.362l-.771-2.31v2.31h-.362zm-1.585 0v-2.4h-.906V0h2.174v.317h-.906v2.4h-.362zm-16.265 15.358V5.481h1.904v1.767a4.544 4.544 0 0 1 1.586-1.495 4.535 4.535 0 0 1 2.264-.589c.907 0 1.677.226 2.265.589.59.408 1.043.952 1.269 1.63.997-1.449 2.311-2.219 3.896-2.219 1.224 0 2.22.362 2.854 1.042.679.724 1.042 1.766 1.042 3.216v8.653h-2.129v-7.928c0-.861-.09-1.495-.227-1.857a1.762 1.762 0 0 0-.725-.907 2.478 2.478 0 0 0-1.313-.362 2.98 2.98 0 0 0-2.175.906c-.589.589-.905 1.54-.905 2.809v7.339h-2.13v-8.2c0-.952-.182-1.676-.498-2.129-.362-.453-.951-.725-1.722-.725-.589 0-1.133.182-1.676.499-.499.317-.861.77-1.087 1.359-.227.634-.363 1.495-.363 2.672v6.524h-2.13zM132.6 16.444c-.68.589-2.084 1.948-4.711 1.948-3.444 0-6.75-2.718-6.75-6.795 0-4.032 3.306-6.751 6.75-6.751 2.491 0 4.031 1.36 4.711 1.949-.408.544-.77 1.675-.952 2.174-1.268-1.721-2.808-1.993-3.759-1.993-2.537 0-4.621 2.129-4.621 4.621 0 2.536 2.084 4.665 4.621 4.665 1.404 0 2.763-.633 3.805-1.993.316 1.133.679 1.767.906 2.175zm-16.173 1.631h2.129v-1.948h-2.129v1.948zm24.689.317c3.715 0 6.751-3.035 6.751-6.795 0-3.715-3.036-6.751-6.751-6.751-3.76 0-6.795 3.036-6.795 6.751a6.786 6.786 0 0 0 6.795 6.795zm0-11.416c2.538 0 4.621 2.084 4.621 4.621a4.61 4.61 0 0 1-4.621 4.62 4.582 4.582 0 0 1-4.62-4.62 4.61 4.61 0 0 1 4.62-4.621zM33.161 18.075h4.802V5.481h-4.802v12.594zm-.227-14.542h5.165V0h-5.165v3.533z"/>
</svg>
