<svg xmlns="http://www.w3.org/2000/svg" viewBox="0 0 595.28 561.88"><defs><linearGradient id="linear-gradient" x1="162.28" y1="301.86" x2="180.98" y2="316.68" gradientUnits="userSpaceOnUse"><stop offset="0" stop-color="#3a3c3b"/><stop offset="1" stop-color="#757575"/></linearGradient><style>.cls-1{fill:#757575}.cls-2{fill:#6a6a6a}.cls-3{fill:#fff}</style></defs><path class="cls-1" d="M297.36 29.13l-220.11 73V296c0 203.76 220.11 245.13 220.11 245.13h.24V29.21z"/><path class="cls-2" d="M517.75 296V102.12L297.6 29.21v511.92S517.75 499.76 517.75 296z"/><path class="cls-3" d="M297.5 521.21l-.8-.18c-12.56-3-56.9-14.84-100-43.18-29.28-19.27-52.52-42.4-69.07-68.72-20.47-32.65-30.88-70.71-30.88-113.13V116.2l200.62-66.52 200.88 66.52V296c0 42.42-10.41 80.48-30.92 113.13-16.55 26.33-39.79 49.45-69.07 68.72-43.06 28.34-87.39 40.21-99.95 43.18zm-193.75-400V296c0 41.08 10 77.89 29.85 109.4 16 25.48 38.55 47.88 67 66.6 41.23 27.13 83.64 38.83 96.91 42 13.27-3.19 55.68-14.89 96.91-42 28.44-18.72 51-41.12 67-66.6 19.81-31.51 29.85-68.32 29.85-109.4V121.26l-193.9-64.21z"/><path class="cls-3" d="M60.98 249.89l19.16 54.58-19.16 54.58h236.66V249.89H60.98z"/><path fill="#efefef" d="M516.87 304.47l19.17-54.58h-238.4v109.16h238.4l-19.17-54.58z"/><path class="cls-3" d="M143.49 141.24q-3 0-4.68 3.48t-1.72 9.67q0 12.9 6.73 12.9a12.2 12.2 0 006.17-1.88v6.15a12.36 12.36 0 01-7 1.8 10.91 10.91 0 01-9.63-5q-3.36-5-3.37-14t3.47-14.09a11 11 0 019.64-5.05 13.55 13.55 0 013.89.56 15.4 15.4 0 014 2l-2.28 5.61a20.82 20.82 0 00-2.44-1.43 6.22 6.22 0 00-2.78-.72zm26.72 31.61h-16.73v-37.12h16.73v6h-9.82v8.83h9.11v6h-9.11v10.28h9.82zm10.55-14.44v14.44h-6.91v-37.12h9q5.75 0 8.47 2.72t2.73 8.3q0 7-4.75 9.83l7.14 16.27h-7.39l-5.87-14.44zm0-5.95h1.78a4.15 4.15 0 003.5-1.38 6.7 6.7 0 001.07-4.13 5.89 5.89 0 00-1.13-4 4.61 4.61 0 00-3.5-1.2h-1.72zm28.72 20.39h-6.88v-31h-7.11v-6.07h21.1v6.07h-7.11zm10.52 0v-37.12h6.5v37.12zm19.46 0h-6.85v-37.12h16.63v6h-9.78V152h9.12v6h-9.12zm13.9 0v-37.12h6.5v37.12zm29.31 0h-16.73v-37.12h16.73v6h-9.82v8.83H282v6h-9.11v10.28h9.82zm27.26-18.91q0 9.18-3.75 14.05t-10.78 4.86h-9.09v-37.12h9.93a11.89 11.89 0 0110.08 4.79q3.6 4.79 3.61 13.42zm-7.09.2q0-12.44-6.85-12.44h-2.77v25.11h2.23a6 6 0 005.59-3.16q1.8-3.17 1.8-9.51zm35.06 18.71l-7.06-31.61h-.28a51.82 51.82 0 01.48 6.7v24.91h-6.39v-37.12h10.61l6.35 29.18h.2l6.3-29.18h10.76v37.12h-6.55v-25.16a58.7 58.7 0 01.36-6.4h-.21l-7 31.56zm51.3-18.61q0 9.22-3.45 14.17a12.36 12.36 0 01-19.78 0q-3.47-4.93-3.46-14.23t3.49-14.12a11.42 11.42 0 019.95-4.91 11.24 11.24 0 019.85 4.94q3.41 4.91 3.4 14.15zm-19.63 0q0 6.34 1.6 9.68c1.07 2.21 2.63 3.32 4.7 3.32q6.24 0 6.24-13t-6.19-13c-2.1 0-3.68 1.11-4.75 3.31s-1.6 5.45-1.6 9.69zm23.27-18.51h9.47q5.79 0 8.43 2.25t2.64 7.15a9.78 9.78 0 01-1.4 5.39 5.61 5.61 0 01-3.81 2.63v.25a7.23 7.23 0 014.55 2.95 10.44 10.44 0 011.4 5.74c0 3.37-.91 6-2.71 7.91a9.71 9.71 0 01-7.4 2.85h-11.17zm6.5 14.93h3.17a3.61 3.61 0 003.07-1.17 5.61 5.61 0 00.89-3.48 4.55 4.55 0 00-1-3.31 4.42 4.42 0 00-3.2-1h-2.92zm0 5.77v10.38h3.48a3.85 3.85 0 003.21-1.32 6.53 6.53 0 001.05-4.09c0-3.32-1.45-5-4.36-5zm19.33 16.42v-37.12h6.5v37.12zm12.58 0v-37.12h6.9v31.08h9.58v6zm35.86 0h-16.73v-37.12h16.73v6h-9.83v8.83h9.12v6h-9.12v10.28h9.83zm-288.97 51l-2.14-9.37h-9.67l-2.14 9.37h-6.9l9.19-37.27h9.37l9.21 37.27zm-3.42-15.49l-2-8.63c-.11-.52-.38-1.84-.79-3.95s-.67-3.51-.75-4.22c-.22 1.45-.5 3.06-.84 4.81s-1.22 5.75-2.64 12zm32.1-10.2q0 5.91-3 9.07c-2 2.11-4.87 3.17-8.62 3.17h-1.73v13.45h-6.91v-37.12H196q10.82 0 10.82 11.43zm-13.33 6.24h1.32a4.81 4.81 0 003.78-1.39c.83-.93 1.25-2.46 1.25-4.57a6.75 6.75 0 00-1.15-4.33 4.26 4.26 0 00-3.53-1.41h-1.67zm36.51-6.24q0 5.91-3 9.07t-8.63 3.17h-1.72v13.45h-6.91v-37.12h9.42q10.84 0 10.84 11.43zm-13.33 6.24H218a4.81 4.81 0 003.78-1.39c.83-.93 1.25-2.46 1.25-4.57a6.75 6.75 0 00-1.15-4.33 4.27 4.27 0 00-3.53-1.41h-1.67zm50.89.54q0 9.18-3.75 14.05T253 223.85h-9.09v-37.12h9.93a11.89 11.89 0 0110.16 4.79q3.55 4.79 3.56 13.42zm-7.09.2q0-12.44-6.85-12.44h-2.77v25.11h2.23a6 6 0 005.59-3.16q1.8-3.16 1.8-9.51zm27.46 18.71H271.2v-37.12h16.73v6h-9.83v8.83h9.12v6h-9.12v10.28h9.83zm19.61-37.12h7l-8.74 37.12H297l-8.69-37.12h7l4.85 22.68a82.87 82.87 0 011.29 8.3c.36-3.07.81-5.83 1.35-8.3zm25.2 37.12H316v-37.12h16.74v6h-9.83v8.83H332v6h-9.11v10.28h9.83zm3.64 0v-37.12h6.9v31.08h9.57v6zm44.67-18.61q0 9.22-3.46 14.17a12.36 12.36 0 01-19.78 0q-3.45-4.93-3.45-14.23t3.45-14.13a11.45 11.45 0 0110-4.91 11.25 11.25 0 019.85 4.94q3.34 4.92 3.39 14.16zm-19.63 0q0 6.34 1.6 9.68c1.07 2.21 2.63 3.32 4.7 3.32q6.24 0 6.24-13t-6.19-13c-2.1 0-3.68 1.11-4.75 3.31s-1.6 5.45-1.6 9.69zm43.5-7.08q0 5.91-3 9.07t-8.62 3.17h-1.73v13.45h-6.9v-37.12h9.42q10.83 0 10.83 11.43zm-13.33 6.24h1.32a4.82 4.82 0 003.79-1.4c.83-.93 1.24-2.46 1.24-4.57a6.81 6.81 0 00-1.14-4.33 4.27 4.27 0 00-3.53-1.41h-1.68zm32.97 19.45h-16.73v-37.12h16.73v6h-9.83v8.83h9.12v6h-9.12v10.28h9.83zm10.55-14.44v14.44h-6.91v-37.12h9c3.82 0 6.65.91 8.47 2.72s2.73 4.58 2.73 8.3q0 7-4.75 9.83l7.13 16.27h-7.38l-5.87-14.44zm0-5.95h1.77a4.16 4.16 0 003.51-1.38 6.71 6.71 0 001.06-4.13 5.84 5.84 0 00-1.13-4 4.57 4.57 0 00-3.49-1.2h-1.72zM234.42 404.9H239l-5.71 24.28h-5.75l-5.67-24.28h4.54l3.18 14.83q.42 1.89.84 5.43c.23-2 .53-3.81.88-5.43zm6.35 24.28V404.9H245v24.28zm19.28-6.69a7.28 7.28 0 01-1.72 5.21 6.51 6.51 0 01-5 1.81 10.88 10.88 0 01-5.39-1.25v-4.46a9.35 9.35 0 005 1.77 2.51 2.51 0 002-.71 2.79 2.79 0 00.65-1.94 3.54 3.54 0 00-.78-2.22 11.7 11.7 0 00-2.57-2.23 11.57 11.57 0 01-2.37-2.07 7.55 7.55 0 01-1.24-2.22 8.25 8.25 0 01-.44-2.85 6.93 6.93 0 011.73-4.95 6.12 6.12 0 014.66-1.82 10.17 10.17 0 015.36 1.56l-1.49 3.62a13.66 13.66 0 00-1.67-.83 4.69 4.69 0 00-1.87-.37 2 2 0 00-1.68.72 3 3 0 00-.59 2 3.4 3.4 0 00.7 2.14 10.44 10.44 0 002.47 2.08 10.25 10.25 0 013.31 3.25 7.63 7.63 0 01.93 3.76zm2.64 6.69V404.9h4.25v24.28zm15.68 0h-4.5v-20.31h-4.65v-4H283v4h-4.65zm26.56-16.81a8.34 8.34 0 01-1.95 5.94 7.38 7.38 0 01-5.64 2.07h-1.13v8.8h-4.51V404.9h6.16q7.06 0 7.07 7.47zm-8.72 4.09h.87a3.14 3.14 0 002.47-.91 5.85 5.85 0 00.07-5.82 2.79 2.79 0 00-2.31-.92h-1.1zm15.13 3.27v9.45h-4.51V404.9h5.91c2.5 0 4.35.6 5.53 1.78s1.79 3 1.79 5.43c0 3.07-1 5.21-3.1 6.42l4.66 10.65h-4.83l-3.79-9.45zm0-3.89h1.17a2.73 2.73 0 002.29-.9 4.4 4.4 0 00.69-2.7 3.85 3.85 0 00-.73-2.65 3 3 0 00-2.29-.78h-1.13zm28.03 1.16q0 6-2.25 9.26a8.09 8.09 0 01-12.94 0c-1.5-2.15-2.25-5.26-2.25-9.31s.75-7.09 2.25-9.23a7.47 7.47 0 016.51-3.22 7.36 7.36 0 016.44 3.23c1.5 2.17 2.24 5.27 2.24 9.27zm-12.83 0a15 15 0 001 6.32 3.31 3.31 0 003.07 2.18q4.08 0 4.08-8.5t-4.05-8.5a3.32 3.32 0 00-3.1 2.16 15 15 0 00-1 6.34zm19.7 12.18h-4.49V404.9h10.88v3.91h-6.39v6.74h6v3.9h-6zm9.08 0V404.9h4.25v24.28zm8.23 0V404.9h4.51v20.32h6.26v4zm23.45 0h-10.95V404.9H387v3.91h-6.42v5.77h6v3.92h-6v6.72H387z"/><path class="cls-3" d="M377.09 454.68h-157a38 38 0 010-76h157a38 38 0 110 76zm-157-73a35 35 0 000 70h157a35 35 0 100-70z"/><path class="cls-2" d="M177.51 272.71h-32.07a6.44 6.44 0 00-6.44 6.43v51.36a6.44 6.44 0 006.44 6.44h32.07a6.43 6.43 0 006.43-6.44v-51.36a6.43 6.43 0 00-6.43-6.43zm-16 61.17a2.12 2.12 0 112.12-2.12 2.11 2.11 0 01-2.16 2.12zm17.89-7.71a1.83 1.83 0 01-1.83 1.83h-32.15a1.83 1.83 0 01-1.83-1.83v-46.23a1.83 1.83 0 011.83-1.82h32.11a1.83 1.83 0 011.83 1.82z"/><path d="M169.63 291.68L188.71 319a3.76 3.76 0 01-4.73 5.53l-34.63-16.89z" fill="url(#linear-gradient)"/><path class="cls-1" d="M158.7 284l-24.47 35a3.76 3.76 0 004.73 5.53l40.4-19.7-15.05-20.88a3.43 3.43 0 00-5.61.05z"/><path class="cls-2" d="M277.64 336.61c-2.2-1.07-2.6-2.9-2.59-5.19.08-13.65 0-27.31 0-41 0-2.46 1.41-3.87 3.71-3.75a2.67 2.67 0 012.55 1.54c.36.81.66.71 1.33.35a15.19 15.19 0 0119.87 4.44 13 13 0 012.6 7.83v7.75A14.67 14.67 0 01291 322.71a15.46 15.46 0 01-8.23-1.85c-.94-.54-.87 0-.87.66 0 3.59-.1 7.18 0 10.77a4 4 0 01-2.94 4.32zM298.27 300a8.25 8.25 0 00-8-6.68 8.12 8.12 0 00-8.18 6.26c-.55 2.81-.2 5.67-.22 8.5a8 8 0 007.64 8 8.18 8.18 0 008.77-6.8 55.43 55.43 0 00-.01-9.28zm-54.39 36.61c-2.17-.9-2.7-2.54-2.69-4.81.09-13.74.05-27.48.05-41.21 0-2.1.75-3.28 2.38-3.75s2.83 0 4 1.79c.43.66.74.18 1.06 0a15.49 15.49 0 0111.84-1.38 14.72 14.72 0 0110.73 13.85c0 3.15.28 6.3-.2 9.44a14.77 14.77 0 01-14.15 12.17 15.31 15.31 0 01-8-1.8c-.87-.48-.93-.12-.92.61 0 3.42-.08 6.83 0 10.24.08 2.3-.59 4-2.84 4.85zm4.14-28.4a8 8 0 008.12 7.88 8.07 8.07 0 008.34-7.85v-6.95a8.24 8.24 0 00-16.47.1c-.01 1.09-.01 5.61-.01 6.82zm-11.31 10.73a3.42 3.42 0 01-3.66 3.72 2.81 2.81 0 01-2.67-1.6c-.34-.73-.61-.68-1.24-.34a15.16 15.16 0 01-21.23-6.64 11.31 11.31 0 01-1.25-5.18c.1-3.58-.41-7.19.29-10.73a14.67 14.67 0 0113.89-11.52 15.43 15.43 0 018.34 1.93c.58.34.88.31 1.19-.35.72-1.55 2.12-1.72 3.58-1.51a3 3 0 012.6 2.45 7.4 7.4 0 01.17 1.69c.01 4.64.02 23.35-.01 28.08zm-6.82-18.08a8.16 8.16 0 00-7.55-7.58c-4.34-.3-8.22 2.58-8.82 6.56a41 41 0 00-.14 8.51 7.89 7.89 0 007.46 7.59c4.6.21 8.21-2.36 8.92-6.57a81.89 81.89 0 00.13-8.51z"/><path class="cls-1" d="M465.74 319.13a3.42 3.42 0 01-4.81 3.28c-.46-.18-1-.39-1.14-.84-.48-1.43-1.2-1-2.19-.51-8.79 4.43-19.6-.46-21.51-9.93a33 33 0 01.08-13.42c1.31-6.11 7.19-10.77 13.46-11a15.61 15.61 0 018.73 2c.52.31.74.3 1.07-.3a3.2 3.2 0 013.93-1.57 3.28 3.28 0 012.38 3.25v.26c0 4.72.02 23.97 0 28.78zM442.49 308a8.06 8.06 0 007.59 8.06 8.15 8.15 0 008.8-6.77 36.14 36.14 0 00.11-8.38c-.37-4.73-4.08-7.81-8.85-7.6a8 8 0 00-7.65 8.39zM358 318.94a3.44 3.44 0 01-4.42 3.6 2.35 2.35 0 01-1.81-1.39c-.34-1-.8-.69-1.44-.35a15.19 15.19 0 01-19.58-4.18 14.71 14.71 0 01-2.87-9.22v-16.68c0-2.65 1.24-4.05 3.43-4.05a3.16 3.16 0 013.35 3.39v17.73a8 8 0 005.79 7.88 8.42 8.42 0 009.49-3.38 8.06 8.06 0 001.29-4.6v-17.33c0-2.3 1.27-3.69 3.34-3.69s3.41 1.39 3.42 3.64c.01 4.77.01 23.85.01 28.63zm54.64-.16c0 2.47-1.43 3.94-3.64 3.87a2.74 2.74 0 01-2.68-1.57c-.39-.89-.72-.63-1.34-.3a14.77 14.77 0 01-13.8.52c-5.42-2.57-8.53-6.92-8.59-13.07v-18c0-2.28 1.27-3.6 3.42-3.57s3.25 1.36 3.25 3.62v17.47a8.18 8.18 0 006.15 8 8.48 8.48 0 009.47-4 7.52 7.52 0 00.95-3.77v-17.47c0-2.41 1.23-3.83 3.33-3.84s3.47 1.43 3.48 3.88c.02 4.72.02 23.55 0 28.23zm-50.82-41.98c0-2.35 1.3-3.77 3.42-3.76s3.35 1.48 3.36 3.72v9.46c0 .81.24 1.06 1.05 1 1.45-.07 2.9 0 4.35 0a3.29 3.29 0 013.36 3.17 3.32 3.32 0 01-3.26 3.41c-1.5.06-3 .05-4.49 0-.71 0-1 .17-1 .95v13.78a7.9 7.9 0 007 7.36c.57 0 1.14.08 1.7.18a3.32 3.32 0 012.85 3.39 3.38 3.38 0 01-3.27 3.17c-6.9.38-13.74-5.15-14.87-12-.33-2.06-.2-28.53-.2-33.83zM309 287.38A14.71 14.71 0 01324.08 273a3.31 3.31 0 010 6.61c-4.16.25-7.2 2.53-8.1 6.07-.35 1.37-.27 1.47 1.18 1.47h3.95a3.31 3.31 0 01.11 6.61 37 37 0 01-4.08 0c-1.09-.07-1.42.25-1.42 1.37.05 7.88 0 15.75 0 23.62 0 2.25-1.09 3.63-3 3.84a3.29 3.29 0 01-3.79-3.37c.07-5.42.07-26.68.07-31.84zm108.17 3.16c0-2 .72-3.18 2.29-3.7s3 0 4.09 1.73c.44.7.73.32 1.12.1a14.22 14.22 0 017.29-1.92 3.39 3.39 0 013.53 3.16 3.18 3.18 0 01-3.08 3.41 8.89 8.89 0 00-6.44 2.79 8 8 0 00-2.05 5.64v17.19c0 2.59-2 4.23-4.26 3.61a3.22 3.22 0 01-2.49-3.41z"/><path fill="none" d="M82.31 304.47L64.2 356.05h233.3V252.89H64.2l18.11 51.58z"/><path class="cls-1" d="M64.2 356.05l18.11-51.58-18.11-51.58h233.3v-6H55.74l20.21 57.58-20.21 57.58H297.5v-6H64.2z"/><path class="cls-2" d="M519.04 304.47l20.22-57.58H297.5v6h233.3l-18.11 51.58 18.11 51.58H297.5v6h241.76l-20.22-57.58z"/></svg>