<svg xmlns="http://www.w3.org/2000/svg" width="140" height="33" viewBox="0 0 140 33">
  <path d="M88.816 25.405V0h3.375v25.405h-3.375zM28.357 8.027a8.765 8.765 0 1 1-4.148 16.484v-4.284a5.42 5.42 0 1 0-1.229-3.435h-.016v16.18h-3.375v-16.18h.006a8.764 8.764 0 0 1 8.762-8.765zm19.021 0a8.764 8.764 0 1 1-4.15 16.484v-4.284A5.42 5.42 0 1 0 42 16.792h-.017v16.18H38.61v-16.18h.006a8.763 8.763 0 0 1 8.763-8.765zM8.764 0a8.765 8.765 0 0 1 8.765 8.765v16.64h-3.376V14.044H5.482V10.67h8.67V8.765h-.004a5.383 5.383 0 1 0-10.768 0h-.005v16.64H0V8.765A8.764 8.764 0 0 1 8.764 0zm68.783 8.765v2.25h9.327v3.375h-9.327v11.015h-3.375V8.765A8.765 8.765 0 0 1 82.935 0h4.25v3.376h-4.249v.002a5.388 5.388 0 0 0-5.389 5.387zm28.772-.628h3.374v10.62h-.003c-.04 3.412-2.422 6.256-5.612 7.012v7.203h-3.375V25.77a7.3 7.3 0 0 1-5.612-7.012h-.005V8.137h3.374v10.61h.004a3.927 3.927 0 0 0 7.853 0h.002V8.136zm18.973 9.982h3.443a8.737 8.737 0 0 1-4.278 6.264 8.763 8.763 0 0 1-11.97-3.209 8.765 8.765 0 1 1 15.88-7.221l-7.092 4.095-3.508 2.026-1.688-2.924 7.58-4.376a5.383 5.383 0 0 0-6.277-.647 5.388 5.388 0 0 0-1.972 7.36 5.385 5.385 0 0 0 9.882-1.368zm14.024-10.092H140v3.375h-.684v.002a5.387 5.387 0 0 0-5.386 5.387v8.614h-3.377V8.107h3.377v1.775a8.711 8.711 0 0 1 5.386-1.855zm-70.367 9.355a4.206 4.206 0 0 1-1.778 8.02v.003h-9.814v-3.373h9.814v-.004a.83.83 0 0 0 .354-1.583l-.003-.002v-.002l-8.395-3.916a4.206 4.206 0 1 1 1.796-8.011v-.005h9.578v3.375h-9.578v.007a.828.828 0 0 0-.366 1.573l-.003.003 8.395 3.915z"/>
</svg>
