<!DOCTYPE svg PUBLIC "-//W3C//DTD SVG 20010904//EN" "http://www.w3.org/TR/2001/REC-SVG-20010904/DTD/svg10.dtd">
<svg version="1.0" xmlns="http://www.w3.org/2000/svg" width="240px" height="240px" viewBox="0 0 2400 2400" preserveAspectRatio="xMidYMid meet">
<g id="layer101" fill="#000000" stroke="none">
 <path d="M924 2380 c-50 -10 -111 -27 -135 -37 -24 -11 -60 -26 -79 -33 -170 -65 -391 -251 -527 -446 -25 -36 -103 -187 -103 -200 0 -5 -7 -21 -14 -36 -8 -15 -25 -67 -38 -115 -21 -80 -23 -109 -23 -313 0 -229 10 -304 49 -394 8 -17 19 -47 26 -66 18 -48 91 -184 102 -188 4 -2 8 -9 8 -16 0 -38 248 -293 325 -333 17 -9 32 -19 35 -23 7 -10 149 -85 190 -100 19 -7 49 -19 67 -26 82 -36 185 -49 393 -49 211 0 321 14 393 50 17 8 35 15 40 15 19 0 217 101 217 110 0 6 6 10 13 10 26 0 197 152 269 240 85 102 148 207 195 327 61 154 68 195 68 443 0 205 -2 233 -24 315 -13 50 -27 95 -31 100 -4 6 -11 21 -15 35 -10 34 -82 176 -108 214 -136 195 -357 381 -527 446 -19 7 -55 22 -79 32 -131 58 -489 78 -687 38z m409 -39 c23 -5 80 -17 127 -26 194 -39 391 -148 548 -305 69 -69 172 -197 172 -214 0 -4 10 -23 23 -44 43 -70 94 -207 111 -297 10 -49 22 -109 27 -132 12 -55 12 -189 -1 -250 -40 -195 -53 -247 -82 -313 -65 -147 -134 -249 -241 -359 -108 -110 -240 -202 -362 -250 -33 -14 -64 -27 -70 -31 -26 -18 -308 -70 -379 -70 -78 0 -365 51 -391 70 -5 3 -37 17 -70 31 -122 48 -255 140 -362 250 -66 68 -163 190 -163 205 0 4 -10 23 -22 43 -60 96 -91 190 -137 419 -13 65 -14 198 -2 255 5 23 17 83 27 132 56 295 263 576 544 741 87 51 212 99 310 118 47 10 101 21 120 26 49 11 223 12 273 1z"/>
 <path d="M1040 2314 c-64 -11 -135 -27 -150 -34 -8 -4 -47 -18 -87 -30 -40 -13 -74 -26 -75 -29 -2 -3 -25 -17 -53 -29 -118 -56 -277 -191 -373 -317 -55 -72 -134 -221 -157 -296 -9 -30 -21 -63 -25 -74 -26 -62 -35 -141 -35 -305 1 -176 2 -186 48 -347 40 -138 135 -297 256 -427 51 -53 162 -145 201 -166 14 -7 27 -16 30 -20 11 -15 180 -89 260 -114 114 -34 194 -46 320 -46 126 0 206 12 320 46 80 25 249 99 260 114 3 4 16 13 30 20 91 48 283 240 330 330 7 14 16 27 21 30 13 9 90 178 106 233 46 162 47 171 48 347 0 164 -9 243 -35 305 -4 11 -16 44 -25 74 -23 75 -102 224 -157 296 -96 126 -255 261 -373 317 -28 12 -51 26 -53 29 -1 3 -35 16 -75 29 -40 13 -81 27 -92 31 -59 24 -116 31 -270 34 -93 2 -181 2 -195 -1z m282 -428 c52 -9 115 -27 153 -45 36 -17 70 -31 75 -31 6 0 10 -3 10 -8 0 -4 16 -16 35 -26 20 -11 68 -54 108 -96 56 -58 84 -98 119 -170 55 -113 71 -183 71 -305 0 -204 -62 -356 -202 -496 -62 -62 -165 -132 -220 -150 -20 -6 -40 -15 -46 -19 -48 -38 -402 -38 -450 0 -5 4 -26 13 -46 19 -55 18 -158 88 -220 150 -112 112 -172 231 -195 385 -33 221 31 428 183 586 40 42 88 85 108 96 19 10 35 22 35 26 0 5 4 8 10 8 5 0 40 14 76 31 65 31 179 56 264 58 25 0 84 -5 132 -13z m664 -1133 c63 -31 117 -60 119 -63 3 -4 -2 -13 -10 -20 -12 -10 -28 -7 -88 20 -98 44 -97 44 -97 30 0 -11 57 -100 70 -110 4 -3 12 -14 18 -26 15 -28 -18 -68 -46 -56 -9 5 -35 16 -57 26 -61 28 -95 36 -95 24 0 -6 23 -43 51 -81 47 -65 49 -71 34 -86 -15 -15 -18 -14 -33 5 -9 12 -48 60 -85 108 l-68 86 22 29 c20 27 24 28 43 16 33 -20 146 -59 153 -52 3 4 -17 41 -45 83 l-51 75 21 25 c12 13 23 24 26 24 2 0 55 -25 118 -57z m-1376 -53 c104 -123 108 -169 14 -179 -40 -5 -48 -9 -49 -28 -2 -30 -33 -63 -58 -63 -19 0 -79 56 -141 130 -16 19 -36 43 -44 52 -13 16 -12 20 14 42 16 13 61 51 99 84 39 34 74 60 78 59 4 -1 44 -45 87 -97z m480 -365 c0 -59 4 -95 10 -95 6 0 13 8 16 18 3 9 18 51 34 92 24 64 32 75 54 78 15 2 28 -2 31 -10 2 -7 10 -26 16 -43 7 -16 20 -52 29 -80 9 -30 22 -50 30 -50 12 0 16 19 18 93 2 73 6 92 17 92 12 0 15 -23 15 -135 l0 -135 -35 0 c-20 0 -35 5 -35 12 0 6 -8 30 -19 52 -10 23 -26 62 -35 89 -17 45 -42 62 -51 35 -2 -7 -18 -52 -36 -100 -31 -87 -32 -88 -65 -88 l-34 0 0 135 c0 128 1 135 20 135 19 0 20 -7 20 -95z"/>
 <path d="M1198 1874 c-5 -4 -8 -153 -8 -331 l0 -323 -324 0 c-370 0 -352 4 -341 -82 37 -289 230 -516 500 -587 44 -12 103 -22 130 -24 l50 -2 3 332 2 333 333 2 332 3 -3 58 c-5 114 -54 246 -128 348 -61 84 -189 188 -271 220 -94 37 -260 69 -275 53z"/>
 <path d="M498 715 c-16 -13 -28 -28 -28 -33 0 -14 92 -117 112 -124 31 -12 58 8 58 43 0 22 -13 46 -47 85 -26 30 -52 54 -57 54 -6 0 -23 -12 -38 -25z"/>
 <path d="M408 639 c-16 -11 -28 -25 -28 -31 0 -5 21 -34 46 -64 36 -42 53 -54 75 -54 43 0 59 39 32 74 -41 52 -83 96 -90 96 -4 0 -20 -10 -35 -21z"/>
 </g>

</svg>