<svg xmlns="http://www.w3.org/2000/svg" width="79" height="78" viewBox="0 0 79 78">
  <path d="M58.317 58.399c-2.636.01-4.608-1.968-4.61-4.626-.004-2.46 2.046-4.417 4.617-4.41 2.535.006 4.535 1.995 4.531 4.506-.003 2.497-2.03 4.52-4.538 4.53zm.17-22.062c-2.81-.076-5.192-2.612-5.103-5.432.091-2.896 2.574-5.331 5.395-5.292 2.944.04 5.29 2.502 5.228 5.484-.064 3.074-2.435 5.324-5.52 5.24zM39.678.197c21.539 0 39 17.461 39 39 0 20.07-15.162 36.597-34.656 38.758v-.005-.01l.037-.021c-.166-3.525-.356-7.048-.465-10.574-.012-.387.343-.94.69-1.158 2.99-1.882 6.01-3.718 9.047-5.523.298-.177.86-.209 1.156-.047 5.619 3.065 11.973-1.285 11.755-7.144-.166-4.484-4.61-8.237-9.043-7.522-4.098.66-6.908 4.354-6.625 7.864.068.841-.204 1.36-.964 1.799-1.868 1.075-3.676 2.256-5.512 3.388-.216.133-.46.22-.747.356-.16-4.695-.302-9.255-.48-13.813-.03-.755.247-1.19.888-1.57a468.456 468.456 0 0 0 8.336-5.074c.605-.376 1.077-.413 1.707-.04 2.52 1.493 5.213 1.737 7.94.725 3.203-1.189 5.192-3.54 5.89-6.88.706-3.373-.32-6.304-2.798-8.607-2.98-2.772-7.175-3.175-10.83-1.274-3.172 1.65-5.309 5.58-4.672 9.38.11.656-.076 1.042-.634 1.38-1.764 1.072-3.502 2.187-5.257 3.273-.215.133-.473.194-1.006.406 0-1.824.016-3.412-.004-5-.024-1.845-.017-3.694-.15-5.533-.054-.77.046-1.27.798-1.55.23-.087.432-.252.643-.386 3.215-2.057 4.67-6.403 3.282-9.903-1.543-3.888-5.047-6.031-9.262-5.423-3.535.51-6.12 3.166-6.893 6.804-.665 3.127.745 6.694 3.644 8.427 1.277.764 1.641 1.63 1.475 2.942-.02.155-.006.313-.01.47-.175 6.187-.345 12.374-.53 18.562-.033 1.105-.126 2.209-.193 3.344-.213-.047-.316-.045-.388-.09-2.246-1.421-4.496-2.835-6.716-4.294-.19-.125-.28-.576-.24-.85.918-6.464-4.709-11.964-10.65-11.269-4.022.47-7.344 3.183-8.474 7.296-1.036 3.767.54 8.068 3.793 10.35 3.466 2.434 7.65 2.463 11.239.044.436-.294.746-.426 1.242-.107 3.155 2.03 6.335 4.022 9.489 6.055.238.154.46.527.47.805a54.92 54.92 0 0 1-.003 3.66c-.163 5.412-.34 10.823-.513 16.234C15.4 75.312.678 58.975.678 39.197c0-21.539 17.461-39 39-39zm4.481 17.581c-.027 2.8-2.217 4.93-5.056 4.917-2.842-.012-5.085-2.25-5.052-5.04.032-2.73 2.35-5.054 5.026-5.04a5.125 5.125 0 0 1 5.082 5.163zm-31.682 25.76c-.172-3.61 2.818-6.05 5.555-6.048 3.408.001 5.922 2.351 5.956 5.63.035 3.388-2.338 5.848-5.675 5.884-3.21.036-5.69-2.386-5.836-5.467z"/>
</svg>
