<svg version="1" xmlns="http://www.w3.org/2000/svg" width="222" height="249" viewBox="0 0 2220 2490">
  <path d="M1028 2477c-7-7-24-18-38-25s-47-26-75-42c-27-16-69-38-91-49-23-10-43-23-45-28-2-4-22-17-44-28s-42-22-45-25c-5-5-31-20-105-60-51-27-130-74-135-80-3-3-23-14-45-25s-46-26-53-32c-7-7-17-13-22-13-4 0-37-18-71-40-35-22-85-50-111-62-27-12-48-25-48-30 0-4-6-8-14-8-7 0-25-12-40-26l-26-27v-569c0-516 2-570 16-564 9 3 19 6 24 6s15 6 22 13c7 6 31 21 53 32s42 22 45 25 23 14 45 25 42 23 45 26 39 24 80 46c87 47 153 85 160 93 3 3 23 14 45 25s42 22 45 26c3 3 19 13 35 21 29 15 61 33 170 94 28 15 52 30 55 34 3 3 24 14 47 25 24 11 43 23 43 28 0 4 7 7 14 7 8 0 26 11 40 24l26 23v838l37 20c41 23 56 21 95-7l28-19v-939l-27-17c-16-10-30-20-33-23s-25-15-50-28c-25-12-63-33-85-47-22-13-59-34-82-45-24-12-43-25-43-30 0-4-18-13-40-20-23-8-44-19-48-25s-22-17-40-25c-19-7-39-18-45-24-7-6-28-19-47-29s-52-28-72-40c-70-42-223-130-268-154-25-13-63-35-85-48s-58-33-80-44c-47-24-75-45-75-57 0-5 28-22 63-39 34-16 64-33 67-36s45-25 95-50c50-24 92-47 95-50s19-13 35-21c17-9 73-39 125-67s115-61 140-74c25-12 47-24 50-27s45-25 95-50c49-25 96-51 103-58 7-6 19-12 25-12 7 0 29-11 49-25 55-37 129-35 210 7 35 18 68 38 75 44 6 6 26 17 45 24 18 8 35 16 38 19s30 19 60 34c30 16 111 58 180 95 69 36 143 75 165 86s42 23 45 26 24 14 48 24c23 11 42 22 42 25 0 4 23 15 50 26 28 11 50 22 50 26 0 3 20 14 45 25 25 10 45 22 45 26s9 8 20 8 20 7 20 15-6 15-14 15-16 4-18 8c-1 5-43 31-91 58s-109 61-135 76-63 35-82 45-41 23-48 30c-7 6-28 17-47 24s-35 16-35 19c0 4-19 15-42 26-24 10-49 24-56 31s-17 13-22 13-15 6-22 12c-7 7-31 22-53 33-51 25-55 31-55 86 0 42 3 48 30 59 17 7 30 16 30 21 0 15 29 10 58-9 44-29 65-41 112-65 25-12 47-25 50-28s20-15 38-25c19-10 55-31 80-46 26-15 63-35 82-45s41-23 48-30c7-6 28-17 47-24s35-16 35-19c0-4 19-16 42-26 24-10 51-27 60-37 10-9 27-17 38-17 20 0 20 7 20 563 0 494-2 565-16 585-8 12-49 41-91 65-41 23-90 51-108 62-19 11-74 42-122 69s-90 53-93 57c-3 3-21 14-40 23-19 10-48 25-65 34-85 50-131 77-135 82-3 3-23 14-45 25s-42 23-45 26-23 14-45 25c-22 10-42 21-45 24s-25 17-50 31c-74 41-94 53-108 67-18 16-146 16-164-1z"/>
</svg>
