<svg xmlns="http://www.w3.org/2000/svg" viewBox="0 0 317.28 36.85"><defs><style>.cls-1{fill:#fff;}.cls-2{fill:#fe330a;}</style></defs><title>logoDZ</title><path class="cls-1" d="M22,25.68q0,5.44-2.84,8.16t-8,2.72H.7q-.7,0-.7-.64V1.11Q0,.47.7.47H11.17q5.26,0,8,2.75T22,11ZM17.08,10.47a5.31,5.31,0,0,0-1.73-4.42,7,7,0,0,0-4.47-1.37H5.44q-.53,0-.53.47V31.76c0,.35.16.53.47.53h5.91a5.66,5.66,0,0,0,4.36-1.55,6.09,6.09,0,0,0,1.43-4.3Z"/><path class="cls-1" d="M50.82,36.55h-19a1.09,1.09,0,0,1-.85-.29.94.94,0,0,1-.26-.64V33.75a3.63,3.63,0,0,1,.41-1.64l14-26.73c.27-.47.14-.7-.41-.7H32.28c-.47,0-.7-.21-.7-.64V1.11c0-.43.23-.64.7-.64h17.6a1.47,1.47,0,0,1,1,.26,1.07,1.07,0,0,1,.26.79v1.7a3.69,3.69,0,0,1-.26,1.29,8,8,0,0,1-.5,1.11l-13.51,26q-.41.7.35.7H50.82a.74.74,0,0,1,.5.17.59.59,0,0,1,.21.47v2.92A.62.62,0,0,1,50.82,36.55Z"/><path class="cls-1" d="M91.7,32.58a9.2,9.2,0,0,0,5.44-1.49,5.12,5.12,0,0,0,2.11-4.47,4.76,4.76,0,0,0-.61-2.49,5.81,5.81,0,0,0-1.58-1.72,10.48,10.48,0,0,0-2.16-1.2q-1.2-.5-2.37-.91-1.7-.58-3.57-1.35A15,15,0,0,1,85.53,17,9.91,9.91,0,0,1,83,14.12a8,8,0,0,1-1-4.18,10.18,10.18,0,0,1,.82-4.18A9.11,9.11,0,0,1,85,2.63a9.82,9.82,0,0,1,3.36-2A12.57,12.57,0,0,1,92.52,0a24.42,24.42,0,0,1,4.74.53,12.84,12.84,0,0,1,5.15,2.4q.53.41.35.73l-.29.56-1.4,2.22a.71.71,0,0,1-.7.35,1.8,1.8,0,0,1-.76-.29,18.48,18.48,0,0,0-3.51-1.67,9.84,9.84,0,0,0-5.47-.2,5.28,5.28,0,0,0-2,1,4.69,4.69,0,0,0-1.34,1.75,6.52,6.52,0,0,0-.5,2.72,3.49,3.49,0,0,0,.61,2A6.09,6.09,0,0,0,89,13.66a13.3,13.3,0,0,0,2.22,1.2q1.23.53,2.46,1,1.93.76,3.8,1.55a14,14,0,0,1,3.33,2,9.16,9.16,0,0,1,2.37,2.87,9.15,9.15,0,0,1,.91,4.33,9.87,9.87,0,0,1-.91,4.3,9.11,9.11,0,0,1-2.55,3.22,12.07,12.07,0,0,1-3.92,2,16.26,16.26,0,0,1-5,.73,16.83,16.83,0,0,1-6.23-1.14,9.65,9.65,0,0,1-4.47-3.36c-.35-.39-.27-.78.23-1.17l2.16-2q.35-.29.62-.15a3.56,3.56,0,0,1,.67.56,8.93,8.93,0,0,0,3.16,2.22A9.7,9.7,0,0,0,91.7,32.58Z"/><path class="cls-1" d="M129.72,22.22a3.35,3.35,0,0,0-.29,1.4V35.85a.62.62,0,0,1-.7.7h-3.51q-.7,0-.7-.64V23.51a2.6,2.6,0,0,0-.23-1.17l-9-20.88q-.41-1,.58-1h3.33a1.21,1.21,0,0,1,1.23.64l6.32,16q.29.47.53.06,1.58-4,3.16-8t3.1-8A1.5,1.5,0,0,1,134,.61a1.83,1.83,0,0,1,.88-.15h3.22q.64,0,.73.26a1,1,0,0,1-.09.67Z"/><path class="cls-1" d="M160,32.58a9.2,9.2,0,0,0,5.44-1.49,5.12,5.12,0,0,0,2.11-4.47,4.76,4.76,0,0,0-.61-2.49,5.81,5.81,0,0,0-1.58-1.72,10.48,10.48,0,0,0-2.16-1.2q-1.2-.5-2.37-.91-1.7-.58-3.57-1.35A15,15,0,0,1,153.85,17a9.91,9.91,0,0,1-2.57-2.89,8,8,0,0,1-1-4.18,10.18,10.18,0,0,1,.82-4.18,9.11,9.11,0,0,1,2.25-3.13,9.82,9.82,0,0,1,3.36-2A12.57,12.57,0,0,1,160.84,0a24.42,24.42,0,0,1,4.74.53,12.84,12.84,0,0,1,5.15,2.4q.53.41.35.73l-.29.56-1.4,2.22a.71.71,0,0,1-.7.35,1.8,1.8,0,0,1-.76-.29,18.48,18.48,0,0,0-3.51-1.67,9.84,9.84,0,0,0-5.47-.2,5.28,5.28,0,0,0-2,1,4.69,4.69,0,0,0-1.34,1.75,6.52,6.52,0,0,0-.5,2.72,3.49,3.49,0,0,0,.61,2,6.09,6.09,0,0,0,1.61,1.55,13.29,13.29,0,0,0,2.22,1.2q1.23.53,2.46,1,1.93.76,3.8,1.55a14,14,0,0,1,3.33,2,9.15,9.15,0,0,1,2.37,2.87,9.15,9.15,0,0,1,.91,4.33,9.87,9.87,0,0,1-.91,4.3A9.11,9.11,0,0,1,169,34.07a12.07,12.07,0,0,1-3.92,2,16.25,16.25,0,0,1-5,.73,16.83,16.83,0,0,1-6.23-1.14,9.65,9.65,0,0,1-4.47-3.36c-.35-.39-.27-.78.23-1.17l2.16-2q.35-.29.62-.15a3.56,3.56,0,0,1,.67.56,8.93,8.93,0,0,0,3.16,2.22A9.7,9.7,0,0,0,160,32.58Z"/><path class="cls-1" d="M205.4,4.68h-7.72q-.53,0-.53.47V35.85q0,.7-.64.7h-3.57c-.47,0-.7-.21-.7-.64V5.2c0-.35-.16-.53-.47-.53h-7.6q-.7,0-.7-.64V1.11q0-.64.7-.64H205.4q.7,0,.7.58V4Q206.1,4.68,205.4,4.68Z"/><path class="cls-1" d="M238.44,36.55H219.38q-.7,0-.7-.64V1.11q0-.64.7-.64h18.83q.76,0,.76.64V4a.62.62,0,0,1-.7.7H224.06a.41.41,0,0,0-.47.47v10c0,.31.14.47.41.47h11.76a.62.62,0,0,1,.7.7v2.92a.57.57,0,0,1-.64.64H224.06c-.31,0-.47.18-.47.53V31.76c0,.35.14.53.41.53h14.45q.7,0,.7.64v2.92A.62.62,0,0,1,238.44,36.55Z"/><path class="cls-1" d="M282.24,36.55h-3.37a.57.57,0,0,1-.65-.64V13.22a.14.14,0,0,0-.09-.15c-.06,0-.11,0-.14.09L275.53,20l-5.66,14.56-.35.5a.87.87,0,0,1-.76.32h-2.28a1.5,1.5,0,0,1-.73-.15,1.11,1.11,0,0,1-.44-.62L260,20.47l-2.51-7.14q-.18-.18-.18,0V35.85q0,.7-.65.7h-3.32c-.47,0-.71-.21-.71-.64V1.58q0-1.11,1.07-1.11H256a2,2,0,0,1,1,.15,2.58,2.58,0,0,1,.47.73l7.81,20.94,2.22,6.43c.19.31.37.33.52.06q.58-1.58,1.14-3.3t1.14-3.3L278,1.29a2.15,2.15,0,0,1,.56-.64,1.62,1.62,0,0,1,.86-.17h2.37a1,1,0,0,1,.86.29,1.3,1.3,0,0,1,.21.76V35.85Q282.89,36.55,282.24,36.55Z"/><path class="cls-1" d="M304.88,32.58a9.2,9.2,0,0,0,5.44-1.49,5.13,5.13,0,0,0,2.11-4.47,4.75,4.75,0,0,0-.62-2.49,5.8,5.8,0,0,0-1.58-1.72,10.53,10.53,0,0,0-2.16-1.2q-1.2-.5-2.37-.91-1.7-.58-3.57-1.35A14.94,14.94,0,0,1,298.71,17a9.89,9.89,0,0,1-2.57-2.89,8.07,8.07,0,0,1-1-4.18,10.18,10.18,0,0,1,.82-4.18,9.16,9.16,0,0,1,2.25-3.13,9.81,9.81,0,0,1,3.36-2A12.56,12.56,0,0,1,305.7,0a24.43,24.43,0,0,1,4.74.53,12.86,12.86,0,0,1,5.15,2.4q.52.41.35.73l-.29.56-1.4,2.22a.71.71,0,0,1-.7.35,1.81,1.81,0,0,1-.76-.29,18.47,18.47,0,0,0-3.51-1.67,9.84,9.84,0,0,0-5.47-.2,5.28,5.28,0,0,0-2,1,4.67,4.67,0,0,0-1.35,1.75,6.52,6.52,0,0,0-.5,2.72,3.47,3.47,0,0,0,.62,2,6.11,6.11,0,0,0,1.61,1.55,13.37,13.37,0,0,0,2.22,1.2q1.23.53,2.46,1,1.93.76,3.8,1.55a14,14,0,0,1,3.33,2,9.16,9.16,0,0,1,2.37,2.87,9.14,9.14,0,0,1,.91,4.33,9.87,9.87,0,0,1-.91,4.3,9.11,9.11,0,0,1-2.54,3.22,12.05,12.05,0,0,1-3.92,2,16.24,16.24,0,0,1-5,.73,16.83,16.83,0,0,1-6.23-1.14,9.64,9.64,0,0,1-4.47-3.36q-.53-.58.23-1.17l2.16-2q.35-.29.61-.15a3.44,3.44,0,0,1,.67.56,8.93,8.93,0,0,0,3.16,2.22A9.72,9.72,0,0,0,304.88,32.58Z"/><circle class="cls-2" cx="66.11" cy="17.43" r="7.66"/></svg>