<svg version="1.1" id="Слой_1" xmlns="http://www.w3.org/2000/svg" x="0" y="0" width="120" height="71.3" viewBox="0 0 120 71.3" xml:space="preserve">
  <style>
    .st0{fill:#fff}.st1{fill:#009fe3}
  </style>
  <path class="st0" d="M1.9 32.7c.5 0 1-.2 1.3-.5.4-.4.6-.8.6-1.4V18.7h10.6c.5 0 1-.2 1.3-.6.4-.4.6-.8.6-1.4 0-.5-.2-1-.6-1.3-.4-.4-.8-.6-1.4-.6H3.8V4.6H19c.5 0 1-.1 1.4-.5.4-.4.6-.9.6-1.4 0-.5-.2-1-.6-1.3C20 1 19.6.8 19 .8H1.9c-.5 0-1 .2-1.3.5-.4.4-.6.9-.6 1.4v28.1c0 .5.2 1 .6 1.3.3.4.8.6 1.3.6M95.4 4.6c.5 0 1-.1 1.4-.5.4-.4.6-.8.6-1.4 0-.5-.2-1-.6-1.3-.4-.4-.8-.6-1.4-.6H78.2c-.5 0-1 .1-1.3.5-.4.4-.6.8-.6 1.4v28.2c0 .5.2 1 .6 1.3.4.4.8.6 1.4.6h17.1c.5 0 1-.2 1.3-.6.4-.4.6-.8.6-1.4 0-.5-.2-1-.6-1.3-.4-.4-.8-.6-1.4-.6H80.2V18.7h11.2c.5 0 1-.2 1.3-.6.4-.4.6-.8.6-1.4 0-.5-.2-1-.6-1.3-.4-.4-.8-.6-1.4-.6H80.2V4.6h15.2zM70.2 4.6c.5 0 1-.1 1.3-.5.4-.4.6-.8.6-1.4 0-.5-.2-1-.6-1.3-.3-.4-.8-.6-1.4-.6h-17c-.5 0-.9.1-1.3.5s-.6.8-.6 1.4v28.2c0 .5.2 1 .6 1.3.4.4.8.6 1.4.6h17.1c.5 0 1-.2 1.3-.6.4-.4.6-.8.6-1.4 0-.5-.2-1-.6-1.3-.3-.4-.8-.6-1.4-.6H55V18.7h11.2c.5 0 1-.2 1.3-.6.4-.4.6-.8.6-1.4 0-.5-.2-1-.6-1.3-.4-.4-.8-.6-1.4-.6H55V4.6h15.2z"/>
  <path class="st1" d="M119.4 29.4c-.4-.4-.9-.5-1.4-.5h-12.5l12.1-15.5c.5-.7 1.2-2 1.3-4.4 0-2.4-.9-4.6-2.6-6.3C114.6 1 112.5.1 110 .1c-2.4 0-4.5.9-6.3 2.6-1.7 1.7-2.6 3.9-2.6 6.3v.6c0 .5.2 1 .7 1.3.4.3.8.5 1.3.5s1-.3 1.4-.6c.4-.4.5-.9.5-1.4v-.5c0-1.4.5-2.6 1.5-3.6s2.2-1.5 3.6-1.5 2.6.5 3.6 1.5 1.5 2.2 1.5 3.6c0 .7 0 1.5-.6 2.3-.2.3-14.3 18.3-14.3 18.3-.5.6-.5 1.4-.2 2.1 0 0 .6 1.1 1.7 1.1h16.3c.5 0 1-.2 1.4-.6.4-.4.5-.8.5-1.4 0-.5-.2-.9-.6-1.3"/>
  <path class="st0" d="M118.1 41.5c.5 0 1-.1 1.3-.5.4-.4.6-.8.6-1.4 0-.5-.2-1-.6-1.3-.4-.4-.8-.6-1.4-.6h-17.2c-.5 0-1 .1-1.3.5-.4.3-.6.8-.6 1.3v28.2c0 .5.2 1 .6 1.3.4.4.8.6 1.4.6H118c.5 0 1-.2 1.3-.6.4-.4.6-.8.6-1.4 0-.5-.2-1-.6-1.3-.4-.4-.8-.6-1.4-.6h-15.2V55.6h11.2c.5 0 1-.2 1.3-.6.4-.4.6-.8.6-1.4 0-.5-.2-1-.6-1.3-.4-.4-.8-.6-1.4-.6h-11.2V41.5h15.5zM27.6 38.8c1.1-1.8 3.4-1.2 3.4.9v28.2c0 2.3-3.8 2.3-3.8 0V45.7l-10 15.5c-.8 1.4-2.7 1.4-3.4 0l-10-15.4v22.1c0 2.3-3.8 2.3-3.8 0V39.7c0-2.1 2.4-2.6 3.4-.9l12.2 18.6 12-18.6zM95.3 37.9c-1-.4-2.1.1-2.4 1.1l-9.4 23.7L74.1 39c-.4-1-1.5-1.4-2.5-1.1-1 .4-1.4 1.5-1 2.5l11.1 28.1c.2.5.6.9 1 1 0 0 .4.2.7.2.3 0 .7-.1.7-.2.5-.2.9-.5 1-1l11.1-28.1c.6-1 .1-2.1-.9-2.5M43.9 68.8c-.3 0-.7-.1-1-.3-7.5-4.7-10.5-13.9-7.2-22s12-12.7 20.7-10.9c1 .2 1.7 1.2 1.5 2.2-.2 1-1.2 1.6-2.2 1.4-6.9-1.4-13.8 2.3-16.4 8.7-2.6 6.4-.2 13.8 5.7 17.5.9.5 1.1 1.7.6 2.6-.4.5-1 .8-1.7.8M53 71.3c-1.2 0-2.5-.1-3.7-.4-1-.2-1.7-1.2-1.5-2.2.2-1 1.2-1.7 2.2-1.5 6.9 1.4 13.8-2.3 16.4-8.7 2.6-6.4.2-13.8-5.7-17.4-.9-.6-1.1-1.7-.6-2.6.5-.9 1.7-1.1 2.6-.6C70.3 42.7 73.3 52 70 60c-2.8 7-9.6 11.3-17 11.3"/>
  <path d="M59.4 62.9c-.5 0-1.1-.2-1.4-.6-.7-.8-.6-2 .2-2.6 2.5-2.2 3.3-5.6 2-8.6-1.3-3-4.4-4.8-7.8-4.5-1.1.1-2-.7-2.1-1.7-.1-1 .7-1.9 1.7-2 5-.4 9.6 2.3 11.6 6.8 1.9 4.5.7 9.6-3 12.8-.3.3-.7.4-1.2.4" fill="#e6007e"/>
  <path class="st1" d="M52.7 64.6c-4.6 0-8.8-2.7-10.6-6.8-2-4.5-.7-9.6 3-12.8.8-.7 2-.6 2.7.2.7.8.6 1.9-.2 2.6-2.5 2.2-3.3 5.6-2 8.6 1.3 3 4.4 4.8 7.7 4.6 1.1-.1 2 .7 2.1 1.7.1 1-.7 1.9-1.7 2-.4-.1-.7-.1-1-.1"/>
  <path class="st0" d="M44.7 15.5c1.5-1.6 2.3-3.6 2.3-5.8 0-2.4-.9-4.6-2.8-6.3C42.4 1.7 40.1.8 37.5.8H26.2c-.5 0-1 .2-1.3.6-.4.4-.6.8-.6 1.4 0 .5.2 1 .6 1.3.4.4.8.5 1.3.5h11.3c1.6 0 2.9.6 4.1 1.6 1.1 1 1.6 2.2 1.6 3.6s-.5 2.5-1.6 3.5-2.4 1.5-4 1.6H26.2c-.5 0-1 .2-1.3.5-.3.3-.5.7-.6 1.1v14.4c0 .5.2 1 .6 1.4.7.7 1.9.7 2.6 0 .4-.4.6-.8.6-1.3V18.7h7.2l5.5 12.9c.3.7 1 1.1 1.7 1.1.2 0 .5-.1.7-.2.9-.4 1.4-1.5 1-2.5l-4.9-11.6c.4-.1.6-.1.6-.1 1.9-.4 3.5-1.4 4.8-2.8"/>
</svg>
