<svg xmlns="http://www.w3.org/2000/svg" width="105" height="40" viewBox="0 0 105 40">
  <path d="M33.963 20.782a3.27 3.27 0 0 1 3.261 3.26v12.534a3.271 3.271 0 0 1-3.26 3.262 3.271 3.271 0 0 1-3.261-3.262v-3.024c-3.168 4.55-8.439 6.26-12.82 6.26-10.906 0-17.39-8.8-17.39-19.656C.492 9.3 9.332.5 20.237.5c4.089 0 7.89 1.237 11.04 3.357 0 0 1.767 1.13 3.264 2.945.93 1.15 1.2 2.934.215 4.214a3.27 3.27 0 0 1-4.573.592l-1.969-1.515c-.63-.403-1.268-.817-1.9-1.18-1.75-1.007-3.505-1.383-5.81-1.383-7.153 0-11.861 5.505-11.861 12.626 0 7.12 3.301 12.892 10.454 12.892 2.776 0 5.82-2.072 7.098-3.94.453-.661.769-1.297.921-1.805h-4.593a3.271 3.271 0 0 1-3.261-3.26 3.272 3.272 0 0 1 3.26-3.261h11.15c.05 0 .096.012.144.014.05-.002.096-.014.146-.014zM61.97 31.627c.514-.215 2.686-.992 3.735.606 1.29 1.967-.567 4.263-3.059 5.445 0 0-8.103 4.861-16.098 0-7.996-4.862-6.47-14.664-5.958-17.608.514-2.945 3.689-10.666 13.142-10.666 9.454 0 12.912 7.098 12.912 12.797 0 0 .453 4.456-4.08 4.456H47.719s-.044-.052-.032.702c.012.747.646 5.943 6.774 5.943 4.052 0 6.997-1.458 7.51-1.675zM47.654 21.215s-.03.121.099.121h11.955s.074-.027.074-.121c0-3.393-2.715-5.802-6.064-5.802-3.35 0-6.064 2.409-6.064 5.802zM85.72 34.927c.27.446.407 1.007.406 1.685 0 .678-.141 1.241-.421 1.686-.28.447-.644.785-1.089 1.016-.33.176-.747.305-1.25.393-.504.087-1.123.132-1.859.132h-.407c-1.57 0-2.906-.242-4.01-.727-1.104-.485-2.01-1.134-2.716-1.947a7.584 7.584 0 0 1-1.54-2.775 10.804 10.804 0 0 1-.48-3.21V15.76h-1.353a2.904 2.904 0 0 1-2.895-2.894v-.11a2.904 2.904 0 0 1 2.895-2.896h1.382V4.3A3.769 3.769 0 0 1 76.142.544a3.769 3.769 0 0 1 3.757 3.758v5.56h1.392a2.904 2.904 0 0 1 2.895 2.895v.11a2.904 2.904 0 0 1-2.895 2.894H79.91v15.012c0 .35.037.683.115 1.003.078.32.208.596.393.828.184.233.43.427.741.581.31.155.707.244 1.192.262.483.04.9.087 1.248.144.349.06.688.166 1.019.32a2.67 2.67 0 0 1 1.103 1.017zm18.245 0c.272.446.407 1.007.406 1.685 0 .678-.141 1.241-.421 1.686-.28.447-.644.785-1.088 1.016-.331.176-.748.305-1.25.393a11.19 11.19 0 0 1-1.86.132h-.407c-1.57 0-2.906-.242-4.01-.727-1.104-.485-2.01-1.134-2.716-1.947a7.592 7.592 0 0 1-1.54-2.775 10.82 10.82 0 0 1-.48-3.21V15.76h-1.352a2.904 2.904 0 0 1-2.896-2.894v-.11a2.904 2.904 0 0 1 2.896-2.896h1.382V4.3A3.769 3.769 0 0 1 94.387.544a3.769 3.769 0 0 1 3.758 3.758v5.56h1.392a2.904 2.904 0 0 1 2.895 2.895v.11a2.903 2.903 0 0 1-2.895 2.894h-1.382v15.012c0 .35.038.683.116 1.003.078.32.208.596.392.828.185.233.43.427.742.581.309.155.707.244 1.192.262.483.04.9.087 1.247.144.35.06.689.166 1.02.32a2.67 2.67 0 0 1 1.102 1.017z"/>
</svg>
