<svg xmlns="http://www.w3.org/2000/svg" width="127" height="45" viewBox="0 0 127 45">
  <path d="M125.445 17.1c-3.242 1.304-6.873 2.525-10.117 3.827l-2.722-.167 7.988-3.23c.892-.356 1.116-.843.75-1.776-.816-2.057-2.91-3.255-5.12-2.724-3.317.804-4.037 4.075-3.786 6.922.157 1.849.806 3.573 1.808 5.08 1.56 2.339 3.95 4.314 6.943 4.26 1.479-.024 3.364-.269 4.62-.91.423-.227.705-.463.701-.385-.018.32-1.971 1.831-2.317 2.141-1.619.992-3.43 1.334-5.984 1.334-5.565 0-9.664-4.885-9.664-10.377 0-4.077 2.58-7.72 6.145-9.16 4.519-1.82 9.82.28 11.227 4.171.247.68.193.728-.472.994zM100.831 0h5.919c-.824.543-1.1.768-1.454 1.338-.253.411-.317 1.185-.363 1.884-.347 8.044-.137 16.15-.187 24.197.035 2.195.879 1.934 3.681 1.851-.42.364-1.106 1.083-1.637 1.396-2.528 0-4.941-.056-7.47-.056.954-1 1.444-1.646 1.374-4.15.05-8.405-.274-16.473.23-24.573-1.184.036-2.264.022-3.449.053 1.118-.585 2.178-1.413 3.356-1.94zM93.85 31.647c2.724 2.062 3.78 5.452 1.983 8.723-1.718 3.125-5.819 4.519-10.164 4.534-5.406-.025-8.815-2.533-8.993-5.952-.236-4.41 4.238-6.515 8.274-6.993 1.13-.132 2.139-.113 3.09-.046-1.428-.95-1.964-2.891-1.231-4.192.188-.336.07-.22-.292-.165-3.302.503-6.707-1.68-7.503-4.982a7.52 7.52 0 0 1 .479-4.799c1.368-2.979 4.41-4.632 7.782-4.632 3.51 0 6.76.001 10.201.03l-2.413 1.584h-2.746a7.16 7.16 0 0 1 2.539 3.32c.52 1.408.592 2.964.064 4.396-.5 1.35-1.514 2.516-3.003 3.398-.848.505-1.277 1.141-1.323 1.752-.14 1.784 2.012 3.078 3.256 4.024zm-.278 7.377c.194-1.715-.563-3.575-2.932-5.098a23.666 23.666 0 0 1-1.265-.873c-.76-.026-1.538-.09-2.3-.064-2.757.095-6.086 1.406-6.561 3.952-.894 4.773 3.93 6.212 7.51 5.99 3.355-.206 5.316-1.836 5.548-3.907zM82.868 21.612c.858 3.407 3.531 5.31 5.943 4.632 2.359-.662 3.02-3.166 2.593-5.81-.658-4.034-3.536-6.495-6.23-5.646-2.27.715-3.244 3.087-2.306 6.824zm-7.313-1.195c.307 5.09-3.93 9.637-9.114 10.183-6.235.653-11.68-3.598-11.68-9.798 0-5.424 4.678-9.85 10.41-9.85 6.62 0 10.074 4.361 10.384 9.465zm-8.408 8.648c3.394-.777 4.66-4.252 4.278-7.993-.575-5.712-4.532-9.59-8.411-8.57-3.275.857-4.94 4.356-3.93 9.663.919 4.844 4.594 7.694 8.063 6.9zm-14.592-8.648c.305 5.09-3.931 9.637-9.114 10.183-6.236.653-11.68-3.598-11.68-9.798 0-5.424 4.676-9.85 10.406-9.85 6.623 0 10.078 4.361 10.388 9.465zm-8.408 8.648c3.39-.777 4.657-4.252 4.278-7.993-.578-5.712-4.53-9.59-8.412-8.57-3.274.857-4.94 4.356-3.932 9.663.918 4.844 4.598 7.694 8.066 6.9zM26.026 6.968l-1.985.57L25.1 5.593c-1.52-1.54-3.26-2.662-5.175-3.282-3.055-.993-5.874-.444-8.225.722-4.812 2.387-7.657 8.174-6.55 14.289 1.163 6.449 6.083 11.62 12.538 12.163 1.9.165 3.983.066 5.826-.424 1.309-.43 1.302-.561 1.302-1.366v-5.68l-6.465.191 3.329-1.895h8.986l-1.437 1.704v7.03c-6.166 3.156-16.404 4.053-22.31.018-3.58-2.45-7.105-7.309-6.911-13.46C.189 9.762 3.925 4.532 9.067 1.899c5.907-3.03 14.826-2.457 20.02 1.904l-3.061 3.166z"/>
</svg>
