<svg version="1.1" id="Layer_1" xmlns="http://www.w3.org/2000/svg" x="0" y="0" width="120" height="26.3" viewBox="0 0 120 26.3" xml:space="preserve">
  <style>
    .st0{fill:#262729}.st1{fill:#cf0a2c}
  </style>
  <path class="st0" d="M50.2 14h-6.1V8.7h-2.7v13.2h2.7v-5.4h6.1v5.4h2.6V8.7h-2.6zM65.3 16.2c0 2.2-1.1 3.3-3 3.3s-3-1.2-3-3.4V8.7h-2.7v7.6c0 3.7 2.1 5.9 5.7 5.9s5.7-2.2 5.7-6V8.7h-2.7v7.5zM96.3 17.7l-3-9h-2.2l-3 9-2.9-9h-2.9l4.6 13.2h2.2l3.1-8.7 3 8.7h2.2L102 8.7h-2.8zM106.8 16.2h4.9v-2.4h-4.9v-2.7h7.1V8.7h-9.7v13.2h10v-2.4h-7.4zM117.4 8.7h2.6v13.2h-2.6zM79.3 19.1l1.2 2.8h2.8L77.5 8.7l-.1-.1h-2.3l-5.8 13.2H72l1.1-2.6.1-.2 6.1.1zm-3-7.1l1.9 4.4.1.3h-4.1l.1-.3 2-4.4z"/>
  <path class="st1" d="M4.3 13.9c2.6 2.6 9.1 5.9 10.6 6.6h.1v-.1C11 11.5 5.4 4.7 5.3 4.6c-.1.1-3 2.9-2.8 5.8.1 2.2 1.8 3.5 1.8 3.5zM8.3 26.2c1.4-.4 4.6-2.6 5.6-3.3l.1-.1-.1-.1h-.2L3.2 23c1.1 2 3.1 3.6 5.1 3.2zM4 21.4c.7.3 1.3.4 2 .4h8s.1 0 .1-.1c.1-.1 0-.2 0-.2-4.7-3.2-13.8-8-13.8-8-1 3.2.6 6.6 3.7 7.9zM9.7 7c.9 4.2 5.6 11.1 6.6 12.5.1.1.1 0 .1 0 .1 0 .1-.1.1-.1C18 4.1 14.9 0 14.9 0c-.5 0-1.7.3-1.7.3-1.7.4-3 1.7-3.5 3.3-.6 1.7 0 3.4 0 3.4zM18.3 19.5c0 .1 0 .1.1.1s.1 0 .2-.1c1-1.5 5.7-8.3 6.6-12.5 0 0 .5-2 0-3.4 0 0-.7-2.6-3.5-3.3 0 0-.8-.2-1.7-.3 0 0-3.2 4.1-1.7 19.5zM20.8 22.7v.1c1 .7 4.1 2.9 5.6 3.3 0 0 2.8.9 5.2-3.2l-10.7-.4c0 .1-.1.1-.1.2zM20.7 21.6s-.1.1-.1.2c0 0 0 .1.1.1h8.2c.6 0 1.3-.2 1.8-.4 0 0 2.3-.7 3.4-3.3.6-1.4.7-3.1.2-4.6.2-.1-8.9 4.8-13.6 8zM19.8 20.3v.2h.1c1.5-.8 7.9-4 10.5-6.6 0 0 1.7-1.3 1.8-3.5.2-3-2.8-5.8-2.8-5.8s-5.5 6.8-9.6 15.7z"/>
</svg>
