<svg xmlns="http://www.w3.org/2000/svg" width="192" height="45" viewBox="0 0 192 45">
  <path d="M176.562 34.149V32.15l14.435.002v1.997h-14.435zm5.75-10.839l.001-2.004h8.684v2.005h-.908c.415.355 1.182 1.138 1.182 2.632 0 2.647-2.279 4.204-4.614 4.203-2.339 0-4.579-1.494-4.579-4.224 0-.648.14-1.787 1.261-2.611l-1.027-.001zm1.574 2.317c.002 1.475 1.257 2.436 2.806 2.437 1.478 0 2.77-.884 2.77-2.437.001-1.532-1.198-2.432-2.785-2.433-1.869.001-2.79 1.175-2.79 2.433zm-7.323-8.763h6.775c-1.119-.824-1.26-1.964-1.26-2.612 0-2.73 2.24-4.22 4.58-4.22 2.884 0 4.611 2.042 4.614 4.22 0 1.477-.744 2.238-1.18 2.612h.904v2.002l-14.434-.001.001-2.001zm7.324-2.335c0 1.256.902 2.453 2.827 2.454 1.533-.001 2.747-.885 2.747-2.454 0-1.533-1.276-2.418-2.77-2.417-1.569 0-2.802.964-2.804 2.417zm-25.866 17.165a3.051 3.051 0 1 1 6.098.002 3.051 3.051 0 0 1-6.098-.002zM31.486 13.303l1.996-3.56 13.04 23.252-3.993 2.239L33.483 19.1l-9.045 16.13-3.993-2.238 11.041-19.69zm47.02 2.568v-4.578l10.72.001-.001 4.578H78.507zm0 18.085V29.38h10.718l.001 4.577H78.506zm70.175-19.981l3.236-3.237 9.091 9.09 9.091-9.09 3.236 3.237L161.007 26.3l-12.326-12.326zM30.372 30.065a3.051 3.051 0 1 1 6.104-.001 3.056 3.056 0 0 1-3.054 3.054 3.054 3.054 0 0 1-3.05-3.053zM4.744 34.22l-4.625-.038L0 11.51l4.613-.064.131 22.774zm.506-11.427l11.877-11.951 3.247 3.226-8.661 8.715 8.823 8.827-3.237 3.237-12.05-12.054zm121.795 11.314V11.441l4.577-.002.001 22.668h-4.578zm6.832-13.094l10.284-10.18 3.22 3.252-8.65 8.563 9.083 9.085-3.239 3.237-12.333-12.339 1.635-1.618zM80.93 22.386a3.05 3.05 0 0 1 3.05-3.05 3.051 3.051 0 1 1-3.05 3.05zM59.633 34.105V11.438h4.578v22.667h-4.578zm6.805-21.188l3.807-2.54 5.744 8.607-6.718 7.227-3.353-3.117 4.256-4.577-3.736-5.6zm27.224 21.198l-.004-22.666h4.579l.003 22.665-4.578.001zm8.058-21.05l3.812-2.534 5.623 8.453-5.037 5.23 5.901 8.218-3.719 2.67-8.124-11.315s3.7-3.842 5.131-5.33l-3.587-5.392zm-55.608 3.16c-.521-6.426 0 0 0 0C45.59 9.8 49.554.655 49.722.269L53.918 2.1c-.036.085-3.67 8.48-3.243 13.757.168 2.104 1.112 3.673 2.205 5.49 1.253 2.083 2.673 4.445 2.673 7.674 0 6.506-3.554 14.808-3.706 15.158l-4.202-1.815c.033-.077 3.33-7.79 3.33-13.343 0-1.958-.935-3.515-2.018-5.316-1.214-2.018-2.59-4.306-2.844-7.48zm67.752-.262c-.516-6.429 0 0 0 0-.516-6.429 3.442-15.577 3.61-15.963l4.197 1.832c-.038.084-3.668 8.485-3.244 13.761.17 2.1 1.114 3.668 2.207 5.483 1.253 2.085 2.676 4.45 2.676 7.68-.002 6.506-3.558 14.807-3.71 15.157l-4.201-1.816c.032-.077 3.332-7.789 3.333-13.341 0-1.96-.937-3.518-2.02-5.32-1.213-2.016-2.587-4.301-2.848-7.473z"/>
</svg>
