<svg xmlns="http://www.w3.org/2000/svg" width="178" height="36" viewBox="0 0 178.7 36.5">
  <path d="M114.943 26.924c0 .872-.872 1.743-2.179 1.743s-2.09-.96-2.09-1.743v-1.481c0-.871.783-1.743 2.09-1.743 1.394 0 2.179.958 2.179 1.83v1.394zM15.263 7.842c2.44 0 4.705 1.046 6.36 2.701 0-.784.523-1.394 1.307-1.394h.175c1.132 0 1.394 1.133 1.394 1.481v12.46c-.087.784.871 1.22 1.394.697 2.004-2.091 4.356-10.543-1.22-15.51-5.228-4.617-12.286-3.833-16.032-1.22-4.008 2.789-6.535 8.801-4.096 14.552 2.702 6.273 10.456 8.103 14.987 6.273 2.353-.958 3.398 2.179.959 3.224C16.83 32.675 6.724 32.5 1.93 24.31c-3.223-5.577-3.05-15.335 5.49-20.389C13.956.087 22.495 1.133 27.636 6.535c5.402 5.664 5.053 16.207-.175 20.302-2.352 1.83-5.925.087-5.925-2.701v-.872c-1.655 1.656-3.834 2.614-6.273 2.614-4.793 0-8.975-4.182-8.975-8.974 0-4.793 4.182-9.062 8.975-9.062zm6.012 8.713c-.174-3.485-2.788-5.576-5.925-5.576h-.087c-3.573 0-5.577 2.875-5.577 6.012 0 3.572 2.44 5.925 5.577 5.925 3.572 0 5.838-2.614 6.012-5.664v-.697zm33.633-9.933c2.091-.087 6.796 2.178 6.71 6.97v12.896c0 1.394-1.134 2.092-2.18 2.092-1.132 0-2.177-.872-2.177-2.005v-13.07c0-1.394-1.133-2.788-2.44-2.875-1.656-.087-4.095 1.307-4.095 2.876v13.157c0 1.045-.959 2.004-2.179 2.004-1.045 0-2.178-.872-2.178-2.004V13.68c0-1.83-1.394-3.05-2.614-3.05-1.83 0-4.008 1.481-4.008 2.788v13.157c0 1.046-.784 2.092-2.178 2.092-1.22 0-2.091-1.046-2.091-2.092V8.8c0-1.307 1.045-2.178 2.004-2.178.87 0 1.394.523 1.83 1.569 1.132-.959 2.875-1.569 4.792-1.482 1.83.087 3.572.959 4.966 2.44 1.22-1.046 3.224-2.527 5.838-2.527zm36.334 0c1.133 0 2.179 1.046 2.179 2.091v17.775c0 1.133-.872 2.179-2.179 2.179-1.132 0-2.09-.872-2.09-2.092V8.713c0-1.045.783-2.09 2.09-2.09zm-7.406 0c1.307 0 2.178 1.133 2.265 2.004v17.95c0 .957-.697 2.09-2.178 2.09a2.045 2.045 0 0 1-2.091-2.004v-.522c-1.83 1.568-4.531 2.527-6.97 2.527-6.1 0-10.98-5.315-10.98-10.979 0-6.186 5.141-11.066 10.98-11.066 2.613 0 5.053 1.046 6.97 2.614V8.54c0-.958.784-1.917 2.004-1.917zm-8.975 17.95c3.834 0 6.97-3.138 6.97-6.971 0-3.834-3.136-6.97-6.97-6.97-3.834 0-6.97 3.136-6.97 6.97 0 3.833 3.136 6.97 6.97 6.97zm31.02-.175c1.394 0 2.09 1.046 2.09 2.091 0 .959-.696 2.179-2.178 2.179-4.966 0-9.323-4.096-9.323-9.41V3.66c0-.959.697-2.004 2.091-2.004 1.22 0 2.179.784 2.179 2.004v15.596c0 3.05 2.44 5.141 5.14 5.141zm23.003-17.775c1.48-.087 2.178 1.133 2.265 1.917 0 1.133-.871 2.091-2.178 2.091-4.008 0-6.884 3.66-6.884 6.884v9.149c0 1.132-.958 2.004-2.179 2.004-1.044 0-2.004-.872-2.004-2.004v-8.975c0-5.75 5.054-11.066 10.98-11.066zm24.745 0c1.22 0 2.091.959 2.091 1.917v9.149c0 5.576-4.792 10.979-11.152 10.979-5.839 0-11.067-5.141-11.067-10.979V8.626c0-1.133.959-2.004 2.004-2.004 1.394 0 2.092 1.046 2.092 2.004v9.062c0 4.008 3.572 6.883 6.883 6.883 4.095 0 7.059-3.398 7.059-6.883V8.626c0-.958.783-2.004 2.09-2.004zM93.42 3.05c0 .871-.872 1.655-2.179 1.655s-2.09-.871-2.09-1.742V1.83c0-.872.783-1.83 2.09-1.83 1.482 0 2.179.958 2.179 1.83v1.22z"/>
</svg>
