<svg width="253" height="43"  viewbox="0 0 253 43" xmlns="http://www.w3.org/2000/svg"><g fill="none" fill-rule="evenodd"><path fill="#060606" fill-rule="nonzero" d="M61.493.878V43H47.181V23.968L37.699 43H24.492l-10.12-19.257V43H0V.878h16.404l14.661 28.951L45.488.878zM118.724 24.225c1.67 1.58 2.505 3.828 2.505 6.744v.224c0 4.29-1.818 7.314-5.454 9.071-3.636 1.758-8.863 2.67-15.681 2.736H65.885V.878h36.902c4.505.044 8.102.956 10.79 2.735 2.61 1.653 4.139 4.523 4.022 7.558v.233a10.605 10.605 0 01-1.577 6.028 9.27 9.27 0 01-4.721 3.467c3.244.649 5.718 1.758 7.423 3.326zm-18.426-7a3.985 3.985 0 002.327-.998 3.635 3.635 0 00.963-2.844 3.277 3.277 0 00-.929-2.61 4.549 4.549 0 00-2.395-.999 33.745 33.745 0 00-4.26-.2h-16.67v7.733c4.005 0 6.647 0 7.934.059h8.744c1.943.008 3.366-.042 4.286-.142zm2.557 16.038a4.51 4.51 0 002.625-1.139 3.96 3.96 0 00.989-2.985 3.66 3.66 0 00-.989-2.868 4.688 4.688 0 00-2.625-1.081 43.834 43.834 0 00-4.892-.2h-18.63v8.423H97.939a43.837 43.837 0 004.892-.141l.025-.009zM140.802.878V32.19h26.986V43H126.5V.878z"/><path fill="#060606" fill-rule="nonzero" d="M152.854.878V12.319h18.427V43h14.336V12.32h18.189V.877zM231.477 4.124a17.403 17.403 0 0116.085 10.728 17.371 17.371 0 01-3.77 18.949 17.416 17.416 0 01-18.97 3.767A17.384 17.384 0 01214.083 21.5c.014-9.59 7.794-17.362 17.394-17.376m0-4.124c-11.886 0-21.522 9.626-21.522 21.5S219.59 43 231.477 43C243.364 43 253 33.374 253 21.5c0-5.702-2.268-11.17-6.304-15.203A21.534 21.534 0 00231.477 0z"/><path fill="#060606" fill-rule="nonzero" d="M227.883 19.306h-8.265v4.036h8.265v8.25h4.034v-8.25zM243.337 19.655h-8.256v-8.247h-4.043v8.247l4.043 4.039h8.256z"/></g></svg>