<svg width="117" height="20" viewBox="0 0 117 20" fill="none" xmlns="http://www.w3.org/2000/svg">
<path d="M57.3939 0H52.4545V20H56.8485V6.81818H57.1212L61.7879 14.4242H64.1212L68.7879 6.81818H69.0606V20H73.4848V0H68.6363L63.0606 9.06061L57.3939 0Z" fill="#fff"/>
<path d="M82.6666 0H78.2121V20H82.6666V11.4545H84.8788L91.0303 20H96.8182L88.606 9.33333L96.0909 0H90.5454L84.8485 7.36364L82.6666 7.60606V0Z" fill="#fff"/>
<path d="M116.03 0H100.03V20H109.121C110.273 20 111.303 19.8485 112.273 19.5758C113.242 19.2727 114.061 18.8485 114.758 18.3333C115.455 17.7576 116 17.0909 116.424 16.303C116.788 15.4545 117 14.5758 117 13.5152C117 12.4545 116.788 11.5152 116.424 10.6667C116 9.87879 115.455 9.21212 114.788 8.69697C114.061 8.15152 113.242 7.75758 112.273 7.51515C111.303 7.24242 110.273 7.12121 109.121 7.12121H104.485V4.0303H112.061L116.03 0ZM104.515 16V11.0303H109.273C110.303 11.0303 111.091 11.2424 111.636 11.697C112.212 12.1212 112.485 12.697 112.485 13.5152C112.485 14.2727 112.212 14.8485 111.636 15.3333C111.091 15.7576 110.242 16 109.151 16H104.515Z" fill="#fff"/>
<path d="M24.8788 0.030303L14.8788 10L9.90909 5L14.9091 0H5H4.90909L0 5L15 20L27.7879 7.09091H35.4545L42.5152 0.030303H24.8788Z" fill="#fff"/>
<path d="M17.0606 19.7879L18.4849 18.3636L28.3636 8.48485H42.5455L35.4545 15.5455H31.2727L27.0909 19.7879H17.0606Z" fill="#fff"/>
</svg>