<svg xmlns="http://www.w3.org/2000/svg" width="131" height="35" viewBox="0 0 131 35">
  <path d="M17.847 0c-.02 10.895-.038 21.79-.057 32.686-1.914.194-4.016.463-5.928.681C9.422 26.538 7.918 22.3 5.47 15.113l-.015 19.09c-1.778.232-3.68.474-5.456.727V0h5.261c2.363 7.643 4.72 12.457 7.074 19.728.011-7.451.022-12.277.032-19.728h5.48zm20.467 0c-.003 1.57.037 3.827.034 5.397-1.258.011-2.494.013-3.726.013H33.07c-1.477 0-2.956.002-4.466.02l-.017 7.36c2.4-.045 4.975-.05 7.414-.093l-.009 5.423c-2.461.042-5.005.005-7.414.047l-.018 8.165c3.297-.222 6.462-.434 9.77-.637-.004 1.57-.006 3.828-.009 5.398-5.087.293-10.17.671-15.248 1.133L23.134 0h15.18zm20.46.024l-.002 5.352c-1.89.003-3.841.01-5.73.016l-.025 25.088c-1.789.045-3.702.101-5.49.168.01-8.66.022-16.57.033-25.23l-.564.001c-.734 0-1.468-.007-2.202-.014a223.815 223.815 0 0 0-2.93-.012l.008-5.368h16.902zM77.572 0l.005 5.418c-1.486-.007-2.96-.008-4.432-.008h-1.813a3580.646 3580.646 0 0 1-3.583 0l.002 7.074.842.001c.738 0 1.489-.003 2.242-.005a632 632 0 0 1 2.263-.006c.7 0 1.394.003 2.072.01l.004 5.364a159.38 159.38 0 0 0-2.195-.013c-.72 0-1.446.003-2.169.006a518.902 518.902 0 0 1-3.057.005c0 4.29.002 8.207.003 12.497a471.217 471.217 0 0 0-5.43-.01L62.33 0h15.242zm3.558.024h5.48c.014 8.743-.035 16.673-.02 25.415 3.082.128 6.29.346 9.37.527l.009 5.399c-4.867-.336-9.988-.533-14.861-.715-.013-10.208.036-20.417.022-30.626zm19.336.001h5.48c.02 10.706.005 21.419-.001 32.117a472.39 472.39 0 0 0-5.417-.445L100.466.025zm10.177 0l5.984.001c1.327 3.414 2.215 5.685 3.54 9.195 1.422-3.373 2.443-5.65 3.927-9.194h5.983c-2.404 5.734-4.765 10.969-7.08 16.452 2.324 5.84 4.852 12.273 7.163 18.451-1.906-.271-4.381-.627-6.29-.874-1.368-3.8-2.613-6.642-3.984-10.323-1.374 3.455-2.621 6.045-3.993 9.409-1.912-.213-3.892-.49-5.806-.678 2.31-5.224 4.665-10.633 6.977-16.078-2.225-5.669-4.23-11.022-6.421-16.36z"/>
</svg>
