<svg xmlns="http://www.w3.org/2000/svg" width="182" height="50"><path d="M66.49 40.73c-1.44 0-2.57-.52-3.39-1.56h-.18c.12 1.02.18 1.61.18 1.78v4.97h-3.35V28.23h2.72l.47 1.61h.16c.78-1.23 1.92-1.84 3.41-1.84 1.5 0 2.65.56 3.47 1.69.82 1.12 1.23 2.68 1.23 4.68 0 1.3-.2 2.44-.58 3.41-.38.96-.93 1.69-1.64 2.2-.71.5-1.54.75-2.5.75zm13.93-22c-1.44 0-2.57-.52-3.39-1.56h-.18c.12 1.02.18 1.61.18 1.78v4.97h-3.35V6.23h2.72l.48 1.61h.15C77.81 6.61 78.95 6 80.44 6c1.5 0 2.65.56 3.47 1.68.82 1.13 1.23 2.69 1.23 4.69 0 1.3-.2 2.44-.58 3.4-.38.97-.93 1.7-1.64 2.21-.71.5-1.54.75-2.5.75zm24.37 7.54c-.67-.21-1.3-.31-1.87-.31-.9 0-1.35.5-1.35 1.5v.77h2.9v2.7h-2.9v9.58h-3.35v-9.58h-1.84V29.2l1.84-.97v-.91c0-1.41.35-2.44 1.03-3.09.69-.65 1.71-.98 3.04-.98 1.34 0 2.46.18 3.36.53zm46.18 13.69c-.9-.52-1.59-1.26-2.07-2.23-.48-.97-.73-2.09-.73-3.38 0-2.01.53-3.57 1.57-4.68 1.05-1.11 2.52-1.67 4.42-1.67 1.17 0 2.21.26 3.11.77.9.51 1.59 1.25 2.07 2.21.48.95.72 2.08.72 3.37 0 2-.52 3.56-1.58 4.69-1.05 1.13-2.51 1.69-4.39 1.69-1.18 0-2.22-.25-3.12-.77zm-89.17-22c-.9-.52-1.59-1.26-2.08-2.23-.48-.97-.72-2.09-.72-3.38 0-2.01.52-3.57 1.57-4.68C61.62 6.56 63.09 6 64.98 6c1.18 0 2.22.26 3.11.77.9.51 1.59 1.25 2.07 2.2.49.96.73 2.09.73 3.38 0 2-.53 3.56-1.58 4.69-1.05 1.13-2.52 1.69-4.39 1.69-1.18 0-2.22-.25-3.12-.77zm32.37 13.02c.48.95.72 2.08.72 3.37 0 2-.52 3.56-1.58 4.69-1.05 1.13-2.51 1.69-4.39 1.69-1.18 0-2.22-.25-3.12-.77-.9-.52-1.59-1.26-2.07-2.23-.48-.97-.72-2.09-.72-3.38 0-2.01.52-3.57 1.56-4.68 1.05-1.11 2.52-1.67 4.42-1.67 1.17 0 2.21.26 3.11.77.9.51 1.59 1.25 2.07 2.21zm-.54-14.95c1.38 0 2.74-.3 4.08-.9v2.66c-1.12.63-2.59.94-4.43.94-1.84 0-3.32-.57-4.44-1.71-1.11-1.14-1.67-2.7-1.67-4.68 0-1.98.51-3.53 1.55-4.65C89.75 6.56 91.15 6 92.92 6s3.12.49 4.06 1.48c.94.99 1.41 2.36 1.41 4.1v1.63h-7.82c.04.88.32 1.58.85 2.07.53.5 1.26.75 2.21.75zm18.48 22c1.38 0 2.74-.3 4.08-.9v2.66c-1.12.63-2.6.94-4.43.94-1.84 0-3.32-.57-4.44-1.71-1.11-1.14-1.67-2.7-1.67-4.68 0-1.98.51-3.53 1.55-4.65 1.03-1.13 2.43-1.69 4.2-1.69s3.12.5 4.06 1.48c.94.99 1.41 2.36 1.41 4.1v1.63h-7.82c.04.88.32 1.58.85 2.07.52.5 1.26.75 2.21.75zm-2.91-26.68c0-.88-.16-1.54-.48-1.98-.31-.45-.81-.67-1.5-.67-.94 0-1.62.32-2.03.94-.42.63-.63 1.66-.63 3.11v5.76h-3.35V6.23h2.56l.45 1.58h.19c.75-1.21 2.01-1.81 3.78-1.81 1.42 0 2.51.39 3.25 1.16.74.77 1.11 1.89 1.11 3.34v8.01h-3.35zm61.64 22.01c0-.89-.16-1.55-.47-1.99-.32-.45-.82-.67-1.51-.67-.93 0-1.61.32-2.03.94-.42.63-.63 1.66-.63 3.11v5.76h-3.35V28.23h2.56l.45 1.59h.19c.76-1.21 2.02-1.82 3.78-1.82 1.43 0 2.51.39 3.25 1.16.74.77 1.11 1.89 1.11 3.35v8h-3.35zm-32.67.77c.88.62 1.33 1.51 1.33 2.68 0 1.16-.45 2.11-1.33 2.83-.89.73-2.17 1.09-3.84 1.09s-3.06-.26-4.18-.78v-2.89c.62.28 1.33.51 2.11.69.78.19 1.47.28 2.07.28 1.21 0 1.81-.33 1.81-.99 0-.25-.07-.45-.24-.61-.3-.28-1.01-.65-2.14-1.09-1.12-.45-1.91-.83-2.35-1.15-.86-.6-1.28-1.46-1.28-2.57 0-1.11.42-1.99 1.27-2.64.85-.65 2.04-.98 3.56-.98s2.99.35 4.4 1.05l-1.02 2.5c-.62-.25-1.2-.45-1.74-.61-.54-.16-1.09-.24-1.65-.24-.98 0-1.47.25-1.47.76 0 .28.16.52.47.73.32.2.99.5 2.01.89 1.02.38 1.76.73 2.21 1.05zm-11.18 0c.88.62 1.32 1.51 1.32 2.68 0 1.16-.44 2.11-1.33 2.83-.88.73-2.16 1.09-3.83 1.09s-3.07-.26-4.19-.78v-2.89c.63.28 1.33.51 2.12.69.78.19 1.47.28 2.07.28 1.21 0 1.81-.33 1.81-.99 0-.25-.08-.45-.24-.61-.3-.28-1.01-.65-2.14-1.09-1.13-.45-1.91-.83-2.36-1.15-.85-.6-1.28-1.46-1.28-2.57 0-1.11.43-1.99 1.28-2.64.85-.65 2.04-.98 3.55-.98 1.52 0 2.99.35 4.41 1.05l-1.02 2.5c-.62-.25-1.2-.45-1.74-.61-.54-.16-1.09-.24-1.65-.24-.99 0-1.48.25-1.48.76 0 .28.16.52.48.73.32.2.99.5 2.01.89 1.02.38 1.76.73 2.21 1.05zm-49.97-4.04h.16c.38-.63.9-1.13 1.55-1.51.64-.39 1.27-.58 1.88-.58.61 0 1.06.03 1.36.1l-.25 2.83c-.27-.07-.6-.11-.99-.11-1.07 0-1.9.29-2.5.85-.6.57-.89 1.36-.89 2.39v6.45h-3.35V28.23h2.53zm65.04-1.86h3.35v12.28h-3.35zM64.94 8.7c-.9 0-1.54.3-1.94.91-.4.6-.6 1.51-.6 2.73s.2 2.14.6 2.76c.4.62 1.05.93 1.95.93.9 0 1.55-.31 1.94-.93.39-.62.59-1.53.59-2.75s-.2-2.13-.59-2.74c-.4-.6-1.05-.91-1.95-.91zm21.47 25.64c0 1.22.2 2.14.6 2.76.4.62 1.05.93 1.95.93.9 0 1.54-.31 1.94-.93.39-.62.59-1.53.59-2.75s-.2-2.13-.6-2.74c-.39-.6-1.04-.91-1.94-.91-.9 0-1.55.3-1.94.91-.4.6-.6 1.51-.6 2.73zm67.71-3.64c-.9 0-1.55.3-1.95.91-.39.6-.59 1.51-.59 2.73s.2 2.14.6 2.76c.4.62 1.05.93 1.95.93.9 0 1.54-.31 1.94-.93.39-.62.59-1.53.59-2.75s-.2-2.13-.6-2.74c-.39-.6-1.04-.91-1.94-.91zm-74.71-22c-.81 0-1.41.26-1.79.76-.38.51-.58 1.35-.59 2.52v.36c0 1.32.19 2.26.58 2.83.4.57 1.02.86 1.87.86 1.5 0 2.25-1.24 2.25-3.71 0-1.2-.19-2.11-.56-2.71-.37-.61-.96-.91-1.76-.91zm-13.93 22c-.81 0-1.41.26-1.79.76-.38.51-.58 1.35-.59 2.52v.36c0 1.32.19 2.26.58 2.83.4.57 1.02.86 1.87.86 1.5 0 2.25-1.24 2.25-3.71 0-1.2-.19-2.11-.56-2.71-.37-.61-.96-.91-1.76-.91zm29.86-19.72c-.01-.83-.23-1.47-.64-1.92-.42-.45-.98-.68-1.69-.68s-1.27.23-1.67.68c-.4.45-.63 1.09-.69 1.92zm18.48 22c-.01-.83-.23-1.47-.64-1.92-.42-.45-.98-.68-1.69-.68s-1.27.23-1.67.68c-.4.45-.63 1.09-.69 1.92zm28.09-7.92c0-1.09.61-1.64 1.83-1.64 1.21 0 1.82.54 1.82 1.63 0 .52-.15.93-.46 1.22-.3.29-.75.43-1.36.43-1.22 0-1.83-.54-1.83-1.64zm38.6 15.25c.34-.33.5-.8.5-1.39 0-.58-.16-1.04-.5-1.36-.33-.33-.8-.49-1.41-.49-1.29 0-1.93.63-1.93 1.87 0 .59.17 1.05.5 1.38.34.33.81.49 1.42.49.61 0 1.08-.17 1.42-.5z" fill="#d2d2d2"/><path d="M43.49 8.18c.45.49.88 1.01 1.28 1.53l-7.9 6.12c-.25-.32-.5-.63-.77-.92zM9.71 44.77c-.53-.4-1.04-.83-1.53-1.28l6.73-7.39c.29.27.6.52.92.77zM8.18 6.51c.49-.45 1-.88 1.53-1.28l6.12 7.9c-.32.25-.63.5-.92.77zm36.59 33.78c-.4.53-.83 1.04-1.28 1.53l-7.39-6.73c.27-.29.52-.6.77-.92zM5.23 9.71c.4-.52.83-1.04 1.28-1.53l7.39 6.73c-.27.29-.52.6-.77.92zm36.59 33.78c-.49.45-1 .88-1.53 1.28l-6.12-7.9c.32-.25.63-.5.92-.77zM6.51 41.82c-.45-.49-.88-1-1.28-1.53l7.9-6.12c.25.32.5.63.77.92zM40.29 5.23c.53.4 1.04.83 1.53 1.28l-6.73 7.39c-.29-.27-.6-.52-.92-.77zm-26.91 41.9c-.59-.31-1.17-.64-1.73-1l5.34-8.45c.34.21.68.41 1.04.6zM11.65 3.87c.56-.36 1.14-.69 1.73-1l4.65 8.85c-.36.19-.7.39-1.04.6zm35.48 32.76c-.31.59-.64 1.16-1 1.72l-8.45-5.34c.21-.33.41-.68.6-1.03zm-8.78 9.5c-.56.36-1.13.69-1.72 1l-4.65-8.85c.35-.19.7-.39 1.03-.6zM3.87 38.35c-.36-.56-.69-1.13-1-1.72l8.85-4.65c.19.35.39.7.6 1.03zm42.26-26.7c.36.56.69 1.13 1 1.72l-8.85 4.65c-.19-.35-.39-.7-.6-1.03zm-9.5-8.78c.59.31 1.16.64 1.72 1l-5.34 8.45c-.33-.21-.68-.41-1.03-.6zM2.87 13.37c.31-.59.64-1.16 1-1.72l8.45 5.34c-.21.33-.41.68-.6 1.03zm12.65-11.5c.21-.09.43-.18.65-.26l.51-.19.72-.24 3.04 9.53c-.39.12-.76.26-1.13.41zM1.18 17.39c.08-.23.16-.47.24-.7l.19-.52c.08-.22.17-.44.26-.65l9.25 3.79c-.15.37-.29.74-.41 1.13zM17.4 48.82l-.72-.24-.51-.19c-.22-.08-.44-.17-.65-.26l3.79-9.25c.37.15.74.29 1.13.41zm30.73-33.3c.09.21.18.43.26.65l.19.51c.08.24.16.47.24.71l-9.53 3.05c-.12-.39-.26-.76-.41-1.13zM32.61 1.18c.23.08.47.16.7.24l.52.19c.22.08.44.17.65.26l-3.79 9.25c-.37-.15-.74-.29-1.13-.41zM1.87 34.48c-.09-.21-.18-.43-.26-.65l-.19-.51c-.08-.24-.16-.48-.24-.71l9.53-3.05c.12.39.26.76.41 1.13zm32.61 13.65c-.21.09-.43.18-.65.26l-.52.19c-.23.08-.47.16-.7.24l-3.05-9.53c.39-.12.76-.26 1.13-.41zm14.34-15.52c-.08.23-.16.47-.24.71l-.19.51c-.08.22-.17.44-.26.65l-9.25-3.79c.15-.37.29-.74.41-1.13zm.61-12.93c.14.64.25 1.3.34 1.97l-9.91 1.34c-.05-.4-.12-.8-.2-1.18zM28.35 49.77l-1.34-9.91c.4-.05.79-.12 1.18-.2l2.13 9.77c-.65.14-1.3.25-1.97.34zm-6.54-10.11c.39.08.78.15 1.18.2l-1.34 9.91a25.3 25.3 0 0 1-1.97-.34zM.23 21.65c.09-.67.2-1.33.34-1.97l9.77 2.13c-.08.38-.15.78-.2 1.18zM28.35.23c.67.09 1.32.2 1.97.34l-2.13 9.77c-.39-.08-.78-.15-1.18-.2zm-6.7 0l1.34 9.91c-.4.05-.79.12-1.18.2L19.68.57c.65-.14 1.3-.25 1.97-.34zM.57 30.32c-.14-.64-.25-1.3-.34-1.97l9.91-1.34c.05.4.12.8.2 1.18zM24.4 10.01L24 .02c.33-.01.66-.02 1-.02.33 0 .67.01 1 .02l-.4 9.99c-.2 0-.4-.01-.6-.01-.2 0-.4.01-.6.01zM10.01 25.6L.02 26A32.7 32.7 0 0 1 0 25c0-.33.01-.67.02-1l9.99.4c0 .2-.01.4-.01.6 0 .2.01.4.01.6zM40 25c0-.2-.01-.4-.01-.6l9.99-.4c.01.33.02.67.02 1 0 .34-.01.67-.02 1l-9.99-.4c0-.2.01-.4.01-.6zM24.4 39.99c.2 0 .4.01.6.01.2 0 .4-.01.6-.01l.4 9.99c-.33.01-.67.02-1 .02-.34 0-.67-.01-1-.02zm15.46-12.98c-.05.4-.12.8-.2 1.18l9.77 2.13c.14-.64.25-1.3.34-1.97z" fill="#d2d2d2"/></svg>
