<svg version="1" xmlns="http://www.w3.org/2000/svg" width="228" height="228" viewBox="0 0 2280 2280">
  <path d="M20 1145V20h2240v2250H20V1145zm2160 0V100H95l3 1045 2 1045h2080V1145z"/>
  <path d="M1445 1749l-330-331-317 321c-174 177-321 321-327 321-14 0-281-271-281-286 0-5 147-153 326-329l325-318-65-66-66-67V869c0-112-2-126-20-142-20-17-20-16-20 72v89l-52 46c-29 25-58 46-65 46-6 0-76-70-155-155-78-85-145-155-148-155-4 0-21 16-40 35s-40 35-47 35c-23 0-12-131 16-195 67-154 138-247 229-302 39-23 58-28 117-28 107 0 141 21 355 230 102 98 187 183 189 188 1 4-14 22-34 40-25 22-34 37-29 47 4 8 34 41 68 72l62 58 77-73 76-72-29-33c-17-18-30-38-30-46 0-21 356-358 406-384 64-35 145-33 220 5 79 39 179 148 228 249 33 67 40 91 44 160 2 48 0 84-5 87-6 4-31-10-57-30l-47-37-154 154-154 153-55-44-55-44-1-92c0-51-4-93-8-93-5 0-18 10-30 23-20 21-22 34-22 154v131l-62 57-62 56 329 329 330 330-145 145c-80 80-147 145-150 145s-154-149-335-331z"/>
</svg>
