<svg xmlns="http://www.w3.org/2000/svg" width="131" height="41" viewBox="0 0 131 41">
  <path d="M67.204 40.138l-1.784-3.481C64.57 37.917 61.793 41 56.681 41c-5.656 0-9.94-4.032-9.94-8.746 0-4.788 3.314-11.111 16.761-11.111 0-3.177-2.739-4.36-5.633-4.36-2.214 0-5.365.94-8.052 3.49l-2.56-7.242c1.768-1.103 5.844-3.929 11.916-3.929 9.047 0 12.743 5.492 12.743 14.343V40.14h-4.712v-.002zm-12.13-8.97c0 2.022 3.255 3.955 5.975 2.493 2.654-1.426 2.433-3.659 2.433-6.814-5.025 0-8.408 1.825-8.408 4.321zm-20.292 2.345c3.68 0 6.52-1.733 6.52-1.733l2.38 6.641c-1.198.655-5.156 2.321-9.864 2.321-10.832 0-15.184-7.211-15.184-15.837 0-8.147 4.874-15.556 13.555-15.556 8.528 0 14.34 7.118 12.817 18.538H26.893c.395 4.067 3.907 5.626 7.89 5.626zm-7.775-12.03h9.91c-.237-4.002-2.597-5.42-4.895-5.42-2.297 0-4.734 1.871-5.015 5.42zm63.056 18.64V10.32h4.606l1.655 4.132c1.74-3.408 5.115-5.058 8.233-5.058 3.119 0 6.278 1.517 8.008 4.632 1.85-3.311 4.136-4.62 8.074-4.62 8.29 0 9.602 7.684 9.602 11.52v19.198h-8.39l-.018-16.557c0-2.885-.418-5.945-3.167-5.945-2.256 0-4.333 2.328-4.333 6.07v16.432h-8.424s.005-16.76-.01-16.814c0-1.848-.236-5.722-3.024-5.722-2.78 0-4.393 3.244-4.393 5.979v16.558h-8.42zM0 40.124V10.318h4.606l1.655 3.895c1.042-2.84 3.645-4.737 6.762-4.737 1.436 0 3.405.412 5.293 2.145.032-.033-3.003 7.057-3.036 7.024-1.025-.865-2.13-1.204-3.405-1.204-2.78 0-3.454 3.391-3.454 6.126v16.558H0zm76.746.022V0h8.535v40.145h-8.535z"/>
</svg>
