<svg xmlns="http://www.w3.org/2000/svg" version="1.0" viewBox="0 0 300 79.629" width="300" height="79.629">
  <path d="M30.818 11.69c-6.16.158-12.953.79-14.849 1.264 1.896-.474 8.688-1.106 14.85-1.264m3.79 8.846h-3.475c-.316 1.422-.474 2.844-.632 4.265l-2.527 15.324h4.265c5.529 0 9.636-4.582 9.636-11.532 0-4.897-2.843-8.057-7.266-8.057m47.075 16.587c-2.528 0-4.265 4.897-5.213 8.846h1.421c3.16 0 5.687-2.053 6.003-4.58v-.949c0-.79-.158-1.58-.632-2.211-.157-.632-.79-1.106-1.58-1.106m82.62.632c-.159 0-.159-.158-.317-.158-.158-.158-.474-.158-.631-.158-.474 0-.948.158-1.264.474-.158.158-.316.158-.474.316-.158.158-.158.316-.316.316-.79 1.106-1.422 2.211-1.738 3.475-.158.158-.158.474-.316.79-.316.79-.474 1.738-.79 2.528-.158.631-.315 1.421-.473 2.053-.316 2.212-.632 4.581-.632 6.95 0 1.107 0 2.37.158 3.476 0 .316 0 .474.158.79l.474 1.896.473.948c.474.947.948 1.421 1.58 1.421.316 0 .474 0 .79-.158.316-.158.632-.316.948-.632.948-1.105 1.895-3.001 2.685-5.529l.474-1.895.474-2.37c.158-1.106.316-2.211.316-3.317.158-1.106.158-2.054.158-3.16.158-2.211-.158-4.58-.948-6.792 0-.316-.316-.948-.79-1.264M285.31 51.656l.79-5.37c3.475-.317 6.16-.948 8.214-2.37 2.528-1.58 5.687-4.581 5.687-10.426 0-3.16-.79-6.161-2.212-8.847-1.58-2.843-4.58-4.58-7.74-4.58h-.474c-.158-4.74-4.107-8.373-8.846-8.531-4.424 0-8.847.316-13.112.948-3.791.632-6.793 4.107-7.425 7.898 0 .158-10.11 0-16.744 0-5.213 0-7.899 2.528-7.899 2.528s-2.527-3.318-9.32-2.528c-3.318.158-6.477.632-9.794 1.264.631-4.107 1.105-8.215 1.263-12.322v-.316c0-4.897-3.949-8.846-8.846-9.004-6.477 0-13.901.948-17.693 1.738-4.107 1.105-6.95 4.897-6.792 9.162.158 3.791-1.58 15.165-1.58 15.165-4.107-3.475-9.636-5.37-15.955-5.37-5.687 0-11.374 1.263-16.43 3.948-1.737-1.895-4.264-3.159-6.792-3.001-5.055 0-8.846 0-12.48.316-2.843.158-5.37 1.738-6.95 4.265-.158-.158-.158-.316-.316-.474-1.58-2.843-4.581-4.581-7.74-4.581-6.635 0-18.167 1.896-18.641 2.212-3.95-1.738-8.215-2.686-12.638-2.528a33.07 33.07 0 00-18.166 4.897C65.73 12.322 54.198 3.16 37.769 3.16c0 0-20.062.79-23.696 1.58-4.265.948-7.266 4.897-6.95 9.162 0 3.002-.158 6.161-.79 9.479L.488 60.977c-.474 2.211-1.58 9.004 2.685 14.059 1.738 2.054 4.898 4.423 10.427 4.423 2.527 0 9.32-.316 14.849-2.843 1.421-.632 2.685-1.738 3.633-3.002 3.001 3.476 7.425 6.003 13.901 6.003 5.687 0 11.216-1.422 16.271-3.95 4.582 2.686 9.795 4.108 15.166 3.95 9.636 0 18.64-3.791 24.327-10.268 3.16 8.057 9.004 9.952 13.743 9.952 3.95 0 8.689-.474 13.428-2.843 3.95-1.896 5.687-8.373 6.477-9.794 3.949 7.898 11.848 12.795 21.8 12.795 7.898 0 15.639-2.527 21.958-7.582.473.79.947 1.421 1.421 2.053 2.054 2.37 6.003 5.213 12.796 5.213 4.897.158 9.794-1.264 13.743-3.95 2.212 2.213 5.845 4.266 11.374 4.266 4.107 0 8.215-1.106 11.848-3.001 2.686 1.895 6.16 2.843 10.268 2.843 6.477 0 12.322-2.211 16.113-6.16 3.16 3.159 8.688 6.318 18.167 6.318 8.688 0 17.376-5.529 21.8-12.953 3.475-5.53-.316-15.324-11.374-14.85M57.673 28.435c-.474 6.95-4.897 12.637-11.69 16.27l6.161 16.272c1.738 4.423 2.844 6.16 4.74 7.582-.474.316-.948.474-1.422.632-3.002.948-6.32 1.58-9.479 1.422-3.159 0-7.424-.79-10.11-8.53l-4.58-13.27H26.71L24.657 61.45a19.608 19.608 0 00-.473 4.265v.316c0 .79.158 1.58.473 2.37-3.475 1.579-8.214 2.053-11.057 2.053-2.37 0-4.582-.79-4.74-4.897 0-1.106.158-2.212.316-3.318l5.845-37.597c.474-2.843.79-5.845.79-8.688v-3.001c1.896-.474 8.688-1.264 14.85-1.264h6.792c4.107-.158 8.057.79 11.848 2.37.948.473 2.053 1.105 2.843 1.737.79.632 1.58 1.422 2.37 2.212.948 1.263 1.738 2.527 2.37 4.107.473 1.58.79 3.16.79 4.897v1.422m22.59 25.275c-.633 0-1.265.158-1.739.158H75.998v.948c.316 4.423 2.211 8.214 6.319 8.214h.947c3.95-.474 6.32-3.317 8.373-3.317.948.158 1.896.474 2.685.948l2.054 1.263c-1.422 2.054-3.16 3.792-5.371 5.055-4.107 2.686-8.846 3.95-13.743 3.95-10.426 0-16.745-5.845-17.22-15.165v-1.58c0-11.848 7.741-24.801 24.96-24.801 2.528 0 5.055.315 7.267 1.105 4.107 1.422 6.477 4.423 6.477 8.373.158 4.739-2.844 13.427-18.483 14.849m47.865 7.583c-1.422 2.37-2.685 4.897-3.633 7.582-2.844 1.422-6.003 1.738-9.162 1.738-2.686 0-5.214-1.264-6.477-8.215l-3.95-19.746c-.79-3.95-2.053-7.898-3.633-11.69 1.422-.316 2.844-.632 4.265-.79.316 0 .632-.158.948-.158h.158c.316 0 .632 0 1.106-.158h.158c.79 0 1.58-.158 2.527-.158h5.845c.632 1.264 1.264 2.528 1.738 3.792.158.474.316.79.474 1.264.316.947.474 1.895.632 2.843l2.685 18.009c2.212-4.266 4.265-8.689 6.161-13.112 1.264-3.001 2.37-6.003 3.16-9.162.315-1.106.473-2.054.79-3.16.947-.158 1.895-.158 2.843-.158h8.846c-.316 2.686-.948 5.213-2.053 7.74-3.792 8.057-8.53 15.798-13.428 23.539m49.129.158c-1.422 1.895-3.16 3.475-5.055 4.739-.316.316-.79.474-1.106.79 0 0-.158 0-.158.157-.316.158-.632.474-.948.632 0 0-.158 0-.158.158-.316.158-.632.316-1.105.474 0 0-.158 0-.158.158-.474.158-.79.316-1.264.474-.79.316-1.738.632-2.686.948-.158 0-.158 0-.316.158-.316.158-.632.158-.947.316-.158 0-.316 0-.474.158-.316 0-.632.158-.948.158-.158 0-.316 0-.474.158-.316 0-.632.158-.948.158H154.825c-.316 0-.79-.158-1.106-.158-.158 0-.474-.158-.632-.158-.315 0-.631-.158-.947-.158-.158 0-.474-.158-.632-.158-.316-.158-.632-.158-.79-.316-.158-.158-.474-.158-.632-.316-.316-.158-.474-.158-.79-.316-.158-.158-.474-.158-.632-.316-.158-.158-.474-.316-.632-.474-.158-.158-.316-.316-.631-.316-.158-.158-.474-.316-.632-.474l-.474-.474-.474-.474-.474-.473-.474-.474a2.18 2.18 0 01-.474-.632c-.158-.158-.316-.316-.474-.632-.158-.158-.316-.474-.316-.632-.158-.158-.158-.474-.316-.632-.158-.158-.158-.474-.316-.632-.158-.158-.158-.474-.316-.632-.158-.316-.158-.474-.316-.79 0-.157-.158-.473-.158-.631 0-.316-.157-.474-.157-.79 0-.158-.158-.474-.158-.632-.158-.79-.316-1.58-.316-2.37v-1.895c0-8.847 4.107-16.271 10.426-20.694 1.105-.79 2.053-1.422 3.317-1.896 1.106-.474 2.37-.948 3.475-1.422h.158c.632-.158 1.106-.316 1.738-.474h.158c.632-.158 1.106-.158 1.738-.316h.158c.632-.158 1.263-.158 1.737-.158h4.423c.474 0 .79.158 1.264.158h.316c.474.158.948.158 1.422.316.158 0 .316.158.474.158.316.158.632.158.948.316.158 0 .316.158.474.158.316.158.79.316 1.105.474.158 0 .316.158.474.316.158.158.474.316.632.474.158.158.316.158.474.316.158.158.316.316.632.474.316.158.474.474.79.632l.474.474.474.473.316.316c.316.474.79.948 1.105 1.422.158.316.316.474.474.79 0 .158.158.158.158.316 1.264 2.685 2.054 5.529 1.896 8.53-.158 5.055-2.054 10.584-5.53 15.166m31.121-46.286l-.948 6.635-1.737 11.374-4.424 28.119c0 .315-.158.631-.158.947v1.106c0 .158.158.316.158.474v.158c0 .158.158.316.316.474l.158.158.316.316.158.158c.632.474 1.422.632 2.212.632-.632.948-1.422 1.737-2.37 2.211-.158 0-.158.158-.316.158-.158.158-.474.316-.632.474-.157.158-.315.158-.473.158-.158.158-.474.158-.632.316-.316.158-.79.316-1.264.474-.158 0-.316.158-.632.158-.316.158-.632.158-.948.158-.158 0-.316 0-.632.158-.316 0-.632.158-1.105.158H190.684c-.158 0-.316 0-.316-.158-.157 0-.157 0-.315-.158-.158 0-.316-.158-.316-.158s-.158 0-.158-.158c-.158 0-.316-.158-.474-.158h-.158a4.938 4.938 0 01-1.738-1.422v-.158c-.158-.158-.158-.316-.316-.474 0 0 0-.158-.158-.158-.158-.158-.158-.315-.158-.473v-.158c0-.158-.158-.316-.158-.632v-.158c0-.158-.158-.474-.158-.632v-.158-.79c0-.79 0-1.422.158-2.212l6.477-40.282c.158-.474.158-.948.158-1.58.316-1.895.474-3.633.632-5.529v-4.58c.316 0 .474-.159.79-.159.316 0 .632-.158.948-.158.473-.158 1.105-.158 1.737-.316.316 0 .632 0 .948-.158.948-.158 1.896-.158 3.001-.316.79 0 1.422-.158 2.212-.158 1.896-.158 3.95-.158 5.845-.158 0 1.264-.158 2.844-.158 4.424-.474 1.105-.632 1.737-.632 2.211m43.126 50.709c-1.896 2.843-6.003 4.739-10.9 4.739h-1.58c-.474 0-.947-.158-1.421-.316l-1.422-.474c-2.212-.948-3.475-3.16-2.844-7.425l.158-.79c-.158.474-.473.79-.79 1.264-.473.79-1.105 1.58-1.58 2.212-.631.632-1.263 1.264-1.895 1.738-.316.315-.632.473-.948.79-.631.473-1.421.947-2.053 1.263-1.264.632-2.686 1.264-4.107 1.58-.632.158-1.264.316-1.896.316-.632 0-1.106.158-1.738.158H217.065c-.157 0-.473 0-.631-.158-.158 0-.316 0-.474-.158-.158 0-.316-.158-.474-.158-.158 0-.316-.158-.474-.158 0 0-.158 0-.158-.158-3.633-1.58-4.74-5.845-3.791-11.532l2.527-16.113c0-.474.158-.948.158-1.264v-.474c0-.316 0-.474.158-.79v-.631-.632c.158-.948.158-1.738.158-2.686v-.316-.947-.316-.948c0-.948 0-1.738-.158-2.844.158 0 .316-.158.632-.158.158 0 .316 0 .632-.158h14.375c.158 3.476-.632 8.215-1.264 12.638l-2.211 13.585c0 .316-.316 2.686-.316 3.318 0 .632 0 1.422.158 2.053 0 .316.158.632.316 1.106.158.158.316.474.474.474h.158c.474 0 1.263-.474 2.211-1.422 1.422-1.421 2.528-3.159 3.476-4.897.316-.79.79-1.421 1.105-2.37.316-.79.632-1.737.948-2.527.158-.474.316-.948.316-1.422l1.106-7.74c.158-1.106.316-2.054.474-3.001.158-1.422.316-2.844.474-4.424.158-1.421.316-3.001.316-4.739 1.895-.158 9.32-1.106 15.007-.948a88.091 88.091 0 01-1.422 12.796l-3.001 18.956c0 2.686 1.263 4.108 3.633 4.108m8.846-5.055c0-.948 0-1.896.158-2.686l3.16-19.746c-.632 0-.948.158-1.264.158-.79.158-1.106.158-1.422.316-.474.158-1.106.158-1.58.316a25.769 25.769 0 010-8.53c.632 0 1.264 0 2.212-.159h3.791c1.106-3.001 2.844-5.529 3.476-9.004.948-.158 2.211-.316 3.475-.474.632 0 .948-.158 1.422-.158s.948 0 1.58-.158c1.58-.158 3.317-.158 5.37-.158-.157 2.686-.473 6.003-.947 9.952h2.843c4.423 0 6.161-.474 7.583-1.58.79 1.422 1.264 3.002 1.264 4.582 0 2.211-.632 3.633-7.583 3.791h-5.213l-3.16 19.746v1.264c0 2.686 1.264 4.897 3.318 4.897 3.317 0 4.107-2.527 5.37-2.527 3.002.474 4.74 2.211 4.74 2.211-2.212 4.265-7.898 8.215-13.901 8.215-9.163-.158-14.376-4.265-14.692-10.268z"/>
</svg>
