<svg xmlns="http://www.w3.org/2000/svg" width="120" height="15.4" viewBox="0 0 120 15.4">
  <path d="M9 .5c2.6-.3 4.9 1.6 5.1 4.2v.8c0 3-2 4.8-5.1 4.8H2.7v4.9H0V.5h9zm.1 7.2c1.2.1 2.2-.8 2.3-2v-.3c.1-1.3-.8-2.4-2.1-2.6H2.6v4.9h6.5zM24 15.4c-4.7 0-8.5-3.2-8.5-7.7S19.3 0 24 0s8.5 3.2 8.5 7.7-3.9 7.7-8.5 7.7m0-12.9c-2.9-.2-5.5 2-5.7 4.9v.4c0 3 2.2 5.3 5.7 5.3s5.7-2.2 5.7-5.3-2.2-5.3-5.7-5.3M43.5 15.4c-4.9 0-8.5-3.2-8.5-7.7S38.7 0 43.5 0c2.5-.1 4.9.7 6.8 2.2l-1.4 2.1c-1.5-1.2-3.4-1.8-5.3-1.9-3.6 0-5.8 2.2-5.8 5.1s2.2 5.3 5.8 5.3c1.9 0 3.8-.6 5.4-1.8l1.4 2.1c-2.1 1.6-4.5 2.3-6.9 2.3M72.8 11.5L71.1 15h-2.9L75.3.4h2.8L85.3 15h-2.9l-1.6-3.5h-8zm1.1-2.4h5.6l-2.8-6-2.8 6zM99.5 15.1V8.8H90v6.3h-2.7V.5H90v6h9.6v-6h2.7v14.6h-2.8zM106.3 15.1V.5h2.7v6.8l7.4-6.8h3.3l-7.5 7 7.8 7.6h-3.6L109 8v7.1h-2.7zM62.2 5.7h-6.3v-3h10.4V.4H53V15h9c3.2 0 5.4-1.8 5.4-4.7s-2-4.6-5.2-4.6m.2 6.8h-6.5V8.2h6.5c1.6 0 2.7.9 2.7 2.2s-.8 2.2-2.7 2.1"/>
</svg>
