<svg xmlns="http://www.w3.org/2000/svg" width="149" height="22" viewBox="0 0 149 22">
  <path d="M81.289 10.078c2.696 1.623 2.452 4.706 2.452 4.706v2.027c-.324 5.032-7.263 4.89-7.263 4.89-7.265 0-7.106-4.764-7.106-4.764v-2.49h5.653v1.713c0 1.46 1.41 1.526 1.41 1.526 1.545.059 1.673-1.43 1.673-1.43.211-1.451-1.386-2.363-1.386-2.363-1.583-.813-4.22-2.233-4.22-2.233-1.3-.851-1.828-1.623-1.828-1.623-.932-1.176-.872-3.003-.872-3.003V5.452c0-2.191.589-2.82.589-2.82C71.892-.188 77.127.157 77.127.157c6.656.181 6.249 4.321 6.249 4.321l.01 2.527H78.08V5.29c0-1.216-1.48-1.298-1.48-1.298-1.137 0-1.4.77-1.4.77-.63 1.178.445 2.192.445 2.192.548.608 3.309 1.888 3.309 1.888.892.345 2.335 1.237 2.335 1.237zM54.13.749h8.774l.568 20.256H58.2l-.127-15.181h-.365L54.96 21.003h-5.519l-2.78-15.185h-.413l-.063 15.187h-5.247L41.381.849h8.862L51.94 11.88h.415L54.131.75zm-31.23.084h8.914l3.49 20.15h-5.647L27.59 5.359h-.464l-2.067 15.624h-5.648l3.49-20.15zM141.41 9.8h6.83v6.27s-.067 1.783-.334 2.344c0 0-.24.961-1.175 1.655 0 0-1.015 1.066-4.377 1.438-.128.007-7.683.568-7.848-4.95V5.884s-.851-5.883 6.818-5.883c0 0 4.99-.163 6.31 2.8 0 0 .651.793.477 4.068h-5.316V5.19s-.01-1.356-1.392-1.356c0 0-1.438.061-1.438 1.198V16.07s-.061 1.482 1.56 1.482c0 0 1.333-.029 1.333-1.589v-3.19h-1.448V9.8zm-17.626 3.28L123.406.753h5.32v20.255h-6.262l-5.59-12.323h-.234l.314 12.323H111.7V.754h6.455l5.398 12.326h.231zm-24.912 2.882V.767h5.633v15.377c0 5.541-7.017 5.459-7.017 5.459-8.073 0-7.481-5.72-7.481-5.72V.766h5.762l.017 15.236c0 1.708 1.623 1.621 1.623 1.621 1.54 0 1.463-1.662 1.463-1.662zm-86.958-5.885c2.698 1.624 2.456 4.706 2.456 4.706v2.028c-.327 5.032-7.265 4.891-7.265 4.891C-.158 21.702 0 16.938 0 16.938v-2.494h5.654v1.717c0 1.46 1.411 1.524 1.411 1.524 1.542.06 1.672-1.429 1.672-1.429.21-1.452-1.389-2.365-1.389-2.365-1.582-.81-4.218-2.232-4.218-2.232-1.299-.85-1.826-1.622-1.826-1.622C.369 8.86.43 7.035.43 7.035V5.452c0-2.192.59-2.82.59-2.82.007-.015.02-.028.027-.044C2.49.378 6.52.161 6.52.161 7.255.124 7.755.156 7.755.156c6.655.182 6.25 4.32 6.25 4.32l.01 2.53H8.708V5.289c0-1.217-1.48-1.297-1.48-1.297-1.137 0-1.4.77-1.4.77-.63 1.175.446 2.191.446 2.191.548.61 3.307 1.888 3.307 1.888.892.344 2.333 1.236 2.333 1.236z"/>
</svg>
