<svg version="1" xmlns="http://www.w3.org/2000/svg" width="240" height="231" viewBox="0 0 2400 2310">
  <path d="M985 2295c-189-31-397-129-550-259-64-54-159-152-185-190-8-13-32-48-52-79-116-174-176-370-185-599-6-148-3-156 42-125 11 8 45 27 75 44 65 35 318 179 340 193 8 5 37 21 65 36 27 15 82 46 122 70 39 24 78 44 86 44s26-9 40-20 27-20 30-20c2 0 49-26 103-57 55-31 143-82 197-112 54-31 105-60 115-66 9-5 49-28 87-49 58-33 251-144 305-176 32-20 127-74 170-97 25-14 50-29 55-33 6-4 37-23 70-41 63-34 96-53 186-105 134-78 168-94 174-85 16 27 79 204 96 270 25 100 34 290 20 428-26 256-145 501-337 695-82 83-214 181-281 210-15 6-35 17-43 23-15 11-151 63-220 84-108 32-377 40-525 16z"/>
  <path d="M715 1301c-14-14-206-121-216-121-5 0-9-4-9-10 0-5-4-10-10-10-5 0-50-24-100-52-50-29-115-66-144-83C27 907 28 908 34 870c10-59 26-110 36-110 12 0 336 183 392 221 15 11 30 19 33 19 4 0 60 32 126 71l120 70 107-62c59-34 148-86 197-115 50-29 110-63 135-77 25-13 115-65 200-114 85-50 196-113 245-142 50-28 97-55 105-61 28-17 145-82 178-98 17-9 32-20 32-24s4-8 10-8c5 0 44-20 86-45 41-25 80-45 84-45 5 0 14 9 20 20s22 31 35 46c46 49 45 50-201 189-30 17-94 54-144 83-50 28-95 52-99 52-5 0-11 4-13 9-1 5-25 20-53 35-27 14-57 31-65 36s-98 57-200 115-192 110-200 115c-21 13-102 59-200 115-47 26-122 70-166 96-83 50-103 56-119 40z"/>
  <path d="M690 990c-25-16-49-30-54-30s-17-6-25-14c-9-8-38-26-66-41-27-14-71-39-97-55-25-15-66-39-90-53-23-13-72-42-108-62-36-21-82-48-102-59-21-12-38-25-38-31 0-22 55-125 67-125 7 0 57 25 111 57 196 113 285 163 293 163 5 0 9 4 9 9s10 13 22 17c12 3 43 20 70 36 37 23 55 28 78 23 16-4 30-11 30-16s4-9 9-9c7 0 67-32 111-60 35-23 281-160 286-160 2 0 10-5 17-11 12-11 40-27 194-113 49-27 124-70 168-96s100-59 125-73 79-45 120-69 83-46 92-50c24-10 118 69 118 100 0 12-5 22-10 22-6 0-69 34-140 75s-134 75-139 75-11 4-13 9c-1 5-25 21-53 35-27 15-81 45-120 68-38 22-88 50-110 63-22 12-80 45-128 73-49 29-91 52-93 52-3 0-17 8-32 19-30 20-194 117-257 151-42 22-48 25-132 78-30 17-57 32-61 32s-27-14-52-30z"/>
  <path d="M714 706c-11-8-41-26-65-39-24-14-70-40-103-58-32-19-84-49-115-66-31-18-86-49-123-70-38-20-68-43-68-50 0-13 12-30 62-86l28-31 37 21c21 12 52 29 70 40 104 61 126 73 134 73 5 0 9 4 9 9s9 13 21 16c11 4 47 22 79 42l58 34 84-46c117-65 169-95 198-113 14-9 39-23 55-32 34-18 222-126 245-140 8-5 38-22 65-38 28-16 79-46 115-67 36-20 88-50 117-66l51-28 71 35c39 19 71 39 71 44 0 10-49 50-62 50-5 0-14 5-21 10-7 6-82 51-167 99-85 49-193 110-240 138-47 27-92 52-100 56s-44 25-80 47-81 48-100 56c-19 9-37 20-40 24s-29 20-59 36-61 34-70 39c-38 24-129 75-132 75s-14-6-25-14z"/>
</svg>
