<svg xmlns="http://www.w3.org/2000/svg" width="80" height="80" viewBox="0 0 80 80">
  <path d="M40.001 0C62.091 0 80 17.905 80 40c0 22.085-17.909 39.998-39.999 39.998C17.911 79.998 0 62.085 0 39.999 0 17.905 17.91 0 40.001 0zm22.732 57.38c3.636-4.02 5.466-9.19 5.139-14.553-.338-5.522-2.918-10.635-7.27-14.392-7.186-6.207-18.803-6.08-25.892.277-2.587 2.315-5.51 5.492-5.633 5.628a4.984 4.984 0 0 0 7.34 6.744c.026-.031 2.72-2.96 4.944-4.949 3.733-3.348 9.703-2.768 12.726-.156 2.302 1.986 3.662 4.632 3.834 7.453.162 2.661-.752 5.24-2.575 7.248-3.85 4.253-11.166 11.247-11.24 11.32a4.98 4.98 0 0 0-.155 7.044 4.967 4.967 0 0 0 3.603 1.54 4.974 4.974 0 0 0 3.44-1.378c.31-.302 7.646-7.317 11.739-11.826zm-30.132.354c4.764 0 9.535-1.625 13.134-4.854 2.583-2.32 5.509-5.495 5.633-5.623a4.985 4.985 0 0 0-.298-7.042 4.978 4.978 0 0 0-7.038.294c-.028.03-2.725 2.956-4.946 4.951-3.735 3.343-9.703 2.77-12.73.154-2.3-1.988-3.66-4.636-3.834-7.459-.162-2.657.756-5.23 2.576-7.248 3.854-4.248 11.165-11.243 11.24-11.314a4.984 4.984 0 0 0 .158-7.044 4.98 4.98 0 0 0-7.044-.16c-.31.296-7.647 7.313-11.735 11.826-3.643 4.017-5.465 9.188-5.143 14.548.34 5.524 2.92 10.636 7.269 14.39 3.538 3.057 8.144 4.581 12.758 4.581z"/>
</svg>
