<svg xmlns="http://www.w3.org/2000/svg" width="130" height="56" viewBox="0 0 130 56">
  <path d="M1.507 33.925c.036-.296.248-.504.517-.504.259 0 .472.207.513.501L3.65 41.07l-1.114 7.028v-.002.002c-.042.295-.254.499-.513.499-.27 0-.481-.206-.517-.503l-.94-7.024.94-7.145zm4.737-4.41c.037-.3.263-.518.536-.518.27 0 .49.212.535.519L8.753 41.07 7.314 52.373c-.043.306-.263.52-.534.52-.273 0-.499-.22-.536-.522L4.98 41.07l1.264-11.554zm20.03-9.694c.026-.54.454-.965.974-.965.516 0 .943.424.973.965l1.14 21.26-1.14 13.74v-.004c-.03.54-.457.965-.973.965-.52 0-.948-.425-.974-.96l-1.006-13.74 1.006-21.261zm-10.098 7.167c.031-.424.357-.743.755-.743.395 0 .72.319.754.741l1.29 14.089-1.29 13.628c-.035.422-.359.74-.754.74-.398 0-.724-.318-.755-.74l-1.135-13.628 1.135-14.087zm20.36-14.204c.022-.664.546-1.185 1.195-1.185.642 0 1.167.52 1.193 1.184l.988 28.303-.988 13.509c-.027.665-.55 1.184-1.193 1.184-.649 0-1.173-.52-1.194-1.18l-.877-13.513.877-28.302zm21.025-4.376a1.648 1.648 0 0 1 1.632-1.628c.885 0 1.617.73 1.632 1.626l.69 32.69-.69 13.12v.01-.01c-.016.897-.747 1.628-1.632 1.628-.887 0-1.62-.73-1.632-1.618l-.617-13.141.617-32.677zM46.965 12.58a1.416 1.416 0 0 1 1.414-1.406c.77 0 1.392.616 1.413 1.406l.84 28.51-.84 13.304v-.01c-.02.787-.642 1.406-1.413 1.406a1.415 1.415 0 0 1-1.413-1.4l-.747-13.3.746-28.51zm-25.76 15.428c.029-.487.399-.853.864-.853.46 0 .83.365.863.847l1.215 13.072-1.215 13.742c-.035.484-.405.85-.863.85-.465 0-.835-.366-.864-.85l-1.071-13.742 1.07-13.066zm-10.016-.648c.034-.365.306-.63.645-.63.336 0 .605.264.646.63l1.363 13.712-1.364 13.211c-.04.366-.31.63-.645.63-.34 0-.611-.264-.645-.634l-1.2-13.207 1.2-13.712zm41.052-13.737a1.526 1.526 0 0 1 1.525-1.518c.835 0 1.503.666 1.521 1.515l.764 27.473-.764 13.218V54.3c-.018.85-.686 1.515-1.52 1.515a1.523 1.523 0 0 1-1.526-1.507l-.68-13.217.68-27.468zm-20.858 1.338c.027-.603.502-1.075 1.086-1.075.578 0 1.056.472 1.083 1.075l1.063 26.122-1.063 13.649c-.027.603-.505 1.074-1.083 1.074-.584 0-1.06-.471-1.083-1.07l-.943-13.653.94-26.122zm10.346-3.13c.021-.727.594-1.296 1.305-1.296.708 0 1.281.569 1.303 1.296l.913 29.257-.913 13.424v.006-.005c-.026.722-.595 1.291-1.303 1.291a1.31 1.31 0 0 1-1.303-1.287l-.812-13.43.81-29.256zM79.48 0c14.59 0 26.55 11.189 27.81 25.452a15.816 15.816 0 0 1 6.122-1.229c8.74 0 15.826 7.086 15.826 15.827 0 8.742-7.086 15.829-15.826 15.829-.283 0-43.83-.021-43.87-.027a1.913 1.913 0 0 1-1.71-1.87V3.752c.012-.923.33-1.398 1.525-1.86A28.285 28.285 0 0 1 79.479 0zM62.852 5.447c.014-.958.795-1.74 1.745-1.74.947 0 1.728.782 1.742 1.737l.775 35.654-.775 12.941v-.014c-.014.958-.795 1.738-1.742 1.738-.95 0-1.731-.78-1.744-1.725l-.715-12.94.714-35.651z"/>
</svg>
