<svg xmlns="http://www.w3.org/2000/svg" width="140" height="39" viewBox="0 0 140 39">
  <path d="M11.22 2.346c.983 0 5.265-.32 10.471 3.61.234.176.282.51.112.747L19.3 10.208a.542.542 0 0 1-.774.114c-.46-.357-1.245-.92-2.166-1.39-1.478-.756-3.444-1.395-5.14-1.395-1.697 0-4.419.555-4.419 3.226 0 2.15 1.898 2.957 7.762 4.402 3.814.99 8.265 2.822 8.265 8.669 0 5.376-4.468 8.769-10.634 8.769-3.715 0-8.808-1.41-12.043-4.668a.542.542 0 0 1-.021-.73l2.813-3.31a.541.541 0 0 1 .782-.048c1.069 1 4.193 3.531 8.452 3.531 5.074 0 4.872-3.058 4.872-3.51 0-.975-.705-2.336-3.209-3.042-2.503-.706-8.786-1.882-11.138-4.62-1.445-1.714-1.647-3.612-1.647-5.04 0-3.226 2.084-8.82 10.165-8.82zm26.176 7c4.524 0 10.445 3.329 10.445 11.724S41.545 32.603 37.64 32.603c-4.927 0-7.194-3.043-7.194-3.043v8.682c0 .3-.243.544-.543.544h-4.66a.543.543 0 0 1-.543-.544V10.37c0-.3.243-.543.543-.543h4.644c.3 0 .543.243.543.543v2.306s2.442-3.328 6.967-3.328zm-1.205 18.3c4.117 0 5.841-3.544 5.841-6.672 0-3.128-1.628-6.576-5.905-6.576s-5.778 4.182-5.778 6.576c0 3.926 2.682 6.671 5.842 6.671zm25.057-18.3c7.31 0 11.938 5.627 11.938 11.676s-4.82 11.635-11.89 11.635-11.89-5.427-11.89-11.635c0-5.666 4.532-11.675 11.842-11.675zm.048 18.3c2.985 0 6.145-2.14 6.145-6.644 0-4.505-3.607-6.604-6.145-6.604-3.304 0-6.24 2.458-6.24 6.604 0 4.145 3.256 6.643 6.24 6.643zm26.51-13.376c0 .3-.243.543-.543.543h-5.298v9.8c0 1.15.127 2.777 2.521 2.777 1.263 0 2.116-.382 2.642-.742a.434.434 0 0 1 .678.36v3.875a.542.542 0 0 1-.314.493c-.74.347-2.712 1.153-5.017 1.153-5.011 0-6.16-3.99-6.16-6.512V14.813H74.08a.543.543 0 0 1-.542-.543v-3.957c0-.3.243-.543.542-.543h2.235V4.409c0-.3.243-.543.542-.543h4.564c.3 0 .544.243.544.543v5.36h5.298c.3 0 .543.244.543.544v3.957zm8.716-10.744a3.526 3.526 0 1 1-7.052 0 3.526 3.526 0 0 1 7.052 0zm-1.247 28.62h-4.574a.543.543 0 0 1-.542-.543v-21.29c0-.3.242-.543.542-.543h4.574c.3 0 .543.243.543.543v21.29c0 .3-.243.543-.543.543zm5.586-17.333H98.66a.543.543 0 0 1-.543-.542v-3.958c0-.3.243-.543.543-.543h2.202V8.333c0-.957.16-6.99 6.927-6.99 3.351 0 4.445.75 4.445.75v4.07c0 .407-.144.742-.575.575-.43-.168-1.7-.503-2.73-.503-1.028 0-2.44.598-2.44 2.418V9.77h8.293c.225 0 .426.138.507.347l5.803 15.007 5.212-14.958a.542.542 0 0 1 .512-.364h5.098c.241 0 .409.24.322.465a16436.38 16436.38 0 0 1-8.846 22.853c-.957 2.442-2.585 5.77-7.254 5.77-2.708 0-4.454-.91-5.18-1.384a.543.543 0 0 1-.197-.686l1.663-3.565a.274.274 0 0 1 .392-.12c.476.292 1.559.859 2.82.859 1.855 0 2.68-2.191 2.68-2.191l-7.11-16.99h-4.68v16.83c0 .3-.243.543-.543.543h-4.587a.543.543 0 0 1-.543-.543l.011-16.83zm32.14-1.552c0-1.93 1.57-3.5 3.5-3.5 1.929 0 3.499 1.57 3.499 3.5s-1.57 3.5-3.5 3.5-3.5-1.57-3.5-3.5zm2.023-1.94v3.706h.815V13.84h.641l.794 1.187h.954l-.906-1.324c.471-.175.794-.55.794-1.16 0-.35-.111-.64-.318-.847-.243-.243-.609-.376-1.08-.376h-1.694zm1.641 1.8h-.826v-1.065h.81c.398 0 .641.18.641.53v.01c0 .313-.228.524-.625.524z"/>
</svg>
