<svg xmlns="http://www.w3.org/2000/svg" viewBox="0 0 400 102"><g fill="#d2d2d2"><path d="M338.3 75.6c-2 0-3.7-1.7-3.7-3.7V26.4c0-2 1.6-3.7 3.7-3.7 2 0 3.7 1.6 3.7 3.7v45.5c0 2-1.7 3.7-3.7 3.7zM212.4 65.1c-1.5-1.2-3.6-1-4.9.5-3.3 4.1-11.5 3.1-13.6 2.2-3.1-1.2-4.6-3.8-4.6-7.6V35.3h16.3c2 0 3.7-1.6 3.7-3.7 0-2-1.6-3.7-3.7-3.7h-16.3V9.3c0-1.9-1.5-3.5-3.5-3.5-1.9 0-3.4 1.5-3.4 3.5v50.9c0 6.6 3.2 11.7 8.9 14 1.8.7 4.6 1.3 7.7 1.3 4.9 0 10.5-1.4 13.9-5.6 1.2-1.5 1-3.6-.5-4.8zM155.8 75.8c-1.1 0-2.3-.1-3.4-.2-12-1.5-19.2-7.1-19.2-14.8 0-2 1.6-3.7 3.7-3.7 2 0 3.7 1.7 3.7 3.7 0 3.6 5 6.5 12.8 7.5 7.8 1 13.3-2.9 14.1-5.9.5-1.8.3-3.4-.5-4.7-.9-1.4-2.4-2.3-4.7-2.8-15.7-2.8-26.1-5.4-27.6-15.3-.5-3.6.5-7.2 2.9-10 3.4-4 9.3-6.3 16.2-6.3 12.6 0 20.8 5.6 20.8 14.4 0 2-1.7 3.7-3.7 3.7s-3.7-1.7-3.7-3.7c0-5.2-7.2-7-13.4-7-4.6 0-8.6 1.4-10.6 3.7-1 1.2-1.5 2.6-1.2 4.1.6 3.7 3.9 6 21.7 9.1h.1c5.4 1.1 8.2 4 9.5 6.1 1.9 3 2.4 6.7 1.4 10.5-1.8 6.1-9 11.6-18.9 11.6zM240.6 75.8c-14.5 0-26.3-11.8-26.3-26.2 0-14.5 11.8-26.2 26.3-26.2 13.2 0 24.5 9.9 26.1 23 .2 1.7-.7 3.1-1.3 3.8-.9 1-2.1 1.6-3.3 1.6h-40.3c1 9.4 9.1 16.8 18.8 16.8 6.5 0 13.1-3.4 15.9-8.1 1-1.8 3.3-2.3 5-1.3s2.4 3.3 1.3 5c-4 6.8-13 11.6-22.2 11.6zm-18.2-31.5h36.4c-2.3-7.9-9.7-13.6-18.2-13.6-8.6 0-15.9 5.7-18.2 13.6zM299.9 23.3c-7.4 0-14.1 3.1-18.9 8v-4.4c0-2-1.7-3.7-3.7-3.7s-3.7 1.6-3.7 3.7V90c0 2 1.6 3.7 3.7 3.7 2 0 3.7-1.7 3.7-3.7V67.7c4.8 5 11.5 8 18.9 8 14.5 0 26.2-11.8 26.2-26.2 0-14.4-11.7-26.2-26.2-26.2zm0 45.1c-10.4 0-18.9-8.5-18.9-18.9 0-10.4 8.5-18.9 18.9-18.9 10.4 0 18.9 8.5 18.9 18.9 0 10.4-8.5 18.9-18.9 18.9zM390.8 75.4c-3.6 0-7.2-1.6-10.5-4.7-2.5-2.4-18.5-18.5-19.1-19.2-.7-.7-1.1-1.6-1.1-2.6s.4-1.9 1.1-2.6l22-21.5c1.5-1.4 3.8-1.4 5.2.1 1.4 1.4 1.4 3.8-.1 5.2L369 48.9c4.7 4.8 14.5 14.6 16.3 16.4 2 1.9 3.9 2.8 5.7 2.7h2.7c2 0 3.7 1.7 3.7 3.7s-1.7 3.6-3.7 3.7h-2.9zM355.2 75.5c-2 0-3.7-1.6-3.7-3.7V9.2c0-2 1.7-3.7 3.7-3.7s3.7 1.6 3.7 3.7v62.6c0 2.1-1.7 3.7-3.7 3.7zM338.4 15.2c2.6 0 4.7-2.1 4.7-4.7s-2.1-4.7-4.7-4.7-4.7 2.1-4.7 4.7 2.1 4.7 4.7 4.7z"/></g><path fill="#d2d2d2" d="M92.8 27.3L76.4 10.8C70 4.5 61.6 1 52.6 1s-17.4 3.5-23.7 9.8L12.5 27.3C6.1 33.6 2.6 42 2.6 51s3.5 17.4 9.8 23.7l16.4 16.4c6.3 6.3 14.8 9.8 23.7 9.8 8.7 0 17-3.3 23.3-9.4l16.8-16.8c6.3-6.3 9.8-14.8 9.8-23.7.2-9-3.2-17.4-9.6-23.7z"/><path fill="#fff" d="M64.7 79.9c-3.1 3-7.4 4.9-12 4.9-4.8 0-9.1-1.9-12.3-5.1l8.1-8.1c1.1 1.1 2.5 1.7 4.2 1.7 1.6 0 3.1-.7 4.2-1.7l16.4-16.4c1.1-1.1 1.7-2.5 1.7-4.2 0-1.6-.7-3.1-1.7-4.2-1.1-1.1-2.5-1.7-4.2-1.7s-3.1.7-4.2 1.7L48.5 63.3c-3.1 3.1-7.5 5.1-12.3 5.1-4.8 0-9.1-2-12.3-5.1-3.1-3.1-5.1-7.5-5.1-12.3 0-4.8 1.9-9.1 5.1-12.3l16.4-16.4c3.1-3.1 7.5-5.1 12.3-5.1s9.1 1.9 12.3 5.1l-8.1 8.1c-1.1-1.1-2.5-1.7-4.2-1.7s-3.1.7-4.2 1.7L32 46.8c-1.1 1.1-1.7 2.5-1.7 4.2 0 1.6.7 3.1 1.7 4.2 1.1 1.1 2.5 1.7 4.2 1.7 1.6 0 3.1-.7 4.2-1.7l16.4-16.4c3.1-3.1 7.5-5.1 12.3-5.1s9.1 1.9 12.3 5.1c3.1 3.1 5.1 7.5 5.1 12.3 0 4.8-1.9 9.1-5.1 12.3L64.7 79.9z"/></svg>
