<svg width="120" height="46" viewBox="0 0 120 46" xmlns="http://www.w3.org/2000/svg">
  <path d="M18 14L0 16.47V23l18-1.94V14zm-6 33V23l-6 .684V47h6zm26-9l-10 .308V46h10v-8zm25 8h9V6l-9 1.269V46zM27 12l-7 .985V46h7V12zm7 13l-6 .55V33l6-.347V25zm27 12l-11 .362V46h11v-9zm26 0l-13 .385V46h13v-9zm12.668-17.838c-.438-5.991 1.438-7.414 3.332-8.2L102.994 1C93.963 2.878 89.529 9.384 90.04 20l9.628-.838zM38 11l-10 1.42V20l10-1.107V11zm70.903 1.102c1.041 2.198-.031 5.496-2.57 8.546C102.414 25.356 92 35 92 35l14.952-.5c9.135-9.095 12.419-14.618 13.002-21.508.312-3.653-.984-7.162-3.561-9.641-2.82-2.717-6.944-3.827-11.462-3.164v9.935c1.826-.104 3.314.59 3.972 1.98zM120 46V36l-30 .901.002 9.099H120zM87 4L74 5.891V15l13-1.478V4zm-4 17l-9 .753V31l9-.48V21zM48 9l-8 1.12V46h8V9z" fill="#000" fill-rule="evenodd"/>
</svg>
