<svg xmlns="http://www.w3.org/2000/svg" width="194" height="49" viewBox="0 0 194 49"><path fill="#231F20" fill-rule="evenodd" d="M5 8h23.112v5.154h-8.334V39.57h-6.153V13.154H5V8zm63.463 2.806l5.875-2.128v18.254l7.934-9.405h6.753l-8.67 10.185 8.715 11.86h-6.983l-7.75-10.779v10.778h-5.874V10.806zm39.898 9.299c.946.998 1.684 2.205 2.209 3.623.529 1.415.796 3.004.796 4.749 0 1.812-.275 3.438-.817 4.868-.542 1.434-1.295 2.647-2.256 3.647a9.682 9.682 0 0 1-3.444 2.286c-1.336.525-2.794.791-4.373.791-1.643 0-3.126-.271-4.443-.813-1.32-.546-2.442-1.314-3.373-2.309-.932-.996-1.653-2.202-2.162-3.623-.514-1.418-.77-3.001-.77-4.752 0-1.813.266-3.437.789-4.869.529-1.43 1.277-2.639 2.234-3.621a9.808 9.808 0 0 1 3.445-2.262c1.332-.528 2.79-.795 4.373-.795 1.583 0 3.039.267 4.372.795a9.442 9.442 0 0 1 3.42 2.285zm-3.247 11.091c.217-.816.324-1.688.324-2.624 0-2.022-.417-3.659-1.263-4.912-.842-1.252-2.09-1.879-3.747-1.879-1.564 0-2.746.633-3.563 1.902-.81 1.265-1.22 2.867-1.22 4.794 0 2.177.424 3.862 1.27 5.052.843 1.188 2.06 1.787 3.654 1.787.782 0 1.475-.174 2.086-.521a4.44 4.44 0 0 0 1.522-1.45 7.395 7.395 0 0 0 .937-2.149zM34.036 8c.943 0 1.759.337 2.45.997.693.67 1.039 1.472 1.039 2.416 0 .912-.346 1.695-1.038 2.37-.692.661-1.508.994-2.451.994-1.004 0-1.845-.333-2.525-.995-.666-.674-1.011-1.457-1.011-2.369 0-.944.345-1.746 1.01-2.416.68-.66 1.522-.997 2.526-.997zM31.05 39.57V17.473h5.921V39.57h-5.921zm24.234-22.304c3.506.26 7.528 2.305 7.528 9.232V39.57h-5.92V26.406c0-2.236-1.868-4.05-4.172-4.05-2.306 0-4.174 1.814-4.174 4.05V39.57h-5.921V17.482h5.92v1.82s2.434-2.353 6.739-2.036zm61.71-.24c0-5.015 2.066-9.808 11.07-8.733l-.922 4.571c-2.794-.44-4.222 1.06-4.222 4.108v.461h3.533v4.53h-3.536c-.002 7.01-.002 17.607-.002 17.607h-5.92V21.963h-3.55v-4.53h3.55v-.408zm15.277 0c0-5.015 2.065-9.808 11.07-8.733l-.923 4.571c-2.793-.44-4.22 1.06-4.22 4.108v.461h3.534v4.53h-3.536c-.002 7.01-.002 17.607-.002 17.607h-5.923V21.963h-3.548v-4.53h3.548v-.408zM13.625 13.154V39.57 13.155zm132.1 26.798c-.726 0-1.345-.25-1.857-.748-.515-.498-.771-1.14-.771-1.926 0-.785.264-1.427.793-1.926.527-.5 1.14-.748 1.835-.748.726 0 1.337.257 1.835.77.499.515.748 1.149.748 1.904 0 .756-.25 1.39-.748 1.904a2.457 2.457 0 0 1-1.835.77zm19.78-18.534a40.808 40.808 0 0 0-1.54-.227 11.584 11.584 0 0 0-1.405-.089c-3.596 0-5.393 1.963-5.393 5.89v12.551h-3.988V17.431h3.988v2.992h.091c.635-1.178 1.487-2.04 2.56-2.583a7.444 7.444 0 0 1 3.421-.817c.997 0 2.024.182 3.081.544l-.815 3.852zm3.399-3.988h3.987v13.142c0 1.933.363 3.391 1.088 4.373.726.981 1.918 1.471 3.58 1.471 1.269 0 2.318-.362 3.15-1.087.83-.725 1.41-1.676 1.744-2.854.18-.635.27-1.33.27-2.084v-12.96h3.99v22.112h-3.99V36.69h-.133c-.847 1.178-1.83 2.024-2.947 2.537-1.118.514-2.205.77-3.262.77-4.985 0-7.477-2.809-7.477-8.428V17.431z"/></svg>