<svg xmlns="http://www.w3.org/2000/svg" width="120" height="24.5" viewBox="0 0 120 24.5">
  <path d="M91 16.8c-.7 0-1.3.6-1.3 1.4s.6 1.4 1.3 1.4c.7 0 1.3-.6 1.3-1.4 0-.8-.6-1.4-1.3-1.4zm7.8.2l-.1.1c-.5.4-.9.6-1.5.6-.7 0-1.3-.3-1.6-1-.3-.5-.4-1.2-.4-2.5 0-1.1.2-1.9.5-2.4s.9-.8 1.4-.8c.5 0 .9.2 1.4.5l.1.1 1-1.5-.1-.1c-.5-.5-1.5-.8-2.4-.8-1.5 0-2.9.9-3.6 2.3-.4.9-.7 1.9-.7 3.1 0 1.5.4 2.7 1.1 3.5.8.9 1.8 1.4 3.1 1.4 1 0 1.9-.3 2.6-.9l.1-.1-.9-1.5zm5.9-7.8c-.7 0-1.4.2-2 .5-1.4.8-2.1 2.5-2.1 4.6 0 1.5.4 2.7 1.1 3.7.7 1 1.6 1.4 3.1 1.4.8 0 1.3-.1 1.9-.5 1.4-.8 2.1-2.5 2.1-4.7 0-3.1-1.6-5-4.1-5zm0 1.8c.8 0 1.3.6 1.5 1.1.2.5.2 1.3.2 2.2 0 2.4-.5 3.4-1.7 3.4-.4 0-.8-.1-1-.3-.5-.4-.8-1.4-.8-3.1 0-1.1.2-2 .4-2.6.3-.4.8-.7 1.4-.7zm14.5-1.5h-2.6l-1.3 4.8c-.1.3-.2.5-.2.8-.1-.2-.1-.4-.2-.7l-1.2-4.9h-2.6l-.9 9.8h2.1l.3-5.2c0-.2 0-.4.1-.6.1.2.1.5.1.6l1.3 5.2h1.7l1.5-5.5c.1-.2.1-.3.1-.4 0 .2 0 .4.1.5l.3 5.3h2.1c.1.2-.7-9.7-.7-9.7zm-89.7 0v1.6h2.7v8.2h2.2v-8.2h2l.4-1.6h-7.3zm15.6 9.6c-.1-.1-1.7-3.1-2.2-3.8-.1-.1-.1-.2-.2-.2 1.1-.2 1.9-1.3 1.9-2.7 0-1.7-1.1-2.9-2.9-2.9h-3.5v9.8h2.2v-4.1l.1.1c.3.1.5.6 1.4 2.3.4.7.5 1 .9 1.6v.1h2.5l-.2-.2zm-4.7-7.9h.4c.4 0 .8.1 1 .2.5.2.6.7.6 1s-.1.6-.3.8c-.2.2-.5.2-1.3.2h-.3l-.1-2.2zm7.1-1.7h2.2v9.8h-2.2V9.5zM58.2 14c.2-.1.4-.2.5-.4.4-.4.7-1 .7-1.7s-.3-1.3-.8-1.7c-.6-.5-1.2-.7-2.4-.7h-3.3v9.8H56c.5 0 .9-.1 1.2-.1 1.8-.1 2.6-1.5 2.6-2.8 0-1.1-.6-1.9-1.6-2.4zm-3.1-2.8h.9c.4 0 .6.1.7.2.3.1.4.5.4.9s-.2.8-.4.9c-.1.1-.3.2-.8.2h-1c.1-.1.2-2.2.2-2.2zm1.1 6h-1.1V15h1c.3 0 .5.1.7.1.3.1.6.5.6 1.1 0 .4-.2.7-.4.9-.2.1-.4.1-.8.1zm10.9-7.7v6.2c0 .5-.1.7-.1.8-.1.7-.5 1-1.3 1-.5 0-1-.2-1.2-.6-.1-.2-.2-.5-.2-1.1V9.5h-2.2v6.7c0 .9.1 1.4.4 1.9.5.9 1.6 1.4 3.1 1.4 2 0 3.1-1 3.3-1.9.2-.4.2-.7.2-1.5V9.5h-2zm9.6 0l.1 4c0 .4.1 1 .1 1.5-.2-.5-.4-1.1-.7-1.6l-1.8-3.9h-2.3v9.8h2.1l-.1-4.5c0-.5 0-1.1-.1-1.6.3.8.7 1.7 1 2.3l1.6 3.8h2V9.6c-.1-.1-1.9-.1-1.9-.1zm9.2 0l-2.2-.1-3.2 9.8h2.2l.7-2.2H86l.7 2.2H89l-3.1-9.7zm-1.2 2.7c.1.4.2.8.3 1.1.2.7.4 1.7.4 1.7h-1.5c.2-.5.3-.9.4-1.6.1-.4.2-.9.4-1.2z"/>
  <path d="M25.5 8.8l-8.8-.7L13.4 0v12.8l12.1-4z" fill="#ff003c"/>
  <path d="M12.4 12.8V0L9.1 8.2l-8.8.6 12.1 4z" fill="#ffc300"/>
  <path d="M0 9.7l6.8 5.7L4.6 24l7.5-10.4L0 9.7z" fill="#00aa32"/>
  <path d="M20.4 24.5l-7.5-10.4-7.5 10.4 7.5-4.7 7.5 4.7z" fill="#00a0f0"/>
  <path d="M25.8 9.7l-12.1 3.9L21.2 24 19 15.4l6.8-5.7z" fill="#964ba0"/>
</svg>
