<svg xmlns="http://www.w3.org/2000/svg" width="129" height="27" viewBox="0 0 129 27">
  <path d="M118.523 12.232h-9.213V4.25h9.213c1.676 0 2.802.333 3.376.998.574.665.842 1.663.806 2.993.036 1.349-.232 2.351-.806 3.007-.574.656-1.7.984-3.376.984zm10.333 13.696l-5.932-10.142c1.512-.346 2.77-1.098 3.772-2.255 1.003-1.157 1.522-2.957 1.558-5.4-.036-3.134-.975-5.284-2.815-6.45-1.84-1.167-4.42-1.723-7.736-1.668h-11.29c-.912 0-1.568.146-1.969.437-.4.292-.601.756-.601 1.395v23.919c0 .42.219.629.656.629h4.811v-7.71c-.018-.801.233-1.394.752-1.776.52-.383 1.371-.574 2.556-.574h4.893l5.33 9.622a.822.822 0 0 0 .274.328c.11.073.264.11.465.11h5.03c.164-.019.26-.078.287-.178a.355.355 0 0 0-.041-.287zM51.93 22.21h-9.787v-4.893c-.018-.802.233-1.394.752-1.777.52-.383 1.372-.574 2.556-.574h6.479c1.53 0 2.583.3 3.157.902.574.601.843 1.513.807 2.734.036 1.202-.233 2.105-.807 2.706-.574.601-1.626.902-3.157.902zM42.144 4.195h8.775c1.422 0 2.401.278 2.939.834.538.556.797 1.408.78 2.556.017 1.148-.242 2.005-.78 2.57s-1.517.847-2.939.847h-8.775V4.195zm14.98 8.283c1.076-.565 1.855-1.348 2.338-2.35.483-1.003.724-2.142.724-3.418-.09-2.843-1.089-4.692-2.993-5.549C55.29.304 53.061-.079 50.51.013H39.274c-.93 0-1.595.146-1.996.437-.4.292-.592.756-.574 1.395v22.99c0 .528.15.92.452 1.175.3.255.806.383 1.517.383h13.832c2.66.018 4.802-.543 6.424-1.682 1.622-1.139 2.46-3.01 2.515-5.617 0-1.604-.35-3.003-1.053-4.196-.701-1.194-1.79-2-3.266-2.42zM92.17 4.305c.2 0 .356-.037.465-.11.11-.072.2-.182.273-.328L94.33.313c.073-.2 0-.3-.219-.3h-19.9c-.912 0-1.568.146-1.97.437-.4.292-.6.756-.6 1.395v22.99c0 .528.15.92.45 1.175.301.255.807.383 1.518.383H92.17c.2 0 .356-.037.465-.11.11-.072.2-.182.273-.328l1.422-3.526c.073-.219 0-.328-.219-.328H77.162v-4.675c-.018-.802.228-1.394.739-1.777.51-.382 1.357-.574 2.542-.574h7.353c.2 0 .356-.036.465-.11.11-.072.2-.181.273-.327l1.367-3.39c.073-.218 0-.328-.219-.328h-12.52V4.305H92.17zM20.494.642v14.816c.018 2.46-.56 4.246-1.736 5.358-1.176 1.112-3.034 1.668-5.577 1.668-2.542 0-4.4-.556-5.576-1.668-1.176-1.112-1.754-2.898-1.736-5.358V.013H.92C.484-.005.265.204.265.642v15.062c.054 4.082 1.248 6.975 3.58 8.68 2.334 1.703 5.44 2.528 9.323 2.473 3.881.055 6.993-.77 9.335-2.473 2.342-1.705 3.54-4.598 3.595-8.68V.014H21.15c-.437-.02-.656.19-.656.628z"/>
</svg>
