<svg xmlns="http://www.w3.org/2000/svg" width="151" height="29">
  <g fill="#FFF" fill-rule="evenodd">
    <path d="M114.758 18.308l4.044-7.547a9.511 9.511 0 00-2.763 0l-2.527 5.325-2.565-5.325a9.742 9.742 0 00-1.372-.1c-.506 0-1.011.035-1.517.1l4.044 7.547v4.107h2.656v-4.107zm-81.992-7.543c.234-.032.463-.054.685-.064a13.184 13.184 0 011.334 0c.222.01.449.032.684.064v6.044c0 .66.028 1.223.083 1.693.055.47.167.86.333 1.167.167.307.4.534.704.68.302.145.695.22 1.175.22.482 0 .87-.075 1.167-.22.296-.146.527-.373.694-.68.167-.308.278-.697.333-1.167.055-.47.084-1.034.084-1.693v-6.044c.246-.032.48-.054.703-.064.222-.01.438-.017.647-.017.223 0 .448.006.677.017.227.01.459.032.693.064v6.546c0 .79-.074 1.51-.221 2.163-.15.654-.414 1.213-.796 1.677-.383.465-.896.824-1.537 1.077-.642.254-1.456.381-2.444.381-.987 0-1.801-.127-2.444-.38-.641-.254-1.153-.613-1.535-1.078a3.939 3.939 0 01-.796-1.677 9.793 9.793 0 01-.223-2.163v-6.546zM47.46 17.02a8.438 8.438 0 01-1.13-.462 3.304 3.304 0 01-.852-.6 2.414 2.414 0 01-.545-.835c-.13-.323-.195-.711-.195-1.166 0-.55.107-1.037.324-1.459.215-.42.522-.773.916-1.06.395-.287.87-.503 1.426-.648a7.358 7.358 0 011.87-.218c.63 0 1.218.048 1.767.145.548.096 1.126.237 1.731.421a5.267 5.267 0 01-.592 1.847c-.185-.064-.374-.13-.565-.194a4.711 4.711 0 00-.612-.162 7.294 7.294 0 00-.73-.105 9.441 9.441 0 00-.926-.041 4.2 4.2 0 00-.638.048c-.216.032-.41.092-.584.178a1.104 1.104 0 00-.425.382c-.11.168-.167.386-.167.655 0 .216.043.397.13.543.086.146.204.27.351.373.148.102.315.19.5.26s.37.137.555.201l1.111.373c.47.162.895.33 1.278.502.381.174.706.388.971.64.265.254.472.563.62.924.148.362.222.807.222 1.336 0 .553-.114 1.055-.342 1.508a3.301 3.301 0 01-.99 1.167c-.433.323-.966.578-1.6.76-.637.184-1.369.277-2.195.277-.407 0-.772-.011-1.092-.034a9.265 9.265 0 01-1.777-.291c-.284-.076-.58-.166-.889-.276.037-.313.104-.64.204-.98.098-.34.215-.683.351-1.029.52.184 1.006.323 1.463.413.456.093.944.139 1.463.139.777 0 1.387-.128 1.832-.381.444-.255.666-.64.666-1.159 0-.259-.052-.474-.157-.648a1.477 1.477 0 00-.407-.438 2.678 2.678 0 00-.565-.3c-.21-.08-.425-.159-.648-.234l-1.129-.372zm22.25 3.612c.172.022.373.04.602.05.227.01.435.015.62.015.258 0 .53-.022.814-.065.283-.042.549-.126.796-.25.246-.125.45-.298.61-.52.16-.22.242-.51.242-.866 0-.335-.062-.613-.185-.835a1.43 1.43 0 00-.528-.534c-.23-.135-.5-.23-.815-.284a6.204 6.204 0 00-1.046-.08h-1.11v3.37zm.814-5.152c.309 0 .596-.024.86-.073.266-.048.497-.135.695-.259.198-.124.352-.292.463-.502.11-.21.167-.478.167-.803 0-.313-.065-.569-.195-.769-.13-.2-.296-.357-.5-.47a1.985 1.985 0 00-.684-.227 5.064 5.064 0 00-.75-.057 6.38 6.38 0 00-.87.05v3.11h.814zm-3.498-4.73c.394-.055.85-.098 1.37-.13a31.555 31.555 0 011.943-.049c.679 0 1.32.048 1.925.145.605.098 1.133.263 1.582.495.45.232.806.543 1.065.931.259.39.389.875.389 1.458 0 .346-.058.668-.175.965-.12.296-.276.556-.473.777a2.79 2.79 0 01-.666.551c-.247.146-.5.235-.76.267.284.033.599.108.945.227.345.12.666.295.962.527.297.232.543.532.74.9.198.367.297.81.297 1.328 0 .702-.151 1.277-.453 1.725a3.19 3.19 0 01-1.222 1.062c-.513.26-1.105.437-1.777.534a14.86 14.86 0 01-2.12.146c-.568 0-1.13-.014-1.684-.04a33.215 33.215 0 01-1.888-.154V10.75zm16.474.015a9.485 9.485 0 011.313-.097c.432 0 .883.033 1.352.097v9.608h4.61c.036.184.061.36.073.527a6.17 6.17 0 010 .988 4.374 4.374 0 01-.073.527H83.5v-11.65zm36.902 0a9.466 9.466 0 011.314-.097c.432 0 .882.033 1.35.097v9.608h4.61c.038.184.062.36.075.527.01.167.018.326.018.478 0 .173-.007.343-.018.51a4.2 4.2 0 01-.075.527h-7.274v-11.65zm23.711 9.867c.173.022.373.04.601.05.23.01.435.015.62.015.26 0 .53-.022.815-.065a2.62 2.62 0 00.797-.25c.246-.125.45-.298.61-.52.16-.22.242-.51.242-.866 0-.335-.063-.613-.185-.835-.125-.22-.3-.399-.529-.534a2.37 2.37 0 00-.814-.284 6.217 6.217 0 00-1.047-.08h-1.11v3.37zm.814-5.152c.309 0 .596-.024.862-.073.265-.048.496-.135.694-.259.196-.124.351-.292.463-.502.11-.21.167-.478.167-.803 0-.313-.065-.569-.196-.769a1.41 1.41 0 00-.499-.47 2.005 2.005 0 00-.685-.227 5.024 5.024 0 00-.75-.057 6.38 6.38 0 00-.87.05v3.11h.814zm-3.498-4.73c.394-.055.851-.098 1.37-.13a31.52 31.52 0 011.942-.049c.68 0 1.321.048 1.926.145a5.295 5.295 0 011.583.495c.45.232.804.543 1.065.931.258.39.388.875.388 1.458 0 .346-.058.668-.175.965a2.532 2.532 0 01-.474.777 2.747 2.747 0 01-.665.551c-.248.146-.5.235-.758.267.284.033.597.108.944.227.346.12.667.295.962.527.296.232.543.532.74.9.198.367.297.81.297 1.328 0 .702-.151 1.277-.455 1.725-.302.448-.708.802-1.22 1.062s-1.105.437-1.779.534c-.672.097-1.379.146-2.119.146-.567 0-1.129-.014-1.684-.04a33.289 33.289 0 01-1.888-.154V10.75zm-81.697 2.478l1.537 4.893h-3.147l1.61-4.893zm-2.24 6.854H61.9l.739 2.333h2.85l-4.164-11.65a16.324 16.324 0 00-.777-.072 10.859 10.859 0 00-1.5 0c-.233.015-.48.04-.74.072l-4.202 11.65h2.628l.76-2.333zm23.417-9.317a10.15 10.15 0 00-1.37-.097c-.444 0-.895.033-1.351.097v11.65h2.72v-11.65zm14.437 0a10.127 10.127 0 00-1.37-.097c-.444 0-.894.033-1.35.097v11.65h2.72v-11.65zm11.219 2.009a4.628 4.628 0 00.001-2.009h-9.35a4.63 4.63 0 000 2.009h3.313v9.641h2.722v-9.64h3.314zm27.798.454l1.536 4.893h-3.146l1.61-4.893zm-2.24 6.854h4.406l.74 2.333h2.851l-4.165-11.65a16.479 16.479 0 00-.778-.072 10.83 10.83 0 00-1.499 0c-.235.015-.482.04-.74.072l-4.202 11.65h2.628l.759-2.333zM11.005.5L7.894 5.276 6.775 4.157 4.826 2.208 1.712 5.322l1.954 1.954 1.12 1.12-4.785 3.125 15.94 4.922z"/>
    <path d="M26.957 17.127c.078-.56.122-1.13.122-1.71 0-.581-.044-1.151-.122-1.71h-1.443c-.118-.738-.31-1.45-.57-2.131l1.247-.728a12.21 12.21 0 00-1.714-2.96l-1.24.724a10.865 10.865 0 00-1.561-1.561l.714-1.247a12.173 12.173 0 00-2.961-1.711l-.717 1.25c-.68-.26-1.392-.45-2.13-.57v-1.44a12.077 12.077 0 00-3.132-.037l.455 1.54.812 2.625c.052-.003.102-.008.155-.008 4.392 0 7.964 3.573 7.964 7.965 0 4.392-3.572 7.965-7.964 7.965s-7.965-3.573-7.965-7.965c0-.07.008-.135.01-.203L2.759 13.93c-.06.488-.094.983-.094 1.487 0 .58.043 1.15.122 1.71h1.442c.118.738.31 1.45.57 2.13l-1.25.725a12.232 12.232 0 001.715 2.96l1.242-.72a10.85 10.85 0 001.56 1.56l-.713 1.248c.896.7 1.89 1.28 2.96 1.71l.718-1.25c.68.26 1.392.45 2.13.57v1.442c.56.079 1.13.122 1.71.122.58 0 1.15-.043 1.71-.122V26.06c.739-.12 1.45-.31 2.13-.57l.747 1.24a12.217 12.217 0 002.939-1.705l-.721-1.242c.573-.466 1.095-.99 1.56-1.561l1.248.715a12.225 12.225 0 001.72-2.983l-1.26-.696c.26-.681.452-1.393.57-2.131h1.443z"/>
  </g>
</svg>
