<svg xmlns="http://www.w3.org/2000/svg" width="130" height="52" viewBox="0 0 130 52">
  <path fill-rule="evenodd" d="M17.13 24.86h-2.55c-4.01 0-7.9-2.92-7.9-10.234 0-7.62 3.646-10.727 7.352-10.727h3.097V24.86zM21.14 0c.423 0 .67.177.67.604v44.613c0 .304-.127.487-.489.487h-3.767c-.244 0-.426-.242-.426-.429V28.759H14.09L5.648 45.275c-.122.305-.368.429-.729.429H.606c-.485 0-.788-.429-.485-.975l9.293-16.818c-4.977-2.197-7.773-6.644-7.773-12.675C1.641 5.176 7.413 0 14.214 0h6.927zm22.834 15.148c.244 0 .426.182.426.426v29.621c0 .24-.122.484-.426.484h-3.763c-.305 0-.489-.182-.489-.484V31.057h-6.986v14.138c0 .302-.181.484-.421.484h-3.831c-.302 0-.426-.182-.426-.484v-29.62c0-.245.182-.427.486-.427h3.771c.302 0 .421.124.421.426v11.637h6.986V15.574c0-.182.184-.426.489-.426h3.763zm86.004 28.582a.61.61 0 0 1-.242.668c-1.092.797-3.825 2.01-6.378 2.01-6.075 0-10.33-5.299-10.33-14.5 0-10.667 4.432-17.49 10.151-17.49 1.454 0 3.153.24 5.647 1.522.362.183.607.368.607.607a.981.981 0 0 1-.183.554l-1.64 2.677c-.183.306-.365.43-.548.43-.179 0-.303-.062-.486-.245-1.639-1.523-2.67-1.767-3.524-1.767-3.16 0-5.042 6.153-5.042 12.37 0 7.07 2.25 11.515 6.867 11.515 2.368 0 4.008-.665 4.311-.665.186 0 .245.061.303.244l.487 2.07zm-26.405-14.809l8.51 16.331c.117.183.06.427-.183.427h-3.89c-.792 0-1.336-.183-1.7-.912l-6.927-14.259c-.124-.248-.245-.43-.428-.55v15.294c0 .244-.117.427-.36.427h-3.95c-.245 0-.365-.244-.365-.427V15.573c0-.244.182-.425.365-.425h3.95c.243 0 .36.181.36.425v13.408c.304-.182.611-.608.914-1.277l5.468-11.396c.361-.795.73-1.16 1.76-1.16h3.587c.242 0 .3.244.18.425l-7.29 13.348zm-34.81 12.92c.303 0 .484.183.484.487v8.41c0 .612-.362.912-.728.912h-3.099a.414.414 0 0 1-.424-.422V45.68h-13v5.058c0 .426-.244.913-.909.913h-2.92c-.185 0-.423-.119-.423-.422v-8.9c0-.304.12-.487.483-.487h1.335c3.893-7.19 4.316-16.699 4.316-24.073v-2.195c0-.244.184-.425.488-.425h12.15c.24 0 .367.124.367.425v25.17c0 .734.241 1.098 1.153 1.098h.727zm-6.562 0V18.988h-3.887c0 1.034-.059 2.681-.182 4.268-.428 7.31-1.64 13.283-4.74 18.585h8.81zm18.954-27.424c4.86 0 8.205 5.056 8.205 14.504v2.554h-8.872c-1.397 0-3.764-.279-3.764-.279v1.444c0 5.36 2.186 9.44 6.86 9.44 2.493 0 4.257-.665 4.498-.665.303 0 .426.124.488.365l.484 2.07c.06.242 0 .424-.243.548-1.337.854-3.95 2.01-6.923 2.01-6.077 0-10.208-5.48-10.208-14.685 0-9.018 2.918-17.306 9.475-17.306zm-.667 13.221h4.009s0-1.095-.06-2.07c-.305-4.696-1.517-7.372-3.464-7.372-2.123 0-3.402 2.618-3.945 7.796-.122.98-.122 1.894-.122 1.894s2.185-.248 3.582-.248z"/>
</svg>
