<svg version="1" xmlns="http://www.w3.org/2000/svg" width="390" height="156" viewBox="0 0 3900 1560">
  <path d="M306 1534c-3-9-6-129-6-269v-252l-35-87c-19-48-35-96-35-107 0-10-4-19-10-19-5 0-10-11-10-25s-4-25-10-25c-5 0-10-11-10-24 0-14-4-28-10-31-5-3-10-15-10-26 0-10-4-19-10-19-5 0-10-11-10-24 0-14-4-28-10-31-5-3-10-13-10-21s-9-34-20-56c-11-23-20-47-20-53s-9-30-20-53c-11-22-20-46-20-52 0-10-4-19-31-72-7-12-14-50-17-85l-5-63h76c92 0 107 5 107 36 0 13 5 24 10 24 6 0 10 11 10 24 0 14 5 28 10 31 6 3 10 17 10 31 0 13 5 24 10 24 6 0 10 14 10 30 0 17 5 30 10 30 6 0 10 9 10 20 0 20 4 29 28 77 7 13 12 32 12 43s5 20 10 20c6 0 10 14 10 30 0 17 5 30 10 30 6 0 10 11 10 24 0 14 5 28 10 31 6 3 10 14 10 24 0 9 11 39 24 66 26 54 24 56 47-45 7-30 16-59 21-65 4-5 8-19 8-31 0-13 5-26 10-29 6-3 10-17 10-30s5-27 10-30c6-3 10-17 10-30s5-27 10-30c6-3 10-17 10-30s5-27 10-30c6-3 10-17 10-30s5-27 10-30c6-3 10-19 10-36 0-16 5-29 10-29 6 0 10-13 10-30 0-16 5-30 10-30 6 0 10-13 10-30 0-16 5-30 10-30 6 0 10-10 10-22 0-13 5-40 11-60l10-38h99c89 0 100 2 100 18 0 20-33 118-43 129-4 3-7 14-7 23s-8 34-19 56c-10 21-24 60-32 87-7 26-17 47-21 47s-8 9-8 20-4 28-9 38c-5 9-14 31-21 47-7 17-16 38-21 47-5 10-9 27-9 37 0 11-4 23-10 26-5 3-10 17-10 31 0 13-4 24-10 24-5 0-10 11-10 24 0 14-4 28-10 31-5 3-10 15-10 26 0 10-4 19-10 19-5 0-10 14-10 30 0 17-4 30-10 30-5 0-10 9-10 19 0 11-14 57-31 103l-31 83 2 241c1 303 4 294-101 294-61 0-78-3-83-16zM777 1507c-51-47-80-105-98-197-15-75 1-180 37-251 25-50 83-113 123-133 39-20 110-27 165-17l49 9-6-57c-2-31-13-73-23-93-17-37-19-38-71-38-29 0-53 5-53 10 0 6-6 10-13 10s-23 9-35 20c-25 23-38 25-57 7-22-23-65-115-59-130 5-13 44-32 115-55 50-17 189-15 231 2 40 17 100 79 121 127 8 19 20 69 26 112 11 81 15 655 5 695-6 20-13 22-65 22-33 0-59-4-59-8 0-5-6-16-13-26-12-16-15-15-42 8-28 24-37 26-131 26H823l-46-43zm241-107l42-20v-291l-47-21c-45-20-48-20-78-4-47 25-65 72-65 166 0 90 10 124 48 162 33 33 46 34 100 8zM1380 1075V600h81c74 0 81 2 86 21 3 11 9 17 12 12 12-17 149-56 177-50 73 14 91 21 122 44 63 47 62 39 60 500l-3 418-82 3-83 3v-374c0-400-3-427-47-427-13 0-23-4-23-10 0-5-11-10-24-10-14 0-28 5-31 10-3 6-16 10-29 10-46 0-46 3-46 396 0 205-3 379-6 388-5 13-22 16-85 16h-79v-475zM2210 1540c0-5-5-10-11-10-17 0-99-87-99-105 0-8-4-15-10-15-5 0-10-9-10-19 0-11-4-23-10-26-5-3-10-16-10-29 0-12-4-26-9-31-29-30-29-389 0-419 5-6 9-20 9-33s5-32 10-43c6-11 15-29 20-40 6-11 10-24 10-30s10-21 23-34c12-13 29-32 38-42 54-64 115-87 217-82l72 3V376c0-201 1-209 22-227 27-24 114-26 146-3l22 15v680c0 576-2 683-14 695-23 22-108 19-123-5-11-17-16-18-38-8-13 7-25 15-25 20 0 4-52 7-115 7-70 0-115-4-115-10zm195-130c3-5 15-10 26-10 18 0 19-10 19-321 0-264-2-323-14-335-17-16-116-20-116-4 0 6-6 10-12 10-11 0-34 43-68 125-30 73-30 377 1 410 5 5 9 16 9 25 0 21 58 90 76 90 8 0 14 5 14 10 0 6 13 10 29 10 17 0 33-4 36-10zM2940 1540c0-5-7-10-16-10-18 0-91-71-111-108-32-56-49-96-59-137-13-54-16-308-4-355 25-100 32-126 41-142 5-10 9-25 9-33s5-15 10-15c6 0 10-6 10-13 0-20 81-102 124-126 72-41 188-21 250 42 38 39 77 125 83 182 3 30 10 55 14 55 5 0 9 54 9 120v120h-370v64c0 36 5 68 10 71 6 3 10 17 10 31 0 13 5 24 10 24 6 0 10 6 10 13 0 16 34 48 72 66 20 10 53 12 123 8 108-6 115-2 115 70 0 31-5 40-27 51-15 6-33 12-40 12s-13 5-13 10c0 6-50 10-130 10s-130-4-130-10zm169-642c-10-115-35-168-80-168-28 0-59 35-59 65 0 8-4 15-10 15-5 0-10 18-10 39 0 22-4 43-10 46-5 3-10 22-10 41v34h185l-6-72zM3362 1538c-7-7-12-17-12-24s29-81 65-166c76-177 76-178 104-240 12-26 21-55 21-63 0-9-18-53-40-100s-40-87-40-91c0-3-22-52-49-109-65-137-63-145 39-145 77 0 110 12 110 41 0 12 68 187 86 219l13 25 1-32c0-18 5-33 10-33 6 0 10-9 10-20s5-20 10-20c6 0 10-13 10-30 0-16 5-30 10-30 6 0 10-11 10-25s5-25 10-25c6 0 10-10 10-23 0-37 19-47 92-47h68v43c0 25-10 62-25 91-14 27-25 55-25 63 0 7-4 13-10 13-5 0-10 7-10 15s-4 23-9 33c-44 84-91 190-91 203 0 8 9 34 20 57 11 22 20 48 20 57 0 8 5 15 10 15 6 0 10 9 10 20s5 20 10 20c6 0 10 7 10 15 0 15 10 38 60 150 13 28 25 74 28 103l5 53-74-3c-66-3-75-6-84-25-5-13-13-23-17-23-5 0-8-11-8-25s-4-25-10-25c-5 0-10-9-10-20s-4-28-9-38c-5-9-14-30-21-47-7-16-16-38-21-47-5-10-9-27-9-38 0-27-16-25-23 3-10 43-83 242-97 265-13 19-23 22-80 22-38 0-71-5-78-12z"/>
</svg>
