<svg xmlns="http://www.w3.org/2000/svg" width="416" height="416" viewBox="-183 -183 416 416"><path fill="#0095d4" d="M-183-183h416v416h-416z"/><path fill="#fff" d="M-61.979 10.663c-8.686 0-15.03 6.437-15.03 14.403v.092c0 7.92 6.345 14.311 14.941 14.311 8.687 0 15.034-6.436 15.034-14.403v-.089c-.001-7.921-6.348-14.314-14.945-14.314zm7.201 14.538c0 4.141-2.654 7.516-7.202 7.516-4.318 0-7.29-3.6-7.29-7.605v-.092c0-4.003 2.745-7.514 7.201-7.514 4.322-.134 7.291 3.465 7.291 7.695zM49.824 24.885V5.218c0-2.207-1.8-3.915-3.921-3.915-2.2 0-4 1.8-4 3.915v6.886a15.687 15.687 0 00-7.118-1.71c-8.684 0-15.12 6.436-15.12 14.492v.092c0 8.056 6.437 14.4 15.034 14.4 2.653 0 5.083-.631 7.204-1.707l.539-.316c.716 1.17 2.022 2.023 3.508 2.023a4.012 4.012 0 004.006-4V24.931h-.132v-.046zm-7.921 1.353c-.545 3.51-3.061 6.342-7.118 6.342-4.316 0-7.288-3.6-7.288-7.738v-.092c0-4.141 2.748-7.605 7.202-7.605 3.914 0 6.791 2.972 7.204 6.571v2.522zM-29.258 10.485c-2.654 0-5.084.631-7.11 1.708V5.218c0-2.207-1.8-3.915-3.917-3.915-2.204 0-3.915 1.8-3.915 3.915v30.113c0 2.201 1.8 4.002 4.006 4.002 1.484 0 2.745-.855 3.51-2.023l.539.314a15.782 15.782 0 007.201 1.709c8.686 0 15.034-6.346 15.034-14.401v-.089c-.226-7.922-6.659-14.358-15.348-14.358zm7.293 14.4c0 4.14-2.972 7.74-7.293 7.74-4.006 0-6.66-2.738-7.11-6.344v-2.43c.539-3.6 3.284-6.571 7.201-6.571 4.591-.043 7.202 3.465 7.202 7.605zM-79.755 25.201v-.089c0-8.056-6.348-14.403-15.034-14.403-2.656 0-5.086.631-7.201 1.711l-.631.227c-.63-1.172-1.889-1.892-3.376-1.892-2.204 0-4.003 1.711-4.003 3.915v30.107a3.918 3.918 0 003.915 3.922c2.207 0 3.915-1.801 3.915-3.922v-6.883a15.614 15.614 0 007.112 1.715c8.866.084 15.303-6.484 15.303-14.408zm-7.832.091c0 4.141-2.746 7.608-7.202 7.608-3.915 0-6.794-2.975-7.201-6.574v-2.429c.542-3.511 3.061-6.348 7.112-6.348 4.319-.089 7.291 3.511 7.291 7.743zM106.348 27.857c0 6.121-4.992 11.211-11.205 11.211-6.121 0-11.205-4.998-11.205-11.211 0-6.122 4.998-11.208 11.205-11.208 6.121.092 11.205 5.041 11.205 11.208"/><path fill="#fff" d="M133.131 27.857c0 6.121-4.992 11.211-11.205 11.211-6.121 0-11.211-4.998-11.211-11.211 0-6.122 4.998-11.208 11.211-11.208 6.253.092 11.205 5.041 11.205 11.208"/><path fill="#fff" d="M160 27.857c0 6.121-4.992 11.211-11.205 11.211-6.121 0-11.211-4.998-11.211-11.211 0-6.122 4.998-11.208 11.211-11.208C155.048 16.741 160 21.69 160 27.857"/><path fill="#fff" d="M8.549 22.232c-.226-2.88-2.206-5.176-5.625-5.176-3.422 0-5.402 2.023-5.941 5.176H8.549zm6.66 12.147c0 1.582-1.169 2.752-3.511 3.691-2.519 1.084-5.31 1.262-7.92 1.262-4.771 0-8.459-1.479-11.116-4.002-2.657-2.658-4.141-6.35-4.141-10.58 0-4.141 1.576-7.74 4.006-10.17s5.941-3.826 10.351-3.826c4.545 0 7.74 1.484 9.947 3.6 2.657 2.656 3.511 5.94 3.511 8.597 0 2.879-1.485 4.455-4.006 4.455H-2.928c.719 3.604 3.287 5.627 7.202 5.627 4.23 0 5.806-1.893 7.921-1.893 1.756.092 3.014 1.577 3.014 3.239M78.401 22.097c-.092-1.172-.946-4.998-3.691-7.743-2.43-2.519-5.72-4.141-10.168-4.141-2.521 0-3.92 0-6.35 1.081-2.201.856-3.284 2.026-3.284 3.602 0 1.711 1.169 3.195 2.883 3.195 1.886 0 1.886-1.396 5.938-1.396 3.284 0 5.491 1.484 6.568 4.321-2.521-1.172-5.308-1.261-5.308-1.261s-9.629-.854-11.749 7.605c-1.077 5.803 2.338 10.893 9.319 11.746 6.121.408 9.228-2.115 9.228-2.115.63 1.078 1.8 1.801 3.192 1.801 2.023 0 3.691-1.57 3.691-3.691-.045.047.047-10.124-.269-13.004zM65.482 33.979c-3.061 0-5.628-2.029-5.628-4.322 0-2.43 2.521-4.321 5.628-4.321s5.628 2.026 5.628 4.321c0 2.292-2.567 4.322-5.628 4.322z"/></svg>
