<svg xmlns="http://www.w3.org/2000/svg" width="24" height="24" viewBox="0 0 24 24"><path d="M6.497 8.15v12.757H2.25V8.15h4.246zm.28-3.946c0 1.224-.922 2.205-2.403 2.205h-.027C2.922 6.409 2 5.429 2 4.204 2 2.953 2.95 2 4.402 2c1.453 0 2.347.953 2.375 2.204zm15.032 9.388v7.315h-4.246v-6.825c0-1.714-.614-2.884-2.151-2.884-1.173 0-1.872.788-2.179 1.55-.112.273-.14.653-.14 1.035v7.124H8.848s.056-11.56 0-12.757h4.247v1.807c.563-.869 1.572-2.107 3.827-2.107 2.794 0 4.888 1.824 4.888 5.742z"></path></svg>
