<svg xmlns="http://www.w3.org/2000/svg" width="24" height="24" viewBox="0 0 24 24"><path d="M8.243 6.503c.056.027.09.083.09.145v14.626c0 .273-.149.436-.362.436a.562.562 0 0 1-.247-.064l-6.318-3.122a.796.796 0 0 1-.406-.65V3.374c0-.09.025-.162.066-.212a.222.222 0 0 1 .176-.079c.05 0 .106.014.164.043l6.837 3.378zm8.008 12.105L23 7.77v13.498c0 .37-.274.538-.61.372l-6.139-3.033zm-7.27-11.02l6.686 10.736-6.685-3.303V7.588zm13.858-1.12c.087.043.118.15.067.232l-6.858 11.013-4.795-7.7 4.295-6.898A.254.254 0 0 1 15.763 3h.007a.24.24 0 0 1 .1.025l6.97 3.443z"></path></svg>
