<svg xmlns="http://www.w3.org/2000/svg" width="24" height="24" viewBox="0 0 24 24"><path d="M13.177 18.384s.433-.047.655-.281c.203-.215.196-.62.196-.62s-.027-1.888.866-2.166c.88-.275 2.011 1.826 3.21 2.634.907.61 1.595.477 1.595.477l3.206-.044s1.676-.102.881-1.396c-.066-.106-.463-.957-2.383-2.706-2.01-1.831-1.74-1.535.68-4.702 1.474-1.93 2.064-3.107 1.88-3.61-.176-.482-1.26-.354-1.26-.354l-3.609.022s-.267-.036-.466.08c-.193.114-.319.38-.319.38s-.57 1.493-1.332 2.763c-1.607 2.677-2.25 2.82-2.512 2.653-.612-.388-.46-1.558-.46-2.388 0-2.596.402-3.678-.78-3.958-.392-.094-.68-.155-1.684-.165-1.288-.013-2.377.004-2.995.3-.41.198-.728.638-.534.663.238.031.778.143 1.065.526.37.494.357 1.602.357 1.602s.212 3.056-.497 3.435c-.486.26-1.153-.27-2.586-2.7-.734-1.245-1.288-2.62-1.288-2.62s-.106-.258-.298-.396c-.231-.167-.554-.219-.554-.219l-3.429.022s-.515.014-.704.234c-.168.195-.013.599-.013.599s2.685 6.166 5.725 9.273c2.788 2.848 5.953 2.662 5.953 2.662h1.434z"></path></svg>
