<svg xmlns="http://www.w3.org/2000/svg" width="1920" height="460" viewBox="0 0 1920 460">
    <defs>
        <linearGradient id="a" x1="0%" y1="50%" y2="50%">
            <stop offset="0%" stop-color="#676767"/>
            <stop offset="100%" stop-color="#252525"/>
        </linearGradient>
        <linearGradient id="b" x1="50%" x2="50%" y1="0%" y2="100%">
            <stop offset="0%" stop-color="#FFE800"/>
            <stop offset="100%" stop-color="#FFD000"/>
        </linearGradient>
    </defs>
    <g fill="none" fill-rule="evenodd">
        <path fill="url(#a)" d="M69 0h1920v460H69z" transform="translate(-69)"/>
        <g stroke="#D2D2D2" stroke-width="3" opacity=".2" transform="translate(-69 125)">
            <path d="M2067.17 157.362c-35.167 41.336-85.181 72.184-140.829 86.859-55.65 14.678-114.371 12.505-165.35-6.11-12.404-4.529-25.059-10.136-37.299-15.558-34.382-15.23-69.935-30.974-108.661-27.717-17.953 1.512-34.831 7.078-51.153 12.46-11.269 3.715-21.912 7.225-32.873 9.503-58.118 12.076-113.872-11.385-172.9-36.227-48.809-20.539-99.278-41.778-152.481-42.15-46.599-.32-90.831 15.44-133.61 30.686-10.032 3.576-20.405 7.274-30.562 10.667-42.097 14.066-104.002 30.004-155.341 6.13-21.733-10.106-41.67-27.315-60.951-43.958-32.494-28.047-66.098-57.058-110.48-54.597-4.011.222-8.029.694-11.913 1.151-10.875 1.278-21.144 2.487-28.067-2.15-4.679-3.134-7.959-9.114-11.43-15.446-.807-1.469-1.611-2.934-2.432-4.371-16.182-28.282-45.948-49.285-79.628-56.183-29.377-6.016-57.376-.394-78.849 15.83-20.853 15.757-33.133 38.356-45.009 60.211-8.531 15.699-16.588 30.527-27.533 42.908-16.884 19.1-42.573 31.356-70.479 33.624-27.913 2.27-55.238-5.675-74.986-21.797-2.842-2.319-5.59-4.804-8.5-7.434-6.969-6.3-14.175-12.813-23.219-17.462-33.733-17.335-70.179.007-102.335 15.308-5.011 2.384-9.743 4.636-14.456 6.762C93.969 157.193 45.887 163.858.45 157.068"/>
            <circle cx="229.5" cy="110.5" r="5.5" fill="#F5F5F5"/>
            <circle cx="547" cy="8" r="8" fill="#F5F5F5"/>
        </g>
        <path fill="url(#b)" fill-rule="nonzero" d="M1163.522 262.713h-2.51c-.62-3.134-1.724-7.42-3.478-9.692-8.2-10.634-18.496-16.342-31.439-16.342-8.386 0-13.848.82-16.692 2.506-.383.228-1.516.898-4.573 7.048-4.464.07-16.272.88-21.934 7.262a18.433 18.433 0 0 0-4.408 9.216h-1.184a1.894 1.894 0 1 0 0 3.788h.945l.018.204c.1.96.914 1.692 1.88 1.692h2.384c1.464 3.34 4.794 5.684 8.67 5.684 3.876 0 7.206-2.344 8.674-5.684h36.128c1.462 3.34 4.794 5.684 8.67 5.684 3.876 0 7.208-2.344 8.67-5.684h6.42a1.896 1.896 0 0 0 1.896-1.894h1.862c1.044 0 1.89-.85 1.89-1.894a1.89 1.89 0 0 0-1.89-1.894zm-72.32 7.578a5.689 5.689 0 0 1-5.683-5.684 5.69 5.69 0 0 1 5.682-5.686 5.693 5.693 0 0 1 5.688 5.686 5.691 5.691 0 0 1-5.688 5.684zm33.585-22.036a.946.946 0 0 1-.948.948h-14.714a.95.95 0 0 1-.848-1.362c.694-1.428 1.952-3.902 2.554-4.416 2.005-1.274 6.022-1.878 12.044-1.878.329 0 .657.004.988.01a.947.947 0 0 1 .922.948l.002 5.75zm1.898 0v-5.482c0-.27.118-.528.318-.708a.93.93 0 0 1 .74-.234c6.668.784 11.796 2.99 13.727 5.9a.948.948 0 0 1-.792 1.472h-13.048a.948.948 0 0 1-.945-.948zm17.989 22.036a5.69 5.69 0 0 1-5.684-5.684 5.69 5.69 0 0 1 5.684-5.686 5.691 5.691 0 0 1 5.683 5.686 5.69 5.69 0 0 1-5.683 5.684zm-39.45-16.737h5.062v5.063h-5.062v-5.063zm10.125 0h5.062v5.063h-5.062v-5.063zm10.125 0h5.062v5.063h-5.062v-5.063zm-15.188 5.063h5.063v5.062h-5.063v-5.062zm10.125 0h5.063v5.062h-5.063v-5.062z" transform="rotate(-16 1085.911 500.86)"/>
        <path fill="url(#b)" d="M48.23 0C74.87 0 96.465 21.405 96.465 47.809 96.464 74.212 48.231 128 48.231 128S0 74.212 0 47.809C0 21.405 21.593 0 48.23 0" transform="translate(112 77)"/>
        <text fill="#616161" font-family="Montserrat-Bold, Montserrat" font-size="40" font-weight="bold" transform="translate(112 77)">
            <tspan x="33" y="61">C</tspan>
        </text>
    </g>
</svg>
