<?xml version="1.0" encoding="utf-8"?>
<svg version="1.1" xmlns="http://www.w3.org/2000/svg" xmlns:xlink="http://www.w3.org/1999/xlink" x="0px" y="0px"
	 viewBox="0 0 416 416" style="enable-background:new 0 0 416 416;" xml:space="preserve">
<style type="text/css">
	.st0{fill:#0E0E0E;}
	.st1{fill:#FFFFFF;}
	.st2{fill-rule:evenodd;clip-rule:evenodd;fill:#96C11E;}
	.st3{fill-rule:evenodd;clip-rule:evenodd;fill:#F3CC00;}
	.st4{fill-rule:evenodd;clip-rule:evenodd;fill:#E2271D;}
</style>
<rect x="0.1" y="0.2" class="st0" width="416" height="416"/>
<g>
	<g>
		<path class="st1" d="M73,204c-9.4,4.7-14.8,12.7-14.9,23.2c-0.1,17.7,15,32.4,38.7,32.5c19.7,0.1,33.6-9.8,37.8-23.4
			c0,0,0.1-0.4,0.4-0.4c0.3,0,0.4,0.4,0.4,0.4c4,13.5,17.7,23.7,37.5,23.8c19.7,0.1,33.6-9.8,37.8-23.4c0,0,0.3-0.4,0.6-0.4
			c0.3,0,0.4,0.4,0.4,0.4c4,13.5,17.7,23.7,37.5,23.8c23.7,0.1,39-14.2,39.7-32c0.1-10.4-5.2-18.6-14.6-23.4c-0.1,0-0.4-0.1-0.4-0.4
			c0-0.3,0.1-0.4,0.4-0.6c6.4-4.2,10.1-10.5,10.1-18.6c0.1-15.5-13.1-28.3-34-28.4c-20.8-0.1-34.2,12.5-34.3,28
			c0,8.1,3.5,14.5,9.9,18.7c0.3,0.1,0.4,0.3,0.4,0.6c0,0.1-0.3,0.3-0.4,0.4c-6.8,3.4-11.5,8.5-13.7,15c0,0-0.3,0.4-0.6,0.4
			c-0.3,0-0.4-0.4-0.4-0.4c-2.1-6.5-6.7-11.6-13.5-15.1c-0.1,0-0.4-0.1-0.4-0.4c0-0.3,0.1-0.4,0.4-0.6c6.4-4.2,10.1-10.5,10.1-18.6
			c0.1-15.5-13.1-28.3-34-28.4c-20.8-0.1-34.2,12.5-34.3,28c0,8.1,3.5,14.5,9.9,18.7c0.3,0.1,0.4,0.3,0.4,0.6c0,0.1-0.3,0.3-0.4,0.4
			c-6.8,3.4-11.5,8.5-13.7,15c0,0,0,0.4-0.4,0.4c-0.3,0-0.4-0.4-0.4-0.4c-2.1-6.5-6.7-11.6-13.5-15.1c-0.1,0-0.4-0.1-0.4-0.4
			c0-0.3,0.1-0.4,0.4-0.6c6.4-4.2,10.1-10.5,10.1-18.6c0.1-15.5-13.1-28.3-34-28.4c-20.8-0.1-34.2,12.5-34.3,28
			c0,8.1,3.5,14.5,9.9,18.7c0.3,0.1,0.4,0.3,0.4,0.6C73.4,203.7,73.2,203.9,73,204z M249.8,175.4c8.4,0.1,13.6,4.7,13.5,11.2
			c0,6.5-5.4,11.1-13.7,11.1c-8.4-0.1-13.6-4.7-13.5-11.2C236.1,180,241.5,175.4,249.8,175.4z M173.1,213.3
			c10,0.1,16.2,5.7,16.1,13.4c0,7.8-6.3,13.3-16.3,13.2c-9.8-0.1-16.2-5.6-16.1-13.4C156.9,218.7,163.1,213.3,173.1,213.3z
			 M96.9,174.5c8.4,0.1,13.6,4.7,13.5,11.2c0,6.5-5.4,11.1-13.7,11.1c-8.3,0-13.4-4.7-13.5-11.2C83.3,179,88.7,174.4,96.9,174.5z"/>
		<path class="st1" d="M325.7,155.8c-18-0.1-32.7,14.2-32.8,32.2c-0.1,17.9,14.3,32.4,32.4,32.6c18,0.1,32.7-14.2,32.8-32.2
			C358.2,170.4,343.7,155.9,325.7,155.8z M320.2,184.8c0,0-1.2-0.7-3.3-0.7c-1.9,0-3.9,0.8-3.9,3.9l-0.1,10.5l-7.4,0l0.1-10.7
			c0.1-9.7,7.6-10.5,11-10.6c2.3,0,3.8,0.7,3.8,0.7L320.2,184.8z M334.5,199.3c-7.4,0-10.7-3.7-10.7-10.3l0.1-11.7l7.4,0l-0.1,11.7
			c0,2.9,1.1,3.8,3.5,3.8c2.2,0,2.9-0.7,2.9-0.7l-0.1,0l0.1-14.7l7.4,0l-0.1,18.8C344.8,196.2,340.6,199.3,334.5,199.3z"/>
	</g>
	<path class="st2" d="M98,212.9c-10.1-0.1-16.4,5.7-16.5,14c-0.1,8.2,6.4,14.1,16.3,14.1c10.1,0.1,16.4-5.7,16.5-14
		C114.5,219,108.1,213,98,212.9z"/>
	<path class="st3" d="M250.2,213.9c-10.1-0.1-16.4,5.7-16.5,14c0,8.2,6.4,14.1,16.3,14.1c10.1,0.1,16.4-5.7,16.5-14
		C266.6,219.9,260.2,213.9,250.2,213.9z"/>
	<path class="st4" d="M173.2,175.9c-8.5-0.1-14.1,4.8-14.1,11.6c0,6.8,5.5,11.7,14,11.8c8.5,0.1,14.1-4.8,14.1-11.6
		C187.2,180.9,181.8,176,173.2,175.9z"/>
</g>
</svg>
