<?xml version="1.0" encoding="UTF-8"?>
<svg width="642px" height="50px" viewBox="0 0 642 50" version="1.1" xmlns="http://www.w3.org/2000/svg" xmlns:xlink="http://www.w3.org/1999/xlink">
    <!-- Generator: sketchtool 52.5 (67469) - http://www.bohemiancoding.com/sketch -->
    <title>04D8F405-5F20-4C8A-8A3B-2ACE0C65354D</title>
    <desc>Created with sketchtool.</desc>
    <g id="Page-1" stroke="none" stroke-width="1" fill="none" fill-rule="evenodd">
        <g id="888_case" transform="translate(-103.000000, -8259.000000)">
            <g id="Text-picture" transform="translate(97.000000, 7894.000000)">
                <g id="Icons" transform="translate(0.000000, 353.000000)">
                    <g id="my-bets" transform="translate(442.000000, 0.000000)">
                        <g>
                            <rect id="Rectangle-3" x="0" y="0" width="72" height="72"></rect>
                            <path d="M52.6,53.56 C52.6,55.122 50.894,56.6 48.568,56.6 L39.432,56.6 C37.106,56.6 35.4,55.122 35.4,53.56 L35.4,52 L40.568,52 C44.672,52 48,49.116 48,45.56 L48,31.4 L48.568,31.4 C50.894,31.4 52.6,32.878 52.6,34.44 L52.6,53.56 Z M31.432,48.6 C29.106,48.6 27.4,47.122 27.4,45.56 L27.4,44 L32.568,44 C36.672,44 40,41.116 40,37.56 L40,23.4 L40.568,23.4 C42.894,23.4 44.6,24.878 44.6,26.44 L44.6,45.56 C44.6,47.122 42.894,48.6 40.568,48.6 L31.432,48.6 Z M23.432,40.6 C21.106,40.6 19.4,39.122 19.4,37.56 L19.4,18.44 C19.4,16.878 21.106,15.4 23.432,15.4 L32.568,15.4 C34.894,15.4 36.6,16.878 36.6,18.44 L36.6,37.56 C36.6,39.122 34.894,40.6 32.568,40.6 L23.432,40.6 Z M48.568,28 L48,28 L48,26.44 C48,22.884 44.672,20 40.568,20 L40,20 L40,18.44 C40,14.884 36.672,12 32.568,12 L23.432,12 C19.326,12 16,14.884 16,18.44 L16,37.56 C16,41.116 19.326,44 23.432,44 L24,44 L24,45.56 C24,49.116 27.326,52 31.432,52 L32,52 L32,53.56 C32,57.116 35.326,60 39.432,60 L48.568,60 C52.672,60 56,57.116 56,53.56 L56,34.44 C56,30.884 52.672,28 48.568,28 Z" fill="#2D2D3B"></path>
                        </g>
                    </g>
                    <g id="fav" transform="translate(148.000000, 0.000000)">
                        <g>
                            <rect id="Back" x="0" y="0" width="72" height="72"></rect>
                            <path d="M46.2953841,42.3823343 C46.1062151,41.2793944 46.47188,40.1539938 47.2732127,39.3728874 L55.6547758,31.2028826 L44.0717405,29.5197691 C42.9643259,29.3588523 42.0070029,28.6633164 41.5117521,27.6598286 L36.3316612,17.1638181 L31.1515703,27.6598286 C30.6563195,28.6633164 29.6989965,29.3588523 28.5915819,29.5197691 L17.0085466,31.2028826 L25.3901097,39.3728874 C26.1914424,40.1539938 26.5571073,41.2793944 26.3679383,42.3823343 L24.3893196,53.9185662 L34.7495014,48.4718963 C35.740003,47.9511588 36.9233193,47.9511588 37.913821,48.4718963 L48.2740028,53.9185662 L46.2953841,42.3823343 Z M36.3316612,51.4813431 L23.4606184,58.2480508 C22.4829293,58.7620524 21.273675,58.3861593 20.7596733,57.4084702 C20.5549952,57.0191492 20.4843659,56.5732131 20.5587195,56.1396978 L23.01687,41.8075811 L12.6039776,31.6575196 C11.8130105,30.8865172 11.7968259,29.6202907 12.5678283,28.8293235 C12.8748455,28.5143562 13.2771303,28.3093819 13.7124044,28.2461329 L28.1026677,26.1551052 L34.538189,13.1153146 C35.0270336,12.1248073 36.2262853,11.7181293 37.2167926,12.2069739 C37.6112178,12.4016344 37.9304729,12.7208894 38.1251334,13.1153146 L44.5606547,26.1551052 L58.950918,28.2461329 C60.0440077,28.4049681 60.8013706,29.4198538 60.6425354,30.5129435 C60.5792864,30.9482176 60.374312,31.3505024 60.0593448,31.6575196 L49.6464524,41.8075811 L52.1046029,56.1396978 C52.2913249,57.2283707 51.5601492,58.2622825 50.4714763,58.4490046 C50.0379611,58.5233583 49.5920249,58.4527289 49.202704,58.2480508 L36.3316612,51.4813431 Z" fill="#2D2D3B"></path>
                        </g>
                    </g>
                    <g id="events">
                        <g>
                            <rect id="Back" x="0" y="0" width="72" height="72"></rect>
                            <path d="M67.4483442,35.0886966 C67.4483442,37.2676966 65.7023442,39.0576966 63.5213442,39.0576966 C61.3483442,39.0726966 59.5783442,37.2956966 59.5703442,35.1046966 C59.5703442,32.9206966 61.3243442,31.1296966 63.4973442,31.1296966 C65.6813442,31.1236966 67.4353442,32.8946966 67.4483442,35.0886966 Z M22.0206442,22.1301966 C20.3256442,19.9621966 20.6806442,16.7971966 22.8406442,15.0861966 C25.0026442,13.3581966 28.1216442,13.7371966 29.8346442,15.9011966 C31.5286442,18.0681966 31.1836442,21.2271966 29.0156442,22.9471966 C26.8666442,24.6711966 23.7266442,24.3031966 22.0206442,22.1301966 Z M50.6280442,40.7180966 C50.3100442,41.7620966 49.2140442,42.3500966 48.1760442,42.0260966 L41.6170442,40.1840966 C39.4250442,39.6870966 38.3630442,39.0690966 35.6360442,40.1790966 L30.5070442,42.6550966 C29.8240442,42.9940966 29.7930442,43.9640966 30.4530442,44.3490966 L33.0140442,45.8040966 C36.2570442,47.4660966 35.4350442,51.0040966 32.7860442,52.2750966 L24.9520442,57.1330966 C24.3450442,57.4290966 23.6660442,57.3810966 23.1190442,57.0630966 C22.7870442,56.8740966 22.5120442,56.5870966 22.3310442,56.2150966 C21.8570442,55.2300966 22.2680442,54.0460966 23.2440442,53.5670966 L29.4690442,49.5370966 C29.8410442,49.3620966 29.8590442,48.8300966 29.4930442,48.6330966 C28.8430442,48.2850966 28.0550442,47.8100966 27.9190442,47.7300966 L25.3320442,46.2740966 C22.3790442,44.5630966 21.6250442,42.8000966 21.1240442,39.3480966 C20.6190442,35.7970966 19.4410442,31.8560966 19.4410442,31.8560966 C19.0630442,30.6040966 17.9840442,29.8780966 16.6900442,30.1400966 C15.4640442,30.4970966 11.1230442,31.7370966 9.15404416,32.4910966 C7.18804416,33.2440966 6.41304416,32.1690966 6.19804416,31.7420966 C5.59904416,30.5350966 6.46304416,29.5040966 7.40004416,29.1830966 L14.5240442,26.6240966 C17.7590442,25.5320966 20.2820442,25.1760966 22.9370442,26.6200966 C24.1570442,27.2850966 25.4390442,27.6420966 26.6860442,27.6470966 C28.5060442,27.6600966 30.2200442,27.0640966 31.3580442,26.7320966 C33.6110442,26.0770966 41.6840442,23.3870966 41.6840442,23.3870966 C42.5620442,23.2090966 43.5270442,23.3780966 43.9430442,24.5120966 C44.2330442,25.3200966 43.9970442,26.3380966 43.0280442,26.8120966 C42.0580442,27.2850966 33.6930442,29.9620966 32.2290442,30.6010966 C30.7700442,31.2390966 29.3230442,31.9540966 29.4930442,34.3720966 C29.5990442,35.7430966 29.5700442,35.6930966 29.6680442,36.0740966 C29.8700442,36.8340966 30.3480442,37.4350966 31.5180442,37.0610966 L35.0630442,35.9590966 C38.4850442,34.6270966 39.5790442,35.4230966 43.7160442,36.7120966 L49.3360442,38.2440966 C50.3760442,38.5620966 50.9540442,39.6750966 50.6280442,40.7180966 Z" fill="#2D2D3B"></path>
                        </g>
                    </g>
                    <g id="coupon" transform="translate(295.000000, 0.000000)">
                        <g>
                            <rect id="Back" x="0" y="0" width="72" height="72"></rect>
                            <path d="M58.6146971,27.758348 L52.3974443,50.7603827 C51.7551082,53.1316234 49.2798131,54.5483646 46.8625484,53.9080296 L41.2536138,52.4172496 C43.1906272,50.4822372 44.0930994,47.6287443 43.3307005,44.805267 L38.4821638,26.8718842 C38.3741072,26.2595638 38.2720538,25.671256 38.1559931,25.0349231 L38.832347,22.5336144 C39.474683,20.1623738 41.9499781,18.7456325 44.3652418,19.3859676 L55.4290304,22.3255055 C57.8342888,22.9638395 59.2530311,25.3971126 58.6146971,27.758348 M36.8533115,51.3787062 L27.3663479,53.8980244 C24.8190152,54.5763793 22.2076489,53.0815972 21.531295,50.5802885 L15.394084,27.8764098 C14.7197312,25.3851063 16.2165143,22.8177631 18.7538418,22.1434103 L28.2388044,19.6260932 C30.7861372,18.9477383 33.3975034,20.4425203 34.0738573,22.943829 L40.2110683,45.6477078 C40.8834201,48.1390112 39.388638,50.7063545 36.8533115,51.3787062 M56.2594649,19.2018712 L45.1956763,16.2623333 C41.6198054,15.313837 37.9658936,17.0127259 36.3290372,20.1423633 C34.5521075,17.1568013 30.9542251,15.5599658 27.410371,16.5024589 L17.9234074,19.021777 C13.6611773,20.1523685 11.131854,24.4946404 12.2744518,28.7188505 L18.4116628,51.4227293 C19.5522596,55.6469394 23.9345524,58.1542512 28.1947814,57.0236597 L37.0994403,54.6584222 L46.034115,57.0296628 C50.1642759,58.1282376 54.4084965,55.6969656 55.5170765,51.6048245 L61.7343293,28.6007888 C62.8409083,24.5066467 60.3896258,20.298445 56.2594649,19.2018712" fill="#2D2D3B"></path>
                        </g>
                    </g>
                    <g id="account" transform="translate(590.000000, 0.000000)">
                        <g>
                            <rect id="Back" x="0" y="0" width="72" height="72"></rect>
                            <path d="M37,32.6 C40.4939922,32.6 43.6,28.8727906 43.6,24 C43.6,19.1272094 40.4939922,15.4 37,15.4 C33.5060078,15.4 30.4,19.1272094 30.4,24 C30.4,28.8727906 33.5060078,32.6 37,32.6 Z M37,36 C31.4771525,36 27,30.627417 27,24 C27,17.372583 31.4771525,12 37,12 C42.5228475,12 47,17.372583 47,24 C47,30.627417 42.5228475,36 37,36 Z M37,39.4 C27.8019293,39.4 19.9287818,45.4215235 19.4255369,52.3021249 C19.5597953,52.4423865 19.7341363,52.6073206 19.9441158,52.7877944 C20.8806714,53.5927478 22.2682071,54.4942819 23.8977271,55.3220559 C27.8866374,57.348368 32.559855,58.6 37,58.6 C41.3993804,58.6 46.0459907,57.3152533 50.0809328,55.2296282 C51.7090163,54.3880866 53.1118732,53.4717405 54.0733625,52.6565912 C54.2678628,52.4916941 54.4337132,52.3395152 54.5670285,52.2069563 C53.9985499,45.3660952 46.1556385,39.4 37,39.4 Z M37,62 C25.954305,62 16,55.2756346 16,53 C16,43.6111593 25.954305,36 37,36 C48.045695,36 58,43.6111593 58,53 C58,55 48.045695,62 37,62 Z" fill="#2D2D3B"></path>
                        </g>
                    </g>
                </g>
            </g>
        </g>
    </g>
</svg>