<svg xmlns="http://www.w3.org/2000/svg" width="416" height="416" viewBox="0 0 416 416">
    <defs>
        <linearGradient id="a" x1="49.972%" x2="49.972%" y1="99.97%" y2="-.139%">
            <stop offset="0%" stop-color="#F58220"/>
            <stop offset="100%" stop-color="#F8992D"/>
        </linearGradient>
        <linearGradient id="b" x1="49.996%" x2="49.996%" y1="99.993%" y2="-.014%">
            <stop offset="0%" stop-color="#F58220"/>
            <stop offset="100%" stop-color="#F8992D"/>
        </linearGradient>
    </defs>
    <g fill="none" fill-rule="nonzero">
        <path fill="url(#a)" d="M118.5 92.09c9.449 0 17.117-7.668 17.117-17.117 0-9.45-7.668-17.117-17.117-17.117-9.449 0-17.117 7.668-17.117 17.117 0 9.449 7.668 17.116 17.117 17.116z" transform="translate(90 84)"/>
        <path fill="url(#b)" d="M120.669.077C81.014.077 40.584 8.752.155 26.024c0 0 5.809 147.156 14.406 161.64C23.235 202.07 95.42 248.23 118.5 248.23s92.322-46.16 100.996-60.566c8.675-14.406 17.35-161.64 17.35-161.64C199.28 8.674 160.323.077 120.668.077zm-2.169 33.46c22.848 0 41.359 18.588 41.359 41.358 0 22.848-18.588 41.359-41.359 41.359-22.848 0-41.359-18.588-41.359-41.359-.077-22.77 18.511-41.359 41.359-41.359zm39.887 139.72c4.725 4.725 4.725 12.393 0 17.118-4.724 4.724-12.392 4.724-17.116 0L118.5 167.604l-22.77 22.77a12.078 12.078 0 0 1-8.598 3.563 12.078 12.078 0 0 1-8.597-3.562c-4.724-4.725-4.724-12.393 0-17.117l23.158-23.158c-8.442-1.936-16.574-5.267-24.01-9.991-5.654-3.563-7.358-11.076-3.795-16.73 3.563-5.654 11.076-7.357 16.73-3.795 16.961 10.689 38.803 10.689 55.764 0 5.654-3.562 13.167-1.859 16.73 3.795 3.563 5.654 1.859 13.167-3.795 16.73-7.513 4.724-15.568 8.055-24.01 9.991l23.08 23.158z" transform="translate(90 84)"/>
    </g>
</svg>
