<svg xmlns="http://www.w3.org/2000/svg" xmlns:xlink="http://www.w3.org/1999/xlink" width="416" height="416" viewBox="0 0 416 416">
    <g fill="none" fill-rule="evenodd">
        <path fill="#FFF" fill-rule="nonzero" stroke="#00539A" stroke-width="2" d="M78.674 211.91c15.95-44.48 50.962-70.381 91.818-70.591 32.595-16.024 72.86-13.617 103.454 6.707 34.24 22.745 52.4 64.308 47.584 119.033l-.08.913h-42.682c.11 3.997.139 7.377.09 11.028h62.356c6.206-50.7-3.928-91.994-27.621-121.618-21.36-26.707-53.046-42.68-88.39-45.819-34.4-3.056-69.525 6.369-97.025 26.44-24.484 17.87-41.727 43.109-49.504 73.906z"/>
        <path fill="#00539A" fill-rule="nonzero" d="M169.681 141.62c-30.563 15.043-53.74 45.922-54.681 91.646 7.657-47.38 35.147-69.93 64.723-73.355a66.535 66.535 0 0 1 26.92-10.958c46.084-7.874 100.414 30.576 90.18 103.634-6.1 0-26.205-.33-29.583-.43A105.644 105.644 0 0 1 264.59 268h57.63c10.519-118.829-87.656-158.309-152.539-126.38z"/>
        <path fill="#E1251B" fill-rule="nonzero" d="M207.262 148.516a65.64 65.64 0 0 0-26.709 11.002c-15.98 11.26-29.517 29.82-32.374 74.483 12.775-90.512 113.401-75.145 99.274 18.181 5.437 0 12.628-.04 19.945 0 3.352 0 23.303.318 29.357.318 10.15-73.316-43.767-111.892-89.493-103.984z"/>
        <path fill="#00539A" d="M71 240h16.506C101.62 240 107 246.374 107 255.265c0 7.282-3.985 14.964-19.607 14.964h-4.437V286H71v-46zm11.956 9.2v11.829h5.665c3.275 0 7.307-1.164 7.307-5.915 0-4.422-3.434-5.914-7.307-5.914h-5.665zM144 240h15.977c13.78 0 19.023 6.38 19.023 15.272 0 7.275-3.889 14.957-19.133 14.957h-4.848V286H144v-46zm11.019 9.2v11.829h6.053c3.19 0 7.13-1.183 7.13-5.96 0-4.404-3.358-5.869-7.13-5.869h-6.053zM118.783 249.2H109V240h30v9.2h-9.13V286h-11.087zM222.13 270.812h11.85C231.72 280.067 220.804 288 209.935 288 197.647 288 184 278.632 184 263.269 184 247.244 198.29 239 209.477 239c12.301 0 21.322 6.023 24.523 17.261h-11.87c-2.85-5.289-6.462-7.583-12.043-7.583-9.696 0-14.66 7.048-14.66 14.412 0 7.636 5.056 15.066 15.064 15.066 5.077.007 8.782-2.056 11.639-7.344z"/>
    </g>
</svg>
