<svg xmlns="http://www.w3.org/2000/svg" xmlns:xlink="http://www.w3.org/1999/xlink" width="267" height="478" viewBox="0 0 267 478">
    <defs>
        <path id="a" d="M.148.572h53.964v89.619H.148z"/>
        <path id="c" d="M0 .069h96.948v29.18H0z"/>
    </defs>
    <g fill="none" fill-rule="evenodd">
        <path fill="#4BBFFC" stroke="#979797" d="M.5.5h266v477H.5z"/>
        <g transform="translate(105.75 167.178)">
            <mask id="b" fill="#fff">
                <use xlink:href="#a"/>
            </mask>
            <path fill="#FFF" d="M27.145 68.16c-5.9 0-10.675 4.78-10.675 10.686 0 5.911 4.774 10.695 10.675 10.695 5.885 0 10.66-4.784 10.66-10.695 0-5.905-4.775-10.686-10.66-10.686M48.612.572c3.039 0 5.5 2.471 5.5 5.513v5.43c0 7.31-2.785 14.181-7.873 19.358a26.785 26.785 0 0 1-13.074 7.37l-.505.12v14.03l.505.116c4.965 1.137 9.472 3.705 13.09 7.379 5.072 5.16 7.857 12.03 7.857 19.343v5.435c0 3.054-2.461 5.525-5.5 5.525a5.512 5.512 0 0 1-5.514-5.525V79.23c0-4.392-1.676-8.503-4.714-11.611-3.01-3.063-7.014-4.752-11.239-4.764-4.241.012-8.229 1.701-11.252 4.764-3.025 3.108-4.701 7.22-4.701 11.611v5.435c0 3.054-2.475 5.525-5.5 5.525-3.054 0-5.544-2.47-5.544-5.525V79.23c0-7.294 2.801-14.176 7.887-19.343 3.587-3.674 8.125-6.242 13.076-7.38l.518-.115v-14.03l-.518-.12a26.856 26.856 0 0 1-13.076-7.37C2.95 25.696.148 18.807.148 11.516v-5.43c0-3.043 2.49-5.514 5.545-5.514 3.024 0 5.499 2.471 5.499 5.513v5.43c0 4.378 1.676 8.511 4.701 11.612 3.023 3.063 7.01 4.75 11.266 4.76 4.211-.01 8.2-1.697 11.225-4.76 3.038-3.1 4.714-7.234 4.714-11.611v-5.43A5.51 5.51 0 0 1 48.612.571" mask="url(#b)"/>
        </g>
        <g transform="translate(84 278.178)">
            <mask id="d" fill="#fff">
                <use xlink:href="#c"/>
            </mask>
            <path fill="#FFF" d="M20.802.858a2.52 2.52 0 0 0-3.441.927l-6.316 10.96L4.7 1.785A2.519 2.519 0 0 0 1.26.858a2.513 2.513 0 0 0-.92 3.445L8.51 18.456v7.887c0 1.402 1.144 2.528 2.507 2.528a2.522 2.522 0 0 0 2.535-2.528v-7.887l8.155-14.153a2.51 2.51 0 0 0-.904-3.445zM71.222.54h-16.68a2.503 2.503 0 0 0-2.503 2.51 2.506 2.506 0 0 0 2.504 2.52h5.782v20.687a2.54 2.54 0 0 0 2.536 2.543c.697 0 1.318-.27 1.779-.753a2.43 2.43 0 0 0 .755-1.79l-.013-20.686h5.84a2.516 2.516 0 0 0 0-5.031zM44.98 14.925c0-6.394-2.489-9.642-7.41-9.67-6.837 0-7.86 6.033-7.902 9.6 0 2.92.68 5.284 1.985 6.853 1.32 1.54 3.276 2.345 5.856 2.345h.044c5.457 0 7.427-4.712 7.427-9.128zm5.19 0c0 7.126-3.898 14.325-12.617 14.325h-.058c-4.123 0-7.532-1.468-9.814-4.217-2.092-2.518-3.205-6.04-3.205-10.198C24.523 5.874 29.636.07 37.539.07 45.44.094 50.17 5.652 50.17 14.925zm38.088 2.76l-3.427-8.277-3.41 8.277h6.837zm8.508 7.743c.506 1.245-.075 2.69-1.318 3.217a2.315 2.315 0 0 1-.949.188c-1.01 0-1.884-.593-2.299-1.5l-1.912-4.74H79.392l-1.929 4.73c-.518 1.217-2.014 1.834-3.232 1.322-1.244-.527-1.852-1.983-1.318-3.217l9.591-23.243c.578-1.383 1.6-1.694 2.327-1.694 1.04 0 1.883.586 2.328 1.706l9.607 23.23z" mask="url(#d)"/>
        </g>
    </g>
</svg>
