<svg xmlns="http://www.w3.org/2000/svg" xmlns:xlink="http://www.w3.org/1999/xlink" width="416" height="416" viewBox="0 0 416 416">
    <defs>
        <linearGradient id="b" x1="50%" x2="50%" y1="0%" y2="100%">
            <stop offset="0%" stop-color="#EDFBFF"/>
            <stop offset="100%" stop-color="#FFF"/>
        </linearGradient>
        <path id="a" d="M0 0h1338v432H0z"/>
        <path id="d" d="M.231.893h84.2v139.83H.23z"/>
        <path id="f" d="M0 .107h151.266v45.53H0z"/>
    </defs>
    <g fill="none" fill-rule="evenodd">
        <path fill="#4BBFFC" stroke="#4BBFFC" d="M.5.5h415v415H.5z"/>
        <g transform="translate(-256)">
            <mask id="c" fill="#fff">
                <use xlink:href="#a"/>
            </mask>
            <use fill="url(#b)" opacity=".2" xlink:href="#a"/>
            <path fill="#1FAFFB" d="M0 426c529.782 0 679.25-204.088 1023.899-208.44C1368.547 213.21 1850.703 426 2271 426v-545H0v545z" mask="url(#c)" opacity=".6"/>
            <path fill="#1FAFFB" d="M0 118.393C434.948 118.236 936.968 430 1298.728 430c359.016 0 612.227-311.764 972.272-311.607V-2H0v120.393z" mask="url(#c)" opacity=".5"/>
        </g>
        <g transform="translate(165.936 98.277)">
            <mask id="e" fill="#fff">
                <use xlink:href="#d"/>
            </mask>
            <path fill="#FFF" d="M42.354 106.348c-9.207 0-16.655 7.46-16.655 16.674 0 9.223 7.448 16.687 16.655 16.687 9.182 0 16.634-7.464 16.634-16.687 0-9.214-7.452-16.674-16.634-16.674M75.85.892c4.74 0 8.581 3.856 8.581 8.603v8.473c0 11.405-4.346 22.125-12.283 30.203-5.574 5.72-12.653 9.677-20.4 11.499l-.788.186v21.892l.787.18c7.748 1.774 14.78 5.782 20.425 11.514 7.913 8.05 12.26 18.771 12.26 30.181v8.48c0 4.766-3.841 8.62-8.582 8.62-4.764 0-8.603-3.854-8.603-8.62v-8.48c0-6.853-2.616-13.267-7.356-18.117-4.697-4.778-10.944-7.415-17.536-7.433-6.617.018-12.84 2.655-17.556 7.433-4.72 4.85-7.335 11.264-7.335 18.117v8.48c0 4.766-3.862 8.62-8.58 8.62-4.767 0-8.652-3.854-8.652-8.62v-8.48c0-11.381 4.371-22.12 12.306-30.18 5.597-5.733 12.677-9.74 20.403-11.515l.807-.18V59.856l-.807-.186A41.903 41.903 0 0 1 12.537 48.17C4.602 40.093.231 29.344.231 17.968V9.495C.231 4.748 4.116.892 8.883.892c4.718 0 8.58 3.856 8.58 8.603v8.473c0 6.83 2.615 13.278 7.335 18.117 4.717 4.78 10.939 7.41 17.577 7.428 6.571-.018 12.797-2.649 17.515-7.428 4.74-4.839 7.356-11.288 7.356-18.117V9.495A8.598 8.598 0 0 1 75.849.892" mask="url(#e)"/>
        </g>
        <g transform="translate(132 271.469)">
            <mask id="g" fill="#fff">
                <use xlink:href="#f"/>
            </mask>
            <path fill="#FFF" d="M32.457 1.34a3.932 3.932 0 0 0-5.37 1.446l-9.854 17.1-9.899-17.1a3.93 3.93 0 0 0-5.366-1.447A3.921 3.921 0 0 0 .533 6.714l12.744 22.083v12.306c0 2.187 1.784 3.944 3.91 3.944a3.935 3.935 0 0 0 3.956-3.944V28.797L33.868 6.714c1.11-1.871.463-4.286-1.411-5.375zm78.67-.498H85.101a3.905 3.905 0 0 0-3.906 3.917c0 2.172 1.734 3.933 3.906 3.933h9.022v32.277a3.962 3.962 0 0 0 3.957 3.968 3.772 3.772 0 0 0 2.776-1.175c.786-.745 1.178-1.742 1.178-2.793l-.021-32.277h9.112a3.932 3.932 0 0 0 3.932-3.933 3.926 3.926 0 0 0-3.932-3.917zM70.181 23.287c0-9.976-3.884-15.043-11.563-15.088-10.666 0-12.263 9.413-12.328 14.978 0 4.557 1.061 8.245 3.096 10.693 2.06 2.403 5.113 3.66 9.137 3.66h.07c8.514 0 11.588-7.352 11.588-14.243zm8.098 0c0 11.12-6.082 22.35-19.687 22.35h-.09c-6.433 0-11.752-2.29-15.313-6.578-3.264-3.93-5-9.424-5-15.911C38.262 9.165 46.241.108 58.57.108 70.899.146 78.28 8.817 78.28 23.286zm59.428 4.306L132.36 14.68l-5.32 12.914h10.667zm13.275 12.081c.788 1.944-.117 4.198-2.058 5.02-.485.212-.97.294-1.48.294-1.575 0-2.94-.925-3.587-2.341l-2.984-7.396h-17l-3.009 7.38c-.809 1.9-3.143 2.862-5.044 2.064-1.94-.823-2.889-3.094-2.056-5.02L128.73 3.41c.902-2.158 2.497-2.644 3.631-2.644 1.62 0 2.937.914 3.632 2.662l14.99 36.246z" mask="url(#g)"/>
        </g>
    </g>
</svg>
