<svg xmlns="http://www.w3.org/2000/svg" width="241" height="34" viewBox="0 0 241 34">
  <g fill="#000" fill-rule="nonzero">
    <path d="M25.263 16.193c0-2.667-.488-4.915-1.466-6.742-.979-1.832-2.44-3.269-4.382-4.324a15.493 15.493 0 00-4.499-1.588c-1.59-.297-3.491-.448-5.704-.448H4.737v26.273h4.475c2.293 0 4.294-.16 6.004-.48a13.895 13.895 0 004.705-1.785c1.78-1.079 3.116-2.505 4.006-4.273.89-1.771 1.336-3.977 1.336-6.633m4.737.843c0 3.089-.706 5.89-2.112 8.401-1.406 2.512-3.278 4.464-5.615 5.846-1.624.96-3.432 1.651-5.426 2.079-1.995.425-4.623.638-7.882.638H0V0h8.871c3.463 0 6.22.24 8.264.723 2.04.477 3.77 1.137 5.185 1.97 2.418 1.449 4.301 3.374 5.652 5.777C29.324 10.876 30 13.73 30 17.036M56 34H30v-4.215L50.471 4.044h-19.69V0h24.718v4.102l-20.68 25.854H56z"/>
    <path fill-opacity=".593" d="M239 34H69V24h170z"/>
    <path fill-opacity=".593" d="M241 34H126V24h115z"/>
    <path fill-opacity=".593" d="M239 34h-56V24h56z"/>
    <path d="M83.748 19.358v-9.66c-.875-.353-1.66-.586-2.355-.713-.69-.128-1.45-.196-2.264-.196-1.832 0-3.243.549-4.264 1.653-1.016 1.104-1.519 2.681-1.519 4.71 0 1.997.387 3.523 1.176 4.566.789 1.03 2.042 1.563 3.77 1.563.927 0 1.862-.18 2.81-.541.944-.36 1.823-.819 2.646-1.382M87 23.512h-3.252v-1.758a11.812 11.812 0 01-2.925 1.645c-1.008.405-2.11.601-3.303.601-2.304 0-4.139-.782-5.482-2.336C70.682 20.109 70 17.954 70 15.196c0-1.434.228-2.704.703-3.822.468-1.128 1.094-2.081 1.897-2.87a8.025 8.025 0 012.733-1.758 9.052 9.052 0 013.242-.6c1.017 0 1.917.097 2.699.277.784.188 1.608.481 2.474.871V0H87v23.512zM91.85 25h-2.694V7.857h2.695V25zM92 4.975h-3V2h3v2.975zm17.753 15.883v-9.306a13.765 13.765 0 00-2.424-.743c-.733-.152-1.48-.22-2.222-.22-1.788 0-3.191.53-4.22 1.586-1.03 1.054-1.546 2.595-1.546 4.614 0 1.913.386 3.37 1.15 4.357.76.987 2.02 1.488 3.788 1.488a8.95 8.95 0 002.853-.486 11.082 11.082 0 002.621-1.29M113 23.605c0 2.885-.742 5.01-2.226 6.36-1.484 1.353-3.77 2.035-6.859 2.035-1.022 0-2.02-.068-2.995-.197-.969-.13-1.93-.297-2.874-.532v-2.93h.172c.527.183 1.368.403 2.522.669 1.154.265 2.3.402 3.458.402 1.098 0 2.012-.114 2.732-.35.73-.235 1.296-.553 1.699-.979a3.27 3.27 0 00.858-1.426c.185-.562.266-1.184.266-1.875v-1.549c-.982.691-1.917 1.215-2.81 1.549-.9.341-2.033.524-3.419.524-2.304 0-4.135-.744-5.49-2.217C96.676 21.617 96 19.537 96 16.851c0-1.466.232-2.733.7-3.796a8.446 8.446 0 011.917-2.763c.742-.72 1.655-1.282 2.724-1.692 1.077-.395 2.14-.6 3.208-.6 1.116 0 2.051.1 2.806.296.755.205 1.553.509 2.398.911l.202-.721H113v15.12zM120.848 25h-2.691V7.857h2.69V25zM121 4.975h-3V2h3v2.975zM135 24.5c-.552.156-1.156.273-1.81.36-.654.093-1.234.14-1.744.14-1.782 0-3.14-.477-4.075-1.44-.923-.97-1.39-2.52-1.39-4.656V9.536H124V7.032h1.981V2h2.951v5.032H135v2.504h-6.068v8.038c0 .923.02 1.651.062 2.167.043.525.19 1.01.436 1.463.234.415.545.728.946.924.4.196 1.015.282 1.837.282.479 0 .985-.063 1.503-.195.52-.134.903-.26 1.124-.353h.16v2.637zm12.22-5.194v-4.777c-.845.045-1.836.121-2.978.228-1.14.106-2.042.243-2.714.441-.79.236-1.433.6-1.922 1.096-.492.51-.734 1.186-.734 2.061 0 .982.283 1.72.849 2.214.572.502 1.436.753 2.603.753.974 0 1.859-.198 2.66-.594a11.726 11.726 0 002.236-1.422m2.78 4.2h-2.78v-1.803c-.246.175-.576.41-.995.73a6.55 6.55 0 01-1.213.73 7.097 7.097 0 01-1.59.594c-.598.167-1.296.243-2.104.243-1.48 0-2.732-.51-3.764-1.53-1.032-1.026-1.554-2.327-1.554-3.91 0-1.3.272-2.35.812-3.149.532-.799 1.292-1.43 2.284-1.894 1-.457 2.204-.776 3.603-.936a69.643 69.643 0 014.521-.358v-.456c0-.654-.11-1.202-.334-1.628a2.392 2.392 0 00-.94-1.027c-.393-.236-.867-.396-1.414-.471-.551-.084-1.12-.13-1.723-.13-.72 0-1.53.099-2.42.305-.893.205-1.814.51-2.766.889h-.15V6.784a28.889 28.889 0 012.35-.517 17.868 17.868 0 013.02-.267c1.16 0 2.166.1 3.033.29.855.205 1.601.54 2.225 1.027a4.548 4.548 0 011.418 1.818c.32.745.481 1.673.481 2.776v11.594zm7 .494h-3V0h3v24zm28 0h-14v-2.265l10.118-13.172h-9.901V6h13.531v2.179l-10.155 13.259H185zm14.818-8.996c0-2.196-.47-3.832-1.411-4.9-.936-1.067-2.23-1.605-3.898-1.605-1.689 0-2.992.538-3.929 1.606-.925 1.067-1.394 2.703-1.394 4.899 0 2.128.47 3.741 1.407 4.847.936 1.097 2.241 1.643 3.916 1.643 1.653 0 2.949-.546 3.886-1.636.948-1.09 1.423-2.703 1.423-4.854m3.182 0c0 2.78-.77 4.976-2.306 6.58-1.538 1.613-3.603 2.416-6.185 2.416-2.607 0-4.673-.803-6.207-2.415C186.77 19.98 186 17.783 186 15.004c0-2.771.77-4.975 2.302-6.58 1.534-1.621 3.6-2.424 6.207-2.424 2.582 0 4.647.803 6.185 2.423 1.537 1.606 2.306 3.81 2.306 6.58M221 24h-2.824v-9.966c0-.801-.048-1.55-.138-2.258-.093-.708-.253-1.26-.492-1.657a2.366 2.366 0 00-1.084-.974c-.465-.21-1.076-.319-1.818-.319-.771 0-1.572.194-2.417.592a12.39 12.39 0 00-2.407 1.518V24H207V6.498h2.82v1.93c.88-.762 1.788-1.361 2.727-1.782a6.907 6.907 0 012.89-.646c1.808 0 3.19.568 4.14 1.713.942 1.128 1.423 2.771 1.423 4.92V24zm14.94-10.861c-.016-1.54-.433-2.73-1.249-3.57-.816-.839-2.061-1.258-3.735-1.258-1.678 0-3.019.465-4.018 1.388-.987.923-1.557 2.067-1.69 3.44h10.692zm3.06 2.234h-13.752c0 1.046.174 1.953.52 2.731.346.786.816 1.419 1.42 1.922.579.489 1.265.847 2.065 1.091.795.252 1.674.36 2.636.36 1.27 0 2.548-.23 3.835-.688 1.282-.465 2.202-.923 2.747-1.365h.172v3.135a26.839 26.839 0 01-3.261 1.03 14.41 14.41 0 01-3.485.411c-3.11 0-5.534-.763-7.274-2.311-1.75-1.54-2.623-3.715-2.623-6.544 0-2.807.84-5.034 2.506-6.674C226.176 6.824 228.379 6 231.102 6c2.527 0 4.476.67 5.846 2.03 1.37 1.357 2.052 3.279 2.052 5.773v1.57z"/>
  </g>
</svg>
