<svg xmlns="http://www.w3.org/2000/svg" width="212" height="51" viewBox="0 0 212 51">
  <path d="M35.643 30.747c-1.243-1.24-1.864-2.776-1.864-4.61 0-1.834.621-3.363 1.864-4.586 1.242-1.222 2.75-1.833 4.52-1.833 1.77 0 3.276.611 4.519 1.833 1.242 1.223 1.864 2.752 1.864 4.586 0 1.834-.622 3.37-1.864 4.61-1.243 1.24-2.75 1.86-4.52 1.86-1.77 0-3.277-.62-4.519-1.86m172.364-15.105c2.094 2.038 3.14 5.061 3.14 9.068v15.691h-7.965V25.933c0-2.173-.478-3.796-1.43-4.866-.953-1.069-2.332-1.604-4.137-1.604-2.008 0-3.608.62-4.8 1.86-1.192 1.24-1.786 3.082-1.786 5.527v13.551h-7.967V12.993h7.609v3.21c1.055-1.155 2.365-2.046 3.932-2.675 1.566-.628 3.285-.943 5.157-.943 3.404 0 6.154 1.02 8.247 3.057zm-39.943 16.583c1.31-1.376 1.967-3.218 1.967-5.528 0-2.309-.657-4.152-1.967-5.528-1.311-1.375-2.988-2.063-5.03-2.063-2.042 0-3.727.688-5.055 2.063-1.328 1.376-1.992 3.219-1.992 5.528 0 2.31.664 4.152 1.992 5.528 1.328 1.375 3.013 2.063 5.055 2.063s3.719-.688 5.03-2.063zM155.247 39c-2.298-1.206-4.094-2.88-5.388-5.018-1.294-2.14-1.94-4.568-1.94-7.286 0-2.716.646-5.146 1.94-7.285 1.294-2.14 3.09-3.812 5.388-5.018s4.894-1.809 7.787-1.809c2.894 0 5.48.603 7.762 1.809 2.28 1.206 4.068 2.878 5.362 5.018 1.293 2.14 1.94 4.569 1.94 7.285 0 2.718-.647 5.145-1.94 7.286-1.294 2.139-3.081 3.812-5.362 5.018-2.281 1.205-4.868 1.808-7.762 1.808-2.893 0-5.49-.603-7.787-1.808zm-20.135 1.4h7.967V12.993h-7.967V40.4zm.408-32.503c-.918-.848-1.378-1.902-1.378-3.158s.46-2.31 1.378-3.159c.92-.849 2.111-1.273 3.575-1.273 1.463 0 2.656.407 3.574 1.222.92.815 1.38 1.834 1.38 3.057 0 1.325-.46 2.42-1.38 3.286-.918.866-2.11 1.299-3.574 1.299s-2.656-.424-3.575-1.274zm-17.117 22.798c1.345-1.24 2.017-2.86 2.017-4.865 0-2.003-.672-3.625-2.017-4.865-1.344-1.24-3.072-1.86-5.183-1.86-2.111 0-3.847.62-5.208 1.86-1.362 1.24-2.043 2.862-2.043 4.865 0 2.004.68 3.626 2.043 4.865 1.36 1.24 3.097 1.86 5.208 1.86s3.839-.62 5.183-1.86zm9.882-17.703v22.823c0 5.027-1.311 8.763-3.932 11.208-2.622 2.446-6.452 3.668-11.49 3.668-2.656 0-5.175-.323-7.557-.968-2.384-.645-4.359-1.579-5.924-2.801l3.166-5.706c1.157.95 2.62 1.706 4.392 2.267 1.769.56 3.54.84 5.31.84 2.758 0 4.791-.62 6.103-1.86 1.31-1.24 1.966-3.115 1.966-5.629v-1.171c-2.077 2.275-4.971 3.413-8.681 3.413-2.52 0-4.826-.551-6.92-1.656a12.626 12.626 0 01-4.978-4.661c-1.226-2.004-1.84-4.313-1.84-6.93 0-2.614.614-4.923 1.84-6.927a12.636 12.636 0 014.978-4.662c2.094-1.104 4.4-1.656 6.92-1.656 3.983 0 7.013 1.308 9.09 3.923v-3.515h7.557zm-52.403 7.132c-1.226 1.019-1.975 2.412-2.247 4.178h13.532c-.273-1.733-1.02-3.116-2.247-4.152-1.225-1.036-2.723-1.554-4.493-1.554-1.805 0-3.32.51-4.545 1.528zm18.638 8.814H73.737c.374 1.699 1.259 3.04 2.655 4.025 1.396.985 3.132 1.477 5.21 1.477 1.43 0 2.697-.212 3.803-.637 1.106-.425 2.136-1.095 3.09-2.012l4.238 4.585c-2.587 2.955-6.366 4.432-11.336 4.432-3.098 0-5.839-.603-8.222-1.808-2.383-1.206-4.221-2.88-5.515-5.018-1.294-2.14-1.94-4.568-1.94-7.286 0-2.683.638-5.102 1.915-7.26 1.276-2.156 3.03-3.837 5.26-5.043 2.229-1.206 4.723-1.809 7.48-1.809 2.69 0 5.124.578 7.303 1.732 2.178 1.155 3.889 2.811 5.132 4.968 1.242 2.157 1.864 4.661 1.864 7.514 0 .102-.051.815-.154 2.14zM52.667 40.4h7.967V2.6h-7.967v37.8zM10.162 20.125c-1.225 1.019-1.975 2.412-2.247 4.178h13.533c-.274-1.733-1.022-3.116-2.247-4.152-1.226-1.036-2.725-1.554-4.494-1.554-1.805 0-3.32.51-4.545 1.528zM28.8 28.939H8.017c.374 1.699 1.26 3.04 2.656 4.025 1.395.985 3.131 1.477 5.208 1.477 1.43 0 2.698-.212 3.805-.637 1.105-.425 2.136-1.095 3.09-2.012l4.238 4.585c-2.588 2.955-6.367 4.432-11.337 4.432-3.098 0-5.84-.603-8.221-1.808-2.383-1.206-4.222-2.88-5.516-5.018C.646 31.843 0 29.415 0 26.697c0-2.683.638-5.102 1.915-7.26 1.277-2.156 3.03-3.837 5.26-5.043 2.229-1.206 4.723-1.809 7.48-1.809 2.69 0 5.124.578 7.303 1.732 2.178 1.155 3.889 2.811 5.132 4.968 1.242 2.157 1.864 4.661 1.864 7.514 0 .102-.051.815-.153 2.14z" fill="#000" fill-rule="evenodd"/>
</svg>
