<svg xmlns="http://www.w3.org/2000/svg" width="239" height="54" viewBox="0 0 239 54">
  <defs>
    <linearGradient id="a" x1="0%" x2="100%" y1="63.112%" y2="63.112%">
      <stop offset="0%"/>
      <stop offset="100%" stop-color="#3E3B39"/>
    </linearGradient>
    <linearGradient id="b" x1="0%" x2="100%" y1="63.112%" y2="63.112%">
      <stop offset="0%"/>
      <stop offset="100%" stop-color="#3E3B39"/>
    </linearGradient>
  </defs>
  <g fill-rule="nonzero" fill="none">
    <path fill="url(#a)" d="M33.192 12.644c-2.374 0-4.216.595-5.818 1.73-1.367.835-2.555 2.027-3.564 3.636h-.118c-1.249-3.22-4.216-5.366-8.015-5.366-4.87 0-7.484 2.682-8.909 4.95H6.59l-.295-4.296H0c.179 2.508.237 5.31.237 8.65v20.396h7.128V25.168c0-.834.119-1.67.416-2.385.652-2.03 2.493-4.176 5.225-4.176 3.385 0 4.987 2.865 4.987 6.92v16.817h7.126V24.931c0-.838.179-1.73.358-2.447.77-2.087 2.611-3.877 5.106-3.877 3.503 0 5.166 2.865 5.166 7.693v16.044h7.124V25.23c0-9.304-4.869-12.583-9.68-12.583l-.001-.002zM99.074 0H91.77v16.462h-.119c-1.306-2.148-4.157-3.818-8.135-3.818-5.971 0-11.277 4.285-12.612 11.663-.729-5.75-4.12-11.663-12.313-11.663-9.263 0-14.132 7.573-14.132 15.625 0 8.885 5.522 14.67 14.903 14.67 4.157 0 7.6-.775 10.095-1.787L68.39 36.08c-2.197.836-4.631 1.312-8.016 1.312-4.632 0-8.729-2.265-8.905-7.514h19.176C71.304 37.847 76.491 43 82.922 43c4.217 0 7.719-2.028 9.442-5.249h.118l.298 4.593h6.533a149.474 149.474 0 01-.24-8.172V0zM91.77 29.76a8.262 8.262 0 01-.237 2.147c-.714 3.162-3.325 5.188-6.294 5.188-4.634 0-7.245-3.876-7.245-9.184 0-5.427 2.611-9.603 7.303-9.603 3.325 0 5.64 2.326 6.294 5.19.118.595.179 1.312.179 1.907v4.354zm-40.302-5.01c.295-2.982 2.195-7.097 6.71-7.097 4.868 0 6.054 4.413 5.996 7.097H51.468zm54.574-23.559c-2.437 0-4.1 1.731-4.1 3.996 0 2.207 1.603 3.938 4.037 3.938 2.555 0 4.16-1.731 4.16-3.938-.063-2.265-1.605-3.996-4.1-3.996h.003zm-3.683 41.152h7.365V13.3h-7.365v29.044zm33.225-17.476c0-6.321-2.672-12.224-11.936-12.224-4.572 0-8.312 1.253-10.45 2.565l1.426 4.769c1.958-1.251 4.927-2.146 7.78-2.146 5.105 0 5.875 3.162 5.875 5.07v.477c-10.686-.061-17.159 3.637-17.159 10.973 0 4.413 3.267 8.648 9.084 8.648 3.741 0 6.768-1.611 8.551-3.877h.18l.474 3.221H136c-.298-1.79-.416-4.354-.416-6.978V24.868zm-7.126 7.278c0 .478-.058 1.073-.237 1.611-.654 2.085-2.79 3.994-5.701 3.994-2.316 0-4.157-1.312-4.157-4.174 0-4.413 4.93-5.547 10.095-5.427v3.996z"/>
    <path fill="url(#b)" d="M152.108 37.23c-3.041-.006-5.68-2.123-6.375-5.114-.17-.66-.25-1.34-.238-2.022v-4.462c0-.593.118-1.25.296-1.843.708-3.211 3.483-5.411 6.495-5.411 4.661 0 7.14 4.162 7.14 9.277 0 5.709-2.716 9.574-7.318 9.574m2.595-24.62c-4.368 0-7.733 1.842-9.857 5.114h-.118l-.354-4.46H138c.118 2.735.236 5.827.236 9.634V54h7.26V39.014h.117c1.477 2.32 4.488 3.865 8.087 3.865 6.553 0 13.103-5.056 13.103-15.523 0-9.04-5.487-14.748-12.1-14.748zm36.768 12.194c0-6.306-2.656-12.193-11.864-12.193-4.546 0-8.262 1.25-10.386 2.558l1.414 4.756c1.949-1.248 4.9-2.14 7.734-2.14 5.075 0 5.842 3.153 5.842 5.057v.474c-10.624-.06-17.059 3.628-17.059 10.943 0 4.4 3.248 8.624 9.032 8.624 3.72 0 6.729-1.607 8.501-3.866h.176l.471 3.212h6.553c-.296-1.785-.414-4.343-.414-6.959V24.801v.002zm-7.082 7.255c0 .476-.058 1.07-.235 1.607-.652 2.079-2.776 3.982-5.668 3.982-2.302 0-4.132-1.308-4.132-4.162 0-4.4 4.9-5.531 10.035-5.412v3.985zm16.848-13.263h-.235l-.236-5.53h-6.317c.178 2.616.236 5.411.236 9.335v19.628h7.26V27.24c0-.835.118-1.607.236-2.26.651-3.27 3.011-5.532 6.494-5.532.885 0 1.533.12 2.124.239v-6.9a7.624 7.624 0 00-1.71-.178c-3.07 0-6.435 2.082-7.852 6.185zM226.84 25.1l10.626-11.836h-8.736l-6.966 9.339a48.047 48.047 0 00-2.302 3.389h-.118V0h-7.26v42.225h7.26v-9.873l2.478-2.912 8.265 12.785H239l-12.161-17.128v.003z"/>
  </g>
</svg>
