<svg xmlns="http://www.w3.org/2000/svg" width="224" height="42" viewBox="0 0 224 42">
  <path d="M3.902 5.851v15.468h8.895c4.649 0 7.576-2.723 7.576-7.763 0-5.098-2.985-7.705-7.576-7.705H3.902zm0 19.06v14.83c0 1.1-.86 1.97-1.95 1.97A1.946 1.946 0 010 39.74V4.229c0-1.1.86-1.97 1.951-1.97h11.42c6.14 0 10.961 3.592 10.961 11.297 0 7.589-4.705 11.354-10.96 11.354h-9.47zm30.949-8.574c0-1.043-.804-1.854-1.837-1.854s-1.836.81-1.836 1.854v23.52c0 1.042.803 1.853 1.836 1.853s1.837-.81 1.837-1.853V26.88c0-5.33 2.697-9.037 7.977-9.037a1.797 1.797 0 00-.001-3.592c-3.96 0-6.829 1.97-7.976 4.635v-2.55zm24.922-2.202c7.46 0 12.052 4.403 12.052 13.904 0 9.5-4.591 13.961-12.052 13.961-7.403 0-12.051-4.46-12.051-13.961 0-9.501 4.648-13.904 12.051-13.904zm0 24.505c5.28 0 8.321-3.186 8.321-10.601 0-7.3-3.041-10.544-8.32-10.544-5.28 0-8.322 3.244-8.322 10.544 0 7.415 3.042 10.601 8.321 10.601zm28.94-24.505c7.46 0 12.051 4.403 12.051 13.904 0 9.5-4.59 13.961-12.051 13.961-7.403 0-12.051-4.46-12.051-13.961 0-9.501 4.648-13.904 12.051-13.904zm0 24.505c5.28 0 8.321-3.186 8.321-10.601 0-7.3-3.041-10.544-8.321-10.544-5.28 0-8.321 3.244-8.321 10.544 0 7.415 3.041 10.601 8.321 10.601zm26.587 3.07c.746 0 1.377-.405 1.721-1.158l9.756-23.404c.058-.174.172-.406.172-.811 0-1.043-.803-1.854-1.836-1.854s-1.492.637-1.722 1.216L115.3 35.686l-8.092-19.987c-.23-.579-.689-1.216-1.721-1.216-1.033 0-1.837.81-1.837 1.854 0 .405.115.637.172.81l9.756 23.405c.344.753.976 1.158 1.722 1.158zm15.396-13.671c0-8.922 4.361-13.904 11.822-13.904 9.182 0 10.96 7.357 10.96 11.297 0 1.68 0 3.707-2.295 3.707h-16.757c0 5.735 3.271 9.443 8.666 9.443 3.328 0 5.28-1.274 6.886-2.491.345-.232.574-.348 1.033-.348.918 0 1.664.754 1.664 1.68 0 .638-.286.985-.63 1.333-.862.869-3.846 3.244-8.953 3.244-7.633 0-12.396-4.229-12.396-13.961zm19.167-2.144c0-4.17-1.434-8.4-7.345-8.4-4.993 0-7.747 3.244-8.092 8.4h15.437zM161.816 0c-.975 0-1.836.869-1.836 1.854v33.078c0 4.461 2.123 6.778 5.968 6.778.919 0 1.722-.753 1.722-1.738 0-.984-.803-1.738-1.722-1.738-1.55 0-2.295-.984-2.295-3.302V1.854c0-.985-.804-1.854-1.837-1.854zm21.136 17.611c-3.042 0-4.878.927-6.657 2.955-.574.637-.976.81-1.493.81a1.673 1.673 0 01-1.664-1.68c0-.405.115-.695.287-.984 1.607-2.55 4.706-4.577 9.527-4.577 6.656 0 10.33 3.94 10.33 9.848v15.931c0 .985-.804 1.796-1.78 1.796-.975 0-1.779-.81-1.779-1.796V37.83c-1.433 2.722-4.763 4.17-8.206 4.17-6.083 0-9.928-2.954-9.928-8.284 0-5.098 3.845-8.168 10.043-8.168h8.091v-1.565c0-3.939-2.582-6.372-6.771-6.372zm-1.09 21.029c4.016 0 7.861-2.491 7.861-7.415v-2.433h-8.091c-3.73 0-6.313 1.564-6.313 4.924 0 3.012 2.066 4.924 6.542 4.924zm22.798-16.047v7.995c0 5.503 3.157 8.052 7.576 8.052 5.28 0 8.091-3.36 8.091-10.601 0-7.126-2.87-10.544-8.091-10.544-5.395 0-7.576 5.098-7.576 5.098zm7.805-8.458c7.403 0 11.535 4.403 11.535 13.904 0 9.5-4.361 13.961-11.764 13.961-6.543 0-11.248-3.766-11.248-11.412V1.854c0-1.043.803-1.854 1.836-1.854s1.836.811 1.836 1.854V17.9c1.32-1.854 4.132-3.766 7.805-3.766z" fill="#000" fill-rule="nonzero"/>
</svg>
